<svg xmlns="http://www.w3.org/2000/svg" viewBox="0 0 512 512"><path d="M451.938 494.277V512H60.062V494.277C60.062 482.462 69.908 472.615 81.723 472.615H430.277C442.092 472.615 451.938 482.462 451.938 494.277ZM119.138 452.923L99.446 84.677C99.446 70.892 111.262 59.077 125.046 59.077H146.708C168.369 37.415 203.815 0 255.015 0 308.185 0 341.662 37.415 363.323 59.077H388.923L388.923 59.077C402.708 59.077 414.523 70.892 414.523 84.677L394.831 452.923H119.138ZM178.215 157.538H335.754V137.846H178.215V157.538ZM178.215 216.615H335.754V196.923H178.215V216.615Z"/></svg>