<?xml version="1.0" encoding="iso-8859-1"?>
<!-- Generator: Adobe Illustrator 16.0.0, SVG Export Plug-In . SVG Version: 6.00 Build 0)  -->
<!DOCTYPE svg PUBLIC "-//W3C//DTD SVG 1.1//EN" "http://www.w3.org/Graphics/SVG/1.1/DTD/svg11.dtd">
<svg version="1.1" id="Capa_1" xmlns="http://www.w3.org/2000/svg" xmlns:xlink="http://www.w3.org/1999/xlink" x="0px" y="0px"
	 width="26px" height="26px" viewBox="0 0 26 26" style="enable-background:new 0 0 26 26;" xml:space="preserve">
<g>
	<path d="M22.95,25.1V26H3.05v-0.9c0-0.6,0.5-1.1,1.1-1.1h17.7C22.45,24,22.95,24.5,22.95,25.1z M6.05,23l-1-18.7
		c0-0.7,0.6-1.3,1.3-1.3h1.1c1.1-1.1,2.9-3,5.5-3c2.7,0,4.4,1.9,5.5,3h1.3l0,0c0.7,0,1.3,0.6,1.3,1.3l-1,18.7H6.05z M9.05,8h8V7h-8
		V8z M9.05,11h8v-1h-8V11z"/>
</g>
<g>
</g>
<g>
</g>
<g>
</g>
<g>
</g>
<g>
</g>
<g>
</g>
<g>
</g>
<g>
</g>
<g>
</g>
<g>
</g>
<g>
</g>
<g>
</g>
<g>
</g>
<g>
</g>
<g>
</g>
</svg>
