<svg xmlns:dc="http://purl.org/dc/elements/1.1/" xmlns:cc="http://creativecommons.org/ns#" xmlns:rdf="http://www.w3.org/1999/02/22-rdf-syntax-ns#" xmlns:svg="http://www.w3.org/2000/svg" xmlns="http://www.w3.org/2000/svg" xmlns:sodipodi="http://sodipodi.sourceforge.net/DTD/sodipodi-0.dtd" xmlns:inkscape="http://www.inkscape.org/namespaces/inkscape" width="512" height="512" viewBox="0 0 512 512" data-tags="calendar-warning" style="margin-left: 2px; margin-top: 2px;" id="svg2" version="1.1" inkscape:version="0.48.2 r9819" sodipodi:docname="calendar-warning.svg">






<g>































  </g><path d="M 448,64  m0 0,c -16,0 -32,0 -48,0 0.89593,16.230033 0.13422,35.995005 -16.75936,44.13211 C 361.60688,121.18831 332.22486,100.60152 336,75.918024 339.01562,64.394197 332.69984,62.201779 322.39341,64 273.59561,64 224.7978,64 176,64 c 0.89593,16.230033 0.13422,35.995005 -16.75936,44.13211 C 137.60688,121.18831 108.22486,100.60152 112,75.918024 115.01562,64.394197 108.69984,62.201779 98.393413,64 79.286529,65.64847 56.797257,58.632176 41.4,73.4 26.689067,88.660518 33.619596,111.03551 32,130.01647 32.11051,237.09616 31.778869,344.18711 32.166016,451.25977 33.621576,471.67946 54.839274,482.86875 73.524611,480 199.43492,479.88931 325.3565,480.22137 451.25977,479.83398 471.67946,478.37842 482.86875,457.16073 480,438.47539 479.88947,323.23174 480.22116,207.97684 479.83398,92.740234 478.47471,76.855943 463.9588,63.708433 448,64 z m 0,383.942 c -127.94384,0.0967 -256.05665,0.0967 -384,0 0,-95.98067 0,-191.96133 0,-287.942 128,0 256,0 384,0 0,95.98067 0,191.96133 0,287.942 z M 144,96 C 160.84828,95.919493 160.80389,77.310419 160,65.032754 159.26963,46.653328 161.52971,27.893083 158.74256,9.7723125 150.31324,-9.907338 122.14032,3.953852 128,22.803294 c 0.21634,20.134938 -0.43326,40.313419 0.32509,60.421104 C 129.6967,90.493919 136.59622,96.133543 144,96 z m 224,0 C 384.84828,95.919493 384.80389,77.310419 384,65.032754 383.26963,46.653328 385.52971,27.893083 382.74256,9.7723125 374.31324,-9.907338 346.14032,3.953852 352,22.803294 c 0.21634,20.134938 -0.43326,40.313419 0.32509,60.421104 C 353.6967,90.493919 360.59622,96.133543 368,96 z M 239.66792,273.73618 c 10.44403,0.0879 20.88805,0.17588 31.33208,0.26382 0.33333,26.33333 -1.19573,34.05039 -0.8624,60.38372 -11,-0.33333 -20.1376,0.14139 -31.1376,-0.19194 0.22264,-26.08794 0.44528,-34.36766 0.66792,-60.4556 z m 2.20848,98.82562 c 9.66667,0.33333 20.45693,0.10487 30.1236,0.4382 -1.77155,-6.46889 3.586,-20.06688 -2.72132,-22 -9.42622,0 -18.85245,0 -28.27868,0 0.66667,7 0.20973,14.5618 0.8764,21.5618 z M 436,492 C 314.91416,491.91934 193.82233,492.16137 72.740234,491.87891 56.781967,495.41775 41.883353,470.54514 44,466.72132 c -1.517282,16.47761 2.036042,36.19402 19.575,42.75368 19.004779,4.92464 39.15928,1.51066 58.6874,2.525 105.66438,-0.11056 211.34002,0.22119 316.99737,-0.16602 20.41969,-1.45556 31.60898,-22.67325 28.74023,-41.35859 1.86668,-14.58767 -5.26845,23.2636 -19.575,19.62461 -4.00208,1.30698 -8.22053,1.89967 -12.425,1.9 zM 256.625,177.09974 242.0625,196.756 c -48.81497,65.87738 -97.92581,131.67715 -146.375,197.89112 -1.124788,1.17672 -1.985587,2.28421 -2.4375,3.28057 -0.0084,0.0186 0.0082,0.0358 0,0.0542 l -13.125,17.89398 1.21875,0.10845 -1.75,2.38586 25.40625,0 c 0.006,0.003 0.12499,0.0542 0.125,0.0542 9e-5,10e-6 0.82377,0.0361 1.15625,0.0542 l 1.28125,0.13556 c 17.4791,1.73504 35.21249,0.32176 49.625,0.70492 l 0.28125,0.0271 0.25,0 246.4375,0 31.65625,0 -17.09375,-23.12661 C 369.54198,329.72768 320.36184,263.23662 271.15625,196.756 L 256.625,177.09974 z m -0.0625,57.42341 113.8125,153.83397 -227.625,0 C 180.54014,337.0317 218.53855,285.78584 256.5625,234.52315 z"></path></svg>