<svg xmlns:dc="http://purl.org/dc/elements/1.1/" xmlns:cc="http://creativecommons.org/ns#" xmlns:rdf="http://www.w3.org/1999/02/22-rdf-syntax-ns#" xmlns:svg="http://www.w3.org/2000/svg" xmlns="http://www.w3.org/2000/svg" xmlns:sodipodi="http://sodipodi.sourceforge.net/DTD/sodipodi-0.dtd" xmlns:inkscape="http://www.inkscape.org/namespaces/inkscape" id="svg2" version="1.1" inkscape:version="0.48.3.1 r9886" width="106" height="106" xml:space="preserve" sodipodi:docname="onecolor.eps" data-tags="foursquare" viewBox="0 0 106 106" style="margin-left: 2px; margin-top: 2px;"><defs id="defs6"></defs><g></g><path d="M 105.581,26.999  m0,0,-8.307-8.32 c -0.667-0.664 -1.538-1.030 -2.475-1.026 -0.936-0.004 -1.814,0.364 -2.48,1.022 L 52.564,58.448 35.163,41.015 c -0.651-0.655 -1.547-1.030 -2.474-1.027 -0.92,0.003 -1.823,0.371 -2.476,1.021 L 21.894,49.32 c -1.37,1.366 -1.375,3.579 -0.004,4.946 L 50.054,82.489 c 0.564,0.565 1.295,0.915 2.075,1.001 0.131,0.018 0.266,0.026 0.4,0.025 0.009,0 0.018,0 0.025-0.001 l 0.004,0.003 c 0.94,0.003 1.833-0.369 2.499-1.030 l 50.521-50.542 c 1.368-1.365 1.369-3.576 0.003-4.946M 102.457,44.119 59.665,86.929 c -1.849,1.83 -4.293,2.837 -6.896,2.837 l -1.899-0.003 -0.4-0.268 c -1.744-0.415 -3.355-1.314 -4.63-2.592 L 17.686,58.69 c -1.845-1.841 -2.862-4.29 -2.861-6.895 0-2.607 1.017-5.059 2.862-6.897 l 8.33-8.322 c 1.809-1.8 4.313-2.835 6.891-2.84 2.57,0 5.084,1.047 6.889,2.862 L 52.779,49.604 80.355,22.015 61.989,3.649 c -4.861-4.861 -12.816-4.861 -17.679,0 L 3.646,44.312 c -4.861,4.861 -4.861,12.817 0,17.679 L 44.311,102.655 c 4.862,4.861 12.816,4.861 17.679,0 L 102.653,61.991 c 4.861-4.861 4.861-12.816 0-17.679 l -0.196-0.194"></path></svg>