<svg version="1.0" id="Layer_1" xmlns="http://www.w3.org/2000/svg" xmlns:xlink="http://www.w3.org/1999/xlink" x="0px" y="0px" width="100px" height="60" viewBox="0 0 100 60" enable-background="new 0 0 100 60.921" xml:space="preserve" data-tags="hotel" style="margin-left: 3px; margin-top: 8px;" data-license="&amp;nbsp;" data-author="&amp;nbsp;" class="metadata">



<path d="M 80.627,41.43l0.00,11.42 l 6.03,0.00 L 86.657,35.778 L 19.232,35.778 L 19.232,11.077 C 19.232,9.426, 17.908,8.073, 16.236,8.073l0.00,0.00C 14.583,8.073, 13.25,9.426, 13.25,11.077l0.00,41.773 l 5.982,0.00
	L 19.232,41.43 L 80.627,41.43 zM 28.436,23.117c 2.995,0.00, 5.418-2.423, 5.418-5.428c0.00-2.986-2.423-5.409-5.418-5.409c-2.995,0.00-5.419,2.423-5.419,5.409
	C 23.016,20.695, 25.439,23.117, 28.436,23.117zM 86.75,31.288L 86.732,23.832c-0.019-2.366-2.01-4.001-4.32-4.282L 39.846,15.304c-0.083-0.018-0.16-0.056-0.234-0.056
	c-1.475,0.00-2.667,1.201-2.667,2.667l0.00,8.04 L 25.816,25.952 c-1.495,0.00-2.686,1.202-2.686,2.668c0.00,1.485, 1.192,2.668, 2.686,2.668L 86.75,31.288 z"></path></svg>