<svg xmlns:dc="http://purl.org/dc/elements/1.1/" xmlns:cc="http://creativecommons.org/ns#" xmlns:rdf="http://www.w3.org/1999/02/22-rdf-syntax-ns#" xmlns:svg="http://www.w3.org/2000/svg" xmlns="http://www.w3.org/2000/svg" xmlns:xlink="http://www.w3.org/1999/xlink" xmlns:sodipodi="http://sodipodi.sourceforge.net/DTD/sodipodi-0.dtd" xmlns:inkscape="http://www.inkscape.org/namespaces/inkscape" width="64px" height="64px" id="svg2" version="1.1" inkscape:version="0.48.2 r9819" sodipodi:docname="one-way.svg" data-tags="one-way" viewBox="0 0 64 64" style="margin-left: 8px; margin-top: 8px;">








  <path d="M 24.00,40.00  m0.00,0.00,0.00,0.00 0.00,23.464 0.00,0.536 5.00,0.00 6.00,0.00 5.00,0.00 0.00-0.536 0.00-19.464 0.00-4.00 -8.00-8.00 0.00,0.00 zM 24.00,0.00  m0.00,0.00,0.00,6.332 0.00,8.332 0.00,5.332 8.00-8.00 8.00,8.00 0.00,0.00 0.00-5.332 0.00-8.332 0.00-6.332 -1.90,0.00 -12.20,0.00 zM 12.00,36.00  m0.00,0.00, 12.00,0.00 8.00-8.00 8.00,8.00 12.00,0.00 -20.00-20.00 z"></path></svg>