<?xml version="1.0" encoding="UTF-8" standalone="no"?>
<svg
  xmlns="http://www.w3.org/2000/svg"
  viewBox="0 0 512 512">
  <path
    d="m 511.999,440.77126 c -11.20757,0 -21.89802,-2.53949 -31.48769,-6.96313 -9.7791,-4.49532 -20.87403,-7.20889 -32.46559,-7.20889 -11.6274,0 -22.71721,2.73406 -32.51168,7.20889 -9.57942,4.42364 -20.27499,6.96313 -31.48768,6.96313 -11.20757,0 -21.93898,-2.53949 -31.48769,-6.96313 -9.94806,-4.49532 -21.04299,-7.20889 -32.50655,-7.20889 -11.58644,0 -22.68649,2.73406 -32.52192,7.20889 -9.53846,4.42364 -20.38763,6.96313 -31.48256,6.96313 -11.21781,0 -21.90314,-2.53949 -31.57472,-6.96313 -9.83031,-4.49532 -20.8894,-7.20889 -32.37856,-7.20889 -11.59157,0 -22.69161,2.73406 -32.52192,7.20889 -9.54358,4.42364 -20.39275,6.96313 -31.61568,6.96313 -11.04885,0 -21.89802,-2.53949 -31.446725,-6.96313 -9.825182,-4.49532 -20.920111,-7.20889 -32.511675,-7.20889 -11.504525,0 -22.553374,2.73406 -32.388796,7.20889 -9.702303,4.42364 -20.387636,6.96313 -31.610564,6.96313 V 392.9919 c 11.212688,0 21.903141,-2.60606 31.610564,-6.85561 9.835422,-4.6182 20.884271,-7.33689 32.388796,-7.33689 11.591564,0 22.686493,2.71357 32.511675,7.33689 9.548705,4.24955 20.392755,6.85561 31.446725,6.85561 11.21269,0 22.0721,-2.60606 31.61568,-6.85561 9.82519,-4.6182 20.92524,-7.33689 32.52192,-7.33689 11.48916,0 22.54825,2.71357 32.37856,7.33689 9.6767,4.24955 20.35691,6.85561 31.57472,6.85561 11.09493,0 21.9441,-2.60606 31.48256,-6.85561 9.83543,-4.6182 20.93548,-7.33689 32.52192,-7.33689 11.45844,0 22.54825,2.71357 32.50655,7.33689 9.54871,4.24955 20.28012,6.85561 31.48769,6.85561 11.21269,0 21.90826,-2.60606 31.48768,-6.85561 9.79447,-4.6182 20.88428,-7.33689 32.51168,-7.33689 11.59156,0 22.68649,2.71357 32.46559,7.33689 9.58967,4.24955 20.28012,6.85561 31.48769,6.85561 v 47.77936 z"/>
  <path
    d="m 437.84678,305.60973 c 33.61759,0 60.90179,-27.70916 60.90179,-61.71586 0,-34.02718 -27.27908,-61.60835 -60.90179,-61.60835 -33.68926,0 -60.93251,27.58117 -60.93251,61.60835 -0.005,34.0067 24.83687,61.71586 60.93251,61.71586 z"/>
  <path
    d="m 83.100889,340.28714 c 4.730833,1.15199 9.180068,2.81086 13.424506,4.7462 9.538465,4.36731 20.392755,6.96825 31.451845,6.96825 11.20757,0 22.06698,-2.60606 31.61056,-6.96825 9.82519,-4.50556 20.92011,-7.35225 32.51168,-7.35225 11.4994,0 22.55849,2.84669 32.38368,7.35225 9.66646,4.36731 20.35179,6.96825 31.5696,6.96825 11.09493,0 21.9441,-2.60606 31.48768,-6.96825 9.83031,-4.50556 20.93036,-7.35225 32.5168,-7.35225 11.45844,0 22.55337,2.84669 32.51167,7.35225 9.54871,4.36731 20.275,6.96825 31.48769,6.96825 8.15096,0 16.03056,-1.40799 23.44424,-3.75292 L 305.89546,162.85532 424.06388,141.04946 c 17.34127,-3.34845 29.94146,-17.12623 29.94146,-34.7747 0,-19.455795 -15.66192,-35.046035 -34.79005,-35.046035 -1.38751,0 -2.66238,0 -3.96284,0.11775 L 232.71603,104.95382 c -12.81011,2.96445 -29.77762,21.93386 -20.11628,45.22451 0.53248,1.2851 1.01887,2.47805 1.55647,3.75292 l 47.64112,86.97257 -178.696451,99.38332 z"/>
</svg>