<?xml version="1.0" encoding="UTF-8" standalone="no"?>
<!-- Created with Inkscape (http://www.inkscape.org/) -->

<svg
   xmlns:dc="http://purl.org/dc/elements/1.1/"
   xmlns:cc="http://creativecommons.org/ns#"
   xmlns:rdf="http://www.w3.org/1999/02/22-rdf-syntax-ns#"
   xmlns:svg="http://www.w3.org/2000/svg"
   xmlns="http://www.w3.org/2000/svg"
   version="1.0"
   width="100"
   height="100"
   viewBox="0 0 100 100"
   id="Layer_1"
   xml:space="preserve"><metadata
     id="metadata3034"><rdf:RDF><cc:Work
         rdf:about=""><dc:format>image/svg+xml</dc:format><dc:type
           rdf:resource="http://purl.org/dc/dcmitype/StillImage" /><dc:title></dc:title></cc:Work></rdf:RDF></metadata><defs
     id="defs3032" /><path
     d="M 15.73,55.13 M 90.9,40.08 82.73,18.91 C 81.19,14.85 77.84,11.4 71.5,11.37 H 59.94 40.19 28.43 C 22.12,11.4 18.77,14.85 17.2,18.91 L 9.01,40.08 C 5.75,40.5 -0.01,44.32 1.3e-5,51.57 V 78.52 H 8 V 87.12 C 7.98,97.68 22.99,97.58 22.98,87.12 V 78.52 H 50 76.95 V 87.12 C 76.98,97.58 92,97.68 92,87.12 V 78.52 H 100 V 51.57 C 100,44.32 94.2,40.5 90.9,40.08 z M 15.73,62.25 C 11.89,62.27 8.79,59.07 8.81,55.13 8.79,51.17 11.89,47.97 15.73,48.01 19.55,47.97 22.65,51.17 22.65,55.13 22.65,59.07 19.55,62.26 15.73,62.25 z M 50,39.88 H 49.93 17.54 L 23.72,23.21 C 24.47,20.84 25.63,19.15 28.36,19.11 H 49.93 50 71.64 C 74.33,19.15 75.49,20.84 76.28,23.21 L 82.46,39.88 H 50 z M 84.27,62.25 C 80.41,62.27 77.31,59.07 77.29,55.13 77.31,51.17 80.41,47.97 84.27,48.01 88.07,47.97 91.2,51.17 91.2,55.13 91.2,59.07 88.07,62.26 84.27,62.25 z M 84.27,55.13"
     id="path3028" /></svg>