<?xml version="1.0" encoding="UTF-8" standalone="no"?>
<!-- Created with Inkscape (http://www.inkscape.org/) -->

<svg
   xmlns:dc="http://purl.org/dc/elements/1.1/"
   xmlns:cc="http://creativecommons.org/ns#"
   xmlns:rdf="http://www.w3.org/1999/02/22-rdf-syntax-ns#"
   xmlns:svg="http://www.w3.org/2000/svg"
   xmlns="http://www.w3.org/2000/svg"
   version="1.0"
   width="100"
   height="100"
   viewBox="0 0 100 100"
   id="Layer_1"
   xml:space="preserve"><metadata
     id="metadata4662"><rdf:RDF><cc:Work
         rdf:about=""><dc:format>image/svg+xml</dc:format><dc:type
           rdf:resource="http://purl.org/dc/dcmitype/StillImage" /><dc:title></dc:title></cc:Work></rdf:RDF></metadata><defs
     id="defs4660" /><polygon
     points="21.96,10.87 16.44,0.05 0,0 15.87,16.4 "
     transform="translate(0,11.89)"
     id="polygon4648" /><path
     d="M 71.53,57.83 C 74.53,58.66 77.76,56.94 78.61,53.86 79.43,50.83 77.68,47.64 74.66,46.79 L 72.31,46.13 69.26,57.14 71.53,57.83 z"
     id="path4650" /><path
     d="M 69.69,45.42 50.69,40.01 C 49.44,39.68 48.19,40.44 47.84,41.7 L 46.06,48.12 C 45.71,49.38 46.39,50.68 47.67,51.06 L 66.66,56.41 69.69,45.42 z"
     id="path4652" /><path
     d="M 72.69,63.66 C 71.24,62.27 69.44,61.16 67.34,60.58 L 44.31,54.07 44.31,54.07 30.16,28.69 C 29.41,27.38 28.22,26.34 26.66,25.91 23.56,25.03 20.34,26.87 19.49,30.01 19.07,31.5 19.27,33.02 19.94,34.3 L 37.64,65.68 C 37.64,65.68 39.09,68.04 42.73,69.25 L 74.91,78.37 89.83,93.68 C 90.33,94.2 90.98,94.61 91.75,94.84 94,95.49 96.35,94.11 97.01,91.86 97.43,90.27 96.93,88.59 95.81,87.56 L 72.69,63.66 z"
     id="path4654" /><path
     d="M 89.86,70 93.2,74.42 100,66.92 94.26,63.69 C 94.8,59.62 92.31,55.68 88.31,54.54 83.91,53.31 79.34,55.88 78.11,60.33 76.86,64.8 79.44,69.4 83.84,70.64 85.93,71.24 88.06,70.92 89.86,70 z"
     id="path4656" /></svg>