<?xml version="1.0" encoding="UTF-8" standalone="no"?>
<svg
   xmlns:svg="http://www.w3.org/2000/svg"
   xmlns="http://www.w3.org/2000/svg"
   version="1.0"
   width="512"
   height="512"
   viewBox="0 0 512 512"
   xml:space="preserve">
   <path
     d="m 464.34694,334.31292 0,77.68708 41.02041,0 0,-116.13606 -458.673472,0 0,-168.03401 c 0,-11.23129 -9.006803,-20.43538 -20.380953,-20.43538 l 0,0 C 15.068027,107.39455 6,116.59863 6,127.82992 L 6,412 l 40.693878,0 0,-77.68708 417.653062,0 z M 109.30612,209.73468 c 20.37415,0 36.85715,-16.48299 36.85715,-36.92517 0,-20.31292 -16.483,-36.79591 -36.85715,-36.79591 -20.374147,0 -36.863943,16.48299 -36.863943,36.79591 -0.0068,20.44898 16.47619,36.92517 36.863943,36.92517 z M 506,265.31972 505.87755,214.59863 C 505.7483,198.50339 492.20408,187.38094 476.4898,185.46937 L 186.92517,156.58502 c -0.56463,-0.12244 -1.08844,-0.38095 -1.59184,-0.38095 -10.03401,0 -18.14285,8.17007 -18.14285,18.14286 l 0,54.69388 -75.707487,-0.0204 c -10.170068,0 -18.272109,8.17687 -18.272109,18.14966 0,10.10203 8.108844,18.14965 18.272109,18.14965 l 414.517007,0 z"/>
</svg>