<?xml version="1.0" encoding="UTF-8" standalone="no"?>
<!-- Created with Inkscape (http://www.inkscape.org/) -->

<svg
   xmlns:dc="http://purl.org/dc/elements/1.1/"
   xmlns:cc="http://creativecommons.org/ns#"
   xmlns:rdf="http://www.w3.org/1999/02/22-rdf-syntax-ns#"
   xmlns:svg="http://www.w3.org/2000/svg"
   xmlns="http://www.w3.org/2000/svg"
   version="1.0"
   width="100"
   height="100"
   viewBox="0 0 100 100"
   id="Layer_1"
   xml:space="preserve"><metadata
     id="metadata4732"><rdf:RDF><cc:Work
         rdf:about=""><dc:format>image/svg+xml</dc:format><dc:type
           rdf:resource="http://purl.org/dc/dcmitype/StillImage" /><dc:title></dc:title></cc:Work></rdf:RDF></metadata><defs
     id="defs4730" /><path
     d="M 41.28,53.2 C 43.14,53.2 44.65,51.68 44.65,49.83 V 44.21 C 44.65,42.37 43.14,40.85 41.28,40.85 H 15.91 C 14.06,40.85 12.55,42.37 12.55,44.21 V 49.83 C 12.55,51.68 14.06,53.2 15.91,53.2 H 41.28 z M 74.76,53.18 C 76.63,53.18 78.13,51.66 78.13,49.81 V 44.21 C 78.13,42.37 76.64,40.85 74.76,40.85 H 63.06 C 61.2,40.85 59.69,42.37 59.69,44.21 V 49.81 C 59.69,51.65 61.2,53.18 63.06,53.18 H 74.76 z M 31.23,79.91 H 12.06 C 5.405,79.91 0.024,74.52 0.024,67.88 L 0,46.86 C 0,37.84 7.31,30.53 16.32,30.53 H 71.83 C 80.84,30.53 88.16,37.84 88.16,46.86 L 88.18,76.53 H 96.68 C 98.52,76.53 100,78.05 100,79.89 H 56.9 C 56.48,73.14 50.92,67.8 44.06,67.8 37.21,67.8 31.65,73.14 31.23,79.91"
     id="path5004" /><path
     d="M 44.06,84.74 C 46.29,84.74 48.09,82.96 48.09,80.73 48.09,78.5 46.29,76.7 44.06,76.7 41.85,76.7 40.05,78.5 40.05,80.73 40.05,82.96 41.85,84.74 44.06,84.74 M 34.8,80.73 C 34.8,75.6 38.93,71.45 44.06,71.45 49.19,71.45 53.33,75.6 53.33,80.73 53.33,85.84 49.19,90 44.06,90 38.93,90 34.8,85.85 34.8,80.73"
     id="path5006" /></svg>