<?xml version="1.0" encoding="UTF-8" standalone="no"?>
<!-- Created with Inkscape (http://www.inkscape.org/) -->

<svg
   xmlns:dc="http://purl.org/dc/elements/1.1/"
   xmlns:cc="http://creativecommons.org/ns#"
   xmlns:rdf="http://www.w3.org/1999/02/22-rdf-syntax-ns#"
   xmlns:svg="http://www.w3.org/2000/svg"
   xmlns="http://www.w3.org/2000/svg"
   version="1.0"
   width="100"
   height="100"
   viewBox="0 0 100 100"
   id="Layer_1"
   xml:space="preserve"><metadata
     id="metadata3919"><rdf:RDF><cc:Work
         rdf:about=""><dc:format>image/svg+xml</dc:format><dc:type
           rdf:resource="http://purl.org/dc/dcmitype/StillImage" /><dc:title></dc:title></cc:Work></rdf:RDF></metadata><defs
     id="defs3917" /><path
     d="M 91.67,38.88 C 96.28,38.88 100,35.14 100,30.55 100,25.95 96.28,22.25 91.67,22.25 87.09,22.25 83.36,25.95 83.36,30.55 83.36,35.14 87.09,38.88 91.67,38.88 z"
     id="path3909" /><path
     d="M 87.57,98.81 C 91.59,101.2 96.77,99.89 99.16,95.86 L 96.25,94.12 C 94.83,96.53 91.71,97.29 89.33,95.86 L 1.72,44.43 0,47.36 87.57,98.81 z"
     id="path3911" /><path
     d="M 55.86,7.039 C 50.8,3.637 43.96,4.976 40.54,10.06 38.66,12.83 38.15,16.35 39.07,19.2 L 44.89,38.26 27.33,43.86 C 25.13,44.75 23.43,46.81 23.14,49.34 22.68,53.05 25.45,55.51 29.17,55.95 30.02,56.05 30.58,55.8 31.37,55.6 L 55.34,47.67 C 57.1,47.03 59.03,45.29 59.21,43.76 59.35,42.66 59.7,41.72 59.47,41.06 L 55.82,28.02 70.24,36.59 71.98,49.09 C 72.13,51.28 73.13,52.85 74.81,53.78 L 93.65,64.79 C 95.71,65.92 98.32,65.16 99.45,63.07 100.6,61.01 99.81,58.38 97.75,57.25 L 82.85,48.55 81.14,26.27 C 80.88,23.61 79.43,21.21 77.32,19.74 L 55.86,7.039 z"
     id="path3913" /></svg>