<?xml version="1.0" encoding="UTF-8" standalone="no"?>
<!-- Created with Inkscape (http://www.inkscape.org/) -->

<svg
   xmlns:dc="http://purl.org/dc/elements/1.1/"
   xmlns:cc="http://creativecommons.org/ns#"
   xmlns:rdf="http://www.w3.org/1999/02/22-rdf-syntax-ns#"
   xmlns:svg="http://www.w3.org/2000/svg"
   xmlns="http://www.w3.org/2000/svg"
   version="1.0"
   width="100"
   height="100"
   viewBox="0 0 100 100"
   id="Layer_1"
   xml:space="preserve"><metadata
     id="metadata3949"><rdf:RDF><cc:Work
         rdf:about=""><dc:format>image/svg+xml</dc:format><dc:type
           rdf:resource="http://purl.org/dc/dcmitype/StillImage" /><dc:title></dc:title></cc:Work></rdf:RDF></metadata><defs
     id="defs3947" /><g
     transform="translate(0,7.748)"
     id="g3937"><path
       d="M 74.31,15.34 C 78.56,15.34 81.99,11.9 81.99,7.673 81.98,3.438 78.56,0 74.31,0 70.09,0 66.65,3.438 66.65,7.673 66.65,11.9 70.09,15.34 74.31,15.34 z"
       id="path3939" /><path
       d="M 74.31,7.673"
       id="path3941" /></g><path
     d="M 99.99,79.5 C 99.19,77.91 97.28,78.49 97.28,78.49 93.9,81.77 88.14,81.47 88.14,81.47 H 84.99 L 92.51,46.78 94.32,47.07 95.11,42.09 91.83,41.2 63.86,21.59 C 63.86,21.59 61.18,19.51 58.09,21.9 L 37,33.94 27.45,47.86 28.32,48.4 9.17,80.3 6.673,78.79 5.515,80.65 8.036,82.18 6.455,84.81 8.591,86.1 10.17,83.47 12.73,85.02 13.89,83.16 11.31,81.59 30.44,49.73 31.14,50.16 42.48,38.01 52.14,33.54 C 52.14,33.54 45.57,43.38 42.18,56.91 L 35.67,81.47 H 31.44 L 29.85,85.17 H 34.69 L 33.22,90.72 H 1.593 L 0,94.42 H 62.17 C 70.84,94.13 70.14,88.73 70.14,88.73 69.34,87.15 67.46,87.74 67.46,87.74 64.07,91.04 58.3,90.72 58.3,90.72 H 38.96 L 41.35,85.17 H 81.66 L 79.56,94.89 76.65,94.23 76.15,96.38 79.09,97.04 78.56,99.48 80.97,100 81.49,97.59 84.37,98.23 84.88,96.08 81.96,95.43 84.18,85.18 H 92.03 C 100.7,84.86 99.99,79.5 99.99,79.5 z M 42.95,81.47 52.93,58.4 65.36,63.48 66.51,81.47 H 42.95 z M 82.46,81.47 H 71.9 L 73.92,60.3 58.19,48.95 C 58.19,48.95 57.71,48.25 58.5,47.86 L 70.93,36.53 90.13,46.02 82.46,81.47 z"
     id="path3943" /></svg>