<?xml version="1.0" encoding="UTF-8" standalone="no"?>
<!-- Created with Inkscape (http://www.inkscape.org/) -->

<svg
   xmlns:dc="http://purl.org/dc/elements/1.1/"
   xmlns:cc="http://creativecommons.org/ns#"
   xmlns:rdf="http://www.w3.org/1999/02/22-rdf-syntax-ns#"
   xmlns:svg="http://www.w3.org/2000/svg"
   xmlns="http://www.w3.org/2000/svg"
   version="1.0"
   width="100"
   height="100"
   viewBox="0 0 100 100"
   id="Layer_1"
   xml:space="preserve"><metadata
     id="metadata3934"><rdf:RDF><cc:Work
         rdf:about=""><dc:format>image/svg+xml</dc:format><dc:type
           rdf:resource="http://purl.org/dc/dcmitype/StillImage" /><dc:title></dc:title></cc:Work></rdf:RDF></metadata><defs
     id="defs3932" /><g
     transform="translate(0,16.48)"
     id="g3922"><path
       d="M 90.18,13.27"
       id="path3926" /></g><g
     transform="translate(0,-5)"
     id="g3971"><path
       d="M 90.18,4.262 C 85.22,4.262 81.18,8.304 81.18,13.27 81.18,18.23 85.22,22.27 90.18,22.27 95.15,22.27 99.18,18.23 99.18,13.27 99.18,8.304 95.15,4.262 90.18,4.262 z"
       transform="translate(0,16.48)"
       id="path3924" /><path
       d="M 60.84,76.65 C 60.84,76.65 62.17,75.71 64.14,76.13 L 64.22,76.14 78.78,79.42 C 78.78,79.42 79.82,79.3 81.63,82.46 81.63,82.46 81.85,83.83 83.64,83.2 83.64,83.2 83.94,83.2 84.58,83.61 84.58,83.61 87.96,84.98 88.27,83.2 L 99.98,43.33 C 99.98,43.33 100.3,38.94 97.81,38.94 95.65,40.89 92.79,42.08 89.65,42.08 82.92,42.08 77.48,36.64 77.48,29.94 77.48,27.58 78.16,25.37 79.31,23.52 79.31,23.52 79.21,23.18 78.47,22.03 78.47,22.03 76.34,19.59 76.98,18.33 76.98,18.33 77.52,15.81 75.3,16.65 L 53.26,21.83 C 53.26,21.83 50.12,22.63 50.14,24.88 50.14,24.88 49.83,27.07 52.44,28.25 L 60.64,31.32 C 60.64,31.32 63.17,32.25 61.58,33.31 L 48.2,43.55 C 48.2,43.55 45.34,45.34 45.56,48.61 45.56,48.61 44.21,62.51 43.38,68.49 L 32.33,65.96 32.81,63.9 C 33,63.07 32.54,62.25 31.79,62.07 31.02,61.89 30.26,62.43 30.06,63.26 L 29.59,65.33 25.2,64.32 23.57,65.32 24.62,67.01 28.97,68.01 28.47,70.15 C 28.29,71 28.74,71.82 29.49,71.98 30.26,72.15 31.02,71.64 31.22,70.79 L 31.71,68.65 42.81,71.21 C 42.63,71.46 42.22,71.98 41.76,72.43 L 23.09,90.37 0.416,88.36 0,92.36 84.26,99.97 C 84.26,99.97 91.95,100.7 98.5,94.91 L 98.09,89.42 C 98.09,89.42 91.85,96.91 84.68,95.97 77.52,95.01 36.28,91.63 36.28,91.63 L 47.35,84.25 C 47.35,84.25 47.46,84.35 48.2,82.87 L 71.51,24.23 74.36,25.32 51.97,81.86 60.84,76.65 z M 63.71,71.92 68.44,55.34 C 68.76,53.45 71.07,53.04 71.07,53.04 L 85.11,50.17 C 87.63,49.51 87.12,51.45 87.12,51.45 L 84.68,76.34 C 84.5,77.88 83.64,77.6 83.64,77.6 L 65.18,73.5 C 63.05,73.12 63.71,71.92 63.71,71.92 z"
       id="path3928" /></g></svg>