<svg xmlns="http://www.w3.org/2000/svg" width="512" height="512" viewBox="0 0 512 512">
    <path d="M483.6 428.8c0 20.7 11.5 37.7 28.4 46.3v7.1c-4.7.7-9.5 1.4-14.4 1.4-30.3 0-57.6-12.8-76.8-33.4-11.7 3.5-24 5-36.8 5-70.7 0-128-51.2-128-113.8 0-62.6 57.3-113.8 128-113.8s128 51.2 128 113.8c0 24.9-8.8 47.6-23.7 66.1-3 6.4-4.7 13.5-4.7 21.3zM102.5 126.6c-29.4 24.2-45.61 54.8-45.61 86.8 0 17.8 4.97 35.5 14.79 51.9 10.1 16.3 25.32 32 43.92 44.1 13.5 9.2 22.6 23.4 25.1 39.1.7 5.7 1.2 10.7 1.5 16.3 3.2-2.8 6.5-5.6 9.6-9.2 10.8-10.7 25.3-16.4 40.3-16.4 2.3 0 4.7 0 7.2.8 9.3.7 18.8 1.4 28.3 1.4v56.9c-12.1 0-23.9-.7-35.5-2.2-48.9 49.1-107.26 57.6-163.66 59.1v-12.1c30.47-15 56.89-42 56.89-73.3 0-4.2-.35-8.5-.92-12.8C32.91 322.9 0 271.7 0 213.4 0 111 101.9 28.45 227.6 28.45 351.3 28.45 452 108.8 455 209.1c-18.2-8.5-38.1-13.5-58.8-14.9-5.1-24.9-20.1-48.4-43.6-67.6-15.7-12.8-34.2-22.7-54.9-29.84-22.1-7.9-45.8-11.4-70.1-11.4-24.4 0-48 3.5-70.2 11.4-20.7 7.14-39.2 17.04-54.9 29.84z"/>
</svg>
