<svg viewBox="0 0 512 512" xmlns="http://www.w3.org/2000/svg"><path d="m507.328 411.328s-.008-.008-.008-.008l-155.32-155.328 155.32-155.328s.008 0 .008-.008c1.672-1.672 2.88-3.624 3.656-5.704 2.12-5.688.912-12.344-3.664-16.912l-73.376-73.376c-4.576-4.576-11.224-5.784-16.912-3.664-2.08.776-4.032 1.984-5.712 3.656 0 0 0 0-.008.008l-155.328 155.328-155.328-155.328s0 0-.008-.008c-1.672-1.672-3.624-2.88-5.704-3.656-5.688-2.128-12.344-.912-16.912 3.656l-73.376 73.376c-4.576 4.576-5.784 11.224-3.664 16.912.776 2.08 1.984 4.04 3.656 5.704 0 0 0 0 .008.008l155.328 155.328-155.328 155.328v.008c-1.672 1.672-2.88 3.624-3.656 5.704-2.128 5.688-.912 12.344 3.664 16.912l73.376 73.376c4.576 4.576 11.224 5.784 16.912 3.664 2.08-.776 4.032-1.984 5.704-3.656 0 0 0 0 .008-.008l155.328-155.328 155.328 155.328s.008 0 .008.008c1.672 1.672 3.624 2.88 5.704 3.656 5.688 2.12 12.344.912 16.912-3.664l73.376-73.376c4.576-4.576 5.784-11.224 3.664-16.912-.776-2.08-1.984-4.032-3.656-5.704z"/></svg>