<svg xmlns="http://www.w3.org/2000/svg" viewBox="0 0 512 512"><path d="M466.896 305.128C440.032 258.6 456.184 198.976 502.976 171.888L452.664 84.744C438.288 93.168 421.576 98 403.744 98 349.976 98 306.392 54.128 306.392 0.008H205.76C205.896 16.712 201.72 33.648 192.784 49.136 165.92 95.664 106.208 111.488 59.352 84.512L9.04 171.656C23.528 179.888 36.064 191.952 44.984 207.392 71.8 253.848 55.744 313.352 9.128 340.504L59.44 427.648C73.768 419.296 90.4 414.52 108.144 414.52 161.744 414.52 205.216 458.12 205.496 512H306.12C306.08 495.464 310.256 478.712 319.104 463.392 345.92 416.936 405.488 401.096 452.312 427.888L502.624 340.744C488.232 332.512 475.776 320.496 466.904 305.128ZM256 359.664C198.744 359.664 152.328 313.256 152.328 256S198.744 152.336 256 152.336C313.256 152.336 359.664 198.752 359.664 256S313.256 359.664 256 359.664Z"/></svg>