<svg viewBox="0 0 512 512" xmlns="http://www.w3.org/2000/svg"><path d="m466.896 305.128c-26.864-46.528-10.712-106.152 36.08-133.24l-50.312-87.144c-14.376 8.424-31.088 13.256-48.92 13.256-53.768 0-97.352-43.872-97.352-97.992h-100.632c.136 16.704-4.04 33.64-12.976 49.128-26.864 46.528-86.576 62.352-133.432 35.376l-50.312 87.144c14.488 8.232 27.024 20.296 35.944 35.736 26.816 46.456 10.76 105.96-35.856 133.112l50.312 87.144c14.328-8.352 30.96-13.128 48.704-13.128 53.6 0 97.072 43.6 97.352 97.48h100.624c-.04-16.536 4.136-33.288 12.984-48.608 26.816-46.456 86.384-62.296 133.208-35.504l50.312-87.144c-14.392-8.232-26.848-20.248-35.72-35.616zm-210.896 54.536c-57.256 0-103.672-46.408-103.672-103.664s46.416-103.664 103.672-103.664 103.664 46.416 103.664 103.664-46.408 103.664-103.664 103.664z"/></svg>