<svg xmlns="http://www.w3.org/2000/svg" viewBox="0 0 512 512"><path d="M256 0C114.624 0 0 114.624 0 256S114.624 512 256 512 512 397.376 512 256 397.376 0 256 0ZM48 256C48 141.12 141.12 48 256 48 310.784 48 360.608 69.184 397.76 103.808L192 192 103.808 397.76C69.184 360.608 48 310.784 48 256ZM292.576 292.576L164.544 347.456 219.424 219.424 292.576 292.576ZM256 464C201.216 464 151.392 442.816 114.24 408.192L320 320 408.192 114.24C442.816 151.392 464 201.216 464 256 464 370.88 370.88 464 256 464Z"/></svg>