<svg viewBox="0 0 512 512" xmlns="http://www.w3.org/2000/svg"><path d="m256 0c-141.376 0-256 114.624-256 256s114.624 256 256 256 256-114.624 256-256-114.624-256-256-256zm0 480c-31.488 0-61.44-6.496-88.608-18.24l116.576-131.136c2.592-2.944 4.032-6.72 4.032-10.624v-48c0-8.832-7.168-16-16-16-56.48 0-116.096-58.72-116.672-59.328-3.008-3.008-7.072-4.672-11.328-4.672h-64c-8.832 0-16 7.168-16 16v96c0 6.048 3.424 11.616 8.832 14.304l55.168 27.584v93.952c-58.016-40.48-96-107.712-96-183.84 0-34.368 7.744-66.912 21.568-96h58.432c4.256 0 8.32-1.696 11.328-4.672l64-64c3.008-3.008 4.672-7.072 4.672-11.328v-38.72c20.288-6.048 41.76-9.28 64-9.28 35.2 0 68.512 8.128 98.144 22.592-2.08 1.76-4.096 3.584-6.016 5.504-18.144 18.144-28.128 42.24-28.128 67.872s9.984 49.76 28.128 67.872c18.208 18.208 42.624 28.128 67.808 28.128 1.568 0 3.168-.032 4.768-.128 6.912 25.888 19.36 93.344-4.192 186.176-.224.864-.352 1.76-.416 2.624-40.672 41.536-97.344 67.328-160.064 67.328z"/></svg>