<svg viewBox="0 0 512 512" xmlns="http://www.w3.org/2000/svg"><path d="m472.968 7.032c-9.376-9.368-24.568-9.368-33.944 0l-101.08 101.08c-25.968-7.88-53.472-12.112-81.944-12.112-111.656 0-208.44 65.024-256 160 20.56 41.064 50.32 76.52 86.512 103.552l-79.48 79.48c-9.376 9.376-9.376 24.568 0 33.944 4.688 4.688 10.824 7.032 16.968 7.032s12.28-2.344 16.968-7.032l432-432c9.376-9.376 9.376-24.568 0-33.944zm-264.968 152.968c21.12 0 39.04 13.648 45.464 32.6l-60.864 60.864c-18.952-6.416-32.6-24.344-32.6-45.464 0-26.512 21.488-48 48-48zm-152.944 96c19.144-30.264 44.64-55.96 74.72-75.144 1.96-1.248 3.936-2.464 5.928-3.648-4.984 13.664-7.704 28.408-7.704 43.8 0 27.448 8.64 52.872 23.352 73.712l-30.464 30.464c-26.224-18.424-48.6-41.944-65.832-69.168zm328.944-35c0-13.584-2.128-26.664-6.048-38.952l-160.904 160.904c12.28 3.92 25.368 6.048 38.952 6.048 70.688 0 128-57.312 128-128z"/><path d="m415.016 144.984-34.68 34.68c.632.392 1.264.784 1.896 1.184 30.08 19.184 55.568 44.888 74.72 75.144-19.144 30.264-44.64 55.96-74.72 75.152-37.8 24.112-81.448 36.848-126.224 36.848-19.328 0-38.448-2.376-56.984-7.016l-38.448 38.448c29.856 10.728 61.976 16.576 95.424 16.576 111.656 0 208.44-65.024 256-160-22.512-44.96-56.056-83.2-96.984-111.016z"/></svg>