<svg viewBox="0 0 512 512" xmlns="http://www.w3.org/2000/svg"><path d="m256 96c-111.656 0-208.44 65.024-256 160 47.56 94.976 144.344 160 256 160s208.44-65.024 256-160c-47.56-94.976-144.344-160-256-160zm126.224 84.856c30.08 19.184 55.568 44.888 74.72 75.144-19.144 30.264-44.64 55.96-74.72 75.152-37.8 24.112-81.448 36.848-126.224 36.848s-88.432-12.744-126.224-36.848c-30.08-19.184-55.568-44.888-74.712-75.152 19.144-30.264 44.64-55.96 74.72-75.144 1.96-1.248 3.936-2.464 5.928-3.648-4.976 13.664-7.704 28.408-7.704 43.8 0 70.688 57.304 128 128 128s128-57.312 128-128c0-15.384-2.728-30.136-7.704-43.8 1.992 1.192 3.968 2.4 5.928 3.648zm-126.224 27.144c0 26.512-21.488 48-48 48s-48-21.488-48-48 21.488-48 48-48 48 21.488 48 48z"/></svg>