<svg xmlns="http://www.w3.org/2000/svg" viewBox="0 0 512 512"><path d="M256 96C144.344 96 47.56 161.024 0 256 47.56 350.976 144.344 416 256 416S464.44 350.976 512 256C464.44 161.024 367.656 96 256 96ZM382.224 180.856C412.304 200.04 437.792 225.744 456.944 256 437.8 286.264 412.304 311.96 382.224 331.152 344.424 355.264 300.776 368 256 368S167.568 355.256 129.776 331.152C99.696 311.968 74.208 286.264 55.064 256 74.208 225.736 99.704 200.04 129.784 180.856 131.744 179.608 133.72 178.392 135.712 177.208 130.736 190.872 128.008 205.616 128.008 221.008 128.008 291.696 185.312 349.008 256.008 349.008S384.008 291.696 384.008 221.008C384.008 205.624 381.28 190.872 376.304 177.208 378.296 178.4 380.272 179.608 382.232 180.856V180.856ZM256 208C256 234.512 234.512 256 208 256S160 234.512 160 208 181.488 160 208 160 256 181.488 256 208Z"/></svg>