<svg viewBox="0 0 512 512" xmlns="http://www.w3.org/2000/svg"><path d="m426.672 0h-341.328c-46.936 0-85.344 38.408-85.344 85.344v341.312c0 46.968 38.408 85.344 85.344 85.344h341.328c46.936 0 85.328-38.376 85.328-85.344v-341.312c0-46.936-38.392-85.344-85.328-85.344zm-287.2 415.624c-23.984 0-43.472-19.344-43.472-43.312 0-23.84 19.488-43.408 43.472-43.408 24.08 0 43.528 19.568 43.528 43.408 0 23.968-19.448 43.312-43.528 43.312zm109.264.376c0-40.904-15.904-79.408-44.728-108.224-28.856-28.872-67.184-44.816-107.952-44.816v-62.592c118.824 0 215.56 96.72 215.56 215.624h-62.88zm111.08 0c0-145.528-118.328-263.968-263.688-263.968v-62.624c180 0 326.472 146.56 326.472 326.6h-62.784z"/></svg>