<svg viewBox="0 0 512 512" xmlns="http://www.w3.org/2000/svg"><path d="m458.904 114.536c-11.104-15.144-26.584-32.848-43.592-49.848s-34.704-32.48-49.848-43.592c-25.784-18.912-38.296-21.096-45.464-21.096h-248c-22.056 0-40 17.944-40 40v432c0 22.056 17.944 40 40 40h368c22.056 0 40-17.944 40-40v-312c0-7.168-2.184-19.672-21.096-45.464zm-66.216-27.224c15.352 15.352 27.4 29.2 36.288 40.688h-76.976v-76.976c11.496 8.888 25.336 20.936 40.688 36.288zm55.312 384.688c0 4.336-3.664 8-8 8h-368c-4.336 0-8-3.664-8-8v-432c0-4.336 3.664-8 8-8h248v112c0 8.84 7.16 16 16 16h112z"/><path d="m368 416h-224c-8.84 0-16-7.16-16-16s7.16-16 16-16h224c8.84 0 16 7.16 16 16s-7.16 16-16 16zm0-64h-224c-8.84 0-16-7.16-16-16s7.16-16 16-16h224c8.84 0 16 7.16 16 16s-7.16 16-16 16zm0-64h-224c-8.84 0-16-7.16-16-16s7.16-16 16-16h224c8.84 0 16 7.16 16 16s-7.16 16-16 16z"/></svg>