<svg viewBox="0 0 512 512" xmlns="http://www.w3.org/2000/svg"><path d="m.4 434.832c-.12-1.264-.224-2.536-.288-3.816.064 1.28.168 2.552.288 3.816zm117.552-152.256c46.008 1.368 76.864-46.352 68.928-106.6-7.944-60.24-51.696-108.584-97.704-109.96-46.016-1.368-76.872 44.744-68.928 105 7.944 60.232 51.68 110.184 97.696 111.56zm394.048-154.576v-42.656c0-46.936-38.392-85.344-85.328-85.344h-341.328c-46.136 0-84.008 37.112-85.28 82.96 29.184-25.696 69.664-47.16 111.44-47.16h178.624l-39.976 33.808h-56.632c37.568 14.4 57.576 58.064 57.576 102.864 0 37.624-20.904 69.976-50.44 92.984-28.824 22.448-34.288 31.856-34.288 50.936 0 16.288 30.872 44 47.016 55.392 47.192 33.272 62.456 64.16 62.456 115.728 0 8.216-1.024 16.416-3.032 24.48h153.872c46.936 0 85.328-38.376 85.328-85.344v-266.656h-96v96h-32v-96h-96v-32h96v-96h32v96h96zm-419.056 254.968c10.808 0 20.712-.296 30.968-.296-13.576-13.168-24.312-29.304-24.312-49.192 0-11.8 3.784-23.168 9.064-33.256-5.392.384-10.896.496-16.56.496-37.176 0-68.752-12.04-92.104-31.928v33.624 100.864c26.72-12.688 58.448-20.312 92.936-20.312zm-91.232 60.664c-.56-2.728-.984-5.504-1.272-8.32.288 2.816.712 5.592 1.272 8.32zm226.016 32.792c-7.528-29.4-34.224-43.984-71.44-69.784-13.536-4.368-28.448-6.936-44.448-7.104-44.808-.48-86.552 17.472-110.112 44.184 7.96 38.856 42.52 68.28 83.616 68.28h143.224c.904-5.568 1.352-11.312 1.352-17.216 0-6.264-.768-12.4-2.184-18.36z"/></svg>