<svg xmlns="http://www.w3.org/2000/svg" viewBox="0 0 512 512"><path d="M279.536 32C279.536 32 179.056 32 145.568 32 85.504 32 28.984 77.504 28.984 130.208 28.984 184.072 69.928 227.544 131.024 227.544 135.272 227.544 139.4 227.456 143.448 227.168 139.48 234.76 136.648 243.312 136.648 252.192 136.648 267.16 144.696 279.296 154.88 289.208 147.184 289.208 139.76 289.432 131.656 289.432 57.264 289.432 0.008 336.808 0.008 385.944 0.008 434.336 62.776 464.6 137.176 464.6 221.992 464.6 268.832 416.48 268.832 368.088 268.832 329.288 257.384 306.048 221.992 281.024 209.88 272.448 186.728 251.608 186.728 239.352 186.728 224.992 190.824 217.92 212.44 201.032 234.6 183.72 250.28 159.384 250.28 131.072 250.28 97.368 235.272 64.52 207.096 53.688H249.576L279.56 32.016ZM232.744 359.728C233.808 364.216 234.384 368.832 234.384 373.544 234.384 412.648 209.192 443.2 136.896 443.2 85.472 443.2 48.336 410.648 48.336 371.552 48.336 333.232 94.4 301.328 145.816 301.888 157.816 302.016 169 303.944 179.152 307.232 207.064 326.648 227.088 337.616 232.736 359.736ZM150.408 213.888C115.888 212.856 83.088 175.272 77.136 129.96 71.176 84.624 94.32 49.936 128.832 50.968 163.336 52.008 196.152 88.376 202.112 133.696S184.92 214.928 150.416 213.888ZM416 128V32H384V128H288V160H384V256H416V160H512V128Z"/></svg>