<svg viewBox="0 0 512 512" xmlns="http://www.w3.org/2000/svg"><path d="m464 0h-416c-26.4 0-48 21.6-48 48v416c0 26.4 21.6 48 48 48h416c26.4 0 48-21.6 48-48v-416c0-26.4-21.6-48-48-48zm-112 80c0-8.8 7.2-16 16-16h64c8.8 0 16 7.2 16 16v64c0 8.8-7.2 16-16 16h-64c-8.8 0-16-7.2-16-16zm-96 80c52.992 0 96 43.008 96 96s-43.008 96-96 96-96-43.008-96-96 43.008-96 96-96zm192 272c0 8.8-7.2 16-16 16h-352c-8.8 0-16-7.2-16-16v-208h35.2c-2.112 10.304-3.2 20.992-3.2 32 0 88.384 71.584 160 160 160s160-71.616 160-160c0-11.008-1.088-21.696-3.2-32h35.2z"/></svg>