<svg xmlns="http://www.w3.org/2000/svg" viewBox="0 0 512 512"><path d="M128 320C128 302.336 142.336 288 160 288S192 302.336 192 320C192 337.664 177.664 352 160 352S128 337.664 128 320ZM320 320C320 302.336 334.336 288 352 288S384 302.336 384 320C384 337.664 369.664 352 352 352S320 337.664 320 320ZM321.568 388.384C329.824 381.888 341.76 383.296 348.256 391.552S353.344 411.744 345.088 418.24C322.144 436.32 287.168 448 256.032 448S189.92 436.32 166.944 418.24C158.688 411.744 157.28 399.808 163.776 391.552S182.208 381.888 190.464 388.384C203.68 398.784 229.824 409.984 256.032 409.984S308.384 398.784 321.6 388.384ZM512 256C512 220.64 483.36 192 448 192 423.936 192 403.008 205.28 392.064 224.896 359.168 206.912 319.104 195.264 275.424 192.576L313.6 106.816 386.688 127.904C393.28 146.56 411.04 159.968 431.968 159.968 458.464 159.968 479.968 138.464 479.968 111.968S458.464 63.968 431.968 63.968C413.696 63.968 397.792 74.176 389.696 89.216L308.256 65.696C299.136 63.072 289.472 67.552 285.632 76.224L233.76 192.736C191.2 195.744 152.128 207.232 119.936 224.864 108.992 205.248 88.064 191.968 64 191.968 28.64 191.968 0 220.608 0 255.968 0 282.112 15.712 304.608 38.176 314.528 34.144 326.528 32 339.072 32 351.968 32 440.32 132.288 511.968 256 511.968S480 440.32 480 351.968C480 339.072 477.856 326.528 473.824 314.528 496.32 304.608 512 282.112 512 255.968ZM432 94.016C441.952 94.016 450.016 102.08 450.016 112.032S441.952 130.048 432 130.048 413.984 121.984 413.984 112.032 422.048 94.016 432 94.016ZM32 256C32 238.368 46.368 224 64 224 76.768 224 87.776 231.488 92.928 242.336 76.192 255.008 62.336 269.664 52.096 285.696 40.32 280.96 32 269.44 32 256ZM256 474.016C153.28 474.016 69.984 419.392 69.984 352S153.248 229.984 256 229.984C358.72 229.984 442.016 284.608 442.016 352S358.752 474.016 256 474.016ZM459.904 285.696C449.664 269.632 435.808 255.008 419.072 242.336 424.224 231.52 435.232 224 448 224 465.632 224 480 238.368 480 256 480 269.44 471.68 280.96 459.904 285.696Z"/></svg>