<svg viewBox="0 0 512 512" xmlns="http://www.w3.org/2000/svg"><path d="m496.128 435.696-121.28-103.144c-12.536-11.28-25.944-16.464-36.776-15.96 28.624-33.536 45.92-77.04 45.92-124.584 0-106.04-85.96-192-192-192s-192 85.96-192 192 85.96 192 192 192c47.552 0 91.056-17.296 124.592-45.92-.504 10.832 4.68 24.24 15.96 36.776l103.144 121.28c17.664 19.624 46.512 21.28 64.112 3.68s15.944-46.448-3.68-64.112zm-304.128-115.696c-70.688 0-128-57.304-128-128s57.304-128 128-128 128 57.304 128 128-57.304 128-128 128z"/></svg>