<svg viewBox="0 0 512 512" xmlns="http://www.w3.org/2000/svg"><path d="m432 352c-22.576 0-42.96 9.368-57.504 24.416l-215.504-107.752c.656-4.128 1.008-8.352 1.008-12.664s-.352-8.536-1.008-12.664l215.504-107.752c14.544 15.048 34.928 24.416 57.504 24.416 44.184 0 80-35.816 80-80s-35.816-80-80-80-80 35.816-80 80c0 4.312.352 8.536 1.008 12.664l-215.504 107.752c-14.544-15.048-34.928-24.416-57.504-24.416-44.184 0-80 35.816-80 80s35.816 80 80 80c22.576 0 42.96-9.368 57.504-24.416l215.504 107.752c-.656 4.128-1.008 8.352-1.008 12.664 0 44.184 35.816 80 80 80s80-35.816 80-80-35.816-80-80-80z"/></svg>