<?xml version="1.0" encoding="utf-8"?>
<!-- Generated by IcoMoon.io -->
<!DOCTYPE svg PUBLIC "-//W3C//DTD SVG 1.1//EN" "http://www.w3.org/Graphics/SVG/1.1/DTD/svg11.dtd">
<svg version="1.1" xmlns="http://www.w3.org/2000/svg" xmlns:xlink="http://www.w3.org/1999/xlink" width="512" height="512" viewBox="0 0 512 512"><g id="icomoon-ignore">
</g>
<path d="M160 384v-384h-64v384h-80l112 112 112-112h-80z"></path>
<path d="M432 512c-8.837 0-16-7.164-16-16v-176h-16c-8.837 0-16-7.164-16-16s7.163-16 16-16h32c8.837 0 16 7.164 16 16v192c0 8.836-7.163 16-16 16z"></path>
<path d="M464 0h-96c-8.837 0-16 7.163-16 16v96c0 8.837 7.163 16 16 16h80v64h-80c-8.837 0-16 7.163-16 16s7.163 16 16 16h96c8.837 0 16-7.163 16-16v-192c0-8.837-7.163-16-16-16zM384 32h64v64h-64v-64z"></path>
</svg>
