<svg xmlns="http://www.w3.org/2000/svg" viewBox="0 0 512 512"><path d="M320 73.296V141.272C338.104 149.176 354.752 160.48 369.136 174.864 399.36 205.08 416 245.264 416 288S399.36 370.92 369.136 401.136C338.92 431.352 298.736 448 256 448S173.08 431.36 142.864 401.136C112.648 370.92 96 330.736 96 288S112.64 205.08 142.864 174.864C157.248 160.48 173.896 149.176 192 141.272V73.296C99.472 100.84 32 186.536 32 288 32 411.712 132.288 512 256 512S480 411.712 480 288C480 186.528 412.528 100.832 320 73.296ZM224 0H288V256H224Z"/></svg>