<svg xmlns="http://www.w3.org/2000/svg" viewBox="0 0 512 512"><path d="M466.5 45.5H360.4c-25.1 0-60.1 14.48-77.7 32.18L104.3 256c-17.72 17.7-17.72 46.7 0 64.3l132.9 132.9c17.6 17.7 46.6 17.7 64.3 0l178.4-178.4c17.6-17.6 32.1-52.6 32.1-77.6V91.03c0-25.05-20.4-45.53-45.5-45.53zm-60.6 151.7c-25.2 0-45.5-20.4-45.5-45.5 0-25.2 20.3-45.6 45.5-45.6 25.1 0 45.5 20.4 45.5 45.6 0 25.1-20.4 45.5-45.5 45.5zM37.32 298.9L199.7 461.2c-17.2 9.1-39.1 6.4-53.5-8L13.27 320.3c-17.693-17.6-17.693-46.6 0-64.3L191.7 77.68c17.6-17.7 52.6-32.18 77.6-32.18l-231.98 232c-5.89 5.8-5.89 15.5 0 21.4z"/></svg>