<svg xmlns="http://www.w3.org/2000/svg" width="512" height="512" viewBox="0 0 512 512"><path d="M341.328 371.478v-23.466c31.36-17.778 56.888-61.866 56.888-105.954 0-70.4 0-127.998-85.332-127.998s-85.332 57.6-85.332 127.998c0 44.088 25.528 88.176 56.888 105.954v23.466c-96.496 7.822-170.664 54.755-170.664 112.354h398.216c0-57.6-74.168-104.532-170.664-112.354z"/><path d="M145.42 382.145c24.604-15.645 55.11-28.444 88.816-35.555-6.684-7.822-12.8-17.067-17.99-26.31-13.583-24.89-20.694-51.91-20.694-78.222 0-38.4 0-74.666 13.583-103.82 13.226-28.445 36.977-46.222 70.754-53.333-7.468-34.133-27.52-56.177-80.782-56.177-85.332 0-85.332 57.6-85.332 127.998 0 44.088 25.528 88.176 56.888 105.954v23.466C74.168 293.968 0 340.9 0 398.5h124.016c6.47-5.69 13.582-11.378 21.404-16.355z"/></svg>