<svg viewBox="0 0 512 512" xmlns="http://www.w3.org/2000/svg"><path d="m256 46.384 214.552 427.616h-429.104zm0-46.384c-11.032 0-22.072 7.44-30.44 22.328l-218.536 435.552c-16.744 29.768-2.504 54.12 31.656 54.12h434.656c34.152 0 48.392-24.352 31.648-54.12l-218.536-435.552c-8.368-14.88-19.408-22.328-30.44-22.328z"/><path d="m288 416c0 17.672-14.328 32-32 32s-32-14.328-32-32 14.328-32 32-32 32 14.328 32 32zm-32-64c-17.672 0-32-14.328-32-32v-96c0-17.672 14.328-32 32-32s32 14.328 32 32v96c0 17.672-14.328 32-32 32z"/></svg>