<svg xmlns="http://www.w3.org/2000/svg" width="512" height="512" viewBox="0 0 512 512" enable-background="new 0 0 65.953 100">
    <g>
        <path d="M418.28 248.76c-8.755 15.872-15.155 26.112-19.046 30.208-15.565 19.968-35.072 36.352-58.42 49.152-20.48 10.752-42.188 17.408-65.074 18.944-22.836 1.536-45.108-1.024-66.56-7.68-21.402-6.656-41.063-16.896-58.83-31.232-17.77-14.336-32.035-31.744-42.736-52.736-11.233-21.504-17.802-44.032-19.8-67.072-1.898-23.04.37-45.568 7-66.56 6.6-21.504 17.198-40.96 31.8-58.88 14.623-17.408 32.594-32.256 54.047-44.032C210.92 3 246.71-2.632 288.13 1.976l-54.835 15.36c-18.995 10.24-34.816 23.04-47.463 38.912-12.697 15.36-21.76 32.768-27.443 51.2-5.582 18.432-7.527 37.888-5.838 57.344 1.64 19.968 7.373 38.912 17.152 57.344 9.78 18.944 22.22 34.304 37.274 47.104 15.053 12.8 31.795 22.016 50.125 27.648 18.227 5.632 37.12 7.68 56.627 6.144 19.456-1.536 38.45-7.168 57.037-16.896l47.513-37.376z"/>
        <path d="M109.785 381.368h267.52V512.44h-267.52z"/>
        <path d="M373.634 106.63h51.2L380.29 136.63l17.51 49.152-41.728-29.338-41.574 29.338 16.794-49.152-42.394-30.003h51.917l15.257-46.235z"/>
    </g>
</svg>
