<svg xmlns="http://www.w3.org/2000/svg" viewBox="0 0 512 512"><path d="M218.829 262.502C223.898 272.589 246.682 325.683 246.682 333.261 246.682 374.886 191.078 374.886 191.078 333.261 191.078 325.683 213.76 270.029 218.829 262.502ZM251.75 239.002C251.75 233.216 251.75 223.642 251.75 206.899 251.75 186.47 233.216 168.909 208.742 168.909 208.742 168.909 208.64 168.909 151.552 168.909L151.245 151.142C151.245 145.971 147.046 141.824 141.926 141.824H119.552V130.355C121.498 129.178 123.085 127.795 124.416 125.952 131.174 125.952 144.742 125.952 172.134 125.952 175.258 130.099 180.019 132.915 185.549 132.915 195.021 132.915 202.752 125.184 202.752 115.661 202.752 106.291 195.021 98.509 185.549 98.509 179.814 98.509 175.002 101.478 171.878 105.779 164.352 105.779 150.272 105.779 124.672 105.779 121.549 101.478 116.736 98.509 111.002 98.509 105.318 98.509 100.506 101.478 97.382 105.779 82.79 105.779 65.434 105.779 45.251 105.779 42.138 101.478 37.279 98.509 31.642 98.509 22.108 98.509 14.362 106.291 14.362 115.661 14.362 125.184 22.113 132.915 31.642 132.915 37.171 132.915 41.892 130.099 45.03 125.952 53.658 125.952 69.274 125.952 97.587 125.952 98.918 127.846 100.608 129.229 102.554 130.406V141.824H78.797C73.677 141.824 69.478 145.971 69.478 151.142V168.909C63.693 168.909 46.971 168.909 0 168.909V224.563C1.669 224.563 12.943 224.563 77.312 224.563 84.89 239.77 95.027 247.296 110.234 247.296 125.338 247.296 137.984 239.77 145.562 224.563 145.562 224.563 145.562 224.563 173.312 224.563 181.658 224.563 184.73 229.888 185.6 240.128 183.194 241.766 181.453 244.48 181.453 247.654 181.453 252.826 185.651 256.922 190.822 256.922H248.525C253.696 256.922 257.843 252.826 257.843 247.654 257.843 243.61 255.283 240.282 251.75 239.002Z"/><path d="M260.301 399.718C259.482 403.712 259.584 407.859 260.762 411.853 261.734 415.59 263.731 419.123 266.496 422.042 275.814 431.462 291.072 431.718 300.646 422.502L347.955 376.371 354.048 382.566 306.688 428.749C293.734 441.293 272.998 440.986 260.301 428.083 255.898 423.578 253.491 417.997 252.16 412.109H153.139C139.674 412.109 128.768 423.014 128.768 436.378 128.768 449.894 139.674 460.8 153.139 460.8H324.659C330.24 460.8 335.36 458.598 339.558 455.219L451.226 370.688H512V287.898H511.488V287.078H370.688L267.059 388.045C263.731 391.219 261.427 395.213 260.301 399.718Z"/></svg>