<?xml version="1.0" encoding="UTF-8" standalone="no"?>
<!-- Created with Inkscape (http://www.inkscape.org/) -->

<svg
   xmlns:dc="http://purl.org/dc/elements/1.1/"
   xmlns:cc="http://creativecommons.org/ns#"
   xmlns:rdf="http://www.w3.org/1999/02/22-rdf-syntax-ns#"
   xmlns:svg="http://www.w3.org/2000/svg"
   xmlns="http://www.w3.org/2000/svg"
   version="1.1"
   width="100"
   height="100"
   viewBox="0 0 100 100"
   id="Layer_1"
   xml:space="preserve"><metadata
     id="metadata3558"><rdf:RDF><cc:Work
         rdf:about=""><dc:format>image/svg+xml</dc:format><dc:type
           rdf:resource="http://purl.org/dc/dcmitype/StillImage" /><dc:title></dc:title></cc:Work></rdf:RDF></metadata><defs
     id="defs3556" /><path
     d="M 58.39,31.82 C 64.69,33.98 73.04,36.52 74.82,26.34 76.23,18.44 86.78,21.37 91.27,20.86 99.41,19.93 93.27,4.646 83.05,4.421 72.7,4.196 67.99,8.736 63.86,18.12 61.9,22.63 60.22,26.03 52.91,23.6 45.6,21.17 40.25,27.17 44.69,34.56 48.63,41.12 44.63,48.26 44.63,48.26 H 55.65 C 55.65,48.26 55.56,44.19 52.91,40.04 49.81,35.2 51.94,29.6 58.39,31.82 z"
     id="path3550" /><path
     d="M 0,100 C 28.35,79.33 35.43,50.77 35.43,50.77 H 64.57 C 64.57,50.77 71.65,79.33 100,100 H 0 z"
     id="path3552" /></svg>