<svg viewBox="0 0 512 512" xmlns="http://www.w3.org/2000/svg"><path d="M 465.114 170.667 L 275.484 170.667 L 275.484 79.644 C 282.516 75.674 288.093 69.561 291.412 62.197 L 484.076 37.927 C 494.547 37.927 503.04 29.435 503.04 18.963 C 503.04 8.49 494.547 0 484.076 0 L 286.102 24.651 C 279.101 15.31 268.191 9.717 256.52 9.483 C 241.21 9.557 227.446 18.835 221.629 32.995 L 28.964 56.889 C 18.494 56.889 10 65.38 10 75.851 C 10 86.322 18.494 94.814 28.964 94.814 L 226.937 70.163 C 229.847 73.967 233.451 77.183 237.557 79.644 L 237.557 170.667 L 47.929 170.667 C 26.982 170.667 10 187.647 10 208.593 L 10 474.075 C 10 495.022 26.982 512 47.929 512 L 465.114 512 C 486.06 512 503.04 495.022 503.04 474.075 L 503.04 208.593 C 503.04 187.647 486.06 170.667 465.114 170.667 Z M 237.557 398.223 L 85.854 398.223 L 85.854 246.52 L 237.557 246.52 L 237.557 398.223 Z M 427.186 398.223 L 275.484 398.223 L 275.484 246.52 L 427.186 246.52 L 427.186 398.223 Z"/></svg>