<svg viewBox="0 0 512 512" xmlns="http://www.w3.org/2000/svg"><path d="m465.114 170.667h-189.63v-91.023c7.032-3.97 12.609-10.083 15.928-17.447l192.664-24.27c10.471 0 18.964-8.492 18.964-18.964 0-10.473-8.493-18.963-18.964-18.963l-197.974 24.651c-7.001-9.341-17.911-14.934-29.582-15.168-15.31.074-29.074 9.352-34.891 23.512l-192.665 23.894c-10.47 0-18.964 8.491-18.964 18.962s8.494 18.963 18.964 18.963l197.973-24.651c2.91 3.804 6.514 7.02 10.62 9.481v91.023h-189.628c-20.947 0-37.929 16.98-37.929 37.926v265.482c0 20.947 16.982 37.925 37.929 37.925h417.185c20.946 0 37.926-16.978 37.926-37.925v-265.482c0-20.946-16.98-37.926-37.926-37.926zm-227.557 227.556h-151.703v-151.703h151.703zm189.629 0h-151.702v-151.703h151.702z"/></svg>