<svg viewBox="0 0 512 512" xmlns="http://www.w3.org/2000/svg"><path d="M 232.728 23.272 L 162.908 23.272 C 139.636 23.272 139.636 0 162.908 0 L 349.088 0 C 372.36 0 372.36 23.272 349.088 23.272 L 279.272 23.272 C 279.272 23.272 307.199 43.442 307.199 89.985 L 307.199 136.533 L 512 136.533 L 512 204.799 L 307.199 273.066 L 290.133 443.733 L 375.466 488.728 L 375.466 512 L 136.533 512 L 136.533 488.728 L 221.867 443.733 L 204.799 273.066 L 0 204.799 L 0 136.533 L 204.799 136.533 L 204.799 89.989 C 204.799 43.442 232.728 23.272 232.728 23.272 Z"/></svg>