<svg viewBox="0 0 512 512" xmlns="http://www.w3.org/2000/svg"><path d="m493.428 146.286h-146.284v125.805 2.195c.109 33.265 22.648 62.266 54.856 70.582v130.56h-18.286c-10.097 0-18.285 8.189-18.285 18.287s8.188 18.285 18.285 18.285h73.143c10.098 0 18.286-8.189 18.286-18.285 0-10.097-8.188-18.287-18.286-18.287h-18.285v-130.56c32.208-8.316 54.747-37.317 54.856-70.582 0 0 0 0 0-2.195zm-36.571 128c0 20.199-16.373 36.571-36.572 36.571s-36.571-16.372-36.571-36.571v-91.428h73.143zm-274.286-182.858v-18.285c10.098 0 18.287-8.188 18.287-18.286s-8.189-18.285-18.287-18.285v-18.287c0-10.096-8.188-18.285-18.285-18.285h-36.571c-10.098 0-18.287 8.189-18.287 18.285v18.287c-10.096 0-18.285 8.188-18.285 18.285 0 10.096 8.189 18.286 18.285 18.286v18.285c0 52.298-91.428 112.275-91.428 164.573v219.427c0 20.199 16.373 36.572 36.572 36.572h182.857c19.448-1.7 34.871-17.123 36.572-36.572v-219.427c0-49.373-91.43-115.2-91.43-164.573zm-36.571 347.429c-50.493 0-91.428-40.934-91.428-91.428 0-50.495 40.935-91.428 91.428-91.428s91.429 40.933 91.429 91.428c0 50.494-40.935 91.428-91.429 91.428z"/></svg>