<svg viewBox="0 0 512 512" xmlns="http://www.w3.org/2000/svg"><path d="m257.182 78c-174.868 0-257.182 177.231-257.182 177.231s82.314 177.23 257.182 177.23c174.869 0 254.818-177.23 254.818-177.23s-78.769-177.231-254.818-177.231zm136.664 157.539v59.076c0 10.875-8.817 19.693-19.692 19.693s-19.691-8.818-19.691-19.693v-19.691h-78.77v19.691c0 10.875-8.818 19.693-19.693 19.693s-19.692-8.818-19.692-19.693v-19.691h-78.769v19.691c0 10.875-8.818 19.693-19.693 19.693s-19.692-8.818-19.692-19.693v-78.769c0-10.873 8.819-19.692 19.692-19.692s19.693 8.819 19.693 19.692v19.693h78.769v-19.693c0-10.873 8.819-19.692 19.692-19.692s19.693 8.819 19.693 19.692v19.693h78.77v-19.693c0-10.873 8.816-19.692 19.691-19.692s19.692 8.819 19.692 19.692z"/></svg>