<svg viewBox="0 0 512 512" xmlns="http://www.w3.org/2000/svg"><path d="m372.054 396.814c-10.24-20.482-10.24-78.506 0-95.574 13.654-20.48 116.054 47.788 116.054 47.788 30.718 13.652 30.718-208.214 0-194.562 0 0-105.814 71.68-116.054 47.788-10.24-23.894-10.24-71.68 0-95.574 10.24-20.48 139.946-23.894 139.946-23.894 0-23.892-98.986-47.786-139.946-47.786-40.962 0-85.334 3.414-139.948 27.308-54.612 20.478-98.986 54.612-139.946 95.572s-92.16 122.88-92.16 146.772c0 23.894 51.2 95.574 126.294 126.294 75.094 30.722 112.64 37.548 153.6 44.374 37.546 3.414 88.746 0 133.12-10.24 34.132-6.826 98.986-23.894 98.986-37.546 0-6.826-129.706-10.24-139.946-30.72zm-218.454-78.506c-27.306 0-51.2-23.894-51.2-51.202 0-27.306 23.894-51.2 51.2-51.2s51.2 23.894 51.2 51.2-23.894 51.202-51.2 51.202z"/></svg>