<svg viewBox="0 0 512 512" xmlns="http://www.w3.org/2000/svg"><path d="m196.924 59c-21.819 0-29.627 19.869-39.385 39.385l-19.693 39.384h-78.77c-32.727 0-59.076 26.349-59.076 59.077v196.923c0 32.73 26.349 59.077 59.076 59.077h393.848c32.727 0 59.076-26.347 59.076-59.077v-196.923c0-32.728-26.349-59.077-59.076-59.077h-78.77l-19.691-39.384c-9.848-19.693-17.566-39.385-39.385-39.385zm-137.848 118.154c10.875 0 19.693 8.819 19.693 19.692s-8.818 19.693-19.693 19.693c-10.874 0-19.691-8.818-19.691-19.693s8.818-19.692 19.691-19.692zm196.924 0c65.257 0 118.154 52.898 118.154 118.154 0 65.257-52.897 118.153-118.154 118.153s-118.154-52.897-118.154-118.153c0-65.255 52.897-118.154 118.154-118.154zm0 59.077c-32.626 0-59.076 26.45-59.076 59.077 0 32.626 26.45 59.077 59.076 59.077s59.078-26.451 59.078-59.077c0-32.627-26.452-59.077-59.078-59.077z"/></svg>