<svg viewBox="0 0 512 512" xmlns="http://www.w3.org/2000/svg"><path d="M 196.924 59 C 175.105 59 167.297 78.869 157.539 98.385 L 137.846 137.769 L 59.076 137.769 C 26.349 137.769 0 164.118 0 196.846 L 0 393.769 C 0 426.499 26.349 452.846 59.076 452.846 L 452.924 452.846 C 485.651 452.846 512 426.499 512 393.769 L 512 196.846 C 512 164.118 485.651 137.769 452.924 137.769 L 374.154 137.769 L 354.463 98.385 C 344.615 78.692 336.897 59 315.078 59 L 196.924 59 Z M 59.076 177.154 C 69.951 177.154 78.769 185.973 78.769 196.846 C 78.769 207.719 69.951 216.539 59.076 216.539 C 48.202 216.539 39.385 207.721 39.385 196.846 C 39.385 185.971 48.203 177.154 59.076 177.154 Z M 256 177.154 C 321.257 177.154 374.154 230.052 374.154 295.308 C 374.154 360.565 321.257 413.461 256 413.461 C 190.743 413.461 137.846 360.564 137.846 295.308 C 137.846 230.053 190.743 177.154 256 177.154 Z M 256 236.231 C 223.374 236.231 196.924 262.681 196.924 295.308 L 196.924 295.308 C 196.924 327.934 223.374 354.385 256 354.385 L 256 354.385 C 288.626 354.385 315.078 327.934 315.078 295.308 L 315.078 295.308 C 315.078 262.681 288.626 236.231 256 236.231 L 256 236.231 Z"/></svg>