<svg viewBox="0 0 512 512" xmlns="http://www.w3.org/2000/svg"><path d="m180.705 166.186 24.096 174.681s0 34.133 34.133 34.133h34.133c34.134 0 34.134-34.133 34.134-34.133l24.094-174.681c0-47.186-75.295-47.186-75.295-47.186s-75.4 0-75.295 47.186zm-61.239 21.081c-51.199 0-51.199 34.133-51.199 34.133l34.133 136.534h51.2c25.771 0 27.105-26.103 27.105-26.103l-27.105-144.564zm-68.267 85.333s-21.079-1.004-36.139 14.056c-15.06 15.057-15.06 30.117-15.06 30.117v75.293h30.12c38.147 0 38.147-34.132 38.147-34.132zm341.335-85.333c51.199 0 51.199 34.133 51.199 34.133l-34.133 136.534h-51.2c-25.771 0-27.105-26.103-27.105-26.103l27.105-144.564zm68.267 85.333s21.081-1.004 36.139 14.056c15.06 15.057 15.06 30.117 15.06 30.117v75.293h-30.118c-38.149 0-38.149-34.132-38.149-34.132z"/></svg>