<svg viewBox="0 0 512 512" xmlns="http://www.w3.org/2000/svg"><path d="M 180.705 166.186 L 204.801 340.867 C 204.801 340.867 204.801 375 238.934 375 L 273.067 375 C 307.201 375 307.201 340.867 307.201 340.867 L 331.295 166.186 C 331.295 119 256 119 256 119 C 256 119 180.6 119 180.705 166.186 Z M 119.466 187.267 C 68.267 187.267 68.267 221.4 68.267 221.4 L 102.4 357.934 L 153.6 357.934 C 179.371 357.934 180.705 331.831 180.705 331.831 L 153.6 187.267 L 119.466 187.267 Z M 51.199 272.6 C 51.199 272.6 30.12 271.596 15.06 286.656 C 0 301.713 0 316.773 0 316.773 L 0 392.066 L 30.12 392.066 C 68.267 392.066 68.267 357.934 68.267 357.934 L 51.199 272.6 Z M 392.534 187.267 C 443.733 187.267 443.733 221.4 443.733 221.4 L 409.6 357.934 L 358.4 357.934 C 332.629 357.934 331.295 331.831 331.295 331.831 L 358.4 187.267 L 392.534 187.267 Z M 460.801 272.6 C 460.801 272.6 481.882 271.596 496.94 286.656 C 512 301.713 512 316.773 512 316.773 L 512 392.066 L 481.882 392.066 C 443.733 392.066 443.733 357.934 443.733 357.934 L 460.801 272.6 Z"/></svg>