<svg viewBox="0 0 512 512" xmlns="http://www.w3.org/2000/svg"><path d="m306.952 119.466c0 28.278-22.925 51.201-51.201 51.201s-51.2-22.923-51.2-51.201c0-28.277 22.924-51.199 51.2-51.199s51.201 22.923 51.201 51.199zm-102.401-109.908c0-5.278-4.281-9.558-9.557-9.558-3.342.895-6.321 2.803-8.533 5.461l-84.31 151.212c-.201 1.47-.201 2.965 0 4.436 0 5.277 4.28 9.558 9.557 9.558 3.465-.83 6.574-2.741 8.876-5.461l83.967-151.212c.205-1.471.205-2.966 0-4.436zm201.386 475.136-98.985-266.582c-1.619-7.759-8.459-13.316-16.384-13.311h-170.668c-9.424 0-17.067 7.642-17.067 17.066 0 9.423 7.643 17.067 17.067 17.067h84.651l49.493 85.674-145.75 157.355c-3.893 3.181-6.15 7.942-6.143 12.971 0 9.423 7.643 17.066 17.066 17.066 4.179-.02 8.196-1.604 11.265-4.437l151.893-141.653 94.209 136.534c3.054 5.433 8.785 8.82 15.017 8.874 9.544.007 17.381-7.533 17.75-17.067-.143-3.458-1.33-6.793-3.414-9.557z"/></svg>