<svg viewBox="0 0 512 512" xmlns="http://www.w3.org/2000/svg"><path d="m256.49 98.537c0 32.652-26.472 59.123-59.123 59.123s-59.122-26.471-59.122-59.123c0-32.653 26.471-59.122 59.122-59.122s59.123 26.471 59.123 59.122zm197.073-98.537c-21.768 0-39.415 17.645-39.415 39.415 0 21.769 17.647 39.415 39.415 39.415s39.415-17.646 39.415-39.415c0-21.77-17.646-39.415-39.415-39.415zm-83.164 480.468-113.909-142.288v-121.399h19.706c6.578-.071 12.668-3.488 16.16-9.064l76.465-95.384 2.365-3.154c2.212-3.117 3.445-6.822 3.547-10.642-.149-10.882-9.097-19.581-19.978-19.431-5.259.07-10.269 2.243-13.918 6.03l-74.099 92.231h-148.201c-5.392.071-10.523 2.348-14.19 6.306l-78.829 100.114c-3.158 3.18-5.109 7.362-5.518 11.824 0 10.884 8.825 19.709 19.707 19.709 6.579-.071 12.668-3.489 16.161-9.066l72.129-89.473h10.248v121.399l-113.909 142.288c-2.727 3.346-4.254 7.507-4.336 11.824 0 10.883 8.825 19.708 19.707 19.708 6.579-.071 12.668-3.489 16.161-9.066l118.243-148.594h45.327l118.245 148.594c3.492 5.577 9.582 8.995 16.162 9.066 10.881 0 19.706-8.825 19.706-19.708-.082-4.317-1.608-8.478-4.336-11.824z"/></svg>