<svg viewBox="0 0 512 512" xmlns="http://www.w3.org/2000/svg"><path d="m511.998 200.61c0 46.967-46.523 23.688-46.523 23.688l-38.809 7.033h-51.201c-11.389 26.506-28.942 49.91-51.199 68.265-3.447 13.821-9.507 26.856-17.851 38.4-2.63 3.107-2.082 6.826-2.322 11.264l3.107 78.507c-.256 4.815-4.258 8.576-9.08 8.533-4.008-.086-7.376-3.036-7.987-6.998l-17.066-112.639h-136.533v111.035c0 4.656-3.775 8.431-8.431 8.431-4.004-.063-7.426-2.903-8.227-6.827l-17.476-95.573v-17.066c-16.293.281-32.579-.861-48.673-3.413-.191 18.806-8.596 36.588-23.006 48.673-4.37 2.834-5.053 7.202-4.541 13.176 0 0 6.487 52.292 6.487 52.497 0 4.713-3.822 8.533-8.535 8.533-3.654.011-6.866-2.419-7.85-5.939l-14.575-58.027c-.972-3.521-.281-7.293 1.878-10.24 14.915-23.21-1.673-87.039-1.673-87.039-1.17-3.925-1.813-7.988-1.911-12.083v-82.671c-.361-48.483 47.966-82.291 93.388-65.331 0 0 3.413 1.024 4.846 1.673 43.167 5.915 86.908 6.351 130.184 1.297l6.111-2.116c13.891-5.055 29.118-5.055 43.008 0 2.7.683 5.303 1.703 7.748 3.037 3.423 1.668 6.699 3.621 9.796 5.838 9.225 3.817 19.243 5.328 29.184 4.403h34.133v-34.134l17.066 17.066c17.067-51.199 85.334-34.133 85.334-34.133-22.225.54-42.154 13.826-51.201 34.133l85.334 68.267c1.975-1.125 4.119-1.92 6.349-2.355 5.981.075 10.774 4.975 10.717 10.956z"/></svg>