<svg viewBox="0 0 512 512" xmlns="http://www.w3.org/2000/svg"><path d="m375.333 136.534h-238.933c-18.852 0-34.133-15.283-34.133-34.134v-85.334c0-9.423 7.642-17.066 17.066-17.066 9.423 0 17.067 7.643 17.067 17.066v51.201h34.134v-34.134c0-18.852 15.281-34.133 34.133-34.133 18.853 0 34.134 15.281 34.134 34.133v34.134h34.133v-34.134c0-18.852 15.281-34.133 34.133-34.133 18.853 0 34.134 15.281 34.134 34.133v34.134h34.132v-51.201c0-9.423 7.642-17.066 17.067-17.066s17.066 7.643 17.066 17.066v85.334c0 18.851-15.281 34.134-34.133 34.134zm102.4 358.4c0 9.423-7.642 17.066-17.066 17.066h-409.601c-9.423 0-17.066-7.643-17.066-17.066s7.643-17.067 17.066-17.067h17.067c18.853 0 34.134-15.281 34.134-34.134 0 0 34.133-204.799 34.133-238.932 0-18.853 15.281-34.134 34.134-34.134h170.667c18.851 0 34.132 15.281 34.132 34.134 0 34.133 34.133 238.932 34.133 238.932 0 18.853 15.283 34.134 34.134 34.134h17.067c9.295-.003 16.883 7.435 17.066 16.725zm-170.666-136.534c0-28.276-22.925-51.199-51.2-51.199-28.276 0-51.2 22.923-51.2 51.199v119.467h102.4z"/></svg>