<svg viewBox="0 0 512 512" xmlns="http://www.w3.org/2000/svg"><path d="M 375.333 136.534 L 136.4 136.534 C 117.548 136.534 102.267 121.251 102.267 102.4 L 102.267 17.066 C 102.267 7.643 109.909 0 119.333 0 C 128.756 0 136.4 7.643 136.4 17.066 L 136.4 68.267 L 170.534 68.267 L 170.534 34.133 C 170.534 15.281 185.815 0 204.667 0 C 223.52 0 238.801 15.281 238.801 34.133 L 238.801 68.267 L 272.934 68.267 L 272.934 34.133 C 272.934 15.281 288.215 0 307.067 0 C 325.92 0 341.201 15.281 341.201 34.133 L 341.201 68.267 L 375.333 68.267 L 375.333 17.066 C 375.333 7.643 382.975 0 392.4 0 C 401.825 0 409.466 7.643 409.466 17.066 L 409.466 102.4 C 409.466 121.251 394.185 136.534 375.333 136.534 Z M 477.733 494.934 C 477.733 504.357 470.091 512 460.667 512 L 51.066 512 C 41.643 512 34 504.357 34 494.934 C 34 485.511 41.643 477.867 51.066 477.867 L 68.133 477.867 C 86.986 477.867 102.267 462.586 102.267 443.733 C 102.267 443.733 136.4 238.934 136.4 204.801 C 136.4 185.948 151.681 170.667 170.534 170.667 L 341.201 170.667 C 360.052 170.667 375.333 185.948 375.333 204.801 C 375.333 238.934 409.466 443.733 409.466 443.733 C 409.466 462.586 424.749 477.867 443.6 477.867 L 460.667 477.867 C 469.962 477.864 477.55 485.302 477.733 494.592 L 477.733 494.934 Z M 307.067 358.4 C 307.067 330.124 284.142 307.201 255.867 307.201 C 227.591 307.201 204.667 330.124 204.667 358.4 L 204.667 477.867 L 307.067 477.867 L 307.067 358.4 Z"/></svg>