<svg viewBox="0 0 512 512" xmlns="http://www.w3.org/2000/svg"><path d="m256 34-256 119.467 68.267 30.72v58.026c-20.48 6.827-34.134 27.307-34.134 47.787s13.654 40.96 34.134 47.787v3.413l-30.72 71.68c-10.24 30.72-3.414 64.853 47.786 64.853s58.027-34.133 47.787-64.853l-30.72-71.68c20.48-10.24 34.133-27.307 34.133-51.2s-13.653-40.96-34.133-47.787v-40.96l153.6 71.68 256-119.466zm150.187 221.867-153.6 68.266-81.92-37.546v3.413c0 23.893-10.24 44.373-27.307 61.44l20.48 47.787v3.413c3.413 13.653 6.827 27.307 3.413 40.96 23.894 10.24 51.2 17.067 85.334 17.067 112.64 0 153.6-68.267 153.6-102.4z"/></svg>