<svg viewBox="0 0 512 512" xmlns="http://www.w3.org/2000/svg"><path d="M 256 34 L 0 153.467 L 68.267 184.187 L 68.267 242.213 C 47.787 249.04 34.133 269.52 34.133 290 C 34.133 310.48 47.787 330.96 68.267 337.787 L 68.267 341.2 L 37.547 412.88 C 27.307 443.6 34.133 477.733 85.333 477.733 C 136.533 477.733 143.36 443.6 133.12 412.88 L 102.4 341.2 C 122.88 330.96 136.533 313.893 136.533 290 C 136.533 266.107 122.88 249.04 102.4 242.213 L 102.4 201.253 L 256 272.933 L 512 153.467 L 256 34 Z M 406.187 255.867 L 252.587 324.133 L 170.667 286.587 L 170.667 290 C 170.667 313.893 160.427 334.373 143.36 351.44 L 163.84 399.227 L 163.84 402.64 C 167.253 416.293 170.667 429.947 167.253 443.6 C 191.147 453.84 218.453 460.667 252.587 460.667 C 365.227 460.667 406.187 392.4 406.187 358.267 L 406.187 255.867 L 406.187 255.867 Z"/></svg>