<svg viewBox="0 0 512 512" xmlns="http://www.w3.org/2000/svg"><path d="M 242.616 54.857 C 242.616 85.154 218.054 109.715 187.758 109.715 C 157.463 109.715 132.902 85.154 132.902 54.857 C 132.902 24.56 157.463 0 187.758 0 C 218.054 0 242.616 24.561 242.616 54.857 Z M 347.942 262.583 L 347.942 262.583 L 274.799 189.44 L 274.799 189.44 L 274.799 189.44 C 271.196 185.111 265.799 182.682 260.169 182.858 L 87.188 182.858 C 73.422 182.547 61.616 192.618 59.759 206.264 L 59.759 206.264 L 23.187 487.863 L 23.187 487.863 C 22.938 489.56 22.938 491.286 23.187 492.983 C 23.187 503.081 31.376 511.269 41.472 511.269 C 49.706 511.829 57.254 506.694 59.759 498.834 L 59.759 498.834 L 103.644 356.571 L 103.644 356.571 L 113.153 326.217 L 127.781 342.309 L 127.781 342.309 L 169.473 387.657 L 169.473 493.715 C 169.473 503.811 177.662 512 187.758 512 C 197.855 512 206.045 503.811 206.045 493.715 L 206.045 384 L 206.045 384 L 206.045 384 C 205.748 381.119 204.743 378.354 203.118 375.954 L 203.118 375.954 L 150.456 310.857 L 187.028 219.429 L 249.564 219.429 L 322.708 286.721 L 322.708 286.721 C 326.101 290.658 331.039 292.926 336.239 292.937 C 345.613 291.807 352.586 283.725 352.33 274.286 C 352.319 269.985 350.762 265.83 347.942 262.583 Z M 462.044 412.16 C 446.897 412.16 434.617 424.44 434.617 439.589 C 434.617 454.737 446.897 467.018 462.044 467.018 C 477.191 467.018 489.473 454.737 489.473 439.589 C 489.473 424.44 477.193 412.16 462.044 412.16 Z M 343.553 356.205 L 343.553 329.144 C 343.553 324.093 339.461 320 334.411 320 C 329.36 320 325.268 324.093 325.268 329.144 L 325.268 356.205 C 319.702 359.333 316.22 365.184 316.124 371.565 L 316.124 493.715 C 316.124 503.811 324.313 512 334.411 512 C 344.509 512 352.696 503.811 352.696 493.715 L 352.696 371.565 C 352.601 365.184 349.12 359.333 343.553 356.205 Z"/></svg>