<svg viewBox="0 0 512 512" xmlns="http://www.w3.org/2000/svg"><path d="m242.616 54.857c0 30.297-24.562 54.858-54.858 54.858-30.295 0-54.856-24.561-54.856-54.858s24.561-54.857 54.856-54.857c30.296 0 54.858 24.561 54.858 54.857zm105.326 207.726-73.143-73.143c-3.603-4.329-9-6.758-14.63-6.582h-172.981c-13.766-.311-25.572 9.76-27.429 23.406l-36.572 281.599c-.249 1.697-.249 3.423 0 5.12 0 10.098 8.189 18.286 18.285 18.286 8.234.56 15.782-4.575 18.287-12.435l43.885-142.263 9.509-30.354 14.628 16.092 41.692 45.348v106.058c0 10.096 8.189 18.285 18.285 18.285 10.097 0 18.287-8.189 18.287-18.285v-109.715c-.297-2.881-1.302-5.646-2.927-8.046l-52.662-65.097 36.572-91.428h62.536l73.144 67.292c3.393 3.937 8.331 6.205 13.531 6.216 9.374-1.13 16.347-9.212 16.091-18.651-.011-4.301-1.568-8.456-4.388-11.703zm114.102 149.577c-15.147 0-27.427 12.28-27.427 27.429 0 15.148 12.28 27.429 27.427 27.429s27.429-12.281 27.429-27.429c0-15.149-12.28-27.429-27.429-27.429zm-118.491-55.955v-27.061c0-5.051-4.092-9.144-9.142-9.144-5.051 0-9.143 4.093-9.143 9.144v27.061c-5.566 3.128-9.048 8.979-9.144 15.36v122.15c0 10.096 8.189 18.285 18.287 18.285s18.285-8.189 18.285-18.285v-122.15c-.095-6.381-3.576-12.232-9.143-15.36z"/></svg>