<svg viewBox="0 0 512 512" xmlns="http://www.w3.org/2000/svg"><path d="M 64.596 10.634 L 256 202.038 L 446.617 11.422 C 453.367 4.238 462.752 0.115 472.61 0 C 494.362 0 511.993 17.633 511.993 39.385 C 512.179 49.143 508.331 58.548 501.359 65.377 L 308.774 255.994 L 501.359 448.58 C 507.85 454.929 511.659 463.53 511.993 472.604 C 511.993 494.356 494.362 511.987 472.61 511.987 C 462.46 512.408 452.604 508.55 445.435 501.353 L 256 309.949 L 64.99 500.96 C 58.267 507.904 49.051 511.873 39.391 511.987 C 17.639 511.987 0.006 494.356 0.006 472.604 C -0.178 462.844 3.669 453.44 10.64 446.611 L 203.226 255.994 L 10.64 63.409 C 4.149 57.06 0.341 48.458 0.006 39.385 C 0.006 17.633 17.639 0 39.391 0 C 48.858 0.115 57.905 3.931 64.596 10.634 Z"/></svg>