<svg viewBox="0 0 512 512" xmlns="http://www.w3.org/2000/svg"><path d="m64.596 10.634 191.404 191.404 190.617-190.616c6.75-7.184 16.135-11.307 25.993-11.422 21.752 0 39.383 17.633 39.383 39.385.186 9.758-3.662 19.163-10.634 25.992l-192.585 190.617 192.585 192.586c6.491 6.349 10.3 14.95 10.634 24.024 0 21.752-17.631 39.383-39.383 39.383-10.15.421-20.006-3.437-27.175-10.634l-189.435-191.404-191.01 191.011c-6.723 6.944-15.939 10.913-25.599 11.027-21.752 0-39.385-17.631-39.385-39.383-.184-9.76 3.663-19.164 10.634-25.993l192.586-190.617-192.586-192.585c-6.491-6.349-10.299-14.951-10.634-24.024 0-21.752 17.633-39.385 39.385-39.385 9.467.115 18.514 3.931 25.205 10.634z"/></svg>