<svg viewBox="0 0 512 512" xmlns="http://www.w3.org/2000/svg"><path d="m476 468-22 44-198-84-198 84-22-44 176-70-176-70 22-44 198 84 198-84 22 44-176 70zm-66.887-323.946v15.325c-.073 7.252-2.459 14.291-6.811 20.093-19.022 21.055-39.302 34.528-61.302 52.528v50l-85 36-85-36v-50c-22-18-43-31-62-52-4-6-6-13-6-21l2-15c3-75 62-137 138-144h26c78 7 135 68 140 144zm-204.332-7.833c0-26.216-28.379-42.6-51.082-29.493-10.537 6.084-17.028 17.326-17.028 29.493 0 26.216 28.379 42.601 51.083 29.493 10.537-6.083 17.027-17.326 17.027-29.493zm34.056 96.166c0-13.108-14.19-21.3-25.542-14.746-5.268 3.042-8.514 8.663-8.514 14.746v17.028c0 13.108 14.19 21.3 25.542 14.746 5.268-3.041 8.514-8.663 8.514-14.746zm68.11 0c0-13.108-14.189-21.3-25.541-14.746-5.268 3.042-8.514 8.663-8.514 14.746v17.028c0 13.108 14.19 21.3 25.542 14.746 5.268-3.041 8.513-8.663 8.513-14.746zm68.111-96.166c0-26.216-28.379-42.6-51.083-29.493-10.537 6.084-17.028 17.326-17.028 29.493 0 26.216 28.38 42.601 51.083 29.493 10.537-6.083 17.028-17.326 17.028-29.493z"/></svg>