<svg viewBox="0 0 512 512" xmlns="http://www.w3.org/2000/svg"><path d="M 132.198 512 C 92.973 512 110.233 407.271 98.464 315.879 C 94.542 286.067 59.24 257.433 54.534 235.076 C 39.628 158.98 15.702 19.341 104.74 2.082 C 193.779 -15.177 196.526 80.531 256.931 80.531 C 317.336 80.531 318.513 -12.039 407.946 2.082 C 497.378 16.203 470.313 155.058 458.545 233.507 C 454.623 251.157 415.398 291.558 412.261 314.308 C 399.316 408.448 424.813 510.431 380.881 510.431 C 344.403 510.431 329.104 403.741 302.432 333.921 C 291.841 301.365 277.328 276.654 256.931 276.654 C 196.526 276.654 186.719 512 132.198 512 Z"/></svg>