<svg viewBox="0 0 512 512" xmlns="http://www.w3.org/2000/svg"><path d="m132.198 512c-39.225 0-21.965-104.729-33.734-196.121-3.922-29.812-39.224-58.446-43.93-80.803-14.906-76.096-38.832-215.735 50.206-232.994 89.039-17.259 91.786 78.449 152.191 78.449s61.582-92.57 151.015-78.449c89.432 14.121 62.367 152.976 50.599 231.425-3.922 17.65-43.147 58.051-46.284 80.801-12.945 94.14 12.552 196.123-31.38 196.123-36.478 0-51.777-106.69-78.449-176.51-10.591-32.556-25.104-57.267-45.501-57.267-60.405 0-70.212 235.346-124.733 235.346z"/></svg>