<svg viewBox="0 0 512 512" xmlns="http://www.w3.org/2000/svg"><path d="M 166.846 236.308 C 112.467 236.308 68.385 192.225 68.385 137.846 L 68.385 137.846 L 68.385 59.076 C 68.385 48.203 77.203 39.385 88.076 39.385 L 107.769 39.385 C 118.643 39.385 127.461 30.566 127.461 19.692 C 127.461 8.817 118.643 0 107.769 0 L 88.076 0 C 55.45 0 29 26.45 29 59.076 L 29 137.846 C 29.052 183.004 51.284 225.261 88.47 250.881 L 88.47 250.881 C 124.04 282.239 145.24 326.775 147.154 374.154 C 147.154 450.284 208.87 512 285 512 C 361.13 512 422.846 450.284 422.846 374.154 L 422.846 351.705 C 464.969 340.83 490.296 297.866 479.423 255.745 C 468.545 213.622 425.584 188.294 383.461 199.167 C 341.34 210.045 316.012 253.007 326.885 295.129 C 334.05 322.875 355.715 344.541 383.461 351.705 L 383.461 374.154 C 383.461 428.533 339.379 472.615 285 472.615 C 230.621 472.615 186.539 428.533 186.539 374.154 C 188.552 326.715 209.901 282.168 245.615 250.881 L 245.615 250.881 C 282.653 225.17 304.732 182.934 304.693 137.846 L 304.693 59.076 C 304.693 26.45 278.241 0 245.615 0 L 225.924 0 C 215.049 0 206.231 8.818 206.231 19.692 C 206.231 30.565 215.049 39.385 225.924 39.385 L 245.615 39.385 C 256.49 39.385 265.308 48.203 265.308 59.076 L 265.308 137.846 L 265.308 137.846 C 265.308 192.225 221.225 236.308 166.846 236.308 M 403.154 315.078 C 381.401 315.078 363.769 297.444 363.769 275.693 C 363.769 253.942 381.401 236.308 403.154 236.308 C 424.907 236.308 442.539 253.94 442.539 275.693 C 442.539 297.446 424.907 315.078 403.154 315.078 Z"/></svg>