<svg viewBox="0 0 512 512" xmlns="http://www.w3.org/2000/svg"><path d="m166.846 236.308c-54.379 0-98.461-44.083-98.461-98.462v-78.77c0-10.873 8.818-19.691 19.691-19.691h19.693c10.874 0 19.692-8.819 19.692-19.693 0-10.875-8.818-19.692-19.692-19.692h-19.693c-32.626 0-59.076 26.45-59.076 59.076v78.77c.052 45.158 22.284 87.415 59.47 113.035 35.57 31.358 56.77 75.894 58.684 123.273 0 76.13 61.716 137.846 137.846 137.846s137.846-61.716 137.846-137.846v-22.449c42.123-10.875 67.45-53.839 56.577-95.96-10.878-42.123-53.839-67.451-95.962-56.578-42.121 10.878-67.449 53.84-56.576 95.962 7.165 27.746 28.83 49.412 56.576 56.576v22.449c0 54.379-44.082 98.461-98.461 98.461s-98.461-44.082-98.461-98.461c2.013-47.439 23.362-91.986 59.076-123.273 37.038-25.711 59.117-67.947 59.078-113.035v-78.77c0-32.626-26.452-59.076-59.078-59.076h-19.691c-10.875 0-19.693 8.818-19.693 19.692 0 10.873 8.818 19.693 19.693 19.693h19.691c10.875 0 19.693 8.818 19.693 19.691v78.77c0 54.379-44.083 98.462-98.462 98.462m236.308 78.77c-21.753 0-39.385-17.634-39.385-39.385s17.632-39.385 39.385-39.385 39.385 17.632 39.385 39.385-17.632 39.385-39.385 39.385z"/></svg>