<svg viewBox="0 0 512 512" xmlns="http://www.w3.org/2000/svg"><path d="m231.143 39.445c-48.122 0-85.595 54.435-100.19 71.79-2.899 3.558-4.438 8.036-4.339 12.623v173.559c-.458 9.574 6.934 17.707 16.507 18.165 4.32.206 8.56-1.207 11.893-3.965 18.402-24.708 45.713-41.262 76.129-46.15 55.618 0 76.919 50.096 134.903 50.096 39.24-3.851 76.584-18.761 107.686-42.997 5.017-3.684 7.952-9.553 7.889-15.777v-199.594c1.085-9.521-5.755-18.125-15.281-19.209-3.132-.356-6.307.149-9.175 1.459-26.875 20.559-58.007 34.846-91.119 41.813-57.984.788-76.918-41.813-134.903-41.813zm-163.698 39.446c-21.784 0-39.445-17.659-39.445-39.446 0-21.786 17.661-39.445 39.445-39.445 21.785 0 39.446 17.659 39.446 39.445 0 21.787-17.659 39.446-39.446 39.446zm19.724 39.445v373.941c0 10.891-8.832 19.723-19.724 19.723-10.891 0-19.722-8.832-19.722-19.723v-373.941c0-10.891 8.832-19.723 19.722-19.723s19.724 8.832 19.724 19.723z"/></svg>