<svg viewBox="0 0 512 512" xmlns="http://www.w3.org/2000/svg"><path d="m236.309 217.23v-39.384c0-21.753-17.634-39.385-39.386-39.385s-39.384 17.632-39.384 39.385v118.154zm-92.555 159.901 13.785-297.747c0-21.752 17.632-39.384 39.384-39.384s39.386 17.632 39.386 39.384-17.634 39.384-39.386 39.384-39.384-17.632-39.384-39.384z"/><path d="m512 197.538c0 21.752-17.632 39.385-39.384 39.385h-62.228c-10.469-.06-20.532 4.049-27.964 11.421l-213.463 213.465c-7.338 7.274-17.239 11.378-27.57 11.421h-102.005c-21.753 0-39.386-17.633-39.386-39.385s17.633-39.384 39.386-39.384h62.621c10.33-.044 20.232-4.148 27.569-11.422l213.464-213.463c7.432-7.374 17.495-11.482 27.964-11.422h101.612c21.752 0 39.384 17.632 39.384 39.384z"/></svg>