<svg viewBox="0 0 512 512" xmlns="http://www.w3.org/2000/svg"><path d="M 236.309 217.23 L 236.309 177.846 C 236.309 156.093 218.675 138.461 196.923 138.461 C 175.171 138.461 157.539 156.093 157.539 177.846 L 157.539 296 L 236.309 217.23 Z M 143.754 377.131 L 157.539 79.384 C 157.539 57.632 175.171 40 196.923 40 C 218.675 40 236.309 57.632 236.309 79.384 C 236.309 101.136 218.675 118.768 196.923 118.768 C 175.171 118.768 157.539 101.136 157.539 79.384 L 143.754 377.131 Z"/><path d="M 512 197.538 L 512 197.538 C 512 219.29 494.368 236.923 472.616 236.923 L 410.388 236.923 C 399.919 236.863 389.856 240.972 382.424 248.344 L 168.961 461.809 C 161.623 469.083 151.722 473.187 141.391 473.23 L 39.386 473.23 C 17.633 473.23 0 455.597 0 433.845 L 0 433.845 C 0 412.093 17.633 394.461 39.386 394.461 L 102.007 394.461 C 112.337 394.417 122.239 390.313 129.576 383.039 L 343.04 169.576 C 350.472 162.202 360.535 158.094 371.004 158.154 L 472.616 158.154 C 494.368 158.154 512 175.786 512 197.538 Z"/></svg>