<svg viewBox="0 0 512 512" xmlns="http://www.w3.org/2000/svg"><path d="m512 275.308c0 21.752-17.632 39.385-39.385 39.385h-433.23c-21.753 0-39.385-17.633-39.385-39.385 0-21.751 17.632-39.384 39.385-39.384h433.23c21.753 0 39.385 17.632 39.385 39.384zm-413.539 78.77h-59.076c0 65.255 52.897 118.152 118.154 118.152h196.924c65.255 0 118.152-52.897 118.152-118.152zm-19.692-157.539h-39.384v-78.77c0-43.504 35.265-78.769 78.769-78.769h275.692c43.505 0 78.769 35.265 78.769 78.769v78.77zm315.077-59.078c0 10.875 8.818 19.693 19.693 19.693s19.691-8.818 19.691-19.693-8.816-19.692-19.691-19.692-19.693 8.819-19.693 19.692zm-78.768-39.385c0 10.875 8.817 19.693 19.691 19.693 10.875 0 19.694-8.818 19.694-19.693 0-10.874-8.819-19.691-19.694-19.691-10.874 0-19.691 8.818-19.691 19.691zm-78.77 39.385c0 10.875 8.819 19.693 19.692 19.693s19.693-8.818 19.693-19.693-8.818-19.692-19.693-19.692-19.692 8.819-19.692 19.692zm-78.769-39.385c0 10.875 8.818 19.693 19.692 19.693 10.873 0 19.693-8.818 19.693-19.693 0-10.874-8.819-19.691-19.693-19.691-10.875 0-19.692 8.818-19.692 19.691zm-78.77 39.385c0 10.875 8.819 19.693 19.692 19.693s19.693-8.818 19.693-19.693-8.818-19.692-19.693-19.692-19.692 8.819-19.692 19.692z"/></svg>