<svg viewBox="0 0 512 512" xmlns="http://www.w3.org/2000/svg"><path d="M 512 275.308 C 512 297.06 494.368 314.693 472.615 314.693 L 39.385 314.693 C 17.632 314.693 0 297.06 0 275.308 C 0 253.557 17.632 235.924 39.385 235.924 L 472.615 235.924 C 494.368 235.924 512 253.556 512 275.308 Z M 98.461 354.078 L 39.385 354.078 C 39.385 419.333 92.282 472.23 157.539 472.23 L 354.463 472.23 C 419.718 472.23 472.615 419.333 472.615 354.078 L 98.461 354.078 Z M 78.769 196.539 L 39.385 196.539 L 39.385 117.769 C 39.385 74.265 74.65 39 118.154 39 L 393.846 39 C 437.351 39 472.615 74.265 472.615 117.769 L 472.615 196.539 L 78.769 196.539 Z M 393.846 137.461 C 393.846 148.336 402.664 157.154 413.539 157.154 C 424.414 157.154 433.23 148.336 433.23 137.461 C 433.23 126.586 424.414 117.769 413.539 117.769 C 402.664 117.769 393.846 126.588 393.846 137.461 Z M 315.078 98.076 C 315.078 108.951 323.895 117.769 334.769 117.769 C 345.644 117.769 354.463 108.951 354.463 98.076 C 354.463 87.202 345.644 78.385 334.769 78.385 C 323.895 78.385 315.078 87.203 315.078 98.076 Z M 236.308 137.461 C 236.308 148.336 245.127 157.154 256 157.154 C 266.873 157.154 275.693 148.336 275.693 137.461 C 275.693 126.586 266.875 117.769 256 117.769 C 245.125 117.769 236.308 126.588 236.308 137.461 Z M 157.539 98.076 C 157.539 108.951 166.357 117.769 177.231 117.769 C 188.104 117.769 196.924 108.951 196.924 98.076 C 196.924 87.202 188.105 78.385 177.231 78.385 C 166.356 78.385 157.539 87.203 157.539 98.076 Z M 78.769 137.461 C 78.769 148.336 87.588 157.154 98.461 157.154 C 109.334 157.154 118.154 148.336 118.154 137.461 C 118.154 126.586 109.336 117.769 98.461 117.769 C 87.586 117.769 78.769 126.588 78.769 137.461 Z"/></svg>