<svg viewBox="0 0 512 512" xmlns="http://www.w3.org/2000/svg"><path d="m512 277.667v85.333c0 11.781-9.553 21.334-21.333 21.334-11.779 0-21.334-9.553-21.334-21.334 0 0 2.56-21.332-42.667-21.332h-42.666v106.666c0 11.781-9.552 21.332-21.333 21.332h-341.334c-11.78 0-21.333-9.551-21.333-21.332v-170.667c0-11.78 9.553-21.333 21.333-21.333h341.334c11.781 0 21.333 9.553 21.333 21.333v21.334h42.666c45.227 0 42.667-21.334 42.667-21.334 0-11.78 9.553-21.333 21.334-21.333s21.333 9.553 21.333 21.333zm-426.666-192c-47.13 0-85.334 38.204-85.334 85.333 0 47.13 38.204 85.334 85.334 85.334 47.129 0 85.333-38.204 85.333-85.334 0-47.129-38.204-85.333-85.333-85.333zm0 128c-23.566 0-42.667-19.103-42.667-42.667 0-23.563 19.101-42.666 42.667-42.666 23.565 0 42.666 19.101 42.666 42.666 0 23.566-19.103 42.667-42.666 42.667zm191.999-170.667c-58.91 0-106.666 47.758-106.666 106.666 0 58.909 47.756 106.668 106.666 106.668 58.911 0 106.667-47.758 106.667-106.668s-47.756-106.666-106.667-106.666zm0 170.667c-35.344 0-63.999-28.656-63.999-64.001s28.655-63.999 63.999-63.999c35.345 0 64.001 28.654 64.001 63.999s-28.656 64.001-64.001 64.001z"/></svg>