<svg viewBox="0 0 512 512" xmlns="http://www.w3.org/2000/svg"><path d="M 512 277.667 L 512 363 C 512 374.781 502.447 384.334 490.667 384.334 C 478.888 384.334 469.333 374.781 469.333 363 C 469.333 363 471.893 341.668 426.666 341.668 L 384 341.668 L 384 448.334 C 384 460.115 374.448 469.666 362.667 469.666 L 21.333 469.666 C 9.553 469.666 0 460.115 0 448.334 L 0 277.667 C 0 265.887 9.553 256.334 21.333 256.334 L 362.667 256.334 C 374.448 256.334 384 265.887 384 277.667 L 384 299.001 L 426.666 299.001 C 471.893 299.001 469.333 277.667 469.333 277.667 C 469.333 265.887 478.886 256.334 490.667 256.334 C 502.448 256.334 512 265.887 512 277.667 Z M 85.334 85.667 C 38.204 85.667 0 123.871 0 171 C 0 218.13 38.204 256.334 85.334 256.334 C 132.463 256.334 170.667 218.13 170.667 171 C 170.667 123.871 132.463 85.667 85.334 85.667 Z M 85.334 213.667 C 61.768 213.667 42.667 194.564 42.667 171 C 42.667 147.437 61.768 128.334 85.334 128.334 C 108.899 128.334 128 147.435 128 171 C 128 194.566 108.897 213.667 85.334 213.667 Z M 277.333 43 C 218.423 43 170.667 90.758 170.667 149.666 C 170.667 208.575 218.423 256.334 277.333 256.334 C 336.244 256.334 384 208.576 384 149.666 C 384 90.756 336.244 43 277.333 43 Z M 277.333 213.667 C 241.989 213.667 213.334 185.011 213.334 149.666 C 213.334 114.321 241.989 85.667 277.333 85.667 C 312.678 85.667 341.334 114.321 341.334 149.666 C 341.334 185.011 312.678 213.667 277.333 213.667 Z"/></svg>