<svg viewBox="0 0 512 512" xmlns="http://www.w3.org/2000/svg"><path d="m472.274 276.216c0 130.075-86.061 235.785-216.137 235.785-130.075 0-216.137-105.71-216.137-235.785 88.982.749 167.778 57.637 196.489 141.864v-181.162h-98.245c-32.554 0-58.946-26.394-58.946-58.948v-117.893c0-10.849 8.799-19.648 19.648-19.648 6.186 0 12.01 2.912 15.72 7.859l60.126 78.596 64.84-117.894c5.886-9.116 18.049-11.731 27.167-5.843 2.337 1.512 4.33 3.501 5.843 5.843l64.842 117.894 60.126-78.596c6.51-8.681 18.826-10.441 27.507-3.93 4.948 3.711 7.859 9.534 7.859 15.719v117.893c0 32.554-26.392 58.948-58.946 58.948h-98.243v181.162c28.71-84.227 107.507-141.115 196.487-141.864z"/></svg>