<svg viewBox="0 0 512 512" xmlns="http://www.w3.org/2000/svg"><path d="M 472.274 276.216 C 472.274 406.291 386.213 512.001 256.137 512.001 C 126.062 512.001 40 406.291 40 276.216 C 128.982 276.965 207.778 333.853 236.489 418.08 L 236.489 236.918 L 138.244 236.918 C 105.69 236.918 79.298 210.524 79.298 177.97 L 79.298 60.077 C 79.298 49.228 88.097 40.429 98.946 40.429 C 105.132 40.429 110.956 43.341 114.666 48.288 L 174.792 126.884 L 239.632 8.99 C 245.518 -0.126 257.681 -2.741 266.799 3.147 C 269.136 4.659 271.129 6.648 272.642 8.99 L 337.484 126.884 L 397.61 48.288 C 404.12 39.607 416.436 37.847 425.117 44.358 C 430.065 48.069 432.976 53.892 432.976 60.077 L 432.976 177.97 C 432.976 210.524 406.584 236.918 374.03 236.918 L 275.787 236.918 L 275.787 418.08 C 304.497 333.853 383.294 276.965 472.274 276.216 Z"/></svg>