<svg viewBox="0 0 512 512" xmlns="http://www.w3.org/2000/svg"><path d="M 256 0 C 187.734 0 136.533 53.487 136.533 119.467 C 136.616 172.814 172.023 218.521 221.867 233.4 L 221.867 439.534 C 190.106 433.913 157.85 420.775 131.468 396.203 C 95.547 362.745 68.336 309.507 68.336 221.798 C 68.598 202.527 52.87 186.86 33.602 187.197 C 14.778 187.494 -0.259 202.974 0.001 221.798 C 0.001 324.297 34.54 399.138 84.999 446.132 C 135.459 493.127 199.267 512 256 512 C 312.853 512 376.661 492.899 427.066 445.798 C 477.47 398.697 511.932 323.815 511.932 221.798 C 514.144 174.172 441.522 174.172 443.734 221.798 C 443.734 308.941 416.437 362.254 380.468 395.865 C 354.069 420.533 321.836 433.78 290.134 439.466 L 290.134 233.534 C 339.993 218.65 375.419 172.858 375.467 119.467 C 375.467 53.487 324.267 0 256 0 Z M 256 68.267 C 284.276 68.267 307.2 91.191 307.2 119.467 C 307.2 147.743 284.276 170.667 256 170.667 C 227.724 170.667 204.8 147.743 204.8 119.467 C 204.8 91.191 227.724 68.267 256 68.267 Z"/></svg>