<svg viewBox="0 0 512 512" xmlns="http://www.w3.org/2000/svg"><path d="m136.533 85c-34.133 0-34.133 34.133 0 34.133h136.533v34.133c-9.454 0-17.067 7.612-17.067 17.067v17.067h-85.332-35.134-1.335c-7.765-30.034-34.795-51.163-65.931-51.2-37.704 0-68.267 30.562-68.267 68.267s30.563 68.265 68.267 68.265c12.705-.034 25.15-3.611 35.931-10.332l83.536 112.732c34.385 49.512 96.194 51.2 119.465 51.2h170.667s34.134 0 34.134-34.133v-33.931c0-25.003-4.302-38.636-17.067-51.401l-102.4-102.4s-20.193-17.067-43.465-17.067h-24.802v-17.067c0-9.455-7.611-17.067-17.067-17.067v-34.133h136.534c34.133 0 34.133-34.133 0-34.133zm-68.266 85.333c18.852 0 34.133 15.281 34.133 34.134s-15.281 34.133-34.133 34.133-34.134-15.281-34.134-34.133c0-18.853 15.282-34.134 34.134-34.134zm273.066 51.2c17.066 0 26.951 11.028 34.133 17.067l85.333 85.332h-119.466s-34.134 0-34.134-34.132v-34.133s0-34.134 34.134-34.134z"/></svg>