<svg viewBox="0 0 512 512" xmlns="http://www.w3.org/2000/svg"><path d="m182.983 299.102c26.113.023 51.599-8.006 72.983-22.989 16.922 11.801 36.458 19.315 56.927 21.895h16.056l-52.547 202.892c-3.948 9.272-14.666 13.586-23.939 9.634-4.336-1.847-7.787-5.298-9.634-9.634zm218.948-127.719c0 40.308-32.674 72.983-72.982 72.983-40.309 0-72.983-32.675-72.983-72.983 0 40.308-32.674 72.983-72.983 72.983-40.31 0-72.983-32.675-72.983-72.983s32.675-72.983 72.983-72.983h4.379c-14.027-37.786 5.237-79.791 43.023-93.818 37.786-14.028 79.793 5.235 93.82 43.023 6.083 16.384 6.083 34.408 0 50.792h4.744c40.308.003 72.982 32.678 72.982 72.986z"/></svg>