<svg viewBox="0 0 512 512" xmlns="http://www.w3.org/2000/svg"><path d="M 182.983 299.102 C 209.096 299.125 234.582 291.096 255.966 276.113 C 272.888 287.914 292.424 295.428 312.893 298.008 L 328.949 298.008 L 276.402 500.9 C 272.454 510.172 261.736 514.486 252.463 510.534 C 248.127 508.687 244.676 505.236 242.829 500.9 L 182.983 299.102 Z M 401.931 171.383 C 401.931 211.691 369.257 244.366 328.949 244.366 C 288.64 244.366 255.966 211.691 255.966 171.383 L 255.966 171.383 L 255.966 171.383 L 255.966 171.383 C 255.966 211.691 223.292 244.366 182.983 244.366 C 142.673 244.366 110 211.691 110 171.383 C 110 131.075 142.675 98.4 182.983 98.4 L 187.362 98.4 C 173.335 60.614 192.599 18.609 230.385 4.582 C 268.171 -9.446 310.178 9.817 324.205 47.605 C 330.288 63.989 330.288 82.013 324.205 98.397 L 328.949 98.397 C 369.257 98.4 401.931 131.075 401.931 171.383 Z"/></svg>