<svg viewBox="0 0 512 512" xmlns="http://www.w3.org/2000/svg"><path d="M 153.6 222.301 L 0 256.435 L 0 239.367 L 153.6 205.234 L 153.6 222.301 Z M 153.6 136.967 L 0 102.834 L 0 119.901 L 153.6 154.034 L 153.6 136.967 Z M 358.4 136.967 L 358.4 154.034 L 512 119.901 L 512 102.834 L 358.4 136.967 Z M 358.4 222.301 L 512 256.435 L 512 239.367 L 358.4 205.234 L 358.4 222.301 Z M 273.067 256.435 L 273.067 85.768 L 358.4 85.768 C 367.825 87.652 376.997 81.538 378.881 72.115 C 380.764 62.69 374.652 53.519 365.227 51.634 L 262.826 17.501 C 258.376 15.5 253.283 15.5 248.832 17.501 L 146.432 51.634 C 137.008 53.519 130.895 62.69 132.779 72.115 C 134.663 81.54 143.835 87.652 153.258 85.768 L 238.934 85.768 L 238.934 256.435 L 170.667 256.435 L 102.4 495.367 L 409.6 495.367 L 341.334 256.435 L 273.067 256.435 Z"/></svg>