<svg viewBox="0 0 512 512" xmlns="http://www.w3.org/2000/svg"><path d="m153.6 222.301-153.6 34.134v-17.068l153.6-34.133zm0-85.334-153.6-34.133v17.067l153.6 34.133zm204.8 0v17.067l153.6-34.133v-17.067zm0 85.334 153.6 34.134v-17.068l-153.6-34.133zm-85.333 34.134v-170.667h85.333c9.425 1.884 18.597-4.23 20.481-13.653 1.883-9.425-4.229-18.596-13.654-20.481l-102.401-34.133c-4.45-2.001-9.543-2.001-13.994 0l-102.4 34.133c-9.424 1.885-15.537 11.056-13.653 20.481s11.056 15.537 20.479 13.653h85.676v170.667h-68.267l-68.267 238.932h307.2l-68.266-238.932z"/></svg>