<svg viewBox="0 0 512 512" xmlns="http://www.w3.org/2000/svg"><path d="M 256 39 C 244.185 39 240.247 46.877 232.37 54.753 L 3.938 428.907 C 0 432.846 0 440.724 0 444.662 C 0 464.354 15.753 472.23 27.57 472.23 L 484.432 472.23 C 500.185 472.23 512 464.354 512 444.662 C 512 436.786 512 436.786 508.062 428.907 L 283.57 54.753 C 275.693 46.877 267.815 39 256 39 Z M 256 98.076 L 385.969 314.693 L 354.463 314.693 L 295.385 255.615 L 256 314.693 L 216.615 255.615 L 157.539 314.693 L 122.093 314.693 L 256 98.076 Z"/></svg>