<svg viewBox="0 0 512 512" xmlns="http://www.w3.org/2000/svg"><path d="M 366.89 362.472 C 342.542 380.037 312.847 388.596 282.883 386.685 L 213.183 386.685 L 213.183 504.074 L 143.482 504.074 L 143.482 173.915 L 287.286 173.915 C 315.902 172.396 344.087 181.402 366.524 199.227 C 387.724 219.752 398.622 248.689 396.237 278.098 C 400.06 309.251 389.224 340.418 366.89 362.472 Z M 311.863 243.615 C 301.262 235.842 288.308 231.957 275.179 232.61 L 213.183 232.61 L 213.183 329.823 L 275.179 329.823 C 288.429 330.524 301.482 326.349 311.863 318.084 C 321.251 308.272 326.05 294.944 325.069 281.4 C 326.801 267.434 321.915 253.462 311.863 243.615 Z M 510.327 144.933 C 514.509 135.814 510.583 125.025 501.522 120.722 L 256.837 7 L 10.684 120.722 C 1.466 124.977 -2.559 135.898 1.696 145.117 C 5.952 154.336 16.873 158.36 26.092 154.105 L 26.092 154.105 L 256.837 47.353 L 487.582 153.738 C 496.701 157.92 507.491 153.994 511.793 144.933 L 510.327 144.933 Z"/></svg>