<svg viewBox="0 0 512 512" xmlns="http://www.w3.org/2000/svg"><path d="m366.89 362.472c-24.348 17.565-54.043 26.124-84.007 24.213h-69.7v117.389h-69.701v-330.159h143.804c28.616-1.519 56.801 7.487 79.238 25.312 21.2 20.525 32.098 49.462 29.713 78.871 3.823 31.153-7.013 62.32-29.347 84.374zm-55.027-118.857c-10.601-7.773-23.555-11.658-36.684-11.005h-61.996v97.213h61.996c13.25.701 26.303-3.474 36.684-11.739 9.388-9.812 14.187-23.14 13.206-36.684 1.732-13.966-3.154-27.938-13.206-37.785zm198.464-98.682c4.182-9.119.256-19.908-8.805-24.211l-244.685-113.722-246.153 113.722c-9.218 4.255-13.243 15.176-8.988 24.395 4.256 9.219 15.177 13.243 24.396 8.988l230.745-106.752 230.745 106.385c9.119 4.182 19.909.256 24.211-8.805z"/></svg>