<svg viewBox="0 0 512 512" xmlns="http://www.w3.org/2000/svg"><path d="m329.037 147.328 39.021-56.16c2.183.167 4.379.167 6.563 0 25.178-.015 45.573-20.433 45.563-45.607-.015-25.176-20.433-45.576-45.609-45.561-25.175.015-45.574 20.432-45.56 45.606 0 .477.007.955.022 1.436v3.647l-91.168 96.639zm91.168 72.935v-36.468h-328.205v36.468l54.7 127.635-54.7 127.635v36.467h328.205v-36.467l-36.468-127.635zm-72.933 145.869h-72.935v72.933h-36.468v-72.933h-72.934v-36.467h72.934v-72.935h36.468v72.935h72.935z"/></svg>