<svg viewBox="0 0 512 512" xmlns="http://www.w3.org/2000/svg"><path d="M 158.154 78.769 C 136.401 78.769 118.769 61.138 118.769 39.385 C 118.769 17.632 136.401 0 158.154 0 C 179.907 0 197.539 17.632 197.539 39.385 C 197.539 61.138 179.905 78.769 158.154 78.769 Z M 453.539 354.463 L 355.078 354.463 L 315.693 236.308 L 276.308 167.385 L 315.693 157.539 L 406.278 196.924 L 406.278 196.924 C 417.151 201.276 429.494 195.982 433.846 185.107 C 438.198 174.232 432.906 161.891 422.031 157.539 L 422.031 157.539 L 315.693 118.154 L 236.924 118.154 L 158.154 157.539 L 118.769 196.924 L 59.692 196.924 C 48.818 196.924 40 205.742 40 216.615 C 40 227.488 48.818 236.308 59.692 236.308 L 158.154 236.308 L 197.539 196.924 L 236.924 275.693 L 158.154 354.463 L 158.154 492.308 C 158.154 503.182 166.973 512 177.846 512 C 188.719 512 197.539 503.182 197.539 492.308 L 197.539 369.822 L 276.308 315.078 L 315.693 393.846 L 453.539 393.846 C 464.412 393.846 473.23 385.029 473.23 374.154 C 473.23 363.279 464.412 354.463 453.539 354.463 Z"/></svg>