<svg viewBox="0 0 512 512" xmlns="http://www.w3.org/2000/svg"><path d="m158.154 78.769c-21.753 0-39.385-17.631-39.385-39.384s17.632-39.385 39.385-39.385 39.385 17.632 39.385 39.385-17.634 39.384-39.385 39.384zm295.385 275.694h-98.461l-39.385-118.155-39.385-68.923 39.385-9.846 90.585 39.385c10.873 4.352 23.216-.942 27.568-11.817s-.94-23.216-11.815-27.568l-106.338-39.385h-78.769l-78.77 39.385-39.385 39.385h-59.077c-10.874 0-19.692 8.818-19.692 19.691s8.818 19.693 19.692 19.693h98.462l39.385-39.384 39.385 78.769-78.77 78.77v137.845c0 10.874 8.819 19.692 19.692 19.692s19.693-8.818 19.693-19.692v-122.486l78.769-54.744 39.385 78.768h137.846c10.873 0 19.691-8.817 19.691-19.692s-8.818-19.691-19.691-19.691z"/></svg>