<svg viewBox="0 0 512 512" xmlns="http://www.w3.org/2000/svg"><path d="M 55.787 42.036 C 63.43 12.735 93.377 -4.822 122.678 2.819 C 151.979 10.459 169.535 40.409 161.895 69.71 C 154.575 97.786 126.648 115.294 98.188 109.659 C 68.485 103.774 49.174 74.926 55.055 45.22 C 55.268 44.153 55.512 43.088 55.787 42.036 Z M 457.867 450.33 C 461.639 470.164 448.617 489.296 428.787 493.069 C 428.731 493.08 428.68 493.09 428.626 493.098 C 413.084 496.242 397.285 489.008 389.514 475.186 L 389.514 475.186 L 328.105 352.004 L 275.104 362.604 L 267.062 365.529 L 264.869 365.529 L 264.869 444.118 L 287.531 438.633 L 292.648 438.633 C 303.143 438.831 311.492 447.498 311.294 457.996 C 311.152 465.54 306.561 472.288 299.594 475.186 L 116.83 511.739 L 116.83 511.739 C 114.771 512.087 112.674 512.087 110.615 511.739 C 100.118 511.739 91.608 503.229 91.608 492.732 C 91.608 485.06 96.221 478.137 103.305 475.186 L 103.305 475.186 L 254.999 444.848 L 254.999 365.529 L 137.299 386.728 L 137.299 386.728 C 131.305 388.275 125.017 388.275 119.023 386.728 C 106.617 383.56 96.77 374.133 93.07 361.872 L 92.34 361.872 L 55.787 213.103 L 55.787 213.103 C 54.646 207.928 54.646 202.56 55.787 197.385 C 59.208 183.24 70.692 172.475 85.029 169.97 L 85.029 169.97 L 256.827 150.963 L 256.827 0 L 264.869 0 L 264.869 149.867 L 267.062 149.867 L 275.104 149.135 L 289.725 146.212 L 297.401 146.212 C 307.171 148.562 313.213 158.358 310.926 168.142 C 309.321 176.733 301.75 182.914 293.014 182.765 L 275.104 185.688 L 267.062 185.688 L 264.869 185.688 L 264.869 290.23 L 267.062 290.23 L 275.104 288.036 L 341.264 274.878 L 341.264 274.878 L 341.264 274.878 C 356.891 273.591 371.6 282.414 377.817 296.808 L 377.817 296.808 L 450.923 440.827 L 450.923 440.827 C 453.737 443.597 456.08 446.807 457.867 450.33 Z M 256.827 187.516 L 165.446 197.385 L 192.495 304.85 L 256.827 292.423 L 256.827 187.516 Z"/></svg>