<svg viewBox="0 0 512 512" xmlns="http://www.w3.org/2000/svg"><path d="m55.787 42.036c7.643-29.301 37.59-46.858 66.891-39.217 29.301 7.64 46.857 37.59 39.217 66.891-7.32 28.076-35.247 45.584-63.707 39.949-29.703-5.885-49.014-34.733-43.133-64.439.213-1.067.457-2.132.732-3.184zm402.08 408.294c3.772 19.834-9.25 38.966-29.08 42.739-.056.011-.107.021-.161.029-15.542 3.144-31.341-4.09-39.112-17.912l-61.409-123.182-53.001 10.6-8.042 2.925h-2.193v78.589l22.662-5.485h5.117c10.495.198 18.844 8.865 18.646 19.363-.142 7.544-4.733 14.292-11.7 17.19l-182.764 36.553c-2.059.348-4.156.348-6.215 0-10.497 0-19.007-8.51-19.007-19.007 0-7.672 4.613-14.595 11.697-17.546l151.694-30.338v-79.319l-117.7 21.199c-5.994 1.547-12.282 1.547-18.276 0-12.406-3.168-22.253-12.595-25.953-24.856h-.73l-36.553-148.769c-1.141-5.175-1.141-10.543 0-15.718 3.421-14.145 14.905-24.91 29.242-27.415l171.798-19.007v-150.963h8.042v149.867h2.193l8.042-.732 14.621-2.923h7.676c9.77 2.35 15.812 12.146 13.525 21.93-1.605 8.591-9.176 14.772-17.912 14.623l-17.91 2.923h-8.042-2.193v104.542h2.193l8.042-2.194 66.16-13.158c15.627-1.287 30.336 7.536 36.553 21.93l73.106 144.019c2.814 2.77 5.157 5.98 6.944 9.503zm-201.04-262.814-91.381 9.869 27.049 107.465 64.332-12.427z"/></svg>