<svg viewBox="0 0 512 512" xmlns="http://www.w3.org/2000/svg"><path d="m187.334 0c-17.067 0-17.067 17.067-17.067 17.067v34.133c0 9.454 7.611 17.067 17.067 17.067s17.066-7.613 17.066-17.067v-17.067h34.134v68.267h-34.134s-68.267 0-68.267 68.267v102.399c0 102.4 102.401 102.4 102.401 102.4h34.133s102.399 0 102.399-102.4v-102.399c0-68.267-68.266-68.267-68.266-68.267h-34.133v-68.267h34.133v17.067c0 9.454 7.612 17.067 17.067 17.067 9.454 0 17.067-7.613 17.067-17.067v-34.133c0-17.067-17.067-17.067-17.067-17.067zm68.266 136.533 69.799 26.399 15.535 58.935c4.491 17.067-17.067 17.067-17.067 17.067h-136.533s-21.559 0-17.067-17.067l15.534-58.935zm0 136.533c9.424 0 17.067 7.642 17.067 17.067 0 9.426-7.643 17.066-17.067 17.066s-17.066-7.642-17.066-17.066 7.642-17.067 17.066-17.067zm-115.2 136.533-38.4 102.401h51.2l12.8-34.134h179.2l12.799 34.134h51.2l-38.399-102.401h-51.2l12.8 34.134h-153.6l12.8-34.134z"/></svg>