<svg viewBox="0 0 512 512" xmlns="http://www.w3.org/2000/svg"><path d="M 187.334 0 C 187.334 0 161.733 0 153.2 34.133 L 102 221.867 L 102 341.333 C 102 375.466 136.133 375.466 136.133 375.466 L 375.066 375.466 C 375.066 375.466 409.199 375.466 409.199 341.333 L 409.199 221.867 L 357.999 34.133 C 348.692 0 323.867 0 323.867 0 L 187.334 0 Z M 221.467 51.2 L 289.734 51.2 C 289.734 51.2 308.018 51.2 315.333 85.333 L 340.934 204.799 C 348.259 238.991 306.8 238.934 306.8 238.934 L 204.4 238.934 C 204.4 238.934 162.942 238.991 170.267 204.799 L 195.866 85.333 C 203.181 51.2 221.467 51.2 221.467 51.2 Z M 170.267 273.066 C 189.119 273.066 204.4 288.347 204.4 307.199 C 204.4 326.051 189.119 341.333 170.267 341.333 C 151.415 341.333 136.133 326.051 136.133 307.199 C 136.133 288.347 151.415 273.066 170.267 273.066 Z M 230 273.066 L 281.2 273.066 C 285.927 273.066 289.734 276.873 289.734 281.6 C 289.734 286.327 285.927 290.133 281.2 290.133 L 230 290.133 C 225.273 290.133 221.467 286.327 221.467 281.6 C 221.467 276.873 225.273 273.066 230 273.066 Z M 340.934 273.066 C 359.785 273.066 375.066 288.347 375.066 307.199 C 375.066 326.051 359.785 341.333 340.934 341.333 C 322.082 341.333 306.8 326.051 306.8 307.199 C 306.8 288.347 322.082 273.066 340.934 273.066 Z M 140.4 409.599 L 102 512 L 153.2 512 L 166 477.866 L 345.2 477.866 L 357.999 512 L 409.199 512 L 370.8 409.599 L 319.6 409.599 L 332.4 443.733 L 178.8 443.733 L 191.6 409.599 L 140.4 409.599 Z"/></svg>