<svg viewBox="0 0 512 512" xmlns="http://www.w3.org/2000/svg"><path d="m187.334 0s-25.601 0-34.134 34.133l-51.2 187.734v119.466c0 34.133 34.133 34.133 34.133 34.133h238.933s34.133 0 34.133-34.133v-119.466l-51.2-187.734c-9.307-34.133-34.132-34.133-34.132-34.133zm34.133 51.2h68.267s18.284 0 25.599 34.133l25.601 119.466c7.325 34.192-34.134 34.135-34.134 34.135h-102.4s-41.458.057-34.133-34.135l25.599-119.466c7.315-34.133 25.601-34.133 25.601-34.133zm-51.2 221.866c18.852 0 34.133 15.281 34.133 34.133s-15.281 34.134-34.133 34.134-34.134-15.282-34.134-34.134 15.282-34.133 34.134-34.133zm59.733 0h51.2c4.727 0 8.534 3.807 8.534 8.534s-3.807 8.533-8.534 8.533h-51.2c-4.727 0-8.533-3.806-8.533-8.533s3.806-8.534 8.533-8.534zm110.934 0c18.851 0 34.132 15.281 34.132 34.133s-15.281 34.134-34.132 34.134c-18.852 0-34.134-15.282-34.134-34.134s15.282-34.133 34.134-34.133zm-200.534 136.533-38.4 102.401h51.2l12.8-34.134h179.2l12.799 34.134h51.2l-38.399-102.401h-51.2l12.8 34.134h-153.6l12.8-34.134z"/></svg>