<svg viewBox="0 0 512 512" xmlns="http://www.w3.org/2000/svg"><path d="M 393.462 472.615 L 393.462 433.231 L 472.231 433.231 L 472.231 393.846 L 334.385 393.846 L 334.385 354.462 L 472.231 354.462 L 472.231 315.077 L 393.462 315.077 L 393.462 275.692 L 472.231 275.692 L 472.231 236.308 L 393.462 236.308 L 393.462 196.923 L 472.231 196.923 L 472.231 157.538 L 334.385 157.538 L 334.385 118.154 L 472.231 118.154 L 472.231 78.769 L 393.462 78.769 L 393.462 39.385 L 472.231 39.385 L 472.231 0 L 275.308 0 L 275.308 512 L 472.231 512 L 472.231 472.615 L 393.462 472.615 Z M 196.538 393.846 L 39 393.846 L 39 0 L 196.538 0 L 196.538 393.846 Z M 196.538 433.231 L 117.769 512 L 39 433.231 L 196.538 433.231 Z"/></svg>