<svg viewBox="0 0 512 512" xmlns="http://www.w3.org/2000/svg"><path d="m358.451 50.827c0 28.071-22.757 50.828-50.827 50.828s-50.827-22.757-50.827-50.828c0-28.072 22.757-50.827 50.827-50.827s50.827 22.757 50.827 50.827zm0 321.906c-18.714 0-33.884 15.171-33.884 33.885s15.17 33.885 33.884 33.885 33.885-15.17 33.885-33.885-15.17-33.885-33.885-33.885zm62.348-166.374-64.719-64.721c-3.054-3.811-7.655-6.051-12.538-6.098h-239.228c-9.354 0-16.941 7.587-16.941 16.942 0 9.354 7.587 16.943 16.941 16.943h91.49l-108.431 213.475c-.469 2.236-.469 4.54 0 6.776-1.966 9.357 4.029 18.535 13.384 20.5 9.356 1.967 18.535-4.028 20.501-13.384l33.885-57.942h67.769l-65.398 143.671c-1.599 2.656-2.419 5.71-2.371 8.81-1.871 9.355 4.198 18.461 13.553 20.33 9.356 1.871 18.461-4.197 20.332-13.553l159.258-317.84 48.795 50.149c7.149 6.038 17.837 5.138 23.875-2.009 5.391-6.384 5.326-15.743-.157-22.049z"/></svg>