<svg viewBox="0 0 512 512" xmlns="http://www.w3.org/2000/svg"><path d="M 358.451 50.827 C 358.451 78.898 335.694 101.655 307.624 101.655 C 279.554 101.655 256.797 78.898 256.797 50.827 C 256.797 22.755 279.554 0 307.624 0 C 335.694 0 358.451 22.757 358.451 50.827 Z M 358.451 372.733 C 339.737 372.733 324.567 387.904 324.567 406.618 C 324.567 425.332 339.737 440.503 358.451 440.503 C 377.165 440.503 392.336 425.333 392.336 406.618 C 392.336 387.903 377.166 372.733 358.451 372.733 Z M 420.799 206.359 L 356.08 141.638 L 356.08 141.638 C 353.026 137.827 348.425 135.587 343.542 135.54 L 104.314 135.54 C 94.96 135.54 87.373 143.127 87.373 152.482 C 87.373 161.836 94.96 169.425 104.314 169.425 L 195.804 169.425 L 87.373 382.9 L 87.373 382.9 C 86.904 385.136 86.904 387.44 87.373 389.676 C 85.407 399.033 91.402 408.211 100.757 410.176 C 110.113 412.143 119.292 406.148 121.258 396.792 L 121.258 396.792 L 155.143 338.85 L 222.912 338.85 L 157.514 482.521 L 157.514 482.521 C 155.915 485.177 155.095 488.231 155.143 491.331 C 153.272 500.686 159.341 509.792 168.696 511.661 C 178.052 513.532 187.157 507.464 189.028 498.108 L 189.028 498.108 L 348.286 180.268 L 397.081 230.417 C 404.23 236.455 414.918 235.555 420.956 228.408 C 426.347 222.024 426.282 212.665 420.799 206.359 Z"/></svg>