<svg viewBox="0 0 512 512" xmlns="http://www.w3.org/2000/svg"><path d="M 256.172 94.984 L 293.954 189.616 L 302.782 211.862 L 408.713 211.862 L 338.092 273.655 L 320.436 289.192 L 328.558 311.436 L 363.869 421.958 L 276.298 359.459 L 256.172 345.335 L 236.045 359.459 L 147.063 421.958 L 182.373 311.436 L 189.788 289.192 L 172.134 273.655 L 101.513 211.862 L 207.444 211.862 L 216.272 189.616 L 256.172 94.984 M 256.172 0 L 185.552 176.552 L 9 176.552 L 150.241 300.137 L 79.62 512 L 256.172 388.414 L 432.723 512 L 362.102 300.137 L 503.344 176.552 L 326.793 176.552 L 256.172 0 L 256.172 0 Z"/></svg>