<svg viewBox="0 0 512 512" xmlns="http://www.w3.org/2000/svg"><path d="M 117.746 512 L 472.103 512 L 472.103 393.88 L 176.805 393.88 C 165.935 393.88 157.119 385.065 157.119 374.195 L 157.119 275.761 L 39 275.761 L 39 433.254 C 39 476.745 74.255 512 117.746 512 Z M 153.182 81.258 L 153.182 81.258 L 153.182 81.258 L 153.182 81.258 L 98.059 197.015 L 43.331 81.652 C 41.106 74.344 39.654 66.82 39 59.209 C 38.917 26.593 65.292 0.083 97.91 0 C 130.526 -0.082 157.037 26.289 157.119 58.911 C 157.139 66.572 155.666 74.16 152.788 81.258 L 153.182 81.258 Z" transform="matrix(-1, 0, 0, -1, 511.102791, 511.999802)"/></svg>