<svg viewBox="0 0 512 512" xmlns="http://www.w3.org/2000/svg"><path d="m211.696 151.564c0 31.463-25.509 56.972-56.972 56.972s-56.97-25.509-56.97-56.972 25.507-56.97 56.97-56.97 56.972 25.507 56.972 56.97zm242.314 20.89-59.629-60.389c13.783-29.496 5.985-64.574-18.989-85.456-15.296-16.134-36.28-25.671-58.491-26.587-12.838-.387-25.291 4.402-34.563 13.294-21.178 29.579-15.321 70.587 13.295 93.052 15.294 16.134 36.277 25.671 58.488 26.587 9.313-.134 18.398-2.9 26.207-7.976l59.249 60.388c1.516 2.783 4.426 4.531 7.598 4.558 5.245 0 9.495-4.25 9.495-9.495.467-2.932-.529-5.91-2.66-7.976zm-78.618-66.466c-5.789 5.279-13.45 8.014-21.271 7.595-16.794-.473-32.796-7.253-44.816-18.989-20.631-15.421-26.359-43.891-13.294-66.086 5.34-5.982 12.875-9.545 20.89-9.875 17.782.589 34.596 8.245 46.715 21.268 20.111 15.857 25.171 44.259 11.776 66.087zm20.508 88.875c-7.387-7.45-19.407-7.498-26.856-.111-.038.038-.072.072-.109.111l-51.275 51.653h-186.104c-8.656.095-16.152 6.027-18.23 14.432l-30.005 118.119-27.346 109.005c-3.277 9.852 1.968 20.513 11.774 23.928h6.077c8.093-.061 15.26-5.245 17.851-12.914l30.385-121.157h51.653v113.941c0 10.486 8.504 18.99 18.989 18.99 10.486 0 18.992-8.504 18.992-18.99v-113.941l37.98-93.432h83.936l62.668-62.669c7.133-7.485 6.967-19.305-.38-26.587z"/></svg>