<svg viewBox="0 0 512 512" xmlns="http://www.w3.org/2000/svg"><path d="m487.754 180.018c-2.969.012-5.899-.655-8.574-1.95l-225.276-114.975-225.277 114.197c-10.008 4.736-21.961.46-26.696-9.55-4.736-10.01-.46-21.961 9.549-26.698l242.424-120.042 242.426 120.042c10.76 2.371 17.57 13.014 15.199 23.775-2.369 10.762-13.013 17.57-23.775 15.201zm-331.287 194.876h-116.926v116.925h116.926zm155.899 0h-116.925v116.925h116.925zm155.902 0h-116.926v116.925h116.926zm-77.951-155.901h-116.925v116.925h116.925zm-155.9 0h-116.926v116.925h116.926z"/></svg>