<svg viewBox="0 0 512 512" xmlns="http://www.w3.org/2000/svg"><path d="m257.001 71.253c-141.018-.114-255.73 82.632-255.73 184.526-.114 101.817 114.56 184.855 255.44 184.968 140.955.152 255.667-82.625 255.667-184.456.115-101.957-114.491-184.924-255.377-185.038zm-94.235 100.71c4.128-3.844 10.51-3.621 14.362.539 10.294 11.136 24.301 17.314 39.553 17.314 13.161 0 25.295-4.516 35.078-13.254l6.735-5.932 6.665 5.932c9.916 8.738 22.222 13.299 35.603 13.299 13.962.044 26.876-4.907 36.341-13.913 3.985-3.871 10.41-3.762 14.255.266 3.939 4.084 3.782 10.535-.286 14.361-13.19 12.654-31.08 19.629-50.31 19.629-15.272 0-29.969-4.642-42.268-13.116-12.204 8.582-26.541 13.032-41.813 13.032-20.987 0-40.332-8.472-54.516-23.832-3.737-4.168-3.491-10.611.601-14.325zm232.162 123.099c-13.33 13.335-31.587 20.634-51.418 20.596-15.878 0-30.91-4.857-43.368-13.849-12.236 9.004-27.299 13.81-43.35 13.81-15.315-.043-29.986-4.66-42.241-13.134-12.206 8.576-26.592 13.034-41.864 13.034-20.962 0-40.256-8.524-54.486-23.841-3.78-4.104-3.514-10.535.62-14.38 4.138-3.788 10.498-3.49 14.388.652 10.269 11.091 24.345 17.269 39.549 17.269 13.115 0 25.3-4.59 35.039-13.259l6.754-6.002 6.753 6.002c9.783 8.669 22.007 13.304 35.527 13.336 14.007 0 26.882-4.952 36.235-13.956l6.918-6.718 7.039 6.635c9.858 9.208 22.486 14.096 36.493 14.096 14.159 0 27.774-5.249 37.101-14.672 4.048-3.977 10.44-3.907 14.405 0 3.953 3.997 3.89 10.428-.094 14.381z"/></svg>