<?xml version="1.0" encoding="iso-8859-1"?>
<!-- Generator: Adobe Illustrator 18.1.1, SVG Export Plug-In . SVG Version: 6.00 Build 0)  -->
<svg version="1.1" id="Capa_1" xmlns="http://www.w3.org/2000/svg" xmlns:xlink="http://www.w3.org/1999/xlink" x="0px" y="0px"
	 viewBox="0 0 348.471 348.471" style="enable-background:new 0 0 348.471 348.471;" xml:space="preserve">
<g>
	<g>
		<path style="fill:#010002;" d="M251.038,9.478c-9.117,18.324-18.933,36.207-28.82,54.042H0l157.525,169.99v89.097H98.656v21.2
			h58.869h33.42h61.853v-21.206h-61.853v-89.097L348.471,63.52H243.037c8.061-14.613,16.003-29.297,23.462-44.292
			C271.952,8.255,256.498-1.501,251.038,9.478z M184.472,214.153l-10.233,11.045l-10.233-11.045L40.992,81.414h171.327
			c-3.097,5.591-6.194,11.182-9.249,16.803H76.776l97.457,105.166l97.463-105.166h-47.89c3.091-5.609,6.206-11.206,9.32-16.803
			h74.359L184.472,214.153z"/>
	</g>
</g>
<g>
</g>
<g>
</g>
<g>
</g>
<g>
</g>
<g>
</g>
<g>
</g>
<g>
</g>
<g>
</g>
<g>
</g>
<g>
</g>
<g>
</g>
<g>
</g>
<g>
</g>
<g>
</g>
<g>
</g>
</svg>
