<svg xmlns="http://www.w3.org/2000/svg" xmlns:xlink="http://www.w3.org/1999/xlink" version="1.1" x="0px" y="0px" width="100px" height="100px" viewBox="0 0 100 100" enable-background="new 0 0 100 100" xml:space="preserve">
<g id="Captions">
</g>
<g id="Your_Icon">
	<path fill-rule="evenodd" clip-rule="evenodd" fill="#000000" d="M63.609,60.441h0.138v-0.146c0-7.575-6.098-13.743-13.674-13.82   h-0.146c-7.63,0-13.824,6.191-13.824,13.82c0,0.054,0.003,0.1,0.003,0.146l-0.003,9.724H0v-22.28l9.027-0.134   c7.029,0,13.736-2.975,18.467-8.166l0.008,0.134c5.773-6.297,13.904-9.885,22.426-9.885c8.521,0,16.652,3.587,22.426,9.885   l0.153-0.134c4.731,5.191,11.431,8.166,18.463,8.166l9.03,0.134v22.28H63.889L63.609,60.441z"/>
</g>
</svg>