<svg xmlns:dc="http://purl.org/dc/elements/1.1/" xmlns:cc="http://creativecommons.org/ns#" xmlns:rdf="http://www.w3.org/1999/02/22-rdf-syntax-ns#" xmlns:svg="http://www.w3.org/2000/svg" xmlns="http://www.w3.org/2000/svg" xmlns:xlink="http://www.w3.org/1999/xlink" xmlns:sodipodi="http://sodipodi.sourceforge.net/DTD/sodipodi-0.dtd" xmlns:inkscape="http://www.inkscape.org/namespaces/inkscape" sodipodi:docname="start.svg.2013_02_16_19_26_34.0.svg" inkscape:version="0.48.2 r9819" version="1.1" id="svg2" height="64px" width="64px" data-tags="start" viewBox="0 0 64 64" style="margin-left: 8px; margin-top: 8px;">












  <path d="M0.00,0.00L 64.00,0.00L 64.00,24.00L0.00,24.00zM0.00,24.00L 4.00,24.00L 4.00,56.00L0.00,56.00zM 60.00,24.00L 64.00,24.00L 64.00,56.00L 60.00,56.00zM 16.00,64.00  m0.00,0.00, 32.00,0.00 -8.00-12.00 -16.00,0.00 zM 24.00,48.00  m0.00,0.00, 16.00,0.00 -4.00-8.00 -8.00,0.00 zM 28.00,36.00  m0.00,0.00, 8.00,0.00 -4.00-8.00 0.00,0.00 zM 8.184,4.364  m0.00,0.00,c -1.672,0.00 -3.064,0.38 -4.156,1.204 -1.084,0.824 -1.688,2.132 -1.688,3.488 0.00,1.164 0.452,2.264 1.30,3.008 0.844,0.744 2.004,1.168 3.508,1.444 l 1.168,0.12 c 0.848,0.156 1.244,0.444 1.428,0.60 l 0.128,0.00 c 0.192,0.164 0.26,0.292 0.26,0.72 0.00,0.48 -0.188,0.74 -0.52,0.964 -0.336,0.224 -0.888,0.36 -1.82,0.36 -0.596,0.00 -1.18-0.064 -1.82-0.24 -0.644-0.176 -1.38-0.48 -2.08-0.84 l -1.56-0.84 0.00,1.684 0.00,1.804 0.00,0.60 0.78,0.24 c 0.832,0.284 1.548,0.572 2.34,0.72 0.796,0.148 1.608,0.24 2.34,0.24 1.872,0.00 3.396-0.38 4.548-1.204 1.156-0.82 1.82-2.152 1.82-3.608 0.00-1.228 -0.428-2.32 -1.30-3.128 -0.868-0.82 -2.116-1.296 -3.636-1.564 l -1.168-0.24 c -0.948-0.164 -1.468-0.412 -1.56-0.48 -0.112-0.092 -0.26-0.108 -0.26-0.48 0.00-0.432 0.088-0.64 0.388-0.84 0.312-0.204 0.936-0.36 1.82-0.36 0.488,0.00 1.008,0.104 1.56,0.24 0.552,0.136 1.156,0.308 1.82,0.60 l 1.428,0.60 0.00-1.20 0.78,0.00 3.896,0.00 0.00,10.464 0.00,0.964 1.04,0.00 1.948,0.00 1.04,0.00 0.00-0.964 0.00-10.464 3.768,0.00 1.04,0.00 0.00-0.964 0.00-1.444 0.00-0.96 -1.04,0.00 -11.692,0.00 -0.988,0.112 -0.048,0.14 0.00,1.188 0.00-0.812 -0.388-0.148 c -0.748-0.232 -1.48-0.364 -2.208-0.48 -0.728-0.116 -1.50-0.24 -2.208-0.24 z m 21.436,0.24 -0.668,0.104 -0.244,0.496 -5.328,12.868 -0.52,1.324 1.56,0.00 1.948,0.00 0.78,0.00 0.128-0.72 1.04-2.644 4.808,0.00 1.04,2.644 0.26,0.72 0.648,0.00 1.948,0.00 1.04,0.00 0.52,0.00 0.52,0.00 1.82,0.00 1.04,0.00 0.00-0.964 0.00-4.452 1.04,0.00 c 0.60,0.00 0.976,0.112 1.168,0.24 0.164,0.108 0.492,0.536 0.908,1.324 l 1.82,3.248 0.26,0.60 0.648,0.00 1.948,0.00 1.688,0.00 -0.648-1.444 -1.948-3.488 c -0.408-0.768 -0.832-1.424 -1.30-1.924 -0.068-0.072 -0.188-0.052 -0.26-0.12 0.296-0.216 0.692-0.316 0.908-0.60 0.552-0.716 0.78-1.572 0.78-2.524 0.00-0.548 -0.288-0.84 -0.436-1.324 l 0.436,0.00 3.896,0.00 0.00,10.464 0.00,0.964 1.04,0.00 1.82,0.00 1.04,0.00 0.00-0.964 0.00-10.464 3.896,0.00 1.04,0.00 0.00-0.964 0.00-1.444 0.00-0.96 -1.04,0.00 -11.692,0.00 -0.92,0.00 -0.12,0.956 0.072,1.16 c -0.232-0.372 -0.232-0.64 -0.592-0.92 -1.04-0.82 -2.432-1.204 -4.156-1.204 l -4.156,0.00 -1.04,0.00 0.00,0.96 0.00,12.508 -5.328-12.868 -0.26-0.60 -0.648,0.00 z m 12.344,3.368 1.30,0.00 c 0.74,0.00 1.096,0.188 1.30,0.36 0.208,0.168 0.388,0.40 0.388,0.964 0.00,0.564 -0.172,0.78 -0.388,0.96 -0.204,0.172 -0.556,0.36 -1.30,0.36 l -1.30,0.00 0.00-2.644 z m -11.304,2.044 1.168,2.644 -2.208,0.00 z m 14.812,1.804 0.128,0.60 -0.128,0.36 c -0.044-0.04 -0.084-0.092 -0.128-0.12 -0.368-0.24 -0.852-0.268 -1.30-0.36 0.524-0.076 1.008-0.236 1.428-0.48 z"></path></svg>