<svg xmlns="http://www.w3.org/2000/svg" xmlns:xlink="http://www.w3.org/1999/xlink" version="1.1" x="0px" y="0px" width="100px" height="100px" viewBox="0 0 100 100" enable-background="new 0 0 100 100" xml:space="preserve">
<g id="Captions">
</g>
<g id="Your_Icon">
	<path fill-rule="evenodd" clip-rule="evenodd" d="M50,0C22.398,0,0,22.399,0,50s22.398,50,50,50s50-22.399,50-50S77.602,0,50,0z    M15.08,58.946c-3.917-14.414,1.398-29.13,12.306-37.932l-8.952-0.428l7.669-7.058l14.815,0.709l-0.706,14.726l-7.672,7.057   l0.44-10.51c-9.62,6.944-14.468,19.433-11.195,31.584L15.08,58.946z M37.007,83.493l4.178,8.081l-9.879-3.176l-6.877-13.052   l13.138-6.88l9.965,3.178l-9.374,4.843c10.825,4.87,24.105,2.833,33.094-6.078l4.942,4.938   C65.582,85.884,50.105,88.613,37.007,83.493z M73.103,51.01l-2.291-10.143l8.881,5.608c-1.229-11.819-9.591-22.262-21.755-25.535   l1.762-6.702c14.411,3.84,24.48,15.791,26.64,29.628l4.841-7.582l2.295,10.228l-7.938,12.435L73.103,51.01z"/>
</g>
</svg>