<svg xmlns="http://www.w3.org/2000/svg" xmlns:xlink="http://www.w3.org/1999/xlink" version="1.1" id="Layer_1" x="0px" y="0px" width="100px" height="100px" viewBox="0 0 100 100" enable-background="new 0 0 100 100" xml:space="preserve">
<path d="M69.707,52.598L75.01,47.3l5.303,5.298L95,37.915l-9.844-9.839l0,0c-3.652,3.652-9.58,3.652-13.232,0  c-3.652-3.657-3.652-9.58,0-13.232l0,0L62.08,5L47.405,19.678l5.3,5.313l-5.3,5.303l-5.303-5.303L5,62.09l9.844,9.844l0,0  c3.652-3.657,9.575-3.657,13.228,0c3.65,3.652,3.65,9.57,0,13.232L37.913,95L75.01,57.905L69.707,52.598z M51.301,34.199  l5.301-5.308l5.303,5.308l-5.303,5.303L51.301,34.199z M60.508,43.398l5.303-5.303l5.303,5.303l-5.303,5.303L60.508,43.398z"/>
</svg>