<?xml version="1.0" encoding="utf-8"?>
<!-- Generator: Adobe Illustrator 15.1.0, SVG Export Plug-In . SVG Version: 6.00 Build 0)  -->
<!DOCTYPE svg PUBLIC "-//W3C//DTD SVG 1.1//EN" "http://www.w3.org/Graphics/SVG/1.1/DTD/svg11.dtd">
<svg version="1.1"
	 id="svg2876" sodipodi:docname="slide_rule.svg" xmlns:inkscape="http://www.inkscape.org/namespaces/inkscape" xmlns:sodipodi="http://sodipodi.sourceforge.net/DTD/sodipodi-0.dtd" xmlns:dc="http://purl.org/dc/elements/1.1/" inkscape:version="0.48.2 r9819" xmlns:svg="http://www.w3.org/2000/svg" xmlns:cc="http://creativecommons.org/ns#" xmlns:rdf="http://www.w3.org/1999/02/22-rdf-syntax-ns#"
	 xmlns="http://www.w3.org/2000/svg" xmlns:xlink="http://www.w3.org/1999/xlink" x="0px" y="0px" width="100px" height="68px"
	 viewBox="0 14 100 68" enable-background="new 0 14 100 68" xml:space="preserve">
<sodipodi:namedview  inkscape:zoom="2.6641777" bordercolor="#666666" id="namedview2888" inkscape:pageopacity="0" inkscape:window-height="738" objecttolerance="10" inkscape:pageshadow="2" guidetolerance="10" pagecolor="#ffffff" inkscape:window-y="-8" inkscape:cx="61.286872" showgrid="false" inkscape:window-width="1280" gridtolerance="10" borderopacity="1" inkscape:window-maximized="1" inkscape:cy="46.023245" inkscape:current-layer="g3015" inkscape:window-x="-8">
	</sodipodi:namedview>
<defs>
	
	
		<inkscape:perspective  id="perspective2892" inkscape:vp_x="0 : 44.29134 : 1" sodipodi:type="inkscape:persp3d" inkscape:persp3d-origin="44.29134 : 29.52756 : 1" inkscape:vp_z="88.58268 : 44.29134 : 1" inkscape:vp_y="0 : 1000 : 0">
		</inkscape:perspective>
	
		<inkscape:perspective  id="perspective3682" inkscape:vp_x="0 : 50 : 1" sodipodi:type="inkscape:persp3d" inkscape:persp3d-origin="45 : 33.333333 : 1" inkscape:vp_z="90 : 50 : 1" inkscape:vp_y="0 : 1000 : 0">
		</inkscape:perspective>
	
		<inkscape:perspective  id="perspective3743" inkscape:vp_x="0 : 44.29134 : 1" sodipodi:type="inkscape:persp3d" inkscape:persp3d-origin="44.29134 : 29.52756 : 1" inkscape:vp_z="88.58268 : 44.29134 : 1" inkscape:vp_y="0 : 1000 : 0">
		</inkscape:perspective>
	
		<inkscape:perspective  id="perspective3769" inkscape:vp_x="0 : 44.29134 : 1" sodipodi:type="inkscape:persp3d" inkscape:persp3d-origin="44.29134 : 29.52756 : 1" inkscape:vp_z="88.58268 : 44.29134 : 1" inkscape:vp_y="0 : 1000 : 0">
		</inkscape:perspective>
</defs>
<path id="path3174" inkscape:connector-curvature="0" d="M96.119,82c-2,0-3.947-0.464-5.674-1.242
	c-1.765-0.831-3.764-1.309-5.852-1.309c-2.072,0-4.07,0.478-5.835,1.309C77.01,81.537,75.085,82,73.062,82
	c-1.999,0-3.953-0.464-5.673-1.242c-1.771-0.831-3.771-1.309-5.858-1.309c-2.065,0-4.063,0.478-5.836,1.309
	C53.954,81.537,52.021,82,50,82c-2.021,0-3.946-0.464-5.673-1.242c-1.771-0.831-3.771-1.309-5.851-1.309
	c-2.087,0-4.086,0.478-5.85,1.309C30.898,81.537,28.959,82,26.937,82c-2.006,0-3.946-0.464-5.681-1.242
	c-1.771-0.831-3.771-1.309-5.851-1.309c-2.072,0-4.071,0.478-5.843,1.309C7.828,81.537,5.902,82,3.881,82v-8.525
	c2.021,0,3.947-0.456,5.681-1.243c1.771-0.801,3.771-1.278,5.843-1.278c2.08,0,4.079,0.479,5.851,1.278
	c1.735,0.788,3.675,1.243,5.681,1.243c2.02,0,3.962-0.456,5.688-1.243c1.764-0.801,3.763-1.278,5.85-1.278
	c2.08,0,4.079,0.479,5.851,1.278c1.728,0.788,3.653,1.243,5.673,1.243c2.021,0,3.954-0.456,5.696-1.243
	c1.772-0.801,3.771-1.278,5.836-1.278c2.088,0,4.087,0.479,5.858,1.278c1.72,0.788,3.674,1.243,5.673,1.243
	c2.021,0,3.947-0.456,5.696-1.243c1.765-0.801,3.763-1.278,5.835-1.278c2.088,0,4.087,0.479,5.852,1.278
	c1.727,0.788,3.674,1.243,5.674,1.243V82z"/>
<path id="path3172" inkscape:connector-curvature="0" d="M52.823,29.556H60V14l-3.587,3.452L52.823,14V29.556L52.823,29.556z"/>
<path id="path3170" inkscape:connector-curvature="0" d="M31.007,45.257l-3.056,1.285l0.868,2.118
	c-4.091,2.082-7.236,5.344-9.201,9.202L17.5,56.993l-1.285,3.056l2.118,0.902c-0.593,1.825-0.962,3.72-1.042,5.66
	c1.123,0.118,2.25,0.341,3.333,0.659c0.019-1.725,0.297-3.443,0.799-5.069l12.048,5c1.628-0.459,3.305-0.694,5-0.694
	c1.665,0,3.328,0.251,4.931,0.694l11.979-5c0.521,1.685,0.786,3.409,0.799,5.104c1.083-0.328,2.209-0.567,3.333-0.694
	c-0.073-1.896-0.43-3.78-1.041-5.66l2.117-0.902l-1.25-3.056l-2.117,0.868c-2.082-4.091-5.378-7.236-9.236-9.202l0.902-2.118
	l-3.09-1.285l-0.868,2.118c-4.117-1.338-8.691-1.421-13.056,0L31.007,45.257z M38.472,49.667c1.763,0.008,3.513,0.286,5.174,0.799
	l-5.243,12.639L33.16,50.465C34.914,49.923,36.709,49.659,38.472,49.667L38.472,49.667z M30.104,51.75l5.208,12.604l-12.604-5.209
	C24.332,56.073,26.855,53.465,30.104,51.75z M46.701,51.75c3.073,1.623,5.717,4.147,7.431,7.396l-12.639,5.209L46.701,51.75z"/>
<path id="path3162" inkscape:connector-curvature="0" d="M90.007,67.325L100,54H62.899l3.507,8.466l-2.734,1.133
	c0.156,1.021,0.25,2.046,0.28,3.073c1.818,0.243,3.601,0.758,5.282,1.517c1.188,0.545,2.521,0.841,3.828,0.841
	c1.343,0,2.648-0.3,3.862-0.845c2.404-1.093,5.028-1.676,7.669-1.676C86.429,66.509,88.255,66.789,90.007,67.325L90.007,67.325z"/>
<path id="path3160" inkscape:connector-curvature="0" d="M13.911,54H0l9.997,13.327c0.936-0.286,1.893-0.5,2.861-0.638
	c0.031-1.033,0.125-2.064,0.283-3.088l-2.738-1.136L13.911,54L13.911,54z"/>
<path id="path3139" inkscape:connector-curvature="0" d="M77.777,49.556H56.653c-0.959-0.979-1.998-1.879-3.106-2.693l1.134-2.736
	l-10.236-4.241V34h33.333V49.556L77.777,49.556z"/>
</svg>
