<svg xmlns="http://www.w3.org/2000/svg" xmlns:xlink="http://www.w3.org/1999/xlink" version="1.1" id="Your_Icon" x="0px" y="0px" width="100px" height="100px" viewBox="0 0 100 100" enable-background="new 0 0 100 100" xml:space="preserve">
<path fill="#000000" d="M72.555,45.381c-0.227-0.639-2.034-2.638-5.478-6.415c-5.439-5.967-13.662-14.985-13.662-17.611  c0-3.357,2.079-5.913,2.099-5.938l0.138-0.165l-0.112-0.182c0,0-6.43-10.467-8.073-13.157C46.658,0.591,43.911,0,41.55,0  c-2.966,0-5.527,0.823-6.855,2.201c-0.767,0.8-1.133,1.764-1.09,2.869c0.037,0.975,0.132,3.162,0.26,6.151  c0.622,14.543,2.08,48.597,1.834,53.179c-0.125,2.287-1.538,5.613-3.176,9.46c-2.299,5.409-4.906,11.538-5.197,17.453  c-0.308,6.229,6.111,8.646,6.175,8.668L33.605,100c15.037,0,24.247-3.871,24.338-3.911l0.281-0.12L58.1,95.69  c-3.653-8.033,0.015-11.704,1.582-13.27c0.748-0.749,2.002-1.161,3.214-1.56c1.358-0.444,2.643-0.867,3.175-1.759  c0.768-1.287,0.356-3.685-0.12-6.461c-0.319-1.862-0.649-3.785-0.649-5.534c0-4.199,1.444-6.856,1.459-6.884l0.154-0.279  l-1.174-0.553l1.629-1.629l-0.211-0.212c-1.23-1.229-1.413-3.665-1.44-4.329C68.766,51.446,73.535,48.147,72.555,45.381z   M47.084,25.02c-0.122,0.009-0.234,0.029-0.367,0.029c-0.835,0-1.657-0.223-2.1-0.364c0.715-1.112,1.542-1.72,2.353-1.72  c0.066,0,0.133,0.005,0.199,0.015c-0.176,0.258-0.284,0.64-0.284,1.092C46.885,24.445,46.959,24.77,47.084,25.02z M48.577,24.436  c0.017-0.115,0.027-0.236,0.027-0.364c0-0.092-0.006-0.181-0.014-0.268c0.093,0.102,0.186,0.207,0.275,0.325  C48.784,24.246,48.681,24.341,48.577,24.436z"/>
</svg>