<?xml version="1.0" standalone="no"?> 
<!DOCTYPE svg PUBLIC "-//W3C//DTD SVG 1.1//EN" "http://www.w3.org/Graphics/SVG/1.1/DTD/svg11.dtd" >
<svg xmlns="http://www.w3.org/2000/svg">
<defs>
  <font id="furkot" horiz-adv-x="544">
    <font-face font-family="furkot"
      units-per-em="512" ascent="512"
      descent="0" />
    <missing-glyph horiz-adv-x="0" />
    <glyph glyph-name="bypass"
      unicode="&#xE000;"
      horiz-adv-x="512" d=" M160 320M160 320L160 320L160 320L160 285.6L178.4 243.2L225.6 221.6L320 224L320 160L224 160L176.8 143.1999999999999L160 95.9999999999999L160 3.1999999999999L160 -1e-13L200 -1e-13L256 -1e-13L256 63.9999999999999L352 63.9999999999999L402.4 75.9999999999999L416 127.9999999999999L416 255.9999999999999L400.8 302.3999999999999L352 319.9999999999999L256 319.9999999999999L208.8 383.1999999999999L207.2 383.9999999999999zM64 352M64 352L160 352L208 416L256 352L352 352L208 512z" />
    <glyph glyph-name="calendar-warning"
      unicode="&#xE001;"
      horiz-adv-x="512" d=" M448 448M448 448C432 448 416 448 400 448C400.89593 431.769967 400.1342200000001 412.004995 383.24064 403.86789C361.60688 390.81169 332.22486 411.39848 336 436.081976C339.01562 447.605803 332.69984 449.798221 322.39341 448C273.59561 448 224.7978 448 176 448C176.89593 431.769967 176.13422 412.004995 159.24064 403.86789C137.60688 390.81169 108.22486 411.39848 112 436.081976C115.01562 447.605803 108.69984 449.798221 98.393413 448C79.286529 446.3515300000001 56.797257 453.367824 41.4 438.6C26.689067 423.339482 33.619596 400.96449 32 381.98353C32.11051 274.90384 31.778869 167.81289 32.166016 60.74023C33.621576 40.32054 54.839274 29.13125 73.524611 32C199.43492 32.11069 325.3565 31.77863 451.25977 32.16602C471.67946 33.62158 482.86875 54.83927 480 73.52461C479.88947 188.76826 480.22116 304.02316 479.83398 419.259766C478.47471 435.144057 463.9588 448.291567 448 448zM448 64.058C320.05616 63.9613 191.94335 63.9613 64 64.058C64 160.03867 64 256.01933 64 352C192 352 320 352 448 352C448 256.01933 448 160.03867 448 64.058zM144 416C160.84828 416.080507 160.80389 434.689581 160 446.967246C159.26963 465.346672 161.52971 484.106917 158.74256 502.2276875C150.31324 521.907338 122.14032 508.046148 128 489.196706C128.21634 469.061768 127.56674 448.883287 128.32509 428.775602C129.6967 421.506081 136.59622 415.866457 144 416zM368 416C384.84828 416.080507 384.80389 434.689581 384 446.967246C383.26963 465.346672 385.52971 484.106917 382.7425600000001 502.2276875C374.31324 521.907338 346.14032 508.046148 352 489.196706C352.21634 469.061768 351.56674 448.883287 352.32509 428.775602C353.6967 421.506081 360.59622 415.866457 368 416zM239.66792 238.26382C250.11195 238.17592 260.55597 238.08794 271 238C271.33333 211.66667 269.80427 203.94961 270.1376 177.61628C259.1376 177.94961 250.0000000000001 177.47489 239.0000000000001 177.80822C239.2226400000001 203.89616 239.4452800000001 212.17588 239.6679200000001 238.26382zM241.8764 139.4382C251.5430700000001 139.10487 262.3333300000001 139.33333 272 139C270.22845 145.46889 275.586 159.06688 269.27868 161C259.85246 161 250.42623 161 241 161C241.66667 154 241.20973 146.4382 241.8764 139.4382zM436 20C314.91416 20.08066 193.82233 19.83863 72.740234 20.12109C56.781967 16.58225 41.883353 41.45486 44 45.27868C42.482718 28.80107 46.036042 9.08466 63.575 2.525C82.579779 -2.39964 102.73428 1.01434 122.2624 0C227.92678 0.11056 333.60242 -0.22119 439.25977 0.16602C459.67946 1.62158 470.86875 22.83927 468 41.52461C469.86668 56.11228 462.73155 18.26101 448.425 21.9C444.4229200000001 20.59302 440.20447 20.00033 436 20zM256.625 334.90026L242.0625 315.2440000000001C193.24753 249.36662 144.13669 183.56685 95.6875 117.35288C94.562712 116.1761600000001 93.701913 115.0686700000001 93.25 114.07231C93.2416 114.05371 93.2582 114.03651 93.25 114.01811L80.125 96.12413L81.34375 96.01568L79.59375 93.6298200000001L105 93.6298200000001C105.006 93.6268200000001 105.12499 93.5756200000001 105.125 93.5756200000001C105.12509 93.5756100000001 105.94877 93.5395200000001 106.28125 93.5214200000001L107.5625 93.3858600000001C125.0416 91.6508200000001 142.77499 93.0641000000001 157.1875 92.6809400000001L157.46875 92.6538400000001L157.71875 92.6538400000001L404.15625 92.6538400000001L435.8125 92.6538400000001L418.71875 115.7804500000001C369.54198 182.27232 320.36184 248.76338 271.15625 315.2440000000001L256.625 334.90026zM256.5625 277.47685L370.375 123.64288L142.75 123.64288C180.54014 174.9683 218.53855 226.21416 256.5625 277.47685z" />
    <glyph glyph-name="calendar"
      unicode="&#xE002;"
      horiz-adv-x="512" d=" M448 448M448 448C432 448 416 448 400 448C400.89593 431.769967 400.1342200000001 412.004995 383.24064 403.86789C361.60688 390.81169 332.22486 411.39848 336 436.081976C339.01562 447.605803 332.69984 449.798221 322.39341 448C273.59561 448 224.7978 448 176 448C176.89593 431.769967 176.13422 412.004995 159.24064 403.86789C137.60688 390.81169 108.22486 411.39848 112 436.081976C115.01562 447.605803 108.69984 449.798221 98.393413 448C79.286529 446.3515300000001 56.797257 453.367824 41.4 438.6C26.689067 423.339482 33.619596 400.96449 32 381.98353C32.11051 274.90384 31.778869 167.81289 32.166016 60.74023C33.621576 40.32054 54.839274 29.13125 73.524611 32C199.43492 32.11069 325.3565 31.77863 451.25977 32.16602C471.67946 33.62158 482.86875 54.83927 480 73.52461C479.88947 188.76826 480.22116 304.02316 479.83398 419.259766C478.47471 435.144057 463.9588 448.291567 448 448zM448 64.058C320.05616 63.9613 191.94335 63.9613 64 64.058C64 160.03867 64 256.01933 64 352C192 352 320 352 448 352C448 256.01933 448 160.03867 448 64.058zM144 416C160.84828 416.080507 160.80389 434.689581 160 446.967246C159.26963 465.346672 161.52971 484.106917 158.74256 502.2276875C150.31324 521.907338 122.14032 508.046148 128 489.196706C128.21634 469.061768 127.56674 448.883287 128.32509 428.775602C129.6967 421.506081 136.59622 415.866457 144 416zM368 416C384.84828 416.080507 384.80389 434.689581 384 446.967246C383.26963 465.346672 385.52971 484.106917 382.7425600000001 502.2276875C374.31324 521.907338 346.14032 508.046148 352 489.196706C352.21634 469.061768 351.56674 448.883287 352.32509 428.775602C353.6967 421.506081 360.59622 415.866457 368 416zM436 20C314.91416 20.08066 193.82233 19.83863 72.740234 20.12109C56.781967 16.58225 41.883353 41.45486 44 45.27868C42.482718 28.80107 46.036042 9.08466 63.575 2.525C82.579779 -2.39964 102.73428 1.01434 122.2624 0C227.92678 0.11056 333.60242 -0.22119 439.25977 0.16602C459.67946 1.62158 470.86875 22.83927 468 41.52461C469.86668 56.11228 462.73155 18.26101 448.425 21.9C444.4229200000001 20.59302 440.20447 20.00033 436 20z" />
    <glyph glyph-name="car"
      unicode="&#xE003;"
      horiz-adv-x="616.8674698795181" d=" M97.0147469879518 242.1019759036145M560.8867469879518 334.9837108433735L510.3221204819277 465.5560481927711C500.8655421686747 490.5515180722891 480.2004819277109 511.8211084337349 441.0910843373494 512H369.7812048192771H247.9066987951808H175.3569156626506C136.4264096385542 511.8211084337349 115.7613493975904 490.5515180722891 106.1320481927711 465.5560481927711L55.5550843373494 334.9837108433735C35.4760481927711 332.3928674698796 -0.061686746988 308.7976867469879 0 264.0994698795181V97.8475180722891H49.3432289156627V44.7784096385542C49.2198554216868 -20.6465542168675 141.8054939759036 -19.8693012048193 141.7808192771084 44.7784096385542V97.8475180722891H308.4337349397591H474.6671807228917V44.7784096385542C474.8707469879519 -19.8693012048193 567.4563855421687 -20.6465542168675 567.5180722891566 44.7784096385542V97.8475180722891H616.8674698795181V264.0994698795181C616.7132530120482 308.7976867469879 581.150843373494 332.3928674698796 560.8867469879518 334.9837108433735zM97.0147469879518 198.174843373494C73.3640481927711 198.1069879518072 54.2164819277109 217.8344096385542 54.3151807228916 242.0958072289157C54.2164819277108 266.5237590361446 73.3640481927711 286.269686746988 97.0147469879518 286.0661204819277C120.591421686747 286.269686746988 139.7389879518072 266.5237590361446 139.7081445783133 242.0958072289157C139.7389879518072 217.8344096385542 120.5852530120482 198.113156626506 97.0147469879518 198.174843373494zM308.4337349397591 336.2112771084337H308.0204337349398H108.2047228915663L146.3394698795181 439.0307469879519C150.9413012048193 453.6258313253012 158.0846265060241 464.0693975903615 174.9559518072289 464.3223132530121H308.0204337349398H308.4337349397591H441.9238554216868C458.5360963855422 464.0693975903614 465.6979277108434 453.632 470.5218313253012 439.0307469879519L508.6627469879518 336.2112771084337H308.4337349397591zM519.8588915662651 198.174843373494C496.0416385542169 198.1069879518072 476.8817349397591 217.8344096385542 476.7521927710844 242.0958072289157C476.8817349397591 266.5237590361446 496.0416385542169 286.269686746988 519.8588915662651 286.0661204819277C543.2690120481928 286.269686746988 562.4104096385543 266.5237590361446 562.5584578313253 242.0958072289157C562.4104096385543 217.8344096385542 543.2690120481928 198.113156626506 519.8588915662651 198.174843373494zM519.8588915662651 242.1019759036145" />
    <glyph glyph-name="foursquare"
      unicode="&#xE004;"
      horiz-adv-x="512" d=" M509.9761509433962 381.5897358490567M509.9761509433962 381.5897358490567L469.8517735849056 421.7769056603774C466.630037735849 424.9841509433963 462.4229433962264 426.752 457.8970566037736 426.732679245283C453.376 426.752 449.1350943396227 424.9744905660378 445.9181886792453 421.7962264150944L253.8940377358491 229.6851320754717L169.8439245283019 313.8898113207547C166.6994716981132 317.0535849056604 162.3716226415094 318.8649056603774 157.894037735849 318.8504150943396C153.4502641509434 318.8359245283019 149.0886037735849 317.0584150943396 145.9344905660377 313.9187924528302L105.7521509433962 273.7750943396227C99.1347924528302 267.1770566037736 99.110641509434 256.4878490566038 105.7328301886792 249.8849811320755L241.7702641509434 113.5625660377359C244.4944905660378 110.8335094339623 248.0253584905661 109.1429433962264 251.7929056603774 108.7275471698113C252.4256603773585 108.6406037735849 253.0777358490566 108.6019622641509 253.7249811320755 108.6067924528301C253.7684528301887 108.6067924528301 253.8119245283019 108.6067924528301 253.8457358490566 108.6116226415094L253.8650566037736 108.5971320754717C258.4054339622641 108.5826415094339 262.7187924528302 110.3794716981132 265.9356981132076 113.5722264150943L509.9616603773585 357.6996226415094C516.5693584905661 364.2928301886792 516.5741886792453 374.9723773584906 509.9761509433962 381.5897358490565M494.8866415094339 298.8969056603774L288.1932075471698 92.1165283018868C279.2621886792453 83.2772830188679 267.4572075471698 78.4132830188679 254.8842264150944 78.4132830188679L245.7116981132075 78.4277735849057L243.7796226415094 79.7222641509434C235.3557735849057 81.7267924528302 227.5743396226415 86.0691320754717 221.4158490566038 92.2421132075472L85.4267169811321 228.5162264150944C76.5150188679245 237.408603773585 71.6027169811321 249.2377358490566 71.6075471698113 261.8203773584906C71.6075471698113 274.412679245283 76.5198490566038 286.2563018867925 85.4315471698113 295.1341886792453L125.6670188679245 335.3310188679245C134.4048301886792 344.025358490566 146.4996226415094 349.0246037735849 158.9518490566038 349.0487547169811C171.3654339622641 349.0487547169811 183.5085283018868 343.9915471698114 192.2270188679245 335.2247547169811L254.9325283018868 272.403320754717L388.1298113207547 405.6633962264151L299.4185660377359 494.374641509434C275.9390188679245 517.8541886792452 237.5148679245283 517.8541886792452 214.0256603773585 494.374641509434L17.6108679245283 297.9646792452831C-5.868679245283 274.4851320754717 -5.868679245283 236.0561509433963 17.6108679245283 212.5717735849057L214.0304905660378 16.1569811320755C237.5148679245283 -7.3225660377359 275.9341886792453 -7.3225660377359 299.4233962264151 16.1569811320755L495.8333584905661 212.5717735849057C519.3129056603774 236.051320754717 519.3129056603774 274.4754716981132 495.8333584905661 297.9646792452831L494.886641509434 298.9017358490567" />
    <glyph glyph-name="along-route"
      unicode="&#xE005;"
      horiz-adv-x="512" d=" M281.3158298103786 492.703008727039H230.6841701896215V512H125.8981532299934V0H230.6841701896215V19.296991272961H281.3158298103786V0H386.1005809785162V512H281.3158298103786V492.703008727039zM281.3158298103786 98.1988380429677H230.6841701896215V216.5503424064872H281.3158298103786V98.1988380429677zM281.3158298103786 295.4509233850033H230.6841701896215V413.8024277485228H281.3158298103786V295.4509233850033z M501.4572226754679 259.0682785730179L438.9486414991719 311.9327943830503C438.2094192687088 312.5580953793666 437.28539148063 312.88340379243 436.3525031521176 312.88340379243C435.7816311898935 312.88340379243 435.2031644787264 312.7606220178497 434.6614057207843 312.5099953027269C433.2424534599126 311.8505179361666 432.33361516972 310.4277683008233 432.33361516972 308.8645158100325V203.1342183984771C432.33361516972 201.5722316991768 433.2424534599126 200.1494820638335 434.6614057207843 199.4900046972732C436.0816237731465 198.8305273307128 437.7524685406315 199.0571040075157 438.9486414991719 200.0684714084403L501.4572226754679 252.9317214269822C502.3597320082079 253.6949936957651 502.8812381023017 254.8164849563649 502.8812381023017 256.0012657914906C502.8812381023017 257.1822492521447 502.3597320082079 258.3037405127444 501.4572226754679 259.0682785730179z M77.3360626962348 312.5099953027269C76.7968355212737 312.7606220178497 76.2183688101066 312.88340379243 75.6474968478825 312.88340379243C74.7158743108606 312.88340379243 73.7905807312913 312.5580953793666 73.0513585008282 311.9327943830503L10.5427773245321 259.0682785730179C9.6402679917921 258.3037405127444 9.1187618976983 257.1822492521447 9.1187618976983 256C9.1187618976983 254.8139533733838 9.6402679917921 253.6937279042745 10.5427773245321 252.9304556354916L73.0513585008282 200.0659398254592C74.2424682934065 199.0571040075156 75.9171104353631 198.8279957477316 77.3360626962348 199.490004697273C78.7575465400875 200.1482162723429 79.6651190387896 201.5709659076862 79.6651190387896 203.134218398477V308.8632500185419C79.6638532472991 310.4277683008233 78.7575465400875 311.8505179361665 77.3360626962348 312.5099953027269z" />
    <glyph glyph-name="freeway"
      unicode="&#xE006;"
      horiz-adv-x="512" d=" M496 288L480 288L480 208Q480 201.5 475.25 196.75T464 192T452.75 196.75T448 208L448 288L64 288L64 208Q64 201.5 59.25 196.75T48 192T36.75 196.75T32 208L32 288L16 288Q9.5 288 4.75 292.75T0 304L0 336Q0 342.5 4.75 347.25T16 352L496 352Q502.5 352 507.25 347.25T512 336L512 304Q512 297.5 507.25 292.75T496 288zM288 496Q288 502.5 292.75 507.25T304 512L336 512Q342.5 512 347.25 507.25T352 496L374.5 384L288 384L288 496zM160 496Q160 502.5 164.75 507.25T176 512L208 512Q214.5 512 219.25 507.25T224 496L224 384L137.5 384zM224 256L224 16Q224 9.5 219.25 4.75T208 0L80 0Q73.5 0 68.75 4.75T64 16L112 256L224 256zM448 16Q448 9.5 443.25 4.75T432 0L304 0Q297.5 0 292.75 4.75T288 16L288 256L400 256z" />
    <glyph glyph-name="fuel"
      unicode="&#xE007;"
      horiz-adv-x="512" d=" M108.01152 488.17152M108.01152 488.17152C93.7216 488.17152 82.21696 476.66688 82.21696 462.37696L82.21696 49.62304C82.21696 36.72576 95.11424 23.8284800000001 108.01152 23.8284800000001L340.18304 23.8284800000001C353.08032 23.8284800000001 365.9776 36.7257600000001 365.9776 49.62304L365.9776 178.6060800000001L378.87488 178.6060800000001C391.77216 178.6060800000001 391.77216 165.7088000000001 391.77216 165.7088000000001L391.77216 114.1145600000001C391.77216 88.3200000000001 404.6694400000001 75.4176000000001 430.46912 75.4176000000001C456.26368 75.4176000000001 469.16608 88.3148800000001 469.16608 114.1145600000001C469.16608 144.2099200000001 469.16608 230.2003200000001 469.16608 255.99488C469.16608 281.78944 417.57184 307.5891200000001 417.57184 333.3836800000001L417.57184 410.7724800000001L391.77728 410.7724800000001L365.98272 436.5670400000001L365.98272 462.3616000000001C365.98272 476.6515200000001 354.47808 488.1561600000001 340.18816 488.1561600000001zM133.80608 436.57728L314.38336 436.57728L314.38336 333.3888L133.80608 333.3888zM365.9776 359.1884800000001L391.77216 359.1884800000001C391.77216 359.1884800000001 391.77216 337.69472 391.77216 320.4915200000001C391.77216 294.69696 443.3664 268.89728 443.3664 243.10272L443.3664 114.11968C443.3715200000001 101.21728 430.47424 101.21728 430.47424 101.21728C430.47424 101.21728 417.57696 101.21728 417.57696 114.1145600000001C417.57696 114.1145600000001 417.57696 165.7088000000001 417.57696 178.6060800000001C417.57696 191.5033600000001 404.67968 204.4006400000001 391.7824 204.4006400000001C383.18592 204.4006400000001 365.98784 204.4006400000001 365.98784 204.4006400000001z" />
    <glyph glyph-name="hotel-roof"
      unicode="&#xE008;"
      horiz-adv-x="517.1717171717172" d=" M56.4958383838384 73.0091313131313L56.4958383838384 -1.939393939394L17.2373333333333 -1.9445656565657L17.2373333333333 272.3995151515151C17.2373333333333 283.2394343434343 26.0240808080808 292.1296161616162 36.864 292.1296161616162L36.864 292.1296161616162C47.8435555555556 292.1296161616162 56.4906666666667 283.2394343434343 56.4906666666667 272.3995151515151L56.4906666666667 110.1782626262626L499.3292929292929 110.1834343434343L499.3292929292929 -1.939393939394L459.7346262626263 -1.939393939394L459.7346262626263 73.0091313131313L56.4958383838384 73.0091313131313zM117.0049292929293 193.3498181818182C136.6367676767677 193.3498181818182 152.5294545454546 209.2373333333333 152.5294545454546 228.9726060606061C152.5294545454546 248.5682424242425 136.6367676767677 264.4609292929293 117.0049292929293 264.4609292929293C97.2748282828283 264.4609292929293 81.3821414141414 248.5682424242425 81.3821414141414 228.9726060606061C81.3821414141414 209.2373333333333 97.2748282828283 193.3498181818182 117.0049292929293 193.3498181818182zM499.9343838383839 139.6777373737373L499.7999191919193 188.6332121212121C499.6654545454546 204.1897373737373 486.601696969697 214.8951919191919 471.4537373737375 216.7828686868687L191.9224242424244 244.5911919191919C191.3173333333334 244.7256565656566 190.8467070707072 244.9945858585858 190.3398787878789 244.9945858585858C180.7101414141415 244.9945858585858 172.8646464646466 237.1180606060606 172.8646464646466 227.5555555555556L172.8646464646466 174.7626666666666L99.7313939393939 174.7678383838384C89.9671919191919 174.7678383838384 82.157898989899 166.8189090909091 82.157898989899 157.1943434343435C82.157898989899 147.4973737373738 89.9723636363636 139.6829090909091 99.7313939393939 139.6829090909091L499.9343838383839 139.6777373737373zM517.1717171717172 383.3121616161616L258.9220202020203 511.6638383838384L258.8185858585859 512L258.5858585858586 511.8655353535353L258.3531313131313 512L258.2496969696971 511.6638383838384L0 383.3121616161616L21.5143434343434 340.0145454545455L258.5858585858586 457.857292929293L495.6573737373738 340.0145454545455z" />
    <glyph glyph-name="hotel"
      unicode="&#xE009;"
      horiz-adv-x="512" d=" M464.34694 177.68708L464.34694 100L505.36735 100L505.36735 216.13606L46.693878 216.13606L46.693878 384.17007C46.693878 395.40136 37.687075 404.60545 26.312925 404.60545L26.312925 404.60545C15.068027 404.60545 6 395.40137 6 384.17008L6 100L46.693878 100L46.693878 177.68708L464.34694 177.68708zM109.30612 302.26532C129.68027 302.26532 146.16327 318.74831 146.16327 339.19049C146.16327 359.5034100000001 129.68027 375.9864 109.30612 375.9864C88.931973 375.9864 72.442177 359.5034100000001 72.442177 339.19049C72.435377 318.74151 88.918367 302.26532 109.30612 302.26532zM506 246.68028L505.87755 297.40137C505.7483 313.4966100000001 492.20408 324.61906 476.4898 326.53063L186.92517 355.41498C186.36054 355.53742 185.83673 355.79593 185.33333 355.79593C175.29932 355.79593 167.19048 347.62586 167.19048 337.65307L167.19048 282.9591900000001L91.482993 282.9795900000001C81.312925 282.9795900000001 73.210884 274.80272 73.210884 264.82993C73.210884 254.7279 81.319728 246.68028 91.482993 246.68028L506 246.68028z" />
    <glyph glyph-name="arrow-down"
      unicode="&#xE00A;"
      horiz-adv-x="512" d=" M256 16L496 256H352V512H160V256H16z" />
    <glyph glyph-name="arrow-left"
      unicode="&#xE00B;"
      horiz-adv-x="512" d=" M256 512C397.385 512 512 397.385 512 256S397.385 0 256 0S0 114.615 0 256S114.615 512 256 512zM256 48C370.875 48 464 141.125 464 256S370.875 464 256 464S48 370.875 48 256S141.125 48 256 48zM105.372 278.627L233.373 406.627C245.869 419.124 266.13 419.124 278.627 406.627C291.124 394.13 291.124 373.8690000000001 278.627 361.372L205.255 288L384 288C401.673 288 416 273.673 416 256C416 238.327 401.673 224 384 224L205.255 224L278.628 150.628C291.125 138.131 291.125 117.869 278.628 105.372C272.379 99.124 264.189 96 256 96S239.621 99.124 233.373 105.372L105.372 233.372C92.876 245.8690000000001 92.876 266.131 105.372 278.627z" />
    <glyph glyph-name="arrow-up"
      unicode="&#xE00C;"
      horiz-adv-x="512" d=" M256 496L16 256H160V0H352V256H496z" />
    <glyph glyph-name="blocked"
      unicode="&#xE00D;"
      horiz-adv-x="512" d=" M437.016 437.016C388.6640000000001 485.368 324.3760000000001 512 255.992 512S123.328 485.368 74.968 437.016C26.616 388.664 -0.016 324.376 -0.016 256S26.616 123.336 74.968 74.984C123.32 26.6320000000001 187.608 1e-13 255.992 1e-13S388.656 26.6320000000001 437.016 74.984C485.368 123.336 512 187.624 512 256.0080000000001S485.368 388.6720000000001 437.016 437.0320000000001zM448 256C448 214.592 434.824 176.208 412.448 144.808L144.816 412.44C176.216 434.8160000000001 214.6 447.992 256.008 447.992C361.88 447.992 448.008 361.864 448.008 255.992zM64 256C64 297.408 77.176 335.7920000000001 99.552 367.192L367.184 99.56C335.784 77.184 297.4 64.008 255.992 64.008C150.12 64.008 63.992 150.136 63.992 256.008z" />
    <glyph glyph-name="book"
      unicode="&#xE00E;"
      horiz-adv-x="512" d=" M448 448V32H112C85.488 32 64 53.488 64 80S85.488 128 112 128H416V512H96C60.8 512 32 483.2 32 448V64C32 28.8 60.8 0 96 0H480V448H448z M112.032 96V96C112.024 96 112.016 96 112 96C103.168 96 96 88.84 96 80S103.168 64 112 64C112.008 64 112.016 64 112.032 64V64H415.976V96H112.032z" />
    <glyph glyph-name="box-add"
      unicode="&#xE00F;"
      horiz-adv-x="512" d=" M416 480H96L0 384V48C0 39.16 7.16 32 16 32H496C504.84 32 512 39.16 512 48V384L416 480zM256 96L96 224H192V320H320V224H416L256 96zM77.256 416L109.256 448H402.7440000000001L434.7440000000001 416H77.256z" />
    <glyph glyph-name="box-remove"
      unicode="&#xE010;"
      horiz-adv-x="512" d=" M416 480H96L0 384V48C0 39.16 7.16 32 16 32H496C504.84 32 512 39.16 512 48V384L416 480zM320 192V96H192V192H96L256 320L416 192H320zM77.256 416L109.256 448H402.7440000000001L434.7440000000001 416H77.256z" />
    <glyph glyph-name="bubbles-2"
      unicode="&#xE011;"
      horiz-adv-x="576" d=" M544 61.416C544 38.664 557.016 18.96 576 9.328V1.36C570.688 0.6319999999999 565.264 0.2479999999999 559.752 0.2479999999999C525.7439999999999 0.2479999999999 495.0799999999999 14.5119999999999 473.3919999999999 37.384C460.2799999999999 33.896 446.392 32.008 432 32.008C352.4719999999999 32.008 288 89.312 288 160.008S352.4719999999999 288.008 432 288.008C511.528 288.008 576 230.704 576 160.008C576 132.336 566.12 106.712 549.32 85.776C545.904 78.3679999999999 544 70.12 544 61.424zM115.336 401.408C82.232 374.512 64 339.9120000000001 64 304C64 283.848 69.592 264.312 80.624 245.928C92 226.968 109.112 209.632 130.12 195.8C145.296 185.808 155.512 169.824 158.208 151.856C159.112 145.864 159.672 139.816 159.896 133.792C163.632 136.888 167.272 140.216 170.832 143.776C182.912 155.856 199.224 162.52 216.08 162.52C218.76 162.52 221.464 162.352 224.16 162.008C234.632 160.68 245.328 160 255.96 160V96C242.4 96 229.08 96.872 216.088 98.52C161.096 43.528 95.464 33.672 32 32.224V45.68C66.272 62.472 96 93.048 96 128C96 132.88 95.624 137.664 94.92 142.352C37.024 180.488 0 238.728 0 304C0 418.872 114.616 512 256 512C395.232 512 508.496 421.696 511.92 309.24C491.3679999999999 318.4 468.9999999999999 323.952 445.792 325.528C440.024 353.56 423.088 379.936 396.664 401.408C379 415.76 358.208 427.104 334.848 435.128C309.992 443.664 283.472 448 256 448S202.008 443.672 177.1519999999999 435.128C153.7999999999999 427.104 133 415.76 115.3359999999999 401.408z" />
    <glyph glyph-name="bubbles"
      unicode="&#xE012;"
      horiz-adv-x="576" d=" M544 61.416C544 38.664 557.016 18.96 576 9.328V1.36C570.688 0.6319999999999 565.264 0.2479999999999 559.752 0.2479999999999C525.7439999999999 0.2479999999999 495.0799999999999 14.5119999999999 473.3919999999999 37.384C460.2799999999999 33.896 446.392 32.008 432 32.008C352.4719999999999 32.008 288 89.312 288 160.008S352.4719999999999 288.008 432 288.008C511.528 288.008 576 230.704 576 160.008C576 132.336 566.12 106.712 549.32 85.776C545.904 78.3679999999999 544 70.12 544 61.424zM256 512C395.232 512 508.496 421.6960000000001 511.92 309.24C487.328 320.2000000000001 460.1279999999999 326 432 326C384.224 326 339.088 309.28 304.928 278.9120000000001C269.504 247.424 250 205.192 250 160C250 137.664 254.768 116.056 263.8639999999999 96.104C261.248 96.04 258.6319999999999 96 255.9999999999999 96C242.4239999999999 96 229.0959999999999 96.864 216.0879999999999 98.52C161.0959999999999 43.528 95.4639999999999 33.672 31.9999999999999 32.224V45.68C66.2719999999999 62.472 95.9999999999999 93.048 95.9999999999999 128C95.9999999999999 132.88 95.6239999999999 137.664 94.9199999999999 142.352C37.0239999999999 180.488 -1e-13 238.728 -1e-13 304C-1e-13 418.872 114.6159999999999 512 255.9999999999999 512z" />
    <glyph glyph-name="cart"
      unicode="&#xE013;"
      horiz-adv-x="512" d=" M192 48C192 21.488 170.512 0 144 0S96 21.488 96 48C96 74.512 117.488 96 144 96S192 74.512 192 48z M512 48C512 21.488 490.512 0 464 0S416 21.488 416 48C416 74.512 437.488 96 464 96S512 74.512 512 48z M512 256V448H128C128 465.672 113.672 480 96 480H0V448H64L88.04 241.976C73.392 230.248 64 212.224 64 192C64 156.648 92.656 128 128 128H512V160H128C110.328 160 96 174.328 96 192C96 192.112 96.008 192.216 96.008 192.328L512 256z" />
    <glyph glyph-name="checkbox-checked"
      unicode="&#xE014;"
      horiz-adv-x="512" d=" M0 512L0 0L512 0L512 512L0 512zM480 32L32 32L32 480L480 480L480 32zM384 400L224 240L128 336L64 272L224 112L448 336L384 400z" />
    <glyph glyph-name="checkbox-unchecked"
      unicode="&#xE015;"
      horiz-adv-x="512" d=" M0 512L0 0L512 0L512 512L0 512zM480 32L32 32L32 480L480 480L480 32z" />
    <glyph glyph-name="checkmark"
      unicode="&#xE016;"
      horiz-adv-x="512" d=" M432 448L192 208L80 320L0 240L192 48L512 368z" />
    <glyph glyph-name="clock"
      unicode="&#xE017;"
      horiz-adv-x="512" d=" M329.376 137.376L224 242.752V384.0079999999999H288V269.264L374.624 182.64zM256 512C114.616 512 0 397.384 0 256S114.616 0 256 0S512 114.616 512 256S397.384 512 256 512zM256 64C149.96 64 64 149.96 64 256S149.96 448 256 448C362.04 448 448 362.04 448 256S362.04 64 256 64z" />
    <glyph glyph-name="close"
      unicode="&#xE018;"
      horiz-adv-x="512" d=" M507.328 100.672C507.328 100.672 507.32 100.68 507.32 100.68L352 256.0080000000001L507.32 411.336C507.32 411.336 507.328 411.336 507.328 411.344C509 413.016 510.208 414.968 510.984 417.048C513.1039999999999 422.736 511.896 429.392 507.32 433.9600000000001L433.944 507.336C429.368 511.912 422.72 513.12 417.032 511C414.952 510.224 413 509.016 411.32 507.344C411.32 507.344 411.32 507.344 411.312 507.336L255.984 352.0080000000001L100.656 507.336C100.656 507.336 100.656 507.336 100.648 507.344C98.976 509.016 97.024 510.224 94.944 511C89.256 513.128 82.6 511.912 78.032 507.344L4.656 433.968C0.08 429.392 -1.128 422.7440000000001 0.992 417.0560000000001C1.768 414.976 2.976 413.016 4.648 411.3520000000001C4.648 411.3520000000001 4.648 411.3520000000001 4.656 411.3440000000001L159.984 256.016L4.656 100.688C4.656 100.688 4.656 100.688 4.656 100.68C2.984 99.008 1.776 97.056 1 94.976C-1.128 89.288 0.088 82.632 4.664 78.064L78.04 4.688C82.616 0.112 89.264 -1.096 94.952 1.024C97.032 1.8 98.984 3.008 100.656 4.68C100.656 4.68 100.656 4.68 100.664 4.688L255.992 160.016L411.32 4.688C411.32 4.688 411.328 4.688 411.328 4.68C413 3.008 414.952 1.8 417.032 1.024C422.72 -1.096 429.376 0.112 433.944 4.688L507.3199999999999 78.064C511.896 82.64 513.1039999999999 89.288 510.9839999999999 94.9759999999999C510.2079999999999 97.0559999999999 508.9999999999999 99.0079999999999 507.3279999999999 100.68z" />
    <glyph glyph-name="code"
      unicode="&#xE019;"
      horiz-adv-x="512" d=" M64 256L192 384L128 384L0 256L128 128L192 128zM384 384L320 384L448 256L320 128L384 128L512 256zM272 448L192 64L240 64L320 448z" />
    <glyph glyph-name="cog"
      unicode="&#xE01A;"
      horiz-adv-x="512" d=" M466.896 206.872C440.0320000000001 253.4000000000001 456.184 313.024 502.976 340.112L452.664 427.2560000000001C438.288 418.832 421.576 414 403.744 414C349.976 414 306.392 457.872 306.392 511.992H205.7599999999999C205.8959999999999 495.288 201.72 478.352 192.7839999999999 462.864C165.9199999999999 416.336 106.2079999999999 400.5120000000001 59.352 427.4880000000001L9.04 340.3440000000001C23.528 332.112 36.064 320.048 44.984 304.6080000000001C71.8 258.1520000000001 55.744 198.648 9.128 171.4960000000001L59.44 84.352C73.768 92.704 90.4 97.48 108.144 97.48C161.744 97.48 205.216 53.88 205.496 0H306.12C306.08 16.536 310.256 33.288 319.104 48.608C345.9199999999999 95.064 405.488 110.904 452.3119999999999 84.112L502.6239999999999 171.256C488.2319999999999 179.4880000000001 475.7759999999999 191.504 466.9039999999999 206.872zM256 152.336C198.744 152.336 152.328 198.744 152.328 256S198.744 359.664 256 359.664C313.256 359.664 359.664 313.248 359.664 256S313.256 152.336 256 152.336z" />
    <glyph glyph-name="compass"
      unicode="&#xE01B;"
      horiz-adv-x="512" d=" M256 512C114.615 512 0 397.385 0 256S114.615 0 256 0S512 114.615 512 256S397.385 512 256 512zM256 48C141.125 48 48 141.125 48 256S141.125 464 256 464S464 370.875 464 256S370.875 48 256 48zM304 304L160 384L128 384L128 352L208 208L352 128L384 128L384 160L304 304zM256 224C238.327 224 224 238.327 224 256C224 273.673 238.327 288 256 288C273.673 288 288 273.673 288 256C288 238.327 273.673 224 256 224z" />
    <glyph glyph-name="contract"
      unicode="&#xE01C;"
      horiz-adv-x="512" d=" M288 288H496L416 368L512 464L464 512L368 416L288 496z M288 224V16L368 96L464 0L512 48L416 144L496 224z M224 224H16L96 144L0 48L48 0L144 96L224 16z M224 288V496L144 416L48 512L0 464L96 368L16 288z" />
    <glyph glyph-name="copy"
      unicode="&#xE01D;"
      horiz-adv-x="512" d=" M320 384V512H96L0 416V128H192V0H512V384H320zM96 466.744V416H45.256L96 466.744zM32 160V384H128V480H288V384L192 288V160H32zM288 338.7440000000001V288H237.256L288 338.7440000000001zM480 32H224V256H320V352H480V32z" />
    <glyph glyph-name="earth"
      unicode="&#xE01E;"
      horiz-adv-x="512" d=" M437.02 437.019C485.371 388.6670000000001 512 324.379 512 255.999C512 187.619 485.371 123.332 437.02 74.98C388.667 26.629 324.38 0 256 0C187.62 0 123.333 26.629 74.98 74.98C26.629 123.332 0 187.619 0 255.999C0 324.379 26.627 388.6670000000001 74.98 437.019C123.333 485.371 187.62 512 256 512C324.38 512 388.667 485.371 437.02 437.019zM414.392 97.607C445.921 129.137 466.885 168.411 475.528 211.138C468.791 201.22 462.347 197.541 458.356 219.741C454.246 255.936 421.002 232.815 400.098 245.671C378.096 230.842 328.645 274.502 337.049 225.259C350.016 203.048 407.053 254.984 378.623 207.988C360.486 175.18 312.302 102.522 318.57 64.859C319.361 9.987 262.503 53.417 242.913 71.619C229.735 108.079 238.422 171.806 203.964 189.662C166.563 191.286 134.462 194.685 119.967 236.497C111.244 266.411 129.249 310.944 161.306 317.819C208.231 347.302 224.993 283.2920000000001 269.001 282.102C282.665 296.399 319.909 300.945 322.997 316.977C294.122 322.072 359.631 341.256 320.233 352.168C298.498 349.612 284.4940000000001 329.631 296.049 312.689C253.93 302.868 252.581 373.641 212.094 351.318C211.065 316.023 145.983 339.875 189.576 347.0320000000001C204.554 353.576 165.146 372.54 186.436 369.094C196.894 369.6620000000001 232.102 382 222.574 390.295C242.179 402.4650000000001 258.654 361.15 277.843 391.236C291.697 414.3690000000001 272.033 418.64 254.668 406.914C244.878 417.876 271.953 441.552 295.834 451.783C303.793 455.193 311.395 457.051 317.207 456.525C329.236 442.629 351.4820000000001 440.222 352.646 458.196C322.855 472.463 290.008 480 256 480C207.189 480 160.765 464.488 122.346 435.805C132.671 431.075 138.532 425.1860000000001 128.585 417.657C120.857 394.63 89.5 363.719 61.973 368.0950000000001C47.68 343.447 38.267 316.2920000000001 34.243 287.831C57.299 280.203 62.615 265.106 57.661 260.0560000000001C45.913 249.812 38.693 235.291 34.973 219.395C42.478 173.477 64.059 131.157 97.608 97.607C139.916 55.3 196.167 32 256 32C315.832 32 372.084 55.3 414.392 97.607z" />
    <glyph glyph-name="eject"
      unicode="&#xE01F;"
      horiz-adv-x="512" d=" M0 128H512V64H0zM256 448L512 192H0z" />
    <glyph glyph-name="envelop"
      unicode="&#xE020;"
      horiz-adv-x="512" d=" M464 448H48C21.6 448 0 426.4 0 400V80C0 53.6 21.6 32 48 32H464C490.4 32 512 53.6 512 80V400C512 426.4 490.4 448 464 448zM199.368 236.816L64 131.368V382.192L199.368 236.8160000000001zM88.192 384H423.8160000000001L256.0080000000001 258L88.2000000000001 384zM204.648 231.152L256 176L307.352 231.152L412.632 96H99.3679999999999L204.648 231.152zM312.632 236.816L448 382.192V131.368L312.632 236.8159999999999z" />
    <glyph glyph-name="expand"
      unicode="&#xE021;"
      horiz-adv-x="512" d=" M512 512H304L384 432L288 336L336 288L432 384L512 304z M512 0V208L432 128L336 224L288 176L384 80L304 0z M0 0H208L128 80L224 176L176 224L80 128L0 208z M0 512V304L80 384L176 288L224 336L128 432L208 512z" />
    <glyph glyph-name="eye-blocked"
      unicode="&#xE022;"
      horiz-adv-x="512" d=" M472.968 504.968C463.592 514.336 448.4000000000001 514.336 439.024 504.968L337.944 403.8880000000001C311.976 411.7680000000001 284.4720000000001 416 256 416C144.344 416 47.56 350.976 0 256C20.56 214.936 50.32 179.48 86.512 152.448L7.032 72.968C-2.344 63.592 -2.344 48.4 7.032 39.0239999999999C11.72 34.336 17.856 31.992 24 31.992S36.28 34.336 40.968 39.0239999999999L472.968 471.0239999999999C482.344 480.3999999999999 482.344 495.5919999999999 472.968 504.968zM208 352C229.12 352 247.04 338.352 253.464 319.4L192.6 258.536C173.648 264.952 160 282.88 160 304C160 330.512 181.488 352 208 352zM55.056 256C74.2 286.264 99.696 311.9600000000001 129.776 331.144C131.736 332.392 133.712 333.608 135.704 334.7920000000001C130.72 321.1280000000001 128 306.384 128 290.992C128 263.544 136.64 238.12 151.352 217.28L120.888 186.816C94.664 205.24 72.288 228.7600000000001 55.056 255.9840000000001z M384 291C384 304.584 381.872 317.664 377.952 329.952L217.048 169.048C229.328 165.128 242.416 163 256 163C326.688 163 384 220.312 384 291z M415.016 367.016L380.336 332.336C380.968 331.944 381.6 331.552 382.2320000000001 331.152C412.312 311.968 437.8 286.264 456.952 256.008C437.808 225.744 412.312 200.048 382.232 180.856C344.432 156.744 300.784 144.008 256.008 144.008C236.68 144.008 217.56 146.384 199.024 151.024L160.576 112.576C190.432 101.848 222.552 96 256 96C367.656 96 464.4399999999999 161.024 512 256C489.488 300.9600000000001 455.944 339.2 415.016 367.016z" />
    <glyph glyph-name="eye"
      unicode="&#xE023;"
      horiz-adv-x="512" d=" M256 416C144.344 416 47.56 350.976 0 256C47.56 161.024 144.344 96 256 96S464.44 161.024 512 256C464.44 350.976 367.656 416 256 416zM382.224 331.144C412.304 311.9600000000001 437.792 286.256 456.944 256C437.8 225.736 412.304 200.04 382.224 180.848C344.4239999999999 156.736 300.776 144 256 144S167.5679999999999 156.744 129.776 180.848C99.696 200.0320000000001 74.208 225.736 55.064 256C74.2079999999999 286.264 99.704 311.9600000000001 129.7839999999999 331.144C131.744 332.392 133.72 333.608 135.7119999999999 334.7920000000001C130.7359999999999 321.1280000000001 128.0079999999999 306.384 128.0079999999999 290.992C128.0079999999999 220.304 185.3119999999999 162.992 256.0079999999999 162.992S384.0079999999999 220.304 384.0079999999999 290.992C384.0079999999999 306.3760000000001 381.2799999999999 321.1280000000001 376.3039999999999 334.7920000000001C378.296 333.6 380.272 332.3920000000001 382.2319999999999 331.144V331.144zM256 304C256 277.488 234.512 256 208 256S160 277.488 160 304S181.488 352 208 352S256 330.512 256 304z" />
    <glyph glyph-name="facebook-2"
      unicode="&#xE024;"
      horiz-adv-x="512" d=" M287.935 0L192 0L192 256L128 256L128 344.225L192 344.254L191.896 396.23C191.896 468.206 211.413 512 296.195 512L366.783 512L366.783 423.758L322.668 423.758C289.652 423.758 288.065 411.43 288.065 388.416L287.9340000000001 344.254L367.279 344.254L357.927 256.029L288 256L287.935 0z" />
    <glyph glyph-name="facebook"
      unicode="&#xE025;"
      horiz-adv-x="512" d=" M426.6720000000001 512H85.3200000000001C38.1920000000001 512 1e-13 473.792 1e-13 426.656V85.344C1e-13 38.208 38.2000000000001 0 85.3200000000001 0H255.9920000000001V224H191.9920000000001V288H255.9920000000001V336C255.9920000000001 380.184 291.8080000000001 416 335.9920000000001 416H415.9920000000001V352H335.9920000000001C327.1520000000001 352 319.9920000000001 344.8400000000001 319.9920000000001 336V288H407.9920000000001L391.9920000000001 224H319.9920000000001V0H426.6640000000001C473.7920000000001 0 511.9920000000001 38.208 511.9920000000001 85.344V426.656C511.9920000000001 473.792 473.7920000000001 512 426.6640000000001 512z" />
    <glyph glyph-name="feed"
      unicode="&#xE026;"
      horiz-adv-x="512" d=" M426.6720000000001 512H85.3440000000001C38.4080000000001 512 1e-13 473.592 1e-13 426.656V85.344C1e-13 38.376 38.4080000000001 0 85.3440000000001 0H426.6720000000001C473.608 0 512 38.376 512 85.344V426.656C512 473.592 473.608 512 426.6720000000001 512zM139.472 96.376C115.488 96.376 96 115.72 96 139.688C96 163.528 115.488 183.096 139.472 183.096C163.552 183.096 183 163.528 183 139.688C183 115.72 163.552 96.376 139.472 96.376zM248.736 96C248.736 136.904 232.832 175.408 204.008 204.224C175.152 233.096 136.824 249.04 96.056 249.04V311.632C214.88 311.632 311.616 214.9119999999999 311.616 96.0079999999999L248.736 96.0079999999999zM359.816 96C359.816 241.528 241.488 359.968 96.128 359.968V422.592C276.128 422.592 422.6 276.0320000000001 422.6 95.992L359.816 95.992z" />
    <glyph glyph-name="file"
      unicode="&#xE027;"
      horiz-adv-x="512" d=" M458.904 397.464C447.8 412.608 432.32 430.312 415.312 447.312S380.608 479.792 365.464 490.904C339.68 509.816 327.168 512 320 512H72C49.944 512 32 494.056 32 472V40C32 17.944 49.944 0 72 0H440C462.056 0 480 17.944 480 40V352C480 359.168 477.816 371.6720000000001 458.904 397.464zM392.688 424.688C408.04 409.336 420.088 395.488 428.976 384H352V460.976C363.496 452.088 377.336 440.04 392.688 424.688zM448 40C448 35.664 444.336 32 440 32H72C67.664 32 64 35.664 64 40V472C64 476.336 67.664 480 72 480C72 480 319.976 480 320 480V368C320 359.16 327.1600000000001 352 336 352H448V40z M368 96H144C135.16 96 128 103.16 128 112S135.16 128 144 128H368C376.84 128 384 120.84 384 112S376.84 96 368 96z M368 160H144C135.16 160 128 167.16 128 176S135.16 192 144 192H368C376.84 192 384 184.84 384 176S376.84 160 368 160z M368 224H144C135.16 224 128 231.1600000000001 128 240S135.16 256 144 256H368C376.84 256 384 248.84 384 240S376.84 224 368 224z" />
    <glyph glyph-name="film"
      unicode="&#xE028;"
      horiz-adv-x="512" d=" M0 448V64H512V448H0zM96 96H32V160H96V96zM96 224H32V288H96V224zM96 352H32V416H96V352zM384 96H128V416H384V96zM480 96H416V160H480V96zM480 224H416V288H480V224zM480 352H416V416H480V352zM192 352V160L320 256z" />
    <glyph glyph-name="flag"
      unicode="&#xE029;"
      horiz-adv-x="512" d=" M0 512H64V0H0V512z M416 190.496C457.312 190.496 493.288 200.488 512 215.248V471.248C493.288 456.488 457.312 446.496 416 446.496S338.712 456.488 320 471.248V215.248C338.712 200.488 374.688 190.496 416 190.496z M304 495.736C280.544 505.704 246.24 512 208 512C159.8 512 117.832 502.008 96 487.248V231.248C117.832 246.008 159.8 256 208 256C246.24 256 280.544 249.704 304 239.736V495.736z" />
    <glyph glyph-name="food"
      unicode="&#xE02A;"
      horiz-adv-x="512" d=" M432 512C387.814 512 352 476.184 352 432L352 192L416 192L416 0L512 0L512 432C512 476.184 476.183 512 432 512zM208 512C199.162 512 192 504.836 192 496L192 384C192 379.582 184.836 376 176 376C167.162 376 160 379.582 160 384L160 496C160 504.836 152.836 512 144 512C135.163 512 128 504.836 128 496L128 384C128 379.582 120.836 376 112 376C103.163 376 96 379.582 96 384L96 496C96 504.836 88.836 512 80 512C71.163 512 64 504.836 64 496L64 384C64 379.582 56.836 376 48 376S32 379.582 32 384L32 496C32 504.836 24.836 512 16 512S0 504.836 0 496L0 384L0 352C0 337.841 12.529 329.945 26.502 320C44.107 307.468 64 291.682 64 256L64 0L160 0L160 256C160 291.682 179.893 307.468 197.496 320C211.469 329.945 224 337.841 224 352L224 384L224 496C224 504.836 216.837 512 208 512z" />
    <glyph glyph-name="google-plus-2"
      unicode="&#xE02B;"
      horiz-adv-x="512" d=" M279.536 480C279.536 480 179.056 480 145.568 480C85.504 480 28.984 434.496 28.984 381.7920000000001C28.984 327.928 69.928 284.456 131.024 284.456C135.272 284.456 139.4 284.544 143.448 284.832C139.48 277.24 136.648 268.688 136.648 259.808C136.648 244.8400000000001 144.696 232.704 154.88 222.792C147.184 222.792 139.76 222.5680000000001 131.656 222.5680000000001C57.264 222.5680000000001 0.008 175.1920000000001 0.008 126.0560000000001C0.008 77.6640000000001 62.776 47.4 137.176 47.4C221.992 47.4 268.832 95.52 268.832 143.912C268.832 182.7120000000001 257.384 205.9520000000001 221.992 230.976C209.88 239.552 186.728 260.392 186.728 272.648C186.728 287.008 190.824 294.08 212.44 310.968C234.6 328.28 250.28 352.616 250.28 380.928C250.28 414.632 235.272 447.48 207.096 458.312H249.576L279.56 479.984zM232.744 152.272C233.808 147.784 234.384 143.168 234.384 138.456C234.384 99.352 209.192 68.8 136.896 68.8C85.472 68.8 48.336 101.352 48.336 140.448C48.336 178.768 94.4 210.672 145.816 210.112C157.816 209.984 169 208.056 179.152 204.768C207.064 185.352 227.088 174.384 232.736 152.264zM150.408 298.112C115.888 299.144 83.088 336.728 77.136 382.04C71.176 427.376 94.32 462.064 128.832 461.032C163.336 459.992 196.152 423.624 202.112 378.304S184.92 297.072 150.416 298.112zM416 384V480H384V384H288V352H384V256H416V352H512V384z" />
    <glyph glyph-name="google-plus"
      unicode="&#xE02C;"
      horiz-adv-x="512" d=" M0.4 77.168C0.28 78.432 0.176 79.704 0.112 80.984C0.176 79.704 0.28 78.432 0.4 77.168zM117.952 229.424C163.96 228.056 194.816 275.776 186.88 336.024C178.936 396.264 135.184 444.608 89.176 445.984C43.16 447.352 12.304 401.24 20.248 340.984C28.192 280.752 71.928 230.8 117.944 229.424zM512 384V426.656C512 473.592 473.608 512 426.6720000000001 512H85.3440000000001C39.2080000000001 512 1.3360000000001 474.888 0.064 429.04C29.2480000000001 454.736 69.7280000000001 476.2 111.5040000000001 476.2C156.1600000000001 476.2 290.1280000000001 476.2 290.1280000000001 476.2L250.1520000000001 442.392H193.5200000000001C231.088 427.992 251.0960000000001 384.328 251.0960000000001 339.528C251.0960000000001 301.904 230.1920000000001 269.552 200.656 246.544C171.832 224.096 166.3680000000001 214.688 166.3680000000001 195.608C166.3680000000001 179.32 197.2400000000001 151.608 213.3840000000001 140.216C260.576 106.944 275.8400000000001 76.056 275.8400000000001 24.488C275.8400000000001 16.272 274.8160000000001 8.072 272.8080000000001 0.008H426.6800000000001C473.616 0.008 512.008 38.384 512.008 85.352V352.008H416.0080000000001V256.008H384.0080000000001V352.008H288.0080000000001V384.008H384.0080000000001V480.008H416.0080000000001V384.008H512.008zM92.944 129.032C103.752 129.032 113.656 129.328 123.912 129.328C110.336 142.496 99.6 158.632 99.6 178.52C99.6 190.32 103.384 201.688 108.664 211.776C103.272 211.392 97.768 211.28 92.104 211.28C54.928 211.28 23.352 223.32 0 243.208V209.584L0 108.7199999999999C26.72 121.4079999999999 58.448 129.0319999999999 92.936 129.0319999999999zM1.712 68.368C1.152 71.096 0.728 73.872 0.44 76.688C0.728 73.872 1.152 71.096 1.712 68.368zM227.728 35.576C220.2 64.976 193.504 79.56 156.288 105.36C142.752 109.728 127.84 112.296 111.84 112.464C67.032 112.944 25.288 94.992 1.728 68.28C9.688 29.424 44.248 0 85.344 0H228.568C229.472 5.568 229.92 11.312 229.92 17.216C229.92 23.48 229.152 29.616 227.736 35.576z" />
    <glyph glyph-name="heart"
      unicode="&#xE051;"
      horiz-adv-x="512" d=" M377.592 480C323.776 480 277.464 436.224 256.008 390.496C234.536 436.216 188.216 480 134.4 480C60.208 480 0 419.784 0 345.584C0 194.664 152.248 155.088 256.0079999999999 5.872C354.0879999999999 154.16 511.9999999999999 199.472 511.9999999999999 345.584C511.9999999999999 419.776 451.7839999999999 480 377.5919999999999 480z" />
    <glyph glyph-name="home"
      unicode="&#xE02D;"
      horiz-adv-x="512" d=" M512 216.776L256 415.488L0 216.776V297.7920000000001L256 496.504L512 297.7920000000001zM448 224V32H320V160H192V32H64V224L256 368z" />
    <glyph glyph-name="info"
      unicode="&#xE02E;"
      horiz-adv-x="512" d=" M224 360C224 373.2 234.8 384 248 384H264C277.2 384 288 373.2 288 360V344C288 330.8 277.2 320 264 320H248C234.8 320 224 330.8 224 344V360z M320 128H192V160H224V256H192V288H288V160H320z M256 512C114.616 512 0 397.384 0 256S114.616 0 256 0S512 114.616 512 256S397.384 512 256 512zM256 48C141.128 48 48 141.128 48 256S141.128 464 256 464S464 370.872 464 256S370.872 48 256 48z" />
    <glyph glyph-name="location-2"
      unicode="&#xE02F;"
      horiz-adv-x="512" d=" M256 512C167.632 512 96 440.368 96 352C96 192 256 0 256 0S416 192 416 352C416 440.368 344.368 512 256 512zM256 254C201.88 254 158 297.88 158 352S201.88 450 256 450S354 406.12 354 352S310.128 254 256 254zM194 352C194 386.24 221.76 414 256 414S318 386.24 318 352C318 317.76 290.24 290 256 290S194 317.76 194 352z" />
    <glyph glyph-name="location"
      unicode="&#xE030;"
      horiz-adv-x="512" d=" M256 512C167.632 512 96 440.368 96 352C96 192 256 0 256 0S416 192 416 352C416 440.368 344.368 512 256 512zM256 256C202.976 256 160 298.976 160 352S202.976 448 256 448S352 405.024 352 352S309.016 256 256 256z" />
    <glyph glyph-name="lock-2"
      unicode="&#xE031;"
      horiz-adv-x="512" d=" M296 288H288V384C288 436.9360000000001 244.936 480 192 480H128C75.064 480 32 436.9360000000001 32 384V288H24C10.8 288 0 277.2 0 264V24C0 10.8 10.8 0 24 0H296C309.2 0 320 10.8 320 24V264C320 277.2 309.2 288 296 288zM96 384C96 401.648 110.352 416 128 416H192C209.648 416 224 401.648 224 384V288H96V384z" />
    <glyph glyph-name="lock"
      unicode="&#xE032;"
      horiz-adv-x="512" d=" M416 288L384 288L384 384C384 454.692 326.692 512 256 512C185.308 512 128 454.692 128 384L128 288L96 288C78.4 288 64 273.6 64 256L64 32C64 14.4 78.4 0 96 0L416 0C433.6 0 448 14.4 448 32L448 256C448 273.6 433.6 288 416 288zM256 96C238.327 96 224 110.327 224 128S238.327 160 256 160S288 145.673 288 128S273.673 96 256 96zM320 288L192 288L192 384C192 419.29 220.71 448 256 448S320 419.29 320 384L320 288z" />
    <glyph glyph-name="loop-2"
      unicode="&#xE033;"
      horiz-adv-x="512" d=" M444.84 428.8400000000001C398.032 479.944 330.76 512 256 512C114.616 512 0 397.384 0 256H48C48 370.872 141.128 464 256 464C317.512 464 372.768 437.288 410.848 394.848L336 320H511.9999999999999V496L444.8399999999999 428.8400000000001z M464 256C464 141.128 370.872 48 256 48C194.488 48 139.232 74.712 101.152 117.152L176 192H0V16L67.16 83.16C113.968 32.0479999999999 181.24 0 256 0C397.384 0 512 114.616 512 256H464z" />
    <glyph glyph-name="loop-3"
      unicode="&#xE034;"
      horiz-adv-x="512" d=" M160 192L160 288L256 288L128 416L0 288L96 288L96 128L288 128L224 192zM416 224L416 384L224 384L288 320L352 320L352 224L256 224L384 96L512 224z" />
    <glyph glyph-name="loop"
      unicode="&#xE035;"
      horiz-adv-x="512" d=" M64 352H384V256L512 384L384 512V416H0V224H64zM448 160H128V256L0 128L128 0V96H512V288H448z" />
    <glyph glyph-name="minus"
      unicode="&#xE036;"
      horiz-adv-x="512" d=" M0 304V208C0 199.16 7.16 192 16 192H496C504.84 192 512 199.16 512 208V304C512 312.8400000000001 504.84 320 496 320H16C7.16 320 0 312.8400000000001 0 304z" />
    <glyph glyph-name="mobile"
      unicode="&#xE037;"
      horiz-adv-x="512" d=" M368 512H144C117.6 512 96 490.4 96 464V48C96 21.6 117.6 0 144 0H368C394.4 0 416 21.6 416 48V464C416 490.4 394.4 512 368 512zM192 488H320V472H192V488zM256 32C238.328 32 224 46.328 224 64S238.328 96 256 96S288 81.672 288 64S273.6720000000001 32 256 32zM384 128H128V448H384V128z" />
    <glyph glyph-name="new-tab"
      unicode="&#xE038;"
      horiz-adv-x="512" d=" M96 480V96H480V480H96zM448 128H128V448H448V128zM64 64V400L32 432V32H432L400 64H64z M176 384L256 304L160 208L208 160L304 256L384 176V384z" />
    <glyph glyph-name="notebook"
      unicode="&#xE039;"
      horiz-adv-x="512" d=" M449.18 480L64 480L64 416L17.18 416C8.38 416 0 409.736 0 400.9360000000001L0 368.9360000000001C0 360.136 8.38 352 17.18 352L64 352L64 320L17.18 320C8.38 320 0 313.736 0 304.9360000000001L0 272.9360000000001C0 264.136 8.38 256 17.18 256L64 256L64 224L17.18 224C8.38 224 0 217.736 0 208.936L0 176.936C0 168.137 8.38 160 17.18 160L64 160L64 128L17.18 128C8.38 128 0 121.736 0 112.936L0 80.936C0 72.136 8.38 64 17.18 64L64 64L64 0L449.18 0C466.854 0 480 15.263 480 32.936L480 448.936C480 466.609 466.854 480 449.18 480zM160 32L96 32L96 64L113.18 64C121.98 64 128 72.136 128 80.936L128 112.936C128 121.737 121.979 128 113.18 128L96 128L96 160L113.18 160C121.98 160 128 168.136 128 176.936L128 208.936C128 217.737 121.979 224 113.18 224L96 224L96 256L113.18 256C121.98 256 128 264.136 128 272.9360000000001L128 304.9360000000001C128 313.737 121.979 320 113.18 320L96 320L96 352L113.18 352C121.98 352 128 360.136 128 368.9360000000001L128 400.9360000000001C128 409.737 121.98 416 113.18 416L96 416L96 448L160 448L160 32z" />
    <glyph glyph-name="office"
      unicode="&#xE03A;"
      horiz-adv-x="512" d=" M0 0H256V512H0V0zM160 448H224V384H160V448zM160 320H224V256H160V320zM160 192H224V128H160V192zM32 448H96V384H32V448zM32 320H96V256H32V320zM32 192H96V128H32V192zM288 352H512V320H288zM288 0H352V128H448V0H512V288H288z" />
    <glyph glyph-name="pencil"
      unicode="&#xE03B;"
      horiz-adv-x="512" d=" M432 512C476.184 512 512 476.184 512 432C512 413.992 506.048 397.368 496 384L464 352L352 464L384 496C397.368 506.048 413.992 512 432 512zM32 144L0 0L144 32L440 328L328 440L32 144zM357.792 330.208L133.792 106.208L106.216 133.784L330.216 357.784L357.7920000000001 330.208z" />
    <glyph glyph-name="plus"
      unicode="&#xE03C;"
      horiz-adv-x="512" d=" M496 320H320V496C320 504.84 312.84 512 304 512H208C199.16 512 192 504.84 192 496V320H16C7.16 320 0 312.8400000000001 0 304V208C0 199.16 7.16 192 16 192H192V16C192 7.16 199.16 0 208 0H304C312.84 0 320 7.16 320 16V192H496C504.84 192 512 199.16 512 208V304C512 312.8400000000001 504.84 320 496 320z" />
    <glyph glyph-name="print"
      unicode="&#xE03D;"
      horiz-adv-x="512" d=" M128 480L384 480L384 416L128 416zM480 384L32 384C14.4 384 0 369.6 0 352L0 192C0 174.4 14.398 160 32 160L128 160L128 32L384 32L384 160L480 160C497.6 160 512 174.4 512 192L512 352C512 369.6 497.6 384 480 384zM352 64L160 64L160 224L352 224L352 64zM487.2 336C487.2 323.187 476.813 312.8 464.001 312.8C451.188 312.8 440.8 323.187 440.8 336S451.1879999999999 359.2 464.001 359.2C476.814 359.2 487.2 348.813 487.2 336z" />
    <glyph glyph-name="pushpin"
      unicode="&#xE03E;"
      horiz-adv-x="512" d=" M272 512L224 464L272 416L160 288H48L136 200L0 19.696V0H19.696L200 136L288 48V160L416 272L464 224L512 272L272 512zM224 240L192 272L304 384L336 352L224 240z" />
    <glyph glyph-name="radio-checked"
      unicode="&#xE03F;"
      horiz-adv-x="512" d=" M256 512C114.616 512 0 397.384 0 256S114.616 0 256 0S512 114.616 512 256S397.384 512 256 512zM256 64C149.96 64 64 149.96 64 256S149.96 448 256 448C362.04 448 448 362.04 448 256S362.04 64 256 64zM160 256C160 309.016 202.984 352 256 352S352 309.016 352 256C352 202.984 309.016 160 256 160S160 202.984 160 256z" />
    <glyph glyph-name="radio-unchecked"
      unicode="&#xE040;"
      horiz-adv-x="512" d=" M256 512C114.616 512 0 397.384 0 256S114.616 0 256 0S512 114.616 512 256S397.384 512 256 512zM256 64C149.96 64 64 149.96 64 256S149.96 448 256 448C362.04 448 448 362.04 448 256S362.04 64 256 64z" />
    <glyph glyph-name="redo"
      unicode="&#xE041;"
      horiz-adv-x="512" d=" M288 387.8160000000001V512L480 320L288 128V254.9120000000001C64.624 260.1520000000001 74.208 103.0160000000001 131.072 0C-9.28 151.704 20.52 394.784 288 387.816z" />
    <glyph glyph-name="remove"
      unicode="&#xE042;"
      horiz-adv-x="512" d=" M96 0H416L448 352H64zM320 448V512H192V448H32V352L64 384H448L480 352V448H320zM288 448H224V480H288V448z" />
    <glyph glyph-name="search"
      unicode="&#xE043;"
      horiz-adv-x="512" d=" M496.128 76.304L374.848 179.448C362.312 190.728 348.904 195.912 338.072 195.408C366.696 228.944 383.992 272.448 383.992 319.992C383.992 426.032 298.032 511.992 191.992 511.992S-0.008 426.032 -0.008 319.992S85.952 127.992 191.992 127.992C239.544 127.992 283.048 145.288 316.584 173.912C316.08 163.08 321.264 149.672 332.544 137.136L435.688 15.856C453.3519999999999 -3.768 482.1999999999999 -5.424 499.8 12.176S515.7439999999999 58.624 496.1199999999999 76.288zM192 192C121.312 192 64 249.304 64 320S121.304 448 192 448S320 390.6960000000001 320 320S262.6960000000001 192 192 192z" />
    <glyph glyph-name="share"
      unicode="&#xE044;"
      horiz-adv-x="512" d=" M432 160C409.424 160 389.04 150.632 374.496 135.584L158.992 243.336C159.648 247.464 160 251.688 160 256S159.648 264.536 158.992 268.664L374.496 376.416C389.04 361.368 409.424 352 432 352C476.184 352 512 387.8160000000001 512 432S476.184 512 432 512S352 476.184 352 432C352 427.688 352.352 423.464 353.008 419.336L137.504 311.584C122.96 326.632 102.576 336 80 336C35.816 336 0 300.184 0 256S35.816 176 80 176C102.576 176 122.96 185.368 137.504 200.416L353.008 92.664C352.352 88.536 352 84.312 352 80C352 35.816 387.8160000000001 0 432 0S512 35.816 512 80C512 124.184 476.184 160 432 160z" />
    <glyph glyph-name="smiley"
      unicode="&#xE045;"
      horiz-adv-x="512" d=" M256 0C397.385 0 512 114.615 512 256S397.385 512 256 512S0 397.385 0 256S114.615 0 256 0zM256 464C370.875 464 464 370.875 464 256S370.875 48 256 48S48 141.125 48 256S141.125 464 256 464zM128 352C128 369.673 142.327 384 160 384C177.673 384 192 369.673 192 352C192 334.327 177.673 320 160 320C142.327 320 128 334.327 128 352zM320 352C320 369.673 334.327 384 352 384C369.673 384 384 369.673 384 352C384 334.327 369.673 320 352 320C334.327 320 320 334.327 320 352zM352.049 198.37L393.213 173.672C365.2320000000001 127.137 314.255 96 256 96C197.745 96 146.768 127.137 118.787 173.672L159.951 198.37C179.538 165.796 215.222 144 256 144C296.778 144 332.462 165.796 352.049 198.37z" />
    <glyph glyph-name="star"
      unicode="&#xE046;"
      horiz-adv-x="512" d=" M512 313.475L335.11 339.179L256 499.47L176.892 339.179L0 313.475L128 188.706L97.784 12.53L256 95.709L414.216 12.53L383.999 188.706L512 313.475z" />
    <glyph glyph-name="switch"
      unicode="&#xE047;"
      horiz-adv-x="512" d=" M320 438.704V370.728C338.104 362.824 354.752 351.52 369.136 337.136C399.36 306.92 416 266.736 416 224S399.36 141.08 369.136 110.864C338.92 80.648 298.736 64.0000000000001 256 64.0000000000001S173.08 80.64 142.864 110.864C112.648 141.0800000000001 96 181.264 96 224S112.64 306.92 142.864 337.136C157.248 351.52 173.896 362.824 192 370.728V438.704C99.472 411.1600000000001 32 325.464 32 224C32 100.288 132.288 0 256 0S480 100.288 480 224C480 325.472 412.528 411.168 320 438.704zM224 512H288V256H224z" />
    <glyph glyph-name="tab"
      unicode="&#xE048;"
      horiz-adv-x="512" d=" M480 512H512V256H480V512z M0 256H32V0H0V256z M160 160H512V96H160V16L48 128L160 240V160z M352 352H0V416H352V496L464 384L352 272z" />
    <glyph glyph-name="tags"
      unicode="&#xE049;"
      horiz-adv-x="544" d=" M496 480L384 480C357.6 480 320.727 464.727 302.059 446.059L113.941 257.9410000000001C95.274 239.274 95.274 208.727 113.941 190.059L254.059 49.942C272.726 31.274 303.273 31.274 321.9410000000001 49.942L510.058 238.059C528.727 256.727 544 293.6 544 320L544 432C544 458.4 522.4 480 496 480zM432 320C405.49 320 384 341.49 384 368S405.49 416 432 416S480 394.51 480 368S458.51 320 432 320zM43.313 212.687L214.502 41.498C196.37 31.918 173.271 34.729 158.059 49.942L17.941 190.059C-0.726 208.727 -0.726 239.274 17.941 257.9410000000001L206.059 446.059C224.727 464.727 261.6 480 288 480L43.313 235.314C37.091 229.091 37.091 218.91 43.313 212.687z" />
    <glyph glyph-name="twitter"
      unicode="&#xE04A;"
      horiz-adv-x="512" d=" M512 414.7920000000001C493.16 406.44 472.92 400.7920000000001 451.672 398.256C473.36 411.256 490.016 431.8400000000001 497.856 456.368C477.56 444.328 455.08 435.592 431.152 430.88C411.992 451.296 384.688 464.048 354.48 464.048C296.4720000000001 464.048 249.44 417.016 249.44 359.008C249.44 350.776 250.368 342.76 252.16 335.072C164.864 339.456 87.456 381.272 35.648 444.824C26.608 429.312 21.424 411.264 21.424 392.016C21.424 355.568 39.968 323.416 68.152 304.584C50.936 305.128 34.736 309.856 20.576 317.7199999999999C20.568 317.28 20.568 316.8399999999999 20.568 316.4C20.568 265.504 56.776 223.0559999999999 104.832 213.4C96.016 211 86.736 209.712 77.16 209.712C70.392 209.712 63.808 210.376 57.4 211.6C70.768 169.872 109.56 139.496 155.528 138.656C119.576 110.48 74.288 93.6879999999999 25.072 93.6879999999999C16.592 93.6879999999999 8.232 94.1839999999999 0.016 95.1599999999999C46.504 65.3519999999999 101.72 47.9599999999999 161.04 47.9599999999999C354.248 47.9599999999999 459.904 208.0239999999999 459.904 346.832C459.904 351.3839999999999 459.8 355.92 459.6 360.424C480.128 375.232 497.936 393.736 512.0160000000001 414.8z" />
    <glyph glyph-name="undo"
      unicode="&#xE04B;"
      horiz-adv-x="512" d=" M380.928 0C437.792 103.016 447.376 260.152 224 254.9120000000001V128L32 320L224 512V387.8160000000001C491.48 394.784 521.288 151.712 380.928 0z" />
    <glyph glyph-name="unlocked"
      unicode="&#xE04C;"
      horiz-adv-x="512" d=" M384 480C436.936 480 480 436.9360000000001 480 384V288H416V384C416 401.648 401.648 416 384 416H320C302.352 416 288 401.648 288 384V288H296C309.2 288 320 277.2 320 264V24C320 10.8 309.2 0 296 0H24C10.8 0 0 10.8 0 24V264C0 277.2 10.8 288 24 288H224V384C224 436.9360000000001 267.064 480 320 480H384z" />
    <glyph glyph-name="user"
      unicode="&#xE04D;"
      horiz-adv-x="512" d=" M288 158.696V185.088C323.248 204.952 352 254.4720000000001 352 304C352 383.528 352 448 256 448S160 383.528 160 304C160 254.4720000000001 188.752 204.944 224 185.088V158.696C115.448 149.824 32 96.4880000000001 32 32H480C480 96.48 396.552 149.816 288 158.696z" />
    <glyph glyph-name="users"
      unicode="&#xE04E;"
      horiz-adv-x="576" d=" M384 126.696V153.088C419.248 172.952 448 222.472 448 272C448 351.528 448 416 352 416S256 351.528 256 272C256 222.472 284.752 172.944 320 153.088V126.696C211.448 117.824 128 64.4880000000001 128 0H576C576 64.48 492.552 117.816 384 126.696z M163.6 114.336C191.256 132.408 225.64 146.152 263.496 154.544C255.968 163.432 249.144 173.352 243.248 184.056C228.04 211.672 220 242.088 220 272C220 315.024 220 355.656 235.304 388.88C250.16 421.136 276.872 441.128 314.9120000000001 448.624C306.456 486.864 283.944 512 224 512C128 512 128 447.528 128 368C128 318.472 156.7520000000001 268.944 192 249.088V222.696C83.448 213.824 0 160.488 0 96H139.504C146.76 102.456 154.8 108.584 163.6 114.336z" />
    <glyph glyph-name="warning"
      unicode="&#xE04F;"
      horiz-adv-x="512" d=" M256 465.616L470.552 38H41.448L256 465.616zM256 512C244.968 512 233.928 504.56 225.56 489.672L7.024 54.12C-9.72 24.352 4.52 0 38.68 0H473.336C507.488 0 521.7280000000001 24.352 504.984 54.12H504.984L286.4480000000001 489.672C278.0800000000001 504.552 267.04 512 256.0080000000001 512V512z M288 96C288 78.328 273.6720000000001 64 256 64S224 78.328 224 96C224 113.672 238.328 128 256 128S288 113.672 288 96z M256 160C238.328 160 224 174.328 224 192V288C224 305.6720000000001 238.328 320 256 320S288 305.6720000000001 288 288V192C288 174.328 273.6720000000001 160 256 160z" />
    <glyph glyph-name="cloudy"
      unicode="&#xE050;"
      horiz-adv-x="512" d=" M208 448C216.833 448 224 455.167 224 464V496C224 504.833 216.833 512 208 512S192 504.833 192 496V464C192 455.167 199.167 448 208 448zM332.438 405.833L355.063 428.458C361.312 434.708 361.312 444.833 355.063 451.083C348.813 457.333 338.688 457.333 332.438 451.083L309.813 428.458C303.563 422.208 303.563 412.083 309.813 405.833C316.062 399.583 326.188 399.583 332.438 405.833zM16 288H48C56.833 288 64 295.1670000000001 64 304S56.833 320 48 320H16C7.167 320 0 312.833 0 304S7.167 288 16 288zM352 304C352 295.1670000000001 359.167 288 368 288H400C408.8330000000001 288 416 295.1670000000001 416 304S408.8330000000001 320 400 320H368C359.167 320 352 312.833 352 304zM83.541 405.833C89.792 399.583 99.917 399.583 106.166 405.833C112.417 412.083 112.417 422.208 106.166 428.458L83.541 451.083C77.291 457.333 67.167 457.333 60.916 451.083C54.666 444.833 54.666 434.708 60.916 428.458L83.541 405.833zM400 256C394.688 256 389.438 255.625 384.2080000000001 254.875C367.437 277.75 345.084 295.208 319.75 306.375C318.459 367 268.938 416 208 416C146.25 416 96 365.75 96 304C96 286.562 100.334 270.25 107.5 255.562C47.875 253.125 0 204.188 0 144C0 82.25 50.25 32 112 32C125.688 32 139.084 34.5 151.709 39.333C180.666 14.083 217.5 0 256 0C294.5420000000001 0 331.333 14.083 360.291 39.333C372.916 34.5 386.312 32 400 32C461.75 32 512 82.25 512 144S461.75 256 400 256zM256 320C210.062 320 167.5 300.188 137.625 266.75C131.688 277.9170000000001 128 290.458 128 304C128 348.188 163.812 384 208 384C247.812 384 280.562 354.833 286.708 316.75C276.688 318.75 266.459 320 256 320z" />
    <glyph glyph-name="one-way"
      unicode="&#xE052;"
      horiz-adv-x="512" d=" M192 192M192 192L192 192L192 4.288L192 0L232 0L280 0L320 0L320 4.288L320 160L320 192L256 256L256 256zM192 512M192 512L192 461.344L192 394.688L192 352.032L256 416.032L320 352.032L320 352.032L320 394.688L320 461.344L320 512L304.8 512L207.2 512zM96 224M96 224L192 224L256 288L320 224L416 224L256 384z" />
    <glyph glyph-name="phone"
      unicode="&#xE053;"
      horiz-adv-x="512" d=" M256 450.1504C212.66944 450.1504 103.76704 440.47872 54.44096 405.59616C5.12 370.70848 21.0432 289.7664 76.59008 301.06112C139.14112 313.7792 152.10496 345.0470400000001 118.88128 375.38304C118.88128 375.38304 176.57856 401.04448 256 401.04448M256 450.1504C299.33056 450.1504 408.2380800000001 440.47872 457.55904 405.59616C506.8799999999999 370.7136000000001 490.9567999999999 289.7664 435.40992 301.06112C372.85888 313.7792 359.89504 345.0470400000001 393.11872 375.38304C393.11872 375.38304 335.41632 401.04448 256 401.04448M448.14848 165.8726400000001C443.55072 207.2780800000001 422.58944 215.72608 389.17632 261.5961600000001C359.13216 302.85312 351.50848 333.2454400000001 348.56448 376.1868800000001C348.56448 376.1868800000001 337.2032 381.58336 321.51552 381.58336C321.51552 381.58336 326.12864 332.01664 255.99488 332.01664C185.856 332.01664 190.46912 381.58336 190.46912 381.58336C174.78144 381.58336 163.42016 376.18688 163.42016 376.18688C160.48128 333.2454400000001 152.8576 302.85312 122.80832 261.5961600000001C89.40032 215.72608 68.43904 207.27808 63.84128 165.8726400000001C53.7088 74.6291199999999 180.01408 65.99168 256 65.99168C256 65.99168 256 65.99168 256 65.99168C331.9808000000001 65.99168 458.2912000000001 74.6291199999999 448.14848 165.8726400000001zM256 146.9696C214.72768 146.9696 181.26848 180.43392 181.26848 221.70624S214.72768 296.4377600000001 256 296.4377600000001C297.27232 296.4377600000001 330.7315200000001 262.97344 330.7315200000001 221.70624S297.27232 146.9696 256 146.9696z" />
    <glyph glyph-name="pin-flag"
      unicode="&#xE054;"
      horiz-adv-x="512" d=" M512 336L96 448V512H64V64H0V0H160V64H96V224z" />
    <glyph glyph-name="reverse"
      unicode="&#xE055;"
      horiz-adv-x="512" d=" M162.6112 484.33664L54.85568 317.06624H133.87264V29.71136H191.34464V317.06112H270.37184zM378.1273600000001 194.93888V482.28352H320.6553600000001V194.93376H241.63328L349.3888000000001 27.66336L457.14432 194.93376z" />
    <glyph glyph-name="road"
      unicode="&#xE056;"
      horiz-adv-x="512" d=" M365.90592 491.52L146.09408 491.52L20.48 20.48L491.52 20.48L365.90592 491.52zM271.69792 37.6832L240.29184 37.6832L240.29696 100.55168L271.70304 100.55168L271.69792 37.6832zM271.69792 163.38944L240.29184 163.38944L240.29184 226.2272L271.69792 226.2272L271.69792 163.38944zM271.69792 289.09056L240.29184 289.09056L240.29184 351.92832L271.69792 351.92832L271.69792 289.09056zM271.69792 414.76608L240.29184 414.76608L240.29696 477.5936L271.70304 477.5936L271.69792 414.76608z" />
    <glyph glyph-name="round"
      unicode="&#xE057;"
      horiz-adv-x="512" d=" M0 224M0 224L96 224L143.2 268L192 224L288 224L140 352zM278.528 479.584M278.528 479.584C190.848 459.776 157.632 432.7680000000001 117.344 378.24L112.672 370.7200000000001L96.544 342.432L137.984 383.04L192 336C191.808 336.32 205.568 351.968 210.56 357.76C257.152 408.48 322.848 395.68 368.8640000000001 369.664C432.7680000000001 331.04 451.456 255.168 415.8400000000001 191.712C380.2240000000001 128.224 297.824 104 233.9200000000001 142.624C202.7200000000001 161.472 184.1280000000001 177.152 176.0640000000001 211.168L175.3600000000001 212.768L142.9760000000001 236.416L96 193.856C110.208 133.984 146.624 91.776 195.968 61.952C296.096 1.44 422.944 34.944 482.848 141.728C542.7520000000001 248.512 507.008 389.7920000000001 406.88 450.3040000000001C381.856 465.4400000000001 354.848 475.552 327.904 479.232C317.792 480.608 288.608 479.776 278.528 479.584z" />
    <glyph glyph-name="enter"
      unicode="&#xE058;"
      horiz-adv-x="512" d=" M224 128.032L352 256L224 383.968L224 320L0 320L0 192L224 192zM128 512L128 384L160 384L160 480L416 480L416 32L160 32L160 128L128 128L128 0L512 0L512 512z" />
    <glyph glyph-name="exit"
      unicode="&#xE059;"
      horiz-adv-x="512" d=" M128 192L352 192L352 320L128 320L128 383.968L0 256L128 128.032zM128 512L128 384L160 384L160 480L416 480L416 32L160 32L160 128L128 128L128 0L512 0L512 512z" />
    <glyph glyph-name="icons"
      unicode="&#xE05A;"
      horiz-adv-x="512" d=" M288 0L288 224L512 224L512 0L288 0zM448 160L352 160L352 64L448 64L448 160zM288 512L512 512L512 288L288 288L288 512zM352 352L448 352L448 448L352 448L352 352zM0 224L224 224L224 0L0 0L0 224zM64 64L160 64L160 160L64 160L64 64zM0 512L224 512L224 288L0 288L0 512zM64 352L160 352L160 448L64 448L64 352z" />
    <glyph glyph-name="list"
      unicode="&#xE05B;"
      horiz-adv-x="512" d=" M0 32L0 96L512 96L512 32L0 32zM0 224L512 224L512 160L0 160L0 224zM0 352L512 352L512 288L0 288L0 352zM0 480L512 480L512 416L0 416L0 480z" />
    <glyph glyph-name="around-point"
      unicode="&#xE05C;"
      horiz-adv-x="512" d=" M256 0C114.8416 0 0 114.8416 0 256C0 397.1584000000001 114.8416 512 256 512C397.1584 512 512 397.1584000000001 512 256C512 114.8416 397.1584 0 256 0zM256 481.28C131.77856 481.28 30.72 380.2214400000001 30.72 256C30.72 131.77856 131.77856 30.72 256 30.72C380.2214400000001 30.72 481.28 131.77856 481.28 256C481.28 380.2214400000001 380.2214400000001 481.28 256 481.28z M317.70112 372.70528C268.52352 421.89824 188.48256 421.89824 139.29472 372.70528C90.10688 323.51744 90.10688 243.4816 139.29472 194.29888C186.79296 146.79552 263.05536 145.16736 312.52992 189.41952L322.5292800000001 179.42016C320.0409600000001 173.04064 321.3516800000001 165.5296 326.4870400000001 160.37888L379.2691200000001 107.5968C386.2067200000001 100.66432 397.46048 100.66432 404.3878400000001 107.5968C411.3203200000001 114.52928 411.3203200000001 125.78816 404.3878400000001 132.71552L351.62112 185.4976C346.4704000000001 190.64832 338.95424 191.9488 332.58496 189.44512L322.58048 199.45472C366.82752 248.94464 365.20448 325.20704 317.70112 372.70528zM154.368 209.37216C113.48992 250.24512 113.48992 316.7590400000001 154.368 357.63712C195.24096 398.5152 261.75488 398.51008 302.63296 357.63712C343.5008000000001 316.76416 343.5008000000001 250.25536 302.63296 209.37216C261.75488 168.48896 195.24608 168.48896 154.368 209.37216z M179.2768 333.63968C197.13024 351.49312 217.8816 364.45696 239.70304 372.5363200000001C214.98368 373.94432 188.50304 364.32384 168.192 344.0128000000001C147.59424 323.41504 138.00448 296.48384 139.7504 271.4624C147.7632 293.92384 160.94208 315.30496 179.2768 333.63968z" />
    <glyph glyph-name="start"
      unicode="&#xE05D;"
      horiz-adv-x="512" d=" M0 512L512 512L512 320L0 320zM0 320L32 320L32 64L0 64zM480 320L512 320L512 64L480 64zM128 0M128 0L384 0L320 96L192 96zM192 128M192 128L320 128L288 192L224 192zM224 224M224 224L288 224L256 288L256 288zM65.472 477.088M65.472 477.088C52.096 477.088 40.96 474.048 32.224 467.456C23.552 460.864 18.72 450.4 18.72 439.552C18.72 430.24 22.336 421.44 29.12 415.488C35.872 409.536 45.152 406.144 57.184 403.9360000000001L66.528 402.976C73.312 401.728 76.48 399.424 77.952 398.1760000000001L78.976 398.1760000000001C80.512 396.8640000000001 81.056 395.8400000000001 81.056 392.416C81.056 388.576 79.552 386.496 76.896 384.704C74.208 382.9120000000001 69.792 381.824 62.336 381.824C57.568 381.824 52.896 382.336 47.776 383.7440000000001C42.624 385.152 36.736 387.584 31.136 390.464L18.656 397.184L18.656 383.712L18.656 369.28L18.656 364.48L24.896 362.56C31.552 360.288 37.28 357.9840000000001 43.616 356.8C49.984 355.616 56.48 354.88 62.336 354.88C77.312 354.88 89.504 357.92 98.72 364.5120000000001C107.968 371.072 113.28 381.7280000000001 113.28 393.3760000000001C113.28 403.2000000000001 109.856 411.9360000000001 102.88 418.4000000000001C95.936 424.9600000000001 85.952 428.7680000000001 73.792 430.9120000000001L64.448 432.8320000000001C56.864 434.144 52.704 436.1280000000001 51.968 436.6720000000001C51.072 437.408 49.888 437.5360000000001 49.888 440.5120000000001C49.888 443.9680000000001 50.592 445.6320000000001 52.992 447.2320000000001C55.488 448.8640000000001 60.48 450.112 67.552 450.112C71.456 450.112 75.616 449.2800000000001 80.032 448.1920000000001C84.448 447.1040000000001 89.28 445.7280000000001 94.592 443.3920000000001L106.016 438.5920000000001L106.016 448.1920000000001L112.256 448.1920000000001L143.424 448.1920000000001L143.424 364.48L143.424 356.7680000000001L151.744 356.7680000000001L167.328 356.7680000000001L175.648 356.7680000000001L175.648 364.48L175.648 448.1920000000001L205.792 448.1920000000001L214.112 448.1920000000001L214.112 455.9040000000001L214.112 467.4560000000001L214.112 475.1360000000001L205.792 475.1360000000001L112.256 475.1360000000001L104.352 474.2400000000001L103.968 473.1200000000001L103.968 463.616L103.968 470.1120000000001L100.864 471.296C94.88 473.152 89.024 474.2080000000001 83.2 475.1360000000001C77.376 476.0640000000001 71.2 477.056 65.536 477.056zM236.96 475.168L231.616 474.336L229.664 470.368L187.04 367.424L182.88 356.832L195.36 356.832L210.944 356.832L217.184 356.832L218.208 362.592L226.528 383.744L264.992 383.744L273.312 362.592L275.392 356.832L280.576 356.832L296.16 356.832L304.48 356.832L308.64 356.832L312.8 356.832L327.36 356.832L335.68 356.832L335.68 364.544L335.68 400.16L344 400.16C348.8 400.16 351.808 399.264 353.344 398.24C354.656 397.376 357.28 393.952 360.608 387.648L375.168 361.664L377.248 356.864L382.432 356.864L398.016 356.864L411.5200000000001 356.864L406.336 368.416L390.752 396.32C387.488 402.464 384.096 407.712 380.3520000000001 411.712C379.8080000000001 412.288 378.848 412.128 378.2720000000001 412.672C380.6400000000001 414.4 383.8080000000001 415.2 385.5360000000001 417.472C389.9520000000001 423.2 391.7760000000001 430.048 391.7760000000001 437.664C391.7760000000001 442.048 389.4720000000001 444.384 388.2880000000001 448.256L391.7760000000001 448.256L422.9440000000001 448.256L422.9440000000001 364.544L422.9440000000001 356.832L431.2640000000001 356.832L445.8240000000001 356.832L454.1440000000001 356.832L454.1440000000001 364.544L454.1440000000001 448.256L485.3120000000001 448.256L493.6320000000001 448.256L493.6320000000001 455.968L493.6320000000001 467.52L493.6320000000001 475.1999999999999L485.3120000000001 475.1999999999999L391.7760000000001 475.1999999999999L384.4160000000001 475.1999999999999L383.4560000000001 467.552L384.0320000000001 458.2719999999999C382.1760000000001 461.2479999999999 382.1760000000001 463.3919999999999 379.2960000000001 465.6319999999999C370.9760000000001 472.192 359.8400000000001 475.264 346.0480000000001 475.264L312.8000000000002 475.264L304.4800000000002 475.264L304.4800000000002 467.5839999999999L304.4800000000002 367.52L261.8560000000001 470.464L259.7760000000001 475.264L254.5920000000002 475.264zM335.712 448.224L346.112 448.224C352.032 448.224 354.88 446.7200000000001 356.512 445.344C358.176 444 359.616 442.144 359.616 437.632C359.616 433.12 358.24 431.392 356.512 429.952C354.88 428.576 352.064 427.072 346.112 427.072L335.712 427.072L335.712 448.224zM245.28 431.872L254.624 410.7200000000001L236.96 410.7200000000001zM363.776 417.44L364.8 412.64L363.776 409.76C363.424 410.08 363.104 410.496 362.752 410.7200000000001C359.808 412.64 355.936 412.8640000000001 352.352 413.6C356.544 414.208 360.416 415.488 363.776 417.44z" />
    <glyph glyph-name="stop"
      unicode="&#xE05E;"
      horiz-adv-x="512" d=" M146.144 512M146.144 512L141.888 506.656L5.344 370.112L0 365.856L0 358.4L0 153.6L0 146.144L5.344 141.888L141.888 5.3440000000001L146.144 1e-13L153.6 1e-13L358.4 1e-13L365.856 1e-13L370.112 5.3440000000001L506.6559999999999 141.888L511.9999999999999 146.144L511.9999999999999 153.6L511.9999999999999 358.4000000000001L511.9999999999999 365.856L506.6559999999999 370.112L370.112 506.6560000000001L365.856 512L358.4 512L153.6 512L146.144 512zM160 477.856L352 477.856L477.856 352L477.856 160L352 34.144L160 34.144L34.144 160L34.144 352L160 477.856zM98.784 327.168M98.784 327.168C85.92 327.168 75.2 324.288 66.784 316.544C58.432 308.8 53.6 296.3200000000001 53.6 283.584C53.6 272.64 57.44 262.944 63.936 255.936C70.432 248.96 79.648 244.736 91.232 242.112L99.712 240C106.24 238.528 110.496 236.192 111.936 234.688C113.44 233.152 113.824 232.3519999999999 113.824 228.32C113.856 223.808 112.64 221.92 110.08 219.84C107.488 217.728 103.136 215.584 95.968 215.584C91.36 215.584 86.784 217.12 81.856 218.752C76.896 220.416 71.264 222.784 65.856 226.2080000000001L54.56 233.632L54.56 217.696L54.56 201.7600000000001L54.56 195.3920000000001L59.264 193.28C65.696 190.624 71.968 188.288 78.08 186.912C84.224 185.5360000000001 90.336 184.8 95.968 184.8C110.368 184.8 122.848 187.712 131.712 195.424C140.64 203.104 144.896 215.744 144.896 229.408C144.896 240.928 141.248 251.584 134.56 259.168C127.872 266.848 118.976 271.52 107.264 274.048L97.856 275.1040000000001C90.56 276.64 86.304 279.7440000000001 85.632 280.416C84.736 281.28 84.672 282.208 84.672 285.728C84.672 289.7920000000001 85.152 291.264 87.488 293.1520000000001C89.888 295.072 93.856 296.352 100.672 296.352C104.416 296.352 108.64 295.488 112.896 294.24C117.152 292.9600000000001 121.92 290.624 127.008 287.872L138.304 282.56L138.304 296.384L138.304 312.3200000000001L137.888 317.728L132.672 320.8C126.912 322.976 121.344 325.024 115.744 326.112C110.112 327.232 104.256 327.168 98.784 327.168zM303.904 327.168C287.168 327.168 272 320.16 261.568 306.976C251.168 293.824 246.528 276.544 246.528 255.968C246.528 235.392 251.168 218.0800000000001 261.568 204.96C272.032 191.84 287.168 184.768 303.904 184.768C320.608 184.768 334.912 191.84 345.312 204.96C355.712 218.1440000000001 360.3520000000001 235.4240000000001 360.3520000000001 255.968C360.3520000000001 276.544 355.7120000000001 293.856 345.312 306.976C334.912 320.16 320.608 327.168 303.904 327.168zM150.528 325.0560000000001L143.168 324.48L143.008 316.576L143.008 302.752L143.008 293.184L150.528 293.184L180.64 293.184L180.64 196.48L180.64 186.912L188.16 186.912L202.272 186.912L210.752 186.912L210.752 196.48L210.752 293.1840000000001L240.864 293.1840000000001L248.384 293.1840000000001L248.384 302.7520000000001L248.384 316.576L248.384 325.0880000000001L240.864 325.0880000000001zM381.056 325.0560000000001L373.696 324.48L373.536 316.576L373.536 196.48L373.536 186.912L381.056 186.912L396.096 186.912L403.616 186.912L403.616 196.48L403.616 235.808L413.952 235.808C427.072 235.808 437.92 238.432 445.952 246.432C454.016 254.4000000000001 458.1759999999999 266.848 458.1759999999999 280.448C458.1759999999999 293.952 453.9839999999999 305.44 445.952 313.408C437.952 321.408 427.104 325.0560000000001 413.984 325.0560000000001zM303.904 296.352C312.384 296.352 317.056 293.6 321.792 286.784C326.528 279.968 329.312 269.7920000000001 329.312 255.968C329.312 242.2080000000001 326.528 231.968 321.792 225.1520000000001C317.056 218.304 312.384 215.584 303.904 215.584C295.424 215.584 289.92 218.272 285.088 225.152C280.32 231.968 277.568 242.2080000000001 277.568 255.968C277.568 269.7920000000001 280.352 279.968 285.088 286.784C289.92 293.664 295.424 296.352 303.904 296.352zM403.648 294.24L413.9840000000001 294.24C419.2960000000001 294.24 422.432 292.0320000000001 424.3200000000001 289.9840000000001C426.2080000000001 287.968 427.136 285.8880000000001 427.136 280.416C427.136 274.88 426.1760000000001 271.808 424.3200000000001 269.7920000000001C422.4320000000001 267.776 419.2960000000001 266.592 413.9840000000001 266.592L403.648 266.592z" />
    <glyph glyph-name="ticket"
      unicode="&#xE05F;"
      horiz-adv-x="512" d=" M512 192L512 96Q512 83 502.5 73.5T480 64L192 64L192 80Q192 86.5 187.25 91.25T176 96T164.75 91.25T160 80L160 64L32 64Q19 64 9.5 73.5T0 96L0 192Q26.5 192 45.25 210.75T64 256T45.25 301.25T0 320L0 416Q0 429 9.5 438.5T32 448L160 448L160 432Q160 425.5 164.75 420.75T176 416T187.25 420.75T192 432L192 448L480 448Q493 448 502.5 438.5T512 416L512 320Q485.5 320 466.75 301.25T448 256T466.75 210.75T512 192zM192 368Q192 374.5 187.25 379.25T176 384T164.75 379.25T160 368L160 336Q160 329.5 164.75 324.75T176 320T187.25 324.75T192 336L192 368zM192 272Q192 278.5 187.25 283.25T176 288T164.75 283.25T160 272L160 240Q160 233.5 164.75 228.75T176 224T187.25 228.75T192 240L192 272zM192 176Q192 182.5 187.25 187.25T176 192T164.75 187.25T160 176L160 144Q160 137.5 164.75 132.75T176 128T187.25 132.75T192 144L192 176z" />
    <glyph glyph-name="tripit"
      unicode="&#xE060;"
      horiz-adv-x="512" d=" M309.5552 236.40576C307.4406400000001 241.88416 304.44544 247.05536 300.63616 251.7504C309.1456 256.75264 315.8630400000001 260.69504 315.8630400000001 260.69504L392.0998400000001 305.81248C391.2192000000001 308.52096 390.7328000000001 311.41888 390.7328000000001 314.42432C390.7328000000001 329.8611200000001 403.2768000000001 342.36928 418.7596800000001 342.36928S446.7916800000001 329.8611200000001 446.7916800000001 314.42432C446.7916800000001 298.99776 434.2425600000001 286.4896 418.7596800000001 286.4896C412.4620800000001 286.4896 406.6662400000002 288.5888 401.9814400000001 292.09088C385.0291200000002 281.20576 361.2416000000001 266.5984 324.9100800000001 245.34528L309.5552 236.40576zM321.51552 171.72992C318.90944 170.98752 316.3648 169.56928 313.91744 167.6544C312.98048 168.192 310.64576 169.51296 310.64576 169.51296C308.11648 170.83904 305.16224 172.3904 297.79456 177.29024C294.11328 173.12768 289.88416 169.3593599999999 285.21472 166.08256L297.42592 158.86336C297.44128 158.85312 303.38048 155.4175999999999 305.4336 154.22976C305.01376 152.40704 304.6912 150.65088 304.6912 149.0739199999999C304.6912 146.8774399999999 304.99328 144.6655999999999 305.60256 142.4896C309.18144 129.8534399999999 322.1504 122.4038399999999 334.5152 125.8905599999999C340.3776 127.5391999999999 345.27232 131.4201599999999 348.2828800000001 136.8012799999999C350.2950400000001 140.3545599999999 351.33952 144.3891199999999 351.33952 148.4646399999999C351.33952 150.7072 351.03744 152.9446399999999 350.4179199999999 155.12576C346.84416 167.75168 333.85984 175.21152 321.51552 171.72992zM299.33056 219.16672C296.3456000000001 245.55008 268.6976 264.10496 237.54752 260.61312C206.40768 257.11104 183.58272 232.88832 186.56256 206.49984C189.54752 180.1216 217.21088 161.5616 248.3456 165.0636799999999C279.4854400000001 168.5504 302.31552 192.77824 299.33056 219.16672zM451.56864 244.64896C435.4508800000001 244.64896 421.92384 233.70752 417.95072 218.88C386.0889600000001 219.38176 349.8547200000001 219.74016 313.13408 219.88864C313.27744 217.67168 313.28768 215.43936 313.16992 213.19168C312.95488 209.45408 312.3456 205.7984 311.3984 202.23488C348.5337600000001 202.37824 385.19808 202.73664 417.4028800000001 203.22816C420.5312 187.264 434.63168 175.21152 451.56864 175.21152C470.8044800000001 175.21152 486.4 190.75072 486.4 209.92512S470.80448 244.64896 451.56864 244.64896zM188.04224 173.10208C185.70752 175.616 183.65952 178.304 181.84704 181.0944C167.97696 172.5798400000001 155.92448 164.93568 145.93536 158.3052800000001C140.65152 163.328 133.89312 166.0211200000001 126.7456 165.7446400000001C119.63392 165.46304 113.0496 162.4422400000001 108.2112 157.2454400000001C103.38816 152.0435200000001 100.864 145.2800000000001 101.13536 138.1836800000001C101.71392 123.5456000000001 114.11456 112.1024000000001 128.80384 112.6604800000001C143.17568 113.2134400000001 154.43456 124.8768000000001 154.43456 139.19744L154.40896 140.22656C154.35264 141.84448 153.96352 143.63648 153.48224 145.50528C154.25024 145.9507200000001 173.8752 157.3171200000001 192.96256 168.3814400000001C191.23712 169.86112 189.5936 171.43296 188.04224 173.10208zM88.3968 293.38112C93.11744 290.21696 98.78528 289.06496 104.37632 290.1606400000001C107.3152 290.71872 110.14656 292.16768 112.87552 294.2361600000001C114.23232 293.18144 139.904 273.31584 139.904 273.31584L182.08256 240.8192L182.1235200000001 240.78848C185.16992 245.83168 188.96384 250.4857600000001 193.3312 254.65344L193.0496 254.86336C155.68384 283.84768 133.2224 298.57792 120.76544 305.93536C121.23136 307.712 121.58976 309.4272 121.58976 310.96832L121.1904 315.03872C118.94272 326.51264 107.74016 334.03392 96.22528 331.78624C90.63936 330.7008 85.8112 327.51104 82.63168 322.80064C80.24064 319.26272 78.99136 315.1872 78.99136 311.00928C78.99136 309.64224 79.12448 308.27008 79.40608 306.89792C80.50176 301.34272 83.69664 296.54016 88.3968 293.38112zM239.46752 319.14496C239.06304 306.63168 238.73024 290.6624 238.49984 275.30752C241.3056000000001 275.6147200000001 244.15232 275.78368 247.03488 275.78368C249.8713600000001 275.78368 252.67712 275.6198400000001 255.4368 275.30752C255.2012800000001 290.6624000000001 254.8889600000001 306.6112 254.48448 319.14496C273.7664 322.7392 287.68256 339.17952 287.68256 358.77888C287.68256 381.14816 269.4144 399.36 246.9632 399.36S206.26432 381.14816 206.26432 358.77888C206.26432 339.17952 220.18048 322.7289600000001 239.46752 319.14496zM173.5168 213.56032C173.62432 215.6544 173.85472 217.728 174.21824 219.77088C142.208 219.5712 111.5904 219.22816 85.22752 218.79296C82.44736 232.51456 70.28736 242.84672 55.71584 242.84672C39.08608 242.84672 25.6 229.40672 25.6 212.82304C25.6 196.25472 39.08608 182.82496 55.71584 182.82496C69.00736 182.82496 80.27648 191.42144 84.25984 203.3408C110.75584 202.90048 141.58336 202.56256 173.85472 202.35776C173.33248 206.04416 173.2096 209.792 173.5168 213.56032z" />
  </font>
</defs>
</svg>
