<svg width="512" height="512" viewBox="0 0 512 512" data-tags="food, knife, fork, dinner, lunch, restaurant" style="margin-left: 8px; margin-top: 8px;"><path d="M 432.00,0.00c-44.186,0.00-80.00,35.816-80.00,80.00l0.00,240.00 l 64.00,0.00 l0.00,192.00 l 96.00,0.00 L 512.00,80.00 C 512.00,35.816, 476.183,0.00, 432.00,0.00zM 208.00,0.00c-8.838,0.00-16.00,7.164-16.00,16.00l0.00,112.00 c0.00,4.418-7.164,8.00-16.00,8.00c-8.838,0.00-16.00-3.582-16.00-8.00L 160.00,16.00 c0.00-8.836-7.164-16.00-16.00-16.00
		c-8.837,0.00-16.00,7.164-16.00,16.00l0.00,112.00 c0.00,4.418-7.164,8.00-16.00,8.00c-8.837,0.00-16.00-3.582-16.00-8.00L 96.00,16.00 c0.00-8.836-7.164-16.00-16.00-16.00c-8.837,0.00-16.00,7.164-16.00,16.00l0.00,112.00
		c0.00,4.418-7.164,8.00-16.00,8.00s-16.00-3.582-16.00-8.00L 32.00,16.00 c0.00-8.836-7.164-16.00-16.00-16.00S0.00,7.164,0.00,16.00l0.00,112.00 l0.00,32.00 c0.00,14.159, 12.529,22.055, 26.502,32.00
		C 44.107,204.532, 64.00,220.318, 64.00,256.00l0.00,256.00 l 96.00,0.00 L 160.00,256.00 c0.00-35.682, 19.893-51.468, 37.496-64.00C 211.469,182.055, 224.00,174.159, 224.00,160.00l0.00-32.00 L 224.00,16.00
		C 224.00,7.164, 216.837,0.00, 208.00,0.00z"></path></svg>