<svg viewBox="0 0 512 512" xmlns="http://www.w3.org/2000/svg"><path d="m252.254 163.174c7.909 0 13.321-5.273 13.321-13.32v-53.004c0-7.909-5.272-13.32-13.321-13.32-8.048 0-13.321 5.272-13.321 13.32v53.004c0 8.047 7.909 13.32 13.321 13.32zm175.106 172.47c0 7.908 5.273 13.321 13.322 13.321h53.003c7.908 0 13.321-5.273 13.321-13.321 0-8.049-5.272-13.321-13.321-13.321h-53.003c-8.049.14-13.322 8.049-13.322 13.321zm-34.548-121.964 37.186-37.186c5.273-5.272 5.273-13.32 0-18.593-5.272-5.272-13.322-5.272-18.593 0l-37.186 37.186c-5.272 5.273-5.272 13.321 0 18.593 5.412 5.273 15.956 5.273 18.593 0zm-283.891 135.285h68.961l77.008-66.324 77.008 66.324h66.324c0-5.273 0-7.909 0-13.321 0-79.644-66.324-145.968-145.968-145.968-79.643 0-145.969 66.324-145.969 145.968 0 5.412 0 8.048 2.636 13.321z"/><path d="m491.048 402.107h-145.968l-92.826-79.644-92.826 79.644h-143.471c-7.909 0-13.321 5.273-13.321 13.322 0 8.048 5.273 13.32 13.321 13.32h161.925l31.774-26.502 47.732-39.822 47.731 39.822 31.913 26.502h161.925c7.908 0 13.321-5.272 13.321-13.32-5.273-8.049-13.319-13.322-21.23-13.322zm-477.728-53.142h53.004c7.909 0 13.32-5.273 13.32-13.321 0-8.049-5.272-13.321-13.32-13.321h-53.004c-7.909.001-13.32 7.91-13.32 13.321.139 8.048 5.411 13.321 13.32 13.321zm98.238-135.285c5.272 5.273 13.32 5.273 18.593 0 5.272-5.272 5.272-13.32 0-18.593l-37.186-37.186c-5.273-5.272-13.321-5.272-18.593 0-5.273 5.273-5.273 13.321 0 18.593z"/></svg>