<?xml version="1.0" encoding="iso-8859-1"?>
<!-- Generator: Adobe Illustrator 16.0.0, SVG Export Plug-In . SVG Version: 6.00 Build 0)  -->
<!DOCTYPE svg PUBLIC "-//W3C//DTD SVG 1.1//EN" "http://www.w3.org/Graphics/SVG/1.1/DTD/svg11.dtd">
<svg version="1.1" id="Capa_1" xmlns="http://www.w3.org/2000/svg" xmlns:xlink="http://www.w3.org/1999/xlink" x="0px" y="0px"
	 width="369.2px" height="369.2px" viewBox="0 0 369.2 369.2" style="enable-background:new 0 0 369.2 369.2;" xml:space="preserve"
	>
<g>
	<g>
		<path d="M181.8,117.6c5.7,0,9.601-3.8,9.601-9.6V69.8c0-5.7-3.8-9.6-9.601-9.6c-5.8,0-9.6,3.8-9.6,9.6V108
			C172.2,113.8,177.9,117.6,181.8,117.6z"/>
		<path d="M308,241.9c0,5.699,3.8,9.6,9.601,9.6H355.8c5.7,0,9.601-3.8,9.601-9.6c0-5.801-3.8-9.601-9.601-9.601h-38.199
			C311.8,232.4,308,238.1,308,241.9z"/>
		<path d="M283.101,154l26.8-26.8c3.8-3.8,3.8-9.6,0-13.4c-3.8-3.8-9.601-3.8-13.4,0l-26.8,26.8c-3.8,3.8-3.8,9.6,0,13.4
			C273.601,157.8,281.2,157.8,283.101,154z"/>
		<path d="M78.5,251.5h49.7l55.5-47.8l55.5,47.8H287c0-3.8,0-5.7,0-9.6c0-57.4-47.8-105.2-105.2-105.2
			c-57.399,0-105.2,47.8-105.2,105.2C76.6,245.8,76.6,247.7,78.5,251.5z"/>
		<path d="M353.9,289.8H248.7L181.8,232.4L114.9,289.8H11.5c-5.7,0-9.6,3.8-9.6,9.601c0,5.8,3.8,9.6,9.6,9.6h116.7l22.9-19.1
			l34.4-28.7l34.4,28.7l23,19.1h116.7c5.699,0,9.6-3.8,9.6-9.6C365.4,293.6,359.601,289.8,353.9,289.8z"/>
		<path d="M9.6,251.5h38.2c5.7,0,9.6-3.8,9.6-9.6c0-5.801-3.8-9.601-9.6-9.601H9.6C3.9,232.3,0,238,0,241.9
			C0.1,247.7,3.9,251.5,9.6,251.5z"/>
		<path d="M80.4,154c3.8,3.8,9.6,3.8,13.4,0c3.8-3.8,3.8-9.6,0-13.4L67,113.8c-3.8-3.8-9.6-3.8-13.4,0c-3.8,3.8-3.8,9.6,0,13.4
			L80.4,154z"/>
	</g>
</g>
<g>
</g>
<g>
</g>
<g>
</g>
<g>
</g>
<g>
</g>
<g>
</g>
<g>
</g>
<g>
</g>
<g>
</g>
<g>
</g>
<g>
</g>
<g>
</g>
<g>
</g>
<g>
</g>
<g>
</g>
</svg>
