<?xml version="1.0" encoding="iso-8859-1"?>
<!-- Generator: Adobe Illustrator 16.0.0, SVG Export Plug-In . SVG Version: 6.00 Build 0)  -->
<!DOCTYPE svg PUBLIC "-//W3C//DTD SVG 1.1//EN" "http://www.w3.org/Graphics/SVG/1.1/DTD/svg11.dtd">
<svg version="1.1" id="Capa_1" xmlns="http://www.w3.org/2000/svg" xmlns:xlink="http://www.w3.org/1999/xlink" x="0px" y="0px"
	 width="363.5px" height="363.5px" viewBox="0 0 363.5 363.5" style="enable-background:new 0 0 363.5 363.5;" xml:space="preserve"
	>
<g>
	<g>
		<path d="M181.7,86.05c5.701,0,9.6-3.8,9.6-9.6v-38.2c0-5.7-3.8-9.6-9.6-9.6c-5.8,0-9.6,3.8-9.6,9.6v38.2
			C172.2,82.25,176,86.05,181.7,86.05z"/>
		<path d="M283.1,122.45l26.8-26.8c3.801-3.8,3.801-9.6,0-13.4c-3.8-3.8-9.6-3.8-13.399,0l-26.8,26.8c-3.801,3.8-3.801,9.6,0,13.4
			C273.5,126.25,279.3,126.25,283.1,122.45z"/>
		<path d="M76.5,219.95h210.399c0-3.8,0-5.699,0-9.6c0-57.4-47.8-105.2-105.2-105.2s-105.2,47.8-105.2,105.2
			C76.5,214.25,76.5,216.15,76.5,219.95z"/>
		<path d="M306.1,210.45c0,5.7,3.8,9.601,9.601,9.601h38.199c5.7,0,9.601-3.8,9.601-9.601c0-5.8-3.8-9.6-9.601-9.6H315.7
			C311.8,200.85,306.1,206.55,306.1,210.45z"/>
		<path d="M353.899,258.25H237.2l-23,19.1l-34.4,28.7l-30.6-28.7l-22.9-19.1H9.6c-3.8,0-9.6,3.8-9.6,9.6s5.7,9.6,9.6,9.6h105.2
			l66.9,57.4l66.9-57.4h105.2c5.7,0,9.6-3.8,9.6-9.6S359.6,258.25,353.899,258.25z"/>
		<path d="M80.4,122.45c3.8,3.8,9.6,3.8,13.4,0c3.8-3.8,3.8-9.6,0-13.4L67,82.25c-3.8-3.8-9.6-3.8-13.4,0c-3.8,3.8-3.8,9.6,0,13.4
			L80.4,122.45z"/>
		<path d="M9.6,219.95h38.2c3.8,0,9.6-3.8,9.6-9.6c0-3.8-3.8-9.601-9.6-9.601H9.6c-5.7,0-9.6,5.7-9.6,9.601
			C0.1,216.15,3.9,219.95,9.6,219.95z"/>
	</g>
</g>
<g>
</g>
<g>
</g>
<g>
</g>
<g>
</g>
<g>
</g>
<g>
</g>
<g>
</g>
<g>
</g>
<g>
</g>
<g>
</g>
<g>
</g>
<g>
</g>
<g>
</g>
<g>
</g>
<g>
</g>
</svg>
