<svg viewBox="0 0 512 512" xmlns="http://www.w3.org/2000/svg"><path d="m256.282 121.371c8.041 0 13.541-5.36 13.541-13.541v-53.88c0-8.039-5.36-13.54-13.541-13.54s-13.54 5.36-13.54 13.54v53.88c.141 8.181 5.5 13.541 13.54 13.541zm143.022 51.341 37.8-37.801c5.361-5.359 5.361-13.54 0-18.9-5.36-5.36-13.54-5.36-18.899 0l-37.8 37.801c-5.361 5.359-5.361 13.54 0 18.9 5.358 5.36 13.539 5.36 18.899 0zm-291.403 137.521h296.761c0-5.36 0-8.039 0-13.541 0-80.961-67.42-148.381-148.381-148.381s-148.382 67.42-148.382 148.381c.002 5.501.002 8.181.002 13.541zm323.843-13.4c0 8.04 5.36 13.542 13.542 13.542h53.879c8.039 0 13.542-5.36 13.542-13.542 0-8.181-5.36-13.54-13.542-13.54h-53.88c-5.501 0-13.541 8.039-13.541 13.54zm67.419 67.42h-164.6l-32.441 26.94-48.52 40.481-43.16-40.481-32.3-26.94h-164.602c-5.359 0-13.54 5.36-13.54 13.541s8.04 13.54 13.54 13.54h148.382l94.36 80.961 94.36-80.961h148.382c8.039 0 13.54-5.359 13.54-13.54s-5.36-13.541-13.401-13.541zm-385.761-191.541c5.359 5.36 13.54 5.36 18.9 0s5.36-13.541 0-18.9l-37.801-37.801c-5.359-5.36-13.54-5.36-18.9 0s-5.36 13.541 0 18.9zm-99.862 137.521h53.88c5.36 0 13.541-5.36 13.541-13.541 0-5.36-5.36-13.542-13.541-13.542h-53.88c-8.039 0-13.54 8.04-13.54 13.542.141 8.181 5.501 13.541 13.54 13.541z"/></svg>