<svg viewBox="0 0 512 512" xmlns="http://www.w3.org/2000/svg"><path d="m0 224v-24l512-191v19zm179.81-163.854c0-17.516 14.082-31.615 31.452-31.615 17.239 0 31.319 14.099 31.319 31.615 0 17.546-14.08 31.79-31.319 31.79-17.362 0-31.447-14.239-31.452-31.79zm245.99 451.854h-340.8v-256h161v-106l20-8.2v114.2h159.8zm-179.8-102v-106h-142v106zm161-106h-141v106h141zm-152.137-272.154c0-17.546 14.082-31.79 31.312-31.79 17.318 0 31.399 14.239 31.399 31.79 0 17.547-14.082 31.79-31.399 31.79-17.236 0-31.316-14.239-31.312-31.79z"/></svg>