<svg viewBox="0 0 512 512" xmlns="http://www.w3.org/2000/svg"><path d="m232.446 73.343h63.926c13.805 0 25.687 7.579 31.831 18.872l27.539 55.075-28.618-8.932-17.52-35.119c-2.322-4.871-8.005-8.391-13.228-8.391l-63.93.041zm250.233 132.813c8.322 2.396 14.511 10.095 14.511 19.183l-46.566.041c-61.262 0-111.039 49.816-111.039 111.079h-151.535c0-49.233-32.026-91.006-76.348-105.585l-83.507-27.465 13.848-21.154c4.871-7.386 13.421-12.261 22.937-12.261 2.201 0 4.182.153 5.993.538l186.071 57.704c2.282.658 4.644 1.083 7.193 1.083 8.391 0 15.704-4.253 20.079-10.791l42.314-61.109zm-124.614 149.6c0-41.886 33.955-75.688 75.65-75.688 41.806 0 75.647 33.802 75.647 75.688 0 41.734-33.862 75.244-75.662 75.244-41.7 0-75.635-33.516-75.635-75.244zm75.65 28.273c15.702 0 28.38-12.684 28.38-28.273 0-15.703-12.683-28.312-28.38-28.312-15.471 0-28.159 12.609-28.159 28.312.005 15.585 12.688 28.273 28.159 28.273zm-432.01-36.397c0-45.871 37.238-83.194 83.229-83.194 46.064 0 83.154 37.323 83.154 83.194 0 45.987-37.088 83.368-83.188 83.368-45.9 0-83.195-37.381-83.195-83.368zm83.422 31.213c17.095 0 31.05-13.921 31.05-31.133 0-17.214-13.955-31.134-31.05-31.134-17.286 0-31.133 13.926-31.133 31.134 0 17.212 13.847 31.133 31.133 31.133z"/></svg>