<svg viewBox="0 0 512 512" xmlns="http://www.w3.org/2000/svg"><path d="m469.295 335.789v79.225h41.831v-118.435h-467.749v-171.358c0-11.454-9.185-20.84-20.785-20.84-11.467 0-20.714 9.386-20.714 20.84v289.793h41.499v-79.225zm-362.068-127.043c20.779 0 37.587-16.809 37.587-37.656 0-20.714-16.808-37.524-37.587-37.524-20.777 0-37.592 16.81-37.592 37.524-.007 20.854 16.802 37.656 37.592 37.656zm404.544 56.685-.124-51.725c-.133-16.413-13.945-27.756-29.97-29.706l-295.295-29.455c-.575-.126-1.109-.389-1.622-.389-10.233 0-18.502 8.332-18.502 18.502v55.776l-77.206-.021c-10.372 0-18.633 8.339-18.633 18.509 0 10.302 8.268 18.509 18.633 18.509z"/></svg>