<svg viewBox="0 0 512 512" xmlns="http://www.w3.org/2000/svg"><path d="m406.006 58.156c0 28.257-22.927 51.161-51.202 51.161-28.276 0-51.202-22.904-51.202-51.161 0-28.251 22.926-51.156 51.202-51.156 28.275 0 51.202 22.905 51.202 51.156zm-173.735 341.003 1.409-91.769-80.588-54.162-10.33-47.473 111.92-101.813 22.938 1.875 44.488 40.174 29.149 56.352 71.91-.464-4.858 34.795-84.721-.747-42.231-49.255-65.889 55.41 32.448 23.542c17.223 8.144 14.648 23.117 14.648 23.117l1.109 110.418zm-128.745 85.735c46.644 0 84.48-37.806 84.48-84.463 0-46.504-37.836-84.309-84.48-84.309-46.489 0-84.326 37.805-84.326 84.309 0 46.657 37.837 84.463 84.326 84.463zm-103.526-84.463c0-57.144 46.449-103.392 103.526-103.392 57.293 0 103.68 46.248 103.68 103.392 0 57.196-46.387 103.495-103.68 103.495-57.077 0-103.526-46.299-103.526-103.495zm408.474 85.435c46.489 0 84.326-37.754 84.326-84.412 0-46.554-37.837-84.309-84.326-84.309-46.644 0-84.48 37.755-84.48 84.309 0 46.658 37.836 84.412 84.48 84.412zm-103.68-84.412c0-57.195 46.438-103.443 103.68-103.443 57.088 0 103.526 46.248 103.526 103.443 0 57.247-46.438 103.546-103.526 103.546-57.242 0-103.68-46.299-103.68-103.546z"/></svg>