<svg viewBox="0 0 512 512" xmlns="http://www.w3.org/2000/svg"><path d="m15 86c-6-12-11-24-13-35s-2-20-2-26v-10l122 33 67-48 24 6-67 47 366 102-27 101-366-103c-26-7-50-18-67-30-18-13-30.278-25.396-36.853-37.315zm369 426-64-52-64 52-64-52-64 52-64-52-64 52v-230l512 121v109l-64-52zm-112.197-216.046c5.414 4.823 12.06 8.386 19.197 8.386s14.262-3.563 19.02-8.32c4.757-4.758 8.32-13.078 8.32-20.203 0-7.137-3.563-14.274-8.32-19.02-4.758-4.758-11.883-7.137-19.02-7.137s-14.262 2.379-19.02 7.137c-4.757 4.746-8.32 11.883-8.32 19.02 0 7.125 2.738 15.445 8.143 20.137zm-43.803-18.954c0-17.837 5.942-33.281 17.837-45.163 11.882-11.896 27.326-17.837 45.163-17.837s32.132 5.89 43.98 17.837c11.883 11.882 19.02 27.326 19.02 45.163 0 16.64-7.137 33.281-19.02 45.163-11.882 11.896-26.143 17.837-43.98 17.837s-33.281-5.941-45.163-17.837c-11.895-11.882-17.837-27.326-17.837-45.163zm140 16v-22l123.5 33-5.5 21.6zm-368-125 224 66-13 17-211-61z"/></svg>