<svg viewBox="0 0 512 512" xmlns="http://www.w3.org/2000/svg"><path d="m91.577 131.122c5.55 10.06 15.784 20.466 30.699 31.219s33.822 19.252 56.716 25.496l309.073 86.374 22.894-84.292-309.073-86.374 56.195-39.545-19.772-5.203-56.195 40.585-101.984-28.097-1.041 8.325c-.694 5.55-.173 13.008 1.561 22.374s5.377 19.078 10.927 29.138zm260.163 154.537 133.203 37.463 4.163-17.691-141.529-39.545c2.082 6.244 3.469 12.835 4.163 19.773zm-115.512-49.952-236.228-65.561v18.732l222.699 61.398c4.163-5.549 8.672-10.406 13.529-14.569z"/><path d="m510.959 406.374-235.187-64.52c.694 0 1.561.173 2.602.52s1.907.52 2.602.52c14.569 0 27.057-5.203 37.463-15.609s15.61-22.895 15.61-37.464-5.203-27.057-15.61-37.463-22.894-15.61-37.463-15.61-27.057 5.029-37.464 15.089c-10.406 10.059-15.61 22.721-15.61 37.984 0 22.2 10.06 38.158 30.179 47.87l-258.081-71.805 1.041 187.317c11.1 0 21.507-2.081 31.219-6.244 10.407-4.856 21.16-7.284 32.26-7.284s21.854 2.428 32.26 7.284c10.407 4.163 20.987 6.244 31.74 6.244s21.334-2.081 31.74-6.244c10.407-4.856 21.16-7.284 32.26-7.284s21.854 2.428 32.26 7.284c10.407 4.163 20.987 6.244 31.74 6.244s21.334-2.081 31.74-6.244c10.407-4.856 21.16-7.284 32.26-7.284s21.854 2.428 32.26 7.284c9.713 4.163 20.119 6.244 31.22 6.244s21.507-2.081 31.22-6.244c10.406-4.856 21.159-7.284 32.26-7.284 11.099 0 22.199 2.428 33.3 7.284 9.713 4.163 20.119 6.244 31.22 6.244zm-252.878-117.073c0-6.591 2.255-11.968 6.765-16.13 4.509-4.163 9.886-6.244 16.13-6.244s11.621 2.081 16.13 6.244 6.764 9.539 6.764 16.13-2.255 12.141-6.764 16.65-9.886 6.764-16.13 6.764-11.621-2.255-16.13-6.764-6.765-10.059-6.765-16.65z"/></svg>