<svg viewBox="0 0 512 512" xmlns="http://www.w3.org/2000/svg"><path d="m112.435 55.654-28.262-55.398-84.173-.256 81.254 83.968zm253.799 240.436c15.36 4.249 31.897-4.557 36.249-20.327 4.199-15.513-4.761-31.846-20.224-36.198l-12.032-3.379-15.616 56.371zm-9.421-63.54-97.28-27.699c-6.4-1.689-12.8 2.202-14.592 8.653l-9.114 32.87c-1.792 6.452 1.69 13.108 8.243 15.053l97.229 27.392z"/><path d="m372.173 325.939c-7.424-7.117-16.64-12.8-27.392-15.769l-117.914-33.332-72.448-129.945c-3.84-6.707-9.933-12.032-17.92-14.234-15.872-4.505-32.358 4.915-36.71 20.992-2.151 7.629-1.127 15.411 2.304 21.965l90.624 160.666s7.424 12.083 26.061 18.278l164.761 46.694 76.391 78.388c2.56 2.662 5.888 4.761 9.83 5.939 11.52 3.328 23.552-3.738 26.931-15.258 2.151-8.141-.409-16.742-6.144-22.016zm87.91 32.461 17.101 22.63 34.816-38.4-29.389-16.537c2.765-20.839-9.984-41.011-30.464-46.848-22.528-6.298-45.926 6.861-52.224 29.645-6.4 22.886 6.81 46.438 29.338 52.787 10.701 3.072 21.606 1.433 30.822-3.277z"/></svg>