<svg viewBox="0 0 512 512" xmlns="http://www.w3.org/2000/svg"><path d="m78.443 0c-15.755 0-28.443 12.688-28.443 28.443v455.114c0 14.222 14.221 28.443 28.443 28.443h256.003c14.215 0 28.436-14.221 28.436-28.443v-142.222h14.227c14.216 0 14.216 14.221 14.216 14.221v56.89c0 28.442 14.221 42.669 42.674 42.669 28.437 0 42.663-14.222 42.663-42.669 0-33.184 0-127.996 0-156.444 0-28.437-56.889-56.889-56.889-85.327v-85.327h-28.443l-28.443-28.448v-28.437c0-15.76-12.683-28.448-28.436-28.448zm28.442 56.89h199.108v113.78h-199.108zm255.997 85.327h28.443v42.669c0 28.448 56.89 56.89 56.89 85.337v142.218c.005 14.226-14.211 14.226-14.211 14.226s-14.226 0-14.226-14.221c0 0 0-56.89 0-71.111 0-14.216-14.222-28.443-28.438-28.443-9.484 0-28.448 0-28.448 0z"/></svg>