<svg viewBox="0 0 512 512" xmlns="http://www.w3.org/2000/svg"><path d="m63.18 35.574h255.675c10.288 0 17.824 7.203 17.824 17.316v120.81c0 10.113-7.532 17.316-17.824 17.316l-255.675-.004c-10.352 0-18.193-7.203-18.193-17.316v-120.8c0-10.117 7.849-17.32 18.193-17.32zm448.82 412.74-66.045-363.45s0-30.336-49.601-27.418v32.984h12.467l65.665 358.57c0 15.668-13.9 28.691-31.406 28.691-17.496 0-31.768-13.031-31.768-28.691l.321-126.05c0-34.621 6.094-80.68-66-80.68v-10.754h36.021l.004-231.52h-381.658v232.79h35.015l-.015 279.214h310l-.093-235.434c25.361-1.633 28.905 2.918 28.905 24.516v147.92c0 34.574 31.039 63 69.274 63 38.235-.004 68.914-28.426 68.914-63.691"/></svg>