<svg viewBox="0 0 512 512" xmlns="http://www.w3.org/2000/svg"><path d="m512 512h-512v-79.725h289.599v48l222.401-.275zm-73.953-50-72.442-10 9.537-72-263.063-42-9.537 72-72.431-10 9.525-72-27.636-5 22.874-190 27.637 2.2 22.5-135.2 404.502 61.1-17.149 136.9 27.636 5-24.779 190-27.648-4zm11.442-372-334.552-54-16.206 102 337.411 54zm-220.173 11c0 11.454-4.612 20.185-11.726 27.698-7.168 7.468-17.396 12.302-28.305 12.302-10.922 0-21.149-4.834-28.306-12.302-7.125-7.513-11.726-16.244-11.726-27.698s4.601-20.185 11.726-27.698c7.157-7.468 17.384-12.302 28.306-12.302 10.909 0 21.137 4.834 28.305 12.302 7.114 7.513 11.726 16.244 11.726 27.698z"/></svg>