<svg viewBox="0 0 512 512" xmlns="http://www.w3.org/2000/svg"><path d="m239.8 117.764c0-20.885-17.172-37.823-38.382-37.823-21.183 0-38.355 16.928-38.355 37.823 0 21.001 17.171 37.994 38.355 37.994 21.174-.001 38.382-16.993 38.382-37.994z"/><path d="m396.111 154.8c-1.5-8.112-8.157-12.773-8.554-13.126l-210.384-138.66c-8.328-5.483-19.674-3.279-25.348 4.932l-10.65 15.447c-3.966 6.053-2.231 13.921 3.74 17.841 6.007 3.975 12.592.984 16.459-5.077l8.121-20.008 188.559 124.667-149.979 27.081c-10.659 1.717-18.319 12.376-15.944 22.746l32.628 126.257-105.517 158.316c-6.369 10.804-2.52 24.733 8.41 30.894 11.048 6.278 24.968 2.42 31.328-8.374 0 0 110.115-165.57 110.53-166.699l5.736 23.134-16.629 132.084c-2.051 12.294 6.386 23.901 18.897 25.979 12.474 2.096 24.254-6.26 26.377-18.555l17.056-135.561c.541-3.27-.136-10.461-.922-13.551l-37.588-149.653 97.929-17.633c10.498-1.85 17.552-11.931 15.745-22.481z"/></svg>