<svg height="512" viewBox="0 0 512 512" width="512" xmlns="http://www.w3.org/2000/svg"><path d="m152.4 80.38c22.2 0 40.2-17.92 40.2-40.44 0-22.02-18-39.94-40.2-39.94s-40.3 17.92-40.3 39.94c0 22.52 18.1 40.44 40.3 40.44zm-67.97 6.66c1.54-6.14-2.41-12.29-8.45-13.82l-33.54-8.2c-6.31-1.02-12.49 2.56-13.92 8.71l-28.1756 116.77c-1.5464 6.1 2.2576 12.3 8.4426 13.8l33.653 8.2c6.06 1.5 12.35-2.6 13.78-8.7zm154.77 415.26s-.1 0-.1.5c0 5.1 4.2 9.2 9.3 9.2 4.6 0 8.5-3.6 9.1-8.2l67.6-366.1c0-.5 0-.5 0-1 0-5.1-4.1-9.2-9.2-9.2-4.6 0-8.2 3.6-9.2 8.2zm-224.7-24.1c-.36 1.5-.48 3.6-.48 5.6 0 15.4 12.61 28.2 28.3 28.2 12.82 0 23.68-8.7 27.11-20l48.67-201.7 46.4 200.2c2.9 12.3 14.1 21.5 27.3 21.5 15.7 0 28.3-12.8 28.3-28.2 0-2-.2-4.1-.6-6.1l-63.6-266.2 5.3-23.1 4.2 18.4c3.8 11.8 14.7 12.8 14.7 12.8l65.6 16.9c1.2 0 2.6.6 3.9.6 10.7 0 19.4-8.7 19.4-19.5 0-9.2-6.3-16.9-14.9-18.9l-56.7-14.4-15.6-63c-7.4-35.28-41.2-34.77-41.2-34.77-32.8-.51-40.96 33.77-40.96 33.77z" transform="translate(93.45)"/></svg>