<svg viewBox="0 0 512 512" xmlns="http://www.w3.org/2000/svg"><path d="m247.85 80.38c22.2 0 40.2-17.92 40.2-40.44 0-22.02-18-39.94-40.2-39.94s-40.3 17.92-40.3 39.94c0 22.52 18.1 40.44 40.3 40.44zm-100.85 133.62 35-132-55-14-35 132zm187 286s18 3 18 3l68-365-18-3zm-107-414s-20.91 13.3-20.91 13.3l-96.09 378.7s1.53 22 1.53 22 33.47 12 33.47 12 17-14 17-14l51.55-207.7 46.45 207.7s20 14 20 14 34-12 34-12 1-22 1-22l-63.65-266.5 5.3-23.1 15.35 29.6 77 22s10-5 10-5 7-15 7-15-5-12-5-12l-68.15-23.7-20.85-76.3s-12-16-12-16z"/></svg>