<svg viewBox="0 0 512 512" xmlns="http://www.w3.org/2000/svg"><path d="m491.995 354.461c0-6.961-2.76-13.639-7.682-18.562-4.917-4.928-11.586-7.692-18.538-7.692v-79.557c0-6.895-2.785-13.496-7.726-18.293-4.945-4.798-11.619-7.389-18.5-7.173h-26.22v-26.259h39.333v-124.195c-1.143-12.25-6.645-23.682-15.504-32.211-8.853-8.529-20.472-13.592-32.745-14.26h-17.305v-26.259h-52.445v26.259h-157.331v-26.259h-52.446v26.259h-17.697c-12.239.654-23.825 5.721-32.621 14.26-8.796 8.543-14.207 19.985-15.235 32.211v124.195h39.333v26.254l-26.221.005c-6.822-.005-13.377 2.654-18.268 7.408-4.898 4.755-7.75 11.231-7.957 18.058v79.557c-6.952 0-13.621 2.764-18.538 7.692-4.922 4.923-7.682 11.601-7.682 18.562v131.284c0 6.962 2.76 13.645 7.682 18.568 4.917 4.923 11.586 7.687 18.538 7.687h52.446c6.952 0 13.626-2.764 18.543-7.687 4.916-4.923 7.678-11.606 7.678-18.568v-78.768h262.227v78.768c0 6.962 2.761 13.645 7.677 18.568 4.917 4.923 11.591 7.687 18.543 7.687h52.446c6.952 0 13.621-2.764 18.538-7.687 4.922-4.923 7.682-11.606 7.682-18.568zm-393.329-275.688c1.238-6.668 6.452-11.884 13.113-13.125h288.432c6.661 1.241 11.875 6.457 13.113 13.125v78.768h-314.663zm26.22 249.436c-10.429 0-20.435-4.149-27.809-11.533-7.381-7.39-11.524-17.404-11.524-27.851s4.143-20.461 11.524-27.851c7.374-7.384 17.381-11.533 27.809-11.533 10.433 0 20.439 4.149 27.815 11.533 7.374 7.39 11.518 17.404 11.518 27.851s-4.144 20.461-11.518 27.851c-7.376 7.384-17.382 11.533-27.815 11.533zm91.779 26.254h-26.22v-105.022h26.22zm52.445 0h-26.225v-105.022h26.22v105.022zm52.445 0h-26.225v-105.022h26.22v105.022zm65.554-26.254c-10.433 0-20.44-4.149-27.815-11.533-7.375-7.39-11.519-17.404-11.519-27.851s4.144-20.461 11.519-27.851c7.375-7.384 17.382-11.533 27.815-11.533 10.429 0 20.435 4.149 27.809 11.533 7.381 7.39 11.524 17.404 11.524 27.851s-4.143 20.461-11.524 27.851c-7.374 7.384-17.381 11.533-27.809 11.533z"/></svg>