<svg viewBox="0 0 512 512" xmlns="http://www.w3.org/2000/svg"><path d="m119.89 58.441c10.754 0 19.242-8.777 19.242-19.465 0-10.605-8.488-19.309-19.242-19.309-10.684 0-19.312 8.711-19.312 19.309-.004 10.688 8.625 19.465 19.312 19.465zm56.723 0c10.691 0 19.324-8.777 19.324-19.465 0-10.605-8.637-19.309-19.324-19.309-10.605 0-19.234 8.711-19.234 19.309 0 10.688 8.637 19.465 19.234 19.465zm256.12-58.441c9.758 0 17.684 7.848 17.684 17.543v60.141l-387.91-.004v-59.996c0-9.691 7.926-17.613 17.547-17.613zm-179.283 423.28c69.059 0 124.95-55.891 124.95-124.93 0-68.988-55.887-124.94-124.95-124.94-68.977-.008-124.87 55.949-124.87 124.94 0 69.043 55.891 124.93 124.87 124.93zm-191.86 88.578v-389.39c0-9.691 7.844-17.551 17.551-17.551h352.74c9.691 0 17.551 7.859 17.551 17.551v389.54zm293.11-245.428c2.543 9.133 3.953 18.684 3.953 28.715 0 57.875-47.121 104.86-105.07 104.86-58.008 0-104.98-46.984-104.98-104.86 0-10.812 1.633-21.145 4.527-30.906v.211c6.735 7.285 16.277 11.816 27.027 11.816 9.306 0 17.634-3.292 24.135-9.053 6.564 5.761 15.028 9.053 24.26 9.053 9.621 0 18.391-3.606 24.895-9.836v.145c6.512 6.082 15.211 9.691 24.98 9.691 9.906 0 19.027-3.891 25.469-10.328v.133c6.586 6.441 15.559 10.188 25.477 10.188 9.617 0 18.605-3.746 25.184-9.973zm-150.408.783c-.024-.022-.048-.043-.072-.064h.144c-.024.021-.048.042-.072.064z"/></svg>