<svg viewBox="0 0 512 512" xmlns="http://www.w3.org/2000/svg"><path d="m253.8 149.76c40.96 0 73.984-33.587 73.984-74.957 0-41.36-33.024-74.803-73.984-74.803-40.91 0-73.984 33.444-73.984 74.803 0 41.32 33.075 74.957 73.984 74.957zm71.987 18.227c33.843 1.23 48.077 28.62 48.077 28.62l109.26 151.604c4.557 6.708 7.168 14.952 7.168 23.86 0 23.552-18.892 42.7-42.188 42.7-5.58 0-10.65-1.28-15.463-3.122l-65.996-18.586v66.51h-228.967v-66.51l-65.946 18.586c-4.66 1.843-9.907 3.123-15.534 3.123-23.326 0-42.168-19.148-42.168-42.7 0-8.908 2.606-17.152 7.327-23.86l109.203-151.602s14.337-27.392 48.027-28.62h147.2zm-73.575 245.146 85.453-28.723-1.894-.36c-58.982-17.51-36.095-96.306 22.785-78.693l8.14 2.816v-88.935l-114.483 37.786-114.534-37.786v88.935l8.038-2.867c58.983-17.562 81.971 61.234 22.937 78.694l-1.894.41zm235.213 98.867c5.837 0 10.547-4.762 10.547-10.65 0-5.94-4.71-10.65-10.547-10.65h-462.13c-5.725 0-10.538 4.71-10.538 10.65 0 5.888 4.813 10.65 10.537 10.65h462.13z"/></svg>