<svg viewBox="0 0 512 512" xmlns="http://www.w3.org/2000/svg"><path d="m282.522 70.4c-6.452-24.986-29.287-43.54-56.32-43.54-32.205 0-58.266 25.927-58.266 58.132 0 5.427.614 10.342 2.048 15.206h23.347c1.741 4.045 3.584 6.349 3.584 6.349 6.963 10.138 18.739 16.743 31.949 16.743 21.555 0 39.117-17.562 39.117-39.117 0-4.967 1.229-9.472-.819-13.722h15.36zm-1.639 347.341c-6.144 6.246-14.541 10.957-24.115 10.957v-126.516l87.603-25.19 21.914 43.213z"/><path d="m207.36 128.205c-5.734-6.451-14.131-10.496-23.501-10.496-9.984 0-18.893 4.608-24.627 11.878l-69.478 106.189c-2.868 4.71-4.455 10.24-4.455 16.077 0 10.957 5.53 20.531 13.978 26.214l93.235 51.763v88.013c0 12.493 10.086 22.579 22.528 22.579 12.39 0 22.477-10.086 22.477-22.579v-109.926s3.021-17.511-16.896-27.136l-58.163-30.362 42.342-64.717 22.528 35.277c4.454 7.168 10.547 9.933 16.077 9.779l57.753-.204c23.501 0 23.501-30.516 0-30.413h-46.796zm255.488 144.333c.922.87 1.536 2.048 1.536 3.532 0 2.765-2.304 5.069-5.12 5.069-.768 0-1.229 0-1.792-.205-10.035-4.3-16.384-6.912-27.904-6.912-7.731 0-17.152 2.663-28.109 11.52l-10.137-20.07c12.646-3.789 23.04-7.168 33.843-7.168 17.305.051 26.419 3.584 37.683 14.234z"/><path d="m75.162 287.949 97.894 53.965.205 21.657-111.77-61.542c-8.089-4.147-18.969-6.605-26.675-6.605-11.54 0-17.925 2.662-27.848 6.963-.619.205-1.136.205-1.838.205-2.775 0-5.13-2.253-5.13-5.069 0-1.485.589-2.611 1.51-3.533 11.321-10.649 22.866-14.233 40.172-14.233 8.847 0 19.656 1.024 33.48 8.192zm9.062 198.502c31.898 0 57.702-25.805 57.702-57.753 0-31.898-25.804-57.754-57.702-57.754-31.846 0-57.667 25.856-57.667 57.754 0 31.948 25.821 57.753 57.667 57.753zm-83.226-57.753c0-45.978 37.284-83.354 83.226-83.354 46.08 0 83.405 37.376 83.405 83.354 0 45.977-37.325 83.302-83.405 83.302-45.942 0-83.226-37.325-83.226-83.302zm427.648 57.753c31.949 0 57.754-25.805 57.754-57.753 0-31.898-25.805-57.754-57.754-57.754-31.795 0-57.651 25.856-57.651 57.754 0 31.948 25.856 57.753 57.651 57.753zm-83.2-57.753c0-45.978 37.223-83.354 83.2-83.354 45.978 0 83.354 37.376 83.354 83.354 0 45.977-37.376 83.302-83.354 83.302-45.977 0-83.2-37.325-83.2-83.302zm64.871-95.181-40.499-80.947c-5.223-9.728-15.668-16.384-27.495-16.384h-26.419c-5.171 0-9.318 4.3-9.318 9.42 0 5.223 4.147 9.37 9.318 9.37l26.419-.102c4.455 0 9.472 3.02 11.315 7.372l38.093 77.722z"/></svg>