<svg viewBox="0 0 512 512.1" xmlns="http://www.w3.org/2000/svg"><path d="m32.16 32.675h189.528v18.435h-18.384v20.484l-171.144 14.851zm269.057 54.794c24.171 0 43.682-19.459 43.682-43.528s-19.562-43.529-43.682-43.529c-24.171 0-43.784 19.46-43.784 43.529.051 24.069 19.613 43.528 43.784 43.528"/><path d="m334.299 85.421c12.495-12.802 32.672-12.802 45.167 0l94.585 94.226c3.636 3.585 5.787 8.706 5.787 13.827v283.704c0 19.459-15.722 35.334-35.233 35.334s-35.539-15.875-35.539-35.334v-234.03l-88.133-88.081-35.232 35.335c-3.995 4.608-9.935 7.681-16.797 7.681-6.299 0-11.983-2.56-16.029-7.169l-60.684-60.428c-7.732-9.218-7.067-23.557 2.049-31.238 9.166-7.682 22.891-6.145 30.623 3.072l46.14 46.089zm-183.844 13.315c-.87-4.097-4.609-7.682-9.013-7.682-4.558 0-8.245 3.585-9.013 7.682l-14.748 84.496v326.72h124.747v-46.089h-76.559l-.512-280.631z"/></svg>