<svg viewBox="0 0 512 512" xmlns="http://www.w3.org/2000/svg"><path d="m421.214 51.197c0 28.28-22.936 51.203-51.226 51.203-28.295 0-51.23-22.923-51.23-51.203 0-28.274 22.935-51.197 51.23-51.197 28.29 0 51.226 22.923 51.226 51.197zm-384.214 281.599h115.264c9.63 1.357 15.009-1.511 20.976-10.88l7.2-9.599 40.982 30.719-8.172 10.88c-14.522 16.256-39.905 28.723-60.986 30.08h-115.264zm65.829-202.316s53.173-25.266 80.709-40.319l1.46-.794 1.306-.487c15.036-5.785 35.373-9.062 55.455-3.276l33.298 10.24 1.743.537 1.639.768 44.081 20.762c13.574 7.5 26.997 20.915 34.502 34.482l21.131 42.318c1.538 5.401 3.048 6.04 7.89 8.934 4.968 2.97 7.735 4.147 14.677 3.711h74.28v51.2h-74.28c-13.551-.434-29.995-4.403-41.035-11.008-11.167-6.707-22.488-20.147-28.61-32.665l-9.616-19.16-44.567 79.865 44.435 44.41c23.054 20.481 28.179 53.762 17.931 81.92l-47.543 72.082-46.792-13 45.669-76.993v-.005c4.074-8.143 3.288-16.286-1.068-23.141l-78.346-56.218c-20.49-17.921-25.617-46.085-12.807-69.124l53.33-93.281-25.004-7.688c-5.532-4.454-10.45-2.867-19.672 1.127-29.045 15.718-82.17 41.037-82.17 41.037zm-102.829 339.52 98 20 98-20 98 20 98-20 98-60h22v102h-512z"/></svg>