<svg height="512" viewBox="0 0 512 512" width="512" xmlns="http://www.w3.org/2000/svg"><path d="m475.184 131.512c-14.183-9.216-24.832-4.608-24.832-4.608-13.517 3.584-21.197 3.584-24.986 3.072v-3.072c3.686-2.56 6.093-7.168 6.093-11.776 0-7.68-6.248-13.824-13.876-13.824-7.732 0-13.978 6.144-13.978 13.824 0 4.608 1.997 8.192 5.018 10.752v120.832l-47.82-36.864-101.428 78.336v145.92h203.93v-145.92l-37.94-28.672v-79.872c3.533.512 11.366 1.024 25.6-2.56 0 0 10.65-5.12 24.832 4.608 0 0 3.02 2.56 21.965 14.848v-49.664c-18.944-12.8-22.58-15.36-22.58-15.36zm-288.052 184.064-2.56 196.864h-28.876l-10.036-144.435h-11.11l-8.55 144.435h-31.437l-2.355-196.864zm19.61-262.4c-29.952-5.12-66.15-5.632-66.15-5.632h-.052s-36.198.512-66.2 5.632c0 0-.257 6.656 3.07 9.728l27.75-1.024c-.972 3.072-1.535 7.168-1.535 10.752 0 20.48 16.538 37.376 36.915 37.376 20.43 0 36.967-16.896 36.967-37.376 0-3.584-.563-7.68-1.536-10.752l27.854 1.024c3.174-3.072 2.918-9.728 2.918-9.728zm-107.725-14.254h82.995v-18.052l-22.272-20.43h-38.553l-22.17 20.43zm162.151 159.15-61.952-67.072c-8.653-10.752-15.72-10.752-15.72-10.752h-87.756s-7.065 0-15.718 10.752l-61.957 67.072s-9.175 7.168.855 18.432l73.288 72.192v12.8h94.822v-12.8l73.318-72.192c10.036-11.776.82-18.432.82-18.432zm-191.848 34.816s-10.94-19.968-13.02-23.552l-2.63-4.608 37.053-34.304s.87-1.536 1.74 1.536l.922 81.92s-9.165-1.536-24.064-20.992zm153.652-23.552c-2.1 3.584-13.056 23.552-13.056 23.552-14.848 19.456-24.012 20.992-24.012 20.992l.87-81.92c.87-3.072 1.74-1.536 1.74-1.536l37.07 34.304z"/></svg>