<svg viewBox="0 0 512 512" xmlns="http://www.w3.org/2000/svg"><path d="m159.218 36.036h-74.141v-16.123l20.513-19.913h33.114l20.514 19.913zm-37.073 58.835c-22.655.386-35.69-11.757-34.645-42.207h-33.044v-9.253h135.373v9.253h-33.045c1.047 30.45-11.983 42.594-34.642 42.207zm-51.926 17.069h103.852l68.929 79.06-76.321 85.079h-89.072l-77.607-85.079zm-37.219 79.06 44.607 45.876v-84.737zm177 0-43.32-38.862v84.738zm-87.854 146.795-13.218 174.205h-31.32v-217.125h89.073v217.125h-31.308zm271.422-216.781.432 36.586 118 96v136.5h-244l.006-136.469 119.994-94.531v-86.5l89.571 8.332-.26 47.053-83.311-6.985z"/></svg>