<svg viewBox="0 0 512 512" xmlns="http://www.w3.org/2000/svg"><path d="m256.938 69.657c9.385 0 17.553-3.302 24.506-9.906s10.427-14.599 10.427-23.984-3.475-17.38-10.427-23.984-15.121-9.906-24.506-9.906-17.379 3.302-23.983 9.906-9.907 14.599-9.907 23.984 3.303 17.38 9.907 23.984 14.599 9.906 23.983 9.906zm214.29 391.04c-9.732-4.171-19.987-6.257-30.762-6.257s-21.03 2.086-30.762 6.257-19.812 6.256-30.24 6.256-20.508-2.085-30.24-6.256c-10.428-4.171-21.03-6.257-31.805-6.257s-21.029 2.086-30.762 6.257-19.812 6.256-30.24 6.256-20.508-2.085-30.24-6.256c-9.733-4.171-19.987-6.257-30.762-6.257s-21.377 2.086-31.804 6.257c-9.733 4.171-19.813 6.256-30.241 6.256s-20.508-2.085-30.24-6.256-19.987-6.257-30.762-6.257-21.029 2.086-30.761 6.257c-10.428 4.171-20.856 6.256-31.284 6.256v45.882c11.124 0 21.551-2.085 31.284-6.256 9.732-4.867 19.986-7.3 30.761-7.3s21.03 2.433 30.762 7.3c9.732 4.171 19.813 6.256 30.24 6.256s20.508-2.085 30.241-6.256c10.427-4.867 21.029-7.3 31.804-7.3s21.03 2.433 30.762 7.3c9.732 4.171 19.812 6.256 30.24 6.256s20.508-2.085 30.24-6.256c9.734-4.867 19.988-7.3 30.762-7.3 10.775 0 21.377 2.433 31.805 7.3 9.037 4.171 18.944 6.256 29.719 6.256 10.777 0 21.03-2.085 30.761-6.256 9.735-4.867 19.988-7.3 30.762-7.3 10.775 0 21.03 2.433 30.762 7.3 9.732 4.171 20.16 6.256 31.283 6.256v-45.882c-10.428 0-20.856-2.085-31.283-6.256z"/><path d="m474.356.834c-2.788-1.39-5.568-1.043-8.342 1.043l-125.133 126.175c0-.695-1.042-.868-3.128-.521l-3.128.521h-47.968l-50.053-52.138c-2.781-2.781-5.561-4.519-8.342-5.214-4.866-4.171-10.602-6.257-17.205-6.257s-11.992 2.433-16.163 7.3l-72.994 72.993c-2.781 2.782-4.171 6.257-4.171 10.428v47.968h-107.406v20.855h107.406v123.048c0 7.646 2.607 14.251 7.82 19.812s11.471 8.343 18.77 8.343 13.556-2.781 18.77-8.343 7.821-12.166 7.821-19.812v-123.048h75.079v160.588h-235.666v32.325h256.522v-192.913h32.326v-20.855h-128.261v-9.385l68.823-67.78 28.155 28.154c4.171 4.171 8.342 6.257 12.513 6.257h54.224c11.818 0 17.727-3.476 17.727-10.428v-11.47c6.257-6.257 19.291-18.944 39.104-38.061s37.018-35.802 51.617-50.053 23.636-23.81 27.112-28.676v395.21h10.428v-409.809c0-2.781-2.086-4.867-6.257-6.257z"/></svg>