<svg viewBox="0 0 512 512" xmlns="http://www.w3.org/2000/svg"><path d="m181.274 2.56h9.492c-1.198 10.235-2.437 20.792-3.712 31.683h34.442c11.469 0 22.979 0 34.53.061h34.421 34.453c-1.285-10.952-2.514-21.448-3.722-31.744h9.492c1.362 10.291 2.79 20.792 4.255 31.744 1.684 12.564 3.466 25.702 5.314 39.434 1.736 12.933 3.549 26.399 5.443 40.443 2.186 16.318 4.5 33.388 6.912 51.4 2.289 17.177 4.721 35.021 7.234 53.831 2.929 21.904 6.073 45.108 9.365 69.709 3.179 23.516 6.523 48.512 10.071 74.916 4.188 31.017 8.663 64.225 13.466 99.983 1.966 14.608 4.05 30.034 6.123 45.42-6.062 0-12.124 0-18.15 0-1.813-15.386-3.63-30.817-5.34-45.42-19.948 0-39.829 0-59.705 0-19.906 0-39.808 0-59.648 0-19.983 0-39.91 0-59.812 0-19.881 0-39.787 0-59.668 0-1.71 14.608-3.528 30.034-5.34 45.42-6.062 0-12.13 0-18.151 0 2.084-15.386 4.168-30.817 6.129-45.42 4.803-35.758 9.283-68.971 13.466-99.983 3.548-26.404 6.912-51.4 10.086-74.916 3.318-24.601 6.436-47.826 9.385-69.749 2.534-18.77 4.951-36.675 7.255-53.853 2.437-17.986 4.726-35.02 6.912-51.338 1.9-14.085 3.712-27.576 5.463-40.545 1.838-13.696 3.61-26.88 5.304-39.393 1.449-10.891 2.878-21.448 4.235-31.683zm-9.278 0c-3.174 0-6.328 0-9.487 0-1.715 10.235-3.487 20.792-5.325 31.683-9.697 0-19.389 0-29.02 0-2.739 12.518-5.607 25.702-8.602 39.393h30.981c-2.186 12.974-4.454 26.399-6.825 40.545-11.018 0-22.01 0-32.983 0-3.548 16.277-7.26 33.352-11.197 51.338h35.538c-2.908 17.137-5.924 35.083-9.078 53.832-12.744 0-25.492 0-38.175 0-4.787 21.944-9.84 45.169-15.201 69.77h41.621c-3.958 23.516-8.167 48.512-12.621 74.916-15.14 0-30.28 0-45.333 0-6.768 31.017-14.003 64.225-21.801 99.983h50.284c-2.453 14.608-5.054 30.034-7.649 45.42h18.145c2.329-15.386 4.664-30.817 6.871-45.42 5.422-35.758 10.434-68.971 15.135-99.983 4.003-26.404 7.797-51.4 11.346-74.916 3.732-24.601 7.255-47.826 10.557-69.749 2.847-18.77 5.55-36.716 8.146-53.853 2.724-17.986 5.325-35.02 7.777-51.338 2.14-14.146 4.183-27.576 6.144-40.545 2.064-13.696 4.06-26.88 5.965-39.393 1.649-10.891 3.241-21.448 4.787-31.683zm177.434 0c-3.175 0-6.329 0-9.493 0 1.552 10.291 3.139 20.792 4.793 31.744 1.899 12.564 3.896 25.702 5.98 39.434 1.961 12.933 4.004 26.399 6.123 40.51 2.453 16.251 5.054 33.326 7.783 51.333 2.575 17.177 5.273 35.021 8.12 53.831 3.318 21.904 6.83 45.108 10.542 69.709 3.569 23.516 7.327 48.512 11.326 74.916 4.7 31.017 9.728 64.225 15.134 99.983 2.212 14.608 4.542 30.034 6.897 45.42h18.125c-2.596-15.386-5.202-30.817-7.655-45.42h50.412c-7.793-35.758-15.017-68.971-21.781-99.983-15.18 0-30.315 0-45.455 0-4.46-26.404-8.658-51.4-12.621-74.916h41.744c-5.371-24.601-10.415-47.805-15.181-69.709-12.79 0-25.534 0-38.283 0-3.174-18.81-6.19-36.654-9.077-53.831h35.625c-3.943-17.987-7.655-35.082-11.203-51.333-11.033 0-22.047 0-33.06 0-2.375-14.106-4.638-27.577-6.83-40.51h31.058c-2.99-13.737-5.852-26.854-8.576-39.434-9.733 0-19.43 0-29.122 0-1.813-10.952-3.615-21.453-5.325-31.744zm-93.41 71.117c-12.308 0-24.586 0-36.833 0-12.272 0-24.525 0-36.777-.041-1.505 13.015-3.092 26.46-4.746 40.545h39.127 39.229 39.107s26.092 0 39.168 0c-1.649-14.044-3.241-27.535-4.772-40.443-12.267-.061-24.519-.061-36.772-.061-12.252 0-24.519 0-36.731 0zm0 91.904c-14.126 0-28.19 0-42.26 0-14.049 0-28.088 0-42.132 0-2.023 17.116-4.127 35.021-6.334 53.791h45.312c15.099 0 30.239.04 45.42.04h45.271 45.337c-2.191-18.81-4.295-36.695-6.308-53.831-14.069 0-28.139 0-42.178 0-14.06 0-28.124 0-42.128 0zm-.02 123.54c-16.538 0-33.039 0-49.5 0-16.476 0-32.937 0-49.413 0-2.765 23.516-5.694 48.512-8.812 74.916h53.811 53.914 53.77s35.866 0 53.852 0c-3.113-26.404-6.041-51.4-8.811-74.916-16.497 0-32.973 0-49.434 0-16.455 0-32.937 0-49.377 0z"/></svg>