<svg viewBox="0 0 512 512" xmlns="http://www.w3.org/2000/svg"><path d="m158 422c.005.097.009.195.014.293-.001.028-.003.057-.004.086zm22.857-54.052c12.783-11.084 33.633-19.948 52.143-19.948 18.987 0 40.64 10.311 53.093 22.155 11.849 12.462 21.907 33.869 21.907 52.845 0 19.001-10.368 40.66-22.175 53.113-12.465 11.812-33.837 21.887-52.825 21.887-19.002 0-40.685-10.396-53.139-22.202-11.894-12.705-20.869-34.572-21.847-53.505 1.068-20.321 11.141-42.032 22.843-54.345zm222.643-129.948.5-192h-84v192zm-403.5-224.001h462v388.001h50v22.999l-174 .001c0-62-48-105-105-105-63 0-105 43-105 105l-128-.001zm72 224.001h156v-192h-156z"/></svg>