<svg viewBox="0 0 512 512" xmlns="http://www.w3.org/2000/svg"><path d="m72.631 512-4.735-14.108 368.181-127.043c11.507-3.9 17.844-16.494 14.048-28.258l13.992-4.564c6.398 19.561-4.029 40.564-23.355 46.992zm29.003-344.946c-20.197 5.942-41.163-5.705-47.037-25.987-5.925-20.342 5.64-41.745 25.728-47.64 20.02-5.952 41.111 5.651 46.924 26.002 5.872 20.33-5.584 41.672-25.611 47.623zm-15.496 53.224c-19.965-38.593 37.353-69.811 58.435-32.408l41.231 79.207 78.34-22.536c12.923-3.741 30.839 10.587 30.839 27.427l.481 112.861c.106 28.003-41.001 28.13-41.001-.234-.061-26.226-.765-82.249-.765-82.249l-81.804 24.859c-17.856 5.223-32.658-3.803-39.701-17.18zm110.288 22.417v-242.695h16.394v238.118zm-147.869 29.023c-11.276-22.408 17.735-37.278 29.01-14.865l35.348 70.181c7.696 14.517 22.732 24.378 40.054 24.378 5.405 0 10.457-1.419 15.387-2.444l44.58-13.256c23.665-7.203 32.833 24.378 8.979 31.453l-46.923 13.869c-6.992 2.195-14.558 3.308-22.375 3.308-30.188 0-56.262-17.288-69.128-42.566z"/></svg>