<svg viewBox="0 0 512 512" xmlns="http://www.w3.org/2000/svg"><path d="m92.383 400-23.754 22.867-51.482 6.535 38.069-46.882-55.216-27.52v-28l512 168-12 17zm49.042-58.976-28.545-34.493 78.936-42.494 8.184-93.396 109.832-51.308-48.327-31.264-40.89-69.988 31.885-18.081 52.676 73.728 206.824 134.372-23.588 29.444-97.786-68.528-100.532 48.534 56.766 64.017-5.775 123.947-45.34-15.999 7.247-94.482-61.137-54.488-9.873 59.455zm318.135-274.021c0 22.091-17.909 40-40 40-22.092 0-40-17.909-40-40 0-22.092 17.908-40.001 40-40.001 22.091 0 40 17.909 40 40.001z"/></svg>