<svg viewBox="0 0 512 512" xmlns="http://www.w3.org/2000/svg"><path d="m255.992 0 75.515 129.114 148.529.105-74.264 126.76 74.264 126.865h-148.425l-75.619 129.156-75.515-129.156h-148.477l74.213-126.865-74.213-126.76 148.477-.105zm-96.867 256.083 47.913 85.306h97.7l48.121-85.306-48.121-85.409h-97.596zm198.526 85.306h43.225l-21.665-36.872zm-246.647 0h43.33l-21.769-36.872zm123.636-213.316h43.017l-21.561-36.883zm144.571 79.368 21.665-36.767h-43.225zm-246.646.105 21.769-36.872h-43.33zm123.531 213.211 21.561-36.767h-43.017z"/></svg>