<svg viewBox="0 0 512 512" xmlns="http://www.w3.org/2000/svg"><path d="m117.976 378.296h273.818v134.144h-273.818zm216.976-316.416c-19.098 19.456-38.247 28.672-57.293 28.672-28.93 0-54.273-15.36-76.084-46.592l12.34-8.192c11.416 17.408 27.493 26.112 48.178 26.112 17.97 0 32.768-8.704 44.237-26.112z"/><path d="m265.37 44.738-25.292-22.2 25.292-22.098 22.12 24.566zm92.468 50.934c-26.726 0-43.878 17.92-51.507 53.248-.562-.512-1.945-1.024-4.146-1.024h-3.226c-16.896 0-35.79 8.704-56.474 26.112l-4.915-4.608c1.074-4.096 2.252-7.68 3.327-11.776s1.587-8.704 1.587-12.8c0-20.48-5.99-36.864-17.97-49.152-12.033-12.8-27.546-18.944-46.593-18.944-7.628 0-14.744.512-21.298 2.048-6.605 1.536-13.65 4.096-21.253 8.704l14.647 35.84c8.192-4.096 16.23-7.68 24.167-10.752 7.884-3.072 15.41-4.608 22.476-4.608 9.78 0 17.664 2.048 23.348 6.144 5.683 4.096 8.55 10.752 8.55 19.968 0 23.04-16.896 38.912-50.637 48.128l13.825 34.816c7.63-3.584 14.695-7.68 21.3-12.288 6.553-5.12 11.98-11.264 16.383-18.944 10.394 10.752 18.38 22.016 24.064 33.28 5.786 11.776 8.602 24.064 8.602 37.376 0 12.8-4.762 24.064-14.285 33.28-9.524 9.216-20.89 13.824-33.895 13.824-26.215 0-48.59-11.776-67.108-35.328-18.534-23.04-30.833-54.784-36.87-94.208l-11.427 3.584c1.7 22.528 6.03 43.008 13.133 62.464 7.065 18.944 16.2 35.328 27.402 49.152 11.126 14.336 23.823 25.088 38.006 32.768s29.44 11.264 45.825 11.264c20.12 0 36.557-5.632 49.05-17.408 12.543-11.264 18.79-26.624 18.79-45.568 0-23.04-9.42-46.592-28.62-70.656 14.18-9.216 25.906-13.824 35.173-13.824 10.855 0 16.384 9.728 16.384 29.184v15.872c0 20.48 2.765 35.84 8.14 44.544 5.53 9.216 15.054 13.312 28.724 13.312 19.047 0 34.253-8.704 45.773-26.112 11.417-17.408 17.202-42.496 17.202-75.264 0-61.44-18.585-91.648-55.654-91.648zm26.93 142.336c-9.215 11.776-20.684 18.432-34.252 18.432-14.745 0-22.17-12.8-22.17-37.888v-39.936c0-12.8-4.044-21.504-12.236-26.624 8.192-16.896 21.248-25.088 39.27-25.088 12.544 0 22.887 5.632 31.08 17.92 8.19 11.776 12.236 27.648 12.236 46.592 0 18.432-4.608 33.792-13.927 46.592z"/></svg>