<svg viewBox="0 0 512 512" xmlns="http://www.w3.org/2000/svg"><path d="m116.68 368.842c0 23.283-18.91 42.158-42.234 42.158s-42.234-18.875-42.234-42.158c0-23.286 18.91-42.162 42.234-42.162s42.234 18.876 42.234 42.162zm317.34 0c0 23.283-18.91 42.158-42.234 42.158-23.328 0-42.238-18.875-42.238-42.158 0-23.286 18.91-42.162 42.238-42.162 23.324 0 42.234 18.876 42.234 42.162zm-261.32-267.842h339.3v212.377h-339.3zm186.352 227.249c.001-.001-.001.001 0 0zm-.002.002c-12.597 12.553-20.709 32.152-20.709 54.203h-206.43c-.011-48.126-20.911-68.586-60.453-68.597-31.458.011-53.458 23.466-53.453 68.597h-7.332c-5.887 0-10.664-6.131-10.664-13.695v-100.024c8.668-27.184 32.961-104.365 32.961-104.365l117.77-10.818v174.699zm-251.012-71.661v-74.246l-67.641 5.935-24.629 82.072 92.262-13.761zm403.777 111.338-31.969 14.527h-34.605c0-22.045-8.117-41.657-20.711-54.204h87.18z"/></svg>