<svg viewBox="0 0 512 512" xmlns="http://www.w3.org/2000/svg"><path d="m298.957 162.918c32.256 11.06 75.008 24.064 84.121-28.057 7.22-40.448 61.236-25.447 84.224-28.058 41.677-4.761 10.24-83.015-42.086-84.167-52.992-1.152-77.107 22.092-98.253 70.138-10.035 23.092-18.637 40.5-56.064 28.058s-64.819 18.278-42.086 56.115c20.173 33.587-.307 70.144-.307 70.144h56.422s-.461-20.838-14.029-42.086c-15.872-24.781-4.966-53.453 28.058-42.087zm-298.957 349.082c145.152-105.83 181.402-252.058 181.402-252.058h149.196s36.25 146.228 181.402 252.058z"/></svg>