<svg viewBox="0 0 512 512" xmlns="http://www.w3.org/2000/svg"><path d="m512 484-128 28-128-28-128 28s-128-28-127.986-28c-.019 0-.019-54 0-54-.014 0 127.986 28 127.986 28l128-28 128 28s128-28 128-27.961zm-177.275-271.015c-.024-41.174 50.541-62.095 79.649-32.904 16.474 16.526 16.463 49.293-.009 65.811-16.993 17.048-49.703 16.516-66.69-.053-8.511-8.296-12.943-21.123-12.95-32.854zm-224.244 40.758-110.481-221.743 39.049-32 102.18 167.924 162.071 57.583 166.426 178.645-30.421 19.848-122.521-95.297z"/></svg>