<svg xmlns="http://www.w3.org/2000/svg" viewBox="0 0 512 512"><path d="M256 16.88C123.4 16.88 15.98 124.4 15.98 257c0 120.4 89.02 220.3 204.82 237.3 2.4.4 4.7.8 6.6.8 11.9 0 17.3-9.7 17.3-17.8V359.7h-.1l-102-102.3 114.8-114.8 114.9 114.8-102 101.9.5-.4v117.6c0 12.9 7.6 20.6 18.5 18.2C405.4 477.7 496 377.4 496 257c0-132.6-107.6-240.12-240-240.12m51.3 435.32l-.1-75.6-.7-.4 117.9-117.6L256.2 90.04 87.97 258.6 208.3 378.7l-.1 73.5C120.4 429.6 55.47 350.4 55.47 255.8c0-112 90.73-202.95 202.73-202.95 112 0 203 90.95 203 202.95 0 98.2-67.5 175-154 196.4"/></svg>