<svg version="1.0" width="512" height="512" viewBox="0 0 512 512" xmlns="http://www.w3.org/2000/svg"><path d="M 469.295 335.789 L 469.295 415.014 L 511.126 415.014 L 511.126 296.579 L 43.377 296.579 L 43.377 125.221 C 43.377 113.767 34.192 104.381 22.592 104.381 L 22.592 104.381 C 11.125 104.381 1.878 113.767 1.878 125.221 L 1.878 415.014 L 43.377 415.014 L 43.377 335.789 L 469.295 335.789 Z M 107.227 208.746 C 128.006 208.746 144.814 191.937 144.814 171.09 C 144.814 150.376 128.006 133.566 107.227 133.566 C 86.45 133.566 69.635 150.376 69.635 171.09 C 69.628 191.944 86.437 208.746 107.227 208.746 Z M 511.771 265.431 L 511.647 213.706 C 511.514 197.293 497.702 185.95 481.677 184 L 186.382 154.545 C 185.807 154.419 185.273 154.156 184.76 154.156 C 174.527 154.156 166.258 162.488 166.258 172.658 L 166.258 228.434 L 89.052 228.413 C 78.68 228.413 70.419 236.752 70.419 246.922 C 70.419 257.224 78.687 265.431 89.052 265.431 L 511.771 265.431 Z"/></svg>