<svg xmlns:dc="http://purl.org/dc/elements/1.1/" xmlns:cc="http://creativecommons.org/ns#" xmlns:rdf="http://www.w3.org/1999/02/22-rdf-syntax-ns#" xmlns:svg="http://www.w3.org/2000/svg" xmlns="http://www.w3.org/2000/svg" xmlns:xlink="http://www.w3.org/1999/xlink" xmlns:sodipodi="http://sodipodi.sourceforge.net/DTD/sodipodi-0.dtd" xmlns:inkscape="http://www.inkscape.org/namespaces/inkscape" width="64px" height="64px" id="svg2" version="1.1" inkscape:version="0.48.2 r9819" sodipodi:docname="bypass.svg" data-tags="bypass" viewBox="0 0 64 64" style="margin-left: 8px; margin-top: 8px;">







  <path d="M 20.00,24.00  m0.00,0.00,0.00,0.00 0.00,0.00 0.00,4.30 2.30,5.30 5.90,2.70 11.80-0.30 0.00,8.00 -12.00,0.00 -5.90,2.10 -2.10,5.90 0.00,11.60 0.00,0.40 5.00,0.00 7.00,0.00 0.00-8.00 12.00,0.00 6.30-1.50 1.70-6.50 0.00-16.00 -1.90-5.80 -6.10-2.20 -12.00,0.00 -5.90-7.90 -0.20-0.10 zM 8.00,20.00  m0.00,0.00, 12.00,0.00 6.00-8.00 6.00,8.00 12.00,0.00 -18.00-20.00 z"></path></svg>