<svg width="512" height="512" data-tags="calendar-warning" style="margin-left:2px;margin-top:2px" viewBox="0 0 512 512" xmlns="http://www.w3.org/2000/svg"><path d="M 448 64 L 400 64 C 400.896 80.23 400.134 99.995 383.24 108.132 C 361.607 121.188 332.225 100.602 336 75.918 C 339.016 64.394 332.7 62.202 322.393 64 L 176 64 C 176.896 80.23 176.134 99.995 159.24 108.132 C 137.607 121.188 108.225 100.602 112 75.918 C 115.016 64.394 108.7 62.202 98.393 64 C 79.287 65.648 56.797 58.632 41.4 73.4 C 26.69 88.66 33.62 111.036 32 130.016 C 32.11 237.096 31.779 344.187 32.166 451.26 C 33.622 471.68 54.839 482.869 73.525 480 C 199.435 479.89 325.356 480.221 451.26 479.834 C 471.68 478.378 482.869 457.161 480 438.475 C 479.89 323.232 480.221 207.977 479.834 92.74 C 478.474 76.856 463.959 63.708 448 64 Z M 448 447.942 C 320.056 448.039 191.943 448.039 64 447.942 L 64 160 L 448 160 L 448 447.942 Z M 144 96 C 160.848 95.92 160.804 77.31 160 65.033 C 159.27 46.653 161.53 27.893 158.743 9.773 C 150.313 -9.907 122.14 3.953 128 22.803 C 128.216 42.938 127.567 63.117 128.325 83.224 C 129.697 90.494 136.596 96.134 144 96 Z M 368 96 C 384.848 95.92 384.804 77.31 384 65.033 C 383.27 46.653 385.53 27.893 382.743 9.773 C 374.313 -9.907 346.14 3.953 352 22.803 C 352.216 42.938 351.567 63.117 352.325 83.224 C 353.697 90.494 360.596 96.134 368 96 Z M 239.668 273.736 L 271 274 C 271.333 300.333 269.804 308.05 270.138 334.384 C 259.138 334.05 250 334.525 239 334.192 C 239.223 308.104 239.445 299.824 239.668 273.736 Z M 241.876 372.562 C 251.543 372.895 262.333 372.667 272 373 C 270.228 366.531 275.586 352.933 269.279 351 L 241 351 C 241.667 358 241.21 365.562 241.876 372.562 Z M 436 492 C 314.914 491.92 193.822 492.161 72.74 491.879 C 56.782 495.418 41.883 470.545 44 466.721 C 42.483 483.199 46.036 502.915 63.575 509.475 C 82.58 514.4 102.735 510.985 122.262 512 C 227.927 511.89 333.602 512.221 439.26 511.834 C 459.68 510.378 470.869 489.161 468 470.475 C 469.867 455.888 462.732 493.739 448.425 490.1 C 444.423 491.407 440.205 492 436 492 Z M 256.625 177.1 L 242.062 196.756 C 193.248 262.633 144.137 328.433 95.687 394.647 C 94.563 395.824 93.702 396.931 93.25 397.927 C 93.242 397.947 93.258 397.963 93.25 397.982 L 80.125 415.876 L 81.344 415.984 L 79.594 418.37 L 105 418.37 L 105.125 418.424 C 105.125 418.424 105.949 418.46 106.281 418.479 L 107.562 418.614 C 125.042 420.349 142.775 418.936 157.188 419.319 L 157.468 419.346 L 435.812 419.346 L 418.72 396.22 C 369.544 329.723 320.357 263.235 271.157 196.756 L 256.625 177.1 Z M 256.562 234.523 L 370.375 388.357 L 142.75 388.357 C 180.54 337.032 218.539 285.786 256.563 234.523 Z"/></svg>