<svg xmlns="http://www.w3.org/2000/svg" width="512" height="512" data-tags="calendar-warning" style="margin-left:2px;margin-top:2px"><path d="M448 64h-48c.896 16.23.134 35.995-16.76 44.132-21.633 13.056-51.015-7.53-47.24-32.214 3.016-11.524-3.3-13.716-13.607-11.918H176c.896 16.23.134 35.995-16.76 44.132-21.633 13.056-51.015-7.53-47.24-32.214 3.016-11.524-3.3-13.716-13.607-11.918-19.106 1.648-41.596-5.368-56.993 9.4-14.71 15.26-7.78 37.636-9.4 56.616.11 107.08-.221 214.171.166 321.244 1.456 20.42 22.673 31.609 41.359 28.74 125.91-.11 251.831.221 377.735-.166 20.42-1.456 31.609-22.673 28.74-41.359-.11-115.243.221-230.498-.166-345.735C478.474 76.856 463.959 63.708 448 64zm0 383.942c-127.944.097-256.057.097-384 0V160h384v287.942zM144 96c16.848-.08 16.804-18.69 16-30.967-.73-18.38 1.53-37.14-1.257-55.26-8.43-19.68-36.603-5.82-30.743 13.03.216 20.135-.433 40.314.325 60.421 1.372 7.27 8.271 12.91 15.675 12.776zm224 0c16.848-.08 16.804-18.69 16-30.967-.73-18.38 1.53-37.14-1.257-55.26-8.43-19.68-36.603-5.82-30.743 13.03.216 20.135-.433 40.314.325 60.421 1.372 7.27 8.271 12.91 15.675 12.776zM239.668 273.736L271 274c.333 26.333-1.196 34.05-.862 60.384-11-.334-20.138.141-31.138-.192.223-26.088.445-34.368.668-60.456zm2.208 98.826c9.667.333 20.457.105 30.124.438-1.772-6.469 3.586-20.067-2.721-22H241c.667 7 .21 14.562.876 21.562zM436 492c-121.086-.08-242.178.161-363.26-.121-15.958 3.539-30.857-21.334-28.74-25.158-1.517 16.478 2.036 36.194 19.575 42.754 19.005 4.925 39.16 1.51 58.687 2.525 105.665-.11 211.34.221 316.998-.166 20.42-1.456 31.609-22.673 28.74-41.359 1.867-14.587-5.268 23.264-19.575 19.625-4.002 1.307-8.22 1.9-12.425 1.9zM256.625 177.1l-14.563 19.656c-48.814 65.877-97.925 131.677-146.375 197.891-1.124 1.177-1.985 2.284-2.437 3.28-.008.02.008.036 0 .055l-13.125 17.894 1.219.108-1.75 2.386H105l.125.054s.824.036 1.156.055l1.281.135c17.48 1.735 35.213.322 49.626.705l.28.027h278.344L418.72 396.22a687216.706 687216.706 0 0 0-147.563-199.464L256.625 177.1zm-.063 57.423l113.813 153.834H142.75c37.79-51.325 75.789-102.571 113.813-153.834z"/></svg>