<svg xmlns="http://www.w3.org/2000/svg" viewBox="0 0 512 512"><path d="M100.659-0.082 100.659-0.082C84.925-0.082 72.253 12.59 72.253 28.324L72.253 482.852C72.253 497.055 86.456 511.258 100.659 511.258L356.332 511.258C370.529 511.258 384.732 497.055 384.732 482.852L384.732 340.813 398.94 340.813C413.138 340.813 413.138 355.016 413.138 355.016L413.138 411.832C413.138 440.238 427.341 454.446 455.757 454.446 484.157 454.446 498.365 440.243 498.365 411.832 498.365 378.691 498.365 284.001 498.365 255.59 498.365 227.19 441.549 198.774 441.549 170.373L441.549 85.156 413.143 85.156 384.737 56.745 384.737 28.344C384.737 12.605 372.07-0.067 356.337-0.067ZM129.065 56.735L327.916 56.735 327.916 170.368 129.065 170.368ZM384.732 141.952L413.138 141.952C413.138 141.952 413.138 165.622 413.138 184.566 413.138 212.977 469.955 241.382 469.955 269.793L469.955 411.827C469.96 426.035 455.762 426.035 455.762 426.035 455.762 426.035 441.554 426.035 441.554 411.832 441.554 411.832 441.554 355.016 441.554 340.813 441.554 326.615 427.351 312.407 413.153 312.407 403.681 312.407 384.742 312.407 384.742 312.407Z"/></svg>