<?xml version="1.0" encoding="iso-8859-1"?>
<!-- Generator: Adobe Illustrator 19.0.0, SVG Export Plug-In . SVG Version: 6.00 Build 0)  -->
<svg version="1.1" id="Layer_1" xmlns="http://www.w3.org/2000/svg" xmlns:xlink="http://www.w3.org/1999/xlink" x="0px" y="0px"
	 viewBox="0 0 300 300" style="enable-background:new 0 0 300 300;" xml:space="preserve">
<path id="XMLID_30_" style="fill-rule:evenodd;clip-rule:evenodd;" d="M253.428,8.709c-5.318-7.936-15.699-8.816-24.402-8.699
	c-52.447,0.236-104.914,0.1-157.385,0.059C68.63,0.162,65.624,0.32,62.657,0.9c-9.628,1.6-17.55,9.688-19.241,19.238
	c-1.545,9.416-0.655,19.025-0.773,28.52c-0.02,77.041,0.059,154.084-0.059,231.125c0.217,4.752,0.389,9.938,3.336,13.943
	c4.645,6.346,14.056,7.93,20.924,4.516c4.139-2.254,7.203-5.924,10.287-9.377c22.539-26.607,45.973-52.461,68.467-79.113
	c2.484-2.818,5.396-5.904,9.516-5.672c16.225-0.832,32.49,0.545,48.736-0.291c5.516-0.289,11.262-1.865,15.262-5.879
	c5.451-5.357,7.144-13.141,8.871-20.305c9.219-44.688,17.568-89.563,26.822-134.25C256.98,32.078,260.203,19.054,253.428,8.709z
	 M212.957,81.091c-1.339,4.432-7.105,4.133-10.986,4.447c-19.508,0.389-39.02-0.469-58.508,0.094
	c-5.959-0.232-12.404,3.512-12.773,9.977c-1.264,8.059-0.752,20.496,9.358,22.268c19.099,2.135,38.454-0.703,57.573,1.146
	c6.366,0.191,6.484,7.705,5.49,12.344c-2.189,11.232-3.857,22.646-7.139,33.643c-0.836,3.641-4.295,5.551-7.842,5.58
	c-16.113,1.348-32.324-0.557-48.432,0.59c-6.604,0.094-10.539,6.018-14.445,10.465c-16.246,19.971-32.59,39.848-49.362,59.379
	c-0.659-62.832,0.06-125.689-0.368-188.541c0.137-4.699-0.1-9.609,1.627-14.076c2.471-5.201,8.971-5.068,13.865-5.34
	c38.258,0.041,76.535,0.139,114.797-0.039c6.346,0.195,13.022-0.859,14.676,4.793C222.678,45.302,215.931,71.244,212.957,81.091z"/>
<g>
</g>
<g>
</g>
<g>
</g>
<g>
</g>
<g>
</g>
<g>
</g>
<g>
</g>
<g>
</g>
<g>
</g>
<g>
</g>
<g>
</g>
<g>
</g>
<g>
</g>
<g>
</g>
<g>
</g>
</svg>
