<svg width="512" height="512" viewBox="0 0 512 512" data-du="" data-tags="freeway" style="margin-left:8px;margin-top:8px"><path d="M 496,224l-16,0 l0,80 q0,6.5 -4.75,11.25t-11.25,4.75t-11.25-4.75t-4.75-11.25l0-80 l-384,0 l0,80 q0,6.5 -4.75,11.25t-11.25,4.75t-11.25-4.75t-4.75-11.25l0-80 l-16,0 q-6.5,0 -11.25-4.75t-4.75-11.25l0-32 q0-6.5 4.75-11.25t 11.25-4.75l 480,0 q 6.5,0 11.25,4.75t 4.75,11.25l0,32 q0,6.5 -4.75,11.25t-11.25,4.75z M 288,16q0-6.5 4.75-11.25t 11.25-4.75l 32,0 q 6.5,0 11.25,4.75t 4.75,11.25l 22.5,112l-86.5,0 l0-112 zM 160,16q0-6.5 4.75-11.25t 11.25-4.75l 32,0 q 6.5,0 11.25,4.75t 4.75,11.25l0,112 l-86.5,0 zM 224,256l0,240 q0,6.5 -4.75,11.25t-11.25,4.75l-128,0 q-6.5,0 -11.25-4.75t-4.75-11.25l 48-240l 112,0 zM 448,496 q0,6.5 -4.75,11.25t-11.25,4.75l-128,0 q-6.5,0 -11.25-4.75t-4.75-11.25l0-240 l 112,0 z"/></svg>