<svg viewBox="0 0 512 512" xmlns="http://www.w3.org/2000/svg"><path d="M 471.69 401.237 L 398.039 401.237 L 405.299 347.364 L 427.976 350.426 L 444.559 227.351 L 430.991 205.735 L 426.409 133.66 C 426.409 133.66 423.649 113.365 406.38 111.045 L 149.432 76.414 C 132.163 74.084 124.119 92.921 124.119 92.921 L 100.634 161.206 L 81.812 178.45 L 65.219 301.525 L 84.654 304.146 L 77.271 358.951 L 123.694 365.202 L 131.082 310.408 L 358.871 341.113 L 351.488 395.907 L 391.04 401.237 L 281.052 401.237 L 281.052 365.284 L 0 365.284 L 0 425.198 L 512 425.198 L 471.69 401.237 Z M 241.224 176.853 C 238.208 170.591 233.426 163.971 226.022 160.52 C 217.958 156.752 214.451 150.198 212.977 144.479 C 216.084 140.926 218.337 136.041 219.09 130.45 C 220.739 118.229 214.584 107.308 205.343 106.064 C 196.096 104.814 187.269 113.718 185.626 125.939 C 184.602 133.507 186.573 140.562 190.408 145.145 L 188.974 150.024 C 188.974 150.024 182.067 148.611 172.902 149.968 C 173.082 146.476 172.559 142.82 169.175 144.93 C 169.175 144.93 166.226 142.779 165.586 145.523 C 165.586 145.523 162.534 143.081 161.997 146.117 C 161.997 146.117 158.515 144.837 158.126 147.761 C 158.126 147.761 152.131 152.917 150.994 158.999 C 149.105 160.433 147.261 162.076 145.485 163.95 L 128.051 161.6 L 137.508 91.426 L 408.484 127.952 L 399.032 198.126 L 241.224 176.853 Z"/></svg>