<svg xmlns="http://www.w3.org/2000/svg" xmlns:xlink="http://www.w3.org/1999/xlink" version="1.1" id="Layer_1" x="0px" y="0px" width="100px" height="99" viewBox="0 0 100 99" enable-background="new 0 0 100 99.375" xml:space="preserve" data-tags="hotel-roof" style="margin-left: 8px; margin-top: 8px;" data-license="&amp;nbsp;" data-author="&amp;nbsp;" class="metadata">




<path d="M 10.924,84.883l0.00,14.492 L 3.333,99.376 L 3.333,46.329 c0.00-2.096, 1.699-3.815, 3.795-3.815l0.00,0.00c 2.123,0.00, 3.795,1.719, 3.795,3.815l0.00,31.367 L 96.55,77.695   l0.00,21.68 l-7.656,0.00 L 88.894,84.883 L 10.924,84.883 zM 22.624,61.614c 3.796,0.00, 6.869-3.072, 6.869-6.888c0.00-3.789-3.073-6.862-6.869-6.862c-3.815,0.00-6.888,3.073-6.888,6.862  C 15.736,58.542, 18.809,61.614, 22.624,61.614zM 96.667,71.992l-0.026-9.466c-0.026-3.008-2.552-5.078-5.481-5.443l-54.05-5.377c-0.117-0.026-0.208-0.078-0.306-0.078  c-1.862,0.00-3.379,1.523-3.379,3.372l0.00,10.208 L 19.284,65.207 c-1.888,0.00-3.398,1.537-3.398,3.398c0.00,1.875, 1.511,3.386, 3.398,3.386L 96.667,71.992 zM 100.00,24.883L 50.065,0.065L 50.045-0.00L 50.00,0.026L 49.955-0.00L 49.935,0.065L0.00,24.883L 4.16,33.255L 50.00,10.469L 95.84,33.255 z"></path></svg>