<svg xmlns="http://www.w3.org/2000/svg" width="512" height="512" viewBox="0 0 512 512">
  <path d="M60 17.6h57.2v178.7h100.5v43.3H60v-222"/>
  <path d="M378.8 202.4c12.4 0 22.5-1.5 30.3-4.6v-43.1h-34.9v-38.4h89.2v106.8c-28.7 13.9-59.3 20.8-92.1 20.8-37.1 0-66.5-10.3-88-30.8-21.5-20.6-32.2-48.7-32.2-84.3 0-36 10.9-64.2 32.8-84.6 22-20.4 52.2-30.6 90.6-30.6 29.7 0 56.6 5.5 80.7 16.5v46c-24.5-14-49.1-21-73.7-21-22.9 0-40.5 6.4-52.8 19.2-12.3 12.7-18.5 30.8-18.5 54.5 0 23.4 5.9 41.6 17.7 54.4 11.8 12.8 28.8 19.2 50.9 19.2"/>
  <path d="M183.5 338.9c0-2.7-.4-5.2-1.1-7.5-.5-2.3-1.7-4.8-3.5-7.4-1.7-2.7-4.5-4.8-8.5-6.2-3.9-1.6-8.7-2.4-14.4-2.4h-31.7v47H156c18.3 0 27.5-7.9 27.5-23.5m9.1 91.2c0-19.2-11.6-28.8-34.7-28.8h-33.6v58.1h33.6c23.1 0 34.7-9.7 34.7-29.3m48.1-94.9c0 11.2-2.6 20.5-7.9 27.9-5.1 7.4-12.3 12.9-21.7 16.5 12 3.5 21.4 10 28.3 19.5 6.9 9.5 10.4 21.4 10.4 35.7 0 9.9-1.6 18.6-4.8 25.8-3 8-7.9 14-14.7 20-6.6 6-15.7 10-27.2 13s-25.2 5-41 5H67.08V276.4H153c17 0 31.2 1.4 42.8 4.2 11.7 2.7 20.8 6.7 27.2 12.2 6.5 5.3 11 11.4 13.7 18.3 2.7 6.7 4 14.7 4 24.1"/>
  <path d="M282.5 276.4h204.6v43.3h-73.6v178.9h-57.2V319.7h-73.8v-43.3"/>
</svg>
