<svg viewBox="0 0 512 512" xmlns="http://www.w3.org/2000/svg"><path d="m256 61.85c-43.331 0-152.233 9.671-201.559 44.554-49.321 34.888-33.398 115.83 22.149 104.535 62.551-12.718 75.515-43.986 42.291-74.322 0 0 57.698-25.661 137.119-25.661m0-49.106c43.331 0 152.238 9.671 201.559 44.554 49.321 34.882 33.398 115.83-22.149 104.535-62.551-12.718-75.515-43.986-42.291-74.322 0 0-57.703-25.661-137.119-25.661m192.148 235.171c-4.597-41.405-25.559-49.853-58.972-95.723-30.044-41.257-37.668-71.649-40.612-114.591 0 0-11.361-5.396-27.048-5.396 0 0 4.613 49.566-65.521 49.566-70.139 0-65.526-49.566-65.526-49.566-15.688 0-27.049 5.396-27.049 5.396-2.939 42.942-10.562 73.334-40.612 114.591-33.408 45.87-54.369 54.318-58.967 95.723-10.132 91.244 116.173 99.881 192.159 99.881 75.981 0 202.291-8.637 192.148-99.881zm-192.148 18.903c-41.272 0-74.732-33.464-74.732-74.736s33.46-74.732 74.732-74.732 74.732 33.465 74.732 74.732-33.46 74.736-74.732 74.736z"/></svg>