<svg xmlns="http://www.w3.org/2000/svg" xmlns:xlink="http://www.w3.org/1999/xlink" version="1.1" x="0px" y="0px" width="100px" height="100px" viewBox="0 0 100 100" enable-background="new 0 0 100 100" xml:space="preserve" data-tags="phone" style="margin-left: 8px; margin-top: 8px;">










<path d="M50,12.08c-8.463,0-29.733,1.889-39.367,8.702C1,27.596,4.11,43.405,14.959,41.199c12.217-2.484,14.749-8.591,8.26-14.516   c0,0,11.269-5.012,26.781-5.012M50,12.08c8.463,0,29.734,1.889,39.367,8.702c9.633,6.813,6.523,22.623-4.326,20.417   c-12.217-2.484-14.749-8.591-8.26-14.516c0,0-11.27-5.012-26.781-5.012M87.529,67.603c-0.898-8.087-4.992-9.737-11.518-18.696c-5.868-8.058-7.357-13.994-7.932-22.381   c0,0-2.219-1.054-5.283-1.054c0,0,0.901,9.681-12.797,9.681c-13.699,0-12.798-9.681-12.798-9.681c-3.064,0-5.283,1.054-5.283,1.054   c-0.574,8.387-2.063,14.323-7.932,22.381c-6.525,8.959-10.619,10.609-11.517,18.696C10.49,85.424,35.159,87.111,50,87.111   c0,0,0,0,0,0C64.84,87.111,89.51,85.424,87.529,67.603z M50,71.295c-8.061,0-14.596-6.536-14.596-14.597S41.939,42.102,50,42.102   c8.061,0,14.596,6.536,14.596,14.596S58.061,71.295,50,71.295z"></path></svg>