<svg xmlns:dc="http://purl.org/dc/elements/1.1/" xmlns:cc="http://creativecommons.org/ns#" xmlns:rdf="http://www.w3.org/1999/02/22-rdf-syntax-ns#" xmlns:svg="http://www.w3.org/2000/svg" xmlns="http://www.w3.org/2000/svg" xmlns:xlink="http://www.w3.org/1999/xlink" xmlns:sodipodi="http://sodipodi.sourceforge.net/DTD/sodipodi-0.dtd" xmlns:inkscape="http://www.inkscape.org/namespaces/inkscape" width="64px" height="64px" id="svg2" version="1.1" inkscape:version="0.48.2 r9819" sodipodi:docname="flag.svg" data-tags="pin-flag" viewBox="0 0 64 64" style="margin-left: 8px; margin-top: 8px;">








  <path d="M 8.00,0.00  m0.00,0.00,0.00,1.124 0.00,53.624 0.00,1.252 1.252,0.00 1.50,0.00 1.252,0.00 0.00-1.252 0.00-53.624 0.00-1.124 -1.252,0.00 -1.50,0.00 -1.252,0.00 zM 0.00,56.00  m0.00,0.00,0.00,2.376 0.00,3.124 0.00,2.50 2.376,0.00 15.252,0.00 2.376,0.00 0.00-2.50 0.00-3.124 0.00-2.376 -2.376,0.00 -15.252,0.00 -2.376,0.00 zM 12.00,8.00  m0.00,0.00, 52.00,14.00 -52.00,14.00 z"></path></svg>