<svg xmlns="http://www.w3.org/2000/svg" width="512" height="512" viewBox="0 0 512 512"><path d="M160 384v-384h-64v384h-80l112 112 112-112h-80zM464 512h-128c-5.9 0-11.322-3.248-14.107-8.45-2.783-5.202-2.479-11.515.795-16.425l111.416-167.125h-98.104c-8.836 0-16-7.164-16-16s7.164-16 16-16h128c5.9 0 11.322 3.248 14.107 8.45 2.783 5.202 2.479 11.515-.795 16.425l-111.415 167.125h98.103c8.836 0 16 7.164 16 16s-7.164 16-16 16zM510.311 200.843l-96.001-192c-2.71-5.421-8.251-8.845-14.311-8.845s-11.601 3.424-14.312 8.845l-95.998 192c-3.952 7.903-.748 17.515 7.155 21.466 2.297 1.148 4.738 1.693 7.144 1.693 5.868 0 11.52-3.242 14.322-8.849l27.578-55.155h108.223l27.578 55.155c3.951 7.903 13.562 11.105 21.466 7.155 7.904-3.951 11.108-13.562 7.156-21.465zM361.889 127.998l38.11-76.223 38.112 76.223h-76.222z"/></svg>