<svg viewBox="0 0 512 512" xmlns="http://www.w3.org/2000/svg"><path d="m309.555 275.594c-2.114-5.478-5.11-10.649-8.919-15.344 8.51-5.003 15.227-8.945 15.227-8.945l76.237-45.117c-.881-2.709-1.367-5.607-1.367-8.612 0-15.437 12.544-27.945 28.027-27.945s28.032 12.508 28.032 27.945c0 15.426-12.549 27.934-28.032 27.934-6.298 0-12.094-2.099-16.779-5.601-16.952 10.885-40.739 25.493-77.071 46.746zm11.961 64.676c-2.607.742-5.151 2.161-7.599 4.076-.937-.538-3.271-1.859-3.271-1.859-2.53-1.326-5.484-2.877-12.851-7.777-3.682 4.162-7.911 7.931-12.58 11.207l12.211 7.22c.015.01 5.954 3.445 8.008 4.633-.42 1.823-.743 3.579-.743 5.156 0 2.197.302 4.408.912 6.584 3.578 12.637 16.547 20.086 28.912 16.599 5.863-1.648 10.757-5.529 13.768-10.91 2.012-3.554 3.057-7.588 3.057-11.664 0-2.242-.303-4.48-.922-6.661-3.574-12.626-16.558-20.086-28.902-16.604zm-22.185-47.437c-2.985-26.383-30.633-44.938-61.783-41.446-31.14 3.502-53.965 27.725-50.985 54.113 2.985 26.378 30.648 44.938 61.783 41.436 31.139-3.486 53.97-27.714 50.985-54.103zm152.238-25.482c-16.118 0-29.645 10.941-33.618 25.769-31.862-.502-68.096-.86-104.817-1.009.143 2.217.154 4.45.036 6.697-.215 3.738-.824 7.394-1.772 10.957 37.136-.143 73.8-.502 106.005-.993 3.128 15.964 17.229 28.016 34.166 28.016 19.235 0 34.831-15.539 34.831-34.713s-15.596-34.724-34.831-34.724zm-263.527 71.547c-2.334-2.514-4.382-5.202-6.195-7.992-13.87 8.514-25.923 16.158-35.912 22.789-5.283-5.023-12.042-7.716-19.189-7.44-7.112.282-13.696 3.303-18.535 8.5-4.823 5.201-7.347 11.965-7.076 19.061.579 14.638 12.98 26.082 27.669 25.524 14.372-.553 25.631-12.217 25.631-26.537l-.026-1.03c-.056-1.617-.445-3.409-.927-5.278.768-.446 20.393-11.812 39.481-22.876-1.726-1.48-3.369-3.052-4.921-4.721zm-99.645-120.279c4.72 3.164 10.388 4.316 15.979 3.22 2.939-.558 5.771-2.007 8.5-4.075 1.356 1.055 27.028 20.92 27.028 20.92l42.179 32.497.041.031c3.046-5.044 6.84-9.698 11.207-13.865l-.281-.21c-37.366-28.985-59.828-43.715-72.285-51.072.466-1.777.825-3.492.825-5.033l-.4-4.071c-2.247-11.474-13.45-18.995-24.965-16.747-5.586 1.085-10.414 4.275-13.593 8.985-2.391 3.538-3.641 7.614-3.641 11.792 0 1.367.133 2.739.415 4.111 1.096 5.555 4.291 10.358 8.991 13.517zm151.071-25.764c-.405 12.513-.738 28.483-.968 43.837 2.806-.307 5.652-.476 8.535-.476 2.836 0 5.642.164 8.402.476-.236-15.354-.548-31.303-.953-43.837 19.282-3.594 33.199-20.035 33.199-39.634 0-22.369-18.269-40.581-40.72-40.581s-40.699 18.212-40.699 40.581c0 19.599 13.916 36.05 33.204 39.634zm-65.951 105.585c.107-2.094.338-4.168.701-6.211-32.01.2-62.628.543-88.99.978-2.781-13.722-14.941-24.054-29.512-24.054-16.63 0-30.116 13.44-30.116 30.024 0 16.568 13.486 29.998 30.116 29.998 13.291 0 24.56-8.596 28.544-20.516 26.496.441 57.323.778 89.595.983-.523-3.686-.645-7.434-.338-11.202z"/></svg>