<svg viewBox="0 0 512 512" xmlns="http://www.w3.org/2000/svg"><path d="m208 64c8.833 0 16-7.167 16-16v-32c0-8.833-7.167-16-16-16s-16 7.167-16 16v32c0 8.833 7.167 16 16 16zm124.438 42.167 22.625-22.625c6.249-6.25 6.249-16.375 0-22.625-6.25-6.25-16.375-6.25-22.625 0l-22.625 22.625c-6.25 6.25-6.25 16.375 0 22.625 6.249 6.25 16.375 6.25 22.625 0zm-316.438 117.833h32c8.833 0 16-7.167 16-16s-7.167-16-16-16h-32c-8.833 0-16 7.167-16 16s7.167 16 16 16zm336-16c0 8.833 7.167 16 16 16h32c8.833 0 16-7.167 16-16s-7.167-16-16-16h-32c-8.833 0-16 7.167-16 16zm-268.459-101.833c6.251 6.25 16.376 6.25 22.625 0 6.251-6.25 6.251-16.375 0-22.625l-22.625-22.625c-6.25-6.25-16.374-6.25-22.625 0-6.25 6.25-6.25 16.375 0 22.625zm316.459 149.833c-5.312 0-10.562.375-15.792 1.125-16.771-22.875-39.124-40.333-64.458-51.5-1.291-60.625-50.812-109.625-111.75-109.625-61.75 0-112 50.25-112 112 0 17.438 4.334 33.75 11.5 48.438-59.625 2.437-107.5 51.374-107.5 111.562 0 61.75 50.25 112 112 112 13.688 0 27.084-2.5 39.709-7.333 28.957 25.25 65.791 39.333 104.291 39.333 38.542 0 75.333-14.083 104.291-39.333 12.625 4.833 26.021 7.333 39.709 7.333 61.75 0 112-50.25 112-112s-50.25-112-112-112zm-144-64c-45.938 0-88.5 19.812-118.375 53.25-5.937-11.167-9.625-23.708-9.625-37.25 0-44.188 35.812-80 80-80 39.812 0 72.562 29.167 78.708 67.25-10.02-2-20.249-3.25-30.708-3.25z"/></svg>