<?xml version="1.0" encoding="UTF-8" standalone="no"?>
<!-- Created with Inkscape (http://www.inkscape.org/) -->

<svg
   xmlns:dc="http://purl.org/dc/elements/1.1/"
   xmlns:cc="http://creativecommons.org/ns#"
   xmlns:rdf="http://www.w3.org/1999/02/22-rdf-syntax-ns#"
   xmlns:svg="http://www.w3.org/2000/svg"
   xmlns="http://www.w3.org/2000/svg"
   version="1.1"
   width="100"
   height="100"
   viewBox="0 0 100 100"
   id="Layer_1"
   xml:space="preserve"><metadata
     id="metadata4384"><rdf:RDF><cc:Work
         rdf:about=""><dc:format>image/svg+xml</dc:format><dc:type
           rdf:resource="http://purl.org/dc/dcmitype/StillImage" /><dc:title></dc:title></cc:Work></rdf:RDF></metadata><defs
     id="defs4382" /><path
     d="M 42.74,51.27 C 43.73,53.24 48.18,63.61 48.18,65.09 48.18,73.22 37.32,73.22 37.32,65.09 37.32,63.61 41.75,52.74 42.74,51.27 z"
     id="path4374" /><path
     d="M 49.17,46.68 C 49.17,45.55 49.17,43.68 49.17,40.41 49.17,36.42 45.55,32.99 40.77,32.99 40.77,32.99 40.75,32.99 29.6,32.99 L 29.54,29.52 C 29.54,28.51 28.72,27.7 27.72,27.7 H 23.35 V 25.46 C 23.73,25.23 24.04,24.96 24.3,24.6 25.62,24.6 28.27,24.6 33.62,24.6 34.23,25.41 35.16,25.96 36.24,25.96 38.09,25.96 39.6,24.45 39.6,22.59 39.6,20.76 38.09,19.24 36.24,19.24 35.12,19.24 34.18,19.82 33.57,20.66 32.1,20.66 29.35,20.66 24.35,20.66 23.74,19.82 22.8,19.24 21.68,19.24 20.57,19.24 19.63,19.82 19.02,20.66 16.17,20.66 12.78,20.66 8.838,20.66 8.23,19.82 7.281,19.24 6.18,19.24 4.318,19.24 2.805,20.76 2.805,22.59 2.805,24.45 4.319,25.96 6.18,25.96 7.26,25.96 8.182,25.41 8.795,24.6 10.48,24.6 13.53,24.6 19.06,24.6 19.32,24.97 19.65,25.24 20.03,25.47 V 27.7 H 15.39 C 14.39,27.7 13.57,28.51 13.57,29.52 V 32.99 C 12.44,32.99 9.174,32.99 0,32.99 V 43.86 C 0.326,43.86 2.528,43.86 15.1,43.86 16.58,46.83 18.56,48.3 21.53,48.3 24.48,48.3 26.95,46.83 28.43,43.86 28.43,43.86 28.43,43.86 33.85,43.86 35.48,43.86 36.08,44.9 36.25,46.9 35.78,47.22 35.44,47.75 35.44,48.37 35.44,49.38 36.26,50.18 37.27,50.18 H 48.54 C 49.55,50.18 50.36,49.38 50.36,48.37 50.36,47.58 49.86,46.93 49.17,46.68 z"
     id="path4376" /><path
     d="M 50.84,78.07 C 50.68,78.85 50.7,79.66 50.93,80.44 51.12,81.17 51.51,81.86 52.05,82.43 53.87,84.27 56.85,84.32 58.72,82.52 L 67.96,73.51 69.15,74.72 59.9,83.74 C 57.37,86.19 53.32,86.13 50.84,83.61 49.98,82.73 49.51,81.64 49.25,80.49 H 29.91 C 27.28,80.49 25.15,82.62 25.15,85.23 25.15,87.87 27.28,90 29.91,90 H 63.41 C 64.5,90 65.5,89.57 66.32,88.91 L 88.13,72.4 H 100 V 56.23 H 99.9 V 56.07 H 72.4 L 52.16,75.79 C 51.51,76.41 51.06,77.19 50.84,78.07 z"
     id="path4378" /></svg>