<svg viewBox="0 0 512 512" xmlns="http://www.w3.org/2000/svg"><path d="m446.599 314.296c5.735-53.248-11.196-107.042-47.377-147.725-13.243-14.882-28.399-27.17-44.919-37.001 2.458-8.738 4.096-17.749 4.096-27.17 0-56.525-45.876-102.4-102.4-102.4-56.525 0-102.4 45.875-102.4 102.4 0 9.557 1.775 18.704 4.233 27.58-10.377 6.144-20.344 12.971-29.627 21.298-46.558 41.507-69.632 102.4-63.216 163.291-37.956 15.019-64.989 51.882-64.989 95.028 0 56.524 45.875 102.399 102.4 102.399 32.904 0 61.85-15.838 80.554-40.004 23.347 9.557 48.196 14.335 72.909 14.335 24.848 0 49.697-4.778 73.046-14.335 18.704 24.166 47.786 40.004 80.691 40.004 56.525 0 102.4-45.875 102.4-102.399 0-43.418-27.307-80.419-65.4-95.301zm-139.398 95.301c0 5.187.818 10.239 1.501 15.291-33.587 13.654-71.68 13.654-105.54.136.819-5.052 1.501-10.102 1.501-15.427 0-51.883-38.912-94.345-89.019-101.036-4.505-44.509 12.561-88.747 46.558-119.057 6.554-5.871 13.654-10.785 20.889-15.156 18.569 18.842 44.374 30.584 72.773 30.584 28.535 0 54.34-11.878 72.908-30.72 11.742 7.101 22.393 15.975 31.95 26.624 26.487 29.765 38.912 69.086 34.816 107.999-49.697 6.69-88.337 49.016-88.337 100.762z"/></svg>