<svg viewBox="0 0 512 512" xmlns="http://www.w3.org/2000/svg"><path d="m482.9 348-46.9-56 30-26 46 56-31 26zm29.1-196.767c-.881 1.49-21.826 38.699-63.998 76.599-21.106 18.927-47.584 38.02-79.667 52.48-32.041 14.451-69.743 24.176-112.337 24.155-42.595.014-80.296-9.704-112.341-24.155-48.12-21.716-83.626-53.738-107.33-80.222-23.7-26.546-35.683-47.731-36.327-48.857l29.331-16.479 13.676-7.747.024.042.007.014c.895 1.629 20.324 34.678 56.487 66.307 18.068 15.844 40.244 31.322 66.274 42.774 26.061 11.453 55.91 18.955 90.199 18.969 35.104-.014 65.561-7.879 92.056-19.793 39.685-17.843 70.324-45.158 90.808-68.111 10.245-11.459 17.938-21.779 22.98-29.092 2.525-3.656 4.385-6.564 5.574-8.488.594-.965 1.02-1.678 1.286-2.118l.252-.448.042-.063 9.707 5.516-9.734-5.467zm-360 238.767 20-66 38 10-20 66zm-152-68 46-56 30 26-46 56zm322 78-20-66 38-10 20 66z"/></svg>