<svg viewBox="0 0 512 512" xmlns="http://www.w3.org/2000/svg"><path d="m108.698 71.956h166.006v37.126h-166.006zm234.139 0h166.354v37.126h-166.354zm169.163 330.476c-.017 19.768-6.525 38.724-18.093 52.702-11.567 13.981-27.253 21.844-43.61 21.866h-250.387v-37.128h250.387c8.214-.008 16.088-3.957 21.896-10.98 5.81-7.016 9.078-16.534 9.085-26.461zm-20.308-81.2c-.011 19.327-6.368 37.86-17.675 51.525-11.307 13.664-26.643 21.351-42.636 21.364h-97.893c-33.078-.065-65.032-14.52-90.01-40.718-24.982-26.202-41.321-62.402-46.029-101.965h-109.824c-4.857 16.229-15.782 22.721-29.457 27.693s-28.493 1.834-39.954-8.464c-11.46-10.294-18.214-20.534-18.214-37.793 0-17.26 6.754-27.498 18.214-37.794 11.461-10.298 26.279-13.436 39.954-8.463 13.675 4.972 24.6 11.466 29.457 27.694h109.468c2.682-18.318 10.607-34.913 22.392-46.881 11.783-11.969 26.675-18.547 42.068-18.581h32.051v-113.849h30.721v113.849h24.729c45.314.021 87.925 26.065 114.789 70.166h-102.967l17.714 67.256h110.135c1.975 11.498 2.971 23.217 2.968 34.961z"/></svg>