<svg viewBox="0 0 512 512" xmlns="http://www.w3.org/2000/svg"><path d="m344.727 144.303c12.415-13.695 13.273-28.665 13.273-28.665s-31.251-13.904-34.666-15.618c-3.427-1.717-3.644-5.992-3.644-5.992s.857-9.838.857-15.829c0-5.984 5.14-5.984 5.14-5.984s20.76-.215 23.542-.652c2.1-.312 4.701-3.848 4.701-3.848s-13.274-44.715-56.284-44.715c-43.014 0-58.646 29.097-58.646 50.489 0 21.391 7.28 36.578 7.28 36.578zm87.779 159.346c2.875 0 5.711.151 8.518.393l.238-.393s11.977-23.956 11.977-37.316c0-43.299-88.022-66.333-88.022-66.333l-12.294 20.29c-12.293-6.043-25.259-13.187-33.087-19.587-14.495-11.861-52.078-57.095-55.812-60.567-12.976-12.061-33.267-11.329-45.335 1.634-.718.771-17.72 19.063-35.01 39.75-6.707 8.034-12.359 15.083-17.128 21.354 3.087 3.457 27.037 29.161 57.157 30.685.078.003.151.014.227.025 10.808-13.511 24.768-29.682 37.892-43.987 11.645 12.497 26.23 27.466 37.24 36.473 9.64 7.883 23.799 15.844 36.807 22.356l-16.746 27.635v-2.113c0-4.46-3.615-8.08-8.077-8.08l-55.419.004c-12.117-4.998-23.914-10.41-33.48-15.286-32.204-1.94-57.143-24.606-65.768-33.526-11.281 16.941-14.038 26.715-14.038 35.917 0 7.024 1.743 13.331 5.033 19.158l-96.359-9.422-10.786 50.144c12.024-5.269 25.299-8.205 39.264-8.205 54.09 0 97.938 36.829 97.938 90.894 0 9.18-1.292 18.057-3.658 26.488h164.44c-2.363-8.431-3.658-17.308-3.658-26.488 0-54.073 43.852-91.903 97.939-91.903z"/><path d="m512 409.542c0 43.883-35.599 79.458-79.494 79.458-43.903 0-79.494-35.575-79.494-79.458 0-43.882 35.591-79.457 79.494-79.457 43.895 0 79.49 35.575 79.494 79.457zm-79.494-46.377c-25.627 0-46.406 20.765-46.406 46.377 0 25.616 20.782 46.385 46.406 46.385s46.399-20.772 46.399-46.385c0-25.612-20.775-46.377-46.399-46.377zm-306.613 46.377c0 25.616-20.768 46.385-46.399 46.385-25.627 0-46.406-20.772-46.406-46.385 0-25.612 20.782-46.377 46.406-46.377 25.631 0 46.399 20.765 46.399 46.377zm-46.399-79.457c-43.903 0-79.494 35.575-79.494 79.457 0 43.883 35.588 79.458 79.494 79.458s79.498-35.575 79.498-79.458c0-43.882-35.595-79.457-79.498-79.457z"/></svg>