<svg viewBox="0 0 512 512" xmlns="http://www.w3.org/2000/svg"><path d="m460.79 204.746c0-54.304-21.572-106.387-59.969-144.777-38.397-38.4-90.477-59.969-144.777-59.969s-106.387 21.569-144.776 59.969c-38.397 38.397-59.97 90.477-59.97 144.777v.5h409.496zm47.496 60.155 3.714.099v-50h-512v50l3.786-.099c14.593 0 32.591 5.799 42.912 16.119 10.32 10.32 16.119 24.319 16.119 38.915v119.113l-24.884 22.853-37.933.099v50h512v-50l-37.874-.099-24.884-22.853v-119.113c0-14.597 5.799-28.595 16.119-38.915s28.319-16.119 42.915-16.119zm-277.29 174.145-24.888 22.853h-68.297l-24.884-22.853v-118.293c-.219-14.668 5.428-28.815 15.68-39.3 10.255-10.486 28.272-16.443 42.941-16.555 14.664-.107 32.768 5.641 43.178 15.972 10.41 10.334 16.266 24.395 16.266 39.063zm168.166 0-24.888 22.853h-68.297l-24.885-22.853v-119.113c0-14.596 5.799-28.595 16.119-38.915s28.32-16.119 42.915-16.119c14.593 0 32.591 5.799 42.912 16.119 10.324 10.32 16.119 24.319 16.119 38.915z"/></svg>