<svg viewBox="0 0 512 512" xmlns="http://www.w3.org/2000/svg"><path d="m511.989 51.197v-51.197h-511.989v51.201h25.598v409.593h-25.598v51.202h512v-51.202h-25.598l-.005-409.604zm-230.398 0h51.201v102.398h-51.201zm51.201 307.197v-58.881c-15.36-7.679-25.599-25.598-25.599-43.521 0-28.161 23.04-51.201 51.201-51.201 28.162 0 51.202 23.04 51.202 51.201 0 17.919-10.239 35.842-25.599 43.521l-.004 58.881zm-255.995-307.197h51.201v409.593l-51.201.004zm153.599 409.604h-51.201v-409.604h51.201zm51.197-51.201h51.201v51.201h-51.201zm153.599 51.201h-51.201v-51.201h51.201zm0-307.198h-51.201l.004-102.402h51.201z"/></svg>