<svg viewBox="0 0 512 512" xmlns="http://www.w3.org/2000/svg"><path d="m92.231 370h319.309v142h-319.309zm160.679-370h15.351v139l-15.351-3zm96.202 70-1.024 90-60.382-15v-75zm-278.112 217.388 29.794-78.337 44.27-19.567 10.345-96.376-68.193-15.555 9.134-27.812 70.07-4.748 23.037-44.993 29.374 138.016c.192-.682 184.75 52.55 184.75 52.55 11.031 3.295 37.419 78.877 37.419 78.877l-18.826 16.655-28.718-74.73-21.614 69.065 8.177 25.011-93.869 50.575-65.114.632 84.467-48.844-31.751-51.088-86.1-25.721-29.659-8.711-33.522 13.543-22.366 64.17zm274.402-253.015c0 12.36-10.253 22.378-22.901 22.378-12.65 0-22.898-10.019-22.898-22.378 0-12.355 10.248-22.373 22.898-22.373s22.901 10.018 22.901 22.373z"/></svg>