<svg viewBox="0 0 512 512" xmlns="http://www.w3.org/2000/svg"><path d="m251.651 199.047c-10.847 0-19.755-8.743-19.755-19.592 0-10.848 8.907-19.755 19.755-19.755 11.016 0 19.763 8.907 19.763 19.755 0 10.844-8.751 19.596-19.763 19.592z"/><path d="m512 512h-512l183.475-330.119 71.742 72.222 44.69-40.971zm-70.883-472.786c.974-.807 1.781-1.621 2.431-2.1 18.142-14.577 44.53-11.986 59.107 5.988 14.573 18.136 11.826 44.53-6.312 59.107-17.808 14.577-44.202 11.822-58.779-6.316-1.778 3.238-4.05 6.152-6.317 9.071-22.671 27.045-62.999 30.443-90.037 7.774.81 7.286-.651 14.569-4.048 21.048-9.558 18.138-32.228 25.262-50.359 15.547-18.465-9.553-25.429-32.06-15.714-50.362 9.553-18.138 32.224-25.261 50.362-15.547-10.042-31.577 5.669-65.586 36.268-78.378 32.384-13.767 69.962 1.621 83.397 34.168z"/></svg>