<svg height="512" viewBox="0 0 512 512" width="512"><path d="m496 224h-16v80q0 6.5-4.75 11.25t-11.25 4.75-11.25-4.75-4.75-11.25v-80h-384v80q0 6.5-4.75 11.25t-11.25 4.75-11.25-4.75-4.75-11.25v-80h-16q-6.5 0-11.25-4.75t-4.75-11.25v-32q0-6.5 4.75-11.25t11.25-4.75h480q6.5 0 11.25 4.75t4.75 11.25v32q0 6.5-4.75 11.25t-11.25 4.75zm-208-208q0-6.5 4.75-11.25t11.25-4.75h32q6.5 0 11.25 4.75t4.75 11.25l22.5 112h-86.5zm-128 0q0-6.5 4.75-11.25t11.25-4.75h32q6.5 0 11.25 4.75t4.75 11.25v112h-86.5zm64 240v240q0 6.5-4.75 11.25t-11.25 4.75h-128q-6.5 0-11.25-4.75t-4.75-11.25l48-240zm224 240q0 6.5-4.75 11.25t-11.25 4.75h-128q-6.5 0-11.25-4.75t-4.75-11.25v-240h112z"/></svg>