<svg viewBox="0 0 512 512" xmlns="http://www.w3.org/2000/svg"><path d="m432.517 14.863c-9.076-13.544-26.793-15.046-41.646-14.846-89.51.403-179.053.171-268.604.101-5.138.158-10.269.428-15.332 1.418-16.432 2.731-29.952 16.534-32.838 32.833-2.637 16.07-1.118 32.469-1.32 48.674-.034 131.483.101 262.97-.1 394.453.37 8.11.664 16.961 5.693 23.796 7.928 10.831 23.989 13.534 35.71 7.708 7.064-3.847 12.294-10.111 17.557-16.004 38.466-45.409 78.46-89.533 116.85-135.019 4.24-4.81 9.209-10.076 16.241-9.68 27.691-1.42 55.449.93 83.176-.497 9.414-.493 19.22-3.183 26.047-10.034 9.303-9.142 12.193-22.427 15.14-34.653 15.734-76.268 29.983-152.855 45.776-229.12 3.712-19.247 9.213-41.474-2.35-59.13zm-69.07 123.532c-2.286 7.564-12.126 7.054-18.75 7.59-33.293.664-66.594-.801-99.853.16-10.171-.396-21.17 5.994-21.8 17.028-2.157 13.754-1.283 34.98 15.971 38.004 32.596 3.643 65.628-1.2 98.258 1.956 10.865.326 11.066 13.149 9.37 21.067-3.736 19.169-6.583 38.649-12.184 57.417-1.427 6.214-7.33 9.474-13.384 9.523-27.499 2.301-55.166-.95-82.657 1.007-11.271.161-17.987 10.271-24.653 17.86-27.726 34.084-55.62 68.008-84.244 101.341-1.125-107.234.102-214.51-.628-321.777.233-8.02-.171-16.399 2.776-24.023 4.218-8.876 15.311-8.649 23.663-9.114 65.294.07 130.62.238 195.92-.066 10.831.333 22.225-1.466 25.048 8.18 3.737 12.767-7.778 57.042-12.853 73.847z"/></svg>