<svg width="512" height="512" viewBox="0 0 512 512" data-tags="cloudy, weather" style="margin-left: 8px; margin-top: 8px;"><path d="M 208.00,64.00c 8.833,0.00, 16.00-7.167, 16.00-16.00L 224.00,16.00 c0.00-8.833-7.167-16.00-16.00-16.00s-16.00,7.167-16.00,16.00l0.00,32.00
			C 192.00,56.833, 199.167,64.00, 208.00,64.00z M 332.438,106.167l 22.625-22.625c 6.249-6.25, 6.249-16.375,0.00-22.625
			c-6.25-6.25-16.375-6.25-22.625,0.00l-22.625,22.625c-6.25,6.25-6.25,16.375,0.00,22.625
			C 316.062,112.417, 326.188,112.417, 332.438,106.167z M 16.00,224.00l 32.00,0.00 c 8.833,0.00, 16.00-7.167, 16.00-16.00s-7.167-16.00-16.00-16.00L 16.00,192.00
			c-8.833,0.00-16.00,7.167-16.00,16.00S 7.167,224.00, 16.00,224.00z M 352.00,208.00c0.00,8.833, 7.167,16.00, 16.00,16.00l 32.00,0.00 c 8.833,0.00, 16.00-7.167, 16.00-16.00s-7.167-16.00-16.00-16.00l-32.00,0.00
			C 359.167,192.00, 352.00,199.167, 352.00,208.00z M 83.541,106.167c 6.251,6.25, 16.376,6.25, 22.625,0.00c 6.251-6.25, 6.251-16.375,0.00-22.625
			L 83.541,60.917c-6.25-6.25-16.374-6.25-22.625,0.00c-6.25,6.25-6.25,16.375,0.00,22.625L 83.541,106.167z M 400.00,256.00
			c-5.312,0.00-10.562,0.375-15.792,1.125c-16.771-22.875-39.124-40.333-64.458-51.50C 318.459,145.00, 268.938,96.00, 208.00,96.00
			c-61.75,0.00-112.00,50.25-112.00,112.00c0.00,17.438, 4.334,33.75, 11.50,48.438C 47.875,258.875,0.00,307.812,0.00,368.00c0.00,61.75, 50.25,112.00, 112.00,112.00
			c 13.688,0.00, 27.084-2.50, 39.709-7.333C 180.666,497.917, 217.50,512.00, 256.00,512.00c 38.542,0.00, 75.333-14.083, 104.291-39.333
			C 372.916,477.50, 386.312,480.00, 400.00,480.00c 61.75,0.00, 112.00-50.25, 112.00-112.00S 461.75,256.00, 400.00,256.00z M 256.00,192.00c-45.938,0.00-88.50,19.812-118.375,53.25
			C 131.688,234.083, 128.00,221.542, 128.00,208.00c0.00-44.188, 35.812-80.00, 80.00-80.00c 39.812,0.00, 72.562,29.167, 78.708,67.25
			C 276.688,193.25, 266.459,192.00, 256.00,192.00z"></path></svg>