<svg viewBox="0 0 512 512" xmlns="http://www.w3.org/2000/svg"><path d="m279.536 32s-100.48 0-133.968 0c-60.064 0-116.584 45.504-116.584 98.208 0 53.864 40.944 97.336 102.04 97.336 4.248 0 8.376-.088 12.424-.376-3.968 7.592-6.8 16.144-6.8 25.024 0 14.968 8.048 27.104 18.232 37.016-7.696 0-15.12.224-23.224.224-74.392 0-131.648 47.376-131.648 96.512 0 48.392 62.768 78.656 137.168 78.656 84.816 0 131.656-48.12 131.656-96.512 0-38.8-11.448-62.04-46.84-87.064-12.112-8.576-35.264-29.416-35.264-41.672 0-14.36 4.096-21.432 25.712-38.32 22.16-17.312 37.84-41.648 37.84-69.96 0-33.704-15.008-66.552-43.184-77.384h42.48l29.984-21.672zm-46.792 327.728c1.064 4.488 1.64 9.104 1.64 13.816 0 39.104-25.192 69.656-97.488 69.656-51.424 0-88.56-32.552-88.56-71.648 0-38.32 46.064-70.224 97.48-69.664 12 .128 23.184 2.056 33.336 5.344 27.912 19.416 47.936 30.384 53.584 52.504zm-82.336-145.84c-34.52-1.032-67.32-38.616-73.272-83.928-5.96-45.336 17.184-80.024 51.696-78.992 34.504 1.04 67.32 37.408 73.28 82.728s-17.192 81.232-51.696 80.192zm265.592-85.888v-96h-32v96h-96v32h96v96h32v-96h96v-32z"/></svg>