<svg viewBox="0 0 512 512" xmlns="http://www.w3.org/2000/svg"><path d="m2 104.4c0-56.554 45.846-102.4 102.4-102.4h307.2c56.553 0 102.4 45.846 102.4 102.4v307.2c0 56.553-45.847 102.4-102.4 102.4h-307.2c-56.554 0-102.4-45.847-102.4-102.4zm102.4-51.2c-28.277 0-51.2 22.923-51.2 51.2v307.2c0 28.278 22.923 51.2 51.2 51.2h307.2c28.278 0 51.2-22.922 51.2-51.2v-307.2c0-28.277-22.922-51.2-51.2-51.2zm153.6 128c-42.417 0-76.8 34.383-76.8 76.8s34.383 76.8 76.8 76.8 76.8-34.383 76.8-76.8-34.383-76.8-76.8-76.8zm-128 76.8c0-70.692 57.308-128 128-128s128 57.308 128 128-57.308 128-128 128-128-57.308-128-128zm268.8-102.4c21.207 0 38.4-17.192 38.4-38.4s-17.193-38.4-38.4-38.4-38.4 17.192-38.4 38.4 17.193 38.4 38.4 38.4z"/></svg>