<svg viewBox="0 0 512 512" xmlns="http://www.w3.org/2000/svg"><path d="m128 320c0-17.664 14.336-32 32-32s32 14.336 32 32-14.336 32-32 32-32-14.336-32-32zm192 0c0-17.664 14.336-32 32-32s32 14.336 32 32-14.336 32-32 32-32-14.336-32-32zm1.568 68.384c8.256-6.496 20.192-5.088 26.688 3.168s5.088 20.192-3.168 26.688c-22.944 18.08-57.92 29.76-89.056 29.76s-66.112-11.68-89.088-29.76c-8.256-6.496-9.664-18.432-3.168-26.688s18.432-9.664 26.688-3.168c13.216 10.4 39.36 21.6 65.568 21.6s52.352-11.2 65.568-21.6zm190.432-132.384c0-35.36-28.64-64-64-64-24.064 0-44.992 13.28-55.936 32.896-32.896-17.984-72.96-29.632-116.64-32.32l38.176-85.76 73.088 21.088c6.592 18.656 24.352 32.064 45.28 32.064 26.496 0 48-21.504 48-48s-21.504-48-48-48c-18.272 0-34.176 10.208-42.272 25.248l-81.44-23.52c-9.12-2.624-18.784 1.856-22.624 10.528l-51.872 116.512c-42.56 3.008-81.632 14.496-113.824 32.128-10.944-19.616-31.872-32.896-55.936-32.896-35.36 0-64 28.64-64 64 0 26.144 15.712 48.64 38.176 58.56-4.032 12-6.176 24.544-6.176 37.44 0 88.352 100.288 160 224 160s224-71.648 224-160c0-12.896-2.144-25.44-6.176-37.44 22.496-9.92 38.176-32.416 38.176-58.56zm-80-161.984c9.952 0 18.016 8.064 18.016 18.016s-8.064 18.016-18.016 18.016-18.016-8.064-18.016-18.016 8.064-18.016 18.016-18.016zm-400 161.984c0-17.632 14.368-32 32-32 12.768 0 23.776 7.488 28.928 18.336-16.736 12.672-30.592 27.328-40.832 43.36-11.776-4.736-20.096-16.256-20.096-29.696zm224 218.016c-102.72 0-186.016-54.624-186.016-122.016s83.264-122.016 186.016-122.016c102.72 0 186.016 54.624 186.016 122.016s-83.264 122.016-186.016 122.016zm203.904-188.32c-10.24-16.064-24.096-30.688-40.832-43.36 5.152-10.816 16.16-18.336 28.928-18.336 17.632 0 32 14.368 32 32 0 13.44-8.32 24.96-20.096 29.696z"/></svg>