<svg viewBox="0 0 512 512" xmlns="http://www.w3.org/2000/svg"><path d="m512 97.208c-18.84 8.352-39.08 14-60.328 16.536 21.688-13 38.344-33.584 46.184-58.112-20.296 12.04-42.776 20.776-66.704 25.488-19.16-20.416-46.464-33.168-76.672-33.168-58.008 0-105.04 47.032-105.04 105.04 0 8.232.928 16.248 2.72 23.936-87.296-4.384-164.704-46.2-216.512-109.752-9.04 15.512-14.224 33.56-14.224 52.808 0 36.448 18.544 68.6 46.728 87.432-17.216-.544-33.416-5.272-47.576-13.136-.008.44-.008.88-.008 1.32 0 50.896 36.208 93.344 84.264 103-8.816 2.4-18.096 3.688-27.672 3.688-6.768 0-13.352-.664-19.76-1.888 13.368 41.728 52.16 72.104 98.128 72.944-35.952 28.176-81.24 44.968-130.456 44.968-8.48 0-16.84-.496-25.056-1.472 46.488 29.808 101.704 47.2 161.024 47.2 193.208 0 298.864-160.064 298.864-298.872 0-4.552-.104-9.088-.304-13.592 20.528-14.808 38.336-33.312 52.416-54.376z"/></svg>