<?xml version="1.0" encoding="iso-8859-1"?>
<!-- Generator: Adobe Illustrator 16.0.0, SVG Export Plug-In . SVG Version: 6.00 Build 0)  -->
<!DOCTYPE svg PUBLIC "-//W3C//DTD SVG 1.1//EN" "http://www.w3.org/Graphics/SVG/1.1/DTD/svg11.dtd">
<svg version="1.1" id="Capa_1" xmlns="http://www.w3.org/2000/svg" xmlns:xlink="http://www.w3.org/1999/xlink" x="0px" y="0px"
	 width="495.267px" height="495.267px" viewBox="0 0 495.267 495.267" style="enable-background:new 0 0 495.267 495.267;"
	 xml:space="preserve">
<g>
	<path d="M438.062,179.243c9.233-3.728,18.604-7.103,28.08-10.266c0,0-2.252-0.019-6.478-0.049c-0.44,0-0.502,0.004-0.381,0.004
		c-8.188,0.011-16.362,0.253-24.516,0.701L391.695,43.971l-2.916-8.509l-4.253,7.951l-82.854,155.006
		c-10.526,4.046-20.911,8.47-31.138,13.23L208.44,45.381l-3.603-9.645l-3.682,9.609L84.509,349.796
		c-8.48,9.023-16.757,18.236-24.771,27.681c-12.016,14.157-23.511,28.76-34.377,43.821c-8.92,12.36-17.547,25.007-25.211,38.191
		L0,459.805h93.523l20.405-38.874l26.94,0.023c-8.367,16.472-14.333,30.199-17.88,38.851h102.948
		c7.143-38.139,19.007-75.653,35.742-110.683c5.52-11.553,11.592-22.852,18.21-33.819l31.01,105.331h37.685L298.72,287.116
		c8.878-12.01,18.522-23.449,28.966-34.158c25.984-26.637,56.572-48.571,90.069-64.77c0.437-0.211,0.88-0.41,1.318-0.621
		l38.965,158.567h37.229L438.062,179.243z M129.608,305.837l75.116-245.863l47.321,160.744c-4.092,2.109-8.159,4.27-12.194,6.486
		c-34.479,18.963-66.897,41.645-96.932,67.045C138.426,298.049,134,301.925,129.608,305.837z M167.726,373.804l-25.423-0.006
		c0,0,22.575-30.451,34.22-44.7l23.319,0.087C188.732,342.78,177.926,357.793,167.726,373.804z M238.374,288.618l-23.896,0.131
		l47.346-35.6l3.873,13.948C256.435,273.481,247.295,280.659,238.374,288.618z M301.615,241.036l-11.95-5.186l44.147-26.158
		l12.272,1.139C326.298,221.889,301.615,241.036,301.615,241.036z M367.604,198.134l-8.709-1.5c0,0,23.084-11.365,49.542-18.906
		l2.5,0.489C389.437,185.467,367.604,198.134,367.604,198.134z M350.022,182.786c-5.53,1.452-11.029,3.025-16.499,4.686
		l53.558-130.084l27.959,113.771C393.133,173.347,371.412,177.171,350.022,182.786z"/>
</g>
<g>
</g>
<g>
</g>
<g>
</g>
<g>
</g>
<g>
</g>
<g>
</g>
<g>
</g>
<g>
</g>
<g>
</g>
<g>
</g>
<g>
</g>
<g>
</g>
<g>
</g>
<g>
</g>
<g>
</g>
</svg>
