<?xml version="1.0" encoding="iso-8859-1"?>
<!-- Generator: Adobe Illustrator 16.0.0, SVG Export Plug-In . SVG Version: 6.00 Build 0)  -->
<!DOCTYPE svg PUBLIC "-//W3C//DTD SVG 1.1//EN" "http://www.w3.org/Graphics/SVG/1.1/DTD/svg11.dtd">
<svg version="1.1" id="Capa_1" xmlns="http://www.w3.org/2000/svg" xmlns:xlink="http://www.w3.org/1999/xlink" x="0px" y="0px"
	 width="486.621px" height="486.621px" viewBox="0 0 486.621 486.621" style="enable-background:new 0 0 486.621 486.621;"
	 xml:space="preserve">
<g>
	<g>
		<g>
			<path d="M462.905,325.818h-0.063v-99.593c-5.819,2.059-12.008,3.402-18.522,3.402c-4.81,0-9.414-0.805-13.875-1.945v98.136
				h-39.341v-62.388c0-5.883-4.776-10.66-10.659-10.66h-36.035c-5.887,0-10.66,4.777-10.66,10.66v62.388h-47.934v-9.995
				c0-5.885-4.777-10.66-10.66-10.66h-40.767c-5.883,0-10.66,4.775-10.66,10.66v9.995h-61.406v-27.966
				c0-5.887-4.777-10.664-10.664-10.664H90.917c-5.887,0-10.66,4.777-10.66,10.664v27.966H56.495v-98.848
				c-5.156,1.566-10.535,2.672-16.199,2.672c-5.66,0-11.039-1.105-16.195-2.672v98.848h-0.066
				c-13.082,0-23.695,10.634-23.695,23.716V462.59c0,13.082,10.613,23.693,23.695,23.693h438.872
				c13.099,0,23.711-10.611,23.711-23.693V349.534C486.616,336.452,476.003,325.818,462.905,325.818z"/>
			<path d="M109.015,110.245c-4.227,0-7.656,3.418-7.656,7.641v55.602c0,22.051,17.891,39.941,39.957,39.941
				c22.051,0,39.941-17.891,39.941-39.941v-55.602c0-4.223-3.434-7.641-7.656-7.641H109.015z"/>
			<path d="M210,110.245c-4.223,0-7.656,3.418-7.656,7.641v55.602c0,22.051,17.891,39.941,39.957,39.941
				c22.051,0,39.942-17.891,39.942-39.941v-55.602c0-4.223-3.435-7.641-7.656-7.641H210z"/>
			<path d="M310.999,110.245c-4.223,0-7.655,3.418-7.655,7.641v55.602c0,22.051,17.892,39.957,39.957,39.957
				c22.069,0,39.961-17.906,39.961-39.957v-55.602c0-4.223-3.435-7.641-7.655-7.641H310.999z"/>
			<path d="M7.646,90.186h471.328c3.293,0,6.22-2.117,7.263-5.25c1.026-3.133-0.047-6.582-2.703-8.543L383.37,1.858
				c-1.327-0.98-2.926-1.52-4.569-1.52H107.841c-1.645,0-3.242,0.539-4.57,1.52L3.091,76.393c-2.66,1.961-3.734,5.41-2.707,8.543
				C1.433,88.069,4.357,90.186,7.646,90.186z"/>
			<path d="M40.294,213.444c22.066,0,39.961-17.906,39.961-39.957v-55.602c0-4.223-3.434-7.641-7.656-7.641H7.996
				c-4.223,0-7.656,3.418-7.656,7.641v55.602C0.337,195.538,18.229,213.444,40.294,213.444z"/>
			<path d="M476.604,110.245h-64.586c-4.227,0-7.655,3.418-7.655,7.641v55.602c0,22.051,17.892,39.941,39.957,39.941
				c22.051,0,39.94-17.891,39.94-39.941v-55.602C484.261,113.663,480.827,110.245,476.604,110.245z"/>
		</g>
	</g>
</g>
<g>
</g>
<g>
</g>
<g>
</g>
<g>
</g>
<g>
</g>
<g>
</g>
<g>
</g>
<g>
</g>
<g>
</g>
<g>
</g>
<g>
</g>
<g>
</g>
<g>
</g>
<g>
</g>
<g>
</g>
</svg>
