<?xml version="1.0" encoding="iso-8859-1"?>
<!-- Generator: Adobe Illustrator 16.0.0, SVG Export Plug-In . SVG Version: 6.00 Build 0)  -->
<!DOCTYPE svg PUBLIC "-//W3C//DTD SVG 1.1//EN" "http://www.w3.org/Graphics/SVG/1.1/DTD/svg11.dtd">
<svg version="1.1" id="Capa_1" xmlns="http://www.w3.org/2000/svg" xmlns:xlink="http://www.w3.org/1999/xlink" x="0px" y="0px"
	 width="329.4px" height="329.4px" viewBox="0 0 329.4 329.4" style="enable-background:new 0 0 329.4 329.4;" xml:space="preserve"
	>
<g>
	<path d="M321.3,251.101c4.472,0,8.1-3.629,8.1-8.101c0-90.811-73.892-164.7-164.7-164.7C73.889,78.3,0,152.189,0,243
		c0,4.472,3.628,8.101,8.1,8.101c4.472,0,8.1-3.629,8.1-8.101c0-81.881,66.62-148.5,148.5-148.5c81.881,0,148.5,66.619,148.5,148.5
		C313.2,247.472,316.828,251.101,321.3,251.101z"/>
	<path d="M294.3,251.101c4.472,0,8.1-3.629,8.1-8.101c0-75.927-61.773-137.7-137.7-137.7C88.77,105.3,27,167.073,27,243
		c0,4.472,3.628,8.101,8.1,8.101c4.472,0,8.1-3.629,8.1-8.101c0-66.993,54.509-121.5,121.5-121.5c66.994,0,121.5,54.507,121.5,121.5
		C286.2,247.472,289.828,251.101,294.3,251.101z"/>
	<path d="M268.65,251.101c4.472,0,8.1-3.629,8.1-8.101c0-61.783-50.266-112.05-112.05-112.05c-61.781,0-112.05,50.267-112.05,112.05
		c0,4.472,3.628,8.101,8.1,8.101c4.472,0,8.1-3.629,8.1-8.101c0-52.851,43-95.85,95.85-95.85c52.851,0,95.851,42.999,95.851,95.85
		C260.55,247.472,264.178,251.101,268.65,251.101z"/>
	<path d="M164.7,157.539c-46.606,0-84.52,37.916-84.52,84.522c0,4.472,3.628,8.1,8.1,8.1c4.469,0,8.1-3.628,8.1-8.1
		c0-37.674,30.649-68.322,68.32-68.322c37.674,0,68.323,30.648,68.323,68.322c0,4.472,3.628,8.1,8.1,8.1s8.1-3.628,8.1-8.1
		C249.222,195.455,211.306,157.539,164.7,157.539z"/>
</g>
<g>
</g>
<g>
</g>
<g>
</g>
<g>
</g>
<g>
</g>
<g>
</g>
<g>
</g>
<g>
</g>
<g>
</g>
<g>
</g>
<g>
</g>
<g>
</g>
<g>
</g>
<g>
</g>
<g>
</g>
</svg>
