<?xml version="1.0" encoding="iso-8859-1"?>
<!-- Generator: Adobe Illustrator 18.1.1, SVG Export Plug-In . SVG Version: 6.00 Build 0)  -->
<svg version="1.1" id="Capa_1" xmlns="http://www.w3.org/2000/svg" xmlns:xlink="http://www.w3.org/1999/xlink" x="0px" y="0px"
	 viewBox="0 0 483.764 483.764" style="enable-background:new 0 0 483.764 483.764;" xml:space="preserve">
<g>
	<g>
		<path style="fill:#010002;" d="M290.865,348.179l135.04,0.114c0.024-25.369-13.965-47.455-34.644-59.013l0.041-48.251l17.55,0.016
			c0.008-10.461-22.532-18.964-50.357-18.988c-27.816-0.024-50.373,8.437-50.381,18.907l17.55,0.016l-0.041,48.251
			C304.911,300.749,290.881,322.81,290.865,348.179z"/>
		<polygon style="fill:#010002;" points="366.217,473.099 368.59,469.921 368.59,464.792 368.623,430.774 368.647,400.576 
			368.671,374.28 368.68,360.966 348.057,360.949 348.049,369.013 348.025,394.342 348.017,406.916 347.984,444.698 347.96,469.905 
			348.626,470.807 358.259,483.764 		"/>
		<path style="fill:#010002;" d="M170.911,296.132C90.959,354.528,90.959,421.548,326.11,473.278v-65.841
			c0,0-195.964-36.538-123.847-99.786s-84.651-108.712-84.651-108.712S222.447,258.497,170.911,296.132z"/>
		<path style="fill:#010002;" d="M57.859,92.284l98.803,0.081c0.016-18.558-10.218-34.725-25.345-43.179l0.033-35.302l12.835,0.008
			C144.193,6.235,127.7,0.016,107.346,0C86.984-0.008,70.475,6.178,70.475,13.835l12.835,0.008l-0.033,35.302
			C68.134,57.583,57.875,73.726,57.859,92.284z"/>
		<polygon style="fill:#010002;" points="99.681,126.058 99.673,135.268 99.648,162.905 99.632,181.349 100.12,182.007 
			107.167,191.493 112.995,183.69 114.727,181.365 114.727,177.609 114.751,152.72 114.767,130.626 114.784,111.386 
			114.792,101.648 99.705,101.632 99.697,107.533 		"/>
	</g>
</g>
<g>
</g>
<g>
</g>
<g>
</g>
<g>
</g>
<g>
</g>
<g>
</g>
<g>
</g>
<g>
</g>
<g>
</g>
<g>
</g>
<g>
</g>
<g>
</g>
<g>
</g>
<g>
</g>
<g>
</g>
</svg>
