<?xml version="1.0" encoding="iso-8859-1"?>
<!-- Generator: Adobe Illustrator 16.0.0, SVG Export Plug-In . SVG Version: 6.00 Build 0)  -->
<!DOCTYPE svg PUBLIC "-//W3C//DTD SVG 1.1//EN" "http://www.w3.org/Graphics/SVG/1.1/DTD/svg11.dtd">
<svg version="1.1" id="Capa_1" xmlns="http://www.w3.org/2000/svg" xmlns:xlink="http://www.w3.org/1999/xlink" x="0px" y="0px"
	 width="586.5px" height="586.5px" viewBox="0 0 586.5 586.5" style="enable-background:new 0 0 586.5 586.5;" xml:space="preserve"
	>
<g>
	<g id="Layer_1_124_">
		<g>
			<path d="M545.7,404.175h-70.125c2.55-7.65,3.825-14.025,3.825-22.95v-127.5c0-91.8-73.95-165.75-165.75-165.75h-147.9
				C73.95,87.975,0,161.925,0,253.725v127.5c0,33.149,26.775,59.925,59.925,59.925H137.7c0-2.55,0-5.1,0-6.375
				c0-56.1,45.9-102,102-102c56.1,0,102,45.9,102,102c0,2.55,0,5.1,0,6.375h204c1.275,0,2.55,1.275,2.55,2.55v29.325
				c0,10.2,8.925,19.125,19.125,19.125s19.125-8.925,19.125-19.125V443.7C586.5,422.025,567.375,404.175,545.7,404.175z
				 M87.975,285.6c-21.675,0-38.25-17.85-38.25-38.25c0-57.375,45.9-103.275,103.275-103.275h68.85V285.6H87.975z M392.7,285.6
				H258.825V144.075h68.85c57.375,0,103.275,45.9,103.275,103.275C430.95,269.025,413.101,285.6,392.7,285.6z"/>
			<circle cx="239.7" cy="434.775" r="63.75"/>
		</g>
	</g>
</g>
<g>
</g>
<g>
</g>
<g>
</g>
<g>
</g>
<g>
</g>
<g>
</g>
<g>
</g>
<g>
</g>
<g>
</g>
<g>
</g>
<g>
</g>
<g>
</g>
<g>
</g>
<g>
</g>
<g>
</g>
</svg>
