<?xml version="1.0" encoding="utf-8"?>
<!-- Generator: Adobe Illustrator 16.0.0, SVG Export Plug-In . SVG Version: 6.00 Build 0)  -->
<!DOCTYPE svg PUBLIC "-//W3C//DTD SVG 1.1//EN" "http://www.w3.org/Graphics/SVG/1.1/DTD/svg11.dtd">
<svg version="1.1" id="Layer_1" xmlns="http://www.w3.org/2000/svg" xmlns:xlink="http://www.w3.org/1999/xlink" x="0px" y="0px"
	 width="512px" height="512px" viewBox="0 0 512 512" enable-background="new 0 0 512 512" xml:space="preserve">
<path d="M480.623,163.146l-41.53-40.722c-7.083-7.018-16.656-10.956-26.648-10.956H242.753V98.311
	c13.468-8.684,22.429-23.739,22.429-40.963c0-26.943-21.866-48.792-48.808-48.792c-26.945,0-48.793,21.848-48.793,48.792
	c0,17.224,8.961,32.279,22.434,40.963v128.301H59.669c-8.443,0-16.206,4.602-20.268,12.016l-16.98,30.984
	c-3.783,6.914-3.783,15.283,0,22.197l16.98,30.994c4.062,7.407,11.824,12.007,20.268,12.007h130.346v142.258
	c0,14.578,11.807,26.375,26.359,26.375c14.585,0,26.379-11.797,26.379-26.375V270.923h169.691c9.992,0,19.565-3.938,26.648-10.956
	l41.53-40.729c7.538-7.392,11.793-17.499,11.793-28.051C492.416,180.635,488.161,170.528,480.623,163.146z M429.749,195.028
	l-20.056,19.826c-2.147,2.128-5.043,3.323-8.087,3.323H242.753v-1.067V165.28v-1.067h158.854c3.044,0,5.939,1.195,8.087,3.323
	l20.056,19.827c1.031,1.011,1.617,2.393,1.617,3.832C431.366,192.635,430.78,194.018,429.749,195.028z"/>
</svg>
