<?xml version="1.0" encoding="iso-8859-1"?>
<!-- Generator: Adobe Illustrator 16.0.0, SVG Export Plug-In . SVG Version: 6.00 Build 0)  -->
<!DOCTYPE svg PUBLIC "-//W3C//DTD SVG 1.1//EN" "http://www.w3.org/Graphics/SVG/1.1/DTD/svg11.dtd">
<svg version="1.1" id="Capa_1" xmlns="http://www.w3.org/2000/svg" xmlns:xlink="http://www.w3.org/1999/xlink" x="0px" y="0px"
	 width="58.941px" height="58.94px" viewBox="0 0 58.941 58.94" style="enable-background:new 0 0 58.941 58.94;"
	 xml:space="preserve">
<g>
	<path d="M30.648,18.808l8.452,3.854c0.741,0.336,1.928,0.31,2.652-0.062l15.879-8.15c0.725-0.371,0.721-0.969-0.006-1.335
		l-19.717-9.93c-0.726-0.367-1.904-0.366-2.63,0.002L1.315,20.355c-0.726,0.368-0.725,0.962,0.002,1.326l7.058,3.548
		c0.727,0.365,1.904,0.36,2.628-0.011l12.407-6.352c0.724-0.37,1.972-0.671,2.785-0.671h1.638
		C28.647,18.198,29.907,18.47,30.648,18.808z"/>
	<polygon points="23.258,43.238 25.328,41.512 29.125,41.512 31.183,43.238 29.125,44.635 25.328,44.635 	"/>
	<path d="M29.125,45.301h-3.797l-2.07-1.398v5.695c0,0,0.463,0.296,1.035,0.66c0.572,0.365,1.695,0.661,2.51,0.661h0.849
		c0.814,0,1.92-0.285,2.471-0.635l0.997-0.635v-5.601L29.125,45.301z"/>
	<path d="M22.513,42.663l2.455-2.047V20.981c0-0.814-0.586-1.173-1.312-0.803L9.701,27.326l-8.386-4.247
		C0.589,22.711,0,23.073,0,23.887V49.92c0,0.812,0.585,1.776,1.307,2.151l7.086,3.678c0.722,0.374,1.895,0.377,2.617,0.004
		l11.854-6.102l-0.351-0.224v-6.753 M21.776,38.323L9.251,44.627L3.03,41.843v-2.701l6.304,2.865l12.442-6.18V38.323z
		 M21.776,32.107L9.251,38.41L3.03,35.627v-2.7l6.304,2.865l12.442-6.181V32.107z M21.776,25.892L9.251,32.195L3.03,29.412v-2.701
		l6.304,2.865l12.442-6.181V25.892z"/>
	<g>
		<path d="M57.634,15.767l-17.113,8.898l-9.717-4.535c-0.735-0.344-1.333,0.037-1.333,0.852v19.635l2.333,2.202v6.641l-0.164,0.104
			l7.562,3.755c0.729,0.361,1.906,0.352,2.63-0.021l15.799-8.145c0.724-0.373,1.311-1.335,1.311-2.148v-12.28l-18.42,9.414
			l-8.687-4.052v-2.579l8.563,4.298l18.543-9.455v-3.235l-18.42,9.414l-8.687-4.052v-2.579l8.563,4.298l18.543-9.456v-3.233
			l-18.42,9.415l-8.687-4.054v-2.579l8.563,4.298l18.543-9.455c0,0,0-0.458,0-1.022S58.356,15.39,57.634,15.767z"/>
	</g>
</g>
<g>
</g>
<g>
</g>
<g>
</g>
<g>
</g>
<g>
</g>
<g>
</g>
<g>
</g>
<g>
</g>
<g>
</g>
<g>
</g>
<g>
</g>
<g>
</g>
<g>
</g>
<g>
</g>
<g>
</g>
</svg>
