<?xml version="1.0" encoding="iso-8859-1"?>
<!-- Generator: Adobe Illustrator 16.0.0, SVG Export Plug-In . SVG Version: 6.00 Build 0)  -->
<!DOCTYPE svg PUBLIC "-//W3C//DTD SVG 1.1//EN" "http://www.w3.org/Graphics/SVG/1.1/DTD/svg11.dtd">
<svg version="1.1" id="Capa_1" xmlns="http://www.w3.org/2000/svg" xmlns:xlink="http://www.w3.org/1999/xlink" x="0px" y="0px"
	 width="47px" height="47px" viewBox="0 0 47 47" style="enable-background:new 0 0 47 47;" xml:space="preserve">
<g>
	<g>
		<path d="M25.691,25.144v2.685c4.132,0.627,7.207,2.981,7.207,5.796c0,3.297-4.209,5.967-9.399,5.967
			c-5.189,0-9.398-2.671-9.398-5.967c0-2.812,3.075-5.169,7.206-5.796v-2.685H0v18.241h47V25.144H25.691z"/>
		<path d="M21.307,21.854v-4.941h-3.452v-3.03h2.021v-1.254h-4.04V9.6h5.472c0-1.212,0.981-2.189,2.192-2.189
			c1.212,0,2.193,0.978,2.193,2.189c0,0.102-0.017,0.197-0.031,0.291h0.031v11.965H47v-0.697v-8.505c0-4.97-4.066-9.039-9.038-9.039
			H9.038C4.066,3.615,0,7.684,0,12.653v8.505v0.697L21.307,21.854L21.307,21.854z"/>
		<path d="M18.829,32.548l-0.001,0.639l0.001,0.051c0.139,2.091,1.273,3.175,2.27,3.296c1.229,0.144,1.874-0.369,2.401-1.05
			c0.527,0.681,1.177,1.192,2.402,1.05c0.994-0.121,2.129-1.205,2.267-3.296l0.003-0.646l-0.003-0.042
			C28.029,30.353,18.97,30.353,18.829,32.548z"/>
	</g>
</g>
<g>
</g>
<g>
</g>
<g>
</g>
<g>
</g>
<g>
</g>
<g>
</g>
<g>
</g>
<g>
</g>
<g>
</g>
<g>
</g>
<g>
</g>
<g>
</g>
<g>
</g>
<g>
</g>
<g>
</g>
</svg>
