<?xml version="1.0" encoding="iso-8859-1"?>
<!-- Generator: Adobe Illustrator 16.0.0, SVG Export Plug-In . SVG Version: 6.00 Build 0)  -->
<!DOCTYPE svg PUBLIC "-//W3C//DTD SVG 1.1//EN" "http://www.w3.org/Graphics/SVG/1.1/DTD/svg11.dtd">
<svg version="1.1" id="Capa_1" xmlns="http://www.w3.org/2000/svg" xmlns:xlink="http://www.w3.org/1999/xlink" x="0px" y="0px"
	 width="92.937px" height="92.936px" viewBox="0 0 92.937 92.936" style="enable-background:new 0 0 92.937 92.936;"
	 xml:space="preserve">
<g>
	<g>
		<rect x="36.935" y="20.772" width="56.001" height="32.6"/>
		<path d="M67.638,56.608H33.697V20.772c0,0-6.954,0.666-6.954,5.521c0,0.457,0,0.816,0,1.131
			c-10.906,0.502-18.565,3.508-22.77,8.973C0,41.559,0,47.674,0,51.348v16.256h11.007c-0.293-0.922-0.454-1.9-0.454-2.918
			c0-5.312,4.322-9.635,9.635-9.635s9.635,4.322,9.635,9.635c0,1.018-0.161,1.996-0.454,2.918h34.325
			c-0.293-0.922-0.455-1.9-0.455-2.918C63.238,61.303,64.994,58.329,67.638,56.608z M24.755,44.469
			C14.92,45.485,8.653,47.254,5.17,48.538c0.142-2.901,0.691-6.198,2.86-9.019c2.988-3.883,8.609-6.174,16.725-6.846V44.469z"/>
		<path d="M20.188,57.209c-4.122,0-7.477,3.354-7.477,7.478s3.354,7.478,7.477,7.478c4.123,0,7.477-3.354,7.477-7.478
			S24.31,57.209,20.188,57.209z"/>
		<path d="M82.509,64.686c0,1.018-0.161,1.996-0.454,2.918h10.882V56.608H78.109C80.753,58.329,82.509,61.303,82.509,64.686z"/>
		<path d="M72.873,57.209c-4.122,0-7.477,3.354-7.477,7.478s3.354,7.478,7.477,7.478s7.477-3.354,7.477-7.478
			S76.996,57.209,72.873,57.209z"/>
	</g>
</g>
<g>
</g>
<g>
</g>
<g>
</g>
<g>
</g>
<g>
</g>
<g>
</g>
<g>
</g>
<g>
</g>
<g>
</g>
<g>
</g>
<g>
</g>
<g>
</g>
<g>
</g>
<g>
</g>
<g>
</g>
</svg>
