<?xml version="1.0" encoding="iso-8859-1"?>
<!-- Generator: Adobe Illustrator 18.1.1, SVG Export Plug-In . SVG Version: 6.00 Build 0)  -->
<svg version="1.1" id="Capa_1" xmlns="http://www.w3.org/2000/svg" xmlns:xlink="http://www.w3.org/1999/xlink" x="0px" y="0px"
	 viewBox="0 0 16.16 16.16" style="enable-background:new 0 0 16.16 16.16;" xml:space="preserve">
<g>
	<g>
		<polygon style="fill:#030104;" points="7.95,2.625 14.359,6.292 15.774,6.298 12.656,1.237 11.233,1.239 11.233,0 9.584,0 
			9.584,1.242 8.035,1.253 3.503,1.261 0.386,6.416 2.041,6.407 		"/>
		<path style="fill:#030104;" d="M14.588,7.393l-6.58-3.656L1.73,7.447v6.968H0.756v1.745h14.73v-1.745h-0.898V7.393z M4.763,12.098
			H2.844V8.86h1.918L4.763,12.098L4.763,12.098z M9.353,14.511L9.353,14.511H6.7V8.986h2.653V14.511z M13.458,12.098H11.54V8.86
			h1.918V12.098z"/>
	</g>
</g>
<g>
</g>
<g>
</g>
<g>
</g>
<g>
</g>
<g>
</g>
<g>
</g>
<g>
</g>
<g>
</g>
<g>
</g>
<g>
</g>
<g>
</g>
<g>
</g>
<g>
</g>
<g>
</g>
<g>
</g>
</svg>
