<svg viewBox="0 0 512 512" xmlns="http://www.w3.org/2000/svg"><path d="m501.593 378.103c2.776.693 5.204.345 7.285-1.041 2.081-1.388 3.122-3.47 3.122-6.244v-37.463c0-6.939-3.122-12.488-9.366-16.651l-194.601-115.512c-6.244-3.469-9.366-9.02-9.366-16.65v-130.082c0-6.938-1.388-13.528-4.163-19.772-7.631-19.426-18.385-30.179-32.26-32.26-2.081-.694-4.163-1.041-6.244-1.041s-4.509.347-7.285 1.041c-.694 0-1.561.174-2.601.52s-2.255.867-3.642 1.561c-4.857 1.387-9.366 4.509-13.529 9.366s-7.284 9.366-9.366 13.528l-3.122 7.285c-2.081 6.244-3.122 12.834-3.122 19.772v130.082c0 7.631-3.122 13.182-9.366 16.65l-194.601 115.512c-6.244 4.163-9.366 9.712-9.366 16.651v37.463c0 2.774 1.041 4.856 3.122 6.244 2.081 1.386 4.509 1.734 7.285 1.041l192.52-62.439c2.775-1.389 5.203-1.216 7.284.52 2.082 1.734 3.122 3.988 3.122 6.764v100.943c0 7.632-2.775 13.529-8.325 17.691l-26.016 18.732c-5.55 4.163-8.325 10.059-8.325 17.691v24.976c0 2.774 1.04 4.855 3.122 6.244s4.509 1.733 7.284 1.04l64.52-18.731c6.939-2.082 13.875-2.082 20.814 0l64.52 18.731c2.775.693 5.203.348 7.284-1.04s3.122-3.47 3.122-6.244v-24.976c0-7.632-2.775-13.528-8.325-17.691l-26.016-18.732c-5.55-4.162-8.325-10.059-8.325-17.691v-100.943c0-3.469 1.04-5.898 3.122-7.284 2.081-1.389 4.509-1.389 7.284 0z"/></svg>