<svg viewBox="0 0 512 512" xmlns="http://www.w3.org/2000/svg"><path d="m348 327 44.413 36.748s-51.813 74.986-107.232 76.482c1.203 0-.181-262.23-.181-262.23 37-13 64-46 64-86 0-50-41-92-93-92s-94 42-94 92c0 40 25 73 62 86l.198 261.324c-66.868-4.611-105.198-69.324-105.198-69.324l45-43-164-25 24.814 159.317 43.576-42.152c37.737 30.381 80.356 93.475 182.904 93.475 128.833-3.285 158.58-72.631 191.609-99.9l47.668 46.466 21.429-157.206zm-140-236c0-31 22-47 48-47s48 21 48 47-22 47-48 47-48-21-48-47z"/></svg>