<svg viewBox="0 0 512 512" xmlns="http://www.w3.org/2000/svg"><path d="m214 98c-28-19-65-21-85-21s-57 2-85 21l17 24c15-10 40-16 68-16s53 6 68 16zm39 327c-37-24-79-36-117-36-40 0-96 12-136 36v-384c40-27 91-41 136-41 41 0 80 12 117 35zm-39-227c-28-19-65-21-85-21s-57 2-85 21l17 24c15-10 40-16 68-16s53 6 68 16zm0 100c-28-19-65-21-85-21s-57 2-85 21l17 24c15-10 40-16 68-16s53 6 68 16zm45-263c37-23 76-35 118-35 44 0 96 14 135 41v384c-11-22-26-33-43-38l-6-36c21-21 32-47 32-77s-11-57-32-78-51-33-81-33-58 12-79 33-30 48-30 78 9 56 30 77 49 34 79 34v4c-40 0-86 12-123 36zm185 213c-14-33-52-49-85-35-33 13-49 51-36 84s51 50 85 36c33-13 49-51 36-85zm32 264-78-148c-42 4-80-17-100-57-19-47 8-107 58-120 50-15 94 10 113 51 16 41 2 87-33 111l63 152z"/></svg>