<svg viewBox="0 0 512 512" xmlns="http://www.w3.org/2000/svg"><path d="m505.41 428.552-41.693-41.692c-4.603-4.6-10.517-7.081-16.534-7.461l-14.163-14.161c21.04-33.449 17.014-78.264-12.082-107.358-33.772-33.774-88.722-33.773-122.498 0-33.768 33.773-33.768 88.725.004 122.498 29.096 29.096 73.911 33.12 107.354 12.081l14.164 14.161c.376 6.021 2.86 11.935 7.462 16.535l41.693 41.693c10.021 10.023 26.27 10.021 36.295 0 10.019-10.022 10.021-26.271-.002-36.296zm-102.616-66.32c-23.765 23.764-62.435 23.764-86.203 0-23.764-23.765-23.764-62.434 0-86.202 23.763-23.765 62.43-23.765 86.203.002 23.763 23.765 23.763 62.435 0 86.2z"/><path d="m283.953 244.742c19.846-19.845 46.264-30.774 74.391-30.774s54.545 10.928 74.391 30.774c16.942 16.94 27.66 39.394 30.184 63.23 1.94 18.333-.971 36.931-8.419 53.808l.253.253c7.858 1.923 15.033 5.962 20.758 11.684l4.115 4.116v-287.789c0-4.532-2.243-8.771-5.995-11.32-36.746-24.964-78.481-38.162-120.708-38.162-39.345 0-78.263 11.464-113.11 33.227-34.86-21.763-73.787-33.227-113.132-33.227-42.215 0-83.951 13.197-120.688 38.162-3.75 2.55-5.993 6.79-5.993 11.32v320.81c0 5.071 2.801 9.725 7.283 12.1 4.482 2.373 9.902 2.072 14.099-.776 32.178-21.865 68.595-33.429 105.304-33.429 36.712 0 73.135 11.564 105.326 33.432 2.304 1.572 4.992 2.367 7.683 2.367.015 0 .03-.003.047-.003 2.759.036 5.516-.76 7.873-2.367 13.765-9.354 28.311-16.806 43.321-22.29-2.403-2.011-4.74-4.123-6.98-6.365-41.022-41.019-41.022-107.762-.003-148.781zm-4.533-111.925c25.67-17.55 60.748-20.17 79.376-20.17 18.626 0 53.707 2.621 79.375 20.17 6.321 4.32 7.939 12.942 3.623 19.26-4.321 6.318-12.947 7.939-19.262 3.62-14.253-9.745-37.485-15.335-63.734-15.335-26.251 0-49.484 5.589-63.735 15.335-2.391 1.634-5.115 2.42-7.808 2.42-4.424 0-8.769-2.112-11.456-6.039-4.318-6.317-2.696-14.941 3.621-19.261zm0 59.953c25.67-17.55 60.748-20.17 79.376-20.17 18.626 0 53.707 2.622 79.375 20.17 6.321 4.32 7.939 12.942 3.623 19.26-4.321 6.318-12.947 7.939-19.262 3.62-14.253-9.744-37.485-15.334-63.734-15.334-26.251 0-49.484 5.588-63.735 15.334-2.391 1.635-5.115 2.42-7.808 2.42-4.424 0-8.769-2.112-11.456-6.038-4.318-6.318-2.696-14.942 3.621-19.262zm-75.596 139.168c-4.319 6.319-12.944 7.939-19.262 3.621-14.253-9.746-37.485-15.335-63.735-15.335s-49.483 5.589-63.735 15.335c-2.391 1.633-5.115 2.421-7.808 2.421-4.423 0-8.769-2.112-11.455-6.039-4.319-6.319-2.698-14.941 3.621-19.259 25.67-17.552 60.75-20.169 79.377-20.169s53.707 2.622 79.377 20.169c6.318 4.314 7.938 12.938 3.62 19.256zm0-59.953c-4.319 6.319-12.944 7.939-19.262 3.621-14.253-9.746-37.485-15.335-63.735-15.335s-49.483 5.589-63.735 15.335c-2.391 1.633-5.115 2.421-7.808 2.421-4.423 0-8.769-2.112-11.455-6.039-4.319-6.319-2.698-14.941 3.621-19.26 25.67-17.55 60.75-20.17 79.377-20.17s53.707 2.621 79.377 20.17c6.318 4.315 7.938 12.939 3.62 19.257zm0-59.953c-4.319 6.317-12.944 7.939-19.262 3.62-14.253-9.745-37.485-15.335-63.735-15.335s-49.483 5.589-63.735 15.335c-2.391 1.634-5.115 2.419-7.808 2.419-4.423 0-8.769-2.111-11.455-6.038-4.319-6.318-2.698-14.942 3.621-19.261 25.67-17.549 60.75-20.169 79.377-20.169s53.707 2.621 79.377 20.169c6.318 4.318 7.938 12.942 3.62 19.26zm0-59.954c-4.319 6.318-12.944 7.939-19.262 3.62-14.253-9.744-37.485-15.334-63.735-15.334s-49.483 5.588-63.735 15.334c-2.391 1.635-5.115 2.42-7.808 2.42-4.423 0-8.769-2.111-11.455-6.038-4.319-6.318-2.698-14.942 3.621-19.261 25.67-17.549 60.75-20.169 79.377-20.169s53.707 2.621 79.377 20.169c6.318 4.318 7.938 12.942 3.62 19.259z"/></svg>