<svg viewBox="0 0 512 512" xmlns="http://www.w3.org/2000/svg"><path d="m512.732 279.941c0-10.085-2.277-19.718-6.389-28.531-.424-2.24-.909-4.477-1.514-6.746l-44.539-110.378-.301-.993c-15.583-46.4-37.756-89.343-93.98-89.343h-214.966c-57.609 0-77.967 44.007-93.891 89.085l-46.588 110.647c-6.735 10.791-10.564 23.135-10.564 36.259v34.347c0 5.31.628 10.504 1.821 15.508-1.16 3.022-1.821 6.28-1.821 9.714v102.154c0 14.979 12.144 27.125 27.123 27.125h56.286c14.972 0 27.115-12.146 27.115-27.125v-51.085h294.899v51.085c0 14.979 12.146 27.125 27.127 27.125h53.062c14.985 0 27.127-12.146 27.127-27.125v-102.166c0-3.421-.668-6.693-1.819-9.706 1.189-5.011 1.819-10.2 1.819-15.509v-34.34h-.007zm-422.526-135.824c17.734-50.035 31.996-65.309 60.837-65.309h214.953c28.63 0 44.572 17.036 60.771 65.094l32.502 65.863c-10.613-3.93-22.291-6.11-34.561-6.11h-336.684c-11.048 0-21.605 1.776-31.345 4.991zm27.919 183.215h-59.387c-10.692 0-19.364-8.68-19.364-19.371 0-10.695 8.672-19.369 19.364-19.369h59.387c10.697 0 19.369 8.674 19.369 19.369 0 10.691-8.677 19.371-19.369 19.371zm209.789-3.88h-138.137c-6.773 0-12.261-5.491-12.261-12.26 0-6.782 5.488-12.271 12.261-12.271h138.137c6.781 0 12.267 5.489 12.267 12.271 0 6.769-5.486 12.26-12.267 12.26zm124.583 3.88h-59.385c-10.702 0-19.369-8.68-19.369-19.371 0-10.695 8.674-19.369 19.369-19.369h59.385c10.701 0 19.376 8.674 19.376 19.369 0 10.691-8.675 19.371-19.376 19.371z"/></svg>