<svg viewBox="0 0 512 512" xmlns="http://www.w3.org/2000/svg"><path d="m217.872 217.872c4.341-4.344 10.133-6.734 16.305-6.734s11.963 2.393 16.305 6.734l44.131 44.132c1.529 1.526 3.601 2.386 5.759 2.386s4.233-.858 5.759-2.386l44.13-44.132c1.53-1.526 2.387-3.6 2.387-5.758 0-2.159-.858-4.234-2.387-5.759l-44.13-44.132c-19.227-19.221-44.784-29.805-71.958-29.805s-52.731 10.584-71.958 29.803l-132.398 132.398c-19.227 19.227-29.817 44.786-29.817 71.969 0 27.186 10.59 52.737 29.819 71.95l44.129 44.128c19.211 19.227 44.764 29.818 71.947 29.818s52.742-10.591 71.971-29.818l74.611-74.61c2.4-2.4 3.06-6.037 1.659-9.126-1.328-2.924-4.238-4.78-7.415-4.78-.182 0-.361.007-.546.019-2.625.177-5.287.264-7.912.264-20.723 0-41.104-5.509-58.935-15.934-1.282-.749-2.7-1.112-4.108-1.112-2.107 0-4.193.817-5.762 2.386l-47.241 47.24c-4.35 4.349-10.139 6.748-16.302 6.748-6.167 0-11.961-2.395-16.311-6.748l-44.131-44.131c-4.355-4.345-6.753-10.126-6.758-16.281-.003-6.17 2.395-11.97 6.758-16.333z"/><path d="m482.666 73.937-44.131-44.131c-19.213-19.219-44.764-29.806-71.947-29.806s-52.742 10.584-71.968 29.803l-74.614 74.643c-2.4 2.401-3.059 6.04-1.656 9.129 1.328 2.921 4.239 4.776 7.413 4.776.182 0 .366-.005.551-.019 2.65-.179 5.335-.269 7.986-.269 20.764 0 41.098 5.507 58.808 15.926 1.287.758 2.713 1.124 4.126 1.124 2.108 0 4.193-.817 5.763-2.386l47.272-47.273c4.342-4.344 10.134-6.734 16.305-6.734s11.963 2.393 16.305 6.734l44.132 44.132c8.982 8.993 8.982 23.633-.003 32.632l-132.393 132.394c-4.343 4.353-10.123 6.747-16.281 6.747-6.173 0-11.975-2.397-16.341-6.752l-44.121-44.124c-1.529-1.526-3.6-2.387-5.759-2.387s-4.234.858-5.759 2.387l-44.132 44.132c-3.182 3.182-3.182 8.338 0 11.52l44.132 44.132c19.227 19.227 44.783 29.816 71.957 29.816 27.176 0 52.732-10.589 71.959-29.816l132.397-132.398c19.227-19.218 29.817-44.778 29.817-71.966s-10.591-52.747-29.818-71.966z"/></svg>