<svg viewBox="0 0 512 512" xmlns="http://www.w3.org/2000/svg"><path d="m256.051.015v57.972c109.192 0 198.035 88.858 198.035 198.064s-88.843 198.064-198.035 198.064c-99.366 0-181.875-73.553-195.962-169.078h75.944c13.073 54.176 61.857 94.569 119.989 94.569h28.987v-44.944h82.176v-57.973h-82.176v-41.363h82.176v-57.973h-82.176v-44.929h-28.987c-58.146 0-106.916 40.393-119.989 94.569h-136.033v28.986c0 141.163 114.858 256.036 256.036 256.036 141.164 0 256.008-114.873 256.008-256.036 0-141.135-114.83-255.964-255.993-255.964z"/></svg>