<svg viewBox="0 0 512 512" xmlns="http://www.w3.org/2000/svg"><path d="m176.028 313.489v10.462h66.849v-10.462c0-29.963-11.887-58.702-33.013-79.95l-.345-.334-.434.334c-21.092 21.248-33.057 49.987-33.057 79.95z"/><path d="m486.122 394.04-138.352-56.009v-16.15l7.914 8.648c6.089 6.567 16.284 6.946 22.862.857l18.043-16.784c6.566-6.089 6.9-16.362.801-22.94l-168.904-182.361v-40.392h12.777c7.257 0 13.958-5.788 13.958-13.023v-10.318c0-7.257-6.701-12.644-13.958-12.644h-12.777v-20.024c0-7.257-6.801-12.9-14.058-12.9h-10.329c-7.246 0-12.644 5.643-12.644 12.9v20.013h-14.181c-7.268 0-12.544 5.387-12.544 12.644v10.318c0 7.257 5.287 13.022 12.544 13.022h14.181v40.014l-169.817 182.773c-6.1 6.567-5.721 16.841.845 22.929l18.076 16.796c6.556 6.088 16.651 5.71 22.729-.857l7.858-8.66v173.245c0 10.496 8.893 19.067 19.411 19.067h388.964c9.361 0 17.386-7.903 17.386-17.263v-87.219c-.011-6.889-4.419-13.089-10.785-15.682zm-176.395 82.109h-52.436v-57.634c0-26.022-21.27-47.259-47.293-47.259h-.946c-26.023 0-47.394 21.237-47.394 47.259v57.634h-52.446v-195.261l100.274-107.632 100.263 107.632v195.261zm153.243 4.118h-113.129v-104.904l113.129 45.757z"/></svg>