<svg viewBox="0 0 512 512" xmlns="http://www.w3.org/2000/svg"><path d="m508.341 265.565c-6.571-9.719-18.207-15.532-31.12-15.532h-62.98c.662-9.493.908-17.353.985-22.996.055-5.361-4.411-9.709-9.785-9.709h-391.001c-5.368 0-9.842 4.338-9.767 9.709.555 41.96 11.331 207.436 145.453 247.735h-125.654c-7.942 0-16.751 6.002-19.624 13.418l-3.922 10.09c-2.887 7.407 1.191 13.417 9.156 13.417h399.699c7.946 0 12.044-6.012 9.161-13.417l-3.944-10.09c-2.883-7.414-11.662-13.418-19.628-13.418h-119.514c45.552-14.271 76.276-44.178 96.947-78.835 86.573-2.447 123.839-62.31 138.366-98.39 4.456-11.063 3.43-22.727-2.828-31.982zm-24.198 21.118c-13.198 32.801-40.471 71.118-95.96 78.865 12.555-29.804 19.334-60.603 22.957-86.376h66.081c3.811 0 6.107 1.386 6.981 2.702.776 1.148.755 2.761-.059 4.809zm-277.915-82.009c2.054 2.361 4.935 3.566 7.8 3.566 2.41 0 4.817-.835 6.746-2.518 4.305-3.726 4.78-10.242 1.038-14.545-.242-.309-27.575-32.605-10.009-54.703 23.422-29.48 9.155-53.55-1.668-62.151-4.437-3.547-10.943-2.816-14.488 1.64-3.503 4.429-2.806 10.868 1.575 14.417 2.503 2.14 14.067 13.574-1.575 33.278-28.197 35.479 9.013 79.173 10.581 81.016zm55.164-184.166c4.381-3.565 5.078-9.994 1.555-14.417-3.546-4.455-10.033-5.187-14.489-1.646-10.805 8.605-25.072 32.677-1.65 62.156 17.567 22.099-9.766 54.406-10.032 54.702-3.718 4.302-3.261 10.819 1.042 14.548 1.948 1.688 4.358 2.517 6.747 2.517 2.883 0 5.764-1.205 7.794-3.566 1.593-1.843 38.786-45.537 10.606-81.04-15.663-19.679-4.086-31.128-1.573-33.254z"/></svg>