<svg viewBox="0 0 512 512" xmlns="http://www.w3.org/2000/svg"><path d="m309.404 100.531 39.464-100.531h-184.029l32.195 100.531zm-52.55 411.469c110.085 0 199.815-89.73 199.815-199.815 0-77.683-44.242-144.772-108.839-178.213h-184.237c-64.597 33.441-107.593 100.53-107.593 178.213 0 110.085 89.522 199.815 200.854 199.815zm-10.801-175.929c-29.91-9.554-50.266-23.886-50.266-51.511 0-25.133 17.863-44.242 47.773-50.265v-26.172h27.418v25.133c19.109 1.246 31.156 4.777 40.71 9.555l-8.308 31.156c-7.27-3.531-20.355-9.555-40.711-9.555-17.863 0-23.886 8.308-23.886 15.578 0 9.555 9.555 15.578 33.441 23.887 33.441 12.047 46.734 27.417 46.734 52.55 0 25.132-17.863 46.734-50.265 51.511v28.664h-27.418v-26.379c-19.109-1.246-37.179-6.023-47.772-12.047l8.308-32.195c12.047 6.024 28.664 12.047 46.734 12.047 15.578 0 26.379-6.023 26.379-17.862 1.039-10.801-8.516-16.825-28.871-24.095z"/></svg>