<svg viewBox="0 0 512 512" xmlns="http://www.w3.org/2000/svg"><path d="m364.228 317.254c0 38.788-10.581 68.443-31.745 88.965s-51.52 30.783-91.063 30.783h-65.42v-235.002h72.334c36.544 0 64.992 10.048 85.349 30.144 20.363 20.091 30.545 48.46 30.545 85.11zm-42.399.964c-1.321-63.55-46.561-79.099-76.353-79.099h-29.995l1.32 153.607h23.407c36.599 0 82.913-12.26 81.621-74.508zm88.251-112.324-154.079-205.894-154.081 205.894c-23.82 31.934-37.92 71.521-37.92 114.399 0 105.877 85.962 191.707 192.001 191.707 106.037 0 191.999-85.83 191.999-191.707 0-42.878-14.1-82.465-37.92-114.399z"/></svg>