<svg viewBox="0 0 512 512" xmlns="http://www.w3.org/2000/svg"><path d="m512 0v512h-148.161l.161-512zm-90.959 238.168h33.758v-175.341h-33.758zm45.011 188.499c0-15.537-12.595-28.132-28.132-28.132s-28.132 12.595-28.132 28.132 12.595 28.132 28.132 28.132 28.132-12.595 28.132-28.132zm-284.132-426.667h148.08l.08 512h-148.16l.08-512zm57.201 238.168h33.758v-175.341h-33.758zm-11.253 188.499c0 15.537 12.595 28.132 28.132 28.132s28.132-12.595 28.132-28.132-12.595-28.132-28.132-28.132-28.132 12.595-28.132 28.132zm-227.868-426.667h148l.162 512h-148.162zm57.201 238.168 33.799-.168v-175h-34v175zm-11.253 188.499c0 15.537 12.596 28.132 28.132 28.132 15.537 0 28.132-12.595 28.132-28.132s-12.595-28.132-28.132-28.132c-15.536 0-28.132 12.595-28.132 28.132z"/></svg>