<svg viewBox="0 0 512 512" xmlns="http://www.w3.org/2000/svg"><path d="m468.969 306.354 9.734-5.469-9.707 5.518-.042-.063-.252-.448c-.266-.44-.692-1.153-1.286-2.119-1.189-1.924-3.049-4.833-5.574-8.49-5.042-7.315-12.735-17.638-22.98-29.1-20.484-22.96-51.123-50.283-90.808-68.131-26.495-11.917-56.952-19.784-92.056-19.798-34.289.014-64.138 7.518-90.199 18.974-26.03 11.455-48.206 26.938-66.274 42.786-36.163 31.638-55.592 64.697-56.487 66.326l-.007.014-.024.042-13.676-7.749-29.331-16.484c.644-1.126 12.627-22.317 36.327-48.871 23.704-26.491 59.21-58.522 107.33-80.244 32.045-14.455 69.746-24.176 112.341-24.162 42.594-.021 80.296 9.707 112.337 24.162 32.083 14.464 58.561 33.562 79.667 52.494 42.172 37.911 63.117 75.131 63.998 76.621zm-126.582-9.624c0 47.71-38.678 86.384-86.388 86.384s-86.388-38.674-86.388-86.384c0-47.717 38.678-86.391 86.388-86.391 47.709 0 86.387 38.675 86.388 86.391z"/></svg>