<svg viewBox="0 0 512 512" xmlns="http://www.w3.org/2000/svg"><path d="m368.463 312.319-3.114-3.115c-9.178-9.177-20.419-15.722-32.813-19.151 7.95-12.016 13.836-25.159 17.534-39.162.589-2.233-.059-4.634-1.695-6.266-1.631-1.631-4.033-2.282-6.268-1.692-13.998 3.695-27.144 9.583-39.161 17.534-3.432-12.394-9.974-23.636-19.152-32.813l-2.73-2.731c-1.776-1.774-4.436-2.328-6.77-1.414-2.337.914-3.909 3.129-4.007 5.636l-1.517 39.386c-27.065-12.735-56.318-10.734-80.198 13.147-33.944 33.944-58.5 125.897-30.726 153.659 28.071 28.071 119.717 3.218 153.659-30.726 23.934-23.942 25.889-53.266 13.06-80.384l39.833-1.534c2.413-.094 4.543-1.605 5.424-3.854.882-2.252.35-4.81-1.359-6.52zm143.537-206.668h-512l65.016-65.016v-40.635h384v40.635h-.341z"/><path d="m128.589 136.798c0 13.16 13.725 63.939 64.461 63.939 44.067 0 63.395-39.852 63.395-63.939 0 22.455 15.055 63.893 63.927 63.893 44.156 0 63.721-42.665 63.721-63.893 0 29.308 19.761 53.671 46.637 61.266v273.269h-349.46v-273.079c27.229-7.371 47.319-31.896 47.319-61.456zm-128.589 1.329c0 27.79 19.556 51.407 44.698 60.091v273.115h-44.698v40.667h512v-40.667h-44.698v-273.16c26.189-8.015 44.086-31.281 44.698-60.046v-16.254h-512z"/></svg>