<svg viewBox="0 0 512 512" xmlns="http://www.w3.org/2000/svg"><path d="m18.848 238.018h215.783v-63.809h43.695v63.809h215.784v-128.574h-83.957c15.916-31.51 13.494-67.589-8.979-90.061-12.497-12.5-29.85-19.383-48.856-19.383-24.287 0-49.193 10.979-68.335 30.121-17.929 17.931-24.95 47.06-27.503 71.611-2.553-24.551-9.574-53.682-27.506-71.611-19.139-19.142-44.048-30.121-68.332-30.121-19.006 0-36.357 6.883-48.858 19.383-14.796 14.795-21.619 36.397-18.722 59.265 1.337 10.539 4.631 20.962 9.639 30.796h-83.853zm297.607-175.425c10.437-10.44 23.846-16.674 35.863-16.674 4.769 0 11.484 1.031 16.389 5.935 11.062 11.06 6.045 35.482-10.736 52.261-8.224 8.224-29.869 13.87-56.635 15.05 1.047-21.991 5.545-46.998 15.119-56.572zm-172.202-10.739c4.904-4.904 11.62-5.935 16.389-5.935 12.017 0 25.425 6.234 35.863 16.674 9.659 9.659 14.129 34.428 15.137 56.572-26.773-1.178-48.429-6.823-56.653-15.05-9.035-9.035-15.002-20.418-16.372-31.239-.648-5.099-.774-14.611 5.636-21.022zm90.378 226.917v234.189h-183.066v-234.189zm43.697 234.189v-234.189h183.067v234.189z"/></svg>