<svg viewBox="0 0 512 512" xmlns="http://www.w3.org/2000/svg"><path d="m250.303 181.213c-.575 0-1.109-.293-1.421-.775-.311-.482-.356-1.089-.118-1.613l50.013-110.475c5.954-13.137 21.422-18.965 34.556-13.019l148.533 67.222c6.304 2.853 11.226 8.099 13.653 14.584 2.447 6.478 2.212 13.661-.647 19.972l-11.745 25.959c-.48 1.062-1.413 1.852-2.542 2.147-1.128.295-2.329.064-3.268-.628-3.801-2.8-10.308-6.443-18.445-6.443-8.018 0-15.58 3.11-21.286 8.763l-28.921 28.938c-.777.776-1.828 1.211-2.925 1.211-1.095.001-2.149-.435-2.922-1.21l-28.409-28.405c-5.782-5.744-13.353-8.854-21.369-8.854-8.012 0-15.581 3.11-21.287 8.763l-28.472 28.494c-.776.776-1.827 1.212-2.924 1.212s-2.149-.436-2.925-1.212l-25.761-25.776c-5.783-5.737-13.351-8.855-21.368-8.855zm-211.639-35.51c-2.493-8.566 2.429-17.552 11.011-20.055 13.764-4.01 21.665-18.428 17.655-32.204l-7.032-24.123 84.892-24.758 7.033 24.128c4.043 13.77 18.445 21.684 32.217 17.661 8.577-2.488 17.525 2.427 20.035 10.983l25.886 88.781c.399 1.367.014 2.845-1.004 3.843-4.992 4.892-19.858 19.622-26.202 25.912-1.618 1.602-4.224 1.597-5.834-.014l-25.774-25.79c-5.783-5.744-13.353-8.854-21.37-8.854-8.011 0-15.581 3.11-21.28 8.763l-25.845 25.846c-.779.779-1.837 1.215-2.938 1.211s-2.157-.448-2.93-1.233c-6.215-6.31-20.602-20.877-25.728-25.724-7.954-7.523-15.47-8.834-19.46-8.925-1.8-.041-3.367-1.248-3.872-2.977zm14.883-102.604c-1.945-6.652-1.169-13.802 2.163-19.872 3.326-6.078 8.926-10.576 15.581-12.515l33.141-9.659c13.835-4.041 28.337 3.906 32.374 17.749l2.495 8.575-83.259 24.26zm458.453 217.687v251.214h-512v-251.214c0-3.767 1.496-7.384 4.16-10.045 0 0 44.666-43.985 45.911-43.985 1.249 0 48.792 46.205 50.036 46.205 1.249 0 48.828-46.205 50.071-46.205 1.251 0 48.81 46.205 50.053 46.205 1.252 0 48.828-46.205 50.072-46.205 1.25 0 48.809 46.205 50.055 46.205 1.248 0 51.438-48.83 52.682-48.83 1.25 0 51.451 48.83 52.7 48.83 1.243 0 51.881-49.273 53.13-49.273 1.245 0 48.976 47.053 48.976 47.053 2.658 2.661 4.154 6.278 4.154 10.045z"/></svg>