<svg viewBox="0 0 512 512" xmlns="http://www.w3.org/2000/svg"><path d="m483.46 327.192 21.409-168.814-153.586-58.279-48.634 23.223c-1.501 7.427-3.776 14.656-6.753 21.61l36.816-17.579-15.2 163.611.85 8.765-112.176 16.921-9.207 18.158 123.003-18.545 14.181 145.112 16.506-1.625-14.268-145.951 1.438-.225 128.606 16.294.312-2.514 19.434 163.208-133.934-30.914-174.284 33.203-1.451-.275 15.666-148.866-.103-.906-.641-5.577-21.475-42.393 3.03 26.818-3.831.576-124.236-19.247.738-6.115-19.036-150.084 86.924 36.7-7.256-14.303c-2.347-3.042-4.473-6.232-6.49-9.476l-93.266-39.388 22.411 176.613-.423 3.513-.312-.049-2.548 16.382.916.124-19.146 160.833 170.552 31.978 173.951-33.127 153.517 35.428zm-145.807-30.363-2.863.419-.626-6.235 15.982-171.993 1.888-.904 134.733 51.122-18.295 144.147zm-177.484 192.683-134.433-25.211 17.258-144.838 126.151 19.547 5.731-.863.641 5.627zm33.437-148.039-2.151-4.24-.174-1.563 5.706-.862zm-74.407-186.468 73.254 144.563 72.456-143.016c14.231-16.594 22.886-38.1 22.886-61.638-.001-52.337-42.583-94.914-94.921-94.914-52.335 0-94.9 42.577-94.9 94.914 0 22.788 8.079 43.706 21.506 60.091zm73.681-118.427c32.161 0 58.337 26.174 58.337 58.336 0 32.159-26.176 58.337-58.337 58.337s-58.335-26.178-58.335-58.337c.001-32.162 26.168-58.336 58.335-58.336z"/></svg>