<svg viewBox="0 0 512 512" xmlns="http://www.w3.org/2000/svg"><path d="m97.368 2.711c-6.836 5.27-10.911 17.014-10.911 29.333 0 4.3.499 8.665 1.543 12.854l55.084 220.266-10.575 42.293c-7.378-17.816-17.434-32.554-29.724-42.032-37.011-28.536-80.345 1.12-96.6 66.105-4.196 16.782-6.184 34.314-6.185 51.568-.002 49.555 16.383 96.877 43.837 118.044 37.012 28.534 80.346-1.122 96.597-66.109l22.567-90.234 22.567 90.234c16.253 64.987 59.586 94.643 96.599 66.109 37.013-28.539 53.9-104.628 37.649-169.612-16.253-64.985-59.586-94.64-96.599-66.105-12.289 9.476-22.352 24.204-29.726 42.015l-10.575-42.276 55.085-220.266c4.049-16.192-.145-35.079-9.364-42.187-9.223-7.111-19.981.251-24.029 16.444l-41.608 166.371-41.606-166.371c-4.05-16.193-14.808-23.555-24.026-16.444zm121.591 406.578c-8.163-32.656.321-70.892 18.921-85.231 18.598-14.341 40.377.561 48.541 33.218 2.11 8.434 3.109 17.243 3.109 25.914 0 24.903-8.233 48.683-22.028 59.319-18.599 14.339-40.376-.563-48.543-33.22zm-130.838-85.231c13.796 10.634 22.027 34.416 22.027 59.316 0 8.672-.998 17.48-3.107 25.915-8.166 32.656-29.942 47.557-48.543 33.22-18.6-14.34-27.086-52.572-18.919-85.233 3.957-15.817 11.185-27.986 20.352-34.26 9.168-6.275 19.182-5.906 28.19 1.042zm253.879-272.676v409.236c0 28.332 22.834 51.382 50.903 51.382h99.715c10.704 0 19.382-8.759 19.382-19.565 0-10.804-8.678-19.564-19.382-19.564h-99.715c-6.694 0-12.139-5.497-12.139-12.253v-16.171h111.854c10.704 0 19.382-8.759 19.382-19.564s-8.678-19.565-19.382-19.565h-111.854v-28.425h111.854c10.704 0 19.382-8.759 19.382-19.564s-8.678-19.564-19.382-19.564h-111.854v-28.424h111.854c10.704 0 19.382-8.759 19.382-19.565 0-10.804-8.678-19.564-19.382-19.564h-111.854v-28.424h111.854c10.704 0 19.382-8.76 19.382-19.565s-8.678-19.564-19.382-19.564h-111.854v-28.424h111.854c10.704 0 19.382-8.76 19.382-19.564 0-10.806-8.678-19.565-19.382-19.565h-111.854v-28.425h111.854c10.704 0 19.382-8.759 19.382-19.564 0-10.806-8.678-19.564-19.382-19.564h-111.854v-16.171c0-6.757 5.445-12.253 12.139-12.253h99.715c10.704 0 19.382-8.76 19.382-19.565s-8.678-19.564-19.382-19.564h-99.715c-28.068 0-50.903 23.049-50.903 51.382z"/></svg>