<svg viewBox="0 0 512 512" xmlns="http://www.w3.org/2000/svg"><path d="m502 98c0-52-52-98-102-98h-288.538.538c-50 0-102 46-102 98 0 56 36 88 80 88 36 0 77-28 77-70 0-36-35-56-51-58l-16 32c23 4 25 14 25 26s-12 28-35 28c-19 0-38-19-38-46 0-28 26-56 60-56 60 0 82 44 78 88h132c-4-44 18-88 78-88 34 0 60 28 60 56 0 27-19 46-38 46-23 0-35-16-35-27 0-13 2-23 25-27 0 0-18-32-18-32-16 2-49 22-49 58 0 42 41 70 77 70 44 0 80-32 80-88z"/><path d="m378 512v-80h-34v-280h-176v280h-34v80zm-146-310h48v202h-48z"/></svg>