<svg viewBox="0 0 512 512" xmlns="http://www.w3.org/2000/svg"><path d="m351.714 0h-191.428c-9.486 0-17.143 7.657-17.143 17.143v83.6h-41.486c-9.486 0-17.143 7.657-17.143 17.143v376.971c0 9.486 7.657 17.143 17.143 17.143h107.429v-21.029c0-9.486 7.656-17.142 17.143-17.142h59.542c9.487 0 17.143 7.656 17.143 17.142v21.029h107.429c9.487 0 17.143-7.657 17.143-17.143v-376.971c0-9.486-7.656-17.143-17.143-17.143h-41.486v-83.6c0-9.486-7.657-17.143-17.143-17.143zm-142.628 422.514c0 9.486-7.657 17.143-17.143 17.143h-54.114c-9.486 0-17.143-7.657-17.143-17.143v-16.057c0-9.486 7.657-17.143 17.143-17.143h54.114c9.486 0 17.143 7.657 17.143 17.143zm0-87.143c0 9.486-7.657 17.143-17.143 17.143h-54.114c-9.486 0-17.143-7.657-17.143-17.143v-16.057c0-9.485 7.657-17.143 17.143-17.143h54.114c9.486 0 17.143 7.658 17.143 17.143zm0-87.142c0 9.485-7.657 17.142-17.143 17.142h-54.114c-9.486 0-17.143-7.657-17.143-17.142v-16.058c0-9.485 7.657-17.142 17.143-17.142h54.114c9.486 0 17.143 7.657 17.143 17.142zm93.714-78c-9.486 0-17.143-7.658-17.143-17.143v-28.972h-59.314v28.972c0 9.485-7.657 17.143-17.143 17.143h-12.457c-9.486 0-17.143-7.658-17.143-17.143v-104.686c0-9.486 7.657-17.143 17.143-17.143h12.457c9.486 0 17.143 7.657 17.143 17.143v28.971h59.314v-28.971c0-9.486 7.657-17.143 17.143-17.143h12.458c9.485 0 17.143 7.657 17.143 17.143v104.686c0 9.485-7.658 17.143-17.143 17.143zm88.515 252.285c0 9.486-7.657 17.143-17.143 17.143h-54.115c-9.486 0-17.143-7.657-17.143-17.143v-16.057c0-9.486 7.657-17.143 17.143-17.143h54.115c9.486 0 17.143 7.657 17.143 17.143zm0-87.143c0 9.486-7.657 17.143-17.143 17.143h-54.115c-9.486 0-17.143-7.657-17.143-17.143v-16.057c0-9.485 7.657-17.143 17.143-17.143h54.115c9.486 0 17.143 7.658 17.143 17.143zm-17.143-120.342c9.486 0 17.143 7.657 17.143 17.142v16.058c0 9.485-7.657 17.142-17.143 17.142h-54.115c-9.486 0-17.143-7.657-17.143-17.142v-16.058c0-9.485 7.657-17.142 17.143-17.142z"/></svg>