<svg viewBox="0 0 512 512" xmlns="http://www.w3.org/2000/svg"><path d="m56.326 439.16v74.7h-39.145v-273.44c0-10.804 8.762-19.664 19.553-19.664 10.94 0 19.567 8.86 19.567 19.664v161.688h441.389v111.752h-39.469v-74.7zm60.313-119.944c19.547 0 35.386-15.84 35.386-35.51 0-19.514-15.839-35.354-35.386-35.354-19.67 0-35.51 15.84-35.51 35.354-.032 19.67 15.808 35.51 35.51 35.51zm381.654 53.494-.136-48.795c-.137-15.503-13.15-26.177-28.258-28.057l-278.625-27.713c-.583-.136-1.056-.401-1.542-.401-9.586 0-17.421 7.868-17.421 17.388v52.619h-72.892c-9.728 0-17.538 7.888-17.538 17.519 0 9.663 7.803 17.447 17.538 17.447h398.874zm17.181-242.85-257.4-127.916-.104-.337-.233.136-.24-.136-.091.337-257.406 127.916 21.446 43.157 236.297-117.462 236.292 117.462z"/></svg>