<svg viewBox="0 0 512 512" xmlns="http://www.w3.org/2000/svg"><path d="m146.144 0-4.264 5.352-136.536 136.528-5.344 4.264v7.456 204.8 7.456l5.344 4.264 136.536 136.528 4.264 5.352h7.456 204.8 7.456l4.256-5.352 136.536-136.528 5.352-4.264v-7.456-204.8-7.456l-5.352-4.264-136.536-136.528-4.256-5.352h-7.456-204.8zm13.856 34.144h192l125.856 125.856v192l-125.856 125.856h-192l-125.856-125.856v-192zm-61.216 150.696c-12.864 0-23.584 2.88-32 10.616-8.352 7.744-13.184 20.224-13.184 32.96 0 10.944 3.832 20.64 10.336 27.648 6.496 6.976 15.704 11.192 27.296 13.816l8.488 2.112c6.52 1.48 10.776 3.816 12.216 5.32 1.504 1.536 1.888 2.336 1.888 6.368.032 4.512-1.176 6.4-3.744 8.48-2.592 2.112-6.944 4.256-14.112 4.256-4.608 0-9.184-1.536-14.112-3.16-4.96-1.672-10.592-4.04-15.992-7.464l-11.312-7.432v15.944 15.936 6.376l4.704 2.104c6.44 2.656 12.712 4.992 18.824 6.368 6.144 1.376 12.256 2.112 17.888 2.112 14.392 0 26.888-2.92 35.736-10.624 8.936-7.68 13.192-20.32 13.192-33.984 0-11.528-3.648-22.176-10.336-29.76-6.696-7.68-15.584-12.352-27.296-14.88l-9.416-1.056c-7.288-1.536-11.544-4.648-12.216-5.312-.896-.864-.96-1.784-.96-5.304 0-4.064.48-5.544 2.816-7.432 2.4-1.92 6.368-3.2 13.184-3.2 3.752 0 7.968.864 12.232 2.12 4.248 1.264 9.024 3.6 14.096 6.36l11.304 5.312v-13.824-15.936l-.416-5.408-5.216-3.072c-5.752-2.176-11.328-4.224-16.928-5.312-5.632-1.12-11.496-1.048-16.96-1.048zm205.12 0c-16.736 0-31.904 7-42.336 20.176-10.4 13.16-15.04 30.44-15.04 51.016s4.64 37.888 15.04 51c10.464 13.128 25.6 20.2 42.336 20.2 16.704 0 31.008-7.072 41.4-20.2 10.408-13.176 15.048-30.456 15.048-51 0-20.576-4.64-37.888-15.048-51.016-10.392-13.176-24.696-20.176-41.4-20.176zm-153.376 2.104-7.36.568-.16 7.912v13.824 9.568h7.52 30.112v96.696 9.576h7.52 14.112 8.48v-9.576-96.696h30.112 7.52v-9.568-13.824-8.512h-7.52zm230.528 0-7.368.568-.152 7.912v120.088 9.576h7.52 15.048 7.512v-9.576-39.32h10.336c13.128 0 23.968-2.624 32-10.624 8.064-7.968 12.224-20.416 12.224-34.016 0-13.504-4.192-24.992-12.224-32.96-8-8-18.848-11.648-31.968-11.648zm-77.152 28.704c8.48 0 13.152 2.752 17.888 9.568 4.744 6.816 7.52 16.992 7.52 30.816 0 13.76-2.776 24-7.52 30.816-4.736 6.848-9.408 9.568-17.888 9.568s-13.984-2.68-18.816-9.568c-4.768-6.816-7.52-17.056-7.52-30.816 0-13.824 2.784-24 7.52-30.816 4.832-6.88 10.336-9.568 18.816-9.568zm99.744 2.12h10.336c5.312 0 8.44 2.192 10.336 4.248 1.888 2.008 2.808 4.088 2.808 9.568 0 5.544-.944 8.608-2.808 10.624-1.896 2.016-5.024 3.2-10.336 3.2h-10.336z"/></svg>