<svg viewBox="0 0 512 512" xmlns="http://www.w3.org/2000/svg"><path d="m416.91 159.537v-57.889c0-37.234-29.707-67.54-66.942-67.54h-182.5c-37.235 0-67.552 30.295-67.552 67.54v57.878h-70.525c-16.232 0-29.391 13.16-29.391 29.391v63.891c0 16.243 13.159 29.391 29.391 29.391h8.758l32.115 176.422c2.538 13.966 14.717 24.119 28.911 24.119h319.096c14.206 0 26.363-10.153 28.912-24.13l32.093-176.411h8.17c16.231 0 29.391-13.148 29.391-29.391v-63.891c0-16.231-13.16-29.391-29.391-29.391zm-262.547-57.889c0-7.102 6.002-13.094 13.105-13.094h182.533c7.092 0 12.484 5.992 12.484 13.094v57.878h-208.122zm40.655 276.055c0 11.297-9.031 20.448-20.328 20.448-11.286 0-20.327-9.151-20.327-20.448v-112.247c0-11.297 9.041-20.437 20.327-20.437 11.308 0 20.328 9.162 20.328 20.437zm84.076 0c0 11.297-9.041 20.448-20.327 20.448s-20.338-9.151-20.338-20.448v-112.247c0-11.297 9.052-20.437 20.338-20.437 11.297 0 20.327 9.162 20.327 20.437zm84.077 0c0 11.297-9.041 20.448-20.316 20.448-11.297 0-20.339-9.151-20.339-20.448v-112.247c0-11.297 9.042-20.437 20.339-20.437 11.275 0 20.316 9.162 20.316 20.437z"/></svg>