<svg viewBox="0 0 512 512" xmlns="http://www.w3.org/2000/svg"><path d="m256 432 80 80h-160zm-16-432h32v90h-32zm124 124 62-62 24 24-62 62zm58.962 116.029h89.041l-.003 33.971h-90v-34zm-422.954 0 89.992-.029v34h-90zm61.992-154.029 24-24 62 62-24 24zm31 309 31-31 24 24-31 31zm271-7 24-24 31 31-24 24zm-194.267-45.733c-22.078-22.078-35.733-52.578-35.733-86.267s13.655-64.189 35.733-86.267 52.578-35.733 86.267-35.733 64.189 13.655 86.267 35.733 35.733 52.578 35.733 86.267-13.655 64.189-35.733 86.267z"/></svg>