<svg viewBox="0 0 512 512" xmlns="http://www.w3.org/2000/svg"><path d="m212 168.164c0-20.135 18.74-36.445 41.837-36.445 5.292 0 10.346.852 15 2.426 3.785-14.484 17.465-25.676 34.512-27.909-1.358 3.588-2.098 7.423-2.098 11.392 0 20.135 18.74 36.452 41.843 36.452 7.958 0 15.405-1.937 21.75-5.318 6.751 12.244 21.11 20.703 37.741 20.703 1.88 0 3.74-.109 5.548-.321-.606 19.675-19.078 35.466-41.809 35.466-5.905 0-11.543-1.084-16.652-3.014-7.208 10.981-20.777 18.404-36.332 18.404-16.631 0-31.001-8.464-37.741-20.708-6.34 3.376-13.787 5.318-21.762 5.318-23.097 0-41.832-16.317-41.837-36.446zm103.821-65.794c0-20.128 18.74-36.445 41.844-36.445 5.281 0 10.334.859 14.988 2.42 4.241-16.233 20.882-28.345 40.785-28.345 20.024 0 36.767 12.257 40.863 28.629 4.892-1.743 10.24-2.711 15.851-2.711 23.125 0 41.848 16.318 41.848 36.446s-18.74 36.44-41.848 36.44c-5.905 0-11.538-1.077-16.647-3.007-7.202 10.986-20.765 18.397-36.338 18.397-16.625 0-30.985-8.457-37.736-20.703-6.333 3.371-13.78 5.313-21.75 5.313-23.109 0-41.86-16.306-41.86-36.434zm196.179 367.312v26.318h-512v-26.091h4.025c25.803-7.511 39.251-35.747 53.452-65.651 13.431-28.273 27.307-57.518 53.155-69.846 34.726-17.508 59.469 9.818 77.53 29.774 5.041 5.561 9.796 10.816 14.491 15.066 10.241 8.969 19.06 12.783 26.116 11.146 13.816-3.18 25.579-27.344 36.956-50.702 14.716-30.217 29.932-61.481 56.757-66.913 17.253-3.474 35.704 4.584 56.427 24.694 20.938 20.43 38.516 49.816 55.528 78.232 22.909 38.288 46.62 77.807 77.563 93.973z"/></svg>