<svg viewBox="0 0 512 512" xmlns="http://www.w3.org/2000/svg"><path d="m259.441 204.536c7.889 0 15.255-1.767 21.526-4.839 6.667 11.142 20.882 18.844 37.332 18.844 15.387 0 28.809-6.755 35.939-16.747 5.054 1.756 10.631 2.742 16.472 2.742 22.484 0 40.756-14.369 41.356-32.273-1.789.193-3.628.292-5.488.292-16.451 0-30.654-7.697-37.332-18.839-6.277 3.077-13.643 4.839-21.515 4.839-22.853 0-41.39-14.848-41.39-33.17 0-3.612.732-7.102 2.076-10.367-16.863 2.032-30.395 12.217-34.139 25.397-4.603-1.432-9.602-2.208-14.837-2.208-22.847 0-41.384 14.842-41.384 33.164.005 18.317 18.537 33.165 41.384 33.165z"/><path d="m362.16 144.654c7.884 0 15.25-1.767 21.515-4.834 6.678 11.143 20.882 18.839 37.327 18.839 15.404 0 28.82-6.744 35.944-16.741 5.054 1.756 10.626 2.736 16.467 2.736 22.858 0 41.395-14.843 41.395-33.159s-18.52-33.165-41.395-33.165c-5.55 0-10.84.881-15.679 2.467-4.052-14.898-20.613-26.052-40.421-26.052-19.687 0-36.148 11.022-40.343 25.793-4.603-1.42-9.602-2.202-14.826-2.202-22.853 0-41.39 14.848-41.39 33.164s18.548 33.154 41.406 33.154zm73.398 207.762c-17.056-25.43-34.679-51.729-55.671-70.012-20.777-17.997-39.275-25.209-56.573-22.099-26.894 4.861-42.149 32.84-56.903 59.882-11.407 20.904-23.2 42.529-37.052 45.375-7.074 1.465-15.916-1.948-26.183-9.975-4.707-3.804-9.475-8.506-14.529-13.483-18.107-17.859-42.914-42.314-77.73-26.646-25.914 11.033-39.826 37.205-53.292 62.508-14.237 26.762-27.72 52.031-53.59 58.753h-4.035v23.349h513.321v-23.552c-31.023-14.468-54.795-49.835-77.763-84.1z"/></svg>