<svg viewBox="0 0 512 512" xmlns="http://www.w3.org/2000/svg"><path d="m256.004 0c-141.166 0-256 114.85-256 256.015 0 141.173 114.834 256.025 256 256.025 141.182 0 256.032-114.852 256.032-256.025 0-141.165-114.85-256.015-256.032-256.015zm0 478.461c-122.638 0-222.421-99.791-222.421-222.446s99.783-222.437 222.421-222.437c122.67 0 222.453 99.782 222.453 222.437s-99.783 222.446-222.453 222.446z"/><path d="m359.362 129.965-222.485 118.663c-6.559 3.502-10.035 10.903-8.544 18.192 1.509 7.286 7.624 12.723 15.035 13.354l81.584 6.919 6.92 81.592c.621 7.411 6.065 13.526 13.345 15.027 1.131.23 2.262.343 3.393.343 6.1 0 11.839-3.345 14.806-8.887l118.655-222.485c3.475-6.526 2.294-14.551-2.934-19.773-5.234-5.231-13.252-6.428-19.775-2.945z"/></svg>