<svg viewBox="0 0 512 512" xmlns="http://www.w3.org/2000/svg"><path d="m0 512 60.064-204.412 107.776 123.561 54.803-54.392 289.357 135.243zm334.692-152.191 83.841 25.204-12.023 43.942c-2.212 8.101-10.276 12.77-17.976 10.45l-55.908-16.797c-7.716-2.319-12.169-10.757-9.971-18.858zm-209.631-63.011 83.84 25.205-12.008 43.939c-2.227 8.103-10.262 12.77-17.991 10.452l-55.894-16.799c-7.729-2.319-12.182-10.756-9.969-18.856zm152.792-33.337-12.024 43.956-27.947-8.423 12.023-43.924zm15.938 52.347 12.023-43.94 27.947 8.39-12.024 43.957zm182.076-48.38c1.748 5.721 1.834 11.885.249 17.668l-13.611 49.722c-4.424 16.174-20.522 25.541-35.952 20.887l-76.869-23.099 16.027-58.603c2.212-8.086-2.242-16.507-9.957-18.842l-111.802-33.596c-7.714-2.319-15.778 2.35-17.991 10.452l-16.026 58.586-76.869-23.099c-15.443-4.638-24.366-21.512-19.926-37.699l13.595-49.723c1.572-5.782 4.76-10.94 9.141-14.845l33.245-29.554 4.017-14.677-26.055-10.252 22.831-69.954 23.253 6.972 4.018-14.646c6.636-24.274 30.785-38.311 53.943-31.338l209.632 62.996c23.157 6.957 36.548 32.269 29.911 56.543l-4.017 14.661 25.346 8.294-20.337 71.843-25.038-6.887-4.018 14.646zm-232.745-236.362c-7.714-2.303-15.778 2.365-17.99 10.466l-7.904 28.867c-.029.153-.059.29-.102.427l-12.023 43.94c-.015.077-.044.153-.059.229l-3.959 14.433 237.579 71.388 24.045-87.881c2.228-8.086-2.241-16.538-9.955-18.857zm156.503 284.848c11.571 3.48 23.653-3.539 26.973-15.683 3.318-12.13-3.378-24.793-14.95-28.256-11.587-3.478-23.653 3.524-26.986 15.654-3.304 12.144 3.376 24.792 14.963 28.285zm-211.596-111.147c-11.571-3.478-23.653 3.54-26.958 15.67-3.318 12.144 3.362 24.792 14.95 28.271 11.571 3.479 23.667-3.525 26.971-15.669 3.318-12.129-3.362-24.792-14.963-28.272z"/></svg>