<svg viewBox="0 0 512 512" xmlns="http://www.w3.org/2000/svg"><path d="m256.003 0c-141.389 0-256.003 114.619-256.003 256.003 0 141.383 114.614 256.002 256.003 256.002 141.383 0 255.997-114.619 255.997-256.002 0-141.384-114.619-256.003-255.997-256.003zm21.356 427.684c-8.018 7.924-19.194 11.946-33.184 11.946-14.307 0-25.623-3.928-33.636-11.676-8.05-7.789-12.13-18.777-12.13-32.662 0-14.349 4.007-25.462 11.9-33.012 7.868-7.503 19.257-11.316 33.866-11.316 14.141 0 25.327 3.886 33.273 11.561 7.961 7.706 12.004 18.736 12.004 32.767 0 13.562-4.074 24.462-12.093 32.392zm79.143-217.739c-8.19 13.082-23.79 27.895-46.371 44.026-14.677 10.852-24.107 19.194-27.9 24.696-3.574 5.184-5.388 12.223-5.388 20.914v10.316c0 4.314-3.501 7.815-7.815 7.815h-55.176c-4.314 0-7.815-3.501-7.815-7.815v-13.656c0-15.844 3.454-29.865 10.274-41.682 6.753-11.691 19.096-24.164 36.696-37.075 16.334-11.666 27.14-21.154 32.214-28.25 4.809-6.758 7.253-14.422 7.253-22.763 0-9.076-3.204-15.756-9.8-20.424-6.925-4.903-16.913-7.393-29.688-7.393-22.154 0-47.793 7.117-76.194 21.158-3.85 1.907-8.539.334-10.462-3.522l-22.487-45.172c-1.876-3.778-.427-8.357 3.282-10.358 34.851-18.83 72.234-28.38 111.108-28.38 33.454 0 60.505 8.222 80.414 24.436 20.132 16.412 30.349 38.566 30.349 65.851-.01 18.111-4.21 34.012-12.494 47.278z"/></svg>