<svg viewBox="0 0 512 512" xmlns="http://www.w3.org/2000/svg"><path d="m144.585 445.628-36.141 36.167-108.447-108.503 36.141-36.193zm24.025-24.044-108.421-108.528 36.14-36.168 108.448 108.503zm108.448-325.56 36.14-36.193 108.448 108.528-36.141 36.168zm168.23 48.675-108.447-108.503 36.14-36.193 108.447 108.529zm-294.748 41.744 36.166-36.167 108.422 108.528c-22.185 22.202-13.955 13.94-36.141 36.168zm260.115 173.779-50.3 50.338-15.106-65.429zm-120.051-24.555 40.665 176.336 180.728-180.864-176.204-40.695 31.642-31.64-180.729-180.864-108.447 108.503 180.728 180.864z"/></svg>