<svg viewBox="0 0 512 512" xmlns="http://www.w3.org/2000/svg"><path d="m7.854 136.854c3.851-13.287 8.965-26.104 15.309-38.067 4.898-9.252 10.531-18.323 17.151-26.092 1.161-1.366 2.324-2.768 3.711-3.849 2.114-1.642 4.611-2.621 7.165-2.813 2.56-.187 5.157.418 7.443 1.747 1.781 1.029 3.183 2.495 4.577 4.084 6.499 7.434 12.042 16.186 16.885 25.082 12.983 23.839 21.038 51.131 23.761 79.033.444 4.452.757 8.922.94 13.395 1.146 27.876-2.528 55.953-11.322 82.005-4.425 13.118-10.127 25.671-17.043 37.294-4.197 7.067-8.895 14.019-14.263 19.99-1.012 1.13-2.162 2.062-3.402 2.791v70.546h-13.304v-70.592c-3.048-1.909-5.418-5.003-7.715-7.988-5.773-7.491-10.823-15.733-15.263-24.33-11.495-22.244-19.544-60.14-22.48-85.748-.103-21.535 1.933-56.052 7.85-76.488zm182.939-60.836 9.766 5.032c8.034-6.005 17.829-11.181 27.442-16.264 11.338-5.998 23.797-11.365 36.143-16.603 14.833-6.286 29.885-12.401 44.591-18.788l-6.219-2.824c-11.824 4.704-23.81 9.269-35.771 13.879-25.208 9.719-50.059 19.853-71.212 32.604-1.613.973-3.23 1.935-4.74 2.964zm227.002 238.986c-2.39-8.664-7.251-16.757-13.527-24.672-13.27-15.833-34.026-28.696-57.155-39.662-5.978-2.832-12.154-5.516-18.373-8.153l-16.469 13.128c20.987 9.677 41.114 20.351 55.382 33.794 13.915 13.107 19.849 28.79 18.01 44.168-.052.45-.109.897-.161 1.346l34.575 1.182c.33-7.127-.337-14.093-2.282-21.131zm-261.948-246.99c40.777-25.496 164.321-63.338 184.003-68.014h32.412c-.238.141-13.481 17.707-31.335 27.169l-69.55 37.151c-21.428 11.712-41.787 24.357-54.448 40.005-12.031 14.875-3.425 32.361-2.16 35.584 5.411 13.804 24.562 23.822 43.703 31.293 24.428 9.537 51.28 16.752 77.26 24.641 25.347 7.698 50.293 15.969 73.169 26.069 11.638 5.141 22.697 10.747 32.93 16.848 7.91 4.713 15.971 9.848 22.361 15.35 6.683 5.526 12.783 11.075 18.34 17.021 7.449 7.974 13.105 16.423 17.806 25.08 9.348 17.227 13.207 36.095 11.103 54.147-2.108 18.058-8.785 36.294-22.107 52.69-13.065 16.116-29.503 30.834-49.392 44.289-18.783 12.711-39.83 24.134-61.294 35.232-15.309 7.908-30.97 15.614-45.554 24.003-3.076 1.768-6.12 3.566-9.055 5.428h-139.064c.815-4.122 3.462-8.209 5.813-12.081l-45.175-10.782c-3.394 5.255-6.97 10.696-8.505 16.276-.604 2.196-1.31 4.387-1.879 6.584h-135.229c3.853-19.748 21.354-71.982 123.566-121.935 15.996-7.82 51.591-19.629 78.919-27.848 24.994-7.52 50.537-14.358 74.495-22.991 46.412-16.732-.104-43.865-9.687-49.514-10.491-6.189-21.62-11.984-32.773-17.748-21.95-11.342-44.1-22.596-63.981-35.235-6.301-4.008-41.689-28.087-46.192-37.808-16.581-35.809-14.838-68.981.798-97.574 6.528-11.94 26.539-30.728 30.702-33.33zm225.069 326.526-29.023-14.952c-8.628 5.931-19.156 11.215-29.675 15.922-12.161 5.446-24.629 10.586-37.394 15.526-23.818 9.225-47.906 18.149-70.585 28.344l-1.28.573 28.628 20.925c20.722-10.105 42.773-19.085 64.645-28.282 24.687-10.378 48.498-21.25 69.211-34.378 1.863-1.212 3.741-2.406 5.473-3.678zm-132.261-183.673c-21.931-9.28-42.388-19.544-58.202-32.582-16.703-13.771-23.557-30.824-22.806-47.58.005-.121.01-.245.014-.365l-16.747-.575c-.786 7.137-.374 14.08 1.138 21.171 1.87 8.623 6.664 16.791 12.681 24.679 11.933 15.635 33.234 28.768 55.21 39.647 4.766 2.363 9.621 4.657 14.527 6.912zm203.383-67.814c-2.714 4.919-6.777 9.838-10.842 14.756-1.35 1.965-2.959 3.966-5.62 4.942l.198 43.25h-9.48l.42-43.25c-2.66-.976-4.482-2.977-5.838-4.942-4.063-4.918-8.131-9.837-10.838-14.756-8.13-14.749-13.464-31.449-16.124-48.205-1.771-17.728 0-34.569 5.32-51.412 2.659-7.978 6.632-16 11.074-23.332 3.428-5.676 7.366-11.235 11.991-15.998.819-.839 1.631-1.697 2.596-2.362 1.478-1.004 3.224-1.603 5.013-1.722 1.792-.115 3.603.253 5.207 1.068 1.238.631 2.227 1.533 3.198 2.505 4.543 4.557 8.422 9.927 11.812 15.378 1.478 2.377 10.273 16.485 12.933 24.463 5.318 16.843 6.047 40.826 5.234 51.421-2.712 16.727-8.131 33.447-16.254 48.196z"/></svg>