<svg viewBox="0 0 512 512" xmlns="http://www.w3.org/2000/svg"><path d="m396.697 342.31c-2.704-6.813-5.959-13.46-10.247-19.735-3.2-4.679-6.711-9.045-10.558-13.392-3.678-4.33-8.318-8.371-12.872-12.079-5.89-4.801-12.255-9.212-18.955-13.256-13.168-7.948-27.528-14.456-42.118-20.513-14.956-6.208-30.411-11.885-44.474-19.389-11.018-5.879-22.042-13.761-25.158-24.624-.727-2.535-5.681-16.294 1.246-27.998 7.287-12.313 19.006-22.262 31.341-31.478l40.035-29.231c.142-.106.269-.226.406-.336 1.976 20.813 6.88 41.093 14.618 59.173 2.99 6.986 6.39 13.683 10.275 19.774 1.547 2.425 3.142 4.942 5.194 6.489v57.377h8.954v-57.337c.833-.594 1.608-1.35 2.291-2.268 3.612-4.853 6.774-10.501 9.602-16.247 4.653-9.445 8.491-19.649 11.471-30.31 5.918-21.177 8.391-43.996 7.62-66.652-.124-3.638-.333-7.268-.633-10.888-1.833-22.679-7.255-44.86-15.994-64.236-3.261-7.232-6.989-14.346-11.365-20.386-.939-1.293-1.885-2.483-3.08-3.319-1.541-1.08-3.287-1.575-5.012-1.42-1.719.154-3.399.95-4.823 2.287-.934.876-1.713 2.015-2.498 3.127-4.456 6.315-8.246 13.687-11.545 21.205-4.27 9.727-7.713 20.144-10.303 30.941-3.986 16.609-5.868 34.144-5.798 51.647-11.33 3.679-82.446 33.455-105.918 53.517-4.352 3.721-8.373 7.779-11.938 12.093-1.866-6.608-4.157-12.987-6.872-19.008-2.502-5.546-5.361-11.004-8.716-15.634-.72-.992-1.446-1.904-2.363-2.547-1.182-.828-2.52-1.208-3.844-1.089-1.319.118-2.605.728-3.698 1.754-.716.672-1.314 1.546-1.917 2.399-3.416 4.843-6.323 10.497-8.853 16.263-3.276 7.46-5.916 15.451-7.902 23.733-4.005 16.69-5.249 34.603-3.972 52.077 1.261 17.245 5.135 34.129 11.524 49.058 2.293 5.357 4.901 10.494 7.881 15.166 1.186 1.86 2.409 3.789 3.982 4.977v44.007h6.867v-43.974c.639-.456 1.234-1.037 1.757-1.739 2.77-3.723 5.196-8.056 7.365-12.461 2.556-5.19 4.785-10.678 6.688-16.38 6.311 8.729 14.117 16.795 22.469 24.055 11.444 9.945 24.194 18.801 36.829 27.725 6.42 4.535 12.826 9.095 18.865 13.965 5.516 4.445 32.292 25.794 5.575 38.959-13.79 6.794-28.493 12.174-42.881 18.091-15.73 6.467-36.22 15.76-45.427 21.912-58.837 39.306-68.911 80.406-71.129 95.945h77.842c.327-1.729.734-3.453 1.082-5.181.883-4.39 2.942-8.672 4.895-12.807l26.005 8.484c-1.354 3.047-2.877 6.263-3.346 9.506h80.048c1.69-1.464 3.443-2.88 5.213-4.271 8.395-6.601 17.41-12.664 26.223-18.887 12.354-8.732 24.468-17.72 35.282-27.722 11.449-10.587 20.911-22.168 28.432-34.849 7.668-12.901 11.511-27.25 12.724-41.458 1.212-14.205-1.01-29.051-6.392-42.605zm-175.453-175.592c12.177-10.033 26.482-18.006 40.991-25.654 6.885-3.627 13.785-7.219 20.591-10.921l3.58 2.222c-8.465 5.026-17.129 9.837-25.667 14.784-7.107 4.121-14.28 8.344-20.806 13.064-5.533 3.999-11.172 8.072-15.796 12.797l-5.622-3.959c.87-.81 1.799-1.567 2.729-2.333zm22.413 117.335c-2.824-1.775-5.619-3.579-8.363-5.438-12.649-8.561-24.912-18.894-31.78-31.197-3.463-6.206-6.222-12.633-7.299-19.418-.87-5.58-1.108-11.043-.656-16.659l9.642.452c-.003.095-.006.192-.009.288-.433 13.184 3.513 26.602 13.128 37.438 9.103 10.259 20.878 18.335 33.502 25.637zm81.149 138.52c-11.923 10.33-25.63 18.884-39.841 27.05-12.59 7.237-25.282 14.303-37.211 22.253l-16.48-16.464.738-.451c13.055-8.022 26.921-15.044 40.632-22.302 7.346-3.887 14.523-7.932 21.524-12.217 6.055-3.704 12.114-7.861 17.082-12.528l16.706 11.765c-.997 1.001-2.08 1.94-3.15 2.894zm25.692-48.85-19.902-.93c.03-.353.062-.705.092-1.059 1.06-12.1-2.357-24.44-10.367-34.753-8.213-10.578-19.799-18.977-31.88-26.591l9.48-10.33c3.581 2.075 7.137 4.187 10.577 6.416 13.314 8.628 25.261 18.749 32.9 31.207 3.613 6.228 6.411 12.596 7.786 19.413 1.119 5.537 1.505 11.019 1.314 16.627z"/><path d="m374.735 89.388c.517 6.215-.499-6.177 0 0z"/></svg>