<svg viewBox="0 0 512 512" xmlns="http://www.w3.org/2000/svg"><path d="m512.313 260.941-47.109-185.073c-3.365-12.338-15.704-20.189-28.041-17.946l-88.612 17.946c-4.486 1.122-8.972 1.122-12.337-1.121l-161.517-53.839c-5.609-2.244-11.217-1.122-16.825 0l-96.461 39.257c-7.852 3.365-13.46 8.973-14.581 16.825l-45.988 182.829c-2.243 7.852 0 16.825 6.73 23.555 5.608 5.608 14.581 8.973 23.554 6.729l28.042-7.852c0-1.121 0-1.121 0-2.243-6.73-38.136 1.121-77.394 23.554-108.8 26.92-39.258 71.786-62.813 120.017-62.813 29.163 0 58.326 8.974 81.88 25.798 58.326 39.258 78.516 114.409 51.596 176.099h1.121c3.365 1.122 6.73 1.122 11.216 1.122l143.571-19.068c6.73-1.122 13.46-4.488 16.825-10.096s4.488-14.579 3.365-21.309z"/><path d="m233.022 207.101c-8.973-6.73-20.189-10.094-31.406-10.094-19.068 0-35.893 8.973-45.987 24.676-7.852 11.216-10.095 23.554-8.974 37.014l13.46-3.365c4.487-1.121 8.973-1.121 13.46 0l76.272 25.798c13.461-25.798 6.73-57.204-16.825-74.029zm-145.814 136.842-48.231 80.759c-12.338 21.312-5.608 49.353 15.703 61.691 6.73 4.487 14.582 6.729 22.433 6.729 15.703 0 30.285-7.852 38.136-22.433l45.988-77.394c-15.703-4.487-30.285-11.216-43.744-20.19-11.216-7.851-21.311-17.946-30.285-29.162z"/><path d="m271.159 151.019c-21.312-14.582-45.988-21.311-69.543-21.311-39.257 0-78.515 19.068-102.07 53.839-38.136 56.082-24.676 132.354 31.406 171.612 21.312 14.582 45.988 21.312 69.543 21.312 39.257 0 78.515-19.068 102.07-53.839 39.258-56.083 24.676-132.355-31.406-171.613zm-5.609 146.936c-15.703 22.433-40.379 33.649-65.055 33.649-15.703 0-30.285-4.487-43.745-13.459-35.892-24.678-44.866-74.029-20.189-108.8 15.703-22.433 40.379-33.65 65.055-33.65 15.703 0 30.285 4.487 43.745 13.46 35.892 23.555 44.866 72.908 20.189 108.8z"/></svg>