<svg viewBox="0 0 512 512" xmlns="http://www.w3.org/2000/svg"><path d="m380.766 510.491h-7.06v-19.995c1.24-.943 2.021-2.587 2.156-5.309 0 0-.728-10.886-5.955-17.219-5.309-6.333-27.163-29.885-29.319-40.798-2.048-10.914-1.671-46.431-12.261-67.503-10.51-21.127-21.774-31.987-24.199-45.326-2.506-13.393-6.009-38.723-10.941-57.29-4.931-18.675-6.683-23.606-7.68-32.714-1.104-9.162-.727-20.103-3.934-31.313-3.126-11.291-2.102-17.246-.674-25.304 1.429-8.111 3.854-37.295 3.854-37.295s17.246 19.699 27.082 24.253c9.809 4.581 15.441 7.06 17.974 4.931 2.452-2.129 4.958-9.485 3.449-17.542-1.401-8.139 2.156-9.54-9.809-24.253-11.964-14.794-23.228-27.109-26.058-34.142-2.802-7.061-15.117-16.519-15.117-16.519s-2.048-7.734-6.279-8.812c-4.231-1.051-8.812 1.078-8.812 1.078s-3.503-1.078-4.931 1.024c-1.375 2.102.673 7.41.673 7.41s-2.398 2.102-4.176 5.606-4.635 8.838-7.384 8.461c-2.802-.377-6.36-1.401-7.087-4.581-.701-3.153-.701-8.408-.701-8.408s7.087-4.581 8.138-8.138c1.024-3.503 3.504-12.315 3.504-17.246 0-4.904.35-8.057.35-8.057l3.18-5.282s4.581-2.102 3.503-5.632c-1.078-3.503-4.527-3.503-3.153-6.683 1.455-3.153 1.455-8.408-.674-9.863-2.129-1.374-7.383-3.476-7.06-5.605.35-2.075-7.788-3.503-9.485-1.401-1.752 2.129-4.581 3.53-8.435 1.401-3.826-2.075-10.213-1.401-12.315 1.428-2.102 2.803-3.18 3.153-5.309 3.153-2.101 0-4.581-.646-5.605 2.506-1.024 3.126-2.479 5.605-4.931 6.279-2.452.728-4.554.728-3.826 3.207.619 2.452-.351 9.836-2.48 10.536-2.155.647-2.452 2.453-1.751 4.554.673 2.075 2.102 3.504.673 5.579-1.374 2.155-2.101 3.179-.35 4.608 1.779 1.455 5.605 4.23 4.932 5.632-.728 1.401-3.504 2.829-2.102 4.904 1.374 2.129 5.659 3.934 4.23 6.71-1.455 2.802-.7 4.204 1.429 5.282 2.048 1.077 4.581 1.751 4.581 1.751s1.67 16.169-3.153 20.75c-4.985 4.581-15.845 10.536-21.855 12.638-5.982 2.129-17.246 9.162-19.644 17.597-2.506 8.461.35 24.252-1.806 31.258-2.102 7.034-4.203 20.076-4.554 29.238-.35 9.109-.727 18.244-1.751 23.525-1.105 5.282-2.129 15.118-.674 25.304 1.347 10.213 2.425 14.39 1.671 21.45-.674 7.033 4.581 14.767 5.605 20.777 1.078 5.982 3.907 7.733 7.788 10.213 3.853 2.452 3.853 8.057 12.961 10.859 9.162 2.83 14.067 2.83 14.067 2.83s.781-.35 1.671-.836c3.907 13.205 7.922 26.005 8.515 29.292 1.078 6.01 1.078 18.971 1.698 23.579.781 4.527-1.698 21.073 1.805 36.918 1.859 8.542 8.381 22.366 14.282 35.166-1.347.701-3.503 1.617-5.174.701-2.452-1.428-5.659-3.557-5.659-3.557s-2.802 2.803-3.449 7.761c-.781 4.904-6.063 8.407-6.063 8.407s12.369 5.632 14.12 13.366c1.725 7.734 0 15.118-1.428 20.399-.889 3.126-2.129 7.68-3.099 10.914h-4.581v33.388h-6.898v5.632h3.072l-1.995 21.073h173.568l-2.048-21.073h3.153zm-76.476-384.27c3.934 8.408 10.374 24.792 10.374 24.792s-12.368-14.794-14.389-23.983c-2.022-9.189-12.774-23.606-12.774-23.606s12.774 14.417 16.789 22.797zm-106.739 75.938c-1.024 7.384-2.479 21.423-4.527 28.106-1.805 5.605-1.132 16.95.189 28.78-.539-.808-1.078-1.509-1.617-2.021-4.959-4.581-16.6-6.683-16.869-14.067-.351-7.41 9.162-22.15 7.383-34.465s-1.455-15.818 1.779-26.031c3.099-10.186 5.605-26.382 5.605-26.382s11.641 13.366 12.611 21.828c1.051 8.461-3.53 16.869-4.554 24.252zm-18.782-85.234c-5.632 3.988-7.599 18.405-7.599 18.405s-1.213-11.615.781-17.597c1.967-6.009 7.572-7.222 15.603-10.402 7.976-3.233 21.18-12.827 21.18-12.827 0 6.037-24.306 18.432-29.965 22.421zm100.325 360.205c-.674-2.883-2.129-7.303-4.527-11.938-4.231-8.111-7.06-14.389-9.108-21.099-2.129-6.71 1.024-9.836-3.558-13.366-4.527-3.53-3.503-4.554-3.503-8.812 0-4.204 6.01-11.237 2.129-16.519-3.907-5.228-5.308-5.578-5.308-11.56s-.701-20.103-1.105-24.657c-.297-4.554-1.994-11.264.404-13.043 2.452-1.724 5.686-3.125 2.129-5.605-3.557-2.452-2.803-2.075-4.932-4.904-2.128-2.803-1.724-6.306-5.308-3.18-1.482 1.401-3.207 2.695-4.797 4.015.593-9.647.27-21.638-.135-29.318-.35-8.112-.997-21.477-.35-27.81.728-6.333.728-16.222.728-16.222s8.111 14.821 13.689 22.528c5.605 7.733 11.264 11.264 13.366 17.273 2.129 5.955 6.305 20.372 10.563 27.405 4.285 7.061 9.162 8.435 11.614 19.672 2.48 11.237 6.737 26.705 12.693 33.064 6.009 6.306 12.719 22.151 16.168 32.634 3.53 10.617 8.408 14.821 8.111 24.306-.35 9.486 1.428 16.169 5.632 18.27 4.069 2.048 8.543 4.447 10.671 8.812h-65.212v.054z"/></svg>