<svg viewBox="0 0 512 512" xmlns="http://www.w3.org/2000/svg"><path d="m497.793 508.166v-15.778c0-2.31-1.874-4.184-4.184-4.184h-24.316v-17.819c0-2.311-1.873-4.184-4.184-4.184h-1.977c-2.311 0-4.184-1.873-4.184-4.184v-235.435c0-2.311 1.873-4.184 4.184-4.184h6.678c2.311 0 4.184-1.873 4.184-4.184v-18.866c0-2.31-1.873-4.183-4.184-4.183h-6.678c-2.311 0-4.184-1.874-4.184-4.184v-11.215c0-2.31-1.873-4.183-4.184-4.183h-9.528-1.334-106.113-3.948-6.914c-2.31 0-4.183 1.873-4.183 4.183v11.215c0 2.31-1.874 4.184-4.184 4.184h-6.679c-2.31 0-4.184 1.873-4.184 4.183v18.866c0 2.311 1.874 4.184 4.184 4.184h6.679c2.31 0 4.184 1.873 4.184 4.184v94.836c0 2.31-1.874 4.184-4.184 4.184h-276.021c-2.31 0-4.183 1.873-4.183 4.184v27.979c0 2.311 1.873 4.184 4.183 4.184h280.205v12.552h-280.205c-2.31 0-4.183 1.873-4.183 4.183v3.487c0 2.311 1.873 4.184 4.183 4.184h280.205v13.598h-280.205c-2.31 0-4.183 1.873-4.183 4.183v3.487c0 2.311 1.873 4.184 4.183 4.184h280.205v13.598h-280.205c-2.31 0-4.183 1.873-4.183 4.183v3.487c0 2.311 1.873 4.184 4.183 4.184h280.205v12.552h-280.205c-2.31 0-4.183 1.873-4.183 4.183v3.487c0 2.311 1.873 4.184 4.183 4.184h280.205v12.552h-280.205c-2.31 0-4.183 1.873-4.183 4.183v9.804h-19.615c-2.311 0-4.184 1.874-4.184 4.184v15.778c0 2.311 1.873 4.184 4.184 4.184h474.868c2.31 0 4.184-1.873 4.184-4.184zm-119.237-269.947c0-2.889 2.342-5.23 5.23-5.23h14.12c2.889 0 5.23 2.341 5.23 5.23v2.267c0 2.888-2.341 5.23-5.23 5.23h-14.12c-2.888 0-5.23-2.342-5.23-5.23zm0 22.749c0-2.888 2.342-5.229 5.23-5.229h14.12c2.889 0 5.23 2.341 5.23 5.229v2.267c0 2.889-2.341 5.23-5.23 5.23h-14.12c-2.888 0-5.23-2.341-5.23-5.23zm0 45.5c0-2.889 2.342-5.23 5.23-5.23h14.12c2.889 0 5.23 2.341 5.23 5.23v2.615c0 2.888-2.341 5.23-5.23 5.23h-14.12c-2.888 0-5.23-2.342-5.23-5.23zm0 20.935c0-2.888 2.342-5.229 5.23-5.229h14.12c2.889 0 5.23 2.341 5.23 5.229v2.267c0 2.888-2.341 5.23-5.23 5.23h-14.12c-2.888 0-5.23-2.342-5.23-5.23zm0 44.291c0-2.888 2.342-5.23 5.23-5.23h14.12c2.889 0 5.23 2.342 5.23 5.23v2.267c0 2.889-2.341 5.23-5.23 5.23h-14.12c-2.888 0-5.23-2.341-5.23-5.23zm0 22.144c0-2.888 2.342-5.229 5.23-5.229h14.12c2.889 0 5.23 2.341 5.23 5.229v2.268c0 2.888-2.341 5.23-5.23 5.23h-14.12c-2.888 0-5.23-2.342-5.23-5.23zm0 44.291c0-2.889 2.342-5.23 5.23-5.23h14.12c2.889 0 5.23 2.341 5.23 5.23v2.267c0 2.888-2.341 5.23-5.23 5.23h-.949-12.222-.949c-2.888 0-5.23-2.342-5.23-5.23zm-35.305-199.91c0-2.889 2.342-5.23 5.23-5.23h14.121c2.888 0 5.229 2.341 5.229 5.23v2.267c0 2.888-2.341 5.23-5.229 5.23h-14.121c-2.888 0-5.23-2.342-5.23-5.23zm0 22.749c0-2.888 2.342-5.229 5.23-5.229h14.121c2.888 0 5.229 2.341 5.229 5.229v2.267c0 2.889-2.341 5.23-5.229 5.23h-14.121c-2.888 0-5.23-2.341-5.23-5.23zm0 44.291c0-2.888 2.342-5.23 5.23-5.23h14.121c2.888 0 5.229 2.342 5.229 5.23v2.267c0 2.888-2.341 5.23-5.229 5.23h-14.121c-2.888 0-5.23-2.342-5.23-5.23zm0 22.144c0-2.888 2.342-5.229 5.23-5.229h14.121c2.888 0 5.229 2.341 5.229 5.229v2.267c0 2.888-2.341 5.23-5.229 5.23h-14.121c-2.888 0-5.23-2.342-5.23-5.23zm0 44.291c0-2.888 2.342-5.23 5.23-5.23h14.121c2.888 0 5.229 2.342 5.229 5.23v2.267c0 2.889-2.341 5.23-5.229 5.23h-14.121c-2.888 0-5.23-2.341-5.23-5.23zm0 22.144c0-2.888 2.342-5.229 5.23-5.229h14.121c2.888 0 5.229 2.341 5.229 5.229v2.268c0 2.888-2.341 5.23-5.229 5.23h-14.121c-2.888 0-5.23-2.342-5.23-5.23zm5.23 51.788c-2.888 0-5.23-2.341-5.23-5.23v-2.267c0-2.888 2.342-5.23 5.23-5.23h14.121c2.888 0 5.229 2.342 5.229 5.23v2.267c0 2.889-2.341 5.23-5.229 5.23h-.947-12.222zm73.13 42.578h-62.06v-19.153c0-2.311 1.873-4.184 4.184-4.184h53.693c2.311 0 4.184 1.873 4.184 4.184zm16.829-47.808c0 2.889-2.341 5.23-5.229 5.23h-.953-12.221-.947c-2.888 0-5.23-2.341-5.23-5.23v-2.267c0-2.888 2.342-5.23 5.23-5.23h14.12c2.888 0 5.23 2.342 5.23 5.23zm0-44.29c0 2.888-2.341 5.23-5.229 5.23h-14.121c-2.888 0-5.23-2.342-5.23-5.23v-2.268c0-2.888 2.342-5.229 5.23-5.229h14.121c2.888 0 5.229 2.341 5.229 5.229zm0-22.145c0 2.889-2.341 5.23-5.229 5.23h-14.121c-2.888 0-5.23-2.341-5.23-5.23v-2.267c0-2.888 2.342-5.23 5.23-5.23h14.121c2.888 0 5.229 2.342 5.229 5.23zm0-44.29c0 2.888-2.341 5.23-5.229 5.23h-14.121c-2.888 0-5.23-2.342-5.23-5.23v-2.267c0-2.889 2.342-5.23 5.23-5.23h14.121c2.888 0 5.229 2.341 5.229 5.23zm0-22.145c0 2.888-2.341 5.23-5.229 5.23h-14.121c-2.888 0-5.23-2.342-5.23-5.23v-2.268c0-2.888 2.342-5.23 5.23-5.23h14.121c2.888 0 5.229 2.342 5.229 5.23zm0-44.291c0 2.889-2.341 5.23-5.229 5.23h-14.121c-2.888 0-5.23-2.341-5.23-5.23v-2.267c0-2.888 2.342-5.229 5.23-5.229h14.121c2.888 0 5.229 2.341 5.229 5.229zm0-22.749c0 2.888-2.341 5.23-5.229 5.23h-14.121c-2.888 0-5.23-2.342-5.23-5.23v-2.267c0-2.889 2.342-5.23 5.23-5.23h14.121c2.888 0 5.229 2.341 5.229 5.23zm-41.483-240.486h-12.222c-2.31 0-4.184 1.873-4.184 4.184v97.51c0 2.311-1.873 4.184-4.183 4.184h-34.395c-2.31 0-4.184 1.874-4.184 4.184v58.164h106.113v-58.164c0-2.31-1.873-4.184-4.183-4.184h-34.394c-2.311 0-4.184-1.873-4.184-4.184v-97.51c0-2.311-1.874-4.184-4.184-4.184zm-16.051 152.404c0 2.889-2.341 5.23-5.23 5.23h-13.597c-2.889 0-5.23-2.341-5.23-5.23v-2.614c0-2.889 2.341-5.23 5.23-5.23h13.597c2.889 0 5.23 2.341 5.23 5.23zm0-20.919c0 2.889-2.341 5.23-5.23 5.23h-13.597c-2.889 0-5.23-2.341-5.23-5.23v-2.615c0-2.888 2.341-5.23 5.23-5.23h13.597c2.889 0 5.23 2.342 5.23 5.23zm43.669 20.919c0 2.889-2.341 5.23-5.23 5.23h-13.597c-2.889 0-5.23-2.341-5.23-5.23v-2.614c0-2.889 2.341-5.23 5.23-5.23h13.597c2.889 0 5.23 2.341 5.23 5.23zm-18.827-28.764h13.597c2.889 0 5.23 2.342 5.23 5.23v2.615c0 2.889-2.341 5.23-5.23 5.23h-13.597c-2.889 0-5.23-2.341-5.23-5.23v-2.615c0-2.888 2.341-5.23 5.23-5.23z"/></svg>