<svg viewBox="0 0 512 512" xmlns="http://www.w3.org/2000/svg"><path d="m511.647 372.333c.23 1.937.353 3.884.353 5.847 0 1.958-.123 3.907-.353 5.844v.013h-.004c-7.04 58.486-118.798 104.963-255.642 104.963s-248.604-46.477-255.644-104.963h-.357v-250.215c0-61.203 114.614-110.822 256.001-110.822 141.38 0 255.999 49.619 255.999 110.822 0 1.963-.123 3.911-.353 5.848zm-32.024-229.267c0-50.396-100.121-91.249-223.624-91.249-123.505 0-223.622 40.853-223.622 91.249 0 50.394 100.117 91.248 223.622 91.248 123.503 0 223.624-40.852 223.624-91.248zm-291.777-4.323c0 30.752 23.289 55.684 0 55.684s-55.151-24.93-55.151-55.684 31.862-55.684 55.151-55.684c23.291.002 0 24.932 0 55.684zm67.486 0c0 26.253 19.88 47.54 0 47.54-19.884 0-47.087-21.285-47.087-47.54 0-26.256 27.203-47.539 47.087-47.539 19.88.002 0 21.285 0 47.539zm57.648 0c0 20.751 15.715 37.574 0 37.574s-37.215-16.823-37.215-37.574c0-20.752 21.5-37.574 37.215-37.574 15.715.002 0 16.822 0 37.574zm60.07 0c0 18.573 14.065 33.63 0 33.63-14.064 0-33.308-15.057-33.308-33.63s19.248-33.631 33.308-33.631c14.067 0 0 15.058 0 33.631z"/></svg>