<svg viewBox="0 0 512 512" xmlns="http://www.w3.org/2000/svg"><path d="m503.583 254.894c17.162-53.084 4.813-128.86-46.859-180.511-37.314-37.314-87.306-54.169-132.177-54.169-17.941 0-35.062 2.724-50.258 7.885-77.292-38.298-144.999-36.557-182.211.634-26.972 26.973-34.017 69.387-23.859 118.088l-16.794 16.794c-3.358-.901-6.82-1.536-10.465-1.536-22.63 0-40.96 18.329-40.96 40.96s18.33 40.96 40.96 40.96 40.96-18.33 40.96-40.96c0-3.646-.635-7.107-1.516-10.486l1.291-1.29c17.756 45.629 48.414 93.982 89.968 138.854l-58.757 58.757c-3.399-.88-6.861-1.515-10.506-1.515-22.63 0-40.96 18.329-40.96 40.96s18.33 40.96 40.96 40.96 40.96-18.33 40.96-40.96c0-3.646-.635-7.107-1.516-10.486l58.758-58.737c44.789 41.554 93.081 72.274 138.69 90.092l-1.126 1.126c-3.379-.88-6.841-1.515-10.486-1.515-22.63 0-40.96 18.329-40.96 40.96s18.33 40.96 40.96 40.96 40.96-18.33 40.96-40.96c0-3.646-.635-7.107-1.516-10.486l16.569-16.568c48.927 10.322 91.586 3.358 118.661-23.737 37.212-37.15 38.277-107.438 1.229-184.074zm-74.466-152.883c54.088 54.067 51.159 138.383 22.877 166.666-14.664 14.664-29.655 21.791-45.814 21.791-28.549 0-64.696-21.074-104.571-60.969-94.72-94.741-54.313-135.148-39.117-150.364 12.452-12.452 35.656-19.886 62.055-19.886 39.301 0 77.393 15.605 104.57 42.762z"/></svg>