<svg viewBox="0 0 512 512" xmlns="http://www.w3.org/2000/svg"><path d="m278.726 116.408 42.205-64.294c5.642-8.621 3.247-20.17-5.375-25.813-8.622-5.641-20.171-3.246-25.813 5.376l-33.318 50.828-.426-.692-.532.798-33.423-50.934c-5.643-8.622-17.191-11.017-25.813-5.376-8.622 5.643-11.017 17.192-5.376 25.813l42.312 64.453-208.633 317.898h94.896c5.163 0 10.325-.852 15.169-2.607 76.427-27.676 105.753-113.364 116.184-158.71 1.277-5.535 9.101-5.535 10.379 0 10.378 45.293 39.757 130.981 116.184 158.71 4.843 1.756 10.006 2.607 15.169 2.607h94.895zm219.33 335.088h-484.112c-7.717 0-13.944 5.961-13.944 13.305v10.645c0 7.344 6.227 13.305 13.944 13.305h484.112c7.717 0 13.944-5.961 13.944-13.305v-10.645c0-7.344-6.227-13.305-13.944-13.305z"/></svg>