<svg viewBox="0 0 512 512" xmlns="http://www.w3.org/2000/svg"><path d="m502.965 181.589c-.892-3.543-3.243-6.535-6.461-8.262-3.21-1.717-7.004-2.008-10.446-.799-30.179 10.602-76.742 17.425-129.111 17.425-12.731 0-25.002-.486-36.899-1.251-6.152 27.793-15.982 53.313-28.537 75.789.61-.025 1.194-.125 1.81-.125 16.273 0 29.462-1.357 29.462 9.605s-13.19 30.095-29.462 30.095c-9.479 0-17.825-3.067-23.21-7.752-16.264 20.192-35.264 36.114-56.189 46.643 23.592 79.409 78.749 135.116 143.025 135.116 85.751 0 155.264-99.136 155.264-221.426-.001-26.379-3.295-51.622-9.246-75.058zm-84.143 231.829c-.274 1.167-1.143 2.118-2.283 2.493-1.144.382-2.401.141-3.319-.635-12.096-10.163-32.671-16.915-56.272-16.915-23.602 0-44.178 6.752-56.272 16.915-.919.768-2.178 1.009-3.319.635-1.142-.383-2.009-1.326-2.284-2.493-1.001-4.261-1.617-8.653-1.617-13.222 0-35.066 28.429-63.493 63.494-63.493 35.064 0 63.491 28.428 63.491 63.493-.002 4.569-.618 8.962-1.619 13.222zm1.751-109.353c-16.274 0-29.462-19.133-29.462-30.095s13.189-9.605 29.462-9.605c16.272 0 29.462 8.888 29.462 19.85-.001 10.962-13.19 19.85-29.462 19.85z"/><path d="m310.527 118.989c0-26.377-3.293-51.62-9.245-75.056-.892-3.542-3.243-6.536-6.461-8.262-1.901-1.016-4.01-1.533-6.136-1.533-1.452 0-2.91.24-4.31.734-30.178 10.603-76.74 17.423-129.11 17.423-52.371 0-98.933-6.82-129.112-17.423-1.392-.494-2.842-.734-4.293-.734-2.125 0-4.244.522-6.154 1.542-3.209 1.725-5.568 4.718-6.461 8.253-5.951 23.437-9.245 48.679-9.245 75.056 0 122.292 69.512 221.425 155.265 221.425 85.751 0 155.262-99.133 155.262-221.425zm-248.352 27.52c0-10.964 13.19-19.85 29.463-19.85s29.462 19.131 29.462 30.095c0 10.962-13.189 9.605-29.462 9.605s-29.463-8.888-29.463-19.85zm93.09 152.044c-35.066 0-63.493-28.427-63.493-63.49 0-4.569.616-8.964 1.617-13.224.275-1.165 1.143-2.108 2.284-2.493 1.143-.375 2.4-.133 3.318.634 12.096 10.163 32.671 16.916 56.273 16.916s44.177-6.753 56.271-16.916c.919-.776 2.177-1.016 3.319-.634 1.142.377 2.009 1.328 2.284 2.493 1 4.26 1.617 8.655 1.617 13.224.001 35.063-28.426 63.49-63.49 63.49zm34.162-141.799c0-10.964 13.19-30.095 29.463-30.095s29.462 8.886 29.462 19.85c0 10.962-13.189 19.85-29.462 19.85s-29.463 1.357-29.463-9.605z"/></svg>