<svg viewBox="0 0 512 512" xmlns="http://www.w3.org/2000/svg"><path d="m240.871 0-5.051 23.358 9.663 2.085-9.16 42.413-7.03-1.402-89.535 414.448h-66.182v31.605h331.91v-31.605h-63.996l80.541-372.815-6.979-1.619 9.161-42.413 9.659 2.09 5.055-23.358zm3.141 348.285-11.347 52.533-36.915-7.976 11.347-52.537c2.205-10.194 12.256-16.67 22.45-14.475 10.189 2.214 16.674 12.265 14.465 22.455zm22.998-106.483-11.342 52.529-36.919-7.975 11.351-52.538c2.205-10.189 12.251-16.67 22.454-14.465 10.194 2.205 16.666 12.256 14.456 22.449zm-25.258-61.924 11.347-52.538c2.204-10.189 12.251-16.67 22.445-14.469 10.198 2.204 16.67 12.251 14.474 22.445l-11.347 52.528zm87.45 186.82-11.347 52.524-36.915-7.975 11.343-52.538c2.209-10.189 12.251-16.67 22.449-14.47 10.194 2.21 16.675 12.261 14.47 22.459zm23.008-106.487-11.352 52.533-36.919-7.975 11.342-52.533c2.21-10.194 12.251-16.674 22.45-14.474 10.198 2.205 16.674 12.246 14.479 22.449zm23.008-106.496-11.352 52.538-36.919-7.98 11.351-52.533c2.2-10.194 12.247-16.674 22.441-14.47 10.198 2.21 16.679 12.261 14.479 22.445z"/></svg>