<svg viewBox="0 0 512 512" xmlns="http://www.w3.org/2000/svg"><path d="m176.836 0c-54.299 0-62.949 73.899-49.023 111.252 8.836 23.848 35.75 46.886 63.373 37.084 35.719-17.667 45.812-62.969 35.87-98.093-4.819-23.398-23.477-50.243-50.22-50.243zm151.857 0c-26.742 0-45.401 26.845-50.22 50.243-9.941 35.124.152 80.426 35.871 98.093 27.621 9.802 54.536-13.236 63.373-37.084 13.925-37.353 5.275-111.252-49.024-111.252zm-307.359 118.43c-21.449 21.459-18.641 83.212 20.328 108.86 25.256 12.953 50.888-3.795 59.785-23.926 15.021-28.59 10.893-69.228-15.545-89.719-25.305-16.898-44.744-15.048-64.568 4.785zm404.15-4.785c-18.448 10.656-30.566 61.129-15.544 89.719 8.895 20.131 35.725 36.879 60.981 23.926 38.968-25.648 41-86.981 19.132-108.86-20.354-17.045-44.448-16.408-64.569-4.785zm-169.791 53.832c-95.093 0-172.183 77.124-172.183 172.261s77.09 172.262 172.183 172.262 172.183-77.125 172.183-172.262-77.09-172.261-172.183-172.261zm-38.262 57.42h76.525v76.561h76.525v76.56l-76.525 1.197v75.364h-76.525v-76.561h-76.526v-76.56h76.526z"/></svg>