<svg viewBox="0 0 512 512" xmlns="http://www.w3.org/2000/svg"><path d="m24.058 506.821h87.751 26.208 66.068 27.681 253.626v-323.916h27.65l-13.162-132.177c-.452-25.138-23.136-44.504-50.826-44.504h-385.066c-27.69 0-50.374 19.366-50.826 44.504l-13.162 132.177h24.058zm422.073-29.447h-33.943v-51.944c0-14.567-11.809-26.385-26.385-26.385s-26.385 11.808-26.385 26.385v51.944h-50.707v-78.526h-118.877l-.314 78.526h-42.355v-51.944c0-14.567-11.809-26.385-26.385-26.385s-26.385 11.808-26.385 26.385v51.944h-31.075v-294.469h382.81v294.469zm-396.061-430.592c.029-4.418 5.751-11.112 13.918-11.112h385.067c8.177 0 13.899 6.478 13.919 10.895l10.993 97.078h-434.891z"/><path d="m153.614 269.607h-6.438v-29.035c0-14.566-11.809-26.385-26.385-26.385s-26.385 11.809-26.385 26.385v29.035h-6.439v11.043h65.647zm88.341 0h-6.439v-29.035c0-14.566-11.808-26.385-26.385-26.385-14.576 0-26.384 11.809-26.384 26.385v29.035h-6.439v11.043h65.647zm88.342 0h-6.439v-29.035c0-14.566-11.808-26.385-26.385-26.385s-26.385 11.809-26.385 26.385v29.035h-6.438v11.043h65.647c0-.002 0-11.043 0-11.043zm88.34 0h-6.438v-29.035c0-14.566-11.809-26.385-26.385-26.385-14.577 0-26.385 11.809-26.385 26.385v29.035h-6.439v11.043h65.647c0-.002 0-11.043 0-11.043zm-265.023 88.34h-6.438v-29.035c0-14.567-11.809-26.385-26.385-26.385s-26.385 11.808-26.385 26.385v29.034h-6.439v11.043h65.647zm88.341 0h-6.439v-29.035c0-14.567-11.808-26.385-26.385-26.385-14.576 0-26.384 11.808-26.384 26.385v29.034h-6.439v11.043h65.647zm88.342 0h-6.439v-29.035c0-14.567-11.808-26.385-26.385-26.385s-26.385 11.808-26.385 26.385v29.034h-6.438v11.043h65.647zm88.34 0h-6.438v-29.035c0-14.567-11.809-26.385-26.385-26.385-14.577 0-26.385 11.808-26.385 26.385v29.034h-6.439v11.043h65.647z"/></svg>