<svg viewBox="0 0 512 512" xmlns="http://www.w3.org/2000/svg"><path d="m12.477 471.826c2.811 0 5.647-.954 7.963-2.89l45.372-37.834c2.872-2.405 8.758-2.749 11.913-.715l46.866 30.392c12.116 7.875 29.942 7.229 41.448-1.449l37.833-28.492c3.155-2.396 9.792-2.678 13.141-.548l48.713 30.763c11.833 7.468 29.623 7.361 41.386-.256l46.857-30.409c3.535-2.281 10.648-2.246 14.149.07l45.752 30.163c12.036 7.963 29.888 7.494 41.484-1.079l52.22-38.602c5.532-4.093 6.69-11.895 2.607-17.419-4.083-5.542-11.886-6.708-17.419-2.607l-52.221 38.594c-3.128 2.315-9.677 2.51-12.947.335l-45.761-30.171c-11.772-7.777-29.597-7.866-41.421-.176l-46.866 30.409c-3.598 2.316-10.915 2.369-14.537.089l-48.705-30.764c-12.151-7.652-29.96-6.919-41.439 1.715l-37.824 28.491c-3.128 2.369-9.625 2.591-12.912.451l-46.856-30.383c-12.32-8.016-30.145-6.947-41.431 2.475l-45.362 37.832c-5.285 4.402-5.991 12.25-1.599 17.535 2.491 2.951 6.036 4.48 9.596 4.48zm161.366-196.512c18.294 0 33.185-14.9 33.185-33.246 0-18.294-14.891-33.088-33.185-33.088-18.25 0-33.149 14.794-33.149 33.088-.001 18.355 14.899 33.246 33.149 33.246zm227.275-222.82-67.183 114.367-98.874 59.962c-4.914 2.714-9.023 6.814-11.887 11.834l-76.913 132.518c-5.161 8.873-2.156 20.353 6.77 25.522 8.881 5.321 20.309 2.254 25.531-6.619l60.087-89.214 110.372-76.392c5.021-2.757 9.129-6.866 11.843-11.833l80.518-137.035c6.372-11.082 2.554-25.266-8.529-31.744-11.17-6.364-25.372-2.492-31.735 8.634z"/></svg>