<svg viewBox="0 0 512 512" xmlns="http://www.w3.org/2000/svg"><path d="m334.835 0-6.693 2.175c-31.789 10.254-61.689 28.82-86.364 53.669-65.449 65.792-97.417 179.379-49.44 243.116l-113.062 113.708c-25.996-22.429-54.426-36.346-79.276-39.438l139.516 138.77c-3.209-24.8-17.265-53.19-39.846-79.024l113.061-113.708c64.027 47.642 177.421 15.054 242.871-50.78 24.678-24.85 43.122-54.81 53.158-86.668l2.129-6.731zm123.046 230.117-253.03-72.67c11.517-31.548 30.193-61.998 53.331-85.257 20.41-20.513 44.612-36.17 70.447-45.679l155.81 154.971c-6.149 17.182-15.276 33.518-26.558 48.635z"/></svg>