<svg height="1000" width="1000.0" xmlns="http://www.w3.org/2000/svg"><path d="m756.7 296.2c6.6 104.1-43.9 177.1-43.9 177.1 6.6-80.2-25.9-191-25.9-191-27.8-5.4-72.1 0.4-72.1 0.4 6.4 86.5-37.6 162-70.1 189.8 16.1-95.9-9.5-168.4-9.5-168.4-43.9-11.1-106.9-4.3-106.9-4.3 13.7 102-42.6 177-42.6 177 9.3-71.1-28.7-162.3-28.7-162.3-32.3-2.1-83.7 8.4-83.7 8.4 27.1 48.4 5.5 154.8 5.5 154.8-14.8-87-64.5-138.3-64.5-138.3-284.8 121.3-209.8 288.5-70.5 338.2 131.4 46.9 554.9 70 744.3-12.2 189.5-82.2 56.1-313.3-131.4-369.2z" /></svg>