<svg xmlns="http://www.w3.org/2000/svg" version="1" width="512" height="512" viewBox="0 0 512 512"><path d="M255.746 62.904c17.152 0 31.232-13.824 31.232-31.232S272.898.44 255.746.44c-17.255 0-31.232 13.824-31.232 31.232s13.977 31.232 31.232 31.232M305.666 73.144H205.314c-22.12 0-39.936 17.92-39.936 40.448v74.752c0 18.944 24.627 18.944 24.627 0v-72.192h25.55v91.136c13.055 3.072 26.418 5.632 40.498 5.632 13.977 0 27.187-2.56 40.192-5.632v-91.136h25.395v72.192c0 18.944 24.627 18.944 24.627 0v-74.24c0-20.48-16.23-40.96-40.6-40.96M374.07 236.472c-33.64 23.04-74.6 36.864-118.53 36.864-43.622 0-84.12-13.312-117.862-36.352l-26.47 39.424c41.165 28.16 90.93 44.544 144.333 44.544 53.863 0 103.834-16.384 145.153-44.544l-26.624-39.936z"/><path d="M424.654 317.88c-48.076 32.768-106.24 51.712-168.857 51.712-62.362 0-120.218-18.944-168.243-51.2l-26.722 38.4c55.547 37.888 122.722 59.904 194.965 59.904 72.397 0 139.57-22.016 195.38-59.904l-26.523-38.912z"/><path d="M474.882 398.264c-62.567 42.496-137.933 67.072-219.188 67.072-81.152 0-156.518-24.576-218.987-67.072L10.6 437.688c69.837 47.104 154.266 74.752 245.094 74.752 90.932 0 175.565-27.648 245.71-75.264l-26.522-38.912z"/></svg>