<svg viewBox="0 0 512 512" xmlns="http://www.w3.org/2000/svg"><path d="m74.27 75.794c45.488-45.547 110.905-74.803 180.369-75.794h2.853c69.464.991 134.764 30.261 180.252 75.809 45.161 45.872 73.863 111.495 74.256 180.961-.789 69.464-29.877 134.837-75.294 180.442-45.726 45.274-111.196 74.749-180.706 74.749-69.511 0-134.997-29.492-180.722-74.765-45.419-45.607-74.489-111.058-75.278-180.521.392-69.466 29.111-135.013 74.27-180.881zm161.73 221.206v110h40v-110zm64.305-153.008 55.433 95.008 37.262-20.992-55.437-95.008zm-125.867-20.992-55.438 95.008 37.262 20.992 55.433-95.008z"/></svg>