<svg viewBox="0 0 512 512" xmlns="http://www.w3.org/2000/svg"><path d="m448 64h-48c.896 16.23.134 35.995-16.76 44.132-21.633 13.056-51.015-7.53-47.24-32.214 3.016-11.524-3.3-13.716-13.607-11.918h-146.393c.896 16.23.134 35.995-16.76 44.132-21.633 13.056-51.015-7.53-47.24-32.214 3.016-11.524-3.3-13.716-13.607-11.918-19.106 1.648-41.596-5.368-56.993 9.4-14.71 15.26-7.78 37.636-9.4 56.616.11 107.08-.221 214.171.166 321.244 1.456 20.42 22.673 31.609 41.359 28.74 125.91-.11 251.831.221 377.735-.166 20.42-1.456 31.609-22.673 28.74-41.359-.11-115.243.221-230.498-.166-345.735-1.36-15.884-15.875-29.032-31.834-28.74zm0 383.942c-127.944.097-256.057.097-384 0v-287.942h384zm-304-351.942c16.848-.08 16.804-18.69 16-30.967-.73-18.38 1.53-37.14-1.257-55.26-8.43-19.68-36.603-5.82-30.743 13.03.216 20.135-.433 40.314.325 60.421 1.372 7.27 8.271 12.91 15.675 12.776zm224 0c16.848-.08 16.804-18.69 16-30.967-.73-18.38 1.53-37.14-1.257-55.26-8.43-19.68-36.603-5.82-30.743 13.03.216 20.135-.433 40.314.325 60.421 1.372 7.27 8.271 12.91 15.675 12.776zm68 396c-121.086-.08-242.178.161-363.26-.121-15.958 3.539-30.857-21.334-28.74-25.158-1.517 16.478 2.036 36.194 19.575 42.754 19.005 4.925 39.16 1.51 58.687 2.525 105.665-.11 211.34.221 316.998-.166 20.42-1.456 31.609-22.673 28.74-41.359 1.867-14.587-5.268 23.264-19.575 19.625-4.002 1.307-8.22 1.9-12.425 1.9z"/></svg>