<svg viewBox="0 0 512 512" xmlns="http://www.w3.org/2000/svg"><path d="m85.628 71.057c42.645-42.7 103.974-70.127 169.096-71.057h2.675c65.122.93 126.341 28.37 168.986 71.071 42.338 43.005 69.247 104.527 69.615 169.651-.74 65.123-28.01 126.41-70.588 169.165-35.093 34.746-82.59 59.566-134.414 67.426-.128 8.108-5.136 19.319-10.251 24.434-5.181 5.181-16.617 10.253-24.747 10.253s-19.566-5.072-24.747-10.253c-5.115-5.115-10.124-16.327-10.251-24.435-51.829-7.864-99.337-32.695-134.429-67.44-42.58-42.757-69.833-104.117-70.573-169.239.367-65.124 27.292-126.574 69.628-169.576z"/><path d="m316 323.2a60 60 0 0 1 -60 60 60 60 0 0 1 -60-60 60 60 0 0 1 60-60 60 60 0 0 1 60 60zm-123.497-158.994a38 38 0 0 1 -38 38 38 38 0 0 1 -38-38 38 38 0 0 1 38-38 38 38 0 0 1 38 38zm203.747 0a38 38 0 0 1 -38 38 38 38 0 0 1 -38-38 38 38 0 0 1 38-38 38 38 0 0 1 38 38z" fill="#fff"/></svg>