<svg viewBox="0 0 512 512" xmlns="http://www.w3.org/2000/svg"><path d="m512 256a256 256 0 0 1 -256 256 256 256 0 0 1 -256-256 256 256 0 0 1 256-256 256 256 0 0 1 256 256z"/><path d="m481 256c0 9.342-2.376 20.719-5.723 28.774-3.389 8.156-9.7 17.609-15.771 23.79-6.104 6.213-15.63 12.801-23.851 16.34-8.178 3.522-20.077 6.096-29.655 6.096s-21.477-2.574-29.655-6.096c-8.221-3.539-17.747-10.127-23.851-16.34-6.071-6.181-12.382-15.634-15.771-23.79-3.347-8.055-5.723-19.432-5.723-28.774s2.376-20.72 5.723-28.774c3.389-8.156 9.7-17.61 15.771-23.79 6.104-6.213 15.63-12.802 23.851-16.34 8.178-3.522 20.077-6.096 29.655-6.096s21.477 2.574 29.655 6.096c8.221 3.538 17.747 10.127 23.851 16.34 6.071 6.18 12.382 15.634 15.771 23.79 3.347 8.054 5.723 19.432 5.723 28.774z" fill="#fff"/><path d="m181 256c0 9.342-2.377 20.719-5.723 28.774-3.389 8.156-9.7 17.609-15.772 23.79-6.103 6.213-15.629 12.801-23.85 16.34-8.179 3.522-20.077 6.096-29.655 6.096-9.579 0-21.477-2.574-29.655-6.096-8.222-3.539-17.747-10.127-23.851-16.34-6.072-6.181-12.382-15.634-15.771-23.79-3.347-8.055-5.723-19.432-5.723-28.774s2.376-20.72 5.723-28.774c3.389-8.156 9.699-17.61 15.771-23.79 6.104-6.213 15.629-12.802 23.851-16.34 8.178-3.522 20.076-6.096 29.655-6.096 9.578 0 21.476 2.574 29.655 6.096 8.221 3.538 17.747 10.127 23.85 16.34 6.072 6.18 12.383 15.634 15.772 23.79 3.346 8.054 5.723 19.432 5.723 28.774z" fill="#fffcfc"/><path d="m341 128.001c0 22.994-9.879 45.086-24.896 60.103s-37.109 24.896-60.103 24.896c-22.996 0-45.087-9.879-60.105-24.896-15.017-15.017-24.896-37.109-24.896-60.103 0-22.996 9.879-45.088 24.896-60.105 15.018-15.017 37.109-24.896 60.105-24.896 22.994 0 45.086 9.879 60.103 24.896s24.896 37.109 24.896 60.105z" fill="#fff"/><path d="m341 383.999c0 22.995-9.88 45.087-24.896 60.105-15.016 15.016-37.11 24.896-60.103 24.896-22.995 0-45.087-9.88-60.105-24.896-15.016-15.018-24.896-37.11-24.896-60.105 0-22.993 9.88-45.087 24.896-60.103 15.018-15.018 37.11-24.896 60.105-24.896 22.993 0 45.087 9.878 60.103 24.896 15.016 15.016 24.896 37.11 24.896 60.103z" fill="#fff"/><path d="m312.564 191.636-120.2-120.2 7.072-7.072 120.2 120.2z"/><path d="m192.364 184.564 120.2-120.2 7.072 7.072-120.2 120.2zm120.236 263.008-120.2-120.2 7.072-7.072 120.2 120.2z"/><path d="m192.4 440.5 120.2-120.2 7.072 7.072-120.2 120.2z"/></svg>