<svg xmlns="http://www.w3.org/2000/svg" width="512" height="512" viewBox="0 0 512 512"><path d="M440.9 135.2V96.26c0-6.15-4.8-10.76-10.7-10.76-5.8 0-10.6 4.61-10.6 10.76v38.94h-42.7V96.26c0-6.15-4.7-10.76-10.7-10.76-5.8 0-10.6 4.61-10.6 10.76v38.94h-21.4v21.5c0 30.2 21.3 55.8 49.8 61.9v79.9l21.3 157.2c-.3 15.3-12.9 27.6-28.4 27.6-15.7 0-28.4-12.3-28.5-28.1V256c0-23.6-19-42.5-42.6-42.5h-42.6V41.47C263.2 18.43 244 0 220.4 0H92.46C68.94 0 49.8 18.43 49.8 41.47V512h213.4V241.7h42.6c7.8 0 14.2 6.6 14.2 14.3v199.2c0 31.2 25.5 56.8 56.9 56.8s56.9-25.6 56.9-56.8l-21.4-157.7v-78.9c28.6-6.1 49.8-31.7 49.8-61.9v-21.5h-21.3zM103.7 375.3l30.6-61.4H96.02l53.58-91.7h38.3l-38.3 61.4h46l-91.9 91.7zm131-224.8c0 7.2-6.4 12.8-14.3 12.8H92.46c-7.83 0-14.22-5.6-14.22-12.8V41.47c0-7.17 6.39-12.8 14.22-12.8H220.4c7.9 0 14.3 5.63 14.3 12.8V150.5z"/></svg>