<svg xmlns:dc="http://purl.org/dc/elements/1.1/" xmlns:cc="http://creativecommons.org/ns#" xmlns:rdf="http://www.w3.org/1999/02/22-rdf-syntax-ns#" xmlns:svg="http://www.w3.org/2000/svg" xmlns="http://www.w3.org/2000/svg" xmlns:xlink="http://www.w3.org/1999/xlink" xmlns:sodipodi="http://sodipodi.sourceforge.net/DTD/sodipodi-0.dtd" xmlns:inkscape="http://www.inkscape.org/namespaces/inkscape" width="64px" height="64px" id="svg2" version="1.1" inkscape:version="0.48.2 r9819" sodipodi:docname="round.svg" data-tags="round" viewBox="0 0 64 64" style="margin-left: 8px; margin-top: 8px;">







  <path d="M 0.00,36.00  m0.00,0.00, 12.00,0.00 5.90-5.50 6.10,5.50 12.00,0.00 -18.50-16.00 zM 34.816,4.052  m0.00,0.00,c -10.96,2.476 -15.112,5.852 -20.148,12.668 l -0.584,0.94 -2.016,3.536 5.18-5.076 L 24.00,22.00 c -0.024-0.04 1.696-1.996 2.32-2.72 5.824-6.34 14.036-4.74 19.788-1.488 7.988,4.828 10.324,14.312 5.872,22.244 -4.452,7.936 -14.752,10.964 -22.74,6.136 -3.90-2.356 -6.224-4.316 -7.232-8.568 l -0.088-0.20 -4.048-2.956 L 12.00,39.768 c 1.776,7.484 6.328,12.76 12.496,16.488 12.516,7.564 28.372,3.376 35.86-9.972 7.488-13.348 3.02-31.008 -9.496-38.572 -3.128-1.892 -6.504-3.156 -9.872-3.616 -1.264-0.172 -4.912-0.068 -6.172-0.044 z"></path></svg>