<svg viewBox="0 0 512 512" xmlns="http://www.w3.org/2000/svg"><path d="m0 .824h510.352v191.384h-510.352zm0 191.384h31.896v255.176h-31.896zm478.456 0h31.896v255.176h-31.896zm-350.864 318.968h255.168l-63.792-95.688h-127.584zm63.792-127.584h127.584l-31.896-63.8h-63.792zm31.896-95.696h63.792l-31.896-63.792zm-158.024-252.272c-13.328 0-24.432 3.032-33.136 9.6-8.648 6.576-13.456 17.008-13.456 27.816 0 9.28 3.6 18.056 10.368 23.984 6.728 5.936 15.976 9.312 27.968 11.52l9.312.952c6.768 1.248 9.92 3.536 11.384 4.784h1.024c1.536 1.312 2.08 2.328 2.08 5.744 0 3.832-1.504 5.896-4.152 7.688-2.68 1.784-7.08 2.872-14.512 2.872-4.752 0-9.408-.512-14.512-1.92-5.144-1.4-11.008-3.824-16.584-6.696l-12.44-6.704v13.432 14.392 4.784l6.216 1.912c6.632 2.264 12.344 4.568 18.656 5.744 6.352 1.176 12.832 1.912 18.664 1.912 14.928 0 27.08-3.032 36.272-9.6 9.208-6.544 14.504-17.168 14.504-28.776 0-9.784-3.408-18.496-10.36-24.936-6.92-6.544-16.88-10.336-29-12.48l-9.304-1.912c-7.568-1.304-11.712-3.288-12.448-3.832-.896-.728-2.072-.856-2.072-3.824 0-3.44.696-5.104 3.096-6.696 2.488-1.632 7.464-2.872 14.512-2.872 3.888 0 8.04.832 12.44 1.92 4.4 1.08 9.216 2.456 14.512 4.776l11.384 4.784v-9.56h6.224 31.072v83.44 7.688h8.288 15.528 8.296v-7.688-83.44h30.056 8.288v-7.688-11.52-7.656h-8.288-93.24l-7.88.896-.384 1.112v9.48-6.48l-3.096-1.176c-5.96-1.856-11.792-2.912-17.608-3.832-5.8-.92-11.96-1.912-17.608-1.912zm170.944 1.912-5.328.832-1.952 3.952-42.48 102.616-4.144 10.56h12.44 15.528 6.224l1.024-5.744 8.288-21.088h38.336l8.296 21.088 2.072 5.744h5.168 15.536 8.288 4.144 4.152 14.512 8.296v-7.688-35.504h8.288c4.792 0 7.792.896 9.32 1.92 1.304.856 3.92 4.264 7.24 10.552l14.512 25.896 2.072 4.792h5.168 15.536 13.456l-5.168-11.512-15.528-27.816c-3.256-6.128-6.632-11.36-10.368-15.344-.544-.576-1.496-.416-2.072-.96 2.36-1.72 5.52-2.52 7.24-4.784 4.4-5.712 6.216-12.536 6.216-20.128 0-4.368-2.296-6.704-3.472-10.56h3.472 31.064v83.448 7.688h8.304 14.504 8.296v-7.688-83.448h31.064 8.304v-7.688-11.504-7.664h-8.304-93.232-7.336l-.96 7.632.576 9.24c-1.848-2.968-1.848-5.096-4.72-7.336-8.288-6.536-19.392-9.592-33.136-9.592h-33.144-8.296v7.648 99.744l-42.48-102.616-2.08-4.776h-5.168zm98.432 26.864h10.368c5.896 0 8.736 1.496 10.368 2.864 1.656 1.344 3.088 3.192 3.088 7.688s-1.368 6.224-3.088 7.656c-1.632 1.376-4.432 2.872-10.368 2.872h-10.368zm-90.136 16.296 9.312 21.08h-17.608zm118.112 14.384 1.016 4.784-1.016 2.872c-.352-.32-.672-.736-1.024-.96-2.936-1.912-6.792-2.136-10.36-2.872 4.176-.6 8.032-1.88 11.384-3.824z"/></svg>