<svg viewBox="0 0 512 512" xmlns="http://www.w3.org/2000/svg"><path d="m0 287.944h95.848l47.12-43.92 48.72 43.92h95.848l-147.76-127.784zm278.08-255.168c-87.544 19.784-120.704 46.736-160.928 101.184l-4.664 7.512-16.096 28.24 41.368-40.544 53.928 46.96c-.184-.312 13.552-15.936 18.536-21.728 46.52-50.632 112.104-37.848 158.04-11.88 63.808 38.56 82.464 114.312 46.904 177.664-35.552 63.384-117.824 87.568-181.624 49.008-31.152-18.816-49.712-34.472-57.768-68.432l-.696-1.6-32.336-23.608-46.896 42.496c14.184 59.776 50.544 101.912 99.8 131.688 99.968 60.408 226.616 26.96 286.424-79.648 59.8-106.608 24.12-247.664-75.848-308.08-24.976-15.112-51.952-25.2-78.848-28.88-10.096-1.376-39.24-.536-49.296-.352z"/></svg>