<svg viewBox="0 0 512 512" xmlns="http://www.w3.org/2000/svg"><path d="m471.69 401.237h-73.651l7.26-53.873 22.677 3.062 16.583-123.075-13.568-21.616-4.582-72.075s-2.76-20.295-20.029-22.615l-256.948-34.631c-17.269-2.33-25.313 16.507-25.313 16.507l-23.485 68.285-18.822 17.244-16.593 123.075 19.435 2.621-7.383 54.805 46.423 6.251 7.388-54.794 227.789 30.705-7.383 54.794 39.552 5.33h-109.988v-35.953h-281.052v59.914h512zm-230.466-224.384c-3.016-6.262-7.798-12.882-15.202-16.333-8.064-3.768-11.571-10.322-13.045-16.041 3.107-3.553 5.36-8.438 6.113-14.029 1.649-12.221-4.506-23.142-13.747-24.386-9.247-1.25-18.074 7.654-19.717 19.875-1.024 7.568.947 14.623 4.782 19.206l-1.434 4.879s-6.907-1.413-16.072-.056c.18-3.492-.343-7.148-3.727-5.038 0 0-2.949-2.151-3.589.593 0 0-3.052-2.442-3.589.594 0 0-3.482-1.28-3.871 1.644 0 0-5.995 5.156-7.132 11.238-1.889 1.434-3.733 3.077-5.509 4.951l-17.434-2.35 9.457-70.174 270.976 36.526-9.452 70.174z"/></svg>