<svg viewBox="0 0 512 512" xmlns="http://www.w3.org/2000/svg"><path d="m185.168 208.785c-6.242-19.283-30.771-38.28-21.809-72.432 5.995-22.855 12.814-38.021 12.845-38.129 2.926-7.605 1.041-16.334-4.706-21.839-5.74-5.524-14.114-6.647-20.983-2.834-2.823 1.571-63.081 39.244-53.916 101.888 3.064 20.875 14.291 28.448 25.322 50.777 9.54 19.32-7.917 56.339-18.782 81.166-3.198 7.288-1.846 15.934 3.406 21.751 3.559 3.925 8.404 6.032 13.352 6.032 2.36 0 4.739-.476 7.009-1.465 29.939-13.029 80.652-55.883 58.262-124.915zm100.843-14.037c-6.243-21.428-30.772-42.537-21.809-80.481 5.994-25.393 12.813-42.245 12.845-42.367 2.918-8.455 1.04-18.147-4.701-24.268-5.74-6.133-14.113-7.39-20.988-3.152-2.823 1.745-63.082 43.601-53.917 113.218 3.058 23.19 14.285 31.606 25.316 56.415 9.545 21.465-7.911 62.606-18.782 90.186-3.203 8.106-1.852 17.703 3.4 24.161 3.558 4.377 8.41 6.717 13.351 6.717 2.36 0 4.739-.532 7.01-1.63 29.947-14.488 80.652-62.112 58.275-138.799zm102.758 14.037c-6.255-19.283-30.784-38.28-21.808-72.432 5.994-22.855 12.812-38.021 12.838-38.129 2.93-7.605 1.053-16.334-4.694-21.839-5.734-5.524-14.12-6.647-20.989-2.834-2.83 1.571-63.082 39.244-53.922 101.888 3.063 20.875 14.295 28.448 25.327 50.777 9.539 19.32-7.917 56.339-18.788 81.166-3.203 7.288-1.852 15.934 3.405 21.751 3.553 3.925 8.399 6.032 13.346 6.032 2.36 0 4.739-.476 7.004-1.465 29.945-13.029 80.652-55.883 58.281-124.915z"/><path d="m505.804 314.569c-22.48-87.554-82.594-97.918-85.872-98.319-7.359-.894-14.405 2.944-17.66 9.554-3.267 6.615-1.985 14.563 3.166 19.834.316.317 42.594 38.686 36.706 76.764-7.687 49.711-110.965 71.721-186.556 71.721-75.59 0-178.881-22.01-186.562-71.715-5.918-38.281 36.441-76.492 36.707-76.77 5.164-5.271 6.432-13.219 3.171-19.834-3.261-6.61-10.314-10.422-17.665-9.554-3.286.401-63.4 10.759-85.867 98.319-9.019 35.14-3.495 65.987 16.449 91.696 56.612 72.975 198.627 70.883 230 70.883 1.94 0 3.202-.018 3.761-.026.545.008 1.814.026 3.756.026h.005c31.392 0 173.383 2.087 230.001-70.883 19.943-25.69 25.474-56.549 16.46-91.696z"/></svg>