<svg viewBox="0 0 512 512" xmlns="http://www.w3.org/2000/svg"><path d="M 185.168 208.785 C 178.926 189.502 154.397 170.505 163.359 136.353 C 169.354 113.498 176.173 98.332 176.204 98.224 C 179.13 90.619 177.245 81.89 171.498 76.385 C 165.758 70.861 157.384 69.738 150.515 73.551 C 147.692 75.122 87.434 112.795 96.599 175.439 C 99.663 196.314 110.89 203.887 121.921 226.216 C 131.461 245.536 114.004 282.555 103.139 307.382 C 99.941 314.67 101.293 323.316 106.545 329.133 C 110.104 333.058 114.949 335.165 119.897 335.165 C 122.257 335.165 124.636 334.689 126.906 333.7 C 156.845 320.671 207.558 277.817 185.168 208.785 Z M 286.011 194.748 C 279.768 173.32 255.239 152.211 264.202 114.267 C 270.196 88.874 277.015 72.022 277.047 71.9 C 279.965 63.445 278.087 53.753 272.346 47.632 C 266.606 41.499 258.233 40.242 251.358 44.48 C 248.535 46.225 188.276 88.081 197.441 157.698 C 200.499 180.888 211.726 189.304 222.757 214.113 C 232.302 235.578 214.846 276.719 203.975 304.299 C 200.772 312.405 202.123 322.002 207.375 328.46 C 210.933 332.837 215.785 335.177 220.726 335.177 C 223.086 335.177 225.465 334.645 227.736 333.547 C 257.683 319.059 308.388 271.435 286.011 194.748 Z M 388.769 208.785 C 382.514 189.502 357.985 170.505 366.961 136.353 C 372.955 113.498 379.773 98.332 379.799 98.224 C 382.729 90.619 380.852 81.89 375.105 76.385 C 369.371 70.861 360.985 69.738 354.116 73.551 C 351.286 75.122 291.034 112.795 300.194 175.439 C 303.257 196.314 314.489 203.887 325.521 226.216 C 335.06 245.536 317.604 282.555 306.733 307.382 C 303.53 314.67 304.881 323.316 310.138 329.133 C 313.691 333.058 318.537 335.165 323.484 335.165 C 325.844 335.165 328.223 334.689 330.488 333.7 C 360.433 320.671 411.14 277.817 388.769 208.785 Z"/><path d="M 505.804 314.569 C 483.324 227.015 423.21 216.651 419.932 216.25 C 412.573 215.356 405.527 219.194 402.272 225.804 C 399.005 232.419 400.287 240.367 405.438 245.638 C 405.754 245.955 448.032 284.324 442.144 322.402 C 434.457 372.113 331.179 394.123 255.588 394.123 L 255.588 394.123 L 255.588 394.123 C 179.998 394.123 76.707 372.113 69.026 322.408 C 63.108 284.127 105.467 245.916 105.733 245.638 C 110.897 240.367 112.165 232.419 108.904 225.804 C 105.643 219.194 98.59 215.382 91.239 216.25 C 87.953 216.651 27.839 227.009 5.372 314.569 C -3.647 349.709 1.877 380.556 21.821 406.265 C 78.433 479.24 220.448 477.148 251.821 477.148 C 253.761 477.148 255.023 477.13 255.582 477.122 C 256.127 477.13 257.396 477.148 259.338 477.148 C 259.343 477.148 259.343 477.148 259.343 477.148 C 290.735 477.148 432.726 479.235 489.344 406.265 C 509.287 380.575 514.818 349.716 505.804 314.569 Z"/></svg>