<svg xmlns:dc="http://purl.org/dc/elements/1.1/" xmlns:cc="http://creativecommons.org/ns#" xmlns:rdf="http://www.w3.org/1999/02/22-rdf-syntax-ns#" xmlns:svg="http://www.w3.org/2000/svg" xmlns="http://www.w3.org/2000/svg" xmlns:xlink="http://www.w3.org/1999/xlink" xmlns:sodipodi="http://sodipodi.sourceforge.net/DTD/sodipodi-0.dtd" xmlns:inkscape="http://www.inkscape.org/namespaces/inkscape" width="64px" height="64px" id="svg2" version="1.1" inkscape:version="0.48.2 r9819" sodipodi:docname="stop.svg" data-tags="stop" viewBox="0 0 64 64" style="margin-left: 8px; margin-top: 8px;">







  <path d="M 18.268,0.00  m0.00,0.00,-0.532,0.668 -17.068,17.068 L 0.00,18.268 l 0.00,0.932 0.00,25.60 0.00,0.932 0.668,0.532 17.068,17.068 0.532,0.668 0.932,0.00 25.60,0.00 0.932,0.00 0.532-0.668 17.068-17.068 0.668-0.532 0.00-0.932 0.00-25.60 0.00-0.932 -0.668-0.532 -17.068-17.068 -0.532-0.668 -0.932,0.00 -25.60,0.00 -0.932,0.00 z M 20.00,4.268 l 24.00,0.00 15.732,15.732 0.00,24.00 -15.732,15.732 -24.00,0.00 -15.732-15.732 0.00-24.00 L 20.00,4.268 zM 12.348,23.104  m0.00,0.00,c -1.608,0.00 -2.948,0.36 -4.00,1.328 -1.044,0.968 -1.648,2.528 -1.648,4.12 0.00,1.368 0.48,2.58 1.292,3.456 0.812,0.872 1.964,1.40 3.412,1.728 l 1.06,0.264 c 0.816,0.184 1.348,0.476 1.528,0.664 0.188,0.192 0.236,0.292 0.236,0.796 C 14.232,36.024 14.08,36.26 13.76,36.52 13.436,36.784 12.892,37.052 11.996,37.052 11.42,37.052 10.848,36.86 10.232,36.656 9.612,36.448 8.908,36.152 8.232,35.724 l -1.412-0.928 0.00,1.992 0.00,1.992 0.00,0.796 0.588,0.264 c 0.804,0.332 1.588,0.624 2.352,0.796 0.768,0.172 1.532,0.264 2.236,0.264 1.80,0.00 3.36-0.364 4.468-1.328 C 17.58,38.612 18.112,37.032 18.112,35.324 18.112,33.884 17.656,32.552 16.82,31.604 15.984,30.644 14.872,30.06 13.408,29.744 L 12.232,29.612 C 11.32,29.42 10.788,29.032 10.704,28.948 10.592,28.84 10.584,28.724 10.584,28.284 c 0.00-0.508 0.06-0.692 0.352-0.928 0.30-0.24 0.796-0.40 1.648-0.40 0.468,0.00 0.996,0.108 1.528,0.264 0.532,0.16 1.128,0.452 1.764,0.796 l 1.412,0.664 0.00-1.728 0.00-1.992 L 17.236,24.284 16.584,23.90 C 15.864,23.628 15.168,23.372 14.468,23.236 13.764,23.096 13.032,23.104 12.348,23.104 z m 25.64,0.00 c -2.092,0.00 -3.988,0.876 -5.292,2.524 -1.30,1.644 -1.88,3.804 -1.88,6.376 0.00,2.572 0.58,4.736 1.88,6.376 1.308,1.64 3.20,2.524 5.292,2.524 2.088,0.00 3.876-0.884 5.176-2.524 1.30-1.648 1.88-3.808 1.88-6.376 0.00-2.572 -0.58-4.736 -1.88-6.376 C 41.864,23.98 40.076,23.104 37.988,23.104 z m -19.172,0.264 -0.92,0.072 -0.02,0.988 0.00,1.728 0.00,1.196 0.94,0.00 3.764,0.00 0.00,12.088 0.00,1.196 0.94,0.00 1.764,0.00 1.06,0.00 0.00-1.196 0.00-12.088 3.764,0.00 0.94,0.00 0.00-1.196 0.00-1.728 0.00-1.064 -0.94,0.00 z m 28.816,0.00 -0.92,0.072 -0.02,0.988 0.00,15.012 0.00,1.196 0.94,0.00 1.88,0.00 0.94,0.00 0.00-1.196 0.00-4.916 1.292,0.00 c 1.64,0.00 2.996-0.328 4.00-1.328 1.008-0.996 1.528-2.552 1.528-4.252 0.00-1.688 -0.524-3.124 -1.528-4.12 C 54.744,23.824 53.388,23.368 51.748,23.368 z M 37.988,26.956 c 1.06,0.00 1.644,0.344 2.236,1.196 0.592,0.852 0.94,2.124 0.94,3.852 0.00,1.72 -0.348,3.00 -0.94,3.852 C 39.632,36.712 39.048,37.052 37.988,37.052 36.928,37.052 36.24,36.716 35.636,35.856 35.04,35.004 34.696,33.724 34.696,32.004 34.696,30.276 35.044,29.004 35.636,28.152 36.24,27.292 36.928,26.956 37.988,26.956 z m 12.468,0.264 1.292,0.00 c 0.664,0.00 1.056,0.276 1.292,0.532 0.236,0.252 0.352,0.512 0.352,1.196 0.00,0.692 -0.12,1.076 -0.352,1.328 -0.236,0.252 -0.628,0.40 -1.292,0.40 l -1.292,0.00 z"></path></svg>