<svg viewBox="0 0 512 512" xmlns="http://www.w3.org/2000/svg"><path d="m437.735 436.16c-45.571 45.771-110.673 74.929-180.358 75.8h-2.846c-69.685-.871-134.697-30.033-180.269-75.804-45.384-45.958-73.99-111.259-74.262-180.944.669-69.684 29.649-134.767 75.289-180.458 45.82-45.501 111.001-74.754 180.711-74.754 69.711 0 134.897 29.259 180.717 74.76 45.641 45.691 74.614 110.822 75.283 180.504-.271 69.684-28.883 134.941-74.265 180.896z" transform="matrix(-1 0 0 -1 512 511.959991)"/><path d="m208.987 375.969c.259-12.46 5.585-24.877 13.698-33.039 8.155-8.109 20.582-13.697 33.059-13.697 12.476 0 24.903 5.588 33.059 13.697 8.112 8.162 13.44 20.597 13.698 33.057v41.227h-93.514v-1zm171.913-205.969v118h-53.4v-118zm-280.9 38h30l.532-49.379h53.448v136.333h-53.448l-.532-48.954h-30z" fill="#fff"/></svg>