<svg viewBox="0 0 512 512" xmlns="http://www.w3.org/2000/svg"><path d="m74.265 75.8c45.571-45.771 110.673-74.929 180.358-75.8h2.846c69.685.871 134.697 30.033 180.269 75.804 45.384 45.958 73.99 111.259 74.262 180.944-.669 69.684-29.649 134.767-75.289 180.458-45.82 45.501-111.001 74.754-180.711 74.754-69.711 0-134.897-29.259-180.717-74.76-45.641-45.691-74.614-110.822-75.283-180.504.271-69.684 28.883-134.941 74.265-180.896zm134.722 341.414h93.514v-41.227c-.258-12.46-5.586-24.895-13.698-33.057-8.156-8.109-20.583-13.697-33.059-13.697-12.477 0-24.904 5.588-33.059 13.697-8.113 8.162-13.439 20.579-13.698 33.039zm118.513-247.214v118h53.4v-118zm-227.5 76h30l.532 48.954h53.448v-136.333h-53.448l-.532 49.379h-30z"/></svg>