<svg viewBox="0 0 512 512" xmlns="http://www.w3.org/2000/svg"><path d="m437.735 436.16c-45.571 45.771-110.673 74.929-180.358 75.8h-2.846c-69.685-.871-134.697-30.033-180.269-75.804-45.384-45.958-73.99-111.259-74.262-180.944.669-69.684 29.649-134.767 75.289-180.458 45.82-45.501 111.001-74.754 180.711-74.754 69.711 0 134.897 29.259 180.717 74.76 45.641 45.691 74.614 110.822 75.283 180.504-.271 69.684-28.883 134.941-74.265 180.896z" transform="matrix(-1 0 0 -1 512 511.959991)"/><path d="m310.789 122.688c-.259 12.46-5.585 24.877-13.698 33.039-8.155 8.109-20.582 13.697-33.059 13.697-12.476 0-24.903-5.588-33.059-13.697-8.112-8.162-13.44-20.597-13.698-33.057v-41.227h93.514v1zm-77.625 308.526v-133.57h53.448v133.57zm132.632-91.178v-136.333h53.448v136.333zm-265.264 0v-136.333h53.447v136.333z" fill="#fffefe" transform="matrix(-1 0 0 -1 519.77597 512.656998)"/></svg>