<svg viewBox="0 0 512 512" xmlns="http://www.w3.org/2000/svg"><path d="m512 255.999c0 141.162-114.84 256.001-256.001 256.001-141.16 0-255.999-114.84-255.999-256.001 0-141.16 114.839-255.999 255.999-255.999 141.162 0 256.001 114.838 256.001 255.999zm-58.612 0c0-108.841-88.547-197.387-197.389-197.387-108.841 0-197.387 88.546-197.387 197.387h136.191c-4.235 28.139 12.903 55.856 40.962 64.036 5.271 1.541 10.719 2.321 16.187 2.321h.003c25.507 0 48.312-17.114 55.451-41.621 2.373-8.138 2.888-16.566 1.662-24.736zm-198.098-29.648 126.038-116.904-91.088 147.563c1.492 10.077-1.279 20.708-8.519 28.965-13.092 14.919-35.792 16.402-50.716 3.32-14.917-13.09-16.401-35.792-3.318-50.716 7.24-8.249 17.419-12.384 27.603-12.228z"/></svg>