<svg viewBox="0 0 512 512" xmlns="http://www.w3.org/2000/svg"><path d="m337.27 313.498h42.142v-29.947l-1.817-7.322-3.052-6.728-4.894-6.103-4.89-4.894-6.103-4.276h-.625l-5.478 4.276-4.91 4.894-4.874 6.103-3.052 6.728-1.838 7.322-.604 7.337v22.61m174.725 179.599h-512v-25.651l42.757-34.207v-299.356h42.163v-118.523h59.874v67.809h51.338v-67.809h59.858v178.995h42.772v-76.974h59.264v76.974h51.338v-76.974h59.874v315.858l42.762 34.207zm-427.689-251.694-1.838 1.828-2.432 1.223-3.052 1.234-3.072-1.234-2.447-1.223-1.818-1.828-1.233-3.052v-4.28l1.233-3.057 2.448-1.223 3.051-1.214h3.052l2.447 1.214 2.448 1.848 1.213 1.203h30.561v-31.15l-1.838-1.828-1.213-3.051-.625-2.453.625-3.051 1.213-2.437 1.838-1.828 3.052-1.848h1.229l3.64 1.223 2.463 1.229 1.817 1.828.61 3.676v2.427l-.61 2.452-2.447 2.427-1.234 1.234v31.15h31.171l1.838-2.437 3.051-1.828h5.499l2.447 1.828 3.677 4.89v1.822l-.625 3.062-1.838 2.448-2.448 1.827-3.051 1.234h-2.427l-3.051-1.234-1.839-2.447-1.228-.609h-31.171v30.551l2.463 2.432 1.823 1.848v6.712l-1.823 1.828-2.463 1.828-2.427 1.234h-4.894l-1.839-1.838-2.426-1.818-.625-3.067v-3.041l.625-2.452 2.426-2.432.625-1.224v-30.551h-30.551zm.609 183.265h68.444v-43.361l-.609-9.17-2.447-9.764-3.052-9.165-4.285-8.56-6.124-7.936-6.712-6.713-7.337-6.113-3.64-1.848h.589l-7.926 5.509-7.337 6.712-6.728 7.936-4.889 7.962-3.661 8.545-2.448 9.79-1.228 9.763-.61 3.057z"/></svg>