<svg viewBox="0 0 512 512" xmlns="http://www.w3.org/2000/svg"><path d="m370.601 326.471c28.236-48.608 21.586-112.063-20.012-153.649-41.575-41.587-105.041-48.243-153.643-20.006l-139.335-139.346-45.998 46.015 139.324 139.324c-28.231 48.612-21.581 112.078 20.006 153.654 41.597 41.603 105.052 48.242 153.66 20.006l139.901 139.912 45.998-46.014zm-52.861-6.852c-31.418 31.422-82.514 31.422-113.937 0-31.417-31.417-31.406-82.525.006-113.942 31.411-31.417 82.519-31.417 113.931 0 31.417 31.406 31.417 82.525 0 113.942z"/></svg>