<svg viewBox="0 0 512 512" xmlns="http://www.w3.org/2000/svg"><path d="m486.261.006h-457.979c-15.599 0-28.282 12.683-28.282 28.276v457.996c0 15.599 12.683 28.271 28.282 28.271h457.99c15.599 0 28.282-12.672 28.282-28.271v-457.996c-.005-15.593-12.683-28.276-28.293-28.276zm-21.988 26.701 23.574 23.586v42.691l-66.271-66.277zm-91.576 0 115.15 115.156v61.668l-176.813-176.824zm-346.001 1.575c-.005-.868.707-1.575 1.586-1.575h7.747c-4.48 1.381-7.964 4.87-9.333 9.35zm-.005 22.011 23.58-23.586h42.696l-66.276 66.282zm0 91.57 115.161-115.156h61.662l-176.823 176.824zm1.591 345.995c-.879 0-1.591-.707-1.591-1.575v-7.769c1.369 4.48 4.853 7.981 9.333 9.35zm21.994 0-23.58-23.585v-42.697l66.277 66.282zm91.576 0-115.161-115.155v-61.663l176.823 176.818zm169.182 0 176.813-176.818v61.663l-115.15 115.155zm176.819-1.592c.011.88-.707 1.587-1.587 1.587h-7.757c4.485-1.381 7.974-4.881 9.344-9.361zm.011-22.01-23.586 23.585h-42.696l66.282-66.27zm0-202.919-226.516 226.521h-8.164l-226.493-226.504v-8.164l226.487-226.483h8.181l226.499 226.499zm0-225.274c-1.369-4.48-4.87-7.975-9.344-9.356h7.758c.868 0 1.586.707 1.586 1.575zm-393.311 221.211 162.716 162.705 162.71-162.705-162.71-162.715zm267.926 0-105.205 105.211-105.204-105.211 105.204-105.199zm-154.162 0 48.957-48.951 48.952 48.951-48.957 48.958z"/></svg>