<svg xmlns="http://www.w3.org/2000/svg" width="512" height="512" viewBox="0 0 512 512"><path d="M492.134 463.98c-10.24 0-20.224-2.56-29.08-6.144-9.012-4.608-19.252-6.656-29.953-6.656-10.598 0-20.838 2.048-29.85 6.656-8.96 3.584-18.84 6.144-29.183 6.144-10.24 0-20.224-2.56-29.03-6.144-9.063-4.608-19.303-6.656-30.003-6.656-10.548 0-20.788 2.048-29.85 6.656-8.96 3.584-18.842 6.144-29.184 6.144-10.342 0-20.224-2.56-29.03-6.144-9.063-4.608-19.303-6.656-29.952-6.656-10.7 0-20.94 2.048-29.952 6.656-8.858 3.584-18.79 6.144-29.133 6.144-10.29 0-20.224-2.56-29.082-6.144-9.112-4.608-19.352-6.656-29.95-6.656-10.65 0-20.89 2.048-29.943 6.656-8.878 3.584-18.74 6.144-29.086 6.144v-43.52c10.348 0 20.21-2.56 29.087-6.656 9.053-4.096 19.293-6.144 29.942-6.144 10.598 0 20.838 2.048 29.95 6.144 8.86 4.096 18.792 6.656 29.083 6.656 10.342 0 20.275-2.56 29.133-6.656 9.01-4.096 19.25-6.144 29.952-6.144 10.65 0 20.838 2.048 29.952 6.144 8.806 4.096 18.688 6.656 29.03 6.656 10.342 0 20.224-2.56 29.184-6.656 9.062-4.096 19.302-6.144 29.85-6.144 10.7 0 20.94 2.048 30.003 6.144 8.806 4.096 18.79 6.656 29.03 6.656 10.343 0 20.224-2.56 29.184-6.656 9.012-4.096 19.252-6.144 29.85-6.144 10.702 0 20.942 2.048 29.953 6.144 8.857 4.096 18.84 6.656 29.08 6.656v43.52zM270.438 195.487H307.2V115.82l-18.38 17.664-18.382-17.664v79.667zM158.77 275.87l-15.666 6.555 4.454 10.854c-20.94 10.65-37.068 27.34-47.104 47.103L89.6 335.93l-6.605 15.666 10.855 4.608c-3.02 9.37-4.916 19.046-5.325 28.98 5.734.614 11.52 1.74 17.05 3.378.102-8.806 1.535-17.612 4.095-25.958l61.696 25.6c8.346-2.355 16.948-3.533 25.6-3.533 8.55 0 17.05 1.28 25.242 3.534l61.338-25.6c2.662 8.653 4.044 17.46 4.096 26.163 5.53-1.69 11.315-2.918 17.05-3.584-.36-9.728-2.202-19.353-5.326-28.98l10.855-4.607-6.4-15.667-10.854 4.453c-10.65-20.94-27.545-37.017-47.257-47.104l4.607-10.855-15.82-6.554-4.455 10.804c-21.095-6.81-44.493-7.27-66.868 0l-4.403-10.803zm38.196 22.58c9.063.052 18.023 1.434 26.522 4.096l-26.88 64.717-26.83-64.717c8.96-2.816 18.177-4.147 27.188-4.096zm-42.854 10.65l26.675 64.512-64.512-26.675c8.295-15.72 21.197-29.03 37.837-37.837zm84.992 0c15.718 8.294 29.286 21.248 38.042 37.888l-64.717 26.624 26.674-64.512zM460.85 388.818L512 320.62H322.048l17.97 43.366-14.028 5.786c.82 5.222 1.28 10.496 1.434 15.718 9.318 1.23 18.432 3.892 27.034 7.834 6.092 2.56 12.953 4.096 19.61 4.096 6.91 0 13.567-1.536 19.762-4.096 12.34-5.683 25.754-8.653 39.27-8.653 9.422 0 18.74 1.435 27.75 4.148zM71.22 320.62H0l51.185 68.25c4.777-1.485 9.692-2.56 14.658-3.277.154-5.274.615-10.6 1.434-15.82l-14.03-5.838L71.22 320.62zM398.234 297.887H290.048c-4.915-5.017-10.19-9.625-15.872-13.824l5.786-13.977-52.43-21.71V218.22h170.702v79.667z"/></svg>