<?xml version="1.0" encoding="UTF-8" standalone="no"?>
<!-- Created with Inkscape (http://www.inkscape.org/) -->

<svg
   xmlns:dc="http://purl.org/dc/elements/1.1/"
   xmlns:cc="http://creativecommons.org/ns#"
   xmlns:rdf="http://www.w3.org/1999/02/22-rdf-syntax-ns#"
   xmlns:svg="http://www.w3.org/2000/svg"
   xmlns="http://www.w3.org/2000/svg"
   version="1.1"
   width="100"
   height="100"
   viewBox="0 14 100 100"
   id="svg2876"
   xml:space="preserve"><metadata
     id="metadata4176"><rdf:RDF><cc:Work
         rdf:about=""><dc:format>image/svg+xml</dc:format><dc:type
           rdf:resource="http://purl.org/dc/dcmitype/StillImage" /><dc:title></dc:title></cc:Work></rdf:RDF></metadata><defs
     id="defs4164" /><g
     transform="translate(0,-10)"
     id="g4178"><path
       d="M 96.12,114 C 94.12,114 92.17,113.5 90.44,112.8 88.68,111.9 86.68,111.5 84.59,111.5 82.52,111.5 80.52,111.9 78.76,112.8 77.01,113.5 75.08,114 73.06,114 71.06,114 69.11,113.5 67.39,112.8 65.62,111.9 63.62,111.5 61.53,111.5 59.47,111.5 57.47,111.9 55.7,112.8 53.95,113.5 52.02,114 50,114 47.98,114 46.05,113.5 44.33,112.8 42.56,111.9 40.56,111.5 38.48,111.5 36.39,111.5 34.39,111.9 32.63,112.8 30.9,113.5 28.96,114 26.94,114 24.93,114 22.99,113.5 21.26,112.8 19.48,111.9 17.48,111.5 15.41,111.5 13.33,111.5 11.33,111.9 9.562,112.8 7.828,113.5 5.902,114 3.881,114 V 105.5 C 5.902,105.5 7.828,105 9.562,104.2 11.33,103.4 13.33,103 15.41,103 17.48,103 19.48,103.4 21.26,104.2 22.99,105 24.93,105.5 26.94,105.5 28.96,105.5 30.9,105 32.63,104.2 34.39,103.4 36.39,103 38.48,103 40.56,103 42.55,103.4 44.33,104.2 46.05,105 47.98,105.5 50,105.5 52.02,105.5 53.95,105 55.7,104.2 57.47,103.4 59.47,103 61.53,103 63.62,103 65.62,103.4 67.39,104.2 69.11,105 71.06,105.5 73.06,105.5 75.08,105.5 77.01,105 78.76,104.2 80.52,103.4 82.52,103 84.59,103 86.68,103 88.68,103.4 90.44,104.2 92.17,105 94.12,105.5 96.12,105.5 V 114 z"
       id="path3174" /><path
       d="M 52.82,61.56 H 60 V 46 L 56.41,49.45 52.82,46 V 61.56 L 52.82,61.56 z"
       id="path3172" /><path
       d="M 31.01,77.26 27.95,78.54 28.82,80.66 C 24.73,82.74 21.58,86 19.62,89.86 L 17.5,88.99 16.21,92.05 18.33,92.95 C 17.74,94.78 17.37,96.67 17.29,98.61 18.41,98.73 19.54,98.95 20.62,99.27 20.64,97.55 20.92,95.83 21.42,94.2 L 33.47,99.2 C 35.1,98.74 36.78,98.51 38.47,98.51 40.14,98.51 41.8,98.76 43.4,99.2 L 55.38,94.2 C 55.9,95.89 56.17,97.61 56.18,99.31 57.26,98.98 58.39,98.74 59.51,98.61 59.44,96.71 59.08,94.83 58.47,92.95 L 60.59,92.05 59.34,88.99 57.22,89.86 C 55.14,85.77 51.84,82.63 47.99,80.66 L 48.89,78.54 45.8,77.26 44.93,79.37 C 40.81,78.04 36.24,77.95 31.87,79.37 L 31.01,77.26 z M 38.47,81.67 C 40.24,81.68 41.99,81.95 43.65,82.47 L 38.4,95.11 33.16,82.47 C 34.91,81.92 36.71,81.66 38.47,81.67 L 38.47,81.67 z M 30.1,83.75 35.31,96.35 22.71,91.14 C 24.33,88.07 26.85,85.47 30.1,83.75 z M 46.7,83.75 C 49.77,85.37 52.42,87.9 54.13,91.15 L 41.49,96.35 46.7,83.75 z"
       id="path3170" /><path
       d="M 90.01,99.32 100,86 H 62.9 L 66.41,94.47 63.67,95.6 C 63.83,96.62 63.92,97.65 63.95,98.67 65.77,98.91 67.55,99.43 69.23,100.2 70.42,100.7 71.76,101 73.06,101 74.41,101 75.71,100.7 76.92,100.2 79.33,99.09 81.95,98.51 84.59,98.51 86.43,98.51 88.25,98.79 90.01,99.32 L 90.01,99.32 z"
       id="path3162" /><path
       d="M 13.91,86 H 0 L 9.997,99.33 C 10.93,99.04 11.89,98.83 12.86,98.69 12.89,97.66 12.98,96.62 13.14,95.6 L 10.4,94.46 13.91,86 13.91,86 z"
       id="path3160" /><path
       d="M 77.78,81.56 H 56.65 C 55.69,80.58 54.66,79.68 53.55,78.86 L 54.68,76.13 44.44,71.89 V 66 H 77.78 V 81.56 L 77.78,81.56 z"
       id="path3139" /></g></svg>