<svg height="512pt" viewBox="0 0 512 512" width="512pt" xmlns="http://www.w3.org/2000/svg"><path d="m244.047 481.519-.194 27.078c-42.769 0-76.57-12.784-116-36.577-38.718-22.375-69.058-53.222-91.077-92.158l-.261-.475-.199-.252-.088-.112-.101-.125-.265-.32-.079-.064-.046-.036c.036-.446.122-1.181.214-2.262l.062-80.467h-35.266l-.747-83.516 36.117.046-.182-81.665-.029-.2-.016-.132-.009-.053-.021-.149-.079-.474-.049-.124c.254-.373.71-.988 1.368-1.945 22.01-38.932 52.203-69.346 90.934-91.737 39.422-23.785 73.05-31.373 115.819-32.3v26.606l25.041-.104v-26.502c33.388.538 80.211 11.893 116 32.416 48.072 27.564 69.072 53.241 91.101 92.197l.248.433.134.173.142.183.297.372.074.064.085.073.038.033c-.032.413-.119 1.131-.216 2.273l.042 80.562h35.161v83.47h-35.161l-.026 81.57.027.207.013.093.031.21.081.497.052.127c-.254.373-.71.988-1.37 1.945-22.01 38.932-52.201 69.347-90.934 91.737-39.421 23.785-82.431 36.462-115.819 36.462v-27.127h-25.041zm81.901-201.486c6.136 6.172 14.673 9.967 24.052 9.967 9.381 0 17.903-3.778 24.033-9.947 6.173-6.138 9.967-14.674 9.967-24.053 0-9.395-3.699-18.001-9.937-24.023-6.025-6.238-14.669-9.977-24.063-9.977-9.385 0-17.893 3.809-24.044 9.955-6.148 6.151-9.956 14.66-9.956 24.045 0 9.381 3.78 17.9 9.948 24.033zm-187.999 0c6.134 6.17 14.672 9.965 24.051 9.965 9.381 0 17.901-3.774 24.035-9.947 6.169-6.135 9.965-14.673 9.965-24.052 0-9.385-3.809-17.894-9.958-24.043-6.148-6.147-14.656-9.956-24.042-9.956-9.395 0-17.999 3.7-24.023 9.937-6.236 6.025-9.977 14.668-9.977 24.062 0 9.381 3.778 17.9 9.949 24.034z"/></svg>