<svg height="512pt" viewBox="0 0 512 512" width="512pt" xmlns="http://www.w3.org/2000/svg"><path d="m244.047 481.519-.194 27.078c-42.769 0-76.57-12.784-116-36.577-38.718-22.375-69.058-53.222-91.077-92.158l-.261-.475-.199-.252-.088-.112-.101-.125-.265-.32-.079-.064-.046-.036c.036-.446.122-1.181.214-2.262l.062-80.467h-35.266l-.747-83.516 36.117.046-.182-81.665-.029-.2-.016-.132-.009-.053-.021-.149-.079-.474-.049-.124c.254-.373.71-.988 1.368-1.945 22.01-38.932 52.203-69.346 90.934-91.737 39.422-23.785 73.05-31.373 115.819-32.3v26.606l25.041-.104v-26.502c33.388.538 80.211 11.893 116 32.416 48.072 27.564 69.072 53.241 91.101 92.197l.248.433.134.173.142.183.297.372.074.064.085.073.038.033c-.032.413-.119 1.131-.216 2.273l.042 80.562h35.161v83.47h-35.161l-.026 81.57.027.207.013.093.031.21.081.497.052.127c-.254.373-.71.988-1.37 1.945-22.01 38.932-52.201 69.347-90.934 91.737-39.421 23.785-82.431 36.462-115.819 36.462v-27.127h-25.041z"/><path d="m316 256c0-9.385 3.808-17.894 9.956-24.045 6.151-6.146 14.659-9.955 24.044-9.955 9.394 0 18.038 3.739 24.063 9.977 6.238 6.022 9.937 14.628 9.937 24.023 0 9.379-3.794 17.915-9.967 24.053-6.13 6.169-14.652 9.947-24.033 9.947-9.379 0-17.916-3.795-24.052-9.967-6.168-6.133-9.948-14.652-9.948-24.033zm-188-.001c0-9.394 3.741-18.037 9.977-24.062 6.024-6.237 14.628-9.937 24.023-9.937 9.386 0 17.894 3.809 24.042 9.956 6.149 6.149 9.958 14.658 9.958 24.043 0 9.379-3.796 17.917-9.965 24.052-6.134 6.173-14.654 9.947-24.035 9.947-9.379 0-17.917-3.795-24.051-9.965-6.171-6.134-9.949-14.653-9.949-24.034z" fill="#fafafa"/></svg>