<svg viewBox="0 0 512 512" xmlns="http://www.w3.org/2000/svg"><path d="m263.112 146.355v-5.709l57.477-17.515-57.477-12.042v-.994c0-2.621-2.12-4.741-4.741-4.741s-4.742 2.12-4.742 4.741v36.24c.794 0 1.577-.016 2.371-.016 2.386-.01 4.741.016 7.112.036zm-180.409 10.368 56.264-21.089-58.122-8.412-.062-.994c-.163-2.616-2.411-4.597-5.027-4.433s-4.598 2.411-4.434 5.027l2.77 44.099c2.995-.901 6.103-1.777 9.333-2.632zm94.582-39.398 56.433-20.639-58.051-8.878-.056-.993c-.143-2.617-2.376-4.619-4.992-4.475-2.616.143-4.618 2.376-4.475 4.992l3.656 66.683c3.118-.297 6.267-.574 9.451-.84zm-1.567 152.975c-21.463-7.286-34.554-16.788-34.554-27.218 0-22.907 62.735-41.477 140.119-41.477 77.383 0 140.119 18.57 140.119 41.477 0 6.062-4.496 11.802-12.391 16.994 47.457-9.846 77.389-24.192 77.389-40.157 0-29.219-99.359-52.946-223.288-53.826-2.366-.016-4.726-.041-7.112-.041-.794 0-1.577.01-2.371.015-26.06.062-51.072 1.132-74.378 3.057-3.184.261-6.328.543-9.451.84-33.388 3.148-62.884 8.074-86.37 14.274-3.23.855-6.338 1.731-9.333 2.632-30.362 9.118-48.497 20.582-48.497 33.049 0 23.076 62.469 42.773 150.118 50.381z"/><path d="m28.549 261.612 32.65 149.319c7.348 1.603 14.951 3.118 22.805 4.542 1.085-36.26 2.964-74.307 5.304-74.553 0-4.347 3.523-7.869 7.87-7.869 4.321-.461 8.576 6.175 9.497 14.817 1.562 0 6.385 31.964 11.914 73.068 19.165 2.58 39.419 4.628 60.498 6.098 1.306-37.55 3.308-72.725 5.735-72.986 0-5.074 4.111-9.185 9.185-9.185 5.043-.538 10.005 7.204 11.085 17.29 1.582 0 6.026 28.068 11.387 66.811 12.958.45 26.132.712 39.526.712s26.568-.262 39.527-.712c5.36-38.743 9.804-66.811 11.386-66.811 1.076-10.086 6.037-17.828 11.085-17.29 5.074 0 9.185 4.111 9.185 9.185 2.427.261 4.429 35.436 5.735 72.986 21.079-1.47 41.334-3.518 60.498-6.098 5.529-41.104 10.347-73.068 11.914-73.068.922-8.648 5.176-15.278 9.498-14.817 4.347 0 7.869 3.522 7.869 7.869 2.34.251 4.214 38.293 5.304 74.553 7.849-1.424 15.453-2.939 22.805-4.542l32.65-149.319c-28.452 18.595-119.48 39.521-227.461 39.541-107.981-.02-199.009-20.946-227.451-39.541z"/></svg>