<svg xmlns="http://www.w3.org/2000/svg" xmlns:xlink="http://www.w3.org/1999/xlink" version="1.1" id="football" x="0px" y="0px" viewBox="0 0 100 100" enable-background="new 0 0 100 100" xml:space="preserve" height="100px" width="100px">
<path d="M51.389,28.585v-1.115l11.226-3.421l-11.226-2.352v-0.194c0-0.512-0.414-0.926-0.926-0.926s-0.926,0.414-0.926,0.926v7.078  c0.155,0,0.308-0.003,0.463-0.003C50.466,28.576,50.926,28.581,51.389,28.585z"/>
<path d="M16.153,30.61l10.989-4.119l-11.352-1.643l-0.012-0.194c-0.032-0.511-0.471-0.898-0.982-0.866s-0.898,0.471-0.866,0.982  l0.541,8.613c0.585-0.176,1.192-0.347,1.823-0.514L16.153,30.61z"/>
<path d="M34.626,22.915l11.022-4.031L34.31,17.15l-0.011-0.194c-0.028-0.511-0.464-0.902-0.975-0.874  c-0.511,0.028-0.902,0.464-0.874,0.975l0.714,13.024c0.609-0.058,1.224-0.112,1.846-0.164L34.626,22.915z"/>
<path d="M34.32,52.793c-4.192-1.423-6.749-3.279-6.749-5.316c0-4.474,12.253-8.101,27.367-8.101c15.114,0,27.367,3.627,27.367,8.101  c0,1.184-0.878,2.305-2.42,3.319C89.154,48.873,95,46.071,95,42.953c0-5.707-19.406-10.341-43.611-10.513  c-0.462-0.003-0.923-0.008-1.389-0.008c-0.155,0-0.308,0.002-0.463,0.003c-5.09,0.012-9.975,0.221-14.527,0.597  c-0.622,0.051-1.236,0.106-1.846,0.164c-6.521,0.615-12.282,1.577-16.869,2.788c-0.631,0.167-1.238,0.338-1.823,0.514  C8.542,38.279,5,40.518,5,42.953C5,47.46,17.201,51.307,34.32,52.793z"/>
<path d="M5.576,51.096l6.377,29.164c1.435,0.313,2.92,0.609,4.454,0.887c0.212-7.082,0.579-14.513,1.036-14.561  c0-0.849,0.688-1.537,1.537-1.537c0.844-0.09,1.675,1.206,1.855,2.894c0.305,0,1.247,6.243,2.327,14.271  c3.743,0.504,7.699,0.904,11.816,1.191c0.255-7.334,0.646-14.204,1.12-14.255c0-0.991,0.803-1.794,1.794-1.794  c0.985-0.105,1.954,1.407,2.165,3.377c0.309,0,1.177,5.482,2.224,13.049c2.531,0.088,5.104,0.139,7.72,0.139s5.189-0.051,7.72-0.139  c1.047-7.567,1.915-13.049,2.224-13.049c0.21-1.97,1.179-3.482,2.165-3.377c0.991,0,1.794,0.803,1.794,1.794  c0.474,0.051,0.865,6.921,1.12,14.255c4.117-0.287,8.073-0.687,11.816-1.191c1.08-8.028,2.021-14.271,2.327-14.271  c0.18-1.689,1.011-2.984,1.855-2.894c0.849,0,1.537,0.688,1.537,1.537c0.457,0.049,0.823,7.479,1.036,14.561  c1.533-0.278,3.018-0.574,4.454-0.887l6.377-29.164C88.869,54.728,71.09,58.815,50,58.819C28.91,58.815,11.131,54.728,5.576,51.096z  "/>
</svg>