<svg viewBox="0 0 512 512" xmlns="http://www.w3.org/2000/svg"><path d="m164.92 407.181c0 21.348 0 40.106-11.675 58.396s-26.557 31.303-40.213 22.171-26.322-19.464-37.754-30.783c-11.355-11.401-21.687-24.044-30.811-37.678-9.125-13.635-17.041-28.262-23.563-43.635s-11.648-31.492-15.195-48.108c-3.546-16.617-5.512-33.732-5.709-51.097.097-17.368 1.966-34.49 5.419-51.12 3.453-16.631 8.491-32.77 14.928-48.172 6.436-15.402 14.272-30.066 23.321-43.747 9.05-13.68 19.312-26.377 30.603-37.843 11.371-11.387 21.993-21.524 32.77-30.398 10.778-8.873 21.712-16.484 33.708-22.818 11.994-6.334 25.051-11.391 40.076-15.159s32.018-6.245 51.884-7.42v-6.07h52.613v6.07c15.689.742 30.216 3.004 43.893 6.692s26.504 8.802 38.793 15.246c12.288 6.443 24.035 14.217 35.554 23.228 11.52 9.01 22.81 19.256 34.181 30.644 11.291 11.467 21.553 24.169 30.601 37.858 9.048 13.687 16.882 28.361 23.317 43.772 6.435 15.412 11.471 31.561 14.922 48.197 3.452 16.638 5.319 33.765 5.417 51.131-.196 17.367-2.162 34.478-5.71 51.088s-8.677 32.719-15.201 48.082c-6.524 15.364-14.444 29.981-23.57 43.609-9.126 13.627-19.459 26.264-30.814 37.665-11.432 11.318-24.097 21.65-37.752 30.78-13.654 9.13-28.54-3.888-40.277-22.202-11.636-18.313-11.636-37.031-11.636-58.379-.019-50.276-40.78-91.026-91.06-91.026-50.279 0-91.041 40.75-91.06 91.026z"/><path d="m312.9 126.709c0 14.729-7.573 31.854-16.729 41.529-9.437 9.503-26.491 17.509-41.104 17.509-14.62 0-31.691-8.035-41.134-17.539-9.152-9.676-16.697-26.77-16.697-41.499s7.576-31.856 16.725-41.533c9.442-9.5 26.487-17.508 41.106-17.508 14.616 0 31.695 8.039 41.133 17.538 9.156 9.676 16.7 26.774 16.7 41.503zm-85.25 124.847c0 50.292-40.768 91.06-91.06 91.06-50.291 0-91.06-40.768-91.06-91.06 0-50.291 40.769-91.06 91.06-91.06 50.292 0 91.06 40.769 91.06 91.06zm238.78.013c0 50.292-40.768 91.061-91.06 91.061-50.291 0-91.06-40.769-91.06-91.061 0-50.291 40.769-91.06 91.06-91.06 50.292 0 91.06 40.769 91.06 91.06z" fill="#fff"/></svg>