<?xml version="1.0" encoding="utf-8"?>
<svg viewBox="0 0 512 512" xmlns="http://www.w3.org/2000/svg">
  <path d="m396.909 25.1 4.635 3.184s29.827 20.177 43.084 34.798c12.803 14.12 25.164 33.392 33.309 48.007 8.021 14.448 15.171 28.653 21.004 46.323 5.513 16.701 10.912 36.076 12.658 59.496 1.395 22.684-2.399 60.292-12.599 89.692-13 36.3-34.8 72.1-60.6 100.5-19.8 21.1-45.3 38.4-70 51-21.5 10.5-72.4 27.4-112.4 27.4s-90.9-16.875-112.407-27.378c-24.722-12.645-50.241-29.962-69.945-51.036-25.868-28.435-47.644-64.167-60.675-100.462-10.142-29.472-13.83-62.795-12.809-93.109 1.048-23.802 6.788-48.755 14.897-70.54 7.544-19.386 19.673-38.092 29.331-52.704 10.836-15.946 29.316-33.665 40.897-43.271 12.787-10.303 30.75-19.827 30.75-19.827l3.908-2.073z"/>
  <path d="M 233.061 135.786 C 233.061 146.94 227.667 159.419 220.631 166.682 C 213.562 173.978 201.166 179.68 190.147 179.68 C 179.128 179.68 166.732 173.978 159.663 166.682 C 152.628 159.419 147.234 146.94 147.234 135.786 C 147.234 124.632 152.628 112.153 159.663 104.889 C 166.732 97.594 179.128 91.892 190.147 91.892 C 201.166 91.892 213.562 97.594 220.631 104.889 C 227.667 112.153 233.061 124.632 233.061 135.786 Z M 174.815 224.976 C 174.815 238.424 168.312 252.657 159.407 261.351 C 150.525 270.023 136.151 276.291 122.52 276.291 C 108.888 276.291 94.514 270.023 85.632 261.351 C 76.727 252.657 70.224 238.424 70.224 224.976 C 70.224 211.528 76.727 197.296 85.632 188.601 C 94.514 179.929 108.888 173.661 122.52 173.661 C 136.151 173.661 150.525 179.929 159.407 188.601 C 168.312 197.296 174.815 211.528 174.815 224.976 Z M 237.543 334.75 C 237.543 348.197 231.039 362.431 222.135 371.125 C 213.252 379.797 198.878 386.065 185.247 386.065 C 171.616 386.065 157.241 379.797 148.359 371.125 C 139.455 362.431 132.951 348.197 132.951 334.75 C 132.951 321.302 139.455 307.07 148.359 298.375 C 157.241 289.702 171.616 283.435 185.247 283.435 C 198.878 283.435 213.252 289.702 222.135 298.375 C 231.039 307.07 237.543 321.302 237.543 334.75 Z M 370.838 334.75 C 370.838 348.197 364.335 362.431 355.43 371.125 C 346.548 379.797 332.174 386.065 318.543 386.065 C 304.911 386.065 290.537 379.797 281.655 371.125 C 272.75 362.431 266.247 348.197 266.247 334.75 C 266.247 321.302 272.75 307.07 281.655 298.375 C 290.537 289.702 304.911 283.435 318.543 283.435 C 332.174 283.435 346.548 289.702 355.43 298.375 C 364.335 307.07 370.838 321.302 370.838 334.75 Z M 431.606 224.976 C 431.606 238.424 425.103 252.657 416.198 261.351 C 407.316 270.023 392.942 276.291 379.31 276.291 C 365.679 276.291 351.305 270.023 342.423 261.351 C 333.518 252.657 327.015 238.424 327.015 224.976 C 327.015 211.528 333.518 197.296 342.423 188.601 C 351.305 179.929 365.679 173.661 379.31 173.661 C 392.942 173.661 407.316 179.929 416.198 188.601 C 425.103 197.296 431.606 211.528 431.606 224.976 Z M 358.785 135.786 C 358.785 146.472 353.587 158.525 346.86 165.483 C 340.099 172.478 328.12 177.998 317.563 177.998 C 307.006 177.998 295.027 172.478 288.266 165.483 C 281.539 158.525 276.341 146.472 276.341 135.786 C 276.341 125.1 281.539 113.047 288.266 106.089 C 295.027 99.094 307.006 93.574 317.563 93.574 C 328.12 93.574 340.099 99.094 346.86 106.089 C 353.587 113.047 358.785 125.1 358.785 135.786 Z M 308.19 224.976 C 308.19 238.424 301.687 252.657 292.783 261.351 C 283.9 270.023 269.526 276.291 255.895 276.291 C 242.263 276.291 227.889 270.023 219.007 261.351 C 210.102 252.657 203.599 238.424 203.599 224.976 C 203.599 211.528 210.102 197.296 219.007 188.601 C 223.54 184.175 229.503 180.376 236.068 177.716 C 242.367 175.164 249.82 138.1 255.9 138.1 C 262.546 138.1 268.1 175.2 273.9 177.7 C 281.2 180.4 287.843 183.779 292.783 188.601 C 301.687 197.296 308.19 211.528 308.19 224.976 Z" fill="#fff"/>
</svg>