<svg viewBox="0 0 512 512" xmlns="http://www.w3.org/2000/svg"><path d="m217.474 166.711c0 27.059-11.722 54.244-28.787 71.931-17.105 17.729-43.725 30.05-70.103 30.05-16.707 0-33.511-4.943-47.933-13.072-4.701-.86-10.442-1.799-12.286-1.626-2.768.259-7.669 2.977-9.638 4.227-2.096 2.132-2.301 4.345-3.328 10.312-.998 4.46-.815 10.915-.167 17.373 3.802 11.493 8.54 22.495 13.973 33.807 6.54 13.651 12.963 26.224 21.265 37.801.719 1.019 1.44 2.026 2.165 3.022 11.407 6.998 10.697 7.99 22.51 5.496 11.952-2.523 21.838-12.995 35.056-19.59 37.057-19.403 83.143-28.758 121.662-28.868 51.836 1.953 75.807 7.57 118.569 29.899 11.319 5.905 22.776 18.838 31.962 20.621 5.424 1.054 13.227-3.708 17.798-6.693 2.638-3.507 5.205-7.12 7.727-10.844 9.373-13.682 16.789-27.866 23.125-43.382 1.706-4.118 3.268-8.242 4.703-12.391 1.209-9.389 2.078-19.967.947-25.937-.881-5.876-.552-9.236-3.282-10.171-4.185-3.814-5.116-6.163-10.782-5.596-5.445-1.758-19.086 6.748-19.086 6.748l-.21-.398c-12.612 5.837-26.587 9.262-40.494 9.262-26.378 0-52.997-12.321-70.103-30.05-17.064-17.687-28.786-44.872-28.786-71.931 0-27.06 11.722-54.244 28.786-71.931 2.692-2.79 5.619-5.446 8.744-7.941 2.29-5.906 3.761-12.45 1.276-16.311-.539-4.055-3.098-4.746-6.779-6.313-3.195-1.361-5.629-1.565-5.629-1.565l.015-.166-6.268-.318c-6.981-.74-14.189-.737-21.85-1.024-12.1-.46-23.965-1.042-35.786-1.02-10.752.009-21.559.58-32.603 1.019-15.753.625-30.596 1.044-41.254 1.992-2.68 2-4.674 4.459-4.851 7.395-2.206 3.571-.354 7.272 1.843 12.259 1.437 3.261 3.044 5.79 3.88 7.015 1.82 1.605 3.561 3.266 5.212 4.978 17.065 17.687 28.787 44.871 28.787 71.931zm-46.715-121.368c11.489-1.903 31.802-2.492 52.338-3.309 10.924-.434 22.099-1.012 33.338-1.034 12.297-.01 24.536.578 36.536 1.033 7.321.282 15.142.32 23.077 1.111l5.952.826.025-.278s2.359.213 5.644 1.065l16.385 2.275.068-.388 10.574 1.866 15.794 2.193-.204.484c9.915 1.61 20.493 3.274 31.076 6.144 15.073 4.201 32.721 9.213 48.362 18.227 14.576 8.815 30.67 21.669 41.405 37.099 9.578 15.599 13.932 34.204 16.861 49.148 3.729 19.663 4.28 40.247 3.914 59.178-.331 15.485-1.929 31.845-4.956 47.239-3.464 17.209-8.657 35.072-15.354 51.502-6.985 16.91-16.023 34.108-26.367 49.41-10.593 15.513-23.453 31.08-37.554 44.109-10.592 9.581-23.061 18.074-34.957 24.863-14.666 8.302-31.155 15.873-47.624 21.033-18.378 5.581-38.01 8.674-56.39 10.455-19.437 1.828-39.644 1.841-58.89.552-16.95-1.157-35.268-3.208-52.626-7.737-16.251-4.389-33.026-10.997-47.907-18.944-15.582-8.451-31.14-19.305-44.421-31.138-11.663-10.568-22.449-23.231-31.335-35.715-9.495-13.534-17.335-28.518-24.1-42.62-6.568-13.721-12.789-28.609-17.4-43.557-4.006-13.266-6.792-27.305-8.768-40.546-1.863-12.578-3.338-26.306-3.251-39.728.195-13.945 1.802-28.601 4.431-42.17 2.607-13.308 5.971-29.091 12.787-43.368 6.837-13.518 17.303-28.913 30.385-39.686 20.332-15.002 45.382-22.287 66.174-28.562 12.247-3.614 31.77-6.735 42.437-8.29 5.432-1.076 10.789-2.104 14.541-2.742z"/><g fill="#fff"><path d="m384.418 377.499c0 5.216-1.584 8.965-5.216 12.144-3.255 3.565-6.961 4.944-12.388 4.944-5.405 0-9.341-1.596-12.614-5.167-3.622-3.157-4.989-6.684-4.989-11.921 0-5.217 1.584-8.965 5.216-12.145 3.255-3.564 6.961-4.944 12.387-4.944 5.406 0 9.342 1.597 12.615 5.167 3.622 3.157 4.989 6.684 4.989 11.922zm-90.708 1.937c0 9.414-3.398 17.13-9.772 23.237-6.201 6.295-14.043 9.64-23.622 9.64s-17.449-3.373-23.649-9.666c-6.373-6.107-9.744-13.796-9.744-23.211 0-9.414 3.397-17.13 9.772-23.238 6.201-6.294 14.042-9.639 23.621-9.639s17.45 3.373 23.65 9.666c6.373 6.107 9.744 13.796 9.744 23.211zm-126.627-2.062c0 5.2-1.543 8.831-5.165 12.093-3.351 3.557-7.042 4.996-12.438 4.996-5.39 0-9.205-1.558-12.564-5.117-3.617-3.255-5.04-6.764-5.04-11.972 0-5.2 1.544-8.831 5.165-12.093 3.351-3.558 7.042-4.996 12.439-4.996 5.389 0 9.204 1.558 12.563 5.117 3.617 3.255 5.04 6.764 5.04 11.972z" fill-rule="evenodd"/><path d="m189.574 166.426a70.668 70.668 0 0 1 -70.668 70.668 70.668 70.668 0 0 1 -70.668-70.668 70.668 70.668 0 0 1 70.668-70.668 70.668 70.668 0 0 1 70.668 70.668zm274.086 0c0 39.029-31.639 70.668-70.668 70.668s-70.668-31.639-70.668-70.668 31.639-70.668 70.668-70.668 70.668 31.639 70.668 70.668z"/></g></svg>