<svg viewBox="0 0 512 512" xmlns="http://www.w3.org/2000/svg"><path d="m396.909 25.1 4.635 3.184s29.827 20.177 43.084 34.798c12.803 14.12 25.164 33.392 33.309 48.007 8.021 14.448 15.171 28.653 21.004 46.323 5.513 16.701 10.912 36.076 12.658 59.496 1.395 22.684-2.399 60.292-12.599 89.692-13 36.3-34.8 72.1-60.6 100.5-19.8 21.1-45.3 38.4-70 51-21.5 10.5-72.4 27.4-112.4 27.4s-90.9-16.875-112.407-27.378c-24.722-12.645-50.241-29.962-69.945-51.036-25.868-28.435-47.644-64.167-60.675-100.462-10.142-29.472-13.83-62.795-12.809-93.109 1.048-23.802 6.788-48.755 14.897-70.54 7.544-19.386 19.673-38.092 29.331-52.704 10.836-15.946 29.316-33.665 40.897-43.271 12.787-10.303 30.75-19.827 30.75-19.827l3.908-2.073zm-176.278 79.789c-7.069-7.295-19.465-12.997-30.484-12.997s-23.415 5.702-30.484 12.997c-7.035 7.264-12.429 19.743-12.429 30.897s5.394 23.633 12.429 30.896c7.069 7.296 19.465 12.998 30.484 12.998s23.415-5.702 30.484-12.998c7.036-7.263 12.43-19.742 12.43-30.896s-5.394-23.633-12.43-30.897zm-61.224 83.712c-8.882-8.672-23.256-14.94-36.887-14.94-13.632 0-28.006 6.268-36.888 14.94-8.905 8.695-15.408 22.927-15.408 36.375s6.503 27.681 15.408 36.375c8.882 8.672 23.256 14.94 36.888 14.94 13.631 0 28.005-6.268 36.887-14.94 8.905-8.694 15.408-22.927 15.408-36.375s-6.503-27.68-15.408-36.375zm62.728 109.774c-8.883-8.673-23.257-14.94-36.888-14.94s-28.006 6.267-36.888 14.94c-8.904 8.695-15.408 22.927-15.408 36.375 0 13.447 6.504 27.681 15.408 36.375 8.882 8.672 23.257 14.94 36.888 14.94s28.005-6.268 36.888-14.94c8.904-8.694 15.408-22.928 15.408-36.375 0-13.448-6.504-27.68-15.408-36.375zm133.295 0c-8.882-8.673-23.256-14.94-36.887-14.94-13.632 0-28.006 6.267-36.888 14.94-8.905 8.695-15.408 22.927-15.408 36.375 0 13.447 6.503 27.681 15.408 36.375 8.882 8.672 23.256 14.94 36.888 14.94 13.631 0 28.005-6.268 36.887-14.94 8.905-8.694 15.408-22.928 15.408-36.375 0-13.448-6.503-27.68-15.408-36.375zm60.768-109.774c-8.882-8.672-23.256-14.94-36.888-14.94-13.631 0-28.005 6.268-36.887 14.94-8.905 8.695-15.408 22.927-15.408 36.375s6.503 27.681 15.408 36.375c8.882 8.672 23.256 14.94 36.887 14.94 13.632 0 28.006-6.268 36.888-14.94 8.905-8.694 15.408-22.927 15.408-36.375s-6.503-27.68-15.408-36.375zm-69.338-82.512c-6.761-6.995-18.74-12.515-29.297-12.515s-22.536 5.52-29.297 12.515c-6.727 6.958-11.925 19.011-11.925 29.697s5.198 22.739 11.925 29.697c6.761 6.995 18.74 12.515 29.297 12.515s22.536-5.52 29.297-12.515c6.727-6.958 11.925-19.011 11.925-29.697s-5.198-22.739-11.925-29.697zm-54.077 82.512c-4.94-4.822-11.583-8.201-18.883-10.901-5.8-2.5-11.354-39.6-18-39.6-6.08 0-13.533 37.064-19.832 39.616-6.565 2.66-12.528 6.459-17.061 10.885-8.905 8.695-15.408 22.927-15.408 36.375s6.503 27.681 15.408 36.375c8.882 8.672 23.256 14.94 36.888 14.94 13.631 0 28.005-6.268 36.888-14.94 8.904-8.694 15.407-22.927 15.407-36.375s-6.503-27.68-15.407-36.375z"/></svg>