<svg viewBox="0 0 512 512" xmlns="http://www.w3.org/2000/svg"><path d="m292 10.962c48.58 8.225 93.868 13.856 144.722 63.803 45.921 45.102 74.489 111.058 75.278 180.522-.391 69.465-29.111 135.012-74.27 180.881-45.488 45.547-110.905 74.802-180.369 75.794h-2.853c-69.464-.992-134.764-30.261-180.252-75.809-45.161-45.872-73.864-111.496-74.256-180.961.789-69.465 29.877-134.837 75.294-180.443 45.726-45.273 81.045-52.265 144.706-62.787v18h72z" transform="matrix(-1 0 0 -1 512 511.962006)"/><path d="m301 256c0 12.106-5.321 23.809-13.795 32.375-8.121 8.208-18.751 12.625-31.205 12.625-12.104 0-23.809-5.332-32.382-13.8-8.205-8.121-12.618-18.746-12.618-31.2 0-12.106 5.33-23.807 13.797-32.379 8.126-8.204 18.749-12.621 31.203-12.621 12.105 0 23.811 5.328 32.378 13.799 8.206 8.119 12.622 18.747 12.622 31.201zm8-149c0 14.32-6.198 28.015-16.266 38.148-9.58 9.738-21.979 14.852-36.734 14.852-14.319 0-28.008-6.208-38.155-16.271-9.732-9.579-14.845-21.974-14.845-36.729 0-14.321 6.207-28.009 16.267-38.151 9.587-9.735 21.978-14.849 36.733-14.849 14.32 0 28.016 6.205 38.152 16.27 9.736 9.578 14.848 21.975 14.848 36.73zm0 298c0 14.32-6.198 28.015-16.266 38.148-9.58 9.738-21.979 14.852-36.734 14.852-14.319 0-28.008-6.208-38.155-16.271-9.732-9.579-14.845-21.974-14.845-36.729 0-14.321 6.206-28.008 16.267-38.15 9.586-9.735 21.978-14.85 36.733-14.85 14.32 0 28.016 6.205 38.152 16.27 9.736 9.578 14.848 21.975 14.848 36.73zm-149-149c0 14.32-6.198 28.015-16.266 38.148-9.58 9.738-21.979 14.852-36.734 14.852-14.319 0-28.009-6.209-38.156-16.271-9.731-9.58-14.844-21.974-14.844-36.729 0-14.321 6.207-28.009 16.267-38.151 9.587-9.735 21.978-14.849 36.733-14.849 14.32 0 28.016 6.205 38.152 16.27 9.736 9.578 14.848 21.975 14.848 36.73zm298 0c0 14.32-6.198 28.015-16.266 38.148-9.58 9.738-21.979 14.852-36.734 14.852-14.319 0-28.008-6.208-38.155-16.271-9.732-9.579-14.845-21.974-14.845-36.729 0-14.321 6.207-28.009 16.267-38.151 9.587-9.735 21.978-14.849 36.733-14.849 14.32 0 28.016 6.205 38.152 16.27 9.736 9.578 14.848 21.975 14.848 36.73z" fill="#fff"/></svg>