<svg viewBox="0 0 512 512" xmlns="http://www.w3.org/2000/svg"><path d="m220.223 512c-48.58-8.225-94.091-24.856-144.945-74.803-45.921-45.102-74.489-111.058-75.278-180.522.391-69.465 29.111-135.012 74.27-180.881 45.488-45.547 110.905-74.802 180.369-75.794h2.853c69.464.992 134.764 30.261 180.252 75.809 45.161 45.872 73.864 111.496 74.256 180.961-.789 69.465-29.877 134.837-75.294 180.443-45.726 45.273-81.045 64.265-144.706 74.787v-30h-72zm68.155-287.201c-8.567-8.471-20.273-13.799-32.378-13.799-12.454 0-23.077 4.417-31.203 12.621-8.467 8.572-13.797 20.273-13.797 32.379 0 12.454 4.413 23.079 12.618 31.2 8.573 8.468 20.278 13.8 32.382 13.8 12.454 0 23.084-4.417 31.205-12.625 8.474-8.566 13.795-20.269 13.795-32.375 0-12.454-4.416-23.082-12.622-31.201zm5.774-154.529c-10.136-10.065-23.832-16.27-38.152-16.27-14.755 0-27.146 5.114-36.733 14.849-10.06 10.142-16.267 23.83-16.267 38.151 0 14.755 5.113 27.15 14.845 36.729 10.147 10.063 23.836 16.271 38.155 16.271 14.755 0 27.154-5.114 36.734-14.852 10.068-10.133 16.266-23.828 16.266-38.148 0-14.755-5.112-27.152-14.848-36.73zm0 298c-10.136-10.065-23.832-16.27-38.152-16.27-14.755 0-27.147 5.115-36.733 14.85-10.061 10.142-16.267 23.829-16.267 38.15 0 14.755 5.113 27.15 14.845 36.729 10.147 10.063 23.836 16.271 38.155 16.271 14.755 0 27.154-5.114 36.734-14.852 10.068-10.133 16.266-23.828 16.266-38.148 0-14.755-5.112-27.152-14.848-36.73zm-149-149c-10.136-10.065-23.832-16.27-38.152-16.27-14.755 0-27.146 5.114-36.733 14.849-10.06 10.142-16.267 23.83-16.267 38.151 0 14.755 5.113 27.149 14.844 36.729 10.147 10.062 23.837 16.271 38.156 16.271 14.755 0 27.154-5.114 36.734-14.852 10.068-10.133 16.266-23.828 16.266-38.148 0-14.755-5.112-27.152-14.848-36.73zm298 0c-10.136-10.065-23.832-16.27-38.152-16.27-14.755 0-27.146 5.114-36.733 14.849-10.06 10.142-16.267 23.83-16.267 38.151 0 14.755 5.113 27.15 14.845 36.729 10.147 10.063 23.836 16.271 38.155 16.271 14.755 0 27.154-5.114 36.734-14.852 10.068-10.133 16.266-23.828 16.266-38.148 0-14.755-5.112-27.152-14.848-36.73z"/></svg>