<svg viewBox="0 0 512 512" xmlns="http://www.w3.org/2000/svg"><path d="m508.682 294.374c0-8.012-10.777-16.88-19.502-16.988l-14.607-61.348c-3.948-14.853-13.507-27.709-28.938-27.827h-165.719c-12.55.302-25.104 13.159-28.463 27.71l-10.204 42.967h-51.333c-5.494 0-9.948 4.449-9.948 9.943 0 5.488 4.454 9.943 9.948 9.943h40.74c-6.804 2.821-13.087 9.451-13.199 15.595l-.113 60.514c.251 8.13 8.73 16.44 17.234 16.655v56.09c-.113 3.906 4.546 9.282 8.484 9.282h26.102c3.824 0 7.531-6.62 7.531-10.639v-54.738h171.802l-.221 55.04c0 3.789 4.905 10.527 8.843 10.332h26.076c3.958.195 8.258-5.565 8.258-9.283v-56.089c8.51-.215 16.973-8.525 17.342-16.656zm-48.102-16.768-117.806.067c.02-3.625.046-7.306.046-8.837 0-5.494-4.449-9.943-9.943-9.943h-23.952v-7.445c6.508-2.846 11.049-9.328 11.049-16.88 0-10.174-8.248-18.422-18.416-18.422-10.179 0-18.432 8.248-18.432 18.422 0 7.552 4.557 14.039 11.054 16.88v7.44h-31.79l10.122-41.278c.947-3.794 5.985-8.642 9.196-8.642h163.072c3.24 0 8.401 4.956 9.226 8.642l11.627 50.294c.825 3.912-1.449 9.702-5.053 9.702zm-336.62-20.403h46.423v22.103h-46.423zm-121.589-194.637v374.344h113.484v-374.344zm25.553 253.753v-82.238l62.142 41.119zm0-134.114v-82.242l62.142 41.124z"/></svg>