<svg viewBox="0 0 512 512" xmlns="http://www.w3.org/2000/svg"><path d="m438.44 330.439c-.477 49.343-20.946 96.098-53.181 128.38-32.279 32.233-79.037 53.181-128.389 53.181-49.351 0-96.111-20.948-128.389-53.181-32.235-32.282-52.705-79.045-53.181-128.389v-148.869c.477-49.343 20.946-96.098 53.181-128.38 32.278-32.233 79.038-53.181 128.389-53.181 49.352 0 96.11 20.948 128.389 53.181 32.235 32.282 52.704 79.045 53.181 128.389z"/><path d="m190.45 330.726c0 6.847-4.035 15.929-8.413 20.307s-13.46 8.413-20.307 8.413-15.929-4.035-20.307-8.413-8.413-13.46-8.413-20.307 4.035-15.929 8.413-20.307 13.46-8.413 20.307-8.413 15.929 4.035 20.307 8.413 8.413 13.46 8.413 20.307zm191.236 0c0 6.846-4.034 15.929-8.412 20.307s-13.461 8.413-20.308 8.413c-6.865 0-15.891-4.222-20.346-8.452-4.233-4.46-8.373-13.406-8.373-20.268 0-6.864 4.22-15.889 8.451-20.346 4.459-4.233 13.405-8.374 20.268-8.374 6.847 0 15.93 4.035 20.308 8.413s8.412 13.461 8.412 20.307zm-95.618 96.343c0 6.847-4.035 15.929-8.413 20.307s-13.46 8.413-20.307 8.413-15.929-4.035-20.307-8.413-8.413-13.46-8.413-20.307 4.035-15.929 8.413-20.307 13.46-8.413 20.307-8.413 15.929 4.035 20.307 8.413 8.413 13.46 8.413 20.307zm-95.618-218.469c0 6.847-4.035 15.929-8.413 20.307s-13.46 8.413-20.307 8.413-15.929-4.035-20.307-8.413-8.413-13.46-8.413-20.307 4.035-15.929 8.413-20.307 13.46-8.413 20.307-8.413 15.929 4.035 20.307 8.413 8.413 13.46 8.413 20.307zm191.236 0c0 6.846-4.034 15.929-8.412 20.307s-13.461 8.413-20.308 8.413c-6.865 0-15.891-4.221-20.346-8.452-4.233-4.46-8.373-13.406-8.373-20.268 0-6.864 4.22-15.889 8.451-20.346 4.459-4.233 13.405-8.374 20.268-8.374 6.847 0 15.93 4.035 20.308 8.413s8.412 13.461 8.412 20.307zm-199.529-91.69c0 4.849-2.89 11.351-5.983 14.444s-9.595 5.983-14.444 5.983-11.351-2.89-14.444-5.983-5.983-9.595-5.983-14.444 2.89-11.351 5.983-14.444 9.595-5.983 14.444-5.983 11.351 2.89 14.444 5.983 5.983 9.595 5.983 14.444zm191.236 0c0 4.849-2.889 11.35-5.983 14.444-3.093 3.093-9.594 5.983-14.444 5.983-4.849 0-11.328-2.914-14.444-5.984-3.069-3.116-5.982-9.594-5.982-14.443s2.913-11.327 5.982-14.443c3.116-3.07 9.595-5.984 14.444-5.984 4.85 0 11.351 2.89 14.444 5.983 3.094 3.094 5.983 9.595 5.983 14.444z" fill="#fff"/></svg>