<svg viewBox="0 0 512 512" xmlns="http://www.w3.org/2000/svg"><path d="m311.6 55.644c0 .841-.083 1.66-.246 2.455 86.561 24.18 150.058 103.625 150.058 197.901s-63.497 173.722-150.058 197.902c.163.795.246 1.613.246 2.454 0 30.731-24.913 55.644-55.644 55.644s-55.644-24.913-55.644-55.644c0-.841.083-1.659.246-2.454-86.561-24.181-150.058-103.626-150.058-197.902 0-94.275 63.497-173.72 150.058-197.901-.163-.795-.246-1.614-.246-2.455 0-30.731 24.913-55.644 55.644-55.644s55.644 24.913 55.644 55.644zm-55.644 217.477c-28.368 0-51.364 22.996-51.364 51.364s22.996 51.364 51.364 51.364 51.364-22.996 51.364-51.364-22.996-51.364-51.364-51.364zm68.485-128.409c-28.368 0-51.364 22.996-51.364 51.364s22.996 51.364 51.364 51.364 51.364-22.996 51.364-51.364-22.996-51.364-51.364-51.364zm-136.971 0c-28.368 0-51.364 22.996-51.364 51.364s22.996 51.364 51.364 51.364c28.369 0 51.365-22.996 51.365-51.364s-22.996-51.364-51.365-51.364zm-32.102 126.27c-17.729 0-32.102 14.373-32.102 32.102s14.373 32.102 32.102 32.102c17.73 0 32.102-14.373 32.102-32.102s-14.372-32.102-32.102-32.102zm201.175 0c-17.729 0-32.102 14.373-32.102 32.102s14.373 32.102 32.102 32.102 32.102-14.373 32.102-32.102-14.373-32.102-32.102-32.102z"/></svg>