<svg viewBox="0 0 512 512" xmlns="http://www.w3.org/2000/svg"><path d="m179.756 373h152.548c22.762.333 45.16 8.201 59.997 20.356 14.844 12.156 24.858 30.503 24.858 49.147 0 18.638-10.014 36.985-24.858 49.141-14.837 12.155-37.235 20.023-59.997 20.356h-152.548c-22.764-.333-45.162-8.201-59.999-20.356-14.844-12.156-24.857-30.503-24.857-49.141 0-18.644 10.013-36.991 24.857-49.147 14.837-12.155 37.235-20.023 59.999-20.356z"/><path d="m201.417 420.327c-5.259-5.225-11.241-7.896-19.155-7.896-7.92 0-13.9 2.671-19.157 7.896-5.274 5.238-8.024 11.311-8.024 19.269 0 7.955 2.75 14.028 8.024 19.266 5.257 5.223 11.237 7.895 19.157 7.895 7.914 0 13.896-2.672 19.155-7.895 5.272-5.238 8.02-11.311 8.02-19.266 0-7.958-2.748-14.031-8.02-19.269zm147.534-1.297c-5.255-5.225-11.237-7.899-19.156-7.899-7.916 0-13.896 2.674-19.154 7.899-5.273 5.237-8.02 11.312-8.02 19.264 0 7.955 2.747 14.033 8.02 19.268 5.258 5.222 11.238 7.899 19.154 7.899 7.919 0 13.901-2.677 19.156-7.899 5.274-5.235 8.027-11.313 8.027-19.268 0-7.952-2.753-14.027-8.027-19.264z" fill="#fff"/><path d="m440.353 229.672c0 101.802-82.525 184.328-184.327 184.328-101.8 0-184.326-82.526-184.326-184.328 0-101.8 82.526-184.326 184.326-184.326 101.802 0 184.327 82.526 184.327 184.326z"/><path d="m305.948 49.921c0 27.571-99.843 27.571-99.843 0 0-27.57 22.351-49.921 49.921-49.921 27.571 0 49.922 22.351 49.922 49.921z"/><path d="m302.108 291.114c0 25.451-20.631 46.082-46.082 46.082-25.45 0-46.081-20.631-46.081-46.082 0-25.45 20.631-46.081 46.081-46.081 25.451 0 46.082 20.631 46.082 46.081zm61.442-115.203c0 25.451-20.631 46.082-46.082 46.082-25.45 0-46.081-20.631-46.081-46.082 0-25.45 20.631-46.081 46.081-46.081 25.451 0 46.082 20.631 46.082 46.081zm-122.884 0c0 25.451-20.631 46.082-46.082 46.082s-46.082-20.631-46.082-46.082c0-25.45 20.631-46.081 46.082-46.081s46.082 20.631 46.082 46.081zm-46.082 96.003c0 15.906-12.894 28.801-28.801 28.801-15.906 0-28.8-12.895-28.8-28.801 0-15.905 12.894-28.8 28.8-28.8 15.907 0 28.801 12.895 28.801 28.8zm180.486 0c0 15.906-12.895 28.801-28.801 28.801s-28.801-12.895-28.801-28.801c0-15.905 12.895-28.8 28.801-28.8s28.801 12.895 28.801 28.8z" fill="#fff" fill-rule="evenodd"/></svg>