<svg viewBox="0 0 512 512" xmlns="http://www.w3.org/2000/svg"><path d="m374.514 0s19.051 10.067 30.2 19.051c10.067 8.443 26.196 23.814 35.613 37.67 8.443 12.772 18.943 29.009 25.546 45.895 7.036 19.052 12.015 40.701 12.989 61.484.866 26.412-2.381 55.421-11.149 81.075-11.366 31.608-30.309 62.783-52.932 87.463-10.814 11.635-23.662 21.929-37.094 30.717 11.535 3.936 21.962 9.535 30.265 16.337 16.553 13.556 27.72 34.016 27.72 54.807 0 20.784-11.167 41.244-27.72 54.801-16.546 13.555-41.524 22.329-66.908 22.7h-170.117c-25.386-.371-50.363-9.145-66.909-22.7-16.554-13.557-27.72-34.017-27.72-54.801 0-20.791 11.166-41.251 27.72-54.807 8.302-6.802 18.728-12.4 30.262-16.336-13.432-8.783-26.294-19.072-37.136-30.667-22.53-24.767-41.496-55.886-52.844-87.497-8.835-25.668-12.047-54.691-11.157-81.092.912-20.732 5.911-42.465 12.974-61.438 6.571-16.883 17.134-33.176 25.545-45.901 9.439-13.887 25.532-29.321 35.619-37.687 11.136-8.974 30.185-19.074 30.185-19.074zm-179.431 409.769c-5.865-5.827-12.536-8.806-21.361-8.806-8.832 0-15.501 2.979-21.364 8.806-5.881 5.841-8.948 12.613-8.948 21.488 0 8.871 3.067 15.644 8.948 21.485 5.863 5.824 12.532 8.804 21.364 8.804 8.825 0 15.496-2.98 21.361-8.804 5.879-5.841 8.944-12.614 8.944-21.485 0-8.875-3.065-15.647-8.944-21.488zm164.526-1.447c-5.861-5.826-12.531-8.808-21.362-8.808-8.828 0-15.497 2.982-21.361 8.808-5.88 5.841-8.943 12.615-8.943 21.483 0 8.871 3.063 15.649 8.943 21.487 5.864 5.824 12.533 8.809 21.361 8.809 8.831 0 15.501-2.985 21.362-8.809 5.881-5.838 8.951-12.616 8.951-21.487 0-8.868-3.07-15.642-8.951-21.483zm-12.485-179.024c-7.735-7.553-20.254-13.011-32.125-13.011-11.873 0-24.392 5.458-32.128 13.011-7.755 7.573-13.42 19.968-13.42 31.681 0 11.71 5.665 24.109 13.42 31.68 7.736 7.554 20.255 13.013 32.128 13.013 11.871 0 24.39-5.459 32.125-13.013 7.756-7.571 13.422-19.97 13.422-31.68 0-11.713-5.666-24.108-13.422-31.681zm-117.173 0c-7.737-7.553-20.256-13.011-32.128-13.011s-24.391 5.458-32.126 13.011c-7.757 7.573-13.422 19.968-13.422 31.681 0 11.71 5.665 24.109 13.422 31.68 7.735 7.554 20.254 13.013 32.126 13.013s24.391-5.459 32.128-13.013c7.754-7.571 13.419-19.97 13.419-31.68 0-11.713-5.665-24.108-13.419-31.681zm-54.632-95.608c-7.737-7.552-20.256-13.012-32.128-13.012-11.874 0-24.39 5.46-32.127 13.012-7.757 7.573-13.42 19.967-13.42 31.681 0 11.713 5.663 24.108 13.42 31.681 7.737 7.552 20.253 13.012 32.127 13.012 11.872 0 24.391-5.46 32.128-13.012 7.754-7.573 13.419-19.968 13.419-31.681 0-11.714-5.665-24.108-13.419-31.681zm112.678 0c-7.737-7.552-20.255-13.012-32.128-13.012s-24.391 5.46-32.127 13.012c-7.755 7.573-13.419 19.967-13.419 31.681 0 11.713 5.664 24.108 13.419 31.681 7.736 7.552 20.254 13.012 32.127 13.012s24.391-5.46 32.128-13.012c7.755-7.573 13.419-19.968 13.419-31.681 0-11.714-5.664-24.108-13.419-31.681zm110.97 0c-7.735-7.552-20.253-13.012-32.127-13.012-11.87 0-24.39 5.46-32.126 13.012-7.755 7.573-13.42 19.967-13.42 31.681 0 11.713 5.665 24.108 13.42 31.681 7.736 7.552 20.256 13.012 32.126 13.012 11.874 0 24.392-5.46 32.127-13.012 7.757-7.573 13.422-19.968 13.422-31.681 0-11.714-5.665-24.108-13.422-31.681zm-66.554-73.938c-4.883-4.932-13.533-8.825-21.157-8.825-7.623 0-16.272 3.893-21.154 8.825-4.858 4.908-8.613 13.407-8.613 20.943s3.755 16.036 8.613 20.942c4.882 4.933 13.531 8.825 21.154 8.825 7.624 0 16.274-3.892 21.157-8.825 4.857-4.906 8.611-13.406 8.611-20.942s-3.754-16.035-8.611-20.943zm-112.456-1.474c-4.903-4.949-13.5-8.815-21.144-8.815s-16.242 3.866-21.146 8.815c-4.879 4.924-8.621 13.389-8.621 20.952 0 7.564 3.742 16.027 8.621 20.952 4.904 4.948 13.502 8.816 21.146 8.816s16.241-3.868 21.144-8.816c4.882-4.925 8.624-13.388 8.624-20.952 0-7.563-3.742-16.028-8.624-20.952z"/></svg>