<svg viewBox="0 0 512 512" xmlns="http://www.w3.org/2000/svg"><path d="m305.948 49.921c0 .755-.075 1.49-.221 2.203 77.659 21.694 134.626 92.968 134.626 177.548 0 61.155-29.781 115.354-75.632 148.885 10.52 3.537 20.029 8.613 27.58 14.799 14.844 12.156 24.858 30.503 24.858 49.147 0 18.638-10.014 36.985-24.858 49.141-14.837 12.155-37.235 20.023-59.997 20.356h-152.548c-22.764-.333-45.162-8.201-59.999-20.356-14.844-12.156-24.857-30.503-24.857-49.141 0-18.644 10.013-36.991 24.857-49.147 7.55-6.185 17.058-11.261 27.576-14.798-45.851-33.531-75.633-87.73-75.633-148.886 0-84.58 56.967-155.854 134.626-177.548-.146-.714-.221-1.448-.221-2.203 0-27.57 22.351-49.921 49.921-49.921 27.571 0 49.922 22.351 49.922 49.921zm-49.922 195.112c-25.45 0-46.081 20.631-46.081 46.081 0 25.451 20.631 46.082 46.081 46.082 25.451 0 46.082-20.631 46.082-46.082 0-25.45-20.631-46.081-46.082-46.081zm61.442-115.203c-25.45 0-46.081 20.631-46.081 46.081 0 25.451 20.631 46.082 46.081 46.082 25.451 0 46.082-20.631 46.082-46.082 0-25.45-20.631-46.081-46.082-46.081zm-122.884 0c-25.451 0-46.082 20.631-46.082 46.081 0 25.451 20.631 46.082 46.082 46.082s46.082-20.631 46.082-46.082c0-25.45-20.631-46.081-46.082-46.081zm-28.801 113.284c-15.906 0-28.8 12.895-28.8 28.8 0 15.906 12.894 28.801 28.8 28.801 15.907 0 28.801-12.895 28.801-28.801 0-15.905-12.894-28.8-28.801-28.8zm180.486 0c-15.906 0-28.801 12.895-28.801 28.8 0 15.906 12.895 28.801 28.801 28.801s28.801-12.895 28.801-28.801c0-15.905-12.895-28.8-28.801-28.8zm-144.852 177.213c-5.259-5.225-11.241-7.896-19.155-7.896-7.92 0-13.9 2.671-19.157 7.896-5.274 5.238-8.024 11.311-8.024 19.269 0 7.955 2.75 14.028 8.024 19.266 5.257 5.223 11.237 7.895 19.157 7.895 7.914 0 13.896-2.672 19.155-7.895 5.272-5.238 8.02-11.311 8.02-19.266 0-7.958-2.748-14.031-8.02-19.269zm147.534-1.297c-5.255-5.225-11.237-7.899-19.156-7.899-7.916 0-13.896 2.674-19.154 7.899-5.273 5.237-8.02 11.312-8.02 19.264 0 7.955 2.747 14.033 8.02 19.268 5.258 5.222 11.238 7.899 19.154 7.899 7.919 0 13.901-2.677 19.156-7.899 5.274-5.235 8.027-11.313 8.027-19.268 0-7.952-2.753-14.027-8.027-19.264z"/></svg>