<svg viewBox="0 0 512 512" xmlns="http://www.w3.org/2000/svg"><path d="m461.412 256c0 113.471-91.985 205.457-205.456 205.457-113.47 0-205.456-91.986-205.456-205.457 0-113.47 91.986-205.456 205.456-205.456 113.471 0 205.456 91.986 205.456 205.456z"/><path d="m311.6 55.644c0 30.731-111.288 30.731-111.288 0s24.913-55.644 55.644-55.644 55.644 24.913 55.644 55.644zm0 400.712c0 30.731-24.913 55.644-55.644 55.644s-55.644-24.913-55.644-55.644 111.288-30.731 111.288 0z"/><path d="m307.32 324.485c0 28.368-22.996 51.364-51.364 51.364s-51.364-22.996-51.364-51.364 22.996-51.364 51.364-51.364 51.364 22.996 51.364 51.364zm68.485-128.409c0 28.368-22.996 51.364-51.364 51.364s-51.364-22.996-51.364-51.364 22.996-51.364 51.364-51.364 51.364 22.996 51.364 51.364zm-136.97 0c0 28.368-22.996 51.364-51.365 51.364-28.368 0-51.364-22.996-51.364-51.364s22.996-51.364 51.364-51.364c28.369 0 51.365 22.996 51.365 51.364zm-51.365 107.008c0 17.729-14.372 32.102-32.102 32.102-17.729 0-32.102-14.373-32.102-32.102s14.373-32.102 32.102-32.102c17.73 0 32.102 14.373 32.102 32.102zm201.175 0c0 17.729-14.373 32.102-32.102 32.102s-32.102-14.373-32.102-32.102 14.373-32.102 32.102-32.102 32.102 14.373 32.102 32.102z" fill="#fff" fill-rule="evenodd"/></svg>