<?xml version="1.0" encoding="UTF-8" standalone="no"?>
<!-- Created with Inkscape (http://www.inkscape.org/) -->

<svg
   xmlns:dc="http://purl.org/dc/elements/1.1/"
   xmlns:cc="http://creativecommons.org/ns#"
   xmlns:rdf="http://www.w3.org/1999/02/22-rdf-syntax-ns#"
   xmlns:svg="http://www.w3.org/2000/svg"
   xmlns="http://www.w3.org/2000/svg"
   xmlns:sodipodi="http://sodipodi.sourceforge.net/DTD/sodipodi-0.dtd"
   xmlns:inkscape="http://www.inkscape.org/namespaces/inkscape"
   width="16"
   height="16"
   id="svg2"
   inkscape:label="Pozadí"
   version="1.1"
   inkscape:version="0.48.0 r9654"
   inkscape:export-filename="F:\GIS\render\symbols\church.png"
   inkscape:export-xdpi="90"
   inkscape:export-ydpi="90"
   sodipodi:docname="UNESCO.svg">
  <defs
     id="defs3">
    <filter
       inkscape:collect="always"
       id="filter3798"
       x="-0.11949894"
       width="1.2389979"
       y="-0.12050528"
       height="1.2410106">
      <feGaussianBlur
         inkscape:collect="always"
         stdDeviation="0.59749472"
         id="feGaussianBlur3800" />
    </filter>
  </defs>
  <sodipodi:namedview
     id="base"
     pagecolor="#ffffff"
     bordercolor="#666666"
     borderopacity="1.0"
     inkscape:pageopacity="0.0"
     inkscape:pageshadow="2"
     inkscape:zoom="42.467378"
     inkscape:cx="7.0698163"
     inkscape:cy="8"
     inkscape:document-units="px"
     inkscape:current-layer="layer1"
     showgrid="true"
     inkscape:window-width="1256"
     inkscape:window-height="737"
     inkscape:window-x="7"
     inkscape:window-y="21"
     inkscape:window-maximized="0"
     inkscape:snap-grids="true"
     inkscape:snap-center="false">
    <inkscape:grid
       type="xygrid"
       id="grid3768"
       empspacing="4"
       visible="true"
       enabled="true"
       snapvisiblegridlinesonly="true"
       dotted="false"
       spacingx="0.5px"
       spacingy="0.5px" />
  </sodipodi:namedview>
  <metadata
     id="metadata6">
    <rdf:RDF>
      <cc:Work
         rdf:about="">
        <dc:format>image/svg+xml</dc:format>
        <dc:type
           rdf:resource="http://purl.org/dc/dcmitype/StillImage" />
        <dc:title></dc:title>
      </cc:Work>
    </rdf:RDF>
  </metadata>
  <g
     inkscape:label="Vrstva 1"
     inkscape:groupmode="layer"
     id="layer1"
     transform="translate(0,-1036.3622)">
    <path
       sodipodi:nodetypes="cscccccccccccsscsscccccccccccccss"
       inkscape:connector-curvature="0"
       id="path3796"
       d="m 7.9,1038.3713 c -3.0241532,0.3091 -5.4,2.8952 -5.4,5.9954 0,3.2298 2.3721071,5.774 5.575,5.8955 l 0,-0.6494 0,-0.4497 0,-2.2733 -2.48775,-2.5231 2.91275,-2.9096 2.91275,2.9096 -2.48775,2.5231 0,2.2733 0,0.4497 0,0.6494 c 3.202894,-0.1215 5.575,-2.6657 5.575,-5.8955 0,-3.307 -2.690513,-5.9954 -6,-5.9954 -0.2068429,0 -0.3983898,-0.02 -0.6,0 z m 0.6,0.9119 c 2.924222,0 5.088,2.1615 5.088,5.0835 0,2.5825 -1.588,4.4955 -3.713,4.9715 l 0,-2.024 2.52525,-2.6851 0.225,-0.2624 -0.2625,-0.2622 -3.63775,-3.5971 -0.225,-0.2623 -0.225,0.2623 -3.63775,3.5971 -0.2625,0.2622 0.225,0.2624 2.52525,2.6851 0,2.024 c -2.125,-0.476 -3.625,-2.476 -3.712,-4.9715 -0.1018071,-2.9202 2.1627776,-5.0835 5.087,-5.0835 z"
       style="font-size:medium;font-style:normal;font-variant:normal;font-weight:normal;font-stretch:normal;text-indent:0;text-align:start;text-decoration:none;line-height:normal;letter-spacing:normal;word-spacing:normal;text-transform:none;direction:ltr;block-progression:tb;writing-mode:lr-tb;text-anchor:start;baseline-shift:baseline;color:#000000;fill:#ffffff;fill-opacity:1;stroke:#ffffff;stroke-width:1;marker:none;visibility:visible;display:inline;overflow:visible;enable-background:accumulate;font-family:Sans;-inkscape-font-specification:Sans;stroke-miterlimit:4;stroke-dasharray:none;filter:url(#filter3798)" />
    <path
       style="font-size:medium;font-style:normal;font-variant:normal;font-weight:normal;font-stretch:normal;text-indent:0;text-align:start;text-decoration:none;line-height:normal;letter-spacing:normal;word-spacing:normal;text-transform:none;direction:ltr;block-progression:tb;writing-mode:lr-tb;text-anchor:start;baseline-shift:baseline;color:#000000;fill:#000000;fill-opacity:1;stroke:none;stroke-width:0.60000002;marker:none;visibility:visible;display:inline;overflow:visible;enable-background:accumulate;font-family:Sans;-inkscape-font-specification:Sans"
       d="m 7.9,1038.3713 c -3.0241532,0.3091 -5.4,2.8952 -5.4,5.9954 0,3.2298 2.3721071,5.774 5.575,5.8955 l 0,-0.6494 0,-0.4497 0,-2.2733 -2.48775,-2.5231 2.91275,-2.9096 2.91275,2.9096 -2.48775,2.5231 0,2.2733 0,0.4497 0,0.6494 c 3.202894,-0.1215 5.575,-2.6657 5.575,-5.8955 0,-3.307 -2.690513,-5.9954 -6,-5.9954 -0.2068429,0 -0.3983898,-0.02 -0.6,0 z m 0.6,0.9119 c 2.924222,0 5.088,2.1615 5.088,5.0835 0,2.5825 -1.588,4.4955 -3.713,4.9715 l 0,-2.024 2.52525,-2.6851 0.225,-0.2624 -0.2625,-0.2622 -3.63775,-3.5971 -0.225,-0.2623 -0.225,0.2623 -3.63775,3.5971 -0.2625,0.2622 0.225,0.2624 2.52525,2.6851 0,2.024 c -2.125,-0.476 -3.625,-2.476 -3.712,-4.9715 -0.1018071,-2.9202 2.1627776,-5.0835 5.087,-5.0835 z"
       id="path2987"
       inkscape:connector-curvature="0"
       sodipodi:nodetypes="cscccccccccccsscsscccccccccccccss" />
  </g>
</svg>
