<svg height="1000" width="1000.0" xmlns="http://www.w3.org/2000/svg"><path d="m500 20l141.6 242.1 278.4 0.1-139.2 237.8 139.2 237.9-278.3 0-141.7 242.1-141.7-242.1-278.3 0 139.2-237.9-139.2-237.8 278.4-0.1 141.6-242.1z m-181.6 480.2l89.8 159.8 183.3 0 90-159.8-90-160.2-183 0-90.1 160.2z m372.4 159.8l80.8 0-40.4-69.1-40.4 69.1z m-462.5 0l80.9 0-40.5-69.1-40.4 69.1z m231.5-400l80.9 0-40.5-69-40.4 69z m271.4 149l40.4-69-80.8 0 40.4 69z m-462.5 0.1l40.5-69.1-80.9 0 40.4 69.1z m231.5 399.9l40.5-69-80.9 0 40.4 69z" /></svg>