<svg xmlns="http://www.w3.org/2000/svg" width="512" height="512" viewBox="0 0 512 512">
    <path d="M256 10.24l72.5 123.96 142.6.1L399.8 256l71.3 121.8H328.6l-72.6 124-72.5-124H40.95L112.2 256 40.95 134.3l142.55-.1L256 10.24zM163 256.1l46 81.9h93.8l46.2-81.9-46.2-82h-93.7l-46.1 82zM353.6 338h41.5l-20.8-35.4-20.7 35.4zm-236.8 0h41.6l-20.9-35.4-20.7 35.4zm118.7-204.8h41.3l-20.7-35.41-20.6 35.41zm138.8 76.2l20.8-35.3h-41.5l20.7 35.3zm-236.8.1l20.9-35.4h-41.6l20.7 35.4zm118.6 204.7l20.7-35.3h-41.3l20.6 35.3z"/>
</svg>
