<svg viewBox="0 0 512 512" xmlns="http://www.w3.org/2000/svg"><path d="m230.933 127.611h50.134l-.067 127.99h212v-128h-93c9-20 11-42 6-63-19-65-102-87-150-37.802-48-49.198-131-27.198-150 37.802-5 21-3 43 6 63h-93v128h212zm50.134-38.857c0-29.912 32.284-48.608 58.111-33.651 25.827 14.956 25.827 52.346 0 67.303-5.89 3.41-12.57 5.205-19.371 5.205l-38.807-.01zm-127.615 0c0-29.912 32.283-48.608 58.11-33.651 11.987 6.941 19.371 19.769 19.371 33.651l.067 38.847-38.808.01c-21.396 0-38.74-17.397-38.74-38.857zm127.548 423.246h175v-220h-175zm-225-.399 175 .399v-220h-175v220z"/></svg>