<svg viewBox="0 0 512 512" xmlns="http://www.w3.org/2000/svg"><path d="m256 0c-141.157 0-256 114.843-256 256s114.843 256 256 256 256-114.843 256-256-114.843-256-256-256zm176 374.154s-64.2-4.954-64.16-4.923c0 0-20.94-41.431-20.923-41.453 0 0 23.983-80.478 24.012-80.455 0 0 44.871-13.023 44.849-13.046 0 0 54.522 53.023 54.548 53.021-.026.002-38.326 86.902-38.326 86.856zm-335.729-139.779c2.828-2.422 44.8 13.047 44.8 13.047.029-.022 24.012 80.455 24.012 80.455.017.023-20.923 41.354-20.923 41.354.04-.031-64.16 4.923-64.16 4.923 0 .046-38.3-86.754-38.277-86.757-.023.003 54.548-53.022 54.548-53.022zm326.449-108.972s-27.62 69.097-27.643 69.059c0 0-46.577 13.938-46.572 13.895 0 0-72.805-65.557-72.813-65.588 0 0 4.408-49.469 4.382-49.514 0 0 62.126-35.955 62.141-35.95-.015-.005 80.485 68.095 80.505 68.098zm-243.52-67.274s57.1 43.271 57.108 43.311c0 0-3.508 48.86-3.52 48.874 0 0-79.388 59.586-79.41 59.606.022-.02-41.878-21.22-41.907-21.268 0 0-20.371-72.952-20.394-72.96.023.008 88.123-57.592 88.123-57.563zm21.305 403.028s-23.605-69.757-23.643-69.772c0 0 27.138-36.885 27.175-36.923 0 0 112.463 4.938 112.431 4.923 0 0 19.286 40.615 19.335 40.615 0 0-31.103 67.1-31.114 67.126.011-.026-104.189-5.926-104.184-5.969z"/></svg>