<svg viewBox="0 0 512 512" xmlns="http://www.w3.org/2000/svg"><path d="m403.278 161.641v-63.045h-5.801c-17.407 0-31.56 14.119-31.56 31.521 0 17.44 14.153 31.518 31.56 31.518zm-47.536-14.351-27.539-55.075c-6.144-11.293-18.026-18.872-31.831-18.872h-63.926c-5.997 0-10.754 4.798-10.754 10.793s4.757 10.753 10.754 10.753l63.93-.041c5.223 0 10.906 3.52 13.228 8.391l17.52 35.119zm126.937 58.866c8.322 2.396 14.511 10.095 14.511 19.183l-46.566.041c-61.262 0-111.039 49.816-111.039 111.079h-151.535c0-49.233-32.026-91.006-76.348-105.585l-83.507-27.465 13.848-21.154c4.871-7.386 13.421-12.261 22.937-12.261 2.201 0 4.182.153 5.993.538l186.071 57.704c2.282.658 4.644 1.083 7.193 1.083 8.391 0 15.704-4.253 20.079-10.791l42.314-61.109z"/><path d="m358.065 355.756c0-41.886 33.955-75.688 75.65-75.688 41.806 0 75.647 33.802 75.647 75.688 0 41.734-33.841 75.65-75.647 75.65-41.695 0-75.65-33.922-75.65-75.65zm75.65 28.273c15.702 0 28.38-12.684 28.38-28.273 0-15.703-12.683-28.312-28.38-28.312-15.471 0-28.159 12.609-28.159 28.312.005 15.585 12.688 28.273 28.159 28.273zm-432.01-36.397c0-45.871 37.238-83.194 83.229-83.194 46.064 0 83.154 37.323 83.154 83.194 0 45.987-37.09 83.268-83.154 83.268-45.984 0-83.229-37.281-83.229-83.268zm83.422 31.213c17.095 0 31.05-13.921 31.05-31.133 0-17.214-13.955-31.134-31.05-31.134-17.286 0-31.133 13.926-31.133 31.134 0 17.212 13.847 31.133 31.133 31.133z"/></svg>