<?xml version="1.0" encoding="utf-8"?>
<!-- Generator: Adobe Illustrator 14.0.0, SVG Export Plug-In . SVG Version: 6.00 Build 43363)  -->
<!DOCTYPE svg PUBLIC "-//W3C//DTD SVG 1.1//EN" "http://www.w3.org/Graphics/SVG/1.1/DTD/svg11.dtd">
<svg version="1.1" id="Layer_1" xmlns="http://www.w3.org/2000/svg" xmlns:xlink="http://www.w3.org/1999/xlink" x="0px" y="0px"
	 width="123.547px" height="123.539px" viewBox="0 0 123.547 123.539" enable-background="new 0 0 123.547 123.539"
	 xml:space="preserve">
<g>
	<g>
		<path d="M90.836,42.301V29.566h-1.172c-3.516,0-6.375,2.852-6.375,6.367c0,3.523,2.859,6.367,6.375,6.367L90.836,42.301
			L90.836,42.301z"/>
		<path d="M81.234,39.402l-5.563-11.125c-1.241-2.281-3.641-3.812-6.43-3.812H56.328c-1.211,0-2.172,0.969-2.172,2.18
			s0.961,2.172,2.172,2.172l12.914-0.008c1.055,0,2.203,0.711,2.672,1.695l3.539,7.094L81.234,39.402z"/>
		<path d="M106.875,51.293c1.681,0.484,2.931,2.039,2.931,3.875l-9.406,0.008c-12.375,0-22.43,10.063-22.43,22.438h-30.61
			c0-9.945-6.469-18.383-15.422-21.328L15.07,50.738l2.797-4.273c0.984-1.492,2.711-2.477,4.633-2.477
			c0.445,0,0.845,0.031,1.211,0.109l37.586,11.656c0.461,0.133,0.938,0.219,1.453,0.219c1.695,0,3.172-0.859,4.056-2.18
			l8.547-12.344L106.875,51.293z"/>
		<path d="M81.703,81.512c0-8.461,6.859-15.289,15.281-15.289c8.445,0,15.281,6.828,15.281,15.289
			c0,8.43-6.836,15.281-15.281,15.281C88.562,96.793,81.703,89.941,81.703,81.512z M96.984,87.223c3.172,0,5.733-2.562,5.733-5.711
			c0-3.172-2.562-5.719-5.733-5.719c-3.125,0-5.688,2.547-5.688,5.719C91.297,84.66,93.859,87.223,96.984,87.223z"/>
		<path d="M9.719,79.871c0-9.266,7.522-16.805,16.812-16.805c9.305,0,16.797,7.539,16.797,16.805c0,9.289-7.492,16.82-16.797,16.82
			C17.242,96.691,9.719,89.16,9.719,79.871z M26.57,86.176c3.453,0,6.272-2.812,6.272-6.289c0-3.477-2.819-6.289-6.272-6.289
			c-3.492,0-6.289,2.813-6.289,6.289C20.281,83.364,23.078,86.176,26.57,86.176z"/>
	</g>
</g>
</svg>
