<?xml version="1.0" encoding="UTF-8" standalone="no"?>
<!-- Created with Inkscape (http://www.inkscape.org/) -->

<svg
   xmlns:dc="http://purl.org/dc/elements/1.1/"
   xmlns:cc="http://creativecommons.org/ns#"
   xmlns:rdf="http://www.w3.org/1999/02/22-rdf-syntax-ns#"
   xmlns:svg="http://www.w3.org/2000/svg"
   xmlns="http://www.w3.org/2000/svg"
   version="1.0"
   width="100"
   height="100"
   viewBox="0 0 100 100"
   id="Layer_1"
   xml:space="preserve"><metadata
     id="metadata3680"><rdf:RDF><cc:Work
         rdf:about=""><dc:format>image/svg+xml</dc:format><dc:type
           rdf:resource="http://purl.org/dc/dcmitype/StillImage" /><dc:title></dc:title></cc:Work></rdf:RDF></metadata><defs
     id="defs3678" /><g
     transform="translate(0,-5)"
     id="g3682"><path
       d="M 20.22,96.07 C 29.33,96.07 36.72,88.68 36.72,79.56 36.72,70.47 29.33,63.08 20.22,63.08 11.14,63.08 3.75,70.47 3.75,79.56 3.75,88.68 11.14,96.07 20.22,96.07 z M 0,79.56 C 0,68.39 9.072,59.35 20.22,59.35 31.41,59.35 40.47,68.39 40.47,79.56 40.47,90.74 31.41,99.79 20.22,99.79 9.072,99.79 0,90.74 0,79.56 z"
       id="path3668" /><path
       d="M 79.78,96.26 C 88.86,96.26 96.25,88.88 96.25,79.76 96.25,70.66 88.86,63.28 79.78,63.28 70.67,63.28 63.28,70.66 63.28,79.76 63.28,88.88 70.67,96.26 79.78,96.26 z M 59.53,79.76 C 59.53,68.58 68.6,59.54 79.78,59.54 90.93,59.54 100,68.58 100,79.76 100,90.95 90.93,100 79.78,100 68.6,100 59.53,90.95 59.53,79.76 z"
       id="path3670" /><path
       d="M 59.59,30.4 C 63.79,30.4 67.2,27.01 67.2,22.82 67.2,18.62 63.79,15.2 59.59,15.2 55.39,15.2 51.98,18.62 51.98,22.82 51.98,27.01 55.39,30.4 59.59,30.4 z"
       id="path3672" /><path
       d="M 59.9,48.86 C 58.8,48.88 57.61,48.34 56.74,46.95 L 51.8,39.23 41.6,49.32 51.06,54.3 C 54.94,56.16 54.36,59.58 54.36,59.58 V 80.98 C 54.36,83.4 52.4,85.38 49.98,85.38 47.55,85.38 45.6,83.4 45.6,80.98 V 63.84 L 29.21,54.74 C 27.25,53.65 25.93,51.56 25.93,49.18 25.93,47.54 26.53,46.03 27.57,44.91 L 43.64,28.8 C 45.64,26.54 48.43,26.9 48.43,26.9 51.8,26.9 53.57,29.84 53.57,29.84 L 61.92,42.94 74.61,42.91 C 79.17,42.91 79.17,48.86 74.61,48.86 H 59.9 z"
       id="path3674" /></g></svg>