<svg viewBox="0 0 512 512" xmlns="http://www.w3.org/2000/svg"><path d="m103.526 466.278c46.644 0 84.48-37.836 84.48-84.531 0-46.541-37.836-84.377-84.48-84.377-46.489 0-84.326 37.836-84.326 84.377 0 46.695 37.837 84.531 84.326 84.531zm-103.526-84.531c0-57.19 46.449-103.475 103.526-103.475 57.293 0 103.68 46.285 103.68 103.475 0 57.242-46.387 103.578-103.68 103.578-57.077 0-103.526-46.336-103.526-103.578zm408.474 85.504c46.489 0 84.326-37.785 84.326-84.48 0-46.592-37.837-84.377-84.326-84.377-46.644 0-84.48 37.785-84.48 84.377 0 46.695 37.836 84.48 84.48 84.48zm-103.68-84.48c0-57.241 46.438-103.526 103.68-103.526 57.088 0 103.526 46.285 103.526 103.526 0 57.293-46.438 103.629-103.526 103.629-57.242 0-103.68-46.336-103.68-103.629zm.307-252.723c21.504 0 38.963-17.357 38.963-38.81 0-21.504-17.459-39.014-38.963-39.014s-38.963 17.51-38.963 39.014c0 21.453 17.459 38.81 38.963 38.81z"/><path d="m306.688 224.563c-5.632.103-11.725-2.662-16.179-9.779l-25.293-39.526-52.224 51.66 48.435 25.498c19.866 9.523 16.896 27.034 16.896 27.034v109.568c0 12.39-10.035 22.528-22.425 22.528-12.442 0-22.426-10.138-22.426-22.528v-87.757l-83.917-46.592c-10.035-5.581-16.793-16.282-16.793-28.467 0-8.397 3.072-16.128 8.396-21.863l82.279-82.483c10.24-11.571 24.525-9.728 24.525-9.728 17.254 0 26.316 15.053 26.316 15.053l42.752 67.072 64.973-.154c23.347 0 23.347 30.464 0 30.464z"/></svg>