<svg xmlns="http://www.w3.org/2000/svg" version="1.0" width="512" height="512" viewBox="0 0 512 512"><path d="M152.4 80.38C174.6 80.38 192.6 62.46 192.6 39.94 192.6 17.92 174.6 0 152.4 0 130.2 0 112.1 17.92 112.1 39.94 112.1 62.46 130.2 80.38 152.4 80.38zM84.43 87.04C85.97 80.9 82.02 74.75 75.98 73.22L42.44 65.02C36.13 64 29.95 67.58 28.52 73.73L.3444 190.5C-1.202 196.6 2.602 202.8 8.787 204.3L42.44 212.5C48.5 214 54.79 209.9 56.22 203.8L84.43 87.04zM239.2 502.3C239.2 502.3 239.1 502.3 239.1 502.8 239.1 507.9 243.3 512 248.4 512 253 512 256.9 508.4 257.5 503.8L325.1 137.7C325.1 137.2 325.1 137.2 325.1 136.7 325.1 131.6 321 127.5 315.9 127.5 311.3 127.5 307.7 131.1 306.7 135.7L239.2 502.3zM14.5 478.2C14.14 479.7 14.02 481.8 14.02 483.8 14.02 499.2 26.63 512 42.32 512 55.14 512 66 503.3 69.43 492L118.1 290.3 164.5 490.5C167.4 502.8 178.6 512 191.8 512 207.5 512 220.1 499.2 220.1 483.8 220.1 481.8 219.9 479.7 219.5 477.7L155.9 211.5 161.2 188.4 165.4 206.8C169.2 218.6 180.1 219.6 180.1 219.6L245.7 236.5C246.9 236.5 248.3 237.1 249.6 237.1 260.3 237.1 269 228.4 269 217.6 269 208.4 262.7 200.7 254.1 198.7L197.4 184.3 181.8 121.3C174.4 86.02 140.6 86.53 140.6 86.53 107.8 86.02 99.64 120.3 99.64 120.3L14.5 478.2z" transform="translate(93.45,0)"/></svg>