<?xml version="1.0" encoding="UTF-8" standalone="no"?>
<!-- Generator: Adobe Illustrator 14.0.0, SVG Export Plug-In . SVG Version: 6.00 Build 43363)  -->

<svg
   xmlns:dc="http://purl.org/dc/elements/1.1/"
   xmlns:cc="http://creativecommons.org/ns#"
   xmlns:rdf="http://www.w3.org/1999/02/22-rdf-syntax-ns#"
   xmlns:svg="http://www.w3.org/2000/svg"
   xmlns="http://www.w3.org/2000/svg"
   xmlns:sodipodi="http://sodipodi.sourceforge.net/DTD/sodipodi-0.dtd"
   xmlns:inkscape="http://www.inkscape.org/namespaces/inkscape"
   version="1.0"
   id="Layer_1"
   x="0px"
   y="0px"
   width="512"
   height="512"
   viewBox="0 0 512 512"
   enable-background="new 0 0 63.491 100"
   xml:space="preserve"
   inkscape:version="0.48.4 r9939"
   sodipodi:docname="hiking.svg"><metadata
     id="metadata15"><rdf:RDF><cc:Work
         rdf:about=""><dc:format>image/svg+xml</dc:format><dc:type
           rdf:resource="http://purl.org/dc/dcmitype/StillImage" /></cc:Work></rdf:RDF></metadata><defs
     id="defs13" /><sodipodi:namedview
     pagecolor="#ffffff"
     bordercolor="#666666"
     borderopacity="1"
     objecttolerance="10"
     gridtolerance="10"
     guidetolerance="10"
     inkscape:pageopacity="0"
     inkscape:pageshadow="2"
     inkscape:window-width="1440"
     inkscape:window-height="876"
     id="namedview11"
     showgrid="false"
     inkscape:zoom="0.5"
     inkscape:cx="-206.3"
     inkscape:cy="50"
     inkscape:window-x="0"
     inkscape:window-y="24"
     inkscape:window-maximized="1"
     inkscape:current-layer="Layer_1" /><g
     id="g2992"
     transform="translate(93.45,0)"><path
       inkscape:connector-curvature="0"
       id="path3"
       d="M 152.4,80.38 C 174.6,80.38 192.6,62.46 192.6,39.94 192.6,17.92 174.6,0 152.4,0 130.2,0 112.1,17.92 112.1,39.94 112.1,62.46 130.2,80.38 152.4,80.38 z" /><path
       inkscape:connector-curvature="0"
       id="path5"
       d="M 84.43,87.04 C 85.97,80.9 82.02,74.75 75.98,73.22 L 42.44,65.02 C 36.13,64 29.95,67.58 28.52,73.73 L 0.3444,190.5 C -1.202,196.6 2.602,202.8 8.787,204.3 L 42.44,212.5 C 48.5,214 54.79,209.9 56.22,203.8 L 84.43,87.04 z" /><path
       inkscape:connector-curvature="0"
       id="path7"
       d="M 239.2,502.3 C 239.2,502.3 239.1,502.3 239.1,502.8 239.1,507.9 243.3,512 248.4,512 253,512 256.9,508.4 257.5,503.8 L 325.1,137.7 C 325.1,137.2 325.1,137.2 325.1,136.7 325.1,131.6 321,127.5 315.9,127.5 311.3,127.5 307.7,131.1 306.7,135.7 L 239.2,502.3 z" /><path
       inkscape:connector-curvature="0"
       id="path9"
       d="M 14.5,478.2 C 14.14,479.7 14.02,481.8 14.02,483.8 14.02,499.2 26.63,512 42.32,512 55.14,512 66,503.3 69.43,492 L 118.1,290.3 164.5,490.5 C 167.4,502.8 178.6,512 191.8,512 207.5,512 220.1,499.2 220.1,483.8 220.1,481.8 219.9,479.7 219.5,477.7 L 155.9,211.5 161.2,188.4 165.4,206.8 C 169.2,218.6 180.1,219.6 180.1,219.6 L 245.7,236.5 C 246.9,236.5 248.3,237.1 249.6,237.1 260.3,237.1 269,228.4 269,217.6 269,208.4 262.7,200.7 254.1,198.7 L 197.4,184.3 181.8,121.3 C 174.4,86.02 140.6,86.53 140.6,86.53 107.8,86.02 99.64,120.3 99.64,120.3 L 14.5,478.2 z" /></g></svg>