<?xml version="1.0" encoding="UTF-8" standalone="no"?>
<!-- Created with Inkscape (http://www.inkscape.org/) -->

<svg
   xmlns:dc="http://purl.org/dc/elements/1.1/"
   xmlns:cc="http://creativecommons.org/ns#"
   xmlns:rdf="http://www.w3.org/1999/02/22-rdf-syntax-ns#"
   xmlns:svg="http://www.w3.org/2000/svg"
   xmlns="http://www.w3.org/2000/svg"
   version="1.0"
   width="512"
   height="512"
   viewBox="0 0 512 512"
   id="svg3664"
   xml:space="preserve"><metadata
     id="metadata3672"><rdf:RDF><cc:Work
         rdf:about=""><dc:format>image/svg+xml</dc:format><dc:type
           rdf:resource="http://purl.org/dc/dcmitype/StillImage" /><dc:title></dc:title></cc:Work></rdf:RDF></metadata><defs
     id="defs3670" /><path
     d="m 230.59001,373.93333 0,38.06667 20.09999,0 0,-56.90666 -224.749999,0 0,-82.33668 c 0,-5.50334 -4.413334,-10.01334 -9.986667,-10.01334 l 0,0 c -5.51,0 -9.953334,4.51 -9.953334,10.01334 L 6,412 l 19.940001,0 0,-38.06667 204.650009,0 z M 56.619999,312.88999 c 9.983333,0 18.060003,-8.07666 18.060003,-18.09334 0,-9.95333 -8.07667,-18.03 -18.060003,-18.03 -9.983331,0 -18.063333,8.07667 -18.063333,18.03 -0.0033,10.02001 8.073334,18.09334 18.063333,18.09334 z M 251,340.12665 250.9399,315.27332 C 250.8766,307.38665 244.2399,301.93667 236.53989,301 L 94.653333,286.84665 c -0.276668,-0.0601 -0.533335,-0.18661 -0.780001,-0.18661 -4.916665,0 -8.889997,4.00332 -8.889997,8.88999 l 0,26.8 -37.096669,-0.0102 c -4.983332,0 -8.953333,4.00667 -8.953333,8.89333 0,4.94998 3.973335,8.89333 8.953333,8.89333 l 203.113334,0 z"
     id="path3666" /><path
     d="m 482.60077,373.93333 0,38.06667 20.09999,0 0,-56.90666 -224.75,0 0,-82.33668 c 0,-5.50334 -4.41333,-10.01334 -9.98667,-10.01334 l 0,0 c -5.51,0 -9.95333,4.51 -9.95333,10.01334 l 0,139.24334 19.94,0 0,-38.06667 204.65001,0 z M 308.63076,312.88999 c 9.98334,0 18.06001,-8.07666 18.06001,-18.09334 0,-9.95333 -8.07667,-18.03 -18.06001,-18.03 -9.98333,0 -18.06333,8.07667 -18.06333,18.03 -0.003,10.02001 8.07333,18.09334 18.06333,18.09334 z m 194.38,27.23666 -0.0601,-24.85333 c -0.0633,-7.88667 -6.7,-13.33665 -14.40001,-14.27332 L 346.6641,286.84665 c -0.27667,-0.0601 -0.53334,-0.18661 -0.78,-0.18661 -4.91667,0 -8.89,4.00332 -8.89,8.88999 l 0,26.8 -37.09667,-0.0102 c -4.98333,0 -8.95333,4.00667 -8.95333,8.89333 0,4.94998 3.97333,8.89333 8.95333,8.89333 l 203.11333,0 z"
     id="path3666-3" /><path
     d="m 230.59,215.7984 0,38.06667 20.09999,0 0,-56.90666 -224.749989,0 0,-82.33668 c 0,-5.50334 -4.413334,-10.01334 -9.986667,-10.01334 l 0,0 c -5.51,0 -9.953334,4.51 -9.953334,10.01334 l 0,139.24334 19.940001,0 0,-38.06667 204.649999,0 z M 56.619999,154.75506 c 9.983333,0 18.060003,-8.07666 18.060003,-18.09334 0,-9.95333 -8.07667,-18.03 -18.060003,-18.03 -9.983331,0 -18.063333,8.07667 -18.063333,18.03 -0.0033,10.02001 8.073334,18.09334 18.063333,18.09334 z m 194.379991,27.23666 -0.0601,-24.85333 c -0.0633,-7.88667 -6.7,-13.33665 -14.40001,-14.27332 L 94.653333,128.71172 c -0.276668,-0.0601 -0.533335,-0.18661 -0.780001,-0.18661 -4.916665,0 -8.889997,4.00332 -8.889997,8.88999 l 0,26.8 -37.096669,-0.0102 c -4.983332,0 -8.953333,4.00667 -8.953333,8.89333 0,4.94998 3.973335,8.89333 8.953333,8.89333 l 203.113324,0 z"
     id="path3666-5" /><path
     d="m 482.60076,215.7984 0,38.06667 20.09999,0 0,-56.90666 -224.75,0 0,-82.33668 c 0,-5.50334 -4.41333,-10.01334 -9.98667,-10.01334 l 0,0 c -5.51,0 -9.95333,4.51 -9.95333,10.01334 l 0,139.24334 19.94,0 0,-38.06667 204.65001,0 z M 308.63075,154.75506 c 9.98334,0 18.06001,-8.07666 18.06001,-18.09334 0,-9.95333 -8.07667,-18.03 -18.06001,-18.03 -9.98333,0 -18.06333,8.07667 -18.06333,18.03 -0.003,10.02001 8.07333,18.09334 18.06333,18.09334 z m 194.38,27.23666 -0.0601,-24.85333 c -0.0633,-7.88667 -6.7,-13.33665 -14.40001,-14.27332 L 346.66409,128.71172 c -0.27667,-0.0601 -0.53334,-0.18661 -0.78,-0.18661 -4.91667,0 -8.89,4.00332 -8.89,8.88999 l 0,26.8 -37.09667,-0.0102 c -4.98333,0 -8.95333,4.00667 -8.95333,8.89333 0,4.94998 3.97333,8.89333 8.95333,8.89333 l 203.11333,0 z"
     id="path3666-3-8" /></svg>