<svg xmlns="http://www.w3.org/2000/svg" version="1" width="512" height="512" viewBox="0 0 512 512" enable-background="new 0 0 94.517 100">
    <g>
        <path d="M253.8 149.76c40.96 0 73.984-33.587 73.984-74.957C327.784 33.443 294.76 0 253.8 0c-40.91 0-73.984 33.444-73.984 74.803 0 41.32 33.075 74.957 73.984 74.957z"/>
        <path d="M325.787 167.987c33.843 1.23 48.077 28.62 48.077 28.62l109.26 151.604c4.557 6.708 7.168 14.952 7.168 23.86 0 23.552-18.892 42.7-42.188 42.7-5.58 0-10.65-1.28-15.463-3.122l-65.996-18.586v66.51H137.678v-66.51l-65.946 18.586c-4.66 1.843-9.907 3.123-15.534 3.123-23.326 0-42.168-19.148-42.168-42.7 0-8.908 2.606-17.152 7.327-23.86L130.56 196.61s14.337-27.392 48.027-28.62h147.2zm-73.575 245.146l85.453-28.723-1.894-.36c-58.982-17.51-36.095-96.306 22.785-78.693l8.14 2.816v-88.935l-114.483 37.786-114.534-37.786v88.935l8.038-2.867C204.7 287.744 227.688 366.54 168.654 384l-1.894.41 85.452 28.723z"/>
        <path d="M487.425 512c5.837 0 10.547-4.762 10.547-10.65 0-5.94-4.71-10.65-10.547-10.65H25.295c-5.725 0-10.538 4.71-10.538 10.65 0 5.888 4.813 10.65 10.537 10.65h462.13z"/>
    </g>
</svg>
