<svg xmlns="http://www.w3.org/2000/svg" version="1" width="512" height="512" viewBox="0 0 512 512">
    <g>
        <path d="M156.367 256.44c0 29.696-23.962 53.248-53.504 53.248-29.486 0-53.453-23.552-53.453-53.248 0-29.696 23.967-53.248 53.453-53.248 29.542 0 53.504 23.552 53.504 53.248z"/>
        <g>
            <path d="M191.336 272.62l271.258 20.018v-72.396l-271.258 20.02z"/>
        </g>
        <g>
            <path d="M161.128 188.037L271.823 36.65 209.205.44l-75.98 171.366z"/>
        </g>
        <g>
            <path d="M187.6 226.334l200.908-93.132-36.2-62.72-180.837 127.846z"/>
        </g>
        <g>
            <path d="M161.128 324.843l110.695 151.4-62.618 36.197-75.98-171.418z"/>
        </g>
        <g>
            <path d="M187.6 286.546l200.908 93.132-36.2 62.67L171.472 314.55z"/>
        </g>
    </g>
</svg>
