<?xml version="1.0" encoding="UTF-8" standalone="no"?>
<!-- Created with Inkscape (http://www.inkscape.org/) -->

<svg
   xmlns:dc="http://purl.org/dc/elements/1.1/"
   xmlns:cc="http://creativecommons.org/ns#"
   xmlns:rdf="http://www.w3.org/1999/02/22-rdf-syntax-ns#"
   xmlns:svg="http://www.w3.org/2000/svg"
   xmlns="http://www.w3.org/2000/svg"
   version="1.0"
   width="100"
   height="100"
   viewBox="0 0 100 100"
   id="Layer_1"
   xml:space="preserve"><metadata
     id="metadata3799"><rdf:RDF><cc:Work
         rdf:about=""><dc:format>image/svg+xml</dc:format><dc:type
           rdf:resource="http://purl.org/dc/dcmitype/StillImage" /><dc:title></dc:title></cc:Work></rdf:RDF></metadata><defs
     id="defs3797" /><path
     d="M 55.18,13.75 C 53.92,8.87 49.46,5.246 44.18,5.246 37.89,5.246 32.8,10.31 32.8,16.6 32.8,17.66 32.92,18.62 33.2,19.57 H 37.76 C 38.1,20.36 38.46,20.81 38.46,20.81 39.82,22.79 42.12,24.08 44.7,24.08 48.91,24.08 52.34,20.65 52.34,16.44 52.34,15.47 52.58,14.59 52.18,13.76 H 55.18 L 55.18,13.75 z"
     id="path3779"
     style="fill:#1a1a1a" /><path
     d="M 54.86,81.59 C 53.66,82.81 52.02,83.73 50.15,83.73 V 59.02 L 67.26,54.1 71.54,62.54 54.86,81.59 z"
     id="path3781"
     style="fill:#1a1a1a" /><path
     d="M 40.5,25.04 C 39.38,23.78 37.74,22.99 35.91,22.99 33.96,22.99 32.22,23.89 31.1,25.31 L 17.53,46.05 C 16.97,46.97 16.66,48.05 16.66,49.19 16.66,51.33 17.74,53.2 19.39,54.31 L 37.6,64.42 V 81.61 C 37.6,84.05 39.57,86.02 42,86.02 44.42,86.02 46.39,84.05 46.39,81.61 V 60.14 C 46.39,60.14 46.98,56.72 43.09,54.84 L 31.73,48.91 40,36.27 44.4,43.16 C 45.27,44.56 46.46,45.1 47.54,45.07 L 58.82,45.03 C 63.41,45.03 63.41,39.07 58.82,39.09 H 49.68 L 40.5,25.04 z"
     id="path3783"
     style="fill:#1a1a1a" /><path
     d="M 90.4,53.23 C 90.58,53.4 90.7,53.63 90.7,53.92 90.7,54.46 90.25,54.91 89.7,54.91 89.55,54.91 89.46,54.91 89.35,54.87 87.39,54.03 86.15,53.52 83.9,53.52 82.39,53.52 80.55,54.04 78.41,55.77 L 76.43,51.85 C 78.9,51.11 80.93,50.45 83.04,50.45 86.42,50.46 88.2,51.15 90.4,53.23 z"
     id="path3785"
     style="fill:#1a1a1a" /><path
     d="M 14.68,56.24 33.8,66.78 33.84,71.01 12.01,58.99 C 10.43,58.18 8.305,57.7 6.8,57.7 4.546,57.7 3.299,58.22 1.361,59.06 1.24,59.1 1.139,59.1 1.002,59.1 0.46,59.1 0,58.66 0,58.11 0,57.82 0.115,57.6 0.295,57.42 2.506,55.34 4.761,54.64 8.141,54.64 9.869,54.64 11.98,54.84 14.68,56.24 z"
     id="path3787"
     style="fill:#1a1a1a" /><path
     d="M 16.45,95.01 C 22.68,95.01 27.72,89.97 27.72,83.73 27.72,77.5 22.68,72.45 16.45,72.45 10.23,72.45 5.187,77.5 5.187,83.73 5.187,89.97 10.23,95.01 16.45,95.01 z M 0.195,83.73 C 0.195,74.75 7.477,67.45 16.45,67.45 25.45,67.45 32.74,74.75 32.74,83.73 32.74,92.71 25.45,100 16.45,100 7.477,100 0.195,92.71 0.195,83.73 z"
     id="path3789"
     style="fill:#1a1a1a" /><path
     d="M 83.72,95.01 C 89.96,95.01 95,89.97 95,83.73 95,77.5 89.96,72.45 83.72,72.45 77.51,72.45 72.46,77.5 72.46,83.73 72.46,89.97 77.51,95.01 83.72,95.01 z M 67.47,83.73 C 67.47,74.75 74.74,67.45 83.72,67.45 92.7,67.45 100,74.75 100,83.73 100,92.71 92.7,100 83.72,100 74.74,100 67.47,92.71 67.47,83.73 z"
     id="path3791"
     style="fill:#1a1a1a" /><path
     d="M 80.14,65.14 72.23,49.33 C 71.21,47.43 69.17,46.13 66.86,46.13 H 61.7 C 60.69,46.13 59.88,46.97 59.88,47.97 59.88,48.99 60.69,49.8 61.7,49.8 L 66.86,49.78 C 67.73,49.78 68.71,50.37 69.07,51.22 L 76.51,66.4 80.14,65.14 z"
     id="path3793"
     style="fill:#1a1a1a" /></svg>