<svg height="512" viewBox="0 0 512 512" width="512" xmlns="http://www.w3.org/2000/svg"><path d="m464.34694 334.31292v77.68708h41.02041v-116.13606h-458.673472v-168.03401c0-11.23129-9.006803-20.43538-20.380953-20.43538-11.244898 0-20.312925 9.20408-20.312925 20.43537v284.17008h40.693878v-77.68708zm-355.04082-124.57824c20.37415 0 36.85715-16.48299 36.85715-36.92517 0-20.31292-16.483-36.79591-36.85715-36.79591-20.374147 0-36.863943 16.48299-36.863943 36.79591-.0068 20.44898 16.47619 36.92517 36.863943 36.92517zm396.69388 55.58504-.12245-50.72109c-.12925-16.09524-13.67347-27.21769-29.38775-29.12926l-289.56463-28.88435c-.56463-.12244-1.08844-.38095-1.59184-.38095-10.03401 0-18.14285 8.17007-18.14285 18.14286v54.69388l-75.707487-.0204c-10.170068 0-18.272109 8.17687-18.272109 18.14966 0 10.10203 8.108844 18.14965 18.272109 18.14965z"/><text font-family="Ubuntu Mono" font-size="144" font-weight="bold" letter-spacing="0" word-spacing="0" x="410.034" y="104.136"><tspan x="410.034" y="104.136">+</tspan></text></svg>