<?xml version="1.0" encoding="UTF-8" standalone="no"?>
<!-- Generator: Adobe Illustrator 14.0.0, SVG Export Plug-In . SVG Version: 6.00 Build 43363)  -->

<svg
   xmlns:dc="http://purl.org/dc/elements/1.1/"
   xmlns:cc="http://creativecommons.org/ns#"
   xmlns:rdf="http://www.w3.org/1999/02/22-rdf-syntax-ns#"
   xmlns:svg="http://www.w3.org/2000/svg"
   xmlns="http://www.w3.org/2000/svg"
   xmlns:sodipodi="http://sodipodi.sourceforge.net/DTD/sodipodi-0.dtd"
   xmlns:inkscape="http://www.inkscape.org/namespaces/inkscape"
   version="1.0"
   id="Layer_1"
   x="0px"
   y="0px"
   width="512"
   height="512"
   viewBox="0 0 512 512.1"
   enable-background="new 0 0 87.422 99.575"
   xml:space="preserve"
   inkscape:version="0.48.4 r9939"
   sodipodi:docname="observatory.svg"><metadata
     id="metadata11"><rdf:RDF><cc:Work
         rdf:about=""><dc:format>image/svg+xml</dc:format><dc:type
           rdf:resource="http://purl.org/dc/dcmitype/StillImage" /></cc:Work></rdf:RDF></metadata><defs
     id="defs9" /><sodipodi:namedview
     pagecolor="#ffffff"
     bordercolor="#666666"
     borderopacity="1"
     objecttolerance="10"
     gridtolerance="10"
     guidetolerance="10"
     inkscape:pageopacity="0"
     inkscape:pageshadow="2"
     inkscape:window-width="1440"
     inkscape:window-height="876"
     id="namedview7"
     showgrid="false"
     inkscape:zoom="0.5"
     inkscape:cx="-194.3"
     inkscape:cy="49.79"
     inkscape:window-x="0"
     inkscape:window-y="24"
     inkscape:window-maximized="1"
     inkscape:current-layer="Layer_1" /><g
     id="g2988"
     transform="matrix(5.121,0,0,5.121,32.16,-2112)"><path
       inkscape:connector-curvature="0"
       d="M 0,418.8 H 37.01 V 422.4 H 33.42 V 426.4 L 0,429.3 V 418.8 z"
       id="path4870" /><path
       inkscape:connector-curvature="0"
       d="M 52.54,429.5 C 57.26,429.5 61.07,425.7 61.07,421 61.07,416.3 57.25,412.5 52.54,412.5 47.82,412.5 43.99,416.3 43.99,421 44,425.7 47.82,429.5 52.54,429.5"
       id="path4872" /><path
       inkscape:connector-curvature="0"
       d="M 59,429.1 C 61.44,426.6 65.38,426.6 67.82,429.1 L 86.29,447.5 C 87,448.2 87.42,449.2 87.42,450.2 V 505.6 C 87.42,509.4 84.35,512.5 80.54,512.5 76.73,512.5 73.6,509.4 73.6,505.6 V 459.9 L 56.39,442.7 49.51,449.6 C 48.73,450.5 47.57,451.1 46.23,451.1 45,451.1 43.89,450.6 43.1,449.7 L 31.25,437.9 C 29.74,436.1 29.87,433.3 31.65,431.8 33.44,430.3 36.12,430.6 37.63,432.4 L 46.64,441.4 59,429.1 z"
       id="path4874" /><path
       inkscape:connector-curvature="0"
       d="M 23.1,431.7 C 22.93,430.9 22.2,430.2 21.34,430.2 20.45,430.2 19.73,430.9 19.58,431.7 L 16.7,448.2 V 512 H 41.06 V 503 H 26.11 L 26.01,448.2 23.1,431.7 z"
       id="path4876" /></g></svg>