<svg xmlns="http://www.w3.org/2000/svg" version="1" width="512" height="512" viewBox="0 0 512 512" enable-background="new 0 0 84.058 100">
    <path d="M359.5 82.43c22.7 0 41.1-18.43 41.1-40.96C400.6 18.43 382.2 0 359.5 0c-22.8 0-41.3 18.43-41.3 41.47 0 22.53 18.5 40.96 41.3 40.96z"/>
    <path d="M470.1 240.1c-7.2 16.4-22.5 11.3-22.5 11.3l-64.5-24.1c-6.5-2.5-11.5-7.7-13.2-14.3l-14.6-42.5-22.8 62.5 67.5 70.1c8.4 14.9 7.6 25.6 7.6 25.6v96.8c23.9 0 43.3 19.4 43.3 43.5 0 23.5-19.4 43-43.3 43-3.4 0-6.8-.5-10-1l-141.8-31.8v-21l106.3-23.5v-88.1l-71.5-71.7-11 74.8c-1.8 9.7-8.6 18.4-12.5 23l-49.7 57.4c-.7-.5-1.6-.5-2.6-.5l2.6.5c12.9 10.2 19.6 27.1 15.6 44-5.5 23.1-28.8 37.9-52 32.3-3.3-1.1-6.5-2.1-9.5-3.6L40.81 439.3l4.86-20.5 119.83 2.1 57-66.1 17.6-129.5 37-97.8-51.3 29.2-30.5 59.9c-9.2 18.9-25.9 9.2-25.9 9.2-15.1-8.7-9.3-23-9.3-23l31.3-63.5c8.4-15.9 15.1-18.5 15.1-18.5l73.1-39.9c16-11.27 34.5-2.56 34.5-2.56l42.1 15.87c21 7.69 21.9 19.49 21.9 19.49l26 83.4 56.1 19.5s15.1 6.6 9.9 23.5zm-65.7 252.4h3.2c13.2 0 23.9-10.7 23.9-23.5 0-13.3-10.7-24.1-23.9-24.1v5.1c0 12.3-10.2 22.6-22.7 22.6-11.1 0-19.9-7.7-21.9-18.5L296.8 469l107.6 23.5zm-222-6.1c1 .5 2 .5 3 1 12.9 3.1 25.7-4.6 28.8-17.4 2.3-10.2-1.7-19.4-9.4-25.1l-9.7 11.3c-8.3 9.2-22.7 10.7-32.2 2-5.6-4.6-7.8-11.7-7.4-18.4l-72.46-1 99.36 47.6z"/>
</svg>
