<svg xmlns="http://www.w3.org/2000/svg" version="1" width="512" height="512" viewBox="0 0 512 512" enable-background="new 0 0 96.319 100">
    <g>
        <path d="M92.884 369.516c140.472 58.988 247.15 93.48 397.42 140.972 3.05.5 5.9-1.5 6.4-5 .45-2.998-1.7-5.998-4.75-6.498C255.253 424.505 69.44 342.022 27.04 323.025c-4.38-2-9.473 0-11.128 4.5-1.775 4 .12 8.998 4.38 10.497 10.537 5 20.955 9.5 31.023 13.998l-33.39 24.995c-3.788 6-2.133 12.997 3.436 16.496 4.143 3 10.067 2.5 14.09 0l57.434-23.994z"/>
        <path d="M480.557 220.546L371.38 120.066h2.298c22.146 0 39.992-17.996 39.992-39.992s-17.846-39.992-39.992-39.992c-22.295 0-40.142 17.996-40.142 39.992 0 8.498 2.6 16.497 7.05 22.995L266.5 76.574l-39.992-57.99c-3.1-4.498-7.85-6.997-13.398-7.997-10.398-1-19.996 6.5-21.195 16.997-.45 4.5.6 8.498 2.7 12.497l40.89 58.988c1.9 2.5 4.25 4.5 7.1 5.5l47.34 18.995-77.784 39.492c-10.897 6-18.596 16.997-20.695 29.994l.35 70.987-71.936 32.494c-8.05 4-13.848 11.998-14.198 21.496-.6 13.498 10.048 24.995 23.795 25.495 4.25.5 8.398-.5 11.948-2.498l88.032-39.492c6.25-3.5 10.998-9.498 12.548-16.497l-.15-44.49 61.137 54.488-11.247 93.482c0 .5-.15 1-.15 1.5-.6 13.997 10.048 25.495 23.795 25.995 12.897.5 23.945-8.498 25.695-21.496l13.147-106.478s.1-.5.1-1c.25-7.498-2.7-14.496-7.698-18.996l-56.54-50.49 85.234-41.99 79.084 72.984c3.55 3.5 8.398 5.5 13.597 5.5 10.697 0 19.196-8.5 19.096-19.497 0-5.5-2.6-10.498-6.55-13.997z"/>
    </g>
</svg>
