<svg viewBox="0 0 512 512" xmlns="http://www.w3.org/2000/svg"><path d="m448.197 416.184c0 65.996-99.571 96.041-192.084 96.041-92.507 0-192.086-30.045-192.086-96.041 0-54.59 68.157-84.505 144.062-93.261v32.484c-64.791 8.188-112.047 32.138-112.047 60.777 0 35.356 71.642 64.026 160.07 64.026 88.413 0 160.069-28.67 160.069-64.026 0-28.639-47.268-52.589-112.048-60.777v-32.484c75.905 8.756 144.064 38.671 144.064 93.261zm-192.085-416.184c-61.872 0-112.048 50.178-112.048 112.05 0 56.398 41.815 102.607 96.041 110.421v193.713h32.015v-193.713c54.211-7.814 96.045-54.023 96.045-110.421 0-61.872-50.181-112.05-112.053-112.05zm-32.015 96.043c-17.696 0-32.013-14.32-32.013-32.016s14.317-32.012 32.013-32.012c17.697 0 32.015 14.317 32.015 32.012s-14.318 32.016-32.015 32.016z"/></svg>