<svg xmlns="http://www.w3.org/2000/svg" viewBox="0 0 512 512"><path d="M448.197 416.184C448.197 482.18 348.626 512.225 256.113 512.225 163.606 512.225 64.027 482.18 64.027 416.184 64.027 361.594 132.184 331.679 208.089 322.923V355.407C143.298 363.595 96.042 387.545 96.042 416.184 96.042 451.54 167.684 480.21 256.112 480.21 344.525 480.21 416.181 451.54 416.181 416.184 416.181 387.545 368.913 363.595 304.133 355.407V322.923C380.038 331.679 448.197 361.594 448.197 416.184ZM256.112 0C194.24 0 144.064 50.178 144.064 112.05 144.064 168.448 185.879 214.657 240.105 222.471V416.184H272.12V222.471C326.331 214.657 368.165 168.448 368.165 112.05 368.165 50.178 317.984 0 256.112 0ZM224.097 96.043C206.401 96.043 192.084 81.723 192.084 64.027S206.401 32.015 224.097 32.015C241.794 32.015 256.112 46.332 256.112 64.027S241.794 96.043 224.097 96.043Z"/></svg>