<svg xmlns="http://www.w3.org/2000/svg" width="9" height="9" viewBox="3.5 3.5 9 9" xml:space="preserve"><path opacity=".25" fill="#FFF" d="M8,11.5c-1.9,0-3.5-1.6-3.5-3.5S6.1,4.5,8,4.5s3.5,1.6,3.5,3.5	S9.9,11.5,8,11.5z"/><path opacity=".5" fill="#FFF" d="M8,11c-1.7,0-3-1.4-3-3s1.3-3,3-3s3,1.3,3,3S9.6,11,8,11z"/><path opacity=".75" fill="#FFF" d="M8,10.5c-1.4,0-2.5-1.1-2.5-2.5S6.6,5.5,8,5.5s2.5,1.1,2.5,2.5S9.4,10.5,8,10.5z"/><circle fill="#FFF" cx="8" cy="8" r="2"/><circle cx="8" cy="8" r="1.5"/></svg>