<svg xmlns="http://www.w3.org/2000/svg" width="11" height="11" viewBox="0 0 11 11" xml:space="preserve"><path opacity=".25" fill="#FFF" d="M5.5,9.8c-2.4,0-4.2-1.9-4.2-4.2s1.9-4.2,4.2-4.2	s4.2,1.9,4.2,4.2S7.9,9.8,5.5,9.8z"/><path opacity=".5" fill="#FFF" d="M5.5,9.2c-2.1,0-3.8-1.7-3.8-3.8s1.7-3.8,3.8-3.8	s3.8,1.7,3.8,3.8S7.6,9.2,5.5,9.2z"/><path opacity=".75" fill="#FFF" d="M5.5,8.8c-1.8,0-3.2-1.5-3.2-3.2s1.5-3.2,3.2-3.2	s3.2,1.5,3.2,3.2S7.3,8.8,5.5,8.8z"/><circle fill="#FFF" cx="5.5" cy="5.5" r="2.8"/><circle cx="5.5" cy="5.5" r="2.2"/></svg>