<svg xmlns="http://www.w3.org/2000/svg" viewBox="0 0 17 17" width="17" height="17"><path style="marker:none" d="M 3.5 1 L 0.5 3.5 C 1 4 2.5 5 1.5 7 C 0.5 9 0 12 2 14 C 4.5 16.5 7.5 14.5 8.5 16.5 C 9.5 14.5 12.5 16.5 15 14 C 17 12 16.5 9 15.5 7 C 14.5 5 16 4 16.5 3.5 L 13.5 1 C 11.5 2 11 3 8.5 1 C 6 3 5.5 2 3.5 1 z" transform="translate(-301,-901.36218) translate(301,901.36218)" color="#000" fill="#fff" fill-rule="evenodd" stroke="#4d4d4d" stroke-linecap="round" stroke-linejoin="round" overflow="visible"/></svg>