<svg viewBox="0 0 512 512" xmlns="http://www.w3.org/2000/svg"><path d="m256 0c-142.222 0-256 113.778-256 256s113.778 256 256 256c22.756 0 42.667-19.911 42.667-42.667 0-11.377-2.845-19.911-11.378-28.444-5.689-8.533-11.378-17.067-11.378-28.445 0-22.755 19.912-42.666 42.667-42.666h51.2c79.644 0 142.222-62.578 142.222-142.222 0-125.156-113.778-227.556-256-227.556zm-156.444 256c-22.756 0-42.667-19.911-42.667-42.667s19.911-42.666 42.667-42.666 42.666 19.911 42.666 42.666-19.911 42.667-42.666 42.667zm85.333-113.778c-22.756 0-42.667-19.911-42.667-42.666s19.911-42.667 42.667-42.667 42.667 19.911 42.667 42.667-19.912 42.666-42.667 42.666zm142.222 0c-22.755 0-42.667-19.911-42.667-42.666s19.912-42.667 42.667-42.667 42.667 19.911 42.667 42.667-19.911 42.666-42.667 42.666zm85.333 113.778c-22.755 0-42.666-19.911-42.666-42.667s19.911-42.666 42.666-42.666 42.667 19.911 42.667 42.666-19.911 42.667-42.667 42.667z"/></svg>