<svg viewBox="0 0 512 512" xmlns="http://www.w3.org/2000/svg"><path d="m387 230h125c-4-40-18-79-40-113-45 22-77 64-85 113zm-210.258 52c-8.156 65.196-46.742 123-104.742 154 42 43 98 70 158 76v-230zm210.258 0c8 49 40 91 85 113 22-34 36-73 40-113zm-347 113c45-21 76.499-63.704 85.041-113h-125.041c3 41 18 81 40 114zm296.258-113h-53.258v230c60-6 119-33 158-76-58-31-96.586-88.804-104.742-154zm-159.245-52h52.987v-230c-60 6-115 33-157 76 57 32 95.857 88.804 104.013 154zm158.987 0c8-65 47-122 105-154-42-43-98-70-158-76v230zm-210.959 0c-8.387-49.373-40.041-92-85.041-113-22 34-36 73-40 113z"/></svg>