<svg viewBox="0 0 512 512" xmlns="http://www.w3.org/2000/svg"><path d="m499 188.3-96.47-.009c9.442-15.916 15.106-34.259 15.106-53.952 0-59.616-48.286-107.903-107.903-107.903-9.171 0-17.804 1.349-26.436 3.507-22.795-19.24-51.637-29.841-81.467-29.943-50.984 0-94.685 29.943-115.186 73.104-42.622 14.297-73.644 54.222-73.644 101.699 0 50.175 34.529 91.987 80.927 104.126v233.071h296.734v-53.952l108.339-.048zm-378.097 40.454c-29.673 0-53.951-24.278-53.951-53.951 0-22.929 14.836-43.161 36.956-50.714l21.581-7.284 9.711-20.502c12.679-26.166 38.036-42.351 66.63-42.351 21.311 0 37.497 9.441 46.938 17.534l21.041 17.534s17.265-8.632 39.655-8.632c29.673 0 53.951 24.278 53.951 53.951h-80.927c-89.56 0-103.587 94.415-161.585 94.415zm323.709 175.343h-53.951v-161.855h53.951z"/></svg>