<svg viewBox="0 0 512 512" xmlns="http://www.w3.org/2000/svg"><path d="m77 179.2c0-99.072 80.128-179.2 179.2-179.2s179.2 80.128 179.2 179.2-80.128 179.2-179.2 179.2-179.2-80.128-179.2-179.2zm51.2 0c0 70.656 57.344 128 128 128s128-57.344 128-128-57.344-128-128-128-128 57.344-128 128zm102.4-25.6c0 14.138-11.462 25.6-25.6 25.6s-25.6-11.462-25.6-25.6 11.462-25.6 25.6-25.6 25.6 11.462 25.6 25.6zm102.4 0c0 14.138-11.462 25.6-25.6 25.6s-25.6-11.462-25.6-25.6 11.462-25.6 25.6-25.6 25.6 11.462 25.6 25.6zm-51.2-51.2c0 14.138-11.462 25.6-25.6 25.6s-25.6-11.462-25.6-25.6 11.462-25.6 25.6-25.6 25.6 11.462 25.6 25.6zm-153.6 281.6h256v51.2h-51.2c-28.16 0-51.2 23.04-51.2 51.2v25.6h-51.2v-25.6c0-28.16-23.04-51.2-51.2-51.2h-51.2z"/></svg>