<svg viewBox="0 0 512 512" xmlns="http://www.w3.org/2000/svg"><path d="m256 162.909c-51.2 0-93.091 41.891-93.091 93.091s41.891 93.091 93.091 93.091 93.091-41.891 93.091-93.091-41.891-93.091-93.091-93.091zm207.127 69.818c-11.636-97.745-88.436-174.545-183.854-183.854v-48.873h-46.546v48.873c-97.745 9.309-174.545 86.109-183.854 183.854h-48.873v46.546h48.873c11.636 97.745 88.436 174.545 183.854 183.854v48.873h46.546v-48.873c97.745-11.636 174.545-88.436 183.854-183.854h48.873v-46.546zm-207.127 186.182c-90.764 0-162.909-72.145-162.909-162.909s72.145-162.909 162.909-162.909 162.909 72.145 162.909 162.909-72.145 162.909-162.909 162.909z"/></svg>