<svg xmlns="http://www.w3.org/2000/svg" viewBox="0 0 512 512"><path d="M256 162.909C204.8 162.909 162.909 204.8 162.909 256 162.909 307.2 204.8 349.091 256 349.091 307.2 349.091 349.091 307.2 349.091 256 349.091 204.8 307.2 162.909 256 162.909ZM463.127 232.727C451.491 134.982 374.691 58.182 279.273 48.873V0H232.727V48.873C134.982 58.182 58.182 134.982 48.873 232.727H0V279.273H48.873C60.509 377.018 137.309 453.818 232.727 463.127V512H279.273V463.127C377.018 451.491 453.818 374.691 463.127 279.273H512V232.727H463.127ZM256 418.909C165.236 418.909 93.091 346.764 93.091 256S165.236 93.091 256 93.091 418.909 165.236 418.909 256 346.764 418.909 256 418.909Z"/></svg>