<svg xmlns="http://www.w3.org/2000/svg" viewBox="0 0 512 512"><path d="M455.111 0H56.889C25.6 0 0 25.6 0 56.889V455.111C0 486.4 25.6 512 56.889 512H455.111C486.4 512 512 486.4 512 455.111V56.889C512 25.6 486.4 0 455.111 0ZM193.422 295.822V398.222H142.222V113.778H264.533C307.2 113.778 327.111 122.311 344.177 139.378 364.089 156.444 369.777 179.2 369.777 204.8 369.777 233.244 361.243 256 344.177 270.222S307.2 292.978 264.533 292.978H193.422V295.822Z"/><path d="M193.422 256V153.6H258.844C278.757 153.6 292.979 159.289 301.511 170.667 310.044 182.044 315.733 190.578 315.733 204.8 315.733 221.867 310.044 230.4 301.511 241.778 292.979 250.311 281.6 256 261.689 256H193.422Z"/></svg>