<svg viewBox="0 0 512 512" xmlns="http://www.w3.org/2000/svg"><path d="m455.111 0h-398.222c-31.289 0-56.889 25.6-56.889 56.889v398.222c0 31.289 25.6 56.889 56.889 56.889h398.222c31.289 0 56.889-25.6 56.889-56.889v-398.222c0-31.289-25.6-56.889-56.889-56.889zm-261.689 295.822v102.4h-51.2v-284.444h122.311c42.667 0 62.578 8.533 79.644 25.6 19.912 17.066 25.6 39.822 25.6 65.422 0 28.444-8.534 51.2-25.6 65.422s-36.977 22.756-79.644 22.756h-71.111z"/><path d="m193.422 256v-102.4h65.422c19.913 0 34.135 5.689 42.667 17.067 8.533 11.377 14.222 19.911 14.222 34.133 0 17.067-5.689 25.6-14.222 36.978-8.532 8.533-19.911 14.222-39.822 14.222z"/></svg>