<svg viewBox="0 0 512 512" xmlns="http://www.w3.org/2000/svg"><path d="m188.69 101.408c-53.537 60.097-90.277 146.438-93.689 154.573l-95.001-40.677 126.23-126.23zm51.961 279.491s98.15-40.677 154.574-97.1c141.714-141.714 118.095-252.461 110.484-277.392-24.931-7.873-135.678-31.23-277.392 110.484-56.423 56.424-97.1 154.574-97.1 154.574zm170.057-57.472c-60.097 53.536-146.438 90.277-154.573 93.688l40.677 95.001 126.231-126.23zm-227.005 83.716c0 21.782-8.922 41.464-23.094 55.636-30.967 30.967-160.609 49.337-160.609 49.337s18.37-129.642 49.337-160.609c42.687-42.91 115.817-23.519 131.634 34.903 1.83 6.759 2.749 13.731 2.732 20.733zm104.974-236.19c0-28.868 23.619-52.487 52.486-52.487 28.868 0 52.487 23.619 52.487 52.487 0 28.867-23.619 52.486-52.487 52.486-28.867 0-52.486-23.619-52.486-52.486z"/></svg>