<svg viewBox="0 0 512 512" xmlns="http://www.w3.org/2000/svg"><path d="m452.836 85.617c-5.831-16.782-21.76-28.729-40.391-28.729h-71.112v-56.888h-170.666v56.889h-71.111c-18.631 0-34.56 11.947-40.391 28.73l-59.165 170.381v227.556c0 15.644 12.8 28.444 28.444 28.444h28.444c15.788 0 28.445-12.8 28.445-28.444v-28.444h341.334v28.444c0 15.644 12.8 28.444 28.444 28.444h28.444c15.786 0 28.444-12.8 28.444-28.444v-227.556zm-353.28 284.16c-23.609 0-42.667-19.057-42.667-42.666s19.058-42.667 42.667-42.667 42.667 19.057 42.667 42.667-19.059 42.666-42.667 42.666zm312.888 0c-23.609 0-42.667-19.057-42.667-42.666s19.058-42.667 42.667-42.667 42.667 19.057 42.667 42.667-19.058 42.666-42.667 42.666zm-355.555-142.221 42.667-128h312.889l42.667 128z"/></svg>