<svg viewBox="0 0 512 512" xmlns="http://www.w3.org/2000/svg"><path d="m411.504 34.628c-54.464-54.464-154.081-43.524-222.278 24.672-37.24 37.24-58.653 90.074-59.118 127.082-.466 36.774 6.051 90.54-31.422 128.013l-98.686 98.686 33.051 33.051 98.686-98.687c37.473-37.473 91.238-30.956 128.013-31.421 36.775-.466 89.842-21.879 127.082-59.119 67.963-68.196 79.135-167.813 24.672-222.277zm-214.131 213.898c-35.611-35.611-24.439-107.298 24.671-156.409 49.111-49.11 120.565-60.282 156.409-24.671 35.611 35.611 24.439 107.298-24.672 156.408-49.11 49.111-120.565 60.283-156.408 24.672zm178.752 123.824c12.336 0 24.207 4.887 32.818 13.732 18.155 18.154 18.155 47.714 0 65.868-8.611 8.612-20.482 13.5-32.818 13.5-12.335 0-24.206-4.888-32.817-13.732-18.155-18.155-18.155-47.714 0-65.869 8.611-8.612 20.482-13.499 32.817-13.499m0-46.551c-71.64-.139-116.561 77.32-80.857 139.418 4.096 7.146 9.147 13.732 14.989 19.551 18.155 18.155 42.128 27.232 65.868 27.232 71.641.14 116.562-77.32 80.858-139.418-4.096-7.145-9.147-13.732-14.989-19.551-17.48-17.456-41.174-27.255-65.869-27.232z"/></svg>