<?xml version="1.0" encoding="utf-8"?>
<svg id="Capa_1" style="enable-background:new 0 0 220 220;" x="0px" y="0px" viewBox="0 0 220 220" xmlns="http://www.w3.org/2000/svg">
  <path d="M 156.211 56.42 L 121.358 24.201 L 136.203 10.477 L 156.211 28.973 L 187.543 0.005 L 202.388 13.729 L 156.211 56.42 Z"/>
  <path d="M 156.211 137.996 L 121.358 105.774 L 136.203 92.051 L 156.211 110.547 L 187.543 81.58 L 202.388 95.305 L 156.211 137.996 Z"/>
  <path d="M 156.211 219.569 L 121.358 187.349 L 136.203 173.625 L 156.211 192.121 L 187.543 163.155 L 202.388 176.878 L 156.211 219.569 Z"/>
  <path d="M 81.617 55.895 L 16.699 55.895 L 16.699 0.779 L 81.617 0.779 L 81.617 55.895 Z"/>
  <path d="M 81.617 136.733 L 16.699 136.733 L 16.699 82.841 L 81.617 82.841 L 81.617 136.733 Z"/>
  <path d="M 81.617 218.796 L 16.699 218.796 L 16.699 163.68 L 81.617 163.68 L 81.617 218.796 Z"/>
  <g transform="matrix(1, 0, 0, 1.001932, 0, 0)"/>
  <g transform="matrix(1, 0, 0, 1.001932, 0, 0)"/>
  <g transform="matrix(1, 0, 0, 1.001932, 0, 0)"/>
  <g transform="matrix(1, 0, 0, 1.001932, 0, 0)"/>
  <g transform="matrix(1, 0, 0, 1.001932, 0, 0)"/>
  <g transform="matrix(1, 0, 0, 1.001932, 0, 0)"/>
  <g transform="matrix(1, 0, 0, 1.001932, 0, 0)"/>
  <g transform="matrix(1, 0, 0, 1.001932, 0, 0)"/>
  <g transform="matrix(1, 0, 0, 1.001932, 0, 0)"/>
  <g transform="matrix(1, 0, 0, 1.001932, 0, 0)"/>
  <g transform="matrix(1, 0, 0, 1.001932, 0, 0)"/>
  <g transform="matrix(1, 0, 0, 1.001932, 0, 0)"/>
  <g transform="matrix(1, 0, 0, 1.001932, 0, 0)"/>
  <g transform="matrix(1, 0, 0, 1.001932, 0, 0)"/>
  <g transform="matrix(1, 0, 0, 1.001932, 0, 0)"/>
</svg>