<?xml version="1.0" encoding="iso-8859-1"?>
<!-- Generator: Adobe Illustrator 16.0.0, SVG Export Plug-In . SVG Version: 6.00 Build 0)  -->
<!DOCTYPE svg PUBLIC "-//W3C//DTD SVG 1.1//EN" "http://www.w3.org/Graphics/SVG/1.1/DTD/svg11.dtd">
<svg version="1.1" id="Capa_1" xmlns="http://www.w3.org/2000/svg" xmlns:xlink="http://www.w3.org/1999/xlink" x="0px" y="0px"
	 width="404.49px" height="404.49px" viewBox="0 0 404.49 404.49" style="enable-background:new 0 0 404.49 404.49;"
	 xml:space="preserve">
<g>
	<g>
		<path d="M222.245,15.245h-40V0H99.462v404.49h82.783v-15.245h40v15.245h82.782V0h-82.782V15.245z M222.245,326.911h-40v-93.5h40
			V326.911z M222.245,171.078h-40v-93.5h40V171.078z"/>
		<path d="M396.161,199.821l-49.383-41.764c-0.584-0.494-1.314-0.751-2.051-0.751c-0.451,0-0.908,0.097-1.336,0.295
			c-1.121,0.521-1.839,1.645-1.839,2.88v83.529c0,1.234,0.718,2.358,1.839,2.879c1.122,0.521,2.442,0.342,3.387-0.457l49.383-41.763
			c0.713-0.603,1.125-1.489,1.125-2.425C397.286,201.311,396.874,200.425,396.161,199.821z"/>
		<path d="M61.097,157.601c-0.426-0.198-0.883-0.295-1.334-0.295c-0.736,0-1.467,0.257-2.051,0.751L8.329,199.821
			c-0.713,0.604-1.125,1.49-1.125,2.424c0,0.937,0.412,1.822,1.125,2.425l49.383,41.764c0.941,0.797,2.264,0.978,3.385,0.455
			c1.123-0.52,1.84-1.644,1.84-2.879v-83.528C62.936,159.246,62.22,158.122,61.097,157.601z"/>
	</g>
</g>
<g>
</g>
<g>
</g>
<g>
</g>
<g>
</g>
<g>
</g>
<g>
</g>
<g>
</g>
<g>
</g>
<g>
</g>
<g>
</g>
<g>
</g>
<g>
</g>
<g>
</g>
<g>
</g>
<g>
</g>
</svg>
