<svg viewBox="0 0 512 512" xmlns="http://www.w3.org/2000/svg"><path d="m416.405 454.376c0 13.422 10.882 24.303 24.304 24.303s24.304-10.881 24.304-24.303v-136.257c-16.695 4.535-32.937 8.485-48.608 11.92zm-348.617-178.539-43.502.031c-13.422.009-24.296 10.897-24.286 24.32.01 13.415 10.89 24.286 24.304 24.286h.018l16.184-.01v129.912c0 13.422 10.882 24.303 24.304 24.303s24.304-10.881 24.304-24.303v-129.946l27.816-.02c-19.439-12.749-36.177-29.289-49.142-48.573z"/><path d="m511.943 248.919c-4.054-12.796-17.716-19.882-30.509-15.826-147.095 46.616-267.585 42.705-268.761 42.661-.315-.013-.632-.019-.948-.019-53.133 0-96.361-43.229-96.361-96.362s43.228-96.361 96.361-96.361c52.765 0 96.36 42.921 96.36 96.361 0 24.562-9.325 47.547-25.28 64.982h.002c18.03-1.652 38.991-4.152 62.174-7.921 7.531-17.522 11.711-36.811 11.711-57.061 0-80.043-65.16-144.969-144.967-144.969-79.935 0-144.969 65.034-144.969 144.969 0 79.785 64.781 144.721 144.509 144.969 5.296.175 11.891.175 17.189.114v129.916c0 13.423 10.882 24.304 24.304 24.304s24.304-10.881 24.304-24.304c0-16.269 0-116.361 0-132.167 52.154-4.003 130.563-14.734 219.053-42.779 12.798-4.051 19.884-17.711 15.828-30.507z"/></svg>