<?xml version="1.0" encoding="iso-8859-1"?>
<!-- Generator: Adobe Illustrator 18.0.0, SVG Export Plug-In . SVG Version: 6.00 Build 0)  -->
<!DOCTYPE svg PUBLIC "-//W3C//DTD SVG 1.1//EN" "http://www.w3.org/Graphics/SVG/1.1/DTD/svg11.dtd">
<svg version="1.1" id="Capa_1" xmlns="http://www.w3.org/2000/svg" xmlns:xlink="http://www.w3.org/1999/xlink" x="0px" y="0px"
	 viewBox="0 0 316.67 316.67" style="enable-background:new 0 0 316.67 316.67;" xml:space="preserve">
<g>
	<path d="M257,280.435c0,8.284,6.716,15,15,15s15-6.716,15-15v-84.096c-10.304,2.799-20.328,5.237-30,7.357V280.435z"/>
	<path d="M41.838,170.243l-26.849,0.019C6.705,170.268-0.006,176.988,0,185.272c0.006,8.28,6.721,14.989,15,14.989
		c0.003,0,0.007,0,0.011,0L25,200.255v80.18c0,8.284,6.716,15,15,15s15-6.716,15-15v-80.201l17.168-0.012
		C60.17,192.353,49.84,182.145,41.838,170.243z"/>
	<path d="M315.965,153.63c-2.502-7.898-10.934-12.271-18.83-9.768c-90.785,28.771-165.15,26.357-165.876,26.33
		c-0.194-0.008-0.39-0.012-0.585-0.012c-32.793,0-59.473-26.68-59.473-59.473c0-32.793,26.68-59.473,59.473-59.473
		c32.566,0,59.472,26.49,59.472,59.473c0,15.159-5.755,29.345-15.602,40.106l0.001,0c11.128-1.02,24.065-2.563,38.373-4.889
		c4.648-10.814,7.228-22.719,7.228-35.217c0-49.402-40.216-89.473-89.472-89.473c-49.335,0-89.473,40.138-89.473,89.473
		c0,49.242,39.982,89.32,89.189,89.473c3.269,0.108,7.339,0.108,10.609,0.07c0,16.243,0,63.782,0,80.183c0,8.284,6.716,15,15,15
		c8.284,0,15-6.716,15-15c0-10.041,0-71.817,0-81.572c32.189-2.471,80.582-9.094,135.197-26.403
		C314.095,169.958,318.468,161.527,315.965,153.63z"/>
</g>
<g>
</g>
<g>
</g>
<g>
</g>
<g>
</g>
<g>
</g>
<g>
</g>
<g>
</g>
<g>
</g>
<g>
</g>
<g>
</g>
<g>
</g>
<g>
</g>
<g>
</g>
<g>
</g>
<g>
</g>
</svg>
