<svg viewBox="0 0 512 512" xmlns="http://www.w3.org/2000/svg"><path d="m350.163 322.748 42.25 41s-51.813 74.986-107.232 76.482c1.203 0 .294-211.055.098-262.205 36.879-12.039 63.754-45.633 63.754-85.627 0-50.218-41.906-90.9-93.548-90.9-51.739 0-93.645 40.682-93.645 90.875 0 39.331 26.041 72.606 62.112 85.236l.246 261.715c-66.868-4.611-105.565-68.955-105.565-68.955l45.169-43.695-163.802-24.23 24.814 158.873 43.576-42.152c37.737 30.381 80.356 93.475 182.904 93.475 128.833-3.285 158.58-72.631 191.609-99.9l47.668 46.466 23.565-160.394zm-142.959-231.873c0-25.846 21.605-46.835 48.234-46.835s48.331 20.989 48.331 46.835c0 25.919-21.702 46.886-48.331 46.886s-48.234-20.967-48.234-46.886z"/></svg>