<svg xmlns="http://www.w3.org/2000/svg" viewBox="0 0 512 512"><path d="M350.163 322.748L392.413 363.748C392.413 363.748 340.6 438.734 285.181 440.23 286.384 440.23 285.475 229.175 285.279 178.025 322.158 165.986 349.033 132.392 349.033 92.398 349.033 42.18 307.127 1.498 255.485 1.498 203.746 1.498 161.84 42.18 161.84 92.373 161.84 131.704 187.881 164.979 223.952 177.609L224.198 439.324C157.33 434.713 118.633 370.369 118.633 370.369L163.802 326.674 0 302.444 24.814 461.317 68.39 419.165C106.127 449.546 148.746 512.64 251.294 512.64 380.127 509.355 409.874 440.009 442.903 412.74L490.571 459.206 514.136 298.812 350.163 322.748ZM207.204 90.875C207.204 65.029 228.809 44.04 255.438 44.04S303.769 65.029 303.769 90.875C303.769 116.794 282.067 137.761 255.438 137.761S207.204 116.794 207.204 90.875Z"/></svg>