<?xml version="1.0" encoding="iso-8859-1"?>
<!-- Generator: Adobe Illustrator 18.1.1, SVG Export Plug-In . SVG Version: 6.00 Build 0)  -->
<svg version="1.1" id="Capa_1" xmlns="http://www.w3.org/2000/svg" xmlns:xlink="http://www.w3.org/1999/xlink" x="0px" y="0px"
	 viewBox="0 0 30.989 30.989" style="enable-background:new 0 0 30.989 30.989;" xml:space="preserve">
<g>
	<g id="b198_cup">
		<path d="M21.892,28.287v-12.75l8.962-8.963H17.807c0.005-0.193,0.01-0.385,0.01-0.582c0-2.049-0.509-4.033-1.475-5.73L16.192,0
			H1.765l-0.15,0.262c-0.966,1.699-1.48,3.681-1.48,5.73c0,5.197,3.284,9.508,7.55,10.242v12.818
			c-2.556,0.104-4.459,0.492-4.459,0.955c0,0.543,2.596,0.982,5.797,0.982c3.202,0,5.796-0.439,5.796-0.982
			c0-0.463-1.901-0.852-4.457-0.955V16.217c2.002-0.369,3.785-1.531,5.104-3.199l2.519,2.52v12.75
			c-2.124,0.318-2.575,0.59-2.625,0.623l-0.163,0.107v1.023h9.481v-1.023l-0.16-0.107C24.466,28.877,24.011,28.605,21.892,28.287z
			 M8.979,15.309c-4.303,0-7.803-4.178-7.803-9.316c0-1.766,0.414-3.471,1.194-4.955h13.213c0.784,1.482,1.199,3.189,1.199,4.955
			C16.782,11.131,13.282,15.309,8.979,15.309z M21.18,15.391h-2.484v-0.148l-2.805-2.803c0.989-1.453,1.651-3.221,1.857-5.152
			h11.387l-7.955,7.955V15.391z"/>
		<path d="M15.55,6.314H2.489c-0.575,1.016,0.159,8.26,6.94,8.26C15.407,14.574,16.126,7.33,15.55,6.314z"/>
	</g>
	<g id="Capa_1_165_">
	</g>
</g>
<g>
</g>
<g>
</g>
<g>
</g>
<g>
</g>
<g>
</g>
<g>
</g>
<g>
</g>
<g>
</g>
<g>
</g>
<g>
</g>
<g>
</g>
<g>
</g>
<g>
</g>
<g>
</g>
<g>
</g>
</svg>
