<svg viewBox="0 0 512 512" xmlns="http://www.w3.org/2000/svg"><path d="m373.623 482.765v-217.6l152.952-152.969h-222.669c.085-3.294.171-6.57.171-9.933 0-34.969-8.687-68.829-25.174-97.792l-2.56-4.471h-246.22l-2.56 4.471c-16.487 28.997-25.259 62.823-25.259 97.792 0 88.696 56.047 162.27 128.853 174.797v218.761c-43.622 1.775-76.1 8.397-76.1 16.298 0 9.268 44.305 16.76 98.936 16.76 54.647 0 98.918-7.492 98.918-16.76 0-7.901-32.444-14.54-76.066-16.298v-219.051c34.167-6.297 64.597-26.129 87.108-54.596l42.991 43.008v217.6c-36.25 5.427-43.947 10.069-44.8 10.632l-2.782 1.827v17.459h161.809v-17.459l-2.73-1.827c-.888-.58-8.653-5.222-44.818-10.649zm-220.381-221.491c-73.438 0-133.172-71.305-133.172-158.993 0-30.14 7.066-59.239 20.378-84.566h225.502c13.38 25.293 20.463 54.426 20.463 84.566 0 87.688-59.734 158.993-133.171 158.993zm208.23 1.399h-42.394v-2.526l-47.872-47.838c16.879-24.798 28.177-54.971 31.693-87.927h194.338l-135.765 135.765z"/><path d="m265.387 107.759h-222.908c-9.813 17.34 2.714 140.971 118.443 140.971 102.024 0 114.295-123.631 104.465-140.971z"/></svg>