<?xml version="1.0" encoding="iso-8859-1"?>
<!-- Generator: Adobe Illustrator 16.0.0, SVG Export Plug-In . SVG Version: 6.00 Build 0)  -->
<!DOCTYPE svg PUBLIC "-//W3C//DTD SVG 1.1//EN" "http://www.w3.org/Graphics/SVG/1.1/DTD/svg11.dtd">
<svg version="1.1" id="Capa_1" xmlns="http://www.w3.org/2000/svg" xmlns:xlink="http://www.w3.org/1999/xlink" x="0px" y="0px"
	 width="486.461px" height="486.462px" viewBox="0 0 486.461 486.462" style="enable-background:new 0 0 486.461 486.462;"
	 xml:space="preserve">
<g>
	<g>
		<path d="M290.93,51.796c-0.146-0.106-0.291-0.206-0.438-0.311c0.225,0.163,0.474,0.345,0.729,0.531
			C291.125,51.945,291.03,51.87,290.93,51.796z"/>
		<path d="M486.225,216.005c0-20.543-3.245-41.053-9.619-60.582c-6.416-19.658-15.965-38.238-27.992-55.048
			c-12.518-17.496-27.674-33.061-44.576-46.351c-16.807-13.213-35.368-24.152-55.003-32.6
			c-19.976-8.595-41.039-14.608-62.511-18.021c-22.06-3.507-44.557-4.294-66.81-2.406c-21.843,1.852-43.468,6.323-64.205,13.442
			c-20.281,6.963-39.697,16.459-57.556,28.337c-17.927,11.923-34.31,26.231-48.333,42.578
			c-13.603,15.857-24.939,33.666-33.25,52.847c-8.14,18.79-13.328,38.827-15.267,59.214c-0.717,7.553-0.981,15.137-0.822,22.721
			l0.021,0.714l64.138,21.091l59.593-19.669l59.593,19.669l42.104-13.897v159.752h35V228.051l42.079,13.889l59.595-19.669
			l59.599,19.669l64.173-21.2l-0.007-0.604C486.196,218.76,486.225,217.385,486.225,216.005z M114.115,82.688
			c-7.783,9.963-14.641,20.487-20.393,31.754C82.45,136.523,75.13,160.646,71.99,185.237c-0.76,5.944-1.266,11.894-1.627,17.874
			l-0.102,1.742c-0.03,0.572-0.074,1.198-0.077,1.66l-0.073,2.988l-0.012,0.537l-5.659,1.868l-33.507-11.06
			C37.223,133.1,85.265,75.501,152.501,47.746c-4.05,2.606-7.986,5.363-11.795,8.313c-4.809,3.976-9.582,7.981-13.961,12.438
			C122.306,73.017,118.018,77.694,114.115,82.688z M178.562,210.236l-52.727-17.403c0.394-4.584,0.992-9.139,1.588-13.698
			l0.373-2.589c1.708-12.438,4.707-24.88,8.528-36.83c3.798-11.878,8.617-23.313,14.297-34.407c1.589-3.104,3.345-6.146,5.165-9.121
			c-0.044,0.069-0.012,0.014,0.205-0.339c-0.068,0.112-0.136,0.227-0.205,0.339c0.092-0.144,0.52-0.83,0.416-0.672
			c1.897-3.007,3.795-5.998,5.768-8.959c1.257-1.737,2.511-3.477,3.766-5.216c0.873-1.107,1.739-2.205,2.598-3.292
			c2.818-3.812,6.119-7.389,9.406-10.798c3.273-3.395,6.729-6.612,10.342-9.642c6.963-5.837,14.502-10.95,22.526-15.212
			C191.921,76.36,179.212,138.606,178.562,210.236z M307.887,210.231c-0.65-71.628-13.359-133.872-32.047-167.834
			c4.615,2.451,9.577,5.442,14.652,9.089c-1.008-0.733-1.484-1.083,0.438,0.311c4.014,2.924,2.021,1.478,0.293,0.221
			c4.746,3.476,9.274,7.245,13.533,11.304c2.356,2.246,4.631,4.578,6.812,6.993c2.253,2.491,4.548,5.033,6.546,7.734
			c0.858,1.087,1.726,2.185,2.599,3.292c1.255,1.739,2.509,3.479,3.766,5.216c6.86,10.295,13.202,21.043,17.915,32.515
			c2.376,5.786,4.683,11.559,6.69,17.487c1.997,5.896,3.706,11.89,5.184,17.937c1.773,7.262,3.367,14.643,4.385,22.051l0.373,2.589
			c0.596,4.559,1.194,9.111,1.588,13.695L307.887,210.231z M422.002,211.907l-5.652-1.865l-0.012-0.54l-0.073-2.988
			c-0.003-0.462-0.047-1.088-0.078-1.66l-0.101-1.742c-1.519-25.146-6.656-49.96-16.255-73.302
			c-9.502-23.106-23.214-44.442-40.922-62.111c-4.155-4.146-8.647-7.901-13.168-11.638c-3.809-2.95-7.746-5.707-11.795-8.313
			c67.237,27.756,115.279,85.353,121.568,153.1L422.002,211.907z"/>
		<polygon points="359.456,416.537 43.284,416.537 15.411,444.41 15.411,486.462 55.411,486.462 55.411,456.537 338.266,456.537 
			338.266,486.462 378.266,486.462 378.266,454.294 471.051,361.511 442.768,333.227 		"/>
	</g>
</g>
<g>
</g>
<g>
</g>
<g>
</g>
<g>
</g>
<g>
</g>
<g>
</g>
<g>
</g>
<g>
</g>
<g>
</g>
<g>
</g>
<g>
</g>
<g>
</g>
<g>
</g>
<g>
</g>
<g>
</g>
</svg>
