<svg viewBox="0 0 512 512" xmlns="http://www.w3.org/2000/svg"><path d="m306.494 54.567c-.154-.112-.306-.217-.461-.328.237.172.499.364.768.56-.101-.075-.201-.154-.307-.232z"/><path d="m512.237 227.561c0-21.642-3.419-43.249-10.134-63.823-6.759-20.71-16.819-40.284-29.489-57.993-13.188-18.432-29.155-34.83-46.961-48.831-17.706-13.92-37.26-25.444-57.945-34.344-21.045-9.055-43.235-15.389-65.856-18.985-23.24-3.695-46.94-4.524-70.384-2.535-23.011 1.951-45.793 6.662-67.64 14.161-21.366 7.336-41.82 17.34-60.635 29.853-18.886 12.561-36.145 27.635-50.918 44.856-14.331 16.706-26.274 35.467-35.029 55.674-8.576 19.796-14.041 40.905-16.084 62.382-.755 7.957-1.033 15.947-.866 23.937l.022.752 67.569 22.219 62.782-20.721 62.781 20.721 44.356-14.64v168.298h36.873v-168.291l44.33 14.632 62.783-20.721 62.787 20.721 67.606-22.334-.007-.636c.028-1.45.059-2.898.059-4.352zm-392.017-140.449c-8.199 10.496-15.424 21.583-21.484 33.452-11.875 23.263-19.587 48.676-22.895 74.583-.8 6.262-1.333 12.53-1.714 18.83l-.107 1.835c-.032.603-.078 1.262-.081 1.749l-.077 3.148-.013.566-5.962 1.968-35.299-11.652c6.626-71.37 57.239-132.051 128.071-161.291-4.266 2.746-8.413 5.65-12.426 8.758-5.066 4.189-10.094 8.408-14.707 13.103-4.677 4.762-9.194 9.689-13.306 14.951zm67.895 134.371-55.548-18.334c.415-4.829 1.045-9.628 1.673-14.431l.393-2.727c1.799-13.104 4.959-26.211 8.984-38.8 4.001-12.514 9.078-24.561 15.062-36.248 1.674-3.27 3.524-6.475 5.441-9.609-.046.073-.012.015.216-.357-.071.118-.143.239-.216.357.097-.152.548-.875.438-.708 1.999-3.168 3.999-6.319 6.077-9.438 1.324-1.83 2.645-3.663 3.968-5.495.919-1.167 1.832-2.323 2.737-3.469 2.968-4.015 6.446-7.784 9.909-11.375 3.448-3.577 7.089-6.966 10.895-10.158 7.336-6.149 15.278-11.536 23.731-16.026-19.687 35.78-33.076 101.356-33.76 176.818zm136.243-.005c-.684-75.46-14.073-141.034-33.761-176.813 4.862 2.582 10.089 5.733 15.436 9.575-1.062-.772-1.564-1.141.461.328 4.229 3.08 2.129 1.557.309.233 5 3.662 9.77 7.632 14.257 11.909 2.482 2.366 4.879 4.823 7.176 7.367 2.374 2.624 4.792 5.302 6.896 8.147.904 1.146 1.819 2.302 2.738 3.469 1.323 1.832 2.644 3.665 3.968 5.495 7.227 10.845 13.908 22.168 18.873 34.254 2.503 6.096 4.934 12.177 7.048 18.423 2.104 6.211 3.905 12.526 5.462 18.896 1.867 7.651 3.547 15.427 4.619 23.231l.393 2.727c.628 4.803 1.258 9.599 1.673 14.428zm120.22 1.766-5.954-1.965-.013-.569-.077-3.148c-.003-.487-.049-1.146-.082-1.749l-.106-1.835c-1.601-26.491-7.012-52.633-17.125-77.223-10.01-24.343-24.456-46.82-43.111-65.434-4.377-4.368-9.11-8.324-13.873-12.261-4.012-3.108-8.16-6.012-12.426-8.758 70.834 29.241 121.447 89.92 128.072 161.291z"/><path d="m378.686 438.821h-333.086l-29.365 29.364v44.302h42.14v-31.526h297.988v31.526h42.139v-33.889l97.749-97.747-29.796-29.797z"/></svg>