<svg viewBox="0 0 512 512" xmlns="http://www.w3.org/2000/svg"><path d="m511.632 34.584c-1.328-2.597-4.819-2.897-7.329-2.897-8.699 0-25.724 4.456-51.492 11.201l-8.418 2.2c-39.121 10.205-76.586 39.077-92.585 51.405-.208.162-.416.32-.62.478 14.591-19.051 53.199-77.852 49.988-84.678-.357-.758-1.057-1.194-1.919-1.194-3.522 0-7.44 3.872-14.553 10.9-10.132 10.012-27.089 26.769-57.669 46.908-19.627 12.924-40.802 31.398-59.482 47.697-23.981 20.925-46.634 40.689-57.334 40.689-2.007 0-3.495-.717-4.55-2.193-13.893-19.451-28.182-29.917-42.469-31.108-3.028-.252-6.157-.513-9.34-.513-11.981 0-25.532 3.304-43.396 27.266-3.972 5.328-42.465 9.723-70.571 12.932-14.924 1.704-27.814 3.176-34.662 4.579-3.734.765-5.378 1.168-5.222 2.713.152 1.495 1.583 1.62 5.966 1.62 5.306 0 14.861-.404 25.925-.872 16.885-.713 37.899-1.602 55.695-1.602 19.148 0 30.882 1.05 34.876 3.12 15.46 8.017 38.192 37.83 57.909 75.952 19.136 36.99 68.083 76.18 99.061 86.508 23.698 7.898 27.443 28.917 33.111 60.733 1.445 8.109 3.084 17.3 5.204 26.943 7.112 32.326 11.107 36.685 14.076 36.685 2.563 0 4.209-3.281 5.343-10.639.158-1.032.284-2.008.384-2.925 10.657 37.132 16.238 41.917 19.912 41.917.784 0 1.484-.342 1.97-.966 2.184-2.803.012-12.002-3.712-26.78-1.945-7.718-4.545-18.039-4.185-21.048 2.953 2.853 10.919 17.617 16.851 28.612 13.493 25.013 18.19 32.801 21.276 32.801.356 0 .7-.095 1-.275 3.233-1.941.152-10.77-8.81-33.654-4.717-12.047-9.593-24.498-10.124-29.879 2.724 2.028 9.45 10.695 14.496 17.2 10.463 13.483 15.331 19.392 18.048 19.391.596 0 1.132-.246 1.508-.688.599-.707.736-1.815.442-3.594-1.216-7.372-11.102-29.904-21.57-53.76-8.974-20.454-18.254-41.606-20.452-49.948-4.822-18.329-32.962-87.764-41.469-104.777-5.656-11.312 15.168-24.291 30.372-33.768 6.675-4.16 12.439-7.753 15.417-10.731 4.803-4.802 10.132-7.17 15.775-9.678 5.617-2.496 11.424-5.078 16.577-10.23 6.92-6.921 8.086-12.745 9.212-18.377.555-2.775 1.079-5.395 2.268-8.169 1.562-3.642 6.822-5.739 12.392-7.959 6.527-2.601 13.924-5.551 17.412-11.828 2.45-4.408 3.924-9.612 5.352-14.645 2.112-7.452 4.108-14.492 8.78-15.828 8.968-2.563 23.118-11.478 25.795-20.176l.445-1.463c2.606-8.579 8.706-28.667 23.858-49.644 5.077-7.036 6.645-11.212 5.237-13.964z"/></svg>