<svg viewBox="0 0 512 512" xmlns="http://www.w3.org/2000/svg"><path d="m414.643 218.88h-23.321c-4.813 0-9.472.486-14.029 1.331v-52.659c0-2.867-.333-5.658-.845-8.371 15.334-11.341 25.37-29.389 25.37-49.869 0-38.144-35.124-68.736-73.805-61.082-12.8-13.465-31.053-21.068-49.818-20.121-11.981-17.357-31.923-28.109-53.197-28.109-17.28 0-33.612 6.861-45.644 18.79-3.2-1.305-6.477-2.355-9.805-3.123l-4.199-.819c-3.225-.512-6.451-.794-9.753-.845-4.839-.384-9.498-.358-14.08.026h-1.255v.102c-27.494 2.765-50.662 19.047-59.75 41.754-27.008 5.12-47.488 28.902-47.488 57.318 0 19.84 9.984 37.325 25.139 47.872-.307 2.125-.64 4.25-.64 6.477v315.11c0 23.168 18.842 42.036 42.01 42.036h235.725c23.168 0 42.035-18.842 42.035-42.036v-64.358c4.557.845 9.216 1.357 14.029 1.357h23.321c42.471 0 77.031-34.586 77.031-77.056v-46.643c0-42.496-34.56-77.082-77.031-77.082zm-65.382 263.782c0 7.732-6.247 14.004-14.003 14.004h-235.725c-7.731 0-14.003-6.272-14.003-14.004v-315.11c0-7.731 6.272-14.003 14.003-14.003h235.725c7.756 0 14.003 6.272 14.003 14.003zm12.467-347.494c-7.219-5.939-16.384-9.651-26.47-9.651h-235.725c-10.675 0-20.301 4.121-27.725 10.675-6.554-5.555-10.778-13.747-10.778-22.989 0-16.665 13.543-30.259 30.234-30.31l11.469-.051 2.227-11.239c2.611-13.158 16.256-27.059 37.171-29.491h15.437c6.272.435 12.314 2.483 17.638 5.99l11.572 7.655 7.756-11.495c6.861-10.163 18.253-16.256 30.49-16.256 14.234 0 26.88 8.064 33.075 21.069l4.711 9.907 10.752-2.201c14.617-2.944 29.542 3.174 37.836 15.283l6.119 9.011 10.24-3.763c4.121-1.51 7.987-2.253 11.801-2.253 18.868 0 34.253 15.36 34.253 34.253 0 10.368-4.761 19.584-12.083 25.856zm87.936 207.437c0 19.302-15.693 35.021-35.021 35.021h-23.321c-4.992 0-9.728-1.076-14.029-2.97v-110.746c4.301-1.894 9.037-2.969 14.029-2.969h23.321c19.303 0 35.021 15.693 35.021 35.021z"/><path d="m99.533 204.877h235.776v277.785h-235.776z"/></svg>