<svg viewBox="0 0 512 512" xmlns="http://www.w3.org/2000/svg"><path d="m453.107 185.399c9.55-3.856 19.242-7.347 29.044-10.619 0 0-2.329-.019-6.701-.05-.455 0-.519.004-.394.004-8.469.011-16.924.261-25.358.725l-44.551-129.978-3.016-8.801-4.399 8.224-85.7 160.329c-10.887 4.185-21.629 8.761-32.207 13.685l-64.226-171.978-3.727-9.977-3.809 9.939-120.652 314.907c-8.771 9.333-17.332 18.862-25.621 28.632-12.429 14.643-24.319 29.748-35.558 45.326-9.226 12.784-18.15 25.866-26.077 39.502l-.155.327h96.735l21.106-40.209 27.865.024c-8.654 17.038-14.825 31.236-18.494 40.185h106.483c7.389-39.449 19.66-78.251 36.97-114.484 5.709-11.95 11.99-23.637 18.835-34.98l32.075 108.948h38.98l-51.576-138.103c9.183-12.423 19.158-24.255 29.961-35.332 26.876-27.551 58.515-50.239 93.162-66.994.452-.218.91-.424 1.363-.642l40.304 164.012h38.507zm-319.048 130.941 77.696-254.306 48.946 166.264c-4.232 2.182-8.439 4.417-12.613 6.709-35.663 19.614-69.194 43.075-100.261 69.348-4.647 3.93-9.225 7.939-13.768 11.985zm39.427 70.302-26.296-.006s23.35-31.497 35.395-46.236l24.12.09c-11.491 14.062-22.668 29.591-33.219 46.152zm73.075-88.112-24.717.136 48.972-36.823 4.006 14.427c-9.58 6.603-19.034 14.028-28.261 22.26zm65.412-49.216-12.36-5.364 45.663-27.056 12.694 1.178c-20.466 11.437-45.997 31.242-45.997 31.242zm68.256-44.375-9.008-1.552s23.876-11.755 51.243-19.555l2.586.506c-22.238 7.499-44.821 20.601-44.821 20.601zm-18.186-15.876c-5.72 1.502-11.408 3.129-17.066 4.847l55.398-134.551 28.919 117.678c-22.659 2.263-45.126 6.219-67.251 12.026z"/></svg>