<svg xmlns="http://www.w3.org/2000/svg" viewBox="0 0 512 512"><path d="M453.107 185.399C462.657 181.543 472.349 178.052 482.151 174.78 482.151 174.78 479.822 174.761 475.45 174.73 474.995 174.73 474.931 174.734 475.056 174.734 466.587 174.745 458.132 174.995 449.698 175.459L405.147 45.481 402.131 36.68 397.732 44.904 312.032 205.233C301.145 209.418 290.403 213.994 279.825 218.918L215.599 46.94 211.872 36.963 208.063 46.902 87.411 361.809C78.64 371.142 70.079 380.671 61.79 390.441 49.361 405.084 37.471 420.189 26.232 435.767 17.006 448.551 8.082 461.633 0.155 475.269L0 475.596H96.735L117.841 435.387 145.706 435.411C137.052 452.449 130.881 466.647 127.212 475.596H233.695C241.084 436.147 253.355 397.345 270.665 361.112 276.374 349.162 282.655 337.475 289.5 326.132L321.575 435.08H360.555L308.979 296.977C318.162 284.554 328.137 272.722 338.94 261.645 365.816 234.094 397.455 211.406 432.102 194.651 432.554 194.433 433.012 194.227 433.465 194.009L473.769 358.021H512.276L453.107 185.399ZM134.059 316.34L211.755 62.034 260.701 228.298C256.469 230.48 252.262 232.715 248.088 235.007 212.425 254.621 178.894 278.082 147.827 304.355 143.18 308.285 138.602 312.294 134.059 316.34ZM173.486 386.642L147.19 386.636C147.19 386.636 170.54 355.139 182.585 340.4L206.705 340.49C195.214 354.552 184.037 370.081 173.486 386.642ZM246.561 298.53L221.844 298.666 270.816 261.843 274.822 276.27C265.242 282.873 255.788 290.298 246.561 298.53ZM311.973 249.314L299.613 243.95 345.276 216.894 357.97 218.072C337.504 229.509 311.973 249.314 311.973 249.314ZM380.229 204.939L371.221 203.387C371.221 203.387 395.097 191.632 422.464 183.832L425.05 184.338C402.812 191.837 380.229 204.939 380.229 204.939ZM362.043 189.063C356.323 190.565 350.635 192.192 344.977 193.91L400.375 59.359 429.294 177.037C406.635 179.3 384.168 183.256 362.043 189.063Z"/></svg>