<svg viewBox="0 0 512 512" xmlns="http://www.w3.org/2000/svg"><path d="m471.074 126.407c-4.221-41.267-10.945-73.398-21.584-86.027-43.861-51.928-351.106-55.729-385.991 0-8.533 13.653-14.518 45.67-18.534 86.095-12.959 1.525-23.051 12.436-23.051 25.794v50.551c0 11.242 7.122 20.719 17.066 24.417-2.355 79.622-.443 162.691 3.084 204.004 0 31.891 21.424 26.601 21.424 26.601h20.082v34.429c0 13.653 14.074 24.701 31.414 24.701 17.362 0 31.437-11.048 31.437-24.701v-34.429h233.631v34.429c0 13.653 14.063 24.701 31.425 24.701 17.34 0 31.414-11.048 31.414-24.701v-34.429h6.599s25.214 3.459 26.829-11.56c0-41.199 2.594-132.506.455-218.692 10.57-3.311 18.284-13.051 18.284-24.77v-50.551c.012-13.676-10.569-24.77-23.984-25.862zm-332.538-78.62h235.918v35.692h-235.918zm3.368 369.402c-18.523 0-33.531-15.019-33.531-33.542 0-18.511 15.008-33.519 33.531-33.519s33.541 15.008 33.541 33.519c0 18.523-15.007 33.542-33.541 33.542zm231.287 0c-18.512 0-33.553-15.019-33.553-33.542 0-18.511 15.03-33.519 33.553-33.519s33.53 15.008 33.53 33.519c.012 18.523-15.007 33.542-33.53 33.542zm42.633-146.773h-318.658v-167.14h318.658z"/></svg>