<?xml version="1.0" encoding="iso-8859-1"?>
<!-- Generator: Adobe Illustrator 16.0.0, SVG Export Plug-In . SVG Version: 6.00 Build 0)  -->
<!DOCTYPE svg PUBLIC "-//W3C//DTD SVG 1.1//EN" "http://www.w3.org/Graphics/SVG/1.1/DTD/svg11.dtd">
<svg version="1.1" id="Capa_1" xmlns="http://www.w3.org/2000/svg" xmlns:xlink="http://www.w3.org/1999/xlink" x="0px" y="0px"
	 width="46.197px" height="46.197px" viewBox="0 0 46.197 46.197" style="enable-background:new 0 0 46.197 46.197;"
	 xml:space="preserve">
<g>
	<g>
		<path d="M15.815,28.165v0.94h6.006v-0.94c0-2.692-1.068-5.274-2.966-7.183l-0.031-0.03l-0.039,0.03
			C16.89,22.891,15.815,25.473,15.815,28.165z"/>
		<path d="M43.675,35.402l-12.43-5.032v-1.451l0.711,0.777c0.547,0.59,1.463,0.624,2.054,0.077l1.621-1.508
			c0.59-0.547,0.62-1.47,0.072-2.061L20.528,9.82V6.191h1.148c0.652,0,1.254-0.52,1.254-1.17V4.094c0-0.652-0.602-1.136-1.254-1.136
			h-1.148V1.159C20.528,0.507,19.917,0,19.265,0h-0.928c-0.651,0-1.136,0.507-1.136,1.159v1.798h-1.274
			c-0.653,0-1.127,0.484-1.127,1.136V5.02c0,0.652,0.475,1.17,1.127,1.17h1.274v3.595L1.944,26.206
			c-0.548,0.59-0.514,1.513,0.076,2.06l1.624,1.509c0.589,0.547,1.496,0.513,2.042-0.077l0.706-0.778v15.565
			c0,0.943,0.799,1.713,1.744,1.713h34.946c0.841,0,1.562-0.71,1.562-1.551v-7.836C44.643,36.192,44.247,35.635,43.675,35.402z
			 M27.827,42.779h-4.711v-5.178c0-2.338-1.911-4.246-4.249-4.246h-0.085c-2.338,0-4.258,1.908-4.258,4.246v5.178H9.812V25.236
			l9.009-9.67l9.008,9.67v17.543H27.827z M41.595,43.149H31.431v-9.425l10.164,4.111V43.149z"/>
	</g>
</g>
<g>
</g>
<g>
</g>
<g>
</g>
<g>
</g>
<g>
</g>
<g>
</g>
<g>
</g>
<g>
</g>
<g>
</g>
<g>
</g>
<g>
</g>
<g>
</g>
<g>
</g>
<g>
</g>
<g>
</g>
</svg>
