<svg viewBox="0 0 512 512" xmlns="http://www.w3.org/2000/svg"><path d="M37.5 293.5c15.376 0 28.583-9.258 34.371-22.5h37.117c3.45-11.364 9.759-21.707 18.216-30h-55.333c-5.787-13.242-18.995-22.5-34.371-22.5-20.711 0-37.5 16.789-37.5 37.5s16.789 37.5 37.5 37.5zM474.5 218.5c-15.376 0-28.583 9.258-34.371 22.5h-55.225c8.423 8.266 14.719 18.586 18.15 30h37.074c5.787 13.242 18.995 22.5 34.371 22.5 20.711 0 37.5-16.789 37.5-37.5s-16.788-37.5-37.499-37.5zM106.205 127.418l54.385 54.385c6.438-7.756 14.213-14.365 22.987-19.439l-56.158-56.159c5.271-13.456 2.479-29.341-8.394-40.214-14.645-14.645-38.388-14.645-53.033 0s-14.645 38.388 0 53.033c10.872 10.873 26.757 13.666 40.213 8.394zM405.795 384.582l-33.655-33.655c-9.568 5.792-20.625 9.358-32.451 9.975l44.893 44.893c-5.271 13.456-2.478 29.341 8.394 40.214 14.645 14.645 38.388 14.645 53.033 0s14.645-38.388 0-53.033c-10.873-10.873-26.758-13.666-40.214-8.394zM241 71.871v80.488c10.647 1.931 20.831 5.903 30 11.643v-92.131c13.242-5.787 22.5-18.995 22.5-34.371 0-20.711-16.789-37.5-37.5-37.5s-37.5 16.789-37.5 37.5c0 15.376 9.258 28.583 22.5 34.371zM271 440.129v-79.129h-30v79.129c-13.242 5.787-22.5 18.995-22.5 34.371 0 20.711 16.789 37.5 37.5 37.5s37.5-16.789 37.5-37.5c0-15.376-9.258-28.583-22.5-34.371zM343.563 189.651l117.242-117.243c4.244 1.667 8.86 2.592 13.695 2.592 20.711 0 37.5-16.789 37.5-37.5s-16.789-37.5-37.5-37.5-37.5 16.789-37.5 37.5c0 4.835.925 9.452 2.592 13.696l-122.978 122.977c9.897 3.043 19.152 8.265 26.949 15.478zM139.86 350.926l-88.665 88.665c-4.244-1.666-8.86-2.591-13.695-2.591-20.711 0-37.5 16.789-37.5 37.5s16.789 37.5 37.5 37.5 37.5-16.789 37.5-37.5c0-4.835-.925-9.452-2.592-13.696l99.903-99.903c-11.826-.616-22.883-4.183-32.451-9.975zM376 291c0-17.848-12.005-33.688-29.194-38.519-6.179-1.736-10.567-7.211-10.919-13.619-.544-9.924-4.665-19.209-11.603-26.146-10.799-10.799-27.073-14.519-41.463-9.475-5.693 1.994-12.021.388-16.071-4.077-10.474-11.543-25.327-18.164-40.75-18.164-30.327 0-55 24.673-55 55 0 .974.027 1.962.082 2.938.361 6.477-3.48 12.452-9.523 14.81-15.288 5.966-25.559 20.936-25.559 37.252 0 22.056 17.944 40 40 40h160c22.056 0 40-17.944 40-40z"/></svg>