<svg viewBox="0 0 512 512" xmlns="http://www.w3.org/2000/svg"><path d="m.784 0v512.973h160.126l-88.862-512.973zm487.971 164.591c-12.203-8.988-28.914-21.299-59.79-21.299-30.879 0-47.591 12.31-59.792 21.299-8.982 6.616-12.697 9.354-23.432 9.354-10.73 0-14.447-2.738-23.426-9.353-12.204-8.988-28.912-21.3-59.787-21.3s-47.587 12.31-59.788 21.299c-8.979 6.616-12.694 9.354-23.427 9.354-10.73 0-14.447-2.738-23.425-9.353-7.257-5.345-16.11-11.867-28.588-16.274l13.685 79.003c9.801 4.529 22.108 7.927 38.328 7.927 30.876 0 47.587-12.308 59.79-21.3 8.978-6.616 12.695-9.353 23.426-9.353 10.733 0 14.449 2.737 23.427 9.353 12.204 8.99 28.915 21.3 59.787 21.3 30.879 0 47.591-12.308 59.792-21.3 8.982-6.616 12.697-9.353 23.432-9.353 10.736 0 14.452 2.737 23.431 9.353 12.204 8.99 28.916 21.3 59.792 21.3v-61.304c-10.736.001-14.454-2.737-23.435-9.353zm-59.791 112.037c-30.879 0-47.591 12.31-59.792 21.301-8.982 6.616-12.697 9.354-23.432 9.354-10.73 0-14.447-2.738-23.426-9.352-12.203-8.99-28.914-21.303-59.789-21.303-30.873 0-47.586 12.31-59.786 21.301-8.979 6.616-12.695 9.354-23.427 9.354-10.73 0-14.447-2.738-23.425-9.352-.987-.727-2.007-1.478-3.06-2.241l12.469 71.977c4.325.589 8.98.921 14.016.921 30.876 0 47.587-12.309 59.79-21.301 8.978-6.616 12.695-9.354 23.427-9.354 10.731 0 14.447 2.738 23.426 9.354 12.202 8.99 28.913 21.301 59.787 21.301 30.878 0 47.591-12.309 59.792-21.301 8.981-6.616 12.697-9.354 23.432-9.354 10.736 0 14.451 2.738 23.43 9.354 12.205 8.99 28.916 21.301 59.792 21.301v-61.305c-10.735 0-14.452-2.738-23.431-9.354-12.204-8.991-28.915-21.301-59.793-21.301zm0 136.403c-30.879 0-47.591 12.309-59.792 21.302-8.982 6.616-12.697 9.353-23.432 9.353-10.73 0-14.447-2.737-23.426-9.353-12.203-8.988-28.914-21.302-59.789-21.302-30.873 0-47.586 12.309-59.786 21.302-8.979 6.616-12.695 9.353-23.427 9.353-.295 0-.566-.011-.851-.014l10.548 60.884c24.799-2.245 39.236-12.866 50.093-20.864 8.978-6.617 12.695-9.355 23.427-9.355 10.731 0 14.447 2.738 23.426 9.355 12.202 8.988 28.913 21.299 59.787 21.299 30.878 0 47.591-12.308 59.792-21.299 8.981-6.617 12.697-9.355 23.432-9.355 10.736 0 14.451 2.738 23.43 9.355 12.205 8.988 28.916 21.299 59.792 21.299v-61.305c-10.735 0-14.452-2.737-23.431-9.353-12.204-8.99-28.915-21.302-59.793-21.302z"/></svg>