<?xml version="1.0" encoding="iso-8859-1"?>
<!-- Generator: Adobe Illustrator 16.0.0, SVG Export Plug-In . SVG Version: 6.00 Build 0)  -->
<!DOCTYPE svg PUBLIC "-//W3C//DTD SVG 1.1//EN" "http://www.w3.org/Graphics/SVG/1.1/DTD/svg11.dtd">
<svg version="1.1" id="Capa_1" xmlns="http://www.w3.org/2000/svg" xmlns:xlink="http://www.w3.org/1999/xlink" x="0px" y="0px"
	 width="465.072px" height="465.072px" viewBox="0 0 465.072 465.072" style="enable-background:new 0 0 465.072 465.072;"
	 xml:space="preserve">
<g>
	<g>
		<polygon points="415.166,312.299 394.099,265.497 232.536,338.225 70.974,265.497 49.906,312.299 170.018,366.367 54.719,418.271 
			75.786,465.072 232.536,394.511 389.286,465.072 410.354,418.271 295.054,366.367 		"/>
		<path d="M168.995,220.974v69.042h127.083v-69.042h96.375C392.453,124.292,404.724,0,232.536,0
			C60.349,0,72.619,124.292,72.619,220.974H168.995z M268.508,116.153l5.077-5.841c11.865-13.656,32.555-15.108,46.21-3.242
			c13.654,11.866,15.106,32.555,3.24,46.211l-5.076,5.841c-11.865,13.656-32.555,15.107-46.21,3.242
			C258.094,150.499,256.641,129.809,268.508,116.153z M145.278,107.07c13.655-11.866,34.345-10.414,46.21,3.242l5.077,5.841
			c11.865,13.656,10.414,34.346-3.241,46.211c-13.655,11.865-34.345,10.414-46.21-3.242l-5.077-5.841
			C130.171,139.625,131.623,118.936,145.278,107.07z"/>
	</g>
</g>
<g>
</g>
<g>
</g>
<g>
</g>
<g>
</g>
<g>
</g>
<g>
</g>
<g>
</g>
<g>
</g>
<g>
</g>
<g>
</g>
<g>
</g>
<g>
</g>
<g>
</g>
<g>
</g>
<g>
</g>
</svg>
