<svg viewBox="0 0 512 512" xmlns="http://www.w3.org/2000/svg"><path d="m457.129 343.865-23.196-51.533-177.893 80.079-177.892-80.079-23.198 51.533 132.253 59.533-126.953 57.15 23.196 51.531 172.594-77.693 172.593 77.693 23.198-51.531-126.954-57.15z"/><path d="m186.076 243.309v76.02h139.928v-76.02h106.116c0-106.454 13.512-243.309-176.08-243.309-189.591 0-176.081 136.855-176.081 243.309zm109.572-115.416 5.59-6.431c13.064-15.036 35.845-16.635 50.88-3.57 15.034 13.065 16.633 35.846 3.568 50.882l-5.589 6.431c-13.064 15.037-35.846 16.634-50.881 3.57s-16.635-35.846-3.568-50.882zm-135.686-10.001c15.035-13.065 37.816-11.466 50.881 3.57l5.59 6.431c13.064 15.036 11.466 37.818-3.569 50.882s-37.816 11.467-50.88-3.57l-5.591-6.431c-13.065-15.036-11.466-37.817 3.569-50.882z"/></svg>