<?xml version="1.0" encoding="iso-8859-1"?>
<!-- Generator: Adobe Illustrator 16.0.0, SVG Export Plug-In . SVG Version: 6.00 Build 0)  -->
<!DOCTYPE svg PUBLIC "-//W3C//DTD SVG 1.1//EN" "http://www.w3.org/Graphics/SVG/1.1/DTD/svg11.dtd">
<svg version="1.1" id="Capa_1" xmlns="http://www.w3.org/2000/svg" xmlns:xlink="http://www.w3.org/1999/xlink" x="0px" y="0px"
	 width="27.706px" height="27.706px" viewBox="0 0 27.706 27.706" style="enable-background:new 0 0 27.706 27.706;"
	 xml:space="preserve">
<g>
	<g>
		<path d="M10.39,4.618h6.926l1.793-3.585C19.392,0.465,19.105,0,18.47,0H9.236C8.601,0,8.314,0.464,8.597,1.033L10.39,4.618z"/>
		<path d="M11.997,13.855c0,0.597,0.402,1.094,1.206,1.492v-2.749C12.399,12.743,11.997,13.163,11.997,13.855z"/>
		<path d="M14.469,18.279v2.628c0.826-0.128,1.24-0.541,1.24-1.24C15.709,19.102,15.295,18.639,14.469,18.279z"/>
		<path d="M20.758,6.927H6.947c-2.812,2.105-4.638,5.453-4.638,9.235c0,6.376,5.166,11.544,11.544,11.544
			s11.544-5.167,11.544-11.544C25.397,12.379,23.571,9.032,20.758,6.927z M17.098,21.866c-0.614,0.587-1.49,0.944-2.629,1.071v1.881
			h-1.266v-1.83c-1.174-0.006-2.268-0.271-3.277-0.797v-2.403c0.334,0.271,0.835,0.522,1.5,0.754
			c0.664,0.231,1.256,0.364,1.777,0.399v-3.157c-1.353-0.503-2.277-1.048-2.771-1.636c-0.494-0.586-0.741-1.301-0.741-2.146
			c0-0.907,0.321-1.682,0.963-2.321c0.642-0.639,1.491-1.01,2.55-1.115V8.954h1.267v1.579c1.221,0.057,2.13,0.254,2.73,0.59v2.342
			c-0.809-0.492-1.72-0.792-2.73-0.902v3.287c1.267,0.459,2.174,0.979,2.723,1.566c0.551,0.587,0.824,1.296,0.824,2.129
			C18.016,20.506,17.709,21.279,17.098,21.866z"/>
	</g>
</g>
<g>
</g>
<g>
</g>
<g>
</g>
<g>
</g>
<g>
</g>
<g>
</g>
<g>
</g>
<g>
</g>
<g>
</g>
<g>
</g>
<g>
</g>
<g>
</g>
<g>
</g>
<g>
</g>
<g>
</g>
</svg>
