<svg viewBox="0 0 512 512" xmlns="http://www.w3.org/2000/svg"><path d="M 246.115 0 C 246.098 -0.028 121.535 123.807 82.003 230.99 C 17.957 599.151 488.763 609.665 431.344 238.244 C 385.11 98.127 246.507 -0.086 246.115 0 Z M 363.017 306.675 C 363.017 345.463 352.436 375.118 331.272 395.64 C 310.108 416.162 279.752 426.423 240.209 426.423 L 174.789 426.423 L 174.789 191.421 L 247.123 191.421 C 283.667 191.421 312.115 201.469 332.472 221.565 C 352.835 241.656 363.017 270.025 363.017 306.675 Z M 320.618 307.639 C 319.297 244.089 274.057 228.54 244.265 228.54 L 214.27 228.54 L 215.59 382.147 L 238.997 382.147 C 275.596 382.147 321.91 369.887 320.618 307.639 Z"/></svg>