<svg viewBox="0 0 512 512" xmlns="http://www.w3.org/2000/svg"><path d="m246.115 0c-.017-.028-124.58 123.807-164.112 230.99-64.046 368.161 406.76 378.675 349.341 7.254-46.234-140.117-184.837-238.33-185.229-238.244zm116.902 306.675c0 38.788-10.581 68.443-31.745 88.965s-51.52 30.783-91.063 30.783h-65.42v-235.002h72.334c36.544 0 64.992 10.048 85.349 30.144 20.363 20.091 30.545 48.46 30.545 85.11zm-42.399.964c-1.321-63.55-46.561-79.099-76.353-79.099h-29.995l1.32 153.607h23.407c36.599 0 82.913-12.26 81.621-74.508z"/></svg>