<?xml version="1.0" encoding="utf-8"?>
<svg height="512pt" viewBox="0 0 512 512" width="512pt" xmlns="http://www.w3.org/2000/svg">
  <path d="M 83.348 388.008 C 76.074 388.008 70.152 394.078 70.152 401.539 C 70.152 409.004 76.074 415.074 83.348 415.074 C 90.625 415.074 96.543 409.004 96.543 401.539 C 96.543 394.078 90.625 388.008 83.348 388.008 Z M 83.348 388.008"/>
  <path d="M 69.676 89.945 L 97.02 89.945 L 97.02 302.559 L 69.676 302.559 Z M 69.676 89.945"/>
  <path d="M 151.609 4.5 L 15.09 4.5 C 6.754 4.5 0 11.254 0 19.59 L 0 491.352 C 0 499.684 6.754 506.441 15.09 506.441 L 151.609 506.441 C 159.941 506.441 166.695 499.684 166.695 491.352 L 166.695 19.59 C 166.695 11.254 159.941 4.5 151.609 4.5 Z M 112.109 332.738 L 54.59 332.738 C 46.258 332.738 39.5 325.98 39.5 317.648 L 39.5 74.859 C 39.5 66.527 46.258 59.77 54.59 59.77 L 112.109 59.77 C 120.441 59.77 127.199 66.527 127.199 74.859 L 127.199 317.648 C 127.199 325.98 120.441 332.738 112.109 332.738 Z M 126.719 401.539 C 126.719 425.641 107.262 445.25 83.348 445.25 C 59.434 445.25 39.977 425.641 39.977 401.539 C 39.977 377.437 59.434 357.832 83.348 357.832 C 107.266 357.832 126.719 377.437 126.719 401.539 Z M 126.719 401.539"/>
  <path d="M 242.328 89.945 L 269.672 89.945 L 269.672 302.559 L 242.328 302.559 Z M 242.328 89.945"/>
  <path d="M 256 388.008 C 248.723 388.008 242.805 394.078 242.805 401.539 C 242.805 409.004 248.723 415.074 256 415.074 C 263.277 415.074 269.195 409.004 269.195 401.539 C 269.195 394.078 263.277 388.008 256 388.008 Z M 256 388.008"/>
  <path d="M 324.262 4.5 L 187.738 4.5 C 179.406 4.5 172.652 11.254 172.652 19.59 L 172.652 491.352 C 172.652 499.684 179.406 506.441 187.738 506.441 L 324.262 506.441 C 332.594 506.441 339.348 499.684 339.348 491.352 L 339.348 19.59 C 339.348 11.254 332.594 4.5 324.262 4.5 Z M 284.762 332.738 L 227.238 332.738 C 218.906 332.738 212.152 325.98 212.152 317.648 L 212.152 74.859 C 212.152 66.527 218.906 59.77 227.238 59.77 L 284.762 59.77 C 293.094 59.77 299.848 66.527 299.848 74.859 L 299.848 317.648 C 299.848 325.98 293.094 332.738 284.762 332.738 Z M 299.371 401.539 C 299.371 425.641 279.914 445.25 256 445.25 C 232.086 445.25 212.629 425.641 212.629 401.539 C 212.629 377.437 232.086 357.832 256 357.832 C 279.914 357.832 299.371 377.437 299.371 401.539 Z M 299.371 401.539"/>
  <path d="M 428.652 388.008 C 421.375 388.008 415.457 394.078 415.457 401.539 C 415.457 409.004 421.375 415.074 428.652 415.074 C 435.926 415.074 441.848 409.004 441.848 401.539 C 441.848 394.078 435.93 388.008 428.652 388.008 Z M 428.652 388.008"/>
  <path d="M 414.98 89.945 L 442.324 89.945 L 442.324 302.559 L 414.98 302.559 Z M 414.98 89.945"/>
  <path d="M 496.91 4.5 L 360.391 4.5 C 352.059 4.5 345.305 11.254 345.305 19.59 L 345.305 491.352 C 345.305 499.684 352.059 506.441 360.391 506.441 L 496.91 506.441 C 505.246 506.441 512 499.684 512 491.352 L 512 19.59 C 512 11.254 505.246 4.5 496.91 4.5 Z M 457.41 332.738 L 399.891 332.738 C 391.559 332.738 384.801 325.98 384.801 317.648 L 384.801 74.859 C 384.801 66.527 391.559 59.77 399.891 59.77 L 457.41 59.77 C 465.742 59.77 472.5 66.527 472.5 74.859 L 472.5 317.648 C 472.5 325.98 465.746 332.738 457.41 332.738 Z M 472.023 401.539 C 472.023 425.641 452.566 445.25 428.652 445.25 C 404.738 445.25 385.281 425.641 385.281 401.539 C 385.281 377.437 404.738 357.832 428.652 357.832 C 452.566 357.832 472.023 377.437 472.023 401.539 Z M 472.023 401.539"/>
</svg>