<svg viewBox="0 0 512 512" xmlns="http://www.w3.org/2000/svg"><path d="m83.348 388.008c-7.274 0-13.196 6.07-13.196 13.531 0 7.465 5.922 13.535 13.196 13.535 7.277 0 13.195-6.07 13.195-13.535 0-7.461-5.918-13.531-13.195-13.531zm-13.672-298.063h27.344v212.614h-27.344zm0 0"/><path d="m151.609 4.5h-136.519c-8.336 0-15.09 6.754-15.09 15.09v471.762c0 8.332 6.754 15.089 15.09 15.089h136.519c8.332 0 15.086-6.757 15.086-15.089v-471.762c0-8.336-6.754-15.09-15.086-15.09zm-39.5 328.238h-57.519c-8.332 0-15.09-6.758-15.09-15.09v-242.789c0-8.332 6.758-15.089 15.09-15.089h57.519c8.332 0 15.09 6.757 15.09 15.089v242.789c0 8.332-6.758 15.09-15.09 15.09zm14.61 68.801c0 24.102-19.457 43.711-43.371 43.711s-43.371-19.609-43.371-43.711 19.457-43.707 43.371-43.707c23.918 0 43.371 19.605 43.371 43.707zm115.609-311.594h27.344v212.614h-27.344zm13.672 298.063c-7.277 0-13.195 6.07-13.195 13.531 0 7.465 5.918 13.535 13.195 13.535s13.195-6.07 13.195-13.535c0-7.461-5.918-13.531-13.195-13.531zm0 0"/><path d="m324.262 4.5h-136.524c-8.332 0-15.086 6.754-15.086 15.09v471.762c0 8.332 6.754 15.089 15.086 15.089h136.524c8.332 0 15.086-6.757 15.086-15.089v-471.762c0-8.336-6.754-15.09-15.086-15.09zm-39.5 328.238h-57.524c-8.332 0-15.086-6.758-15.086-15.09v-242.789c0-8.332 6.754-15.089 15.086-15.089h57.524c8.332 0 15.086 6.757 15.086 15.089v242.789c0 8.332-6.754 15.09-15.086 15.09zm14.609 68.801c0 24.102-19.457 43.711-43.371 43.711s-43.371-19.609-43.371-43.711 19.457-43.707 43.371-43.707 43.371 19.605 43.371 43.707zm129.281-13.531c-7.277 0-13.195 6.07-13.195 13.531 0 7.465 5.918 13.535 13.195 13.535 7.274 0 13.196-6.07 13.196-13.535 0-7.461-5.918-13.531-13.196-13.531zm-13.672-298.063h27.344v212.614h-27.344zm0 0"/><path d="m496.91 4.5h-136.519c-8.332 0-15.086 6.754-15.086 15.09v471.762c0 8.332 6.754 15.089 15.086 15.089h136.519c8.336 0 15.09-6.757 15.09-15.089v-471.762c0-8.336-6.754-15.09-15.09-15.09zm-39.5 328.238h-57.519c-8.332 0-15.09-6.758-15.09-15.09v-242.789c0-8.332 6.758-15.089 15.09-15.089h57.519c8.332 0 15.09 6.757 15.09 15.089v242.789c0 8.332-6.754 15.09-15.09 15.09zm14.613 68.801c0 24.102-19.457 43.711-43.371 43.711s-43.371-19.609-43.371-43.711 19.457-43.707 43.371-43.707 43.371 19.605 43.371 43.707zm0 0"/></svg>