<?xml version="1.0" encoding="iso-8859-1"?>
<!-- Generator: Adobe Illustrator 19.0.0, SVG Export Plug-In . SVG Version: 6.00 Build 0)  -->
<svg version="1.1" id="Capa_1" xmlns="http://www.w3.org/2000/svg" xmlns:xlink="http://www.w3.org/1999/xlink" x="0px" y="0px"
	 viewBox="0 0 512 512" style="enable-background:new 0 0 512 512;" xml:space="preserve">
<g>
	<g>
		<path d="M423,221v15c0,41.907-34.094,76-76,76h-9.518c-5.895-4.899-12.671-8.767-20.046-11.351
			C332.017,285.382,341,264.727,341,242c0-46.869-38.131-85-85-85c-46.869,0-85,38.131-85,85c0,22.727,8.983,43.382,23.563,58.649
			c-7.375,2.584-14.151,6.452-20.046,11.351H165c-41.906,0-76-34.093-76-76v-15H0v15c0,86.266,66.547,157.27,151,164.4V507h210
			V400.4c84.453-7.13,151-78.135,151-164.4v-15H423z"/>
	</g>
</g>
<g>
	<g>
		<path d="M256,5c-24.813,0-45,20.187-45,45s20.187,45,45,45s45-20.187,45-45S280.813,5,256,5z"/>
	</g>
</g>
<g>
	<g>
		<path d="M144,40c-24.813,0-45,20.187-45,45s20.187,45,45,45s45-20.187,45-45S168.813,40,144,40z"/>
	</g>
</g>
<g>
	<g>
		<path d="M368,40c-24.813,0-45,20.187-45,45s20.187,45,45,45s45-20.187,45-45S392.813,40,368,40z"/>
	</g>
</g>
<g>
	<g>
		<path d="M55,110c-24.813,0-45,20.187-45,45s20.187,45,45,45s45-20.187,45-45S79.813,110,55,110z"/>
	</g>
</g>
<g>
	<g>
		<path d="M457,110c-24.813,0-45,20.187-45,45s20.187,45,45,45s45-20.187,45-45S481.813,110,457,110z"/>
	</g>
</g>
<g>
</g>
<g>
</g>
<g>
</g>
<g>
</g>
<g>
</g>
<g>
</g>
<g>
</g>
<g>
</g>
<g>
</g>
<g>
</g>
<g>
</g>
<g>
</g>
<g>
</g>
<g>
</g>
<g>
</g>
</svg>
