<svg viewBox="0 0 512 512" xmlns="http://www.w3.org/2000/svg"><path d="m438.497 445.588c18.299-5.338 35.075-15.197 48.92-29.052 3.068-3.069 5.92-6.264 8.564-9.574 15.105 26.9 11.246 61.528-11.634 84.396-22.867 22.868-57.519 26.727-84.384 11.623 3.321-2.623 6.527-5.485 9.573-8.554 14.108-14.085 23.74-30.93 28.961-48.839zm-162.727-273.759-83.381 80.713c-23.571 21.044-37.669 40.531-52.613 47.458-85.654-89.182-172.503-226.828-117.056-282.274 55.378-55.389 196.302 33.26 285.484 118.824-7.076 15.139-12.355 15.584-32.434 35.279zm-124.679 87.77 41.131-43.216-24.346-24.346-40.664 40.64c8.325 10.638 14.42 16.411 23.879 26.922zm-48.35-60.795 35.969-35.956-29.189-29.202-28.915 28.927c6.481 11.749 13.891 23.898 22.135 36.231zm-56.134-128.025c1.088 13.731 6.092 31.823 14.784 52.608l18.918-18.907zm29.212-29.211 33.678 33.701 18.907-18.906c-20.761-8.692-38.866-13.707-52.585-14.795zm91.805 33.976-28.914 28.925 29.2 29.19 35.957-35.957c-12.367-8.257-24.505-15.655-36.243-22.158zm70.104 46.652-40.641 40.652 24.347 27.113 45.281-43.206c-10.502-9.469-18.36-16.269-28.987-24.559zm-9.191 228.031c16.612-19.424 42.935-50.559 48.054-50.227 6.538 44.271 26.954 77.409 65.396 115.85 21.689 21.712 50.534 33.644 81.213 33.644 1.798 0 3.585-.046 5.358-.149-4.419 9.975-10.707 19.331-18.882 27.505-17.658 17.67-40.549 26.327-63.578 26.327-23.337 0-46.812-8.863-65.135-26.327-121.772-115.829-92.414-78.234-89.958-86.494zm186.895 85.328c-23.291 0-46.583-8.875-64.356-26.647-114.844-114.845-44.32-134.848-18.683-167.394 20.288-25.755 51.557-52.999 67.607-65.783 8.46-6.739-20.352-.83 79.777 104.465 34.641 36.426 35.556 93.167 0 128.7-17.772 17.761-41.064 26.659-64.345 26.659zm-415.432 28.445 464-464c48 0 48 .012 48 48l-464 464c-48 0-48 0-48-48zm133.642-151.174-26.398 25.509c-3.849 7.698-63.127-63.779-47.846-72.2zm184.281-181.637 26.2-22.938c16-.389-56.167-69.356-64.589-54.074z"/></svg>