<svg viewBox="0 0 512 512" xmlns="http://www.w3.org/2000/svg"><defs><pattern width="25" height="25" patternUnits="userSpaceOnUse" viewBox="0 0 100 100"><path d="M0 0H50V100H0z"/></pattern></defs><path d="M 438.497 445.588 C 456.796 440.25 473.572 430.391 487.417 416.536 C 490.485 413.467 493.337 410.272 495.981 406.962 C 511.086 433.862 507.227 468.49 484.347 491.358 C 461.48 514.226 426.828 518.085 399.963 502.981 C 403.284 500.358 406.49 497.496 409.536 494.427 C 423.644 480.342 433.276 463.497 438.497 445.588 Z M 275.77 171.829 L 192.389 252.542 C 168.818 273.586 154.72 293.073 139.776 300 C 54.122 210.818 -32.727 73.172 22.72 17.726 C 78.098 -37.663 219.022 50.986 308.204 136.55 C 301.128 151.689 295.849 152.134 275.77 171.829 Z M 151.091 259.599 L 192.222 216.383 L 167.876 192.037 L 127.212 232.677 C 135.537 243.315 141.632 249.088 151.091 259.599 Z M 102.741 198.804 L 138.71 162.848 L 109.521 133.646 L 80.606 162.573 C 87.087 174.322 94.497 186.471 102.741 198.804 Z M 46.607 70.779 C 47.695 84.51 52.699 102.602 61.391 123.387 L 80.309 104.48 L 46.607 70.779 Z M 75.819 41.568 L 109.497 75.269 L 128.404 56.363 C 107.643 47.671 89.538 42.656 75.819 41.568 Z M 167.624 75.544 L 138.71 104.469 L 167.91 133.659 L 203.867 97.702 C 191.5 89.445 179.362 82.047 167.624 75.544 Z M 237.728 122.196 L 197.087 162.848 L 221.434 189.961 L 266.715 146.755 C 256.213 137.286 248.355 130.486 237.728 122.196 Z M 228.537 350.227 C 245.149 330.803 271.472 299.668 276.591 300 C 283.129 344.271 303.545 377.409 341.987 415.85 C 363.676 437.562 392.521 449.494 423.2 449.494 C 424.998 449.494 426.785 449.448 428.558 449.345 C 424.139 459.32 417.851 468.676 409.676 476.85 C 392.018 494.52 369.127 503.177 346.098 503.177 C 322.761 503.177 299.286 494.314 280.963 476.85 C 159.191 361.021 188.549 398.616 191.005 390.356 L 228.537 350.227 Z M 415.432 435.555 C 392.141 435.555 368.849 426.68 351.076 408.908 C 236.232 294.063 306.756 274.06 332.393 241.514 C 352.681 215.759 383.95 188.515 400 175.731 C 408.46 168.992 379.648 174.901 479.777 280.196 C 514.418 316.622 515.333 373.363 479.777 408.896 C 462.005 426.657 438.713 435.555 415.432 435.555 Z M 0 464 L 464 0 C 512 0 512 0.012 512 48 L 48 512 C 0 512 0 512 0 464 Z M 133.642 312.826 L 107.244 338.335 C 103.395 346.033 44.117 274.556 59.398 266.135 L 133.642 312.826 Z M 317.923 131.189 L 344.123 108.251 C 360.123 107.862 287.956 38.895 279.534 54.177 L 317.923 131.189 Z"/></svg>