<svg viewBox="0 0 512 512" xmlns="http://www.w3.org/2000/svg"><path d="m481.03 195.172-37.563-139.043c-1.153-4.248-2.933-8.259-5.075-12.037 3.18-4.549 5.075-10.06 5.075-16.03 0-15.502-12.57-28.062-28.061-28.062h-321.455c-15.499 0-28.055 12.566-28.055 28.062 0 7.755 3.137 14.771 8.233 19.855-2.092 3.705-3.822 7.65-4.949 11.812l-37.558 139.043c-5.084 18.825 2.302 34.713 16.772 38.497v275.365h418.215v-279.879c12.83-4.863 19.2-19.851 14.421-37.583zm-120.478-115.744 31.737 117.478c.488 1.829 1.218 3.581 1.914 5.34-14.174 23.205-34.767 33.283-57.206 27.702-19.698-4.887-33.442-20.004-33.74-30.726v-114.379c0-1.852-.279-3.637-.553-5.413h57.848zm-240.188 121.084 32.705-121.084h55.071c-.28 1.778-.552 3.562-.552 5.413v116.53l-.07-.035c-13.095 24.769-33.334 35.823-55.501 30.315-18.376-4.557-31.186-18.746-31.186-28.619h-1.382c.293-.85.68-1.655.915-2.52zm228.018 283.541h-225.629v-90.249h40.49c3.881-8.758 12.616-14.883 22.819-14.883 10.187 0 18.934 6.125 22.807 14.883h82.408c1.158-12.715 11.732-22.705 24.751-22.705 13.007 0 23.586 9.99 24.738 22.705h7.62v90.249zm-179.172-122.74c0-9.711 7.885-17.593 17.602-17.593s17.594 7.883 17.594 17.593c0 9.726-7.878 17.608-17.594 17.608s-17.602-7.882-17.602-17.608zm129.965-7.821c0-9.712 7.879-17.597 17.594-17.597 9.719 0 17.598 7.886 17.598 17.597 0 9.722-7.88 17.607-17.598 17.607-9.715 0-17.594-7.885-17.594-17.607zm145.777 137.484h-27.677v-182.603h-317.682v182.603h-29.538v-252.524l6.358.123c15.047.304 30.742-11.003 39.242-26.717 4.856 11.748 18.46 22.797 34.634 26.81 3.158.782 7.569 1.549 12.742 1.549 12.746 0 30.095-4.688 44.61-25.237.274 19.583 16.278 28.403 36.049 28.403h23.464c17.051 0 31.244-11.856 35.034-27.746 6.984 9.605 19.18 17.88 33.08 21.323 3.379.842 8.114 1.661 13.647 1.661 14.003 0 33.17-5.303 48.968-28.748 8.668 14.864 23.819 25.379 38.351 25.096l8.718-.17z"/></svg>