<svg viewBox="0 0 512 512" xmlns="http://www.w3.org/2000/svg"><path d="m457.754 469.632c-2.304 4.045-10.471 14.618-20.66 15.539-10.624 1.075-21.555-8.857-28.748-17.305-15.975-18.74-32.154-27.111-48.052-24.986-19.532 2.586-30.617 20.48-33.587 25.958-3.072 3.508-17.229 18.228-32.179 17.639-8.909-.333-17.459-6.272-25.395-17.741-11.93-17.152-26.394-26.368-42.983-27.366-30.028-1.792-54.297 25.164-55.321 26.291l-1.306 1.817c-2.944 5.044-14.208 19.584-26.752 20.148-11.417.384-22.195-11.136-29.133-20.967-15.129-21.401-31.462-31.667-48.384-30.438-25.497 1.817-40.012 28.749-41.6 31.821l20.148 10.316c2.483-4.838 12.006-18.79 23.065-19.584 10.599-.921 21.248 10.957 28.288 20.941 14.362 20.25 30.08 30.49 46.823 30.49.563 0 1.177-.026 1.74-.051 24.525-1.024 40.909-24.372 44.57-30.08 3.2-3.328 19.584-19.149 36.506-18.176 9.446.537 17.868 6.348 25.753 17.689 12.237 17.613 26.727 26.88 43.162 27.443 28.467.768 50.278-25.651 51.2-26.803l.845-1.049.588-1.204c.052-.153 6.733-13.388 16.871-14.771 9.728-1.28 20.557 8.653 27.878 17.28 15.591 18.304 31.795 26.778 48.256 25.114 24.013-2.407 37.479-25.959 38.042-26.957z"/><path d="m64.614 408.064c22.989 0 43.981 16.538 62.362 49.126 5.76 10.189 10.214 14.26 11.955 15.258 2.381-1.382 7.603-8.115 9.6-12.365l3.738-6.4c5.145-7.219 33.715-44.697 71.782-41.497 15.949 1.228 39.015 10.06 58.573 45.312 5.069 9.216 8.627 11.212 9.293 11.238 3.302 0 9.856-5.299 14.822-11.725 5.658-11.904 20.941-38.323 47.488-42.726 23.347-3.866 45.722 9.779 66.33 40.089 5.478 8.013 9.472 11.392 11.289 12.468 1.588-1.357 3.84-4.48 4.788-6.4l18.406-21.556 2.509-33.049 37.555-277.12h-79.514v-86.067h-89.164v-42.65h-147.431v42.65h-89.139v86.067h-72.755v16.051l37.581 261.069v3.328c1.868-.384 3.763-.717 5.734-.896 1.382-.128 2.79-.205 4.198-.205zm250.087-336.358h81.408v50.38h-81.408zm-102.733 0h81.382v50.38h-81.382zm-103.706 0h81.408v50.38h-81.408zm308.276 293.171h-320.922v-195.226h320.922z"/></svg>