<?xml version="1.0" encoding="iso-8859-1"?>
<!-- Generator: Adobe Illustrator 18.1.1, SVG Export Plug-In . SVG Version: 6.00 Build 0)  -->
<svg version="1.1" id="Capa_1" xmlns="http://www.w3.org/2000/svg" xmlns:xlink="http://www.w3.org/1999/xlink" x="0px" y="0px"
	 viewBox="0 0 20.008 20.008" style="enable-background:new 0 0 20.008 20.008;" xml:space="preserve">
<g>
	<g>
		<path style="fill:#030104;" d="M17.881,18.345c-0.09,0.158-0.409,0.571-0.807,0.607c-0.415,0.042-0.842-0.346-1.123-0.676
			c-0.624-0.732-1.256-1.059-1.877-0.976c-0.763,0.101-1.196,0.8-1.312,1.014c-0.12,0.137-0.673,0.712-1.257,0.689
			c-0.348-0.013-0.682-0.245-0.992-0.693c-0.466-0.67-1.031-1.03-1.679-1.069c-1.173-0.07-2.121,0.983-2.161,1.027l-0.051,0.071
			c-0.115,0.197-0.555,0.765-1.045,0.787c-0.446,0.015-0.867-0.435-1.138-0.819c-0.591-0.836-1.229-1.237-1.89-1.189
			c-0.996,0.071-1.563,1.123-1.625,1.243l0.787,0.403c0.097-0.189,0.469-0.734,0.901-0.765c0.414-0.036,0.83,0.428,1.105,0.818
			c0.561,0.791,1.175,1.191,1.829,1.191c0.022,0,0.046-0.001,0.068-0.002c0.958-0.04,1.598-0.952,1.741-1.175
			c0.125-0.13,0.765-0.748,1.426-0.71c0.369,0.021,0.698,0.248,1.006,0.691c0.478,0.688,1.044,1.05,1.686,1.072
			c1.112,0.03,1.964-1.002,2-1.047l0.033-0.041l0.023-0.047c0.002-0.006,0.263-0.523,0.659-0.577c0.38-0.05,0.803,0.338,1.089,0.675
			c0.609,0.715,1.242,1.046,1.885,0.981c0.938-0.094,1.464-1.014,1.486-1.053L17.881,18.345z"/>
		<path style="fill:#030104;" d="M2.524,15.94c0.898,0,1.718,0.646,2.436,1.919c0.225,0.398,0.399,0.557,0.467,0.596
			c0.093-0.054,0.297-0.317,0.375-0.483l0.146-0.25c0.201-0.282,1.317-1.746,2.804-1.621c0.623,0.048,1.524,0.393,2.288,1.77
			c0.198,0.36,0.337,0.438,0.363,0.439c0.129,0,0.385-0.207,0.579-0.458c0.221-0.465,0.818-1.497,1.855-1.669
			c0.912-0.151,1.786,0.382,2.591,1.566c0.214,0.313,0.37,0.445,0.441,0.487c0.062-0.053,0.15-0.175,0.187-0.25l0.719-0.842
			l0.098-1.291L19.34,5.028h-3.106V1.666h-3.483V0H6.992v1.666H3.51v3.362H0.668v0.627l1.468,10.198v0.13
			c0.073-0.015,0.147-0.028,0.224-0.035C2.414,15.943,2.469,15.94,2.524,15.94z M12.293,2.801h3.18v1.968h-3.18
			C12.293,4.769,12.293,2.801,12.293,2.801z M8.28,2.801h3.179v1.968H8.28V2.801z M4.229,2.801h3.18v1.968h-3.18
			C4.229,4.769,4.229,2.801,4.229,2.801z M16.271,14.253H3.735V6.627h12.536V14.253z"/>
	</g>
</g>
<g>
</g>
<g>
</g>
<g>
</g>
<g>
</g>
<g>
</g>
<g>
</g>
<g>
</g>
<g>
</g>
<g>
</g>
<g>
</g>
<g>
</g>
<g>
</g>
<g>
</g>
<g>
</g>
<g>
</g>
</svg>
