<svg viewBox="0 0 512 512" xmlns="http://www.w3.org/2000/svg"><path d="m441.501 185.768c-5.416-5.419-13.448-7.261-20.688-4.757-7.237 2.506-12.408 8.928-13.312 16.536-.013.112-1.773 11.616-8.866 18.661-1.406 1.395-2.974 2.645-4.622 3.76-4.749-28.347-15.938-74.552-41.482-112.867-40.536-60.805-119.8-79.589-123.155-80.357-9.155-2.104-18.925 2.133-22.941 10.621-3.984 8.419-2.011 18.15 5.269 23.915 1.384 1.416 9.808 10.829 9.069 29.285-.584 14.611-6.49 20.686-26.88 39.494-6.165 5.688-13.154 12.133-20.941 19.92-12.685 12.682-22.579 26.208-30.099 38.488-.373-.608-.752-1.211-1.138-1.808-14.075-21.894-53.886-36.038-61.723-38.651-8.915-2.973-19.616-.307-24.427 7.776-4.688 7.883-4.272 16.984 2.126 23.384 1.314 2.736 6.141 14.872 4.546 42.779-.792 13.853-12.277 30.592-24.434 48.314-17.72 25.819-37.803 55.088-37.803 91.862 0 64.877 63.24 117.002 65.931 119.192 3.565 2.896 8.018 4.477 12.61 4.477h93.912c7.334 0 14.08-4.013 17.579-10.461 3.499-6.446 3.187-14.288-.808-20.44-8.077-12.43-29.616-50.6-32.229-77.622-.694-7.146-.499-14.645.226-21.997 14.272 18.541 30.747 27.208 33.123 28.395 6.283 3.144 13.755 2.754 19.68-1.014 5.928-3.773 9.443-10.378 9.256-17.4-.315-11.914.645-48.149 8.736-72.426 3.008-9.027 9.547-18.326 16.883-26.622 1.205 5.64 2.744 11.822 4.698 18.558 7.166 24.674 30.691 40 53.446 54.818 21.613 14.078 43.965 28.635 50.328 49.19 11.141 35.992-22.371 59.469-23.699 60.381-7.333 4.888-10.603 14-8.048 22.437 2.555 8.435 10.328 14.206 19.141 14.206h100.011c4.275 0 8.437-1.371 11.877-3.91 2.424-1.786 59.347-44.848 59.347-135.613 0-88.981-67.619-157.624-70.499-160.504z"/></svg>