<svg viewBox="0 0 512 512" xmlns="http://www.w3.org/2000/svg"><path d="m156.535 314.743c-7.873-3.925-14.222-10.513-17.669-19.091-5.621-14.029-2.173-29.822 8.772-40.255l63.238-60.223c-3.823-3.549-6.918-7.919-9.011-12.959-5.701-13.778-2.56-29.491 7.975-40.016l70.486-71.509-66.822-66.833c-5.143-5.143-13.494-5.143-18.614 0l-66.844 66.833c-3.767 3.766-4.893 9.626-2.845 14.552 2.037 4.916 6.849 8.329 12.163 8.329h11.685c1.433 0 2.731.683 3.265 2.014.546 1.342.216 2.776-.83 3.766l-82.398 78.438c-3.903 3.721-5.132 9.307-3.14 14.313 2.002 4.995 6.849 8.158 12.219 8.158h23.746c1.422 0 2.696.945 3.254 2.253.546 1.32.261 2.879-.74 3.891l-98.782 100.33c-3.732 3.777-4.812 9.295-2.776 14.199 2.06 4.892 6.85 7.953 12.152 7.953h127.454z"/><path d="m517.427 408.781-104.835-106.428c-1.058-1.092-1.354-2.685-.773-4.073s1.934-2.31 3.459-2.31h25.19c5.723 0 10.843-3.47 12.993-8.772 2.117-5.302.785-11.367-3.356-15.315l-87.45-83.274c-1.115-1.058-1.467-2.594-.876-4.027.569-1.423 1.946-2.276 3.47-2.276h12.402c5.644 0 10.729-3.481 12.914-8.704 2.15-5.222.956-11.264-3.038-15.269l-70.906-70.929c-2.708-2.719-6.303-4.096-9.876-4.096-3.561 0-7.157 1.365-9.865 4.073l-70.895 70.907c-4.005 3.993-5.188 10.08-3.037 15.303 2.15 5.234 7.259 8.704 12.913 8.704h12.379c1.525 0 2.913.853 3.471 2.275.591 1.423.239 3.004-.877 4.062l-87.46 83.251c-4.119 3.96-5.45 10.001-3.323 15.303 2.128 5.314 7.259 8.773 12.971 8.773h25.202c1.513 0 2.878.91 3.458 2.309.581 1.4.274 3.004-.785 4.074l-104.834 106.427c-3.949 4.028-5.098 10.013-2.936 15.201 2.173 5.2 7.259 8.568 12.891 8.568h141.221c7.714 0 13.528 6.269 13.528 13.983v63.124c0 7.714 6.702 13.642 14.416 13.642h63.135c7.714 0 14.2-5.928 14.2-13.642v-63.124c0-7.714 6.019-13.983 13.744-13.983h141.232c5.644 0 10.696-3.38 12.903-8.568 2.127-5.188.978-11.173-2.97-15.189z"/></svg>