<svg xmlns="http://www.w3.org/2000/svg" viewBox="0 0 512 512"><path d="M18.848 238.018H234.631V174.209H278.326V238.018H494.11V109.444H410.153C426.069 77.934 423.647 41.855 401.174 19.383 388.677 6.883 371.324 0 352.318 0 328.031 0 303.125 10.979 283.983 30.121 266.054 48.052 259.033 77.181 256.48 101.732 253.927 77.181 246.906 48.05 228.974 30.121 209.835 10.979 184.926 0 160.642 0 141.636 0 124.285 6.883 111.784 19.383 96.988 34.178 90.165 55.78 93.062 78.648 94.399 89.187 97.693 99.61 102.701 109.444H18.848V238.018ZM316.455 62.593C326.892 52.153 340.301 45.919 352.318 45.919 357.087 45.919 363.802 46.95 368.707 51.854 379.769 62.914 374.752 87.336 357.971 104.115 349.747 112.339 328.102 117.985 301.336 119.165 302.383 97.174 306.881 72.167 316.455 62.593ZM144.253 51.854C149.157 46.95 155.873 45.919 160.642 45.919 172.659 45.919 186.067 52.153 196.505 62.593 206.164 72.252 210.634 97.021 211.642 119.165 184.869 117.987 163.213 112.342 154.989 104.115 145.954 95.08 139.987 83.697 138.617 72.876 137.969 67.777 137.843 58.265 144.253 51.854ZM234.631 278.771V512.96H51.565V278.771H234.631ZM278.328 512.96V278.771H461.395V512.96H278.328Z"/></svg>