<?xml version="1.0" encoding="iso-8859-1"?>
<!-- Generator: Adobe Illustrator 18.0.0, SVG Export Plug-In . SVG Version: 6.00 Build 0)  -->
<!DOCTYPE svg PUBLIC "-//W3C//DTD SVG 1.1//EN" "http://www.w3.org/Graphics/SVG/1.1/DTD/svg11.dtd">
<svg version="1.1" id="Capa_1" xmlns="http://www.w3.org/2000/svg" xmlns:xlink="http://www.w3.org/1999/xlink" x="0px" y="0px"
	 viewBox="0 0 223.418 223.418" style="enable-background:new 0 0 223.418 223.418;" xml:space="preserve">
<path d="M8.209,103.668h93.984V75.876h19.031v27.792h93.984v-56h-36.567c6.932-13.724,5.877-29.438-3.911-39.226
	C169.287,2.998,161.729,0,153.451,0c-10.578,0-21.426,4.782-29.763,13.119c-7.809,7.81-10.867,20.497-11.979,31.19
	c-1.112-10.693-4.17-23.381-11.98-31.19C91.393,4.782,80.544,0,69.967,0c-8.278,0-15.835,2.998-21.28,8.442
	c-6.444,6.444-9.416,15.853-8.154,25.813c0.582,4.59,2.017,9.13,4.198,13.413H8.209V103.668z M137.831,27.262
	c4.546-4.547,10.386-7.262,15.62-7.262c2.077,0,5.002,0.449,7.138,2.585c4.818,4.817,2.633,15.454-4.676,22.762
	c-3.582,3.582-13.009,6.041-24.667,6.555C131.702,42.324,133.661,31.432,137.831,27.262z M62.829,22.585
	C64.965,20.449,67.89,20,69.967,20c5.234,0,11.074,2.715,15.62,7.262c4.207,4.207,6.154,14.995,6.593,24.64
	c-11.661-0.513-21.093-2.972-24.675-6.555c-3.935-3.935-6.534-8.893-7.131-13.606C60.092,29.52,60.037,25.377,62.829,22.585z
	 M102.193,121.418v102H22.459v-102H102.193z M121.225,223.418v-102h79.734v102H121.225z"/>
<g>
</g>
<g>
</g>
<g>
</g>
<g>
</g>
<g>
</g>
<g>
</g>
<g>
</g>
<g>
</g>
<g>
</g>
<g>
</g>
<g>
</g>
<g>
</g>
<g>
</g>
<g>
</g>
<g>
</g>
</svg>
