<svg viewBox="0 0 512 512" xmlns="http://www.w3.org/2000/svg"><path d="m461.066 373.677c0-1.636-1.071-4.113-1.273-5.669-1.709-13.598-5.293-26.57-12.371-38.433-6.643-11.207-15.713-20.028-25.999-26.049-6.633-3.856-13.971-6.603-22.05-8.258-12.77-2.713-25.251-1.786-37.622 2.384-4.548 1.546-9.069 3.111-13.568 4.528 12.824-33.929 40.641-55.652 40.641-55.652l-28.456-20.566c-13.398 17.437-21.537 34.736-26.424 50.292-1.008-7.73-3.827-17.953-11.085-25.231-13.172-13.179-36.106-11.59-36.106-11.59s-1.582 22.94 11.643 36.099c9.964 9.984 25.667 11.491 32.559 11.64-1.363 5.825-2.288 11.261-2.889 16.261-5.882-1.742-11.716-3.763-17.575-5.762-12.374-4.145-24.852-5.076-37.648-2.403-8.082 1.672-15.354 4.402-22.023 8.291-9.452 5.536-17.611 13.668-24.067 23.579v-197.898c0-2.184-.768-4.275-2.151-5.951l-42.556-51.323c4.588-.582 8.195-4.339 8.195-9.096v-53.554c-.006-5.14-4.182-9.316-9.322-9.316h-81.338c-5.14 0-9.316 4.176-9.316 9.316v53.557c0 4.758 3.594 8.514 8.179 9.096l-42.546 51.32c-1.397 1.656-2.145 3.763-2.145 5.951v371.785c0 5.127 4.176 9.316 9.316 9.316h154.365c5.14 0 9.316-4.189 9.316-9.316v-52.706c5.385 12.278 11.975 23.974 19.668 35.165 5.27 7.62 10.859 14.885 17.887 20.693 5.552 4.518 11.35 9.419 18.605 10.742.801.11 1.639 0 2.51 0h2.893c1.11 0 2.264.15 3.441 0 10.043-1.599 19.206-6.912 29.031-9.316 1.383-.345 2.656-.635 4.082-.904 3.508-.728 7.198-1.147 10.879-1.184h.392.399c3.694.057 7.407.459 10.915 1.184 1.33.289 2.729.562 4.079.904 9.828 2.404 18.954 7.714 28.988 9.316 1.147.15 2.327 0 3.474 0h2.979c.762 0 1.599.11 2.437 0 7.241-1.31 13.063-6.224 18.598-10.742 7.052-5.808 12.621-13.073 17.857-20.693 14.855-21.577 25.926-44.899 31.229-71.098 1.383-6.988 3.215-13.937 3.93-21.032.462-6.177.043-10.107.043-17.677zm-352.209-355.085h62.713v34.929h-62.713zm13.544 53.56h35.601l50.093 60.399v26.162h-135.733v-26.162z"/></svg>