<?xml version="1.0" encoding="iso-8859-1"?>
<!-- Generator: Adobe Illustrator 16.0.0, SVG Export Plug-In . SVG Version: 6.00 Build 0)  -->
<!DOCTYPE svg PUBLIC "-//W3C//DTD SVG 1.1//EN" "http://www.w3.org/Graphics/SVG/1.1/DTD/svg11.dtd">
<svg version="1.1" id="Capa_1" xmlns="http://www.w3.org/2000/svg" xmlns:xlink="http://www.w3.org/1999/xlink" x="0px" y="0px"
	 width="154.899px" height="154.899px" viewBox="0 0 154.899 154.899" style="enable-background:new 0 0 154.899 154.899;"
	 xml:space="preserve">
<g>
	<path d="M138.68,112.395c0-0.492-0.322-1.237-0.383-1.705c-0.514-4.09-1.592-7.992-3.721-11.56
		c-1.998-3.371-4.726-6.024-7.82-7.835c-1.995-1.16-4.202-1.986-6.632-2.484c-3.841-0.816-7.595-0.537-11.316,0.717
		c-1.368,0.465-2.728,0.936-4.081,1.362c3.857-10.205,12.224-16.739,12.224-16.739l-8.559-6.186
		c-4.03,5.245-6.478,10.448-7.948,15.127c-0.303-2.325-1.151-5.4-3.334-7.589c-3.962-3.964-10.86-3.486-10.86-3.486
		s-0.476,6.9,3.502,10.858c2.997,3.003,7.72,3.456,9.793,3.501c-0.41,1.752-0.688,3.387-0.869,4.891
		c-1.769-0.524-3.524-1.132-5.286-1.733c-3.722-1.247-7.475-1.527-11.324-0.723c-2.431,0.503-4.618,1.324-6.624,2.494
		c-2.843,1.665-5.297,4.111-7.239,7.092V38.873c0-0.657-0.231-1.286-0.647-1.79l-12.8-15.437c1.38-0.175,2.465-1.305,2.465-2.736
		V2.802C57.219,1.256,55.963,0,54.417,0H29.952c-1.546,0-2.802,1.256-2.802,2.802v16.109c0,1.431,1.081,2.561,2.46,2.736
		L16.813,37.083c-0.42,0.498-0.645,1.132-0.645,1.79v111.826c0,1.542,1.256,2.802,2.802,2.802H65.4c1.546,0,2.802-1.26,2.802-2.802
		v-15.853c1.62,3.693,3.602,7.211,5.916,10.577c1.585,2.292,3.266,4.477,5.38,6.224c1.67,1.359,3.414,2.833,5.596,3.231
		c0.241,0.033,0.493,0,0.755,0c0.285,0,0.58,0,0.87,0c0.334,0,0.681,0.045,1.035,0c3.021-0.481,5.777-2.079,8.732-2.802
		c0.416-0.104,0.799-0.191,1.228-0.272c1.055-0.219,2.165-0.345,3.272-0.356c0.042,0,0.075,0,0.118,0c0.032,0,0.073,0,0.12,0
		c1.111,0.017,2.228,0.138,3.283,0.356c0.4,0.087,0.821,0.169,1.227,0.272c2.956,0.723,5.701,2.32,8.719,2.802
		c0.345,0.045,0.7,0,1.045,0c0.284,0,0.584,0,0.896,0c0.229,0,0.481,0.033,0.733,0c2.178-0.394,3.929-1.872,5.594-3.231
		c2.121-1.747,3.796-3.932,5.371-6.224c4.468-6.49,7.798-13.505,9.393-21.385c0.416-2.102,0.967-4.192,1.182-6.326
		C138.806,115.854,138.68,114.672,138.68,112.395z M32.742,5.592h18.863v10.506H32.742V5.592z M36.816,21.702h10.708l15.067,18.167
		v7.869H21.765v-7.869L36.816,21.702z"/>
</g>
<g>
</g>
<g>
</g>
<g>
</g>
<g>
</g>
<g>
</g>
<g>
</g>
<g>
</g>
<g>
</g>
<g>
</g>
<g>
</g>
<g>
</g>
<g>
</g>
<g>
</g>
<g>
</g>
<g>
</g>
</svg>
