<?xml version="1.0" encoding="iso-8859-1"?>
<!-- Generator: Adobe Illustrator 16.0.0, SVG Export Plug-In . SVG Version: 6.00 Build 0)  -->
<!DOCTYPE svg PUBLIC "-//W3C//DTD SVG 1.1//EN" "http://www.w3.org/Graphics/SVG/1.1/DTD/svg11.dtd">
<svg version="1.1" id="Capa_1" xmlns="http://www.w3.org/2000/svg" xmlns:xlink="http://www.w3.org/1999/xlink" x="0px" y="0px"
	 width="45.645px" height="45.645px" viewBox="0 0 45.645 45.645" style="enable-background:new 0 0 45.645 45.645;"
	 xml:space="preserve">
<g>
	<g>
		<path d="M44.202,9.868c0.795,0,1.442-0.676,1.442-1.473c0-0.795-0.647-1.473-1.442-1.473h-8.639V5.05h8.639
			c0.795,0,1.442-0.644,1.442-1.439c0-0.795-0.647-1.439-1.442-1.439H30.698c-1.042,0-1.894,0.818-1.894,1.859v37.586
			c0,1.04,0.852,1.855,1.894,1.855h13.504c0.795,0,1.442-0.643,1.442-1.438s-0.647-1.44-1.442-1.44h-8.639v-1.873h8.639
			c0.795,0,1.442-0.677,1.442-1.473c0-0.797-0.647-1.473-1.442-1.473h-8.639V33.9h8.639c0.795,0,1.442-0.645,1.442-1.438
			c0-0.798-0.647-1.44-1.442-1.44h-8.639v-1.939h8.639c0.795,0,1.442-0.643,1.442-1.438c0-0.797-0.647-1.44-1.442-1.44h-8.639v-1.94
			h8.639c0.795,0,1.442-0.644,1.442-1.438s-0.647-1.439-1.442-1.439h-8.639v-1.94h8.639c0.795,0,1.442-0.644,1.442-1.44
			c0-0.795-0.647-1.438-1.442-1.438h-8.639v-1.941h8.639c0.795,0,1.442-0.643,1.442-1.44c0-0.795-0.647-1.438-1.442-1.438h-8.639
			V9.873h8.639V9.868z"/>
		<path d="M25.5,32.479c-1.146-1.076-2.645-1.64-4.216-1.586c-0.232,0.006-0.467,0.029-0.698,0.063l-4.12-7.041l9.642-16.481
			c0.462-0.79,0.64-1.702,0.491-2.536c-0.147-0.837-0.605-1.524-1.274-1.917l-0.743-0.436c-0.487-0.285-1.154-0.05-1.492,0.526
			l-9.407,16.082L4.272,3.071c-0.337-0.576-1.004-0.812-1.49-0.526L2.039,2.98c-0.67,0.393-1.128,1.081-1.276,1.917
			C0.615,5.731,0.793,6.644,1.255,7.434l9.642,16.481l-4.121,7.041c-0.23-0.034-0.465-0.058-0.699-0.063
			c-1.57-0.054-3.068,0.51-4.214,1.586c-1.148,1.071-1.809,2.529-1.86,4.102c-0.095,2.85,1.858,5.354,4.644,5.945
			c0.341,0.074,0.692,0.117,1.044,0.13c1.57,0.052,3.067-0.511,4.216-1.585c1.147-1.074,1.808-2.531,1.859-4.104
			c0.042-1.244-0.308-2.42-0.944-3.402l2.86-4.889l2.86,4.889c-0.637,0.982-0.987,2.158-0.945,3.402
			c0.053,1.571,0.712,3.028,1.86,4.104c1.147,1.074,2.646,1.637,4.215,1.585c0.353-0.013,0.702-0.056,1.044-0.13
			c2.787-0.594,4.738-3.096,4.644-5.945C27.309,35.008,26.646,33.55,25.5,32.479z M8.881,36.871
			c-0.025,0.801-0.362,1.543-0.947,2.091c-0.585,0.547-1.349,0.835-2.149,0.808c-0.18-0.006-0.359-0.025-0.535-0.063
			c-1.417-0.304-2.411-1.579-2.364-3.03c0.027-0.803,0.364-1.545,0.948-2.093c0.585-0.547,1.348-0.834,2.149-0.808
			c0.18,0.007,0.36,0.027,0.534,0.064C7.936,34.145,8.93,35.418,8.881,36.871z M13.602,25.372c-0.895,0-1.623-0.728-1.623-1.623
			s0.729-1.622,1.623-1.622c0.896,0,1.624,0.727,1.624,1.622S14.497,25.372,13.602,25.372z M22.11,39.705
			c-0.173,0.038-0.354,0.059-0.534,0.064c-0.8,0.026-1.563-0.262-2.147-0.809c-0.586-0.548-0.923-1.29-0.949-2.091
			c-0.048-1.453,0.946-2.728,2.364-3.031c0.175-0.037,0.354-0.059,0.535-0.063c0.802-0.027,1.564,0.26,2.149,0.807
			c0.585,0.548,0.921,1.29,0.947,2.093C24.524,38.126,23.529,39.4,22.11,39.705z"/>
	</g>
</g>
<g>
</g>
<g>
</g>
<g>
</g>
<g>
</g>
<g>
</g>
<g>
</g>
<g>
</g>
<g>
</g>
<g>
</g>
<g>
</g>
<g>
</g>
<g>
</g>
<g>
</g>
<g>
</g>
<g>
</g>
</svg>
