<svg viewBox="0 0 512 512" xmlns="http://www.w3.org/2000/svg"><path d="m502.921 112.276c9.045 0 16.406-7.691 16.406-16.76 0-9.045-7.361-16.759-16.406-16.759h-98.293v-21.299h98.293c9.045 0 16.406-7.328 16.406-16.373s-7.361-16.372-16.406-16.372h-153.646c-11.856 0-21.549 9.307-21.549 21.151v427.645c0 11.833 9.693 21.106 21.549 21.106h153.646c9.045 0 16.406-7.316 16.406-16.361s-7.361-16.384-16.406-16.384h-98.293v-21.311h98.293c9.045 0 16.406-7.703 16.406-16.76 0-9.068-7.361-16.759-16.406-16.759h-98.293v-21.333h98.293c9.045 0 16.406-7.339 16.406-16.362 0-9.079-7.361-16.384-16.406-16.384h-98.293v-22.061h98.293c9.045 0 16.406-7.316 16.406-16.361 0-9.068-7.361-16.384-16.406-16.384h-98.293v-22.073h98.293c9.045 0 16.406-7.328 16.406-16.361s-7.361-16.373-16.406-16.373h-98.293v-22.073h98.293c9.045 0 16.406-7.327 16.406-16.384 0-9.045-7.361-16.361-16.406-16.361h-98.293v-22.084h98.293c9.045 0 16.406-7.316 16.406-16.384 0-9.046-7.361-16.362-16.406-16.362h-98.293v-21.367h98.293zm-212.788 257.263c-13.039-12.243-30.094-18.66-47.968-18.045-2.64.068-5.314.33-7.942.716l-46.877-80.11 109.705-187.518c5.257-8.988 7.282-19.365 5.587-28.854-1.673-9.523-6.884-17.339-14.496-21.811l-8.453-4.961c-5.541-3.242-13.13-.568-16.976 5.985l-107.031 182.978-107.076-182.978c-3.834-6.553-11.423-9.239-16.953-5.985l-8.454 4.95c-7.623 4.471-12.834 12.299-14.518 21.811-1.684 9.489.342 19.877 5.598 28.865l109.705 187.518-46.888 80.11c-2.617-.386-5.291-.659-7.953-.716-17.863-.615-34.907 5.802-47.946 18.045-13.062 12.185-20.583 28.774-21.163 46.671-1.081 32.427 21.14 60.917 52.839 67.641 3.879.842 7.873 1.332 11.878 1.479 17.863.592 34.896-5.814 47.969-18.033 13.05-12.22 20.571-28.797 21.151-46.695.478-14.154-3.504-27.534-10.741-38.707l32.541-55.626 32.54 55.626c-7.247 11.173-11.23 24.553-10.752 38.707.603 17.875 8.101 34.452 21.163 46.695 13.05 12.219 30.105 18.625 47.957 18.033 4.017-.147 7.987-.637 11.879-1.479 31.709-6.758 53.908-35.225 52.838-67.641-.58-17.897-8.124-34.486-21.163-46.671zm-189.087 49.971c-.284 9.114-4.119 17.556-10.775 23.791-6.656 6.224-15.348 9.5-24.451 9.193-2.048-.068-4.084-.284-6.087-.717-16.122-3.458-27.431-17.965-26.897-34.474.307-9.137 4.142-17.579 10.786-23.814 6.656-6.224 15.338-9.489 24.451-9.193 2.048.079 4.096.307 6.076.728 16.145 3.47 27.455 17.954 26.897 34.486zm53.715-130.833c-10.184 0-18.467-8.283-18.467-18.466s8.295-18.455 18.467-18.455c10.194 0 18.477 8.272 18.477 18.455s-8.294 18.466-18.477 18.466zm96.802 163.078c-1.969.432-4.028.671-6.076.728-9.102.296-17.784-2.981-24.428-9.205-6.668-6.235-10.502-14.677-10.798-23.791-.546-16.532 10.764-31.038 26.897-34.486 1.992-.421 4.028-.671 6.088-.717 9.124-.307 17.794 2.959 24.45 9.182 6.656 6.235 10.479 14.678 10.775 23.814.558 16.509-10.763 31.004-26.908 34.475z"/></svg>