<?xml version="1.0" encoding="utf-8"?>
<svg height="512px" viewBox="0 0 512 512" width="512px" xmlns="http://www.w3.org/2000/svg">
  <path d="M 436.695 204.797 L 291.086 59.188 C 220.668 119.297 121.664 203.816 95.617 226.047 L 60.148 256.32 L 239.555 435.73 C 269.797 400.301 371.887 280.715 436.695 204.797 Z M 436.695 204.797"/>
  <path d="M 48.191 460 L 87.793 460 C 88.922 460 90.035 459.859 91.117 459.613 L 34.938 403.434 L 20.855 417.617 C 15.047 423.469 15.047 432.906 20.855 438.754 L 37.547 455.566 C 40.359 458.402 44.191 460 48.191 460 Z M 48.191 460"/>
  <path d="M 56.148 382.07 L 56.074 382.145 L 113.91 439.98 L 113.988 439.906 L 122.059 447.977 C 124.871 450.789 128.688 452.371 132.664 452.371 C 136.645 452.371 140.457 450.793 143.27 447.977 C 155.914 435.332 167.906 428.152 178.91 426.637 C 182.012 426.207 185.086 426.254 188.152 426.75 L 69.148 307.746 C 69.621 310.668 69.676 313.602 69.309 316.555 C 67.926 327.672 60.727 339.809 47.914 352.621 C 45.102 355.434 43.52 359.246 43.52 363.227 C 43.52 367.203 45.102 371.02 47.914 373.832 Z M 56.148 382.07"/>
  <path d="M 492.305 139.656 C 497.383 133.707 497.035 124.848 491.5 119.313 L 376.578 4.395 C 371.047 -1.137 362.191 -1.488 356.238 3.586 C 347.391 11.133 332.426 23.902 313.977 39.652 L 456.234 181.91 C 478.063 156.34 492.305 139.656 492.305 139.656 Z M 492.305 139.656"/>
  <path d="m481.335938 482h-446.945313c-8.28125 0-15 6.714844-15 15s6.71875 15 15 15h446.941406c8.285157 0 15-6.714844 15-15s-6.714843-15-14.996093-15zm0 0"/>
</svg>