<svg viewBox="0 0 512 512" xmlns="http://www.w3.org/2000/svg"><path d="m467.852 220.606v-28.656l-4.129-1.635c-1.304-.512-29.795-11.528-69.169-13.345v13.081c28.556 1.404 51.266 7.977 60.218 10.95v265.646c-18.449-7.416-39.689-11.165-63.208-11.165-57.624 0-112.507 22.098-129.024 29.349v-105.538l7.68 8.473v-75.644h-19.67v75.644l7.68-8.473v105.67c-16.731-6.92-74.323-28.821-132.014-28.821-22.809 0-42.991 3.502-60.201 10.406v-265.58c10.042-3.353 37.392-11.264 71.102-11.264 2.411 0 4.757.198 7.168.281v-13.031c-2.411-.066-4.757-.281-7.168-.281-44.94 0-78.617 13.081-80.004 13.626l-4.129 1.635v26.541c-13.593 2.544-22.049 7.119-22.049 14.535v273.54h201.43c6.97 6.21 17.144 10.19 28.557 10.19 11.412 0 21.603-3.964 28.556-10.19h196.36s0-259.948 0-273.54c0-6.045-6.854-9.976-17.986-12.404z"/><path d="m404.728 95.893h-276.332v17.424h27.037v141.197h27.021v-141.197h34.882v141.197h27.004v-141.197h45.336v141.197h27.021v-141.197h34.865v141.197h27.004v-141.197h26.162zm-135.961-95.893-154.277 87.816h305.928zm135.961 259.749h-10.901-250.104-12.684v20.018h-9.596v20.083h294.648v-20.083h-11.363v-10.009z"/></svg>