<?xml version="1.0" encoding="iso-8859-1"?>
<!-- Generator: Adobe Illustrator 16.0.0, SVG Export Plug-In . SVG Version: 6.00 Build 0)  -->
<!DOCTYPE svg PUBLIC "-//W3C//DTD SVG 1.1//EN" "http://www.w3.org/Graphics/SVG/1.1/DTD/svg11.dtd">
<svg version="1.1" id="Capa_1" xmlns="http://www.w3.org/2000/svg" xmlns:xlink="http://www.w3.org/1999/xlink" x="0px" y="0px"
	 width="896px" height="896px" viewBox="0 0 896 896" style="enable-background:new 0 0 896 896;" xml:space="preserve">
<g>
	<path d="M615.5,0h-335c-16.6,0-30,13.4-30,30v146.3h-72.6c-16.6,0-30,13.4-30,30V866c0,16.6,13.4,30,30,30h188v-36.8
		c0-16.601,13.399-30,30-30H500.1c16.602,0,30,13.399,30,30V896h188c16.602,0,30-13.4,30-30V206.3c0-16.6-13.398-30-30-30h-72.6V30
		C645.5,13.4,632.1,0,615.5,0z M365.901,739.4c0,16.6-13.4,30-30,30h-94.7c-16.6,0-30-13.4-30-30V711.3c0-16.6,13.4-30,30-30h94.7
		c16.6,0,30,13.4,30,30V739.4L365.901,739.4z M365.901,586.9c0,16.6-13.4,30-30,30h-94.7c-16.6,0-30-13.4-30-30V558.8
		c0-16.6,13.4-30,30-30h94.7c16.6,0,30,13.4,30,30V586.9L365.901,586.9z M365.901,434.4c0,16.6-13.4,30-30,30h-94.7
		c-16.6,0-30-13.4-30-30V406.3c0-16.6,13.4-30,30-30h94.7c16.6,0,30,13.4,30,30V434.4L365.901,434.4z M529.9,297.9
		c-16.6,0-30-13.4-30-30v-50.7H396.1v50.7c0,16.6-13.399,30-30,30h-21.8c-16.6,0-30-13.4-30-30V84.7c0-16.6,13.4-30,30-30h21.8
		c16.601,0,30,13.4,30,30v50.7h103.8V84.7c0-16.6,13.4-30,30-30h21.801c16.6,0,30,13.4,30,30v183.2c0,16.6-13.4,30-30,30H529.9z
		 M684.801,739.4c0,16.6-13.4,30-30,30H560.1c-16.6,0-30-13.4-30-30V711.3c0-16.6,13.4-30,30-30h94.701c16.6,0,30,13.4,30,30V739.4z
		 M684.801,586.9c0,16.6-13.4,30-30,30H560.1c-16.6,0-30-13.4-30-30V558.8c0-16.6,13.4-30,30-30h94.701c16.6,0,30,13.4,30,30V586.9z
		 M654.801,376.3c16.6,0,30,13.4,30,30V434.4c0,16.6-13.4,30-30,30H560.1c-16.6,0-30-13.4-30-30V406.3c0-16.6,13.4-30,30-30H654.801
		z"/>
</g>
<g>
</g>
<g>
</g>
<g>
</g>
<g>
</g>
<g>
</g>
<g>
</g>
<g>
</g>
<g>
</g>
<g>
</g>
<g>
</g>
<g>
</g>
<g>
</g>
<g>
</g>
<g>
</g>
<g>
</g>
</svg>
