<svg viewBox="0 0 512 512" xmlns="http://www.w3.org/2000/svg"><path d="m482.644 33.447c-14.994 0-27.681 12.687-27.681 27.681v91.115h-396.755v-124.562c0-14.994-12.687-27.681-27.681-27.681-14.993 0-27.68 12.687-27.68 27.681v456.729c0 14.994 12.687 27.681 27.68 27.681 14.994 0 27.681-12.687 27.681-27.681v-32.294h395.601v32.294c0 14.994 12.686 27.681 27.681 27.681s27.68-12.687 27.68-27.681v-423.282c1.154-14.994-11.533-27.681-26.526-27.681zm-424.435 352.928v-166.084h395.601v167.237h-395.601z"/><path d="m397.295 295.259h-189.151c-19.607 0-35.754 16.147-35.754 34.601 0 19.607 16.147 34.601 35.754 34.601h190.304c19.607 0 35.753-16.148 35.753-34.601-1.151-18.454-17.299-34.601-36.906-34.601zm-189.15-163.776h190.304c19.607 0 35.753-16.147 35.753-34.601 0-19.607-16.147-34.601-35.753-34.601h-190.304c-19.607 0-35.754 16.147-35.754 34.601-.001 19.607 16.146 34.601 35.754 34.601z"/></svg>