<?xml version="1.0" encoding="iso-8859-1"?>
<!-- Generator: Adobe Illustrator 16.0.0, SVG Export Plug-In . SVG Version: 6.00 Build 0)  -->
<!DOCTYPE svg PUBLIC "-//W3C//DTD SVG 1.1//EN" "http://www.w3.org/Graphics/SVG/1.1/DTD/svg11.dtd">
<svg version="1.1" id="Capa_1" xmlns="http://www.w3.org/2000/svg" xmlns:xlink="http://www.w3.org/1999/xlink" x="0px" y="0px"
	 width="566.101px" height="566.101px" viewBox="0 0 566.101 566.101" style="enable-background:new 0 0 566.101 566.101;"
	 xml:space="preserve">
<g>
	<g id="Layer_1_138_">
		<g>
			<path d="M533.548,36.975c-16.575,0-30.601,14.025-30.601,30.6V168.3h-438.6V30.6c0-16.575-14.025-30.6-30.6-30.6
				c-16.575,0-30.6,14.025-30.6,30.6v504.9c0,16.575,14.025,30.601,30.6,30.601c16.575,0,30.6-14.025,30.6-30.601v-35.7h437.325
				v35.7c0,16.575,14.024,30.601,30.6,30.601s30.6-14.025,30.6-30.601V67.575C564.147,51,550.122,36.975,533.548,36.975z
				 M64.348,427.125v-183.6h437.325V428.4H64.348V427.125z"/>
			<circle cx="131.922" cy="360.825" r="43.35"/>
			<path d="M439.197,326.4h-209.1c-21.675,0-39.525,17.85-39.525,38.25c0,21.675,17.85,38.25,39.525,38.25h210.375
				c21.675,0,39.524-17.851,39.524-38.25C478.723,344.25,460.872,326.4,439.197,326.4z"/>
			<circle cx="131.922" cy="102" r="43.35"/>
			<path d="M230.098,145.35h210.375c21.675,0,39.524-17.85,39.524-38.25c0-21.675-17.85-38.25-39.524-38.25H230.098
				c-21.675,0-39.525,17.85-39.525,38.25C190.572,128.775,208.422,145.35,230.098,145.35z"/>
		</g>
	</g>
</g>
<g>
</g>
<g>
</g>
<g>
</g>
<g>
</g>
<g>
</g>
<g>
</g>
<g>
</g>
<g>
</g>
<g>
</g>
<g>
</g>
<g>
</g>
<g>
</g>
<g>
</g>
<g>
</g>
<g>
</g>
</svg>
