<svg xmlns="http://www.w3.org/2000/svg" viewBox="0 0 512 512"><path d="M69.67 471.723C69.67 471.723 69.215 483.176 80.403 483.176 94.322 483.176 209.56 483.025 209.56 483.025L209.749 377.192C209.749 377.192 207.929 359.746 224.863 359.746H278.452C298.477 359.746 297.244 377.192 297.244 377.192L297.017 482.683C297.017 482.683 406.281 482.683 423.443 482.683 437.646 482.683 437.001 468.423 437.001 468.423V273.313L258.825 114.821 69.67 273.313C69.67 273.313 69.67 471.723 69.67 471.723Z"/><path d="M0 258.56C0 258.56 16.062 288.161 51.086 258.56L260.399 81.484 456.647 257.46C497.19 286.701 512.379 257.46 512.379 257.46L260.399 29.203 0 258.56ZM451.887 81.067L401.408 81.067 401.617 142.279 451.887 184.927Z"/></svg>