<svg viewBox="0 0 512 512" xmlns="http://www.w3.org/2000/svg"><path d="m69.67 471.723s-.455 11.453 10.733 11.453c13.919 0 129.157-.151 129.157-.151l.189-105.833s-1.82-17.446 15.114-17.446h53.589c20.025 0 18.792 17.446 18.792 17.446l-.227 105.491h126.426c14.203 0 13.558-14.26 13.558-14.26v-195.11l-178.176-158.492-189.155 158.492z"/><path d="m0 258.56s16.062 29.601 51.086 0l209.313-177.076 196.248 175.976c40.543 29.241 55.732 0 55.732 0l-251.98-228.257zm451.887-177.493h-50.479l.209 61.212 50.27 42.648z"/></svg>