<svg viewBox="0 0 512 512" xmlns="http://www.w3.org/2000/svg"><path d="m256.346 0c-141.563 0-256.344 114.768-256.344 256.348 0 141.585 114.781 256.349 256.344 256.349 141.585 0 256.349-114.764 256.349-256.349 0-141.58-114.764-256.348-256.349-256.348zm53.232 397.428c0 13.645-11.052 24.703-24.697 24.703h-57.031c-13.644 0-24.698-11.058-24.698-24.703v-130.694c0-13.643 11.054-24.701 24.698-24.701h57.031c13.645 0 24.697 11.058 24.697 24.701zm-53.232-198.545c-34.647 0-62.742-28.095-62.742-62.776 0-34.631 28.095-62.742 62.742-62.742 34.684 0 62.781 28.112 62.781 62.742 0 34.681-28.095 62.776-62.781 62.776z"/></svg>