<?xml version="1.0" encoding="iso-8859-1"?>
<!-- Generator: Adobe Illustrator 16.0.0, SVG Export Plug-In . SVG Version: 6.00 Build 0)  -->
<!DOCTYPE svg PUBLIC "-//W3C//DTD SVG 1.1//EN" "http://www.w3.org/Graphics/SVG/1.1/DTD/svg11.dtd">
<svg version="1.1" id="Capa_1" xmlns="http://www.w3.org/2000/svg" xmlns:xlink="http://www.w3.org/1999/xlink" x="0px" y="0px"
	 width="482.656px" height="482.656px" viewBox="0 0 482.656 482.656" style="enable-background:new 0 0 482.656 482.656;"
	 xml:space="preserve">
<g>
	<g>
		<path d="M241.326,0C108.057,0,0.002,108.043,0.002,241.328c0,133.289,108.055,241.328,241.324,241.328
			c133.289,0,241.328-108.039,241.328-241.328C482.654,108.043,374.615,0,241.326,0z M291.439,374.141
			c0,12.846-10.405,23.256-23.25,23.256h-53.69c-12.844,0-23.25-10.41-23.25-23.256V251.105c0-12.844,10.406-23.254,23.25-23.254
			h53.69c12.845,0,23.25,10.41,23.25,23.254V374.141z M241.326,187.23c-32.617,0-59.066-26.449-59.066-59.098
			c0-32.602,26.449-59.066,59.066-59.066c32.651,0,59.102,26.465,59.102,59.066C300.428,160.781,273.979,187.23,241.326,187.23z"/>
	</g>
</g>
<g>
</g>
<g>
</g>
<g>
</g>
<g>
</g>
<g>
</g>
<g>
</g>
<g>
</g>
<g>
</g>
<g>
</g>
<g>
</g>
<g>
</g>
<g>
</g>
<g>
</g>
<g>
</g>
<g>
</g>
</svg>
