<svg viewBox="0 0 512 512" xmlns="http://www.w3.org/2000/svg"><path d="m479.057 131.348v64.207h8.58v11.704h-15.705v-17.782h-32.061v-146.265h-366.362v146.265h-32.06v17.782h-15.705v-11.704h8.58v-64.207h-34.324v64.207h8.58v28.868h32.869v180.54h28.715v65.203h85.815v-65.203h201.426v65.203h85.814v-65.203h28.716v-180.537h32.868v-28.868h8.581v-64.21zm-365.934 165.865c-16.441 0-29.794-13.369-29.794-29.845 0-16.442 13.353-29.794 29.794-29.794 16.494 0 29.829 13.352 29.829 29.794 0 16.476-13.335 29.845-29.829 29.845zm81.506 60.931h-17.163v-121.893h17.163zm43.888 0h-17.163v-121.893h17.163zm43.989 0h-17.163v-121.893h17.163zm7.07-168.664h-181.74v-111.938h297.711v111.938h-8.735c.224-1.904.583-3.776.583-5.732 0-29.88-24.32-54.2-54.2-54.2s-54.2 24.32-54.2 54.2c-.003 1.976.34 3.828.581 5.732zm36.833 168.664h-17.164v-121.893h17.164zm-19.669-168.664c-.308-1.887-.584-3.776-.584-5.732 0-20.426 16.614-37.04 37.039-37.04s37.04 16.614 37.04 37.04c0 1.973-.291 3.863-.584 5.732zm93.486 107.733c-16.459 0-29.794-13.369-29.794-29.845 0-16.442 13.335-29.794 29.794-29.794 16.476 0 29.828 13.352 29.828 29.794.055 16.476-13.349 29.845-29.828 29.845z"/></svg>