<?xml version="1.0" encoding="iso-8859-1"?>
<!-- Generator: Adobe Illustrator 18.1.1, SVG Export Plug-In . SVG Version: 6.00 Build 0)  -->
<svg version="1.1" id="Capa_1" xmlns="http://www.w3.org/2000/svg" xmlns:xlink="http://www.w3.org/1999/xlink" x="0px" y="0px"
	 viewBox="0 0 178.481 178.481" style="enable-background:new 0 0 178.481 178.481;" xml:space="preserve">
<g>
	<path style="fill:#010002;" d="M166.547,45.664v22.322h2.983v4.069h-5.46v-6.182h-11.146v-50.85H25.556v50.85H14.41v6.182H8.95
		v-4.069h2.983V45.664H0v22.322h2.983v10.036H14.41v62.766h9.983v22.668h29.834v-22.668h70.027v22.668h29.834v-22.668h9.983V78.023
		h11.427V67.987h2.983V45.664C178.481,45.664,166.547,45.664,166.547,45.664z M39.328,103.328c-5.716,0-10.358-4.648-10.358-10.376
		c0-5.716,4.642-10.358,10.358-10.358c5.734,0,10.37,4.642,10.37,10.358C49.698,98.68,45.062,103.328,39.328,103.328z
		 M67.664,124.511h-5.967V82.134h5.967V124.511z M82.922,124.511h-5.967V82.134h5.967V124.511z M98.215,124.511h-5.967V82.134h5.967
		V124.511z M100.673,65.874H37.49V26.958h103.501v38.916h-3.037c0.078-0.662,0.203-1.313,0.203-1.993
		c0-10.388-8.455-18.843-18.843-18.843s-18.843,8.455-18.843,18.843C100.47,64.568,100.589,65.212,100.673,65.874z M113.478,124.511
		h-5.967V82.134h5.967V124.511z M106.64,65.874c-0.107-0.656-0.203-1.313-0.203-1.993c0-7.101,5.776-12.877,12.877-12.877
		s12.877,5.776,12.877,12.877c0,0.686-0.101,1.343-0.203,1.993H106.64z M139.141,103.328c-5.722,0-10.358-4.648-10.358-10.376
		c0-5.716,4.636-10.358,10.358-10.358c5.728,0,10.37,4.642,10.37,10.358C149.53,98.68,144.87,103.328,139.141,103.328z"/>
</g>
<g>
</g>
<g>
</g>
<g>
</g>
<g>
</g>
<g>
</g>
<g>
</g>
<g>
</g>
<g>
</g>
<g>
</g>
<g>
</g>
<g>
</g>
<g>
</g>
<g>
</g>
<g>
</g>
<g>
</g>
</svg>
