<?xml version="1.0" encoding="iso-8859-1"?>
<!-- Generator: Adobe Illustrator 19.0.0, SVG Export Plug-In . SVG Version: 6.00 Build 0)  -->
<svg version="1.1" id="Layer_1" xmlns="http://www.w3.org/2000/svg" xmlns:xlink="http://www.w3.org/1999/xlink" x="0px" y="0px"
	 viewBox="0 0 512 512" style="enable-background:new 0 0 512 512;" xml:space="preserve">
<g>
	<g>
		<rect x="47.959" y="463" width="416.08" height="49"/>
	</g>
</g>
<g>
	<g>
		<path d="M303.959,96V0h-256v433h416.082V96H303.959z M224,32h30v30h-30V32z M166.333,32h30v30h-30V32z M108.667,32h30v30h-30V32z
			 M256,399c-72.969,0-132.333-59.365-132.333-132.333S183.031,134.333,256,134.333s132.333,59.365,132.333,132.334
			C388.333,339.635,328.969,399,256,399z"/>
	</g>
</g>
<g>
	<g>
		<rect x="333.96" width="130.08" height="66"/>
	</g>
</g>
<g>
	<g>
		<path d="M322.658,281.651C315.807,312.144,288.531,335,256,335c-37.679,0-68.333-30.654-68.333-68.333
			s30.654-68.333,68.333-68.333c32.52,0,59.788,22.841,66.651,53.317h34.578c-7.286-49.334-49.903-87.318-101.229-87.318
			c-56.427,0-102.333,45.906-102.333,102.333S199.573,369,256,369c51.337,0,93.961-38,101.233-87.349H322.658z"/>
	</g>
</g>
<g>
	<g>
		<path d="M256,228.333c-21.137,0-38.333,17.196-38.333,38.333C217.667,287.804,234.863,305,256,305
			c21.137,0,38.333-17.196,38.333-38.333S277.137,228.333,256,228.333z"/>
	</g>
</g>
<g>
</g>
<g>
</g>
<g>
</g>
<g>
</g>
<g>
</g>
<g>
</g>
<g>
</g>
<g>
</g>
<g>
</g>
<g>
</g>
<g>
</g>
<g>
</g>
<g>
</g>
<g>
</g>
<g>
</g>
</svg>
