<?xml version="1.0" encoding="iso-8859-1"?>
<!-- Generator: Adobe Illustrator 19.0.0, SVG Export Plug-In . SVG Version: 6.00 Build 0)  -->
<svg version="1.1" id="Layer_1" xmlns="http://www.w3.org/2000/svg" xmlns:xlink="http://www.w3.org/1999/xlink" x="0px" y="0px"
	 viewBox="0 0 511.992 511.992" style="enable-background:new 0 0 511.992 511.992;" xml:space="preserve">
<g>
	<g>
		
			<rect x="372.023" y="60.564" transform="matrix(0.9578 -0.2873 0.2873 0.9578 -3.6885 129.9774)" width="137.977" height="33.985"/>
	</g>
</g>
<g>
	<g>
		
			<rect x="424.038" y="153.936" transform="matrix(0.2873 -0.9578 0.9578 0.2873 100.7917 581.3101)" width="33.985" height="137.977"/>
	</g>
</g>
<g>
	<g>
		<rect x="53.97" y="8.582" transform="matrix(0.2873 -0.9578 0.9578 0.2873 -23.7265 123.2541)" width="33.985" height="137.977"/>
	</g>
</g>
<g>
	<g>
		
			<rect x="1.973" y="205.955" transform="matrix(0.9578 -0.2873 0.2873 0.9578 -61.0633 29.7882)" width="137.977" height="33.985"/>
	</g>
</g>
<g>
	<g>
		<polygon points="341.743,255.22 144.204,482.39 144.053,482.258 142.711,493.897 369.283,493.897 		"/>
	</g>
</g>
<g>
	<g>
		<path d="M340.961,114.388V80.402h-52.433c4.483-6.423,7.119-14.231,7.119-22.657c0-21.898-17.752-39.65-39.65-39.65
			c-21.898,0-39.65,17.752-39.65,39.65c0,8.426,2.636,16.234,7.119,22.657h-52.433v33.986h28.322v84.966h0h-22.657l-25.794,223.54
			l185.565-213.398l-1.17-10.143H312.64v-84.965H340.961z M278.654,199.353h-45.314v-84.965h45.314V199.353z"/>
	</g>
</g>
<g>
</g>
<g>
</g>
<g>
</g>
<g>
</g>
<g>
</g>
<g>
</g>
<g>
</g>
<g>
</g>
<g>
</g>
<g>
</g>
<g>
</g>
<g>
</g>
<g>
</g>
<g>
</g>
<g>
</g>
</svg>
