<svg viewBox="0 0 512 512" xmlns="http://www.w3.org/2000/svg"><path d="m256 124.721c-69.556 0-125.963 54.021-125.963 120.669 0 79.142 54.958 99.317 54.958 145.364 0 11.384 8.704 21.972 21.777 29.751-2.735 2.276-4.26 4.771-4.26 7.385 0 3.508 2.756 6.787 7.495 9.598-4.444 2.756-7.026 5.926-7.026 9.314 0 3.42 2.636 6.623 7.179 9.401-4.641 2.789-7.343 6.046-7.343 9.499 0 4.227 3.987 8.094 10.654 11.242-2.581 2.342-4.063 4.935-4.063 7.659 0 8.061 12.56 14.913 30.219 17.658 3.105 5.752 9.401 9.739 16.743 9.739 7.332 0 13.617-3.954 16.722-9.684 17.833-2.702 30.535-9.598 30.535-17.681 0-2.69-1.427-5.25-3.954-7.56 6.808-3.17 10.871-7.092 10.871-11.351 0-3.421-2.625-6.634-7.179-9.401 4.63-2.8 7.343-6.035 7.343-9.489 0-3.507-2.767-6.786-7.495-9.608 4.466-2.745 7.037-5.926 7.037-9.314 0-2.712-1.645-5.272-4.586-7.604 12.865-7.767 21.417-18.246 21.417-29.532 0-46.069 54.893-66.233 54.893-145.365-.011-66.669-56.407-120.69-125.974-120.69zm65.776 195.344c-12.55 18.432-26.744 39.261-27.616 67.889-4.314 4.804-19.706 12.615-38.116 12.615-18.422 0-33.825-7.811-38.128-12.636-.872-28.64-15.088-49.468-27.659-67.889-14.02-20.546-27.256-39.947-27.256-74.665 0-48.357 41.723-87.705 92.999-87.705 51.287 0 93.01 39.348 93.01 87.705 0 34.729-13.236 54.141-27.234 74.686zm-65.776-237.666c9.063 0 16.482-9.804 16.482-21.787v-38.825c0-11.983-7.419-21.787-16.482-21.787s-16.482 9.804-16.482 21.787v38.825c0 11.994 7.419 21.787 16.482 21.787zm-84.458 22.637c7.854-4.531 9.357-16.732 3.377-27.103l-19.402-33.629c-5.991-10.381-17.321-15.164-25.175-10.632s-9.368 16.733-3.388 27.103l19.424 33.629c5.991 10.382 17.309 15.164 25.164 10.632zm-72.465 36.657-33.606-19.412c-10.382-5.992-22.583-4.477-27.115 3.377-4.531 7.854.24 19.173 10.633 25.164l33.617 19.413c10.382 5.991 22.583 4.477 27.104-3.377 4.52-7.855-.251-19.173-10.633-25.165zm363.945 210.116-33.617-19.401c-10.382-6.003-22.583-4.488-27.104 3.377-4.531 7.854.229 19.173 10.643 25.164l33.596 19.413c10.382 5.991 22.583 4.477 27.114-3.377 4.532-7.866-.239-19.184-10.632-25.176zm-375.938-100.493c0-9.075-9.805-16.482-21.788-16.482h-38.825c-11.982 0-21.787 7.418-21.787 16.482 0 9.063 9.805 16.482 21.787 16.482h38.825c11.983 0 21.788-7.419 21.788-16.482zm398.445-16.482h-38.814c-11.994 0-21.788 7.418-21.788 16.482 0 9.063 9.794 16.482 21.788 16.482h38.814c11.993 0 21.787-7.419 21.787-16.482 0-9.064-9.805-16.482-21.787-16.482zm-402.934 97.574-33.617 19.401c-10.382 5.992-15.164 17.31-10.632 25.176 4.531 7.854 16.732 9.357 27.114 3.377l33.607-19.413c10.381-5.991 15.163-17.31 10.632-25.164-4.521-7.844-16.722-9.38-27.104-3.377zm346.81-162.173 33.617-19.413c10.382-5.991 15.164-17.31 10.632-25.164-4.531-7.854-16.732-9.369-27.114-3.377l-33.607 19.412c-10.37 5.992-15.163 17.31-10.632 25.165 4.521 7.854 16.722 9.368 27.104 3.377zm-47.736-136.574c-7.865-4.531-19.195.251-25.186 10.632l-19.402 33.629c-5.991 10.382-4.477 22.572 3.377 27.103 7.865 4.532 19.184-.25 25.175-10.632l19.424-33.628c5.98-10.371 4.455-22.572-3.388-27.104z"/></svg>