<svg xmlns="http://www.w3.org/2000/svg" viewBox="0 0 512 512"><path d="M372.751 60.683H510.998V94.734H372.751zM424.868 154.237H458.919V292.484H424.868zM54.076 8.599H88.127V146.846H54.076zM1.977 206.358H140.224V240.41H1.977zM342.412 255.719L144.486 483.334 144.335 483.202 142.99 494.864 370.006 494.864zM341.628 114.612V80.559H289.093C293.584 74.124 296.226 66.3 296.226 57.858 296.226 35.917 278.439 18.13 256.498 18.13 234.557 18.13 216.77 35.917 216.77 57.858 216.77 66.3 219.412 74.124 223.903 80.559H171.368V114.612H199.745V199.744H199.745 177.044L151.199 423.722 337.127 209.906 335.955 199.743H313.252V114.612H341.628zM279.199 199.743H233.797V114.612H279.199V199.743z"/></svg>