<svg viewBox="0 0 512 512" xmlns="http://www.w3.org/2000/svg"><path d="m462.452 24.774h-412.904c-27.251 0-49.548 22.297-49.548 49.549s22.297 49.548 49.548 49.548h412.904c27.251 0 49.548-22.297 49.548-49.548s-22.297-49.549-49.548-49.549zm0 181.678h-412.904c-27.251 0-49.548 22.296-49.548 49.548s22.297 49.548 49.548 49.548h412.904c27.251 0 49.548-22.296 49.548-49.548s-22.297-49.548-49.548-49.548zm0 181.677h-412.904c-27.251 0-49.548 22.297-49.548 49.548s22.297 49.549 49.548 49.549h412.904c27.251 0 49.548-22.297 49.548-49.549s-22.297-49.548-49.548-49.548z"/></svg>