<?xml version="1.0" encoding="iso-8859-1"?>
<!-- Generator: Adobe Illustrator 16.0.0, SVG Export Plug-In . SVG Version: 6.00 Build 0)  -->
<!DOCTYPE svg PUBLIC "-//W3C//DTD SVG 1.1//EN" "http://www.w3.org/Graphics/SVG/1.1/DTD/svg11.dtd">
<svg version="1.1" id="Capa_1" xmlns="http://www.w3.org/2000/svg" xmlns:xlink="http://www.w3.org/1999/xlink" x="0px" y="0px"
	 width="45.908px" height="45.908px" viewBox="0 0 45.908 45.908" style="enable-background:new 0 0 45.908 45.908;"
	 xml:space="preserve">
<g>
	<g>
		<path d="M32.67,39.29L19.024,8.357c-0.459-1.041-1.489-1.712-2.626-1.712c-1.137,0-2.167,0.671-2.626,1.712L0.125,39.29
			c-0.202,0.458-0.158,0.983,0.116,1.403c0.272,0.418,0.739,0.669,1.239,0.669h14.917h14.917c0.5,0,0.966-0.25,1.24-0.669
			C32.83,40.273,32.873,39.748,32.67,39.29z M22.133,23.468c-0.262,0.209-0.657,0.246-0.905,0.019
			c-0.704-0.65-2.339-2.553-2.858-2.553c-0.756,0-1.194,1.164-1.973,1.164c-0.49,0-1.558-1.638-1.558-1.638
			c-0.258-0.271-0.677-0.308-0.978-0.086l-1.326,0.975c-0.271,0.199-0.643,0.191-0.905-0.02c-0.262-0.21-0.351-0.571-0.215-0.879
			l4.24-9.639c0.14-0.318,0.405-0.632,0.742-0.632c0.336,0,0.603,0.314,0.742,0.632l5.209,11.779
			C22.483,22.896,22.396,23.256,22.133,23.468z"/>
		<path d="M45.801,32.168L34.256,5.996c-0.389-0.881-1.26-1.449-2.223-1.449c-0.964,0-1.834,0.568-2.223,1.449l-4.525,10.258
			l7.512,17.668h11.859c0.424,0,0.817-0.212,1.049-0.566C45.936,33.001,45.973,32.556,45.801,32.168z M36.887,18.782
			c-0.223,0.178-0.557,0.209-0.766,0.016c-0.597-0.55-1.979-2.16-2.418-2.16c-0.641,0-1.011,0.984-1.67,0.984
			c-0.414,0-1.318-1.386-1.318-1.386c-0.217-0.229-0.571-0.26-0.826-0.073l-1.123,0.824c-0.229,0.168-0.543,0.163-0.766-0.016
			c-0.223-0.178-0.297-0.483-0.183-0.744l3.588-8.156c0.118-0.269,0.343-0.535,0.628-0.535c0.284,0,0.51,0.266,0.627,0.535
			l4.408,9.966C37.183,18.297,37.107,18.603,36.887,18.782z"/>
	</g>
</g>
<g>
</g>
<g>
</g>
<g>
</g>
<g>
</g>
<g>
</g>
<g>
</g>
<g>
</g>
<g>
</g>
<g>
</g>
<g>
</g>
<g>
</g>
<g>
</g>
<g>
</g>
<g>
</g>
<g>
</g>
</svg>
