<svg viewBox="0 0 512 512" xmlns="http://www.w3.org/2000/svg"><path d="m371.712 447.033-155.261-351.949c-5.223-11.844-16.942-19.479-29.878-19.479-12.937 0-24.656 7.635-29.878 19.479l-155.273 351.949c-2.298 5.211-1.797 11.184 1.32 15.963 3.095 4.756 8.408 7.612 14.097 7.612h169.722 169.723c5.689 0 10.991-2.845 14.108-7.612 3.14-4.779 3.63-10.752 1.32-15.963zm-119.888-180.019c-2.981 2.378-7.475 2.799-10.297.216-8.009-7.396-26.612-29.048-32.517-29.048-8.602 0-13.585 13.244-22.449 13.244-5.575 0-17.726-18.637-17.726-18.637-2.936-3.083-7.703-3.504-11.128-.978l-15.087 11.093c-3.083 2.264-7.315 2.173-10.296-.227-2.981-2.39-3.994-6.497-2.447-10.001l48.242-109.671c1.593-3.618 4.608-7.191 8.442-7.191 3.823 0 6.861 3.573 8.443 7.191l59.267 134.019c1.536 3.482.546 7.578-2.447 9.99zm269.29 98.986-131.357-297.779c-4.426-10.024-14.336-16.486-25.293-16.486-10.968 0-20.866 6.462-25.292 16.486l-51.485 116.713 85.47 201.023h134.929c4.824 0 9.296-2.412 11.935-6.44 2.629-4.039 3.05-9.102 1.093-13.517zm-101.422-152.303c-2.537 2.026-6.337 2.378-8.715.182-6.793-6.257-22.517-24.576-27.512-24.576-7.293 0-11.503 11.196-19.001 11.196-4.71 0-14.996-15.769-14.996-15.769-2.469-2.606-6.496-2.959-9.398-.831l-12.777 9.375c-2.605 1.912-6.178 1.855-8.715-.182-2.537-2.025-3.379-5.495-2.082-8.465l40.823-92.797c1.343-3.061 3.903-6.087 7.145-6.087 3.232 0 5.803 3.026 7.134 6.087l50.153 113.391c1.309 2.958.444 6.44-2.059 8.476z"/></svg>