<svg viewBox="0 0 512 512" xmlns="http://www.w3.org/2000/svg"><path d="m242.226 507.858c-.015 0-.029.001-.044.001h.133c-.029 0-.059-.001-.089-.001zm165.108-492.031c-21.111-21.11-55.47-21.101-76.592.021l-13.791 13.789-4.955-4.955c-7.214-7.214-18.91-7.214-26.124 0s-7.214 18.91 0 26.124l25.821 25.821c5.39 5.39 14.13 5.39 19.522 0l30.154-30.154c4.258-4.259 11.157-4.288 15.379-.065 4.222 4.222 4.192 11.121-.066 15.379 0 0-17.611 17.169-20.344 19.903l-42.992 39.828-7.058-7.057c-7.276-7.277-19.128-7.946-26.737-1.02-8.125 7.394-8.347 19.984-.669 27.662l7.439 7.439-12.611 12.612-7.058-7.058c-7.276-7.276-19.129-7.946-26.737-1.02-8.125 7.394-8.348 19.984-.67 27.662l7.44 7.44-13.513 13.512-7.057-7.058c-7.277-7.276-19.129-7.945-26.738-1.02-8.124 7.395-8.347 19.984-.669 27.662l7.44 7.44-12.612 12.611-7.058-7.057c-7.276-7.277-19.128-7.946-26.737-1.02-8.125 7.394-8.347 19.984-.669 27.662l7.439 7.439-56.49 56.49c-43.011 43.011-42.809 112.918.157 155.958 43.037 43 112.66 42.907 155.684-.116l1.869-1.869c24.605-24.605 56.546-39.668 90.262-43.726 5.662 2.915 10.632 5.508 15.158 7.899-7.745-45.751-19.153-112.863-25.6-150.866-4.068 1.209-8.149 2.443-12.146 3.808-1.102.248-2.262.454-3.426.688l.055.4c-51.936 18.287-99.278 47.952-138.456 86.986-7.833 7.805-20.902 8.207-28.612.282-7.515-7.726-7.492-20.042.152-27.688l232.952-253.255 9.246-10.922c21.118-21.124 21.127-55.482.018-76.591z"/><path d="m434.805 431.899-23.327-136.804c-2.139-12.459-14.414-21.053-26.218-18.258l.003-.003c-4.001.398-7.342 1.97-11.141 3.93.719 1.811 1.179 3.626 1.518 5.6l29.448 171.266c3.959 1.058 7.883.746 11.131.392l.052.051c12.365-2.045 20.672-13.715 18.534-26.174z"/></svg>