<?xml version="1.0" encoding="iso-8859-1"?>
<!-- Generator: Adobe Illustrator 16.0.0, SVG Export Plug-In . SVG Version: 6.00 Build 0)  -->
<!DOCTYPE svg PUBLIC "-//W3C//DTD SVG 1.1//EN" "http://www.w3.org/Graphics/SVG/1.1/DTD/svg11.dtd">
<svg version="1.1" id="Capa_1" xmlns="http://www.w3.org/2000/svg" xmlns:xlink="http://www.w3.org/1999/xlink" x="0px" y="0px"
	 width="93.511px" height="93.511px" viewBox="0 0 93.511 93.511" style="enable-background:new 0 0 93.511 93.511;"
	 xml:space="preserve">
<g>
	<g>
		<circle cx="14.703" cy="30.684" r="11.471"/>
		<path d="M47.125,37.152c1.433,0,2.771-0.321,3.91-0.879c1.211,2.024,3.793,3.423,6.781,3.423c2.795,0,5.233-1.227,6.528-3.042
			c0.918,0.319,1.931,0.498,2.992,0.498c4.084,0,7.403-2.61,7.512-5.862c-0.325,0.035-0.659,0.053-0.997,0.053
			c-2.988,0-5.568-1.398-6.781-3.422c-1.14,0.559-2.478,0.879-3.908,0.879c-4.151,0-7.518-2.697-7.518-6.025
			c0-0.656,0.133-1.29,0.377-1.883c-3.063,0.369-5.521,2.219-6.201,4.613c-0.836-0.26-1.744-0.401-2.695-0.401
			c-4.15,0-7.517,2.696-7.517,6.024C39.609,34.455,42.975,37.152,47.125,37.152z"/>
		<path d="M65.783,26.275c1.432,0,2.77-0.321,3.908-0.878c1.213,2.024,3.793,3.422,6.78,3.422c2.798,0,5.235-1.225,6.529-3.041
			c0.918,0.319,1.93,0.497,2.991,0.497c4.152,0,7.519-2.696,7.519-6.023s-3.364-6.024-7.519-6.024c-1.008,0-1.969,0.16-2.848,0.448
			c-0.736-2.706-3.744-4.732-7.342-4.732c-3.576,0-6.566,2.002-7.328,4.685c-0.836-0.258-1.744-0.4-2.693-0.4
			c-4.151,0-7.518,2.697-7.518,6.024S61.631,26.275,65.783,26.275z"/>
		<path d="M79.115,64.013c-3.098-4.619-6.299-9.396-10.112-12.717c-3.774-3.269-7.134-4.579-10.276-4.014
			c-4.885,0.883-7.656,5.965-10.336,10.877c-2.072,3.797-4.214,7.725-6.73,8.242c-1.285,0.266-2.891-0.354-4.756-1.812
			c-0.855-0.691-1.721-1.545-2.639-2.449c-3.289-3.244-7.795-7.686-14.119-4.84c-4.707,2.004-7.234,6.758-9.68,11.354
			c-2.586,4.861-5.035,9.451-9.734,10.672H0v4.241h93.24v-4.278C87.605,76.661,83.287,70.237,79.115,64.013z"/>
	</g>
</g>
<g>
</g>
<g>
</g>
<g>
</g>
<g>
</g>
<g>
</g>
<g>
</g>
<g>
</g>
<g>
</g>
<g>
</g>
<g>
</g>
<g>
</g>
<g>
</g>
<g>
</g>
<g>
</g>
<g>
</g>
</svg>
