<?xml version="1.0" encoding="iso-8859-1"?>
<!-- Generator: Adobe Illustrator 16.0.0, SVG Export Plug-In . SVG Version: 6.00 Build 0)  -->
<!DOCTYPE svg PUBLIC "-//W3C//DTD SVG 1.1//EN" "http://www.w3.org/Graphics/SVG/1.1/DTD/svg11.dtd">
<svg version="1.1" id="Capa_1" xmlns="http://www.w3.org/2000/svg" xmlns:xlink="http://www.w3.org/1999/xlink" x="0px" y="0px"
	 width="397.031px" height="397.031px" viewBox="0 0 397.031 397.031" style="enable-background:new 0 0 397.031 397.031;"
	 xml:space="preserve">
<g>
	<g>
		<path d="M198.503,0C89.044,0,0.003,89.054,0.003,198.512c0,109.464,89.041,198.519,198.5,198.519
			c109.471,0,198.525-89.055,198.525-198.519C397.028,89.054,307.974,0,198.503,0z M198.503,370.994
			c-95.092,0-172.463-77.377-172.463-172.482S103.411,26.036,198.503,26.036c95.117,0,172.488,77.37,172.488,172.476
			C370.991,293.617,293.62,370.994,198.503,370.994z"/>
		<path d="M278.646,100.774l-172.513,92.01c-5.086,2.715-7.781,8.454-6.625,14.106c1.17,5.649,5.912,9.865,11.658,10.354
			l63.26,5.365l5.365,63.266c0.482,5.746,4.703,10.488,10.348,11.652c0.877,0.178,1.754,0.266,2.631,0.266
			c4.73,0,9.18-2.594,11.48-6.891l92.004-172.513c2.695-5.06,1.779-11.283-2.275-15.332
			C289.921,99.001,283.704,98.073,278.646,100.774z"/>
	</g>
</g>
<g>
</g>
<g>
</g>
<g>
</g>
<g>
</g>
<g>
</g>
<g>
</g>
<g>
</g>
<g>
</g>
<g>
</g>
<g>
</g>
<g>
</g>
<g>
</g>
<g>
</g>
<g>
</g>
<g>
</g>
</svg>
