<?xml version="1.0" encoding="iso-8859-1"?>
<!-- Generator: Adobe Illustrator 18.1.1, SVG Export Plug-In . SVG Version: 6.00 Build 0)  -->
<svg version="1.1" id="Capa_1" xmlns="http://www.w3.org/2000/svg" xmlns:xlink="http://www.w3.org/1999/xlink" x="0px" y="0px"
	 viewBox="0 0 60.556 60.556" style="enable-background:new 0 0 60.556 60.556;" xml:space="preserve">
<g>
	<g>
		<rect x="57.814" y="23.025" width="2.742" height="5.362"/>
		<rect x="22.907" y="16.57" width="5.361" height="2.742"/>
		<path d="M56.55,49.388l-1.299-0.819l2.532-12.59l-4.739-1.093l0.131-0.568l3.767,0.869l1.681-7.291l-2.854-0.656l1.781-7.728
			c0.74-3.223,0.453-5.016-2.77-5.756L34.732,9.134c-3.222-0.743-4.151,0.257-4.896,3.477l-1.893,8.214l-2.854-0.656l-1.682,7.288
			l4.737,1.094l-1.231,5.345l2.038,2.262l20.171,4.65l2.457-1.228l-1.341,5.821l-5.679-3.588c0,0-8.385-4.496-10.724-2.157
			l-4.148,4.149l-4.162-4.162l2.429-10.541l-5.588-1.289l-1.85,8.022c-1.977-0.499-4.154,0.017-5.7,1.562L4.705,47.508
			C3.559,48.654,1.512,50.151,0,51.655h58.913C58.27,50.968,57.404,50.246,56.55,49.388z M29.703,25.758
			c-0.306,1.319-1.621,2.144-2.941,1.839c-1.319-0.305-2.143-1.619-1.839-2.939c0.307-1.319,1.621-2.143,2.939-1.839
			C29.184,23.124,30.008,24.44,29.703,25.758z M56.717,31.723c-0.305,1.319-1.621,2.144-2.94,1.84
			c-1.319-0.306-2.144-1.62-1.838-2.94c0.304-1.319,1.619-2.144,2.938-1.839C56.199,29.088,57.02,30.404,56.717,31.723z
			 M45.959,33.987l-12.152-2.8l1.401-6.077l12.15,2.802L45.959,33.987z M31.701,19.225l1.719-7.45l21.631,4.985l-1.72,7.452
			L31.701,19.225z"/>
	</g>
	<g>
	</g>
	<g>
	</g>
	<g>
	</g>
	<g>
	</g>
	<g>
	</g>
	<g>
	</g>
	<g>
	</g>
	<g>
	</g>
	<g>
	</g>
	<g>
	</g>
	<g>
	</g>
	<g>
	</g>
	<g>
	</g>
	<g>
	</g>
	<g>
	</g>
</g>
<g>
</g>
<g>
</g>
<g>
</g>
<g>
</g>
<g>
</g>
<g>
</g>
<g>
</g>
<g>
</g>
<g>
</g>
<g>
</g>
<g>
</g>
<g>
</g>
<g>
</g>
<g>
</g>
<g>
</g>
</svg>
