<svg viewBox="0 0 512 512" xmlns="http://www.w3.org/2000/svg"><path d="m486.273 186.522h25.727v50.31h-25.727zm-327.521-60.565h50.3v25.727h-50.3zm329.915 316.253-26.442-16.018 23.757-118.128-44.465-10.254 1.229-5.33 35.345 8.153 15.772-68.407-26.779-6.157 16.711-72.509c6.944-30.24 4.25-47.062-25.989-54.005l-188.104-43.368c-30.231-6.971-38.947 2.413-45.937 32.624l-17.762 77.069-26.778-6.155-15.781 68.382 44.445 10.263-11.55 50.151 19.122 21.223 189.257 43.629 23.053-11.522-12.58 54.617-53.286-33.666s-78.672-42.184-100.619-20.237l-38.919 38.928-39.051-39.051 22.791-98.902-52.43-12.094-17.359 75.268c-18.55-4.682-25.17-5.773-39.675 8.724l-22.171 22.638c-10.752 10.752-59.536 86.728-74.472 118.135l512 1.752c-6.034-6.445-15.322-7.704-23.333-15.753zm-266.149-230.045c-2.873 12.376-15.21 20.116-27.595 17.254-12.376-2.861-20.108-15.189-17.256-27.575 2.881-12.376 15.21-20.107 27.576-17.256 12.404 2.864 20.135 15.21 17.275 27.577zm253.461 55.968c-2.861 12.374-15.208 20.116-27.584 17.263-12.375-2.871-20.116-15.2-17.245-27.585 2.851-12.376 15.189-20.116 27.565-17.255 12.404 2.853 20.108 15.2 17.264 27.577zm-100.938 21.24-114.019-26.27 13.146-57.018 114 26.289zm-133.778-138.506 16.129-69.9 202.957 46.773-16.139 69.918z"/></svg>