<svg viewBox="0 0 512 512" xmlns="http://www.w3.org/2000/svg"><path d="M 488.816 194.419 L 512 194.419 L 512 239.755 L 488.816 239.755 Z M 193.678 139.842 L 239.005 139.842 L 239.005 163.026 L 193.678 163.026 Z"/><path d="M 478.129 417.318 L 467.146 410.393 L 488.554 303.945 L 448.486 294.704 L 449.593 289.901 L 481.443 297.248 L 495.656 235.604 L 471.525 230.057 L 486.584 164.717 C 492.841 137.466 490.414 122.307 463.164 116.051 L 293.659 76.971 C 266.416 70.689 258.562 79.145 252.263 106.369 L 236.257 175.819 L 212.127 170.272 L 197.906 231.892 L 237.957 241.141 L 227.549 286.333 L 244.78 305.458 L 415.325 344.774 L 436.099 334.391 L 424.762 383.608 L 376.745 353.271 C 376.745 353.271 305.851 315.257 286.074 335.034 L 251.003 370.114 L 215.813 334.924 L 236.351 245.8 L 189.104 234.902 L 173.462 302.728 C 156.746 298.509 138.34 302.871 125.269 315.934 L 39.78 401.423 C 30.091 411.112 12.784 423.769 0 436.485 L 498.108 436.485 C 492.671 430.677 485.349 424.572 478.129 417.318 Z M 251.139 217.527 C 248.551 228.679 237.433 235.654 226.272 233.075 C 215.12 230.497 208.153 219.387 210.723 208.226 C 213.319 197.074 224.429 190.107 235.573 192.677 C 246.75 195.257 253.717 206.383 251.139 217.527 Z M 479.541 267.961 C 476.962 279.112 465.836 286.088 454.683 283.518 C 443.532 280.931 436.556 269.82 439.143 258.66 C 441.713 247.508 452.831 240.533 463.984 243.111 C 475.161 245.682 482.103 256.808 479.541 267.961 Z M 388.582 287.102 L 285.837 263.429 L 297.683 212.048 L 400.411 235.738 L 388.582 287.102 Z M 268.031 162.29 L 282.565 99.301 L 465.455 141.449 L 450.912 204.455 L 268.031 162.29 Z"/></svg>