<svg viewBox="0 0 512 512" xmlns="http://www.w3.org/2000/svg"><path d="m245.473 321.387c3.257 2.865 7.324 4.3 11.394 4.3s8.138-1.435 11.393-4.3c4.126-3.634 101.001-89.982 101.001-179.534 0-61.997-50.418-112.435-112.393-112.435-61.976 0-112.396 50.438-112.396 112.435-.003 89.552 96.875 175.9 101.001 179.534zm11.394-208.911c16.09 0 29.137 13.149 29.137 29.377 0 16.227-13.047 29.378-29.137 29.378-16.096 0-29.141-13.153-29.141-29.378 0-16.228 13.045-29.377 29.141-29.377z"/><path d="m472.834 321.337-13.02-45.625c-2.114-7.405-8.879-12.509-16.576-12.509h-92.919c-3.359 4.993-6.904 10.006-10.652 15.047-26.045 34.992-52.521 58.662-55.457 61.249-7.559 6.656-17.268 10.322-27.343 10.322-10.069 0-19.778-3.662-27.347-10.325-2.932-2.584-29.413-26.258-55.456-61.246-3.748-5.041-7.292-10.055-10.651-15.047h-92.921c-7.698 0-14.463 5.104-16.576 12.509l-15.518 54.376 346.861 63.533zm40.233 141.004-33.262-116.577-165.037 138.548h181.725c5.409 0 10.503-2.537 13.76-6.855 3.257-4.319 4.297-9.916 2.814-15.116zm-428.668-99.291-52.653-9.645-31.084 108.936c-1.482 5.2-.442 10.797 2.816 15.115 3.258 4.317 8.352 6.854 13.76 6.854h67.161zm24.135 4.422v116.838h168.695l84.037-70.547z"/></svg>