<svg viewBox="0 0 512 512" xmlns="http://www.w3.org/2000/svg"><path d="m483.485 312.893c-5.555-10.423-14.524-10.395-20.024.064l-6.808 12.931c-5.509 10.451-19.538 18.925-31.344 18.925h-16.032c-11.816 0-28.371 6.553-36.982 14.633l-30.959 29.038-1.18-100.858c.786-17.653-10.141-23.575-10.141-23.575l-54.112-24.855 32.222-64.737 36.871 21.927s14.807 9.297 25.578-8.923l35.434-60.381c1.555-3.367 2.004-7.239 1.007-11.11-2.279-8.858-11.302-14.221-20.188-11.942-3.907.997-7.138 3.34-9.335 6.424l-29.449 49.728-60.078-35.507c-4.529-2.599-10.067-3.532-15.558-2.114l-74.977 19.255c-4.814 1.236-8.575 4.558-10.543 8.749l-36.459 72.891c-2.48 3.688-3.469 8.355-2.27 13.022 2.187 8.557 10.964 13.745 19.557 11.541 4.823-1.236 8.566-4.54 10.524-8.768l33.796-67.811 27.692-6.983-72.927 143.476-63.144 16.015c-1.684.376-3.331.979-4.941 1.757-10.141 5.179-14.048 17.397-8.869 27.564 4.529 8.868 14.596 13.05 23.83 10.507l74.711-19.32c17.801-3.917 22.311-13.827 22.311-13.827l29.266-56.263 59.603 34.144.567 82.51c.01 1.033.248 2.068.403 3.101l-11.101-4.008c-11.109-4.008-29.256-4.41-40.54-.915l-25.011 7.779c-11.283 3.506-29.468 3.195-40.622-.686l-18.395-6.406c-11.156-3.88-27.592-.942-36.724 6.544l-22.969 18.869c-9.133 7.486-25.523 10.259-36.605 6.204l-29.486-10.816c-11.082-4.073-24.507 1.107-29.989 11.577l-6.9 13.196c-5.481 10.46-.338 18.943 11.467 18.943h465.101c11.806 0 23.264-9.38 25.579-20.965l7.66-38.262c2.305-11.577-.311-29.412-5.876-39.827z"/><path d="m312.363 121.181c17.041-4.366 27.335-21.744 22.952-38.783-4.384-17.077-21.762-27.327-38.811-22.952-17.031 4.384-27.309 21.734-22.934 38.792 4.383 17.059 21.762 27.326 38.793 22.943z"/></svg>