<svg viewBox="0 0 512 512" xmlns="http://www.w3.org/2000/svg"><path d="M251.6 396.148L272.717 396.148 262.089 372.273Z"/><path d="M 255.999 0 C 114.839 0 0 114.839 0 255.999 C 0 397.16 114.839 512 255.999 512 C 397.16 512 512 397.161 512 255.999 C 512 114.838 397.161 0 255.999 0 Z M 309.068 255.999 C 310.294 264.169 309.779 272.597 307.406 280.735 C 300.267 305.242 277.462 322.356 251.955 322.356 L 251.952 322.356 C 246.484 322.356 241.036 321.576 235.765 320.035 C 207.706 311.855 190.568 284.138 194.803 255.999 L 58.612 255.999 C 58.612 147.158 147.158 58.612 255.999 58.612 C 364.841 58.612 453.388 147.158 453.388 255.999 L 309.068 255.999 Z"/><path d="M 243.959 259.217 C 238.409 278.272 249.348 298.22 268.4 303.779 C 287.454 309.328 307.401 298.391 312.961 279.337 C 316.033 268.794 314.052 257.987 308.441 249.485 L 328.632 77.252 L 263.808 236.469 C 254.513 240.632 247.035 248.681 243.959 259.217 Z" transform="matrix(0.906308, 0.422618, -0.422618, 0.906308, 116.134599, -99.453188)"/></svg>