<svg viewBox="0 0 512 512" xmlns="http://www.w3.org/2000/svg"><path d="m251.6 396.148h21.117l-10.628-23.875z"/><path d="m255.999 0c-141.16 0-255.999 114.839-255.999 255.999 0 141.161 114.839 256.001 255.999 256.001 141.161 0 256.001-114.839 256.001-256.001 0-141.161-114.839-255.999-256.001-255.999zm53.069 255.999c1.226 8.17.711 16.598-1.662 24.736-7.139 24.507-29.944 41.621-55.451 41.621h-.003c-5.468 0-10.916-.78-16.187-2.321-28.059-8.18-45.197-35.897-40.962-64.036h-136.191c0-108.841 88.546-197.387 197.387-197.387 108.842 0 197.389 88.546 197.389 197.387z"/><path d="m243.959 259.217c-5.55 19.055 5.389 39.003 24.441 44.562 19.054 5.549 39.001-5.388 44.561-24.442 3.072-10.543 1.091-21.35-4.52-29.852l20.191-172.233-64.824 159.217c-9.295 4.163-16.773 12.212-19.849 22.748z" transform="matrix(.906308 .422618 -.422618 .906308 116.134599 -99.453188)"/></svg>