<?xml version="1.0" encoding="iso-8859-1"?>
<!-- Generator: Adobe Illustrator 16.0.0, SVG Export Plug-In . SVG Version: 6.00 Build 0)  -->
<!DOCTYPE svg PUBLIC "-//W3C//DTD SVG 1.1//EN" "http://www.w3.org/Graphics/SVG/1.1/DTD/svg11.dtd">
<svg version="1.1" id="Capa_1" xmlns="http://www.w3.org/2000/svg" xmlns:xlink="http://www.w3.org/1999/xlink" x="0px" y="0px"
	 width="94.07px" height="94.07px" viewBox="0 0 94.07 94.07" style="enable-background:new 0 0 94.07 94.07;" xml:space="preserve"
	>
	<path d="M68.04,59.938c5.184-8.924,3.963-20.574-3.674-28.209c-7.633-7.635-19.285-8.857-28.208-3.673L10.577,2.473l-8.445,8.448
		L27.711,36.5c-5.183,8.925-3.962,20.577,3.673,28.21c7.637,7.638,19.287,8.857,28.211,3.673L85.28,94.07l8.445-8.448L68.04,59.938
		z M58.335,58.68c-5.768,5.769-15.149,5.769-20.918,0c-5.768-5.768-5.766-15.151,0.001-20.919c5.767-5.768,15.15-5.768,20.917,0
		C64.103,43.527,64.103,52.912,58.335,58.68z"/>
</svg>
