<svg xmlns="http://www.w3.org/2000/svg" viewBox="0 0 512 512"><path d="M51.8 367.076c-6.39 10.918-4.256 59.65-8.523 93.72-4.256 33.97 23.708 51.864 27.67 36.193 2.124-42.665 17.027-43.676 17.027-43.676s-4.53 19.21 5.317 40.44c25.54 31.948 28.774-10.616 39.39-28.712 10.615-18.097 53.18-56.414 95.742-36.194 13.85 102.11 51.156 83.003 56.413 79.768 5.36-3.134-1.01-41.45-2.123-64.906 0-55.302 54.09-6.673 74.51 37.305 2.63 5.56 25.276 36.8 30.837 15.974 13.85-72.388-33.97-219.287-33.97-219.287s17.995 14.862 25.476-21.332c7.482-36.09-27.095-20.522-23.354-38.215 3.943-19.21 9.504-33.97 27.6-24.567 23.354 12.233 85.127 21.332 100.09-9.503 2.426-5.156 3.84-9.2 4.75-12.94 8.898-.507 15.975-7.685 15.975-16.683 0-9.3-7.482-16.782-16.783-16.782-4.448 0-8.492 1.82-11.424 4.65-4.044-3.538-8.796-7.48-13.85-12.536-21.232-21.332-75.522-13.85-83.004-37.286-7.48-23.414 24.466-20.22 41.552-14.892 16.985 5.318 41.45 19.16 36.194-11.707-5.358-30.867-95.843-76.625-107.57-44.708-11.627 31.938 6.47 79.82-39.328 75.563-19.21-3.185-13.85-19.16-41.552-78.747-27.6-59.61-111.716 46.83-112.828 56.393-1.01 9.586-4.853 84.602 54.29 28.694 39.43-37.205 76.635 8.593 69.254 11.727-7.48 3.236-34.07 58.538-21.332 91.598-43.675 3.134-13.85 43.574-24.466 44.686-47.92 4.954-149 104.234-158.585 88.26-41.502-39.328 0-101.1 0-101.1C-69.52 274.468 64.305 345.54 51.8 367.076z"/></svg>