<svg viewBox="0 0 512 512" xmlns="http://www.w3.org/2000/svg"><path d="m490.749 367.2h-82.749l-42.524-114.93h26.433c14.941 0 27.584-12.642 27.584-27.583s-12.642-27.583-27.584-27.583h-271.233c-14.941 0-27.583 12.642-27.583 27.583s12.642 27.583 27.583 27.583h26.434l-42.524 114.93h-82.749c-11.493 0-21.837 10.342-21.837 21.835s10.344 21.839 21.837 21.839h65.509l-25.284 66.658c-4.597 11.493 1.149 24.135 12.642 27.583 2.299 1.149 4.597 1.149 8.045 1.149 9.195 0 17.24-5.746 20.688-13.792l31.031-82.749h243.65l31.031 82.749c3.448 9.195 11.493 13.792 20.688 13.792 2.298 0 4.598 0 8.045-1.149 11.493-4.597 17.239-17.239 12.642-27.583l-25.285-66.658h65.51c11.493 0 21.837-10.346 21.837-21.839-.001-12.64-9.194-21.835-21.837-21.835zm-340.191 0 42.524-114.93h126.422l42.524 114.93zm43.673-202.277c2.299 8.046 9.194 12.643 17.239 12.643h87.347c8.045 0 14.941-5.747 17.239-12.643l21.837-70.107c1.149-5.746 1.149-11.493-2.299-16.09s-9.194-6.895-14.94-6.895h-49.42v-49.42c0-9.195-6.895-16.09-16.09-16.09s-16.09 6.895-16.09 16.09v49.42h-49.42c-5.747 0-11.493 2.298-14.941 6.895s-4.597 10.344-2.299 16.09z"/></svg>