<svg xmlns="http://www.w3.org/2000/svg" viewBox="0 0 512 512"><path d="M481.049 271.779L420.766 255.674C414.696 254.083 408.295 255.647 403.716 259.886L380.313 281.484 367.469 267.575 375.407 254.615C380.659 246.047 377.967 234.837 369.398 229.585 360.847 224.322 349.62 227.017 344.368 235.595L341.808 239.78 334.004 231.328C327.825 224.616 319.088 222.207 310.645 223.247L302.545 212.581C311.222 199.754 310.378 182.235 299.418 170.342 290.004 160.154 275.828 157.052 263.471 161.203L181.536 53.447 173.047 17.519C170.62 7.253 161.456 0 150.905 0 140.354 0 131.19 7.253 128.764 17.52L18.456 484.396C15.559 496.627 23.131 508.883 35.362 511.772 47.566 514.645 59.851 507.088 62.74 494.867L150.905 121.713 239.072 494.868C241.545 505.338 250.884 512.396 261.196 512.396 262.931 512.396 264.688 512.192 266.448 511.773 278.68 508.884 286.253 496.628 283.355 484.397L191.847 97.082 248.441 171.515C237.419 184.474 237.409 203.834 249.24 216.652 259.552 227.816 275.525 230.394 288.609 224.332L294.119 231.585C288.52 237.683 286.352 245.55 287.357 253.318 287.321 254.554 298.556 319.209 298.556 319.209 300.12 327.849 307.649 334.169 316.468 334.169 322.724 334.169 328.644 330.942 331.986 325.477L337.817 315.965 353.711 332.747C357.169 335.921 361.47 337.76 365.907 337.76 370.316 337.76 374.74 336.161 378.243 332.933L421.042 293.441 471.645 306.962C481.432 309.556 491.342 303.78 493.938 294.074 496.532 284.358 490.755 274.375 481.049 271.779Z"/><path d="M418.019 308.1L381.361 341.921C373.976 348.738 373.514 360.249 380.331 367.644 383.921 371.526 388.811 373.501 393.717 373.501 398.126 373.501 402.552 371.901 406.055 368.675L442.711 334.854C450.099 328.037 450.56 316.527 443.743 309.13 436.926 301.761 425.423 301.282 418.019 308.1Z"/></svg>