<?xml version="1.0" encoding="iso-8859-1"?>
<!-- Generator: Adobe Illustrator 18.0.0, SVG Export Plug-In . SVG Version: 6.00 Build 0)  -->
<!DOCTYPE svg PUBLIC "-//W3C//DTD SVG 1.1//EN" "http://www.w3.org/Graphics/SVG/1.1/DTD/svg11.dtd">
<svg version="1.1" id="Capa_1" xmlns="http://www.w3.org/2000/svg" xmlns:xlink="http://www.w3.org/1999/xlink" x="0px" y="0px"
	 viewBox="0 0 494.381 494.381" style="enable-background:new 0 0 494.381 494.381;" xml:space="preserve">
<g id="XMLID_320_">
	<path id="XMLID_322_" d="M464.137,262.224l-58.164-15.539c-5.856-1.535-12.032-0.026-16.45,4.064l-22.58,20.839l-12.393-13.42
		l7.659-12.504c5.067-8.267,2.47-19.083-5.798-24.15c-8.25-5.078-19.082-2.478-24.15,5.798l-2.47,4.038l-7.529-8.155
		c-5.962-6.476-14.392-8.8-22.538-7.797l-7.815-10.291c8.372-12.376,7.557-29.279-3.017-40.754
		c-9.083-9.829-22.761-12.822-34.684-8.817L175.154,51.568l-8.191-34.665C164.622,6.998,155.78,0,145.6,0
		c-10.18,0-19.022,6.998-21.363,16.904L17.807,467.366c-2.795,11.801,4.511,23.627,16.312,26.414
		c11.775,2.772,23.628-4.519,26.415-16.311L145.6,117.434l85.067,360.036c2.386,10.102,11.397,16.912,21.346,16.912
		c1.674,0,3.37-0.197,5.068-0.601c11.802-2.787,19.108-14.613,16.312-26.414L185.102,93.669l54.605,71.816
		c-10.635,12.504-10.644,31.183,0.771,43.55c9.949,10.772,25.361,13.259,37.985,7.41l5.316,6.998
		c-5.402,5.884-7.494,13.474-6.524,20.969c-0.035,1.193,10.805,63.575,10.805,63.575c1.509,8.336,8.773,14.434,17.282,14.434
		c6.036,0,11.748-3.114,14.973-8.387l5.626-9.177l15.335,16.192c3.336,3.062,7.486,4.837,11.767,4.837
		c4.254,0,8.523-1.543,11.902-4.658l41.295-38.103l48.824,13.045c9.443,2.503,19.004-3.07,21.509-12.435
		C479.076,274.361,473.502,264.729,464.137,262.224z"/>
	<path id="XMLID_321_" d="M403.323,297.268L367.954,329.9c-7.126,6.578-7.571,17.684-0.994,24.819
		c3.464,3.746,8.182,5.651,12.915,5.651c4.254,0,8.525-1.544,11.905-4.656l35.367-32.632c7.128-6.578,7.573-17.683,0.996-24.82
		C421.565,291.152,410.467,290.69,403.323,297.268z"/>
</g>
<g>
</g>
<g>
</g>
<g>
</g>
<g>
</g>
<g>
</g>
<g>
</g>
<g>
</g>
<g>
</g>
<g>
</g>
<g>
</g>
<g>
</g>
<g>
</g>
<g>
</g>
<g>
</g>
<g>
</g>
</svg>
