<svg viewBox="0 0 512 512" xmlns="http://www.w3.org/2000/svg"><path d="m304.121 470.736c-27.911-30.983-41.478-57.292-41.478-80.429v-1.354l.181-1.342c.162-1.193 1.79-13.144 3.966-28.612l-26.909-7.804-2.071-25.756c39.259-24.426 58.725-76.238 53.925-126.084-25.09 21.899-63.606 30.625-97.032 30.625-33.425 0-71.97-8.749-97.031-30.625-4.997 51.862 16.089 102.543 53.925 126.084l-2.071 25.756-102.349 29.681c-14.499 4.205-23.723 18.406-21.67 33.362l10.098 73.568c1.889 13.772 13.657 24.034 27.558 24.034h263.081c5.6 0 10.839-1.688 15.24-4.576-11.614-10.217-25.076-22.889-37.363-36.528z"/><path d="m71.567 133.775c9.347 6.288 14.974 10.072 24.265 16.321-4.828 32.633 41.447 59.874 98.873 59.874 57.493 0 103.691-27.274 98.873-59.874 9.271-6.236 14.936-10.045 24.266-16.321 5.08-3.417 7.441-9.678 5.88-15.598l-14.007-53.168c-1.797-6.821-6.415-12.553-12.695-15.764l-91.031-46.528c-7.088-3.623-15.485-3.623-22.573 0l-91.031 46.528c-6.281 3.211-10.897 8.943-12.695 15.764l-14.008 53.168c-1.559 5.922.801 12.181 5.883 15.598zm93.731-75.56c.427-2.907 2.92-5.059 5.857-5.059h47.484c2.97 0 5.48 2.2 5.87 5.144l3.488 26.343c0 13.174-20.911 31.351-29.588 38.327-2.165 1.74-5.252 1.735-7.416-.005-8.681-6.979-29.581-25.151-29.581-38.322zm307.905 235.226c-3.204-17.533-39.374-21.998-88.127-22.098-48.754.102-84.924 4.565-88.128 22.098-4.399 24.081-14.292 96.866-14.292 96.866 0 41.107 66.179 98.048 92.143 118.806 3.007 2.403 6.639 3.606 10.272 3.606 3.642 0 7.283-1.208 10.298-3.618 25.975-20.768 92.128-77.693 92.128-118.792-.001-.002-9.894-72.787-14.294-96.868zm-33.83 68.355c-1.226 0-2.382-.284-3.419-.778l-18.642 20.842 2.832 27.825c3.869.552 6.846 3.869 6.846 7.89 0 4.406-3.573 7.979-7.979 7.979s-7.978-3.573-7.978-7.979c0-.277.015-.55.041-.819l-25.998-11.472-25.664 11.326c.039.316.064.638.064.967 0 4.406-3.573 7.978-7.979 7.978s-7.978-3.572-7.978-7.978c0-3.894 2.791-7.133 6.484-7.834l2.837-27.879-18.642-20.842c-1.038.493-2.194.777-3.419.777-4.407 0-7.979-3.572-7.979-7.98 0-4.407 3.572-7.979 7.979-7.979 2.977 0 5.568 1.633 6.939 4.051l27.433-5.927 14.009-24.079c-1.277-1.414-2.063-3.284-2.063-5.342 0-4.406 3.572-7.978 7.979-7.978 4.406 0 7.98 3.572 7.98 7.978 0 2.058-.786 3.926-2.063 5.342l14.009 24.079 27.435 5.927c1.37-2.416 3.962-4.051 6.939-4.051 4.406 0 7.979 3.572 7.979 7.979-.002 4.404-3.574 7.977-7.982 7.977z"/></svg>