<svg viewBox="0 0 512 512" xmlns="http://www.w3.org/2000/svg"><path d="m418.535 228.735c-8.234 0-16.339 1.223-24.076 3.579v-103.486c0-10.295-8.344-18.641-18.641-18.641h-95.023c3.084-8.731 4.692-18.027 4.692-27.598 0-45.541-37.048-82.589-82.588-82.589s-82.591 37.048-82.591 82.589c0 9.571 1.605 18.869 4.692 27.598h-95.023c-10.297 0-18.641 8.346-18.641 18.641v123.578c0 6.251 3.134 12.087 8.344 15.539 5.212 3.452 11.806 4.066 17.562 1.625 5.575-2.361 11.51-3.556 17.639-3.556 24.984 0 45.309 20.326 45.309 45.307s-20.325 45.307-45.309 45.307c-6.129 0-12.062-1.196-17.639-3.557-5.756-2.44-12.353-1.827-17.562 1.626-5.212 3.452-8.344 9.288-8.344 15.539v123.578c0 10.295 8.344 18.641 18.641 18.641h113.552c.017.002.037 0 .05 0 10.297 0 18.64-8.346 18.64-18.641 0-2.863-.643-5.575-1.799-8.001-1.879-5.05-2.831-10.346-2.831-15.76 0-24.983 20.326-45.307 45.307-45.307s45.307 20.326 45.307 45.307c0 5.796-1.091 11.456-3.243 16.827-2.302 5.744-1.603 12.255 1.864 17.38 3.469 5.125 9.253 8.195 15.439 8.195h113.552c10.298 0 18.641-8.346 18.641-18.641v-103.484c7.735 2.357 15.84 3.579 24.077 3.579 45.538 0 82.588-37.047 82.588-82.588s-37.045-82.586-82.586-82.586z"/></svg>