<svg viewBox="0 0 512 512" xmlns="http://www.w3.org/2000/svg"><path d="m503.459 423.132-143.684-145.947c-5.657 3.394-10.183 5.657-16.971 7.919-6.786 2.264-14.707 3.395-22.627 3.395-9.05 0-18.101-2.263-26.021-4.527l-46.386 48.65c5.657 4.525 13.576 6.788 21.495 7.918 10.184 0 20.366-3.393 28.284-11.313l1.132-1.13 143.684 152.735c5.657 5.657 13.576 9.05 21.496 9.05s15.84-3.393 21.496-9.05l18.102-18.102c5.657-5.657 9.05-13.577 9.05-21.496 0-7.921-3.393-13.577-9.05-18.102zm-343.936-191.201 42.992-40.73c-2.263-7.919-3.394-15.839-3.394-23.758 0-13.577 4.525-27.153 11.314-38.467l-90.51-93.904c-13.576-13.576-37.335-13.576-50.911 0-23.759 23.758-24.891 62.225-3.395 88.246z"/><path d="m295.287 245.506c6.789 6.788 15.84 10.183 24.89 10.183 9.051 0 18.101-3.395 24.891-10.183l114.268-114.268c4.525-4.526 4.525-11.314 0-15.839l-2.264-2.263c-2.262-2.263-4.525-3.394-7.918-3.394-3.395 0-5.657 1.131-7.921 3.394l-75.803 75.802c-3.393 3.394-7.918 4.525-12.443 4.525-4.527 0-9.052-2.263-12.445-4.525l-2.264-2.263c-6.788-6.788-6.788-16.971 0-23.759l75.803-75.801c4.526-4.526 4.526-11.314 0-15.84l-2.264-2.262c-2.261-2.263-4.525-3.394-7.918-3.394-3.395 0-5.657 1.131-7.921 3.394l-75.802 75.801c-3.394 3.394-7.919 4.526-12.444 4.526-4.527 0-9.051-2.263-12.445-4.526l-2.263-2.262c-3.393-3.394-4.526-7.92-4.526-12.445 0-4.526 2.264-9.051 4.526-12.445l75.802-75.802c2.262-2.263 3.394-4.526 3.394-7.92s-1.132-5.657-3.394-7.919l-2.263-2.263c-2.264-2.263-4.526-3.394-7.921-3.394-3.393 0 .002 4.525-2.262 6.788l-114.267 114.269c-6.788 6.788-10.182 15.839-10.182 24.89s3.394 19.234 10.182 24.89l3.394 3.394-236.456 224.012c-5.657 5.656-9.051 13.575-9.051 21.496 0 7.918 3.394 15.839 9.051 21.496l16.97 19.234c5.657 5.657 13.577 11.313 21.497 11.313 7.919 0 15.839-5.656 21.496-11.313l222.878-238.72z"/></svg>