<svg viewBox="0 0 512 512" xmlns="http://www.w3.org/2000/svg"><path d="m330.08 247.119v-76.283l-148.16 39.525v130.804l97.59-26.034c-.033-.874-.066-1.749-.066-2.631-.001-31.403 21.549-57.866 50.636-65.381zm-148.16-133.209v61.511l148.16-39.525v-131.393l-99.808 26.627c1.483 5.555 2.285 11.385 2.285 17.402 0 31.401-21.55 57.864-50.637 65.378zm181.918 133.209c29.088 7.514 50.638 33.978 50.638 65.38 0 1.453-.062 2.891-.153 4.322l97.677 28.722v-130.555l-148.162-43.567zm-363.838 49.893 148.162 43.568v-130.555l-148.162-43.568zm198.799-248.481c0-18.614-15.144-33.758-33.758-33.758-18.615 0-33.759 15.144-33.759 33.758s15.144 33.758 33.759 33.758c18.614 0 33.758-15.144 33.758-33.758zm-101.275 0c0-6.613.972-13 2.753-19.044l-100.277-29.487v131.269l148.162 43.567v-60.926c-29.088-7.513-50.638-33.977-50.638-65.379zm-97.524 414.938 148.162 43.567v-131.269l-148.162-43.567zm363.838-85.589v90.553l148.162 43.567v-131.269l-108.226-31.824c-9.081 14.121-23.262 24.665-39.936 28.973zm16.88-65.381c0-18.614-15.144-33.758-33.759-33.758-18.614 0-33.758 15.144-33.758 33.758s15.144 33.758 33.758 33.758c18.615 0 33.759-15.144 33.759-33.758zm-91.49 34.977-107.308 28.627v131.394l148.16-39.526v-90.092c-17.236-4.452-31.825-15.559-40.852-30.403zm74.61-342.512v131.269l148.162 43.567v-131.269z"/></svg>