<?xml version="1.0" encoding="iso-8859-1"?>
<!-- Generator: Adobe Illustrator 19.0.0, SVG Export Plug-In . SVG Version: 6.00 Build 0)  -->
<svg version="1.1" id="Layer_1" xmlns="http://www.w3.org/2000/svg" xmlns:xlink="http://www.w3.org/1999/xlink" x="0px" y="0px"
	 viewBox="0 0 455 455" style="enable-background:new 0 0 455 455;" xml:space="preserve">
<g>
	<path d="M293.333,219.608v-67.791l-131.666,35.125v116.242l86.726-23.136c-0.03-0.777-0.059-1.554-0.059-2.338
		C248.333,249.803,267.484,226.286,293.333,219.608z"/>
	<path d="M161.667,101.229v54.663l131.666-35.125V4.002l-88.697,23.662c1.318,4.937,2.031,10.118,2.031,15.465
		C206.667,71.034,187.516,94.551,161.667,101.229z"/>
	<path d="M323.333,219.608c25.849,6.677,45,30.195,45,58.101c0,1.291-0.055,2.569-0.136,3.841L455,307.074V191.054l-131.667-38.717
		V219.608z"/>
	<polygon points="0,263.946 131.667,302.664 131.667,186.643 0,147.926 	"/>
	<path d="M176.667,43.128c0-16.542-13.458-30-30-30c-16.542,0-30,13.458-30,30s13.458,30,30,30
		C163.209,73.128,176.667,59.67,176.667,43.128z"/>
	<path d="M86.667,43.128c0-5.877,0.864-11.553,2.446-16.924L0,0v116.655l131.667,38.717v-54.143
		C105.818,94.552,86.667,71.034,86.667,43.128z"/>
	<polygon points="0,411.872 131.667,450.589 131.667,333.934 0,295.217 	"/>
	<path d="M323.333,335.811v80.472L455,455V338.345l-96.177-28.281C350.753,322.613,338.15,331.983,323.333,335.811z"/>
	<path d="M338.333,277.709c0-16.542-13.458-30-30-30c-16.542,0-30,13.458-30,30c0,16.542,13.458,30,30,30
		C324.875,307.709,338.333,294.251,338.333,277.709z"/>
	<path d="M257.029,308.792l-95.362,25.44v116.766l131.666-35.125v-80.063C278.016,331.854,265.051,321.984,257.029,308.792z"/>
	<polygon points="323.333,4.411 323.333,121.066 455,159.783 455,43.128 	"/>
</g>
<g>
</g>
<g>
</g>
<g>
</g>
<g>
</g>
<g>
</g>
<g>
</g>
<g>
</g>
<g>
</g>
<g>
</g>
<g>
</g>
<g>
</g>
<g>
</g>
<g>
</g>
<g>
</g>
<g>
</g>
</svg>
