<svg viewBox="0 0 512 512" xmlns="http://www.w3.org/2000/svg"><path d="m219.818 334.618c.285 21.354-2.358 43.133-7.855 64.73-5.662 22.243-13.777 43.475-24.116 63.108-3.637 6.901-10.525 11.022-18.432 11.022-5.595 0-10.87-2.193-14.851-6.174l-108.886-108.887c-4.785-4.785-6.948-11.371-5.932-18.069.997-6.586 4.928-12.131 10.78-15.216 19.628-10.337 40.862-18.451 63.108-24.113 20.53-5.225 41.272-7.875 61.647-7.875 1.042 0 2.071.007 3.082.02 22.558.299 41.155 18.896 41.455 41.454zm211.109-73.5c-21.996 21.996-45.706 43.527-68.868 63.44 4.491 21.619 10.085 61.765-.255 96.918-14.368 48.857-46.292 83.978-47.643 85.449-3.454 3.759-8.292 5.944-13.397 6.054-.133.003-.262.003-.395.003-4.962 0-9.73-1.971-13.244-5.488l-53.828-53.83c6.012-14.503 11.029-29.578 14.973-45.076 6.306-24.778 9.338-49.833 9.009-74.467-.577-43.395-35.021-77.841-78.419-78.418-1.179-.015-2.372-.023-3.581-.023-23.49 0-47.339 3.04-70.888 9.034-15.5 3.944-30.573 8.959-45.076 14.97l-53.828-53.827c-3.609-3.609-5.589-8.537-5.482-13.639.107-5.105 2.295-9.943 6.054-13.397 1.471-1.351 36.592-33.273 85.449-47.644 13.26-3.898 28.37-5.876 44.916-5.876 20.46 0 39.377 3.004 51.997 5.627 19.913-23.163 41.447-46.875 63.443-68.871 74.043-74.042 185.739-82.035 230.325-82.035 7.852 0 12.435.268 12.932.3 9.439.582 16.961 8.105 17.543 17.543.382 6.206 8.355 153.16-81.737 243.253zm-13.37-57.702c14.424-14.423 22.366-33.599 22.366-53.994 0-20.398-7.942-39.574-22.366-53.998s-33.599-22.365-53.995-22.365c-20.397 0-39.573 7.942-53.997 22.365s-22.365 33.6-22.365 53.998c0 20.397 7.942 39.571 22.365 53.994s33.6 22.366 53.997 22.366c20.396 0 39.572-7.942 53.995-22.366zm-53.995-92.894c-10.389 0-20.157 4.046-27.505 11.394-7.346 7.348-11.394 17.116-11.394 27.506 0 10.389 4.046 20.157 11.394 27.505 7.348 7.346 17.116 11.394 27.505 11.394 10.39 0 20.158-4.046 27.506-11.394 7.345-7.348 11.394-17.116 11.394-27.505 0-10.39-4.046-20.158-11.394-27.506-7.35-7.348-17.118-11.394-27.506-11.394z"/></svg>