<?xml version="1.0" encoding="iso-8859-1"?>
<!-- Generator: Adobe Illustrator 17.1.0, SVG Export Plug-In . SVG Version: 6.00 Build 0)  -->
<!DOCTYPE svg PUBLIC "-//W3C//DTD SVG 1.1//EN" "http://www.w3.org/Graphics/SVG/1.1/DTD/svg11.dtd">
<svg version="1.1" id="Capa_1" xmlns="http://www.w3.org/2000/svg" xmlns:xlink="http://www.w3.org/1999/xlink" x="0px" y="0px"
	 viewBox="0 0 205.4 205.4" style="enable-background:new 0 0 205.4 205.4;" xml:space="preserve">
<path d="M88.013,133.978c0.114,8.55-0.944,17.27-3.145,25.917c-2.267,8.906-5.516,17.407-9.656,25.268
	c-1.456,2.763-4.214,4.413-7.38,4.413c-2.24,0-4.352-0.878-5.946-2.472l-43.597-43.597c-1.916-1.916-2.782-4.553-2.375-7.235
	c0.399-2.637,1.973-4.857,4.316-6.092c7.859-4.139,16.361-7.388,25.268-9.655c8.22-2.092,16.525-3.153,24.683-3.153
	c0.417,0,0.829,0.003,1.234,0.008C80.447,117.5,87.893,124.946,88.013,133.978z M172.539,104.549
	c-8.807,8.807-18.3,17.428-27.574,25.401c1.798,8.656,4.038,24.73-0.102,38.805c-5.753,19.562-18.535,33.624-19.076,34.213
	c-1.383,1.505-3.32,2.38-5.364,2.424c-0.053,0.001-0.105,0.001-0.158,0.001c-1.987,0-3.896-0.789-5.303-2.197L93.41,181.643
	c2.407-5.807,4.416-11.843,5.995-18.048c2.525-9.921,3.739-19.953,3.607-29.816c-0.231-17.375-14.022-31.167-31.398-31.398
	c-0.472-0.006-0.95-0.009-1.434-0.009c-9.405,0-18.954,1.217-28.383,3.617c-6.206,1.579-12.241,3.587-18.048,5.994L2.197,90.431
	c-1.445-1.445-2.238-3.418-2.195-5.461c0.043-2.044,0.919-3.981,2.424-5.364c0.589-0.541,14.651-13.322,34.213-19.076
	c5.309-1.561,11.359-2.353,17.984-2.353c8.192,0,15.766,1.203,20.819,2.253c7.973-9.274,16.595-18.768,25.402-27.575
	c29.646-29.646,74.368-32.846,92.22-32.846c3.144,0,4.979,0.107,5.178,0.12c3.779,0.233,6.791,3.245,7.024,7.024
	C205.419,9.638,208.611,68.477,172.539,104.549z M167.186,81.446c5.775-5.775,8.955-13.453,8.955-21.619
	c0-8.167-3.18-15.845-8.955-21.62s-13.453-8.955-21.619-8.955c-8.167,0-15.845,3.18-21.62,8.955s-8.955,13.453-8.955,21.62
	c0,8.167,3.18,15.844,8.955,21.619s13.453,8.955,21.62,8.955C153.733,90.401,161.411,87.221,167.186,81.446z M145.567,44.252
	c-4.16,0-8.071,1.62-11.013,4.562c-2.941,2.942-4.562,6.853-4.562,11.013c0,4.16,1.62,8.071,4.562,11.013
	c2.942,2.941,6.853,4.562,11.013,4.562c4.16,0,8.071-1.62,11.013-4.562c2.941-2.942,4.562-6.853,4.562-11.013
	c0-4.16-1.62-8.071-4.562-11.013C153.637,45.872,149.726,44.252,145.567,44.252z"/>
<g>
</g>
<g>
</g>
<g>
</g>
<g>
</g>
<g>
</g>
<g>
</g>
<g>
</g>
<g>
</g>
<g>
</g>
<g>
</g>
<g>
</g>
<g>
</g>
<g>
</g>
<g>
</g>
<g>
</g>
</svg>
