<?xml version="1.0" encoding="iso-8859-1"?>
<!-- Generator: Adobe Illustrator 16.0.0, SVG Export Plug-In . SVG Version: 6.00 Build 0)  -->
<!DOCTYPE svg PUBLIC "-//W3C//DTD SVG 1.1//EN" "http://www.w3.org/Graphics/SVG/1.1/DTD/svg11.dtd">
<svg version="1.1" id="Capa_1" xmlns="http://www.w3.org/2000/svg" xmlns:xlink="http://www.w3.org/1999/xlink" x="0px" y="0px"
	 width="333.28px" height="333.28px" viewBox="0 0 333.28 333.28" style="enable-background:new 0 0 333.28 333.28;"
	 xml:space="preserve">
<g>
	<g>
		<path d="M29.898,86.463c0.147,0,0.31-0.005,0.462-0.021l176.045-15.234c2.55-0.22,4.586-2.21,4.882-4.761l6.771-60.473
			c0.189-1.722-0.462-3.438-1.753-4.593c-1.291-1.166-3.044-1.638-4.766-1.244l-72.075,16.125c-1.029,0.231-1.969,0.762-2.698,1.518
			c-5.444,5.659-22.399,20.352-35.282,20.352c-3.045,0-5.622-0.83-7.858-2.53c-1.071-0.824-2.436-1.213-3.774-1.076l-60.473,5.822
			c-2.755,0.262-4.855,2.572-4.855,5.349v35.392c0,1.506,0.63,2.945,1.743,3.958C27.253,85.964,28.555,86.463,29.898,86.463z"/>
		<path d="M319.226,326.182l-10.751-31.802c-0.745-2.184-2.794-3.653-5.093-3.653h-31.537v-97.653c0-2.973-2.404-5.375-5.376-5.375
			h-21.502v-26.432c0-1.513-0.756-2.945-1.875-3.964c-1.111-1.013-2.729-1.527-4.23-1.38c-3.475,0-11.023-5.302-21.796-20.178
			c-1.374-1.901-3.815-2.688-6.004-1.963c-2.221,0.718-3.722,2.787-3.722,5.112v151.833h-15.298V138.894
			c0-1.822-0.925-3.518-2.452-4.509c-1.526-0.998-3.464-1.149-5.112-0.399l-4.571,2.037l11.71-27.764
			c0.285-0.662,0.426-1.371,0.426-2.09V90.043c0-2.971-2.404-5.375-5.376-5.375h-53.753c-2.976,0-5.375,2.404-5.375,5.375v200.684
			h-14.32V90.043c0-2.971-2.405-5.375-5.375-5.375H54.088c-2.977,0-5.375,2.404-5.375,5.375v200.684H29.898
			c-2.309,0-4.356,1.466-5.091,3.653l-10.751,31.802c-0.556,1.644-0.283,3.454,0.725,4.856c1.014,1.401,2.63,2.241,4.368,2.241
			h294.985c1.732,0,3.36-0.834,4.368-2.241C319.514,329.625,319.776,327.821,319.226,326.182z"/>
	</g>
</g>
<g>
</g>
<g>
</g>
<g>
</g>
<g>
</g>
<g>
</g>
<g>
</g>
<g>
</g>
<g>
</g>
<g>
</g>
<g>
</g>
<g>
</g>
<g>
</g>
<g>
</g>
<g>
</g>
<g>
</g>
</svg>
