<svg viewBox="0 0 512 512" xmlns="http://www.w3.org/2000/svg"><path d="m45.969 132.94c.226 0 .477-.008.711-.032l270.675-23.423c3.921-.338 7.052-3.398 7.507-7.32l10.41-92.98c.291-2.647-.71-5.286-2.695-7.062-1.985-1.792-4.68-2.518-7.328-1.912l-110.818 24.792c-1.582.356-3.027 1.172-4.148 2.334-8.37 8.701-34.439 31.292-54.248 31.292-4.681 0-8.644-1.276-12.082-3.89-1.646-1.267-3.745-1.865-5.802-1.654l-92.98 8.952c-4.236.402-7.464 3.954-7.464 8.224v54.416c0 2.316.968 4.528 2.679 6.086 1.517 1.41 3.518 2.177 5.583 2.177zm444.853 368.577-16.53-48.897c-1.146-3.358-4.296-5.616-7.831-5.616h-48.489v-150.145c0-4.572-3.696-8.265-8.266-8.265h-33.06v-40.64c0-2.326-1.162-4.528-2.883-6.095-1.708-1.557-4.196-2.348-6.504-2.122-5.343 0-16.948-8.152-33.512-31.024-2.112-2.923-5.866-4.133-9.231-3.018-3.415 1.104-5.723 4.285-5.723 7.86v233.449h-23.521v-233.449c0-2.802-1.422-5.409-3.77-6.933-2.347-1.534-5.326-1.767-7.86-.613l-7.028 3.131 18.004-42.688c.439-1.018.655-2.108.655-3.213v-24.795c0-4.568-3.696-8.264-8.265-8.264h-82.648c-4.575 0-8.264 3.696-8.264 8.264v308.56h-22.018v-308.56c0-4.568-3.697-8.264-8.264-8.264h-82.652c-4.577 0-8.264 3.696-8.264 8.264v308.56h-28.929c-3.55 0-6.697 2.254-7.827 5.616l-16.53 48.897c-.855 2.528-.435 5.311 1.114 7.466 1.559 2.154 4.044 3.446 6.716 3.446h453.551c2.663 0 5.166-1.282 6.716-3.446 1.556-2.172 1.959-4.946 1.113-7.466z"/></svg>