<svg xmlns="http://www.w3.org/2000/svg" viewBox="0 0 512 512"><path d="M476.789 353.136H415.519C417.747 346.452 418.861 340.882 418.861 333.084V221.685C418.861 141.477 354.25 76.866 274.042 76.866H144.819C64.612 76.866 0 141.477 0 221.685V333.084C0 362.047 23.394 385.442 52.358 385.442H120.311C120.311 383.214 120.311 380.986 120.311 379.872 120.311 330.856 160.415 290.752 209.431 290.752 258.446 290.752 298.55 330.856 298.55 379.872 298.55 382.1 298.55 384.328 298.55 385.442H476.789C477.903 385.442 479.017 386.556 479.017 387.67V413.291C479.017 422.203 486.815 430.001 495.727 430.001S512.437 422.203 512.437 413.291V387.67C512.437 368.732 495.727 353.136 476.789 353.136ZM76.866 249.534C57.928 249.534 43.446 233.939 43.446 216.115 43.446 165.985 83.549 125.881 133.679 125.881H193.835V249.534H76.866ZM343.11 249.534H226.141V125.881H286.296C336.426 125.881 376.53 165.985 376.53 216.115 376.53 235.053 360.935 249.534 343.11 249.534Z"/></svg>