<svg viewBox="0 0 512 512" xmlns="http://www.w3.org/2000/svg"><path d="m476.789 353.136h-61.27c2.228-6.684 3.342-12.254 3.342-20.052v-111.399c0-80.208-64.611-144.819-144.819-144.819h-129.223c-80.207 0-144.819 64.611-144.819 144.819v111.399c0 28.963 23.394 52.358 52.358 52.358h67.953c0-2.228 0-4.456 0-5.57 0-49.016 40.104-89.12 89.12-89.12 49.015 0 89.119 40.104 89.119 89.12v5.57h178.239c1.114 0 2.228 1.114 2.228 2.228v25.621c0 8.912 7.798 16.71 16.71 16.71s16.71-7.798 16.71-16.71v-25.621c0-18.938-16.71-34.534-35.648-34.534zm-399.923-103.602c-18.938 0-33.42-15.595-33.42-33.419 0-50.13 40.103-90.234 90.233-90.234h60.156v123.653zm266.244 0h-116.969v-123.653h60.155c50.13 0 90.234 40.104 90.234 90.234 0 18.938-15.595 33.419-33.42 33.419z"/></svg>