<svg xmlns="http://www.w3.org/2000/svg" viewBox="0 0 512.001 512.001"><path d="M507.605 316.678c-41.437-41.437-103.11-49.744-153.25-25.955l-27.089-27.089 10.483-10.485c6-5.999 6-15.599 0-21.299l-31.8-31.8 21.301-21.301 31.8 31.8c5.739 5.735 15.057 6.24 21.301 0l42.299-42.299L316.751 62.35l-42.601 42.301c-5.7 5.7-5.7 15.298 0 20.999l31.8 31.8-20.999 21.301L200.05 93.85 93.851 200.051l84.899 84.899-21.299 21-31.8-31.8c-5.7-5.7-15.3-5.7-21 0l-42.599 42.599L168.251 422.65l42.299-42.299c6-6 6-15.3 0-21.301l-31.8-31.8 21.301-21.301 31.8 31.8c6.216 6.22 15.538 5.762 21.301 0l10.483-10.483 27.087 27.087c-23.787 50.14-15.478 111.828 25.957 153.252 5.859 5.859 15.352 5.859 21.211 0 91.611-91.611 127.928-127.928 169.717-169.717C513.465 332.029 513.465 322.537 507.605 316.678zM507.243 486.205L454.45 433.45l-21 21 52.794 52.755C499.248 521.665 521.885 500.113 507.243 486.205zM481.5 89.175l-84.6-84.9c-5.999-5.7-15.599-5.7-21.299 0l-42.301 42.6 105.901 105.901 42.299-42.3C487.5 104.476 487.5 95.176 481.5 89.175zM46.876 334L4.275 376.301c-5.7 5.698-5.7 15.298 0 21.299l84.901 84.6c6.245 6.241 15.562 5.735 21.301 0l42.299-42.299L46.876 334zM161.267 55.065c-11.715-11.718-30.711-11.719-42.428-.002l-63.775 63.774c-11.716 11.716-11.716 30.711 0 42.427l17.787 17.787 106.199-106.2L161.267 55.065zM83.35 19.75c-5.001-5.56-14.838-6.465-21.299 0L19.75 62.049c-6.514 6.518-5.512 16.337 0 21.301l14.4 14.4 63.6-63.6L83.35 19.75z"/></svg>