<svg viewBox="0 0 512.001 512.001" xmlns="http://www.w3.org/2000/svg"><path d="m507.605 316.678c-41.437-41.437-103.11-49.744-153.25-25.955l-27.089-27.089 10.483-10.485c6-5.999 6-15.599 0-21.299l-31.8-31.8 21.301-21.301 31.8 31.8c5.739 5.735 15.057 6.24 21.301 0l42.299-42.299-105.899-105.9-42.601 42.301c-5.7 5.7-5.7 15.298 0 20.999l31.8 31.8-20.999 21.301-84.901-84.901-106.199 106.201 84.899 84.899-21.299 21-31.8-31.8c-5.7-5.7-15.3-5.7-21 0l-42.599 42.599 106.199 105.901 42.299-42.299c6-6 6-15.3 0-21.301l-31.8-31.8 21.301-21.301 31.8 31.8c6.216 6.22 15.538 5.762 21.301 0l10.483-10.483 27.087 27.087c-23.787 50.14-15.478 111.828 25.957 153.252 5.859 5.859 15.352 5.859 21.211 0l169.717-169.717c5.858-5.859 5.858-15.351-.002-21.21zm-.362 169.527-52.793-52.755-21 21 52.794 52.755c13.004 14.46 35.641-7.092 20.999-21zm-25.743-397.03-84.6-84.9c-5.999-5.7-15.599-5.7-21.299 0l-42.301 42.6 105.901 105.901 42.299-42.3c6-6 6-15.3 0-21.301zm-434.624 244.825-42.601 42.301c-5.7 5.698-5.7 15.298 0 21.299l84.901 84.6c6.245 6.241 15.562 5.735 21.301 0l42.299-42.299zm114.391-278.935c-11.715-11.718-30.711-11.719-42.428-.002l-63.775 63.774c-11.716 11.716-11.716 30.711 0 42.427l17.787 17.787 106.199-106.2zm-77.917-35.315c-5.001-5.56-14.838-6.465-21.299 0l-42.301 42.299c-6.514 6.518-5.512 16.337 0 21.301l14.4 14.4 63.6-63.6z"/></svg>