<?xml version="1.0" encoding="iso-8859-1"?>
<!-- Generator: Adobe Illustrator 18.0.0, SVG Export Plug-In . SVG Version: 6.00 Build 0)  -->
<!DOCTYPE svg PUBLIC "-//W3C//DTD SVG 1.1//EN" "http://www.w3.org/Graphics/SVG/1.1/DTD/svg11.dtd">
<svg version="1.1" id="Capa_1" xmlns="http://www.w3.org/2000/svg" xmlns:xlink="http://www.w3.org/1999/xlink" x="0px" y="0px"
	 viewBox="0 0 490 490" style="enable-background:new 0 0 490 490;" xml:space="preserve">
<g>
	<g>
		<path d="M20.078,307.66l-0.018,55.226h0.024c0.246,10.012,9.961,18.068,21.932,18.068c11.97,0,21.684-8.057,21.931-18.068h0.023
			l-0.018-55.226c-0.188-10.055-9.93-18.16-21.936-18.16C30.008,289.5,20.266,297.605,20.078,307.66z"/>
		<path d="M42.016,269.5c3.403,0,6.756,0.379,9.999,1.103v-32.986l-20-11.837v44.823C35.259,269.879,38.613,269.5,42.016,269.5z"/>
	</g>
	<path d="M484.213,165.232L248.635,25.407C247.55,24.83,246.314,24.5,245,24.5c-1.312,0-2.546,0.329-3.63,0.905L5.787,165.232
		C2.295,167.595,0,171.592,0,176.125s2.295,8.53,5.787,10.893L241.38,326.451c1.081,0.572,2.311,0.899,3.62,0.899
		c1.308,0,2.539-0.327,3.62-0.899l235.593-139.433c3.492-2.363,5.787-6.36,5.787-10.893S487.705,167.595,484.213,165.232z"/>
	<path d="M258.396,343.905l-0.421,0.223c-3.983,2.108-8.47,3.223-12.976,3.223c-4.505,0-8.993-1.114-12.976-3.223l-0.421-0.223
		l-0.41-0.243L93.886,262.398V377.79c24.366,51.456,82.84,87.71,151.114,87.71c68.274,0,126.75-36.254,151.116-87.71V262.397
		l-137.309,81.265L258.396,343.905z"/>
</g>
<g>
</g>
<g>
</g>
<g>
</g>
<g>
</g>
<g>
</g>
<g>
</g>
<g>
</g>
<g>
</g>
<g>
</g>
<g>
</g>
<g>
</g>
<g>
</g>
<g>
</g>
<g>
</g>
<g>
</g>
</svg>
