<svg xmlns="http://www.w3.org/2000/svg" viewBox="0 0 512 512"><path d="M20.979 321.473L20.961 379.179H20.986C21.243 389.64 31.394 398.058 43.902 398.058 56.41 398.058 66.56 389.639 66.818 379.179H66.842L66.823 321.473C66.627 310.967 56.447 302.498 43.902 302.498 31.355 302.498 21.176 310.967 20.979 321.473ZM43.902 281.6C47.458 281.6 50.962 281.996 54.35 282.753V248.286L33.452 235.917V282.753C36.842 281.996 40.347 281.6 43.902 281.6ZM505.953 172.651L259.798 26.548C258.664 25.945 257.373 25.6 256 25.6 254.629 25.6 253.34 25.944 252.207 26.546L6.047 172.651C2.398 175.12 0 179.296 0 184.033S2.398 192.946 6.047 195.415L252.217 341.108C253.347 341.706 254.632 342.047 256 342.047 257.367 342.047 258.653 341.706 259.783 341.108L505.953 195.415C509.602 192.946 512 188.769 512 184.033S509.602 175.12 505.953 172.651Z"/><path d="M269.997 359.346L269.558 359.579C265.396 361.781 260.707 362.946 255.999 362.946 251.292 362.946 246.602 361.782 242.44 359.579L242 359.346 241.572 359.092 98.101 274.179V394.752C123.561 448.518 184.661 486.4 256 486.4 327.339 486.4 388.441 448.518 413.901 394.752V274.178L270.427 359.092 269.997 359.346Z"/></svg>