<svg viewBox="0 0 512 512" xmlns="http://www.w3.org/2000/svg"><path d="m482.861 8.804c-27.838-16.05-63.433-6.5-79.483 21.337-10.719 18.566-9.828 40.47.089 57.834l-87.363 111.649c-13.445-6.444-28.449-10.151-44.332-10.151-3.05 0-6.066.201-9.049.457l-20.046-63.421c16.84-14.147 25.01-37.154 18.855-59.76-8.426-31.02-40.404-49.33-71.424-40.893-31.021 8.426-49.319 40.403-40.893 71.424 6.567 24.142 27.425 40.392 50.966 42.518l20.09 63.577c-30.731 17.82-51.467 50.989-51.467 89.066 0 3.929.267 7.769.69 11.576l-68.118 23.385c-16.562-18.51-43.665-25.177-67.428-14.269-29.218 13.401-42.029 47.949-28.628 77.167s47.95 42.028 77.157 28.627c20.224-9.282 32.322-28.727 33.569-49.486l67.973-23.329c18.099 29.518 50.577 49.297 87.753 49.297 17.597 0 34.137-4.419 48.64-12.222l37.276 43.365c-9.662 19.055-8.638 42.651 4.975 60.972 19.167 25.789 55.619 31.177 81.408 12.01 25.8-19.178 31.165-55.619 12.01-81.419-15.271-20.547-41.45-27.882-64.523-20.436l-37.465-43.575c12.9-17.197 20.635-38.489 20.635-61.641 0-24.865-8.815-47.66-23.485-65.458l87.463-111.783c24.843 6.701 52.024-3.55 65.492-26.902 16.061-27.882 6.511-63.466-21.337-79.516z"/></svg>