<svg xmlns="http://www.w3.org/2000/svg" viewBox="0 0 512 512"><path d="M482.861 8.804C455.023-7.246 419.428 2.304 403.378 30.141 392.659 48.707 393.55 70.611 403.467 87.975L316.104 199.624C302.659 193.18 287.655 189.473 271.772 189.473 268.722 189.473 265.706 189.674 262.723 189.93L242.677 126.509C259.517 112.362 267.687 89.355 261.532 66.749 253.106 35.729 221.128 17.419 190.108 25.856 159.087 34.282 140.789 66.259 149.215 97.28 155.782 121.422 176.64 137.672 200.181 139.798L220.271 203.375C189.54 221.195 168.804 254.364 168.804 292.441 168.804 296.37 169.071 300.21 169.494 304.017L101.376 327.402C84.814 308.892 57.711 302.225 33.948 313.133 4.73 326.534-8.081 361.082 5.32 390.3S53.27 432.328 82.477 418.927C102.701 409.645 114.799 390.2 116.046 369.441L184.019 346.112C202.118 375.63 234.596 395.409 271.772 395.409 289.369 395.409 305.909 390.99 320.412 383.187L357.688 426.552C348.026 445.607 349.05 469.203 362.663 487.524 381.83 513.313 418.282 518.701 444.071 499.534 469.871 480.356 475.236 443.915 456.081 418.115 440.81 397.568 414.631 390.233 391.558 397.679L354.093 354.104C366.993 336.907 374.728 315.615 374.728 292.463 374.728 267.598 365.913 244.803 351.243 227.005L438.706 115.222C463.549 121.923 490.73 111.672 504.198 88.32 520.259 60.438 510.709 24.854 482.861 8.804Z"/></svg>