<?xml version="1.0" encoding="iso-8859-1"?>
<!-- Generator: Adobe Illustrator 16.0.0, SVG Export Plug-In . SVG Version: 6.00 Build 0)  -->
<!DOCTYPE svg PUBLIC "-//W3C//DTD SVG 1.1//EN" "http://www.w3.org/Graphics/SVG/1.1/DTD/svg11.dtd">
<svg version="1.1" id="Capa_1" xmlns="http://www.w3.org/2000/svg" xmlns:xlink="http://www.w3.org/1999/xlink" x="0px" y="0px"
	 width="46px" height="46px" viewBox="0 0 46 46" style="enable-background:new 0 0 46 46;" xml:space="preserve">
<g>
	<path d="M43.382,0.791c-2.501-1.442-5.699-0.584-7.141,1.917c-0.963,1.668-0.883,3.636,0.008,5.196L28.4,17.935
		c-1.208-0.579-2.556-0.912-3.983-0.912c-0.274,0-0.545,0.018-0.813,0.041l-1.801-5.698c1.513-1.271,2.247-3.338,1.694-5.369
		c-0.757-2.787-3.63-4.432-6.417-3.674c-2.787,0.757-4.431,3.63-3.674,6.417c0.59,2.169,2.464,3.629,4.579,3.82l1.805,5.712
		c-2.761,1.601-4.624,4.581-4.624,8.002c0,0.353,0.024,0.698,0.062,1.04l-6.12,2.101c-1.488-1.663-3.923-2.262-6.058-1.282
		c-2.625,1.204-3.776,4.308-2.572,6.933s4.308,3.776,6.932,2.572c1.817-0.834,2.904-2.581,3.016-4.446l6.107-2.096
		c1.626,2.652,4.544,4.429,7.884,4.429c1.581,0,3.067-0.397,4.37-1.098l3.349,3.896c-0.868,1.712-0.776,3.832,0.447,5.478
		c1.722,2.317,4.997,2.801,7.314,1.079c2.318-1.723,2.8-4.997,1.079-7.315c-1.372-1.846-3.724-2.505-5.797-1.836l-3.366-3.915
		c1.159-1.545,1.854-3.458,1.854-5.538c0-2.234-0.792-4.282-2.11-5.881l7.858-10.043c2.232,0.602,4.674-0.319,5.884-2.417
		C46.742,5.43,45.884,2.233,43.382,0.791z"/>
</g>
<g>
</g>
<g>
</g>
<g>
</g>
<g>
</g>
<g>
</g>
<g>
</g>
<g>
</g>
<g>
</g>
<g>
</g>
<g>
</g>
<g>
</g>
<g>
</g>
<g>
</g>
<g>
</g>
<g>
</g>
</svg>
