<svg xmlns="http://www.w3.org/2000/svg" viewBox="0 0 512 512"><path d="M512.313 260.941L465.204 75.868C461.839 63.53 449.5 55.679 437.163 57.922L348.551 75.868C344.065 76.99 339.579 76.99 336.214 74.747L174.697 20.908C169.088 18.664 163.48 19.786 157.872 20.908L61.411 60.165C53.559 63.53 47.951 69.138 46.83 76.99L0.842 259.819C-1.401 267.671 0.842 276.644 7.572 283.374 13.18 288.982 22.153 292.347 31.126 290.103L59.168 282.251C59.168 281.13 59.168 281.13 59.168 280.008 52.438 241.872 60.289 202.614 82.722 171.208 109.642 131.95 154.508 108.395 202.739 108.395 231.902 108.395 261.065 117.369 284.619 134.193 342.945 173.451 363.135 248.602 336.215 310.292H337.336C340.701 311.414 344.066 311.414 348.552 311.414L492.123 292.346C498.853 291.224 505.583 287.858 508.948 282.25S513.436 267.671 512.313 260.941Z"/><path d="M233.022 207.101C224.049 200.371 212.833 197.007 201.616 197.007 182.548 197.007 165.723 205.98 155.629 221.683 147.777 232.899 145.534 245.237 146.655 258.697L160.115 255.332C164.602 254.211 169.088 254.211 173.575 255.332L249.847 281.13C263.308 255.332 256.577 223.926 233.022 207.101ZM87.208 343.943L38.977 424.702C26.639 446.014 33.369 474.055 54.68 486.393 61.41 490.88 69.262 493.122 77.113 493.122 92.816 493.122 107.398 485.27 115.249 470.689L161.237 393.295C145.534 388.808 130.952 382.079 117.493 373.105 106.277 365.254 96.182 355.159 87.208 343.943Z"/><path d="M271.159 151.019C249.847 136.437 225.171 129.708 201.616 129.708 162.359 129.708 123.101 148.776 99.546 183.547 61.41 239.629 74.87 315.901 130.952 355.159 152.264 369.741 176.94 376.471 200.495 376.471 239.752 376.471 279.01 357.403 302.565 322.632 341.823 266.549 327.241 190.277 271.159 151.019ZM265.55 297.955C249.847 320.388 225.171 331.604 200.495 331.604 184.792 331.604 170.21 327.117 156.75 318.145 120.858 293.467 111.884 244.116 136.561 209.345 152.264 186.912 176.94 175.695 201.616 175.695 217.319 175.695 231.901 180.182 245.361 189.155 281.253 212.71 290.227 262.063 265.55 297.955Z"/></svg>