<?xml version="1.0" encoding="iso-8859-1"?>
<!-- Generator: Adobe Illustrator 16.0.0, SVG Export Plug-In . SVG Version: 6.00 Build 0)  -->
<!DOCTYPE svg PUBLIC "-//W3C//DTD SVG 1.1//EN" "http://www.w3.org/Graphics/SVG/1.1/DTD/svg11.dtd">
<svg version="1.1" id="Capa_1" xmlns="http://www.w3.org/2000/svg" xmlns:xlink="http://www.w3.org/1999/xlink" x="0px" y="0px"
	 width="582.835px" height="582.835px" viewBox="0 0 582.835 582.835" style="enable-background:new 0 0 582.835 582.835;"
	 xml:space="preserve">
<g>
	<g id="Layer_1_15_">
		<g>
			<path d="M582.356,296.616l-53.55-210.375c-3.825-14.025-17.851-22.95-31.875-20.4l-100.726,20.4
				c-5.1,1.275-10.199,1.275-14.024-1.275l-183.6-61.2c-6.375-2.55-12.75-1.275-19.125,0L69.807,68.391
				c-8.925,3.825-15.3,10.2-16.575,19.125L0.957,295.341c-2.55,8.926,0,19.125,7.65,26.775c6.375,6.375,16.575,10.2,26.775,7.65
				l31.875-8.926c0-1.274,0-1.274,0-2.55c-7.65-43.35,1.275-87.975,26.775-123.675c30.6-44.625,81.6-71.4,136.425-71.4
				c33.15,0,66.3,10.2,93.075,29.325c66.3,44.625,89.25,130.05,58.65,200.175h1.274c3.825,1.275,7.65,1.275,12.75,1.275
				l163.2-21.675c7.65-1.275,15.3-5.101,19.125-11.476S583.632,304.267,582.356,296.616z"/>
			<path d="M264.881,235.416c-10.2-7.65-22.95-11.475-35.7-11.475c-21.675,0-40.8,10.2-52.275,28.05
				c-8.925,12.75-11.475,26.775-10.2,42.075l15.3-3.825c5.1-1.275,10.2-1.275,15.3,0l86.7,29.325
				C299.307,290.241,291.656,254.541,264.881,235.416z"/>
			<path d="M99.131,390.966l-54.825,91.801c-14.025,24.225-6.375,56.1,17.85,70.125c7.65,5.1,16.575,7.649,25.5,7.649
				c17.85,0,34.425-8.925,43.35-25.5l52.275-87.975c-17.85-5.101-34.425-12.75-49.725-22.95
				C120.807,415.191,109.332,403.716,99.131,390.966z"/>
			<path d="M308.231,171.666c-24.225-16.575-52.275-24.225-79.05-24.225c-44.625,0-89.25,21.675-116.025,61.2
				c-43.35,63.75-28.05,150.45,35.7,195.075c24.225,16.575,52.275,24.226,79.05,24.226c44.625,0,89.25-21.675,116.025-61.2
				C388.557,302.991,371.981,216.291,308.231,171.666z M301.856,338.691c-17.85,25.5-45.9,38.25-73.95,38.25
				c-17.85,0-34.425-5.101-49.725-15.3c-40.8-28.051-51-84.15-22.95-123.675c17.85-25.5,45.9-38.25,73.95-38.25
				c17.85,0,34.425,5.1,49.725,15.3C319.706,241.791,329.906,297.892,301.856,338.691z"/>
		</g>
	</g>
</g>
<g>
</g>
<g>
</g>
<g>
</g>
<g>
</g>
<g>
</g>
<g>
</g>
<g>
</g>
<g>
</g>
<g>
</g>
<g>
</g>
<g>
</g>
<g>
</g>
<g>
</g>
<g>
</g>
<g>
</g>
</svg>
