<svg xmlns="http://www.w3.org/2000/svg" viewBox="0 0 512 512"><path d="M326.667 67.699L241.023 130.201C225.695 115.811 206.607 105.397 185.103 101.25V55.481H141.551V101.25C124.861 104.44 109.614 111.412 96.344 121.076L63.209 87.965 32.425 118.765 66.539 152.879C58.199 166.068 52.682 181.044 50.305 197.091H0V240.648H52.168C55.709 255.338 62.043 268.851 70.669 280.769L32.441 318.965 63.233 349.747 102.424 310.54C113.793 317.754 126.526 322.799 140.049 325.704V457.835H513.319V203.961L326.667 67.699ZM92.2 213.74C92.2 174.49 124.118 142.58 163.349 142.58 202.583 142.58 234.501 174.506 234.501 213.74 234.501 252.963 202.583 284.884 163.349 284.884 124.118 284.884 92.2 252.947 92.2 213.74ZM469.769 414.256H183.591V326.358C198.281 323.632 212.04 318.247 224.259 310.543L263.458 349.75 294.234 318.933 256.046 280.74C264.672 268.824 271.02 255.308 274.531 240.6H326.699V197.04H276.392C274.7 185.859 271.322 175.292 266.728 165.365L326.664 121.62 469.767 226.052V414.256L469.769 414.256Z"/></svg>