<?xml version="1.0" encoding="iso-8859-1"?>
<!-- Generator: Adobe Illustrator 16.0.0, SVG Export Plug-In . SVG Version: 6.00 Build 0)  -->
<!DOCTYPE svg PUBLIC "-//W3C//DTD SVG 1.1//EN" "http://www.w3.org/Graphics/SVG/1.1/DTD/svg11.dtd">
<svg version="1.1" id="Capa_1" xmlns="http://www.w3.org/2000/svg" xmlns:xlink="http://www.w3.org/1999/xlink" x="0px" y="0px"
	 width="191.492px" height="191.492px" viewBox="0 0 191.492 191.492" style="enable-background:new 0 0 191.492 191.492;"
	 xml:space="preserve">
<g>
	<path d="M121.862,25.255L89.913,48.571c-5.718-5.368-12.839-9.253-20.861-10.8V20.697H52.805v17.074
		c-6.226,1.19-11.914,3.791-16.864,7.396L23.58,32.815l-11.484,11.49l12.726,12.726c-3.111,4.92-5.169,10.507-6.056,16.493H0v16.249
		h19.461c1.321,5.48,3.684,10.521,6.902,14.967l-14.261,14.249l11.487,11.483l14.62-14.626c4.241,2.691,8.991,4.573,14.036,5.657
		v49.291h139.247V76.087L121.862,25.255z M34.395,79.735c0-14.642,11.907-26.546,26.542-26.546c14.636,0,26.543,11.91,26.543,26.546
		c0,14.632-11.907,26.54-26.543,26.54C46.302,106.275,34.395,94.361,34.395,79.735z M175.246,154.537H68.488v-32.79
		c5.48-1.017,10.613-3.026,15.171-5.9l14.623,14.626l11.481-11.496l-14.246-14.248c3.218-4.445,5.586-9.487,6.896-14.974h19.461
		V73.505h-18.767c-0.631-4.171-1.891-8.113-3.605-11.816l22.359-16.319l53.384,38.958V154.537L175.246,154.537z"/>
</g>
<g>
</g>
<g>
</g>
<g>
</g>
<g>
</g>
<g>
</g>
<g>
</g>
<g>
</g>
<g>
</g>
<g>
</g>
<g>
</g>
<g>
</g>
<g>
</g>
<g>
</g>
<g>
</g>
<g>
</g>
</svg>
