<?xml version="1.0" encoding="iso-8859-1"?>
<!-- Generator: Adobe Illustrator 16.0.0, SVG Export Plug-In . SVG Version: 6.00 Build 0)  -->
<!DOCTYPE svg PUBLIC "-//W3C//DTD SVG 1.1//EN" "http://www.w3.org/Graphics/SVG/1.1/DTD/svg11.dtd">
<svg version="1.1" id="Capa_1" xmlns="http://www.w3.org/2000/svg" xmlns:xlink="http://www.w3.org/1999/xlink" x="0px" y="0px"
	 width="44.095px" height="44.095px" viewBox="0 0 44.095 44.095" style="enable-background:new 0 0 44.095 44.095;"
	 xml:space="preserve">
<g>
	<g>
		<circle cx="15.61" cy="9.59" r="3.8"/>
		<path d="M37.354,32.105c-0.168-0.783-0.938-1.281-1.719-1.111c-0.781,0.168-1.279,0.938-1.111,1.72
			c0.335,1.562-0.664,3.104-2.225,3.44l-5.656,1.217v-7.364c0-2.448-1.981-4.424-4.429-4.424h-2.805
			c-0.267,0-0.514-0.226-0.514-0.492V19.3c0-1.866-1.485-3.378-3.351-3.378c-1.865,0-3.351,1.513-3.351,3.378v10.948
			c0,1.148,0.909,2.105,2.059,2.105h5.157c0.267,0,0.463,0.191,0.463,0.458v6.015L8.705,41.232C7.924,41.4,7.432,42.17,7.6,42.951
			c0.146,0.679,0.749,1.144,1.416,1.144c0.102,0,0.206-0.011,0.308-0.033l23.586-5.077C36.032,38.312,38.025,35.226,37.354,32.105z"
			/>
		<path d="M11.991,38.148h2.353c0.799,0,1.447-0.666,1.447-1.466s-0.648-1.466-1.447-1.466h-2.353c-1.364,0-2.449-1.102-2.449-2.465
			V1.447C9.542,0.648,8.875,0,8.075,0S6.61,0.648,6.61,1.447v31.305C6.61,35.712,9.03,38.148,11.991,38.148z"/>
	</g>
</g>
<g>
</g>
<g>
</g>
<g>
</g>
<g>
</g>
<g>
</g>
<g>
</g>
<g>
</g>
<g>
</g>
<g>
</g>
<g>
</g>
<g>
</g>
<g>
</g>
<g>
</g>
<g>
</g>
<g>
</g>
</svg>
