<svg viewBox="0 0 512 512" xmlns="http://www.w3.org/2000/svg"><path d="m434.665 373.585c-1.955-9.111-10.915-14.906-20.003-12.928-9.088 1.955-14.883 10.915-12.928 20.015 3.898 18.176-7.727 36.119-25.891 40.029l-65.815 14.162v-85.691c0-28.485-23.052-51.479-51.538-51.479h-32.64c-3.107 0-5.981-2.63-5.981-5.725v-67.386c0-21.714-17.28-39.308-38.993-39.308-21.702 0-38.994 17.606-38.994 39.308v127.395c0 13.358 10.578 24.494 23.959 24.494h60.009c3.107 0 5.388 2.223 5.388 5.33v69.992l-129.943 27.998c-9.088 1.954-14.814 10.914-12.859 20.002 1.699 7.902 8.716 13.312 16.477 13.312 1.187 0 2.398-.128 3.584-.384l274.456-59.077c36.328-7.832 59.52-43.741 51.712-80.059z"/><path d="m139.532 443.904h27.38c9.297 0 16.838-7.75 16.838-17.059s-7.541-17.059-16.838-17.059h-27.38c-15.872 0-28.498-12.823-28.498-28.683v-364.265c0-9.298-7.761-16.838-17.07-16.838s-17.048 7.54-17.048 16.838v364.276c0 34.444 28.16 62.79 62.616 62.79z"/></svg>