<?xml version="1.0" encoding="iso-8859-1"?>
<!-- Generator: Adobe Illustrator 16.0.0, SVG Export Plug-In . SVG Version: 6.00 Build 0)  -->
<!DOCTYPE svg PUBLIC "-//W3C//DTD SVG 1.1//EN" "http://www.w3.org/Graphics/SVG/1.1/DTD/svg11.dtd">
<svg version="1.1" id="Capa_1" xmlns="http://www.w3.org/2000/svg" xmlns:xlink="http://www.w3.org/1999/xlink" x="0px" y="0px"
	 width="92.459px" height="92.459px" viewBox="0 0 92.459 92.459" style="enable-background:new 0 0 92.459 92.459;"
	 xml:space="preserve">
<g>
	<path d="M87.375,0.001H5.082C2.279,0.001,0,2.28,0,5.082v82.296c0,2.803,2.279,5.08,5.082,5.08h82.295
		c2.803,0,5.082-2.277,5.082-5.08V5.082C92.458,2.28,90.18,0.001,87.375,0.001z M83.424,4.799l4.236,4.238v7.671L75.752,4.799
		H83.424z M66.969,4.799L87.66,25.491v11.081L55.889,4.799H66.969z M4.797,5.082C4.796,4.926,4.924,4.799,5.082,4.799h1.392
		c-0.805,0.248-1.431,0.875-1.677,1.68V5.082z M4.796,9.037l4.237-4.238h7.672L4.796,16.709V9.037z M4.796,25.491L25.489,4.799
		h11.08L4.796,36.572V25.491z M5.082,87.662c-0.158,0-0.286-0.127-0.286-0.283v-1.396c0.246,0.805,0.872,1.434,1.677,1.68
		L5.082,87.662L5.082,87.662z M9.034,87.662l-4.237-4.238v-7.672l11.909,11.91H9.034z M25.489,87.662L4.796,66.97V55.89
		l31.773,31.772H25.489z M55.889,87.662L87.66,55.89v11.08L66.969,87.662H55.889z M87.661,87.376
		c0.002,0.158-0.127,0.285-0.285,0.285h-1.394c0.806-0.248,1.433-0.877,1.679-1.682V87.376z M87.663,83.421l-4.238,4.238h-7.672
		l11.91-11.908V83.421z M87.663,46.959L46.961,87.662h-1.467l-40.698-40.7v-1.467L45.493,4.799h1.47l40.699,40.699L87.663,46.959
		L87.663,46.959z M87.663,6.48c-0.246-0.805-0.875-1.433-1.679-1.681h1.394c0.156,0,0.285,0.127,0.285,0.283V6.48z M16.99,46.229
		l29.238,29.236l29.237-29.236L46.228,16.991L16.99,46.229z M65.133,46.229L46.229,65.134L27.325,46.229l18.904-18.903
		L65.133,46.229z M37.432,46.229l8.797-8.796l8.796,8.796l-8.797,8.797L37.432,46.229z"/>
</g>
<g>
</g>
<g>
</g>
<g>
</g>
<g>
</g>
<g>
</g>
<g>
</g>
<g>
</g>
<g>
</g>
<g>
</g>
<g>
</g>
<g>
</g>
<g>
</g>
<g>
</g>
<g>
</g>
<g>
</g>
</svg>
