<?xml version="1.0" encoding="iso-8859-1"?>
<!-- Generator: Adobe Illustrator 16.0.0, SVG Export Plug-In . SVG Version: 6.00 Build 0)  -->
<!DOCTYPE svg PUBLIC "-//W3C//DTD SVG 1.1//EN" "http://www.w3.org/Graphics/SVG/1.1/DTD/svg11.dtd">
<svg version="1.1" id="Capa_1" xmlns="http://www.w3.org/2000/svg" xmlns:xlink="http://www.w3.org/1999/xlink" x="0px" y="0px"
	 width="979.668px" height="979.669px" viewBox="0 0 979.668 979.669" style="enable-background:new 0 0 979.668 979.669;"
	 xml:space="preserve">
<g>
	<g>
		<path d="M951.834,971.669V941.5c0-4.418-3.582-8-8-8H897.34v-34.073c0-4.418-3.582-8-8-8h-3.781c-4.418,0-8-3.582-8-8V433.249
			c0-4.418,3.582-8,8-8h12.77c4.418,0,8-3.582,8-8v-36.073c0-4.418-3.582-8-8-8h-12.77c-4.418,0-8-3.582-8-8v-21.443
			c0-4.418-3.582-8-8-8H851.34h-2.55h-202.9h-7.55h-13.219c-4.418,0-8,3.582-8,8v21.443c0,4.418-3.582,8-8,8h-12.77
			c-4.418,0-8,3.582-8,8v36.073c0,4.418,3.582,8,8,8h12.77c4.418,0,8,3.582,8,8v181.337c0,4.418-3.582,8-8,8H81.34
			c-4.418,0-8,3.582-8,8v53.5c0,4.418,3.582,8,8,8h535.781v24H81.34c-4.418,0-8,3.582-8,8v6.667c0,4.418,3.582,8,8,8h535.781v26
			H81.34c-4.418,0-8,3.582-8,8v6.667c0,4.418,3.582,8,8,8h535.781v26H81.34c-4.418,0-8,3.582-8,8v6.667c0,4.418,3.582,8,8,8h535.781
			v24H81.34c-4.418,0-8,3.582-8,8v6.667c0,4.418,3.582,8,8,8h535.781v24H81.34c-4.418,0-8,3.582-8,8V933.5H35.834
			c-4.418,0-8,3.582-8,8v30.169c0,4.418,3.582,8,8,8h908C948.252,979.669,951.834,976.087,951.834,971.669z M723.84,455.5
			c0-5.523,4.478-10,10-10h27c5.523,0,10,4.477,10,10v4.335c0,5.523-4.477,10-10,10h-27c-5.522,0-10-4.477-10-10V455.5z M723.84,499
			c0-5.523,4.478-10,10-10h27c5.523,0,10,4.477,10,10v4.335c0,5.523-4.477,10-10,10h-27c-5.522,0-10-4.477-10-10V499z M723.84,586
			c0-5.523,4.478-10,10-10h27c5.523,0,10,4.477,10,10v5c0,5.523-4.477,10-10,10h-27c-5.522,0-10-4.477-10-10V586z M723.84,626.031
			c0-5.523,4.478-10,10-10h27c5.523,0,10,4.477,10,10v4.335c0,5.522-4.477,10-10,10h-27c-5.522,0-10-4.478-10-10V626.031z
			 M723.84,710.719c0-5.522,4.478-10,10-10h27c5.523,0,10,4.478,10,10v4.336c0,5.523-4.477,10-10,10h-27c-5.522,0-10-4.477-10-10
			V710.719z M723.84,753.062c0-5.522,4.478-10,10-10h27c5.523,0,10,4.478,10,10v4.336c0,5.522-4.477,10-10,10h-27
			c-5.522,0-10-4.478-10-10V753.062z M723.84,837.75c0-5.523,4.478-10,10-10h27c5.523,0,10,4.477,10,10v4.335
			c0,5.523-4.477,10-10,10h-1.815h-23.369h-1.816c-5.522,0-10-4.477-10-10L723.84,837.75L723.84,837.75z M656.334,455.5
			c0-5.523,4.477-10,10-10h27c5.523,0,10,4.477,10,10v4.335c0,5.523-4.477,10-10,10h-27c-5.523,0-10-4.477-10-10V455.5z
			 M656.334,499c0-5.523,4.477-10,10-10h27c5.523,0,10,4.477,10,10v4.335c0,5.523-4.477,10-10,10h-27c-5.523,0-10-4.477-10-10V499z
			 M656.334,583.688c0-5.522,4.477-10,10-10h27c5.523,0,10,4.478,10,10v4.336c0,5.522-4.477,10-10,10h-27c-5.523,0-10-4.478-10-10
			V583.688z M656.334,626.031c0-5.523,4.477-10,10-10h27c5.523,0,10,4.477,10,10v4.335c0,5.522-4.477,10-10,10h-27
			c-5.523,0-10-4.478-10-10V626.031z M656.334,710.719c0-5.522,4.477-10,10-10h27c5.523,0,10,4.478,10,10v4.336
			c0,5.523-4.477,10-10,10h-27c-5.523,0-10-4.477-10-10V710.719z M656.334,753.062c0-5.522,4.477-10,10-10h27
			c5.523,0,10,4.478,10,10v4.336c0,5.522-4.477,10-10,10h-27c-5.523,0-10-4.478-10-10V753.062z M666.334,852.086
			c-5.523,0-10-4.477-10-10v-4.335c0-5.523,4.477-10,10-10h27c5.523,0,10,4.477,10,10v4.335c0,5.523-4.477,10-10,10h-1.81h-23.369
			H666.334z M806.167,933.5H687.501v-36.624c0-4.418,3.582-8,8-8h102.667c4.418,0,8,3.582,8,8L806.167,933.5L806.167,933.5z
			 M838.346,842.086c0,5.523-4.477,10-10,10h-1.821h-23.369h-1.811c-5.522,0-10-4.477-10-10v-4.335c0-5.523,4.478-10,10-10h27
			c5.523,0,10,4.477,10,10L838.346,842.086L838.346,842.086z M838.346,757.398c0,5.522-4.477,10-10,10h-27c-5.522,0-10-4.478-10-10
			v-4.336c0-5.522,4.478-10,10-10h27c5.523,0,10,4.478,10,10V757.398z M838.346,715.055c0,5.523-4.477,10-10,10h-27
			c-5.522,0-10-4.477-10-10v-4.336c0-5.522,4.478-10,10-10h27c5.523,0,10,4.478,10,10V715.055z M838.346,630.367
			c0,5.522-4.477,10-10,10h-27c-5.522,0-10-4.478-10-10v-4.335c0-5.523,4.478-10,10-10h27c5.523,0,10,4.477,10,10V630.367z
			 M838.346,588.023c0,5.522-4.477,10-10,10h-27c-5.522,0-10-4.478-10-10v-4.336c0-5.522,4.478-10,10-10h27c5.523,0,10,4.478,10,10
			V588.023z M838.346,503.335c0,5.523-4.477,10-10,10h-27c-5.522,0-10-4.477-10-10V499c0-5.523,4.478-10,10-10h27
			c5.523,0,10,4.477,10,10V503.335z M838.346,459.835c0,5.523-4.477,10-10,10h-27c-5.522,0-10-4.477-10-10V455.5
			c0-5.523,4.478-10,10-10h27c5.523,0,10,4.477,10,10V459.835z"/>
		<path d="M759.025,0h-23.369c-4.418,0-8,3.582-8,8v186.451c0,4.418-3.582,8-8,8H653.89c-4.418,0-8,3.582-8,8v111.215H848.79
			V210.451c0-4.418-3.582-8-8-8h-65.765c-4.419,0-8-3.582-8-8V8C767.025,3.582,763.443,0,759.025,0z M728.334,291.414
			c0,5.523-4.477,10-10,10h-26c-5.523,0-10-4.477-10-10v-5c0-5.523,4.477-10,10-10h26c5.523,0,10,4.477,10,10V291.414z
			 M728.334,251.414c0,5.523-4.477,10-10,10h-26c-5.523,0-10-4.477-10-10v-5c0-5.523,4.477-10,10-10h26c5.523,0,10,4.477,10,10
			V251.414z M811.834,291.414c0,5.523-4.477,10-10,10h-26c-5.523,0-10-4.477-10-10v-5c0-5.523,4.477-10,10-10h26
			c5.523,0,10,4.477,10,10V291.414z M775.834,236.414h26c5.523,0,10,4.477,10,10v5c0,5.523-4.477,10-10,10h-26
			c-5.523,0-10-4.477-10-10v-5C765.834,240.891,770.311,236.414,775.834,236.414z"/>
	</g>
</g>
<g>
</g>
<g>
</g>
<g>
</g>
<g>
</g>
<g>
</g>
<g>
</g>
<g>
</g>
<g>
</g>
<g>
</g>
<g>
</g>
<g>
</g>
<g>
</g>
<g>
</g>
<g>
</g>
<g>
</g>
</svg>
