<?xml version="1.0" encoding="iso-8859-1"?>
<!-- Generator: Adobe Illustrator 19.0.0, SVG Export Plug-In . SVG Version: 6.00 Build 0)  -->
<svg version="1.1" id="Capa_1" xmlns="http://www.w3.org/2000/svg" xmlns:xlink="http://www.w3.org/1999/xlink" x="0px" y="0px"
	 viewBox="0 0 512 512" style="enable-background:new 0 0 512 512;" xml:space="preserve">
<g>
	<g>
		<path d="M495.893,109.682h-91.817v365.366h91.817c8.895,0,16.107-7.211,16.107-16.107V125.789
			C512,116.893,504.789,109.682,495.893,109.682z"/>
	</g>
</g>
<g>
	<g>
		<path d="M16.107,109.682C7.211,109.682,0,116.893,0,125.789v333.153c0,8.895,7.211,16.107,16.107,16.107h91.817V109.682H16.107z"
			/>
	</g>
</g>
<g>
	<g>
		<path d="M371.864,109.682h-27.931c-7.602-41.319-43.863-72.731-87.347-72.731s-79.744,31.412-87.346,72.731h-29.104v365.366
			h231.729V109.682H371.864z M202.296,109.682c6.955-23.402,28.662-40.518,54.291-40.518c25.63,0,47.337,17.116,54.292,40.518
			H202.296z"/>
	</g>
</g>
<g>
</g>
<g>
</g>
<g>
</g>
<g>
</g>
<g>
</g>
<g>
</g>
<g>
</g>
<g>
</g>
<g>
</g>
<g>
</g>
<g>
</g>
<g>
</g>
<g>
</g>
<g>
</g>
<g>
</g>
</svg>
