<svg viewBox="0 0 512 512" xmlns="http://www.w3.org/2000/svg"><path d="m495.893 109.682h-91.817v365.366h91.817c8.895 0 16.107-7.211 16.107-16.107v-333.152c0-8.896-7.211-16.107-16.107-16.107zm-479.786 0c-8.896 0-16.107 7.211-16.107 16.107v333.153c0 8.895 7.211 16.107 16.107 16.107h91.817v-365.367zm355.757 0h-27.931c-7.602-41.319-43.863-72.731-87.347-72.731s-79.744 31.412-87.346 72.731h-29.104v365.366h231.729v-365.366zm-169.568 0c6.955-23.402 28.662-40.518 54.291-40.518 25.63 0 47.337 17.116 54.292 40.518z"/></svg>