<svg viewBox="0 0 512 512" xmlns="http://www.w3.org/2000/svg"><path d="M 181.19 170.821 L 303.805 316.765 C 305.137 314.512 307.521 312.368 311.605 310.818 L 155.01 20.739 C 147.721 7.143 130.794 2.032 117.196 9.321 C 103.594 16.608 98.486 33.535 105.773 47.133 L 181.19 170.821 Z M 478.092 405.942 L 476.786 405.641 C 476.159 405.497 475.547 405.377 474.926 405.261 L 473.014 404.883 C 458.999 401.905 444.66 400.385 430.426 400.385 L 427.411 400.403 C 409.763 400.666 393.392 402.209 377.92 404.922 C 387.231 415.613 401 432.653 382.513 448.839 C 382.221 449.092 381.929 449.263 381.626 449.507 C 376.748 453.515 371.609 455.614 366.315 455.614 C 360.461 455.614 355.415 453.183 350.917 449.715 C 346.408 446.239 342.438 441.701 338.77 437.515 L 323.629 421.183 C 314.499 425.237 305.642 429.849 297.049 435.164 C 290.841 439.009 284.678 442.951 278.534 446.892 C 270.656 451.952 262.504 457.175 254.298 462.13 C 249.388 465.088 244.417 467.925 239.44 470.758 C 235.211 473.171 230.979 475.57 226.556 478.217 C 220.838 481.622 214.895 485.127 208.263 487.668 C 208.65 488.546 209.647 490.486 211.103 492.546 C 213.045 495.308 218.816 501.26 224.979 503.36 C 228.292 504.483 232.154 505.183 236.559 505.43 C 260.287 506.827 292.899 495.241 294.251 494.807 C 312.352 487.906 362.28 479.031 362.723 478.984 C 401.695 473.305 449.122 471.659 449.565 471.601 L 449.869 471.581 C 450.03 471.572 457.089 470.609 463.402 465.474 C 472.366 458.189 474.919 447.49 475.068 446.854 C 476.825 439.764 477.9 432.941 478.574 426.569 C 479.215 418.724 479.215 411.738 478.989 406.135 C 478.723 406.084 478.307 405.99 478.092 405.942 Z M 511.832 399.979 C 510.642 396.877 509.149 394.327 509.149 394.327 C 501.862 380.451 493.61 368.869 484.753 359.166 C 482.466 356.653 480.821 355.441 479.866 355.441 C 478.554 355.441 478.601 357.794 480.196 362.266 C 481.219 365.112 482.042 367.804 482.721 370.282 C 483.818 374.336 483.997 376.38 483.439 376.38 C 482.93 376.38 481.793 374.603 480.194 371 C 476.612 362.901 472.633 355.71 468.514 349.365 C 464.09 342.54 454.505 333.618 447.361 329.75 C 443.629 327.727 439.865 325.903 436.105 324.28 C 433.967 323.36 432.314 322.916 431.148 322.916 C 428.241 322.916 428.428 325.641 431.915 330.279 C 440.141 341.246 445.753 352.738 449.282 361.387 C 450.906 365.377 451.302 367.388 450.679 367.388 C 450.128 367.388 448.76 365.778 446.729 362.539 C 435.669 344.846 423.8 331.999 412.53 322.671 C 406.273 317.481 394.195 312.773 386.092 312.103 C 382.712 311.818 379.4 311.65 376.217 311.565 C 375.932 311.556 375.651 311.556 375.376 311.556 C 368.069 311.556 367.871 314.438 374.533 318.571 C 394.901 331.167 405.366 347.87 410.537 359.572 C 412.304 363.58 412.597 365.63 411.767 365.63 C 411.048 365.63 409.495 364.12 407.354 361.048 C 392.285 339.591 374.203 326.679 357.465 318.91 C 351.302 316.046 343.7 314.505 339.127 314.505 C 338.23 314.505 337.452 314.564 336.831 314.687 C 332.437 315.53 329.96 316.217 329.96 316.217 C 325.48 317.134 321.112 318.168 316.861 319.28 C 316.634 319.336 316.464 319.413 316.254 319.48 C 309.81 321.369 310.728 324.25 318.099 326.965 C 319.101 327.33 319.99 327.785 320.943 328.182 C 343.77 337.484 357.958 353.923 365.537 365.518 C 367.966 369.241 368.685 371.152 367.938 371.152 C 367.315 371.152 365.689 369.831 363.195 367.109 C 351.602 354.497 339.348 345.916 327.331 340.026 C 325.157 338.97 322.995 337.983 320.842 337.095 L 334.564 353.43 L 370.72 396.455 C 388.997 392.844 407.818 391.05 427.25 390.756 C 428.307 390.736 429.346 390.736 430.407 390.736 C 445.436 390.736 460.32 392.326 475.01 395.453 C 476.332 395.725 477.646 395.936 478.96 396.244 C 480.481 396.595 490.65 398.844 499.516 401.17 C 503.012 402.089 506.067 402.587 508.278 402.587 C 511.075 402.569 512.515 401.764 511.832 399.979 L 511.832 399.979 Z M 259.036 351.509 L 253.512 345.545 C 250.326 348.502 252.213 350.83 258.738 351.471 C 258.834 351.48 258.933 351.5 259.036 351.509 Z M 249.06 436.218 C 243.021 435.424 237.029 435.063 231.145 435.063 C 215.205 435.063 200.095 437.662 186.999 441.161 C 181.569 442.606 176.489 444.185 171.814 445.831 C 164.138 448.505 155.135 456.339 151.023 462.437 C 146.909 468.535 149.706 473.99 157.602 475.936 C 167.939 478.498 177.995 481.636 188.856 481.636 C 190.879 481.636 192.92 481.528 195.015 481.287 C 198.313 480.907 201.399 479.963 204.408 478.827 C 210.519 476.54 216.189 473.141 221.843 469.773 C 230.93 464.368 240.241 459.337 249.291 453.867 C 263.692 445.18 277.652 435.804 291.963 426.958 C 300.092 421.92 308.389 417.676 316.773 413.819 L 267.642 360.727 C 260.265 359.33 253.252 358.413 246.815 358.413 C 246.698 358.413 246.568 358.413 246.457 358.413 C 238.338 358.413 226.683 363.101 220.554 368.261 C 216.257 371.872 212.24 375.561 208.499 379.178 C 203.414 384.091 204.235 387.11 209.84 387.11 C 210.683 387.11 211.623 387.052 212.677 386.91 C 217.392 386.296 221.927 386.02 226.287 386.02 C 259.813 386.02 282.485 402.601 290.358 409.413 C 290.961 409.923 291.471 410.381 291.896 410.756 C 292.34 411.155 292.425 411.343 292.2 411.343 C 292.001 411.343 291.537 411.182 290.868 410.845 C 290.007 410.419 289.157 410.011 288.305 409.623 C 265.775 398.734 245.468 394.913 228.058 394.913 C 218.379 394.913 209.6 396.096 201.838 397.891 C 193.92 399.715 183.611 407.267 179.013 413.972 C 176.398 417.778 174.173 421.286 172.316 424.376 C 168.776 430.282 169.452 434.205 173.21 434.205 C 173.885 434.205 174.67 434.074 175.538 433.811 C 179.092 432.724 182.565 431.796 185.974 431.04 C 195.931 428.873 205.231 428.014 213.699 428.014 C 228.801 428.014 241.219 430.719 249.899 433.451 C 255.84 435.312 256.936 436.562 253.492 436.562 C 252.416 436.588 250.946 436.46 249.06 436.218 Z"/><path d="M 258.65 336.848 L 262.066 340.525 L 274.875 354.355 L 285.12 365.406 L 326.132 409.658 L 328.144 411.833 L 329.667 413.468 L 332.767 416.812 L 333.211 417.294 L 345.865 430.954 C 352.955 439.042 359.232 445.952 366.321 445.952 C 369.401 445.952 372.633 444.647 376.141 441.566 C 377.587 440.298 378.731 439.053 379.599 437.792 C 385.735 428.976 378.52 420.308 369.627 410.146 L 367.064 407.103 L 366.49 406.415 L 363.567 402.926 L 360.075 398.765 L 357.332 395.487 L 303.52 331.45 L 298.873 325.901 L 294.496 320.691 L 214.66 225.678 L 48.958 28.485 C 43.443 22.17 35.701 18.947 27.927 18.947 C 21.394 18.947 14.84 21.225 9.539 25.861 C -2.068 36.022 -3.25 53.67 6.916 65.27 L 255.222 333.163 L 258.65 336.848 Z"/></svg>