<svg viewBox="0 0 512 512" xmlns="http://www.w3.org/2000/svg"><path d="m181.19 170.821 122.615 145.944c1.332-2.253 3.716-4.397 7.8-5.947l-156.595-290.079c-7.289-13.596-24.216-18.707-37.814-11.418-13.602 7.287-18.71 24.214-11.423 37.812zm296.902 235.121-1.306-.301c-.627-.144-1.239-.264-1.86-.38l-1.912-.378c-14.015-2.978-28.354-4.498-42.588-4.498l-3.015.018c-17.648.263-34.019 1.806-49.491 4.519 9.311 10.691 23.08 27.731 4.593 43.917-.292.253-.584.424-.887.668-4.878 4.008-10.017 6.107-15.311 6.107-5.854 0-10.9-2.431-15.398-5.899-4.509-3.476-8.479-8.014-12.147-12.2l-15.141-16.332c-9.13 4.054-17.987 8.666-26.58 13.981-6.208 3.845-12.371 7.787-18.515 11.728-7.878 5.06-16.03 10.283-24.236 15.238-4.91 2.958-9.881 5.795-14.858 8.628-4.229 2.413-8.461 4.812-12.884 7.459-5.718 3.405-11.661 6.91-18.293 9.451.387.878 1.384 2.818 2.84 4.878 1.942 2.762 7.713 8.714 13.876 10.814 3.313 1.123 7.175 1.823 11.58 2.07 23.728 1.397 56.34-10.189 57.692-10.623 18.101-6.901 68.029-15.776 68.472-15.823 38.972-5.679 86.399-7.325 86.842-7.383l.304-.02c.161-.009 7.22-.972 13.533-6.107 8.964-7.285 11.517-17.984 11.666-18.62 1.757-7.09 2.832-13.913 3.506-20.285.641-7.845.641-14.831.415-20.434-.266-.051-.682-.145-.897-.193zm33.74-5.963c-1.19-3.102-2.683-5.652-2.683-5.652-7.287-13.876-15.539-25.458-24.396-35.161-2.287-2.513-3.932-3.725-4.887-3.725-1.312 0-1.265 2.353.33 6.825 1.023 2.846 1.846 5.538 2.525 8.016 1.097 4.054 1.276 6.098.718 6.098-.509 0-1.646-1.777-3.245-5.38-3.582-8.099-7.561-15.29-11.68-21.635-4.424-6.825-14.009-15.747-21.153-19.615-3.732-2.023-7.496-3.847-11.256-5.47-2.138-.92-3.791-1.364-4.957-1.364-2.907 0-2.72 2.725.767 7.363 8.226 10.967 13.838 22.459 17.367 31.108 1.624 3.99 2.02 6.001 1.397 6.001-.551 0-1.919-1.61-3.95-4.849-11.06-17.693-22.929-30.54-34.199-39.868-6.257-5.19-18.335-9.898-26.438-10.568-3.38-.285-6.692-.453-9.875-.538-.285-.009-.566-.009-.841-.009-7.307 0-7.505 2.882-.843 7.015 20.368 12.596 30.833 29.299 36.004 41.001 1.767 4.008 2.06 6.058 1.23 6.058-.719 0-2.272-1.51-4.413-4.582-15.069-21.457-33.151-34.369-49.889-42.138-6.163-2.864-13.765-4.405-18.338-4.405-.897 0-1.675.059-2.296.182-4.394.843-6.871 1.53-6.871 1.53-4.48.917-8.848 1.951-13.099 3.063-.227.056-.397.133-.607.2-6.444 1.889-5.526 4.77 1.845 7.485 1.002.365 1.891.82 2.844 1.217 22.827 9.302 37.015 25.741 44.594 37.336 2.429 3.723 3.148 5.634 2.401 5.634-.623 0-2.249-1.321-4.743-4.043-11.593-12.612-23.847-21.193-35.864-27.083-2.174-1.056-4.336-2.043-6.489-2.931l13.722 16.335 36.156 43.025c18.277-3.611 37.098-5.405 56.53-5.699 1.057-.02 2.096-.02 3.157-.02 15.029 0 29.913 1.59 44.603 4.717 1.322.272 2.636.483 3.95.791 1.521.351 11.69 2.6 20.556 4.926 3.496.919 6.551 1.417 8.762 1.417 2.797-.018 4.237-.823 3.554-2.608zm-252.796-48.47-5.524-5.964c-3.186 2.957-1.299 5.285 5.226 5.926.096.009.195.029.298.038zm-9.976 84.709c-6.039-.794-12.031-1.155-17.915-1.155-15.94 0-31.05 2.599-44.146 6.098-5.43 1.445-10.51 3.024-15.185 4.67-7.676 2.674-16.679 10.508-20.791 16.606-4.114 6.098-1.317 11.553 6.579 13.499 10.337 2.562 20.393 5.7 31.254 5.7 2.023 0 4.064-.108 6.159-.349 3.298-.38 6.384-1.324 9.393-2.46 6.111-2.287 11.781-5.686 17.435-9.054 9.087-5.405 18.398-10.436 27.448-15.906 14.401-8.687 28.361-18.063 42.672-26.909 8.129-5.038 16.426-9.282 24.81-13.139l-49.131-53.092c-7.377-1.397-14.39-2.314-20.827-2.314-.117 0-.247 0-.358 0-8.119 0-19.774 4.688-25.903 9.848-4.297 3.611-8.314 7.3-12.055 10.917-5.085 4.913-4.264 7.932 1.341 7.932.843 0 1.783-.058 2.837-.2 4.715-.614 9.25-.89 13.61-.89 33.526 0 56.198 16.581 64.071 23.393.603.51 1.113.968 1.538 1.343.444.399.529.587.304.587-.199 0-.663-.161-1.332-.498-.861-.426-1.711-.834-2.563-1.222-22.53-10.889-42.837-14.71-60.247-14.71-9.679 0-18.458 1.183-26.22 2.978-7.918 1.824-18.227 9.376-22.825 16.081-2.615 3.806-4.84 7.314-6.697 10.404-3.54 5.906-2.864 9.829.894 9.829.675 0 1.46-.131 2.328-.394 3.554-1.087 7.027-2.015 10.436-2.771 9.957-2.167 19.257-3.026 27.725-3.026 15.102 0 27.52 2.705 36.2 5.437 5.941 1.861 7.037 3.111 3.593 3.111-1.076.026-2.546-.102-4.432-.344z"/><path d="m258.65 336.848 3.416 3.677 12.809 13.83 10.245 11.051 41.012 44.252 2.012 2.175 1.523 1.635 3.1 3.344.444.482 12.654 13.66c7.09 8.088 13.367 14.998 20.456 14.998 3.08 0 6.312-1.305 9.82-4.386 1.446-1.268 2.59-2.513 3.458-3.774 6.136-8.816-1.079-17.484-9.972-27.646l-2.563-3.043-.574-.688-2.923-3.489-3.492-4.161-2.743-3.278-53.812-64.037-4.647-5.549-4.377-5.21-79.836-95.013-165.702-197.193c-5.515-6.315-13.257-9.538-21.031-9.538-6.533 0-13.087 2.278-18.388 6.914-11.607 10.161-12.789 27.809-2.623 39.409l248.306 267.893z"/></svg>