<svg height="512" viewBox="0 0 512 512" width="512" xmlns="http://www.w3.org/2000/svg"><path d="m65.046 159.641 118.479 15.232c4.135 10.499 24.969 62.177 28.886 71.424 0 0 0 0-.055 0-34.325 16.972-68.65 33.89-102.975 50.862 11.913-2.176 23.989-3.264 36.12-3.264 15.884 0 31.442 1.904 46.292 5.658 29.974 7.616 57.064 19.8 83.229 31.605 23.337 10.499 45.422 20.454 67.453 26.166 3.101.816 6.093 1.523 9.085 2.121-26.111-53.473-96.339-197.573-110.21-229.287-6.528-14.96-15.504-20.508-28.232-22.14l-139.15-17.897c-19.202-2.448-36.773 11.097-39.275 30.3-2.394 19.202 11.151 36.773 30.353 39.22z"/><path d="m9.071 409.545c3.862 2.775 8.268 4.08 12.675 4.08.979 0 1.903-.055 2.828-.217 5.766-.762 11.206-3.808 14.851-8.867 14.089-19.638 35.902-35.087 61.306-43.573 14.579-4.841 29.81-7.289 44.77-7.289 54.234 0 100.745 32.421 149.702 51.079 26.22 10.009 53.582 17.407 83.338 17.407 12.511 0 25.458-1.305 38.894-4.297 31.606-6.963 58.696-21.976 78.279-43.029 4.678-5.059 8.921-10.39 12.675-16.102 6.636-10.009 3.862-23.5-6.147-30.136-3.7-2.448-7.834-3.59-11.968-3.59-7.072 0-13.98 3.427-18.169 9.737-1.686 2.556-3.536 5.004-5.548 7.398-13.6 16.21-33.999 27.852-58.478 33.237-22.575 4.951-47.49 3.481-69.738-2.284-23.391-6.093-46.021-16.265-70.065-27.091-25.567-11.478-51.95-23.391-80.562-30.68-13.6-3.481-27.852-5.168-42.268-5.168-19.637 0-39.601 3.209-58.586 9.52-16.592 5.549-31.986 13.273-45.803 23.01-14.579 10.282-27.036 22.521-37.045 36.447-.653.925-1.197 1.849-1.686 2.829-4.733 9.41-2.122 21.215 6.745 27.579zm470.704-177.718c0 42.391-34.364 76.755-76.755 76.755s-76.756-34.364-76.756-76.755 34.365-76.755 76.756-76.755 76.755 34.364 76.755 76.755z"/></svg>