<svg xmlns="http://www.w3.org/2000/svg" viewBox="0 0 512 512"><path d="M278.726 116.408L320.931 52.114C326.573 43.493 324.178 31.944 315.556 26.301 306.934 20.66 295.385 23.055 289.743 31.677L256.425 82.505 255.999 81.813 255.467 82.611 222.044 31.677C216.401 23.055 204.853 20.66 196.231 26.301 187.609 31.944 185.214 43.493 190.855 52.114L233.167 116.567 24.534 434.465H119.43C124.593 434.465 129.755 433.613 134.599 431.858 211.026 404.182 240.352 318.494 250.783 273.148 252.06 267.613 259.884 267.613 261.162 273.148 271.54 318.441 300.919 404.129 377.346 431.858 382.189 433.614 387.352 434.465 392.515 434.465H487.41L278.726 116.408ZM498.056 451.496H13.944C6.227 451.496 0 457.457 0 464.801V475.446C0 482.79 6.227 488.751 13.944 488.751H498.056C505.773 488.751 512 482.79 512 475.446V464.801C512 457.457 505.773 451.496 498.056 451.496Z"/></svg>