<svg viewBox="0 0 512 512" xmlns="http://www.w3.org/2000/svg"><path d="m269.34 0c-13.283 0-24.096 10.768-24.096 24.051v463.898c0 13.271 10.813 24.051 24.096 24.051 13.26 0 24.062-10.757 24.062-24.051v-463.898c0-13.271-10.78-24.051-24.062-24.051zm238.306 260.255-14.406-123.292c-2.191-18.7-18.044-32.905-36.866-32.905h-82.521c-18.911 0-34.808 14.328-36.888 33.139l-13.65 123.18c-.256 2.236.378 4.517 1.791 6.297 1.391 1.769 3.449 2.937 5.696 3.193l24.952.111-5.651 52.429c-.245 2.37.511 4.583 2.091 6.363 1.602 1.758 3.871 2.626 6.241 2.626h2.425v164.607c0 8.844 7.464 15.863 16.319 15.863h16.031c8.832 0 15.807-7.019 15.807-15.863v-164.596h12.215v164.607c0 8.844 7.22 15.864 16.064 15.864h16.019c8.866 0 16.074-7.02 16.074-15.864v-164.607h2.548c2.403 0 4.706-.89 6.319-2.681s2.391-4.116 2.136-6.519l-5.362-52.452 25.207-.011c4.662-.567 7.988-4.828 7.409-9.489z"/><circle cx="415.236" cy="44.219" r="44.219"/><circle cx="114.644" cy="44.219" r="44.219"/><path d="m184.672 268.799 16.075.033c4.65-.656 7.898-4.95 7.242-9.6l-15.397-117.496c-2.836-21.504-21.147-37.678-42.84-37.678h-70.105c-21.693 0-40.015 16.174-42.84 37.689l-15.463 118.007c-.657 4.65 2.58 9 7.253 9.634l15.485.056-38.357 86.258c-1.157 2.626-.923 5.563.656 7.977 1.569 2.425 4.261 3.693 7.142 3.693h46.767v128.631c0 8.844 7.431 15.875 16.286 15.875h16.019c8.855 0 15.864-7.031 15.864-15.875v-128.642h12.192v128.642c0 8.844 7.186 15.863 16.041 15.863h16.02c8.855 0 16.119-7.019 16.119-15.863v-128.642h46.922c2.893 0 5.574-1.257 7.153-3.671 1.569-2.437 1.825-5.329.635-7.954z"/></svg>