<?xml version="1.0" encoding="iso-8859-1"?>
<!-- Generator: Adobe Illustrator 16.0.0, SVG Export Plug-In . SVG Version: 6.00 Build 0)  -->
<!DOCTYPE svg PUBLIC "-//W3C//DTD SVG 1.1//EN" "http://www.w3.org/Graphics/SVG/1.1/DTD/svg11.dtd">
<svg version="1.1" id="Capa_1" xmlns="http://www.w3.org/2000/svg" xmlns:xlink="http://www.w3.org/1999/xlink" x="0px" y="0px"
	 width="46.026px" height="46.025px" viewBox="0 0 46.026 46.025" style="enable-background:new 0 0 46.026 46.025;"
	 xml:space="preserve">
<g>
	<g>
		<path d="M24.18,0c-1.194,0-2.166,0.968-2.166,2.162v41.701c0,1.193,0.972,2.162,2.166,2.162c1.192,0,2.163-0.967,2.163-2.162
			V2.162C26.343,0.969,25.374,0,24.18,0z"/>
		<path d="M45.602,23.395l-1.295-11.083c-0.197-1.681-1.622-2.958-3.314-2.958h-7.418c-1.7,0-3.129,1.288-3.316,2.979l-1.227,11.073
			c-0.023,0.201,0.034,0.406,0.161,0.566c0.125,0.159,0.31,0.264,0.512,0.287l2.243,0.01l-0.508,4.713
			c-0.022,0.213,0.046,0.412,0.188,0.572c0.144,0.158,0.348,0.236,0.561,0.236h0.218v14.797c0,0.795,0.671,1.426,1.467,1.426h1.441
			c0.794,0,1.421-0.631,1.421-1.426V29.791h1.098v14.797c0,0.795,0.649,1.426,1.444,1.426h1.44c0.797,0,1.445-0.631,1.445-1.426
			V29.791h0.229c0.216,0,0.423-0.08,0.568-0.241s0.215-0.37,0.192-0.586l-0.482-4.715l2.266-0.001
			C45.355,24.197,45.654,23.814,45.602,23.395z"/>
		<circle cx="37.295" cy="3.975" r="3.975"/>
		<circle cx="10.274" cy="3.975" r="3.975"/>
		<path d="M16.569,24.163l1.445,0.003c0.418-0.059,0.71-0.445,0.651-0.863l-1.384-10.562c-0.255-1.933-1.901-3.387-3.851-3.387
			H7.128c-1.95,0-3.597,1.454-3.851,3.388L1.887,23.35c-0.059,0.418,0.232,0.809,0.652,0.866l1.392,0.005l-3.448,7.754
			c-0.104,0.236-0.083,0.5,0.059,0.717c0.141,0.218,0.383,0.332,0.642,0.332h4.204v11.563c0,0.795,0.668,1.427,1.464,1.427h1.44
			c0.796,0,1.426-0.632,1.426-1.427V33.023h1.096v11.564c0,0.795,0.646,1.426,1.442,1.426h1.44c0.796,0,1.449-0.631,1.449-1.426
			V33.023h4.218c0.26,0,0.501-0.113,0.643-0.33c0.141-0.219,0.164-0.479,0.057-0.715L16.569,24.163z"/>
	</g>
</g>
<g>
</g>
<g>
</g>
<g>
</g>
<g>
</g>
<g>
</g>
<g>
</g>
<g>
</g>
<g>
</g>
<g>
</g>
<g>
</g>
<g>
</g>
<g>
</g>
<g>
</g>
<g>
</g>
<g>
</g>
</svg>
