<svg viewBox="0 0 512 512" xmlns="http://www.w3.org/2000/svg"><path d="m482.754 448.662v-334.866l-137.931-82.758v417.633h-25.282v-191.682c0-20.321-16.463-36.785-36.785-36.785h-87.357v208.525h-9.199v-281.82c-6.241-11.459-18.22-19.315-32.185-19.315h-80.455c-20.312 0-36.784 16.472-36.784 36.784v284.302h-36.776v35.239h514.94v-35.239h-32.186zm-59.763-324.908h41.384v41.384h-41.384zm0 72.801h41.384v41.384h-41.384zm0 74.328h41.384v41.384h-41.384zm0 72.801h41.384v41.384h-41.384zm-59.771-219.93h41.384v41.384h-41.384zm0 72.801h41.384v41.384h-41.384zm0 74.328h41.384v41.384h-41.384zm0 72.801h41.384v41.384h-41.384zm-240.622-174.821h36.784v36.784h-36.784zm0 65.907h36.784v36.784h-36.784zm0 66.763h36.784v36.784h-36.784zm0 65.898h36.784v36.784h-36.784zm-61.299-198.568h36.784v36.784h-36.784zm0 65.907h36.784v36.784h-36.784zm0 66.763h36.784v36.784h-36.784zm0 65.898h36.784v36.784h-36.784z"/></svg>