<svg xmlns="http://www.w3.org/2000/svg" viewBox="0 0 512 512"><path d="M482.754 448.662V113.796L344.823 31.038V448.671H319.541V256.989C319.541 236.668 303.078 220.204 282.756 220.204H195.399V428.729H186.2V146.909C179.959 135.45 167.98 127.594 154.015 127.594H73.56C53.248 127.594 36.776 144.066 36.776 164.378V448.68H0V483.919H514.94V448.68H482.754ZM422.991 123.754H464.375V165.138H422.991V123.754ZM422.991 196.555H464.375V237.939H422.991V196.555ZM422.991 270.883H464.375V312.267H422.991V270.883ZM422.991 343.684H464.375V385.068H422.991V343.684ZM363.22 123.754H404.604V165.138H363.22V123.754ZM363.22 196.555H404.604V237.939H363.22V196.555ZM363.22 270.883H404.604V312.267H363.22V270.883ZM363.22 343.684H404.604V385.068H363.22V343.684ZM122.598 168.863H159.382V205.647H122.598V168.863ZM122.598 234.77H159.382V271.554H122.598V234.77ZM122.598 301.533H159.382V338.317H122.598V301.533ZM122.598 367.431H159.382V404.215H122.598V367.431ZM61.299 168.863H98.083V205.647H61.299V168.863ZM61.299 234.77H98.083V271.554H61.299V234.77ZM61.299 301.533H98.083V338.317H61.299V301.533ZM61.299 367.431H98.083V404.215H61.299V367.431Z"/></svg>