<svg viewBox="0 0 512 512" xmlns="http://www.w3.org/2000/svg"><path d="m453.993 472.389h-21.365v-80.709-87.831-85.458c0-10.682-9.495-20.177-20.177-20.177h-41.543c-9.495-43.916-47.476-77.149-96.14-85.458v-15.429h67.654c10.683 0 20.179-8.309 20.179-20.178v-43.916c0-10.682-9.496-20.177-20.179-20.177h-68.839c-2.374-7.121-9.496-13.056-18.992-13.056-10.682 0-20.177 9.495-20.177 20.177v92.579c-48.664 7.122-87.832 41.542-96.14 85.458h-41.542c-10.682 0-20.177 9.495-20.177 20.177v85.458 87.831 80.709h-18.991c-10.682 0-20.177 8.308-20.177 20.178s9.495 20.178 20.177 20.178h397.615c10.683 0 20.178-9.496 20.178-20.178 0-10.683-9.495-20.178-21.364-20.178zm-230.261-233.82h64.093v45.102h-64.093zm0 173.288h64.093v45.103h-64.093zm103.261 0h65.279v45.103h-65.279zm66.467-40.355h-66.467v-48.664h65.279v48.664zm-105.636-48.663v48.664h-64.093v-48.664zm-103.26 48.663h-65.28v-48.664h65.28zm-66.467 40.355h66.467v45.103h-65.28v-45.103zm275.363-128.186h-66.467v-45.102h65.279v45.102zm-275.363-45.102h66.467v45.102h-65.28v-45.102z"/></svg>