<svg viewBox="0 0 512 512" xmlns="http://www.w3.org/2000/svg"><path d="m455.951 480.066-75.151-136.841c21.312-3.365 37.014-22.433 37.014-43.745v-201.897c0-53.839-43.744-97.583-97.584-97.583h-127.868c-53.839 0-98.705 43.744-98.705 98.705v200.775c0 22.433 15.703 40.38 37.015 43.746l-74.029 136.84c-5.608 11.216-2.243 24.676 8.973 30.285 3.365 2.243 6.73 2.243 10.095 2.243 7.851 0 15.703-4.487 19.068-11.217l6.73-11.216h309.575l6.729 11.216c4.488 7.852 11.217 11.217 19.069 11.217 3.364 0 6.729-1.121 10.095-2.243 11.216-5.609 14.582-19.069 8.974-30.285zm-105.436-100.948h-188.437l19.068-34.772h150.301zm-3.364-75.151c-17.946 0-32.529-14.581-32.529-32.529 0-17.946 14.582-32.528 32.529-32.528 17.945 0 32.528 14.582 32.528 32.528-.001 16.826-14.583 32.529-32.528 32.529zm-214.236-192.924c0-34.771 28.041-62.812 61.691-62.812h122.26c33.649 0 62.812 28.041 62.812 62.812v53.839c0 12.339-10.095 21.312-22.433 21.312h-201.897c-12.338 0-21.311-10.095-21.311-21.312zm32.528 126.747c17.946 0 32.528 14.581 32.528 32.528 0 17.946-14.582 32.528-32.528 32.528s-32.528-14.581-32.528-32.528 14.582-32.528 32.528-32.528zm-45.987 218.721 24.676-43.744h224.33l24.677 43.744z"/></svg>