<svg xmlns="http://www.w3.org/2000/svg" viewBox="0 0 512 512"><path d="M455.951 480.066L380.8 343.225C402.112 339.86 417.814 320.792 417.814 299.48V97.583C417.814 43.744 374.07 0 320.23 0H192.362C138.523 0 93.657 43.744 93.657 98.705V299.48C93.657 321.913 109.36 339.86 130.672 343.226L56.643 480.066C51.035 491.282 54.4 504.742 65.616 510.351 68.981 512.594 72.346 512.594 75.711 512.594 83.562 512.594 91.414 508.107 94.779 501.377L101.509 490.161H411.084L417.813 501.377C422.301 509.229 429.03 512.594 436.882 512.594 440.246 512.594 443.611 511.473 446.977 510.351 458.193 504.742 461.559 491.282 455.951 480.066ZM350.515 379.118H162.078L181.146 344.346H331.447L350.515 379.118ZM347.151 303.967C329.205 303.967 314.622 289.386 314.622 271.438 314.622 253.492 329.204 238.91 347.151 238.91 365.096 238.91 379.679 253.492 379.679 271.438 379.678 288.264 365.096 303.967 347.151 303.967ZM132.915 111.043C132.915 76.272 160.956 48.231 194.606 48.231H316.866C350.515 48.231 379.678 76.272 379.678 111.043V164.882C379.678 177.221 369.583 186.194 357.245 186.194H155.348C143.01 186.194 134.037 176.099 134.037 164.882L132.915 111.043 132.915 111.043ZM165.443 237.79C183.389 237.79 197.971 252.371 197.971 270.318 197.971 288.264 183.389 302.846 165.443 302.846S132.915 288.265 132.915 270.318C132.915 252.371 147.497 237.79 165.443 237.79ZM119.456 456.511L144.132 412.767H368.462L393.139 456.511H119.456Z"/></svg>