<svg viewBox="0 0 512 512" xmlns="http://www.w3.org/2000/svg"><path d="m279.868 273.909v29.249c45.012 6.831 78.51 32.474 78.51 63.14 0 35.916-45.851 65.002-102.389 65.002-56.527 0-102.378-29.097-102.378-65.002 0-30.633 33.498-56.309 78.499-63.14v-29.249h-232.11v198.711h512v-198.711zm-47.758-35.84v-53.825h-37.604v-33.008h22.016v-13.661h-44.011v-32.996h59.61c0-13.203 10.687-23.846 23.879-23.846 13.203 0 23.89 10.654 23.89 23.846 0 1.111-.185 2.146-.338 3.17h.338v130.342h232.11v-7.593-92.65c0-54.141-44.293-98.468-98.457-98.468h-315.086c-54.164 0-98.457 44.327-98.457 98.457v92.65 7.593z"/><path d="m205.116 354.565-.011 6.961.011.556c1.514 22.779 13.867 34.587 24.728 35.905 13.389 1.569 20.415-4.019 26.156-11.438 5.741 7.419 12.822 12.985 26.166 11.438 10.829-1.318 23.193-13.126 24.696-35.905l.033-7.037-.033-.458c-1.525-23.933-100.21-23.933-101.746-.022z"/></svg>