<svg xmlns="http://www.w3.org/2000/svg" viewBox="0 0 512 512"><path d="M279.868 273.909V303.158C324.88 309.989 358.378 335.632 358.378 366.298 358.378 402.214 312.527 431.3 255.989 431.3 199.462 431.3 153.611 402.203 153.611 366.298 153.611 335.665 187.109 309.989 232.11 303.158V273.909H0V472.62H512V273.909H279.868ZM232.11 238.069V184.244H194.506V151.236H216.522V137.575H172.511V104.579H232.121C232.121 91.376 242.808 80.733 256 80.733 269.203 80.733 279.89 91.387 279.89 104.579 279.89 105.69 279.705 106.725 279.552 107.749H279.89V238.091H512V230.498 137.848C512 83.707 467.707 39.38 413.543 39.38H98.457C44.293 39.38 0 83.707 0 137.837V230.487 238.08L232.11 238.069 232.11 238.069Z"/><path d="M205.116 354.565L205.105 361.526 205.116 362.082C206.63 384.861 218.983 396.669 229.844 397.987 243.233 399.556 250.259 393.968 256 386.549 261.741 393.968 268.822 399.534 282.166 397.987 292.995 396.669 305.359 384.861 306.862 362.082L306.895 355.045 306.862 354.587C305.337 330.654 206.652 330.654 205.116 354.565Z"/></svg>