<svg viewBox="0 0 512 512" xmlns="http://www.w3.org/2000/svg"><path d="M 203.478 114 L 511.994 114 L 511.994 293.597 L 203.478 293.597 Z"/><path d="M 372.625 311.424 L 185.64 311.424 L 185.64 114 C 185.64 114 147.33 117.669 147.33 144.415 C 147.33 146.934 147.33 148.91 147.33 150.647 C 87.247 153.412 45.053 169.972 21.888 200.079 C 0 228.518 0 262.205 0 282.446 L 0 372.002 L 60.638 372.002 C 59.025 366.923 58.138 361.535 58.138 355.927 C 58.138 326.662 81.948 302.846 111.218 302.846 C 140.488 302.846 164.298 326.657 164.298 355.927 C 164.298 361.535 163.411 366.923 161.797 372.002 L 350.897 372.002 C 349.282 366.923 348.39 361.535 348.39 355.927 C 348.385 337.29 358.059 320.906 372.625 311.424 Z M 136.378 244.549 C 82.196 250.146 47.67 259.892 28.482 266.966 C 29.264 250.984 32.289 232.82 44.238 217.279 C 60.7 195.887 91.666 183.265 136.378 179.563 L 136.378 244.549 Z"/><path d="M 111.218 314.735 C 88.509 314.735 70.026 333.212 70.026 355.932 C 70.026 378.651 88.504 397.129 111.218 397.129 C 133.932 397.129 152.41 378.651 152.41 355.932 C 152.41 333.212 133.926 314.735 111.218 314.735 Z M 454.551 355.927 C 454.551 361.535 453.664 366.923 452.05 372.002 L 512 372.002 L 512 311.424 L 430.311 311.424 C 444.877 320.906 454.551 337.29 454.551 355.927 Z"/><path d="M 401.465 314.735 C 378.756 314.735 360.273 333.212 360.273 355.932 C 360.273 378.651 378.751 397.129 401.465 397.129 C 424.179 397.129 442.656 378.651 442.656 355.932 C 442.656 333.212 424.179 314.735 401.465 314.735 Z"/></svg>