<svg viewBox="0 0 512 512" xmlns="http://www.w3.org/2000/svg"><path d="m203.478 114h308.516v179.597h-308.516z"/><path d="m372.625 311.424h-186.985v-197.424s-38.31 3.669-38.31 30.415v6.232c-60.083 2.765-102.277 19.325-125.442 49.432-21.888 28.439-21.888 62.126-21.888 82.367v89.556h60.638c-1.613-5.079-2.5-10.467-2.5-16.075 0-29.265 23.81-53.081 53.08-53.081s53.08 23.811 53.08 53.081c0 5.608-.887 10.996-2.501 16.075h189.1c-1.615-5.079-2.507-10.467-2.507-16.075-.005-18.637 9.669-35.021 24.235-44.503zm-236.247-66.875c-54.182 5.597-88.708 15.343-107.896 22.417.782-15.982 3.807-34.146 15.756-49.687 16.462-21.392 47.428-34.014 92.14-37.716z"/><path d="m111.218 314.735c-22.709 0-41.192 18.477-41.192 41.197 0 22.719 18.478 41.197 41.192 41.197s41.192-18.478 41.192-41.197c0-22.72-18.484-41.197-41.192-41.197zm343.333 41.192c0 5.608-.887 10.996-2.501 16.075h59.95v-60.578h-81.689c14.566 9.482 24.24 25.866 24.24 44.503z"/><path d="m401.465 314.735c-22.709 0-41.192 18.477-41.192 41.197 0 22.719 18.478 41.197 41.192 41.197s41.191-18.478 41.191-41.197c0-22.72-18.477-41.197-41.191-41.197z"/></svg>