<svg viewBox="0 0 512 512" xmlns="http://www.w3.org/2000/svg"><path d="m313.854 253.364-2.012-4.673 1.246-4.932c3.494-13.84 1.759-30.842-.645-43.238-8.61 2.942-19.838 7.599-29.491 14.284l-5.532 3.832-6.54-1.585c-9.779-2.369-19.979-2.369-29.759 0l-6.54 1.585-5.532-3.832c-9.596-6.646-20.838-11.307-29.471-14.261-2.31 11.715-4.314 28.761-.665 43.215l1.246 4.932-2.012 4.673c-3.39 7.87-5.109 16.237-5.109 24.865 0 34.717 28.245 62.961 62.962 62.961s62.962-28.244 62.962-62.961c0-8.628-1.719-16.994-5.108-24.865z"/><path d="m394 118v-118h-276v118h-118v276h118v118h276v-118h118v-276zm-138.001 253.189c-51.259 0-92.962-41.702-92.962-92.961 0-11.049 1.914-21.815 5.696-32.076-6.083-32.02 5.286-67.415 5.798-68.981l4.181-12.793 13.169 2.775c1.141.24 26.222 5.638 48.73 19.399 10.188-1.709 20.59-1.709 30.777 0 22.508-13.762 47.589-19.159 48.73-19.399l13.169-2.775 4.181 12.793c.512 1.566 11.881 36.961 5.797 68.981 3.782 10.261 5.696 21.027 5.696 32.076 0 51.259-41.703 92.961-92.962 92.961z"/></svg>