<svg xmlns="http://www.w3.org/2000/svg" viewBox="0 0 512 512"><path d="M313.854,253.364l-2.012-4.673l1.246-4.932c3.494-13.84,1.759-30.842-0.645-43.238 c-8.61,2.942-19.838,7.599-29.491,14.284l-5.532,3.832l-6.54-1.585c-9.779-2.369-19.979-2.369-29.759,0l-6.54,1.585l-5.532-3.832 c-9.596-6.646-20.838-11.307-29.471-14.261c-2.31,11.715-4.314,28.761-0.665,43.215l1.246,4.932l-2.012,4.673 c-3.39,7.87-5.109,16.237-5.109,24.865c0,34.717,28.245,62.961,62.962,62.961c34.717,0,62.962-28.244,62.962-62.961 C318.962,269.601,317.243,261.235,313.854,253.364z"/><path d="M394,118V0H118v118H0v276h118v118h276V394h118V118H394z M255.999,371.189c-51.259,0-92.962-41.702-92.962-92.961 c0-11.049,1.914-21.815,5.696-32.076c-6.083-32.02,5.286-67.415,5.798-68.981l4.181-12.793l13.169,2.775 c1.141,0.24,26.222,5.638,48.73,19.399c10.188-1.709,20.59-1.709,30.777,0c22.508-13.762,47.589-19.159,48.73-19.399l13.169-2.775 l4.181,12.793c0.512,1.566,11.881,36.961,5.797,68.981c3.782,10.261,5.696,21.027,5.696,32.076 C348.961,329.487,307.258,371.189,255.999,371.189z"/></svg>