<svg viewBox="0 0 512 512" xmlns="http://www.w3.org/2000/svg"><path d="m511.983 359.108c0 14.204-13.432 27.638-27.637 27.638-18.167 0-28.958 8.809-44.483 22.902-15.525 14.094-36.335 36.336-70.028 36.336s-54.614-22.242-70.029-36.336c-15.526-14.203-25.656-22.902-43.823-22.902s-28.297 8.809-43.822 22.902c-15.525 14.094-36.336 36.336-70.029 36.336s-54.613-22.242-70.028-36.336c-15.525-14.203-25.655-22.902-43.823-22.902-14.204 0-27.637-12.773-27.637-27.638s13.433-27.637 27.637-26.976c37.767 0 63.973 21.582 80.819 37.106 16.846 15.526 25.655 22.242 33.693 22.242s16.186-6.717 33.032-22.242c16.847-15.525 43.162-37.106 80.819-37.106s63.312 21.582 80.818 37.106c16.848 15.526 25.656 22.242 33.694 22.242s16.186-6.717 33.032-22.242c16.847-15.525 43.162-37.106 80.818-37.106 13.545-.661 26.977 12.882 26.977 26.976zm-484.472-238.493c18.168 0 28.298 8.038 43.823 22.242s36.336 36.335 70.029 36.335h6.056c30.279-2.642 49.218-22.902 63.972-36.335 13.433-12.112 22.902-20.26 37.767-22.242 1.982 0 4.074-.661 6.716-.661 18.168 0 28.298 8.038 43.823 22.242 4.074 3.413 8.038 7.377 12.774 12.112 14.203 12.112 31.711 24.884 57.256 24.884h6.056c30.279-2.642 49.217-22.902 63.972-36.335 13.433-12.112 22.903-20.26 37.767-22.242 1.982 0 4.074-.661 6.718-.661 3.413 0 7.376-.66 10.128-1.981 1.322-.661 3.415-1.322 4.736-2.643 7.376-4.735 12.773-13.433 12.773-22.242 0-3.413-.661-7.377-1.982-10.13-1.322-3.413-3.415-6.056-6.056-8.808-1.321-1.322-2.643-2.643-4.074-3.414-1.321-.66-2.643-1.982-4.735-2.642-1.982-.661-3.414-1.321-5.395-1.321-1.982-.661-3.413-.661-5.394-.661-1.983 0-4.736 0-6.718 0-33.693 2.642-57.916 21.581-74.102 36.335-14.865 13.433-22.903 20.921-30.28 22.242-1.321 0-1.982.661-2.642.661-1.982 0-4.074-.661-6.056-1.322-4.074-1.982-9.47-5.395-15.525-11.451-3.415-2.642-7.378-6.056-11.452-10.13-16.846-15.525-43.162-36.335-80.819-36.335-1.982 0-4.734 0-6.716 0-33.693 2.642-57.917 21.581-74.102 36.335-14.865 13.433-22.903 20.921-30.28 22.242-1.321 0-1.982.661-2.643.661-1.982 0-4.074-.661-6.056-1.322s-4.734-2.642-7.377-4.074c-5.395-3.413-11.451-9.469-20.26-16.846-16.846-15.525-43.162-36.335-80.818-36.335-.661 0-1.982 0-2.643 0-14.204.66-26.976 14.203-25.655 28.297-.883 14.094 13.211 26.206 27.414 25.545zm456.176 78.176c-1.983 0-4.736 0-6.718 0-33.693 2.643-57.916 22.242-74.102 36.336-14.865 13.433-22.902 20.92-30.28 22.242-1.321 0-1.982.66-2.642.66-2.642 0-6.056-1.321-9.469-3.413-6.056-3.413-13.434-9.469-23.563-19.489-16.847-15.525-43.162-37.106-80.818-37.106-1.982 0-4.735 0-6.717 0-33.693 2.642-57.916 22.241-74.102 36.335-14.865 13.433-22.903 20.921-30.28 22.242-1.321 0-1.982.661-2.642.661-2.643 0-6.056-1.321-9.47-3.414-1.321-.66-2.642-1.321-4.074-1.982-5.395-3.413-11.451-9.469-20.259-16.846-16.847-15.525-43.163-37.106-80.819-37.106-14.204 0-27.637 12.772-27.637 27.637s13.433 27.637 27.637 26.976c18.167 0 28.297 8.809 43.822 22.902 15.526 14.204 36.336 36.336 70.029 36.336h6.056c30.279-2.642 49.218-22.903 63.972-36.336 9.469-8.808 17.507-15.525 26.316-18.828 1.982-.661 3.413-1.321 5.395-1.982s4.074-.661 6.056-1.321c1.982 0 4.074-.661 6.717-.661 18.167 0 28.297 8.809 43.822 22.902 4.074 3.414 8.038 7.378 12.773 12.112 14.204 12.112 31.712 24.885 57.256 24.885h6.056c30.279-2.642 49.218-22.903 63.973-36.336 9.47-8.809 17.506-15.525 26.315-18.828 1.983-.662 3.414-1.322 5.395-1.982s4.074-.661 6.056-1.322c1.982 0 4.074-.66 6.717-.66 14.204 0 27.638-12.773 27.638-26.977-.113-14.203-13.545-27.637-28.409-27.637z"/></svg>