<svg xmlns="http://www.w3.org/2000/svg" viewBox="0 0 512 512"><path d="M511.983 359.108C511.983 373.312 498.551 386.746 484.346 386.746 466.179 386.746 455.388 395.555 439.863 409.648 424.338 423.742 403.528 445.984 369.835 445.984S315.221 423.742 299.806 409.648C284.28 395.445 274.15 386.746 255.983 386.746 237.816 386.746 227.686 395.555 212.161 409.648 196.636 423.742 175.825 445.984 142.132 445.984 108.439 445.984 87.519 423.742 72.104 409.648 56.579 395.445 46.449 386.746 28.281 386.746 14.077 386.746 0.644 373.973 0.644 359.108S14.077 331.471 28.281 332.132C66.048 332.132 92.254 353.714 109.1 369.238 125.946 384.764 134.755 391.48 142.793 391.48 150.831 391.48 158.979 384.763 175.825 369.238 192.672 353.713 218.987 332.132 256.644 332.132S319.956 353.714 337.462 369.238C354.31 384.764 363.118 391.48 371.156 391.48S387.342 384.763 404.188 369.238C421.035 353.713 447.35 332.132 485.006 332.132 498.551 331.471 511.983 345.014 511.983 359.108ZM27.511 120.615C45.679 120.615 55.809 128.653 71.334 142.857 86.859 157.061 107.67 179.192 141.363 179.192 143.345 179.192 145.437 179.192 147.419 179.192 177.698 176.55 196.637 156.29 211.391 142.857 224.824 130.745 234.293 122.597 249.158 120.615 251.14 120.615 253.232 119.954 255.874 119.954 274.042 119.954 284.172 127.992 299.697 142.196 303.771 145.609 307.735 149.573 312.471 154.308 326.674 166.42 344.182 179.192 369.727 179.192 371.709 179.192 373.8 179.192 375.783 179.192 406.062 176.55 425 156.29 439.755 142.857 453.188 130.745 462.658 122.597 477.522 120.615 479.504 120.615 481.596 119.954 484.24 119.954 487.653 119.954 491.616 119.294 494.368 117.973 495.69 117.312 497.783 116.651 499.104 115.33 506.48 110.595 511.877 101.897 511.877 93.088 511.877 89.675 511.216 85.711 509.895 82.958L509.895 82.958C508.573 79.545 506.48 76.902 503.839 74.15 502.518 72.828 501.196 71.507 499.765 70.736 498.444 70.076 497.122 68.754 495.03 68.094 493.048 67.433 491.616 66.773 489.635 66.773 487.653 66.112 486.222 66.112 484.241 66.112 482.258 66.112 479.505 66.112 477.523 66.112 443.83 68.754 419.607 87.693 403.421 102.447 388.556 115.88 380.518 123.368 373.141 124.689 371.82 124.689 371.159 125.35 370.499 125.35 368.517 125.35 366.425 124.689 364.443 124.028 360.369 122.046 354.973 118.633 348.918 112.577 345.503 109.935 341.54 106.521 337.466 102.447 320.62 86.922 294.304 66.112 256.647 66.112 254.665 66.112 251.913 66.112 249.931 66.112 216.238 68.754 192.014 87.693 175.829 102.447 160.964 115.88 152.926 123.368 145.549 124.689 144.228 124.689 143.567 125.35 142.906 125.35 140.924 125.35 138.832 124.689 136.85 124.028S132.116 121.386 129.473 119.954C124.078 116.541 118.022 110.485 109.213 103.108 92.367 87.583 66.051 66.773 28.395 66.773 27.734 66.773 26.413 66.773 25.752 66.773L25.752 66.773C11.548 67.433-1.224 80.976 0.097 95.07-0.786 109.164 13.308 121.276 27.511 120.615ZM483.687 198.791C481.704 198.791 478.951 198.791 476.969 198.791 443.276 201.434 419.053 221.033 402.867 235.127 388.002 248.56 379.965 256.047 372.587 257.369 371.266 257.369 370.605 258.029 369.945 258.029 367.303 258.029 363.889 256.708 360.476 254.616 354.42 251.203 347.042 245.147 336.913 235.127 320.066 219.602 293.751 198.021 256.095 198.021 254.113 198.021 251.36 198.021 249.378 198.021 215.685 200.663 191.462 220.262 175.276 234.356 160.411 247.789 152.373 255.277 144.996 256.598 143.675 256.598 143.014 257.259 142.354 257.259 139.711 257.259 136.298 255.938 132.884 253.845 131.563 253.185 130.242 252.524 128.81 251.863 123.415 248.45 117.359 242.394 108.551 235.017 91.704 219.492 65.388 197.911 27.732 197.911 13.528 197.911 0.095 210.683 0.095 225.548S13.528 253.185 27.732 252.524C45.899 252.524 56.029 261.333 71.554 275.426 87.08 289.63 107.89 311.762 141.583 311.762 143.565 311.762 145.657 311.762 147.639 311.762 177.918 309.12 196.857 288.859 211.611 275.426 221.08 266.618 229.118 259.901 237.927 256.598 239.909 255.937 241.34 255.277 243.322 254.616 245.304 253.955 247.396 253.955 249.378 253.295 251.36 253.295 253.452 252.634 256.095 252.634 274.262 252.634 284.392 261.443 299.917 275.536 303.991 278.95 307.955 282.914 312.69 287.648 326.894 299.76 344.402 312.533 369.946 312.533 371.929 312.533 374.02 312.533 376.002 312.533 406.281 309.891 425.22 289.63 439.975 276.197 449.445 267.388 457.481 260.672 466.29 257.369 468.273 256.707 469.704 256.047 471.685 255.387S475.759 254.726 477.741 254.065C479.723 254.065 481.815 253.405 484.458 253.405 498.662 253.405 512.096 240.632 512.096 226.428 511.983 212.225 498.551 198.791 483.687 198.791Z"/></svg>