<?xml version="1.0" encoding="iso-8859-1"?>
<!-- Generator: Adobe Illustrator 16.0.0, SVG Export Plug-In . SVG Version: 6.00 Build 0)  -->
<!DOCTYPE svg PUBLIC "-//W3C//DTD SVG 1.1//EN" "http://www.w3.org/Graphics/SVG/1.1/DTD/svg11.dtd">
<svg version="1.1" id="Capa_1" xmlns="http://www.w3.org/2000/svg" xmlns:xlink="http://www.w3.org/1999/xlink" x="0px" y="0px"
	 width="554.673px" height="554.673px" viewBox="0 0 554.673 554.673" style="enable-background:new 0 0 554.673 554.673;"
	 xml:space="preserve">
<g>
	<g>
		<path d="M13.501,510.53c3.041,0,6.11-1.032,8.616-3.127l49.094-40.937c3.107-2.602,9.476-2.975,12.89-0.774l50.71,32.885
			c13.11,8.521,32.398,7.822,44.848-1.568l40.937-30.829c3.414-2.592,10.595-2.897,14.219-0.593l52.709,33.287
			c12.804,8.08,32.053,7.965,44.781-0.277l50.7-32.904c3.825-2.468,11.522-2.43,15.31,0.076l49.505,32.637
			c13.024,8.616,32.34,8.109,44.887-1.167l56.504-41.769c5.986-4.428,7.239-12.871,2.821-18.848
			c-4.418-5.996-12.861-7.258-18.848-2.821l-56.505,41.76c-3.385,2.505-10.471,2.716-14.009,0.363l-49.515-32.646
			c-12.737-8.415-32.025-8.511-44.819-0.191l-50.71,32.904c-3.893,2.506-11.81,2.563-15.73,0.096l-52.7-33.287
			c-13.148-8.28-32.417-7.487-44.838,1.855l-40.927,30.829c-3.385,2.563-10.414,2.803-13.971,0.488l-50.7-32.876
			c-13.33-8.673-32.618-7.517-44.829,2.678L4.848,486.71c-5.719,4.763-6.483,13.254-1.731,18.973
			C5.813,508.876,9.648,510.53,13.501,510.53z"/>
		<path d="M188.104,297.898c19.794,0,35.907-16.122,35.907-35.973c0-19.794-16.113-35.802-35.907-35.802
			c-19.747,0-35.869,16.008-35.869,35.802C152.234,281.786,168.357,297.898,188.104,297.898z"/>
		<path d="M434.022,56.8l-72.694,123.749L254.343,245.43c-5.317,2.936-9.763,7.373-12.862,12.804l-83.222,143.389
			c-5.584,9.601-2.333,22.022,7.325,27.616c9.61,5.757,21.975,2.438,27.626-7.162l65.016-96.533l119.426-82.658
			c5.432-2.983,9.878-7.43,12.814-12.804l87.123-148.276c6.895-11.991,2.764-27.339-9.228-34.348
			C456.274,40.572,440.907,44.761,434.022,56.8z"/>
	</g>
</g>
<g>
</g>
<g>
</g>
<g>
</g>
<g>
</g>
<g>
</g>
<g>
</g>
<g>
</g>
<g>
</g>
<g>
</g>
<g>
</g>
<g>
</g>
<g>
</g>
<g>
</g>
<g>
</g>
<g>
</g>
</svg>
