<svg xmlns="http://www.w3.org/2000/svg" viewBox="0 0 512 512"><path d="M492.308 167.385c0 0-49.749 0-87.061 58.732-3.541 5.573-6.412 11.398-8.725 17.601-14.578-72.254-41.023-111.571-41.023-111.571-5.064 61.718-23.846 113.508-45.334 154.13C299.646 141.5 229.744 49.231 229.744 49.231c-7.647 100.23-23.482 180.829-37.683 237.081-13.577-42.952-29.969-101.045-47.995-177.659 0 0-24.023 45.395-36.234 119.238-.357-.592-.705-1.188-1.078-1.775-37.312-58.732-87.061-58.732-87.061-58.732 28.121 79.674 13.855 166.007 5.12 203.714 8.85-2.83 18.269-4.373 28.046-4.373h406.284c9.777 0 19.196 1.541 28.046 4.373C478.452 333.392 464.187 247.06 492.308 167.385zM459.142 406.111H52.858C23.712 406.111 0 429.823 0 458.969c0 1.084.022 2.387.06 3.801H511.94c.038-1.414.06-2.715.06-3.801C512 429.823 488.288 406.111 459.142 406.111z"/></svg>