<svg viewBox="0 0 512 512" xmlns="http://www.w3.org/2000/svg"><path d="m492.308 167.385s-49.749 0-87.061 58.732c-3.541 5.573-6.412 11.398-8.725 17.601-14.578-72.254-41.023-111.571-41.023-111.571-5.064 61.718-23.846 113.508-45.334 154.13-10.519-144.777-80.421-237.046-80.421-237.046-7.647 100.23-23.482 180.829-37.683 237.081-13.577-42.952-29.969-101.045-47.995-177.659 0 0-24.023 45.395-36.234 119.238-.357-.592-.705-1.188-1.078-1.775-37.312-58.732-87.061-58.732-87.061-58.732 28.121 79.674 13.855 166.007 5.12 203.714 8.85-2.83 18.269-4.373 28.046-4.373h406.284c9.777 0 19.196 1.541 28.046 4.373-8.737-37.706-23.002-124.038 5.119-203.713zm-33.166 238.726h-406.284c-29.146 0-52.858 23.712-52.858 52.858 0 1.084.022 2.387.06 3.801h511.88c.038-1.414.06-2.715.06-3.801 0-29.146-23.712-52.858-52.858-52.858z"/></svg>