<svg viewBox="0 0 512 512" xmlns="http://www.w3.org/2000/svg"><path d="m449.771 470.475-33.389-144.685c-3.722-14.89-17.047-25.287-32.394-25.287h-64.876c-9.178-15.069-21.144-28.282-35.291-38.91v-94.647c0-25.164-26.951-40.553-48.323-29.868l-66.778 33.389c-11.385 5.69-18.344 17.135-18.344 29.868v42.705c-.207.071-.417.094-.622.174-53.773 21.003-88.521 71.886-88.521 129.632 0 76.713 62.409 139.122 139.122 139.122 77.23 0 142.093-63.95 138.875-144.687h18.691l27.063 119.4c4.459 17.802 22.381 28.848 40.498 24.292 17.85-4.462 28.746-22.629 24.289-40.498zm-249.418 8.104c-58.301 0-105.732-47.432-105.732-105.732 0-39.568 21.583-74.727 55.754-92.997v42.913c0 18.412 14.866 33.389 33.278 33.389s33.389-14.977 33.389-33.389v-54.647c.826.292 1.658.574 2.549.738 50.116 9.205 86.495 52.942 86.495 103.994-.001 58.299-47.432 105.731-105.733 105.731zm55.649-478.579c-27.617 0-50.084 22.466-50.084 50.084s22.466 50.084 50.084 50.084 50.084-22.466 50.084-50.084-22.467-50.084-50.084-50.084z"/></svg>