<svg xmlns="http://www.w3.org/2000/svg" viewBox="0 0 512 512"><path d="M308.181 0L301.867 2.944C271.872 16.853 244.736 38.699 223.488 66.091 167.125 138.624 149.419 254.08 204.245 310.912L106.88 436.267C78.635 417.365 49.024 407.125 24.235 407.083L178.048 526.592C171.904 502.613 154.667 476.416 129.365 453.76L226.731 328.405C295.381 367.488 402.859 321.792 459.221 249.216 480.469 221.824 494.976 190.165 500.992 157.653L502.272 150.784 308.181 0ZM456.832 211.243L199.467 170.368C206.976 137.984 221.653 105.813 241.579 80.171 259.157 57.557 281.045 39.253 305.28 26.795L477.056 160.256C473.088 177.877 466.091 195.029 456.832 211.243Z"/></svg>