<?xml version="1.0" encoding="iso-8859-1"?>
<!-- Generator: Adobe Illustrator 16.0.0, SVG Export Plug-In . SVG Version: 6.00 Build 0)  -->
<!DOCTYPE svg PUBLIC "-//W3C//DTD SVG 1.1//EN" "http://www.w3.org/Graphics/SVG/1.1/DTD/svg11.dtd">
<svg version="1.1" id="Capa_1" xmlns="http://www.w3.org/2000/svg" xmlns:xlink="http://www.w3.org/1999/xlink" x="0px" y="0px"
	 width="12.342px" height="12.342px" viewBox="0 0 12.342 12.342" style="enable-background:new 0 0 12.342 12.342;"
	 xml:space="preserve">
<g>
	<path d="M7.223,0L7.075,0.069c-0.703,0.326-1.339,0.838-1.837,1.48c-1.321,1.7-1.736,4.406-0.451,5.738l-2.282,2.938
		C1.843,9.782,1.149,9.542,0.568,9.541l3.605,2.801c-0.144-0.562-0.548-1.176-1.141-1.707l2.282-2.938
		c1.609,0.916,4.128-0.155,5.449-1.856c0.498-0.642,0.838-1.384,0.979-2.146l0.03-0.161L7.223,0z M10.707,4.951L4.675,3.993
		c0.176-0.759,0.52-1.513,0.987-2.114c0.412-0.53,0.925-0.959,1.493-1.251l4.026,3.128C11.088,4.169,10.924,4.571,10.707,4.951z"/>
</g>
<g>
</g>
<g>
</g>
<g>
</g>
<g>
</g>
<g>
</g>
<g>
</g>
<g>
</g>
<g>
</g>
<g>
</g>
<g>
</g>
<g>
</g>
<g>
</g>
<g>
</g>
<g>
</g>
<g>
</g>
</svg>
