<svg viewBox="0 0 512 512" xmlns="http://www.w3.org/2000/svg"><path d="m308.181 0-6.314 2.944c-29.995 13.909-57.131 35.755-78.379 63.147-56.363 72.533-74.069 187.989-19.243 244.821l-97.365 125.355c-28.245-18.902-57.856-29.142-82.645-29.184l153.813 119.509c-6.144-23.979-23.381-50.176-48.683-72.832l97.366-125.355c68.65 39.083 176.128-6.613 232.49-79.189 21.248-27.392 35.755-59.051 41.771-91.563l1.28-6.869zm148.651 211.243-257.365-40.875c7.509-32.384 22.186-64.555 42.112-90.197 17.578-22.614 39.466-40.918 63.701-53.376l171.776 133.461c-3.968 17.621-10.965 34.773-20.224 50.987z"/></svg>