<svg xmlns="http://www.w3.org/2000/svg" viewBox="0 0 512 512"><path d="M432.264 421.363C445.969 484.26 377.67 497.907 347.587 489.718S256.142 480.165 256.142 480.165 194.611 481.53 164.528 489.718C134.444 497.964 66.089 484.259 79.737 421.363S153.553 361.196 170.044 276.406C186.48 191.615 256.2 197.074 256.2 197.074S325.749 191.615 342.185 276.406C358.563 361.196 418.615 358.466 432.264 421.363ZM319.267 191.559C356.288 202.249 397.176 173.02 410.655 126.274 424.132 79.585 405.081 33.066 368.06 22.376 331.038 11.684 290.151 40.914 276.672 87.661 263.195 134.349 282.246 180.868 319.267 191.559ZM472.697 174.556C437.041 159.997 393.252 184.679 374.883 229.717 356.515 274.757 370.505 323.039 406.161 337.539 441.817 352.04 485.606 327.416 503.974 282.377 522.343 237.338 508.354 189.114 472.697 174.556ZM192.735 191.559C229.756 180.867 248.807 134.349 235.33 87.661S180.907 11.742 143.942 22.433C106.977 33.124 87.87 79.642 101.347 126.331 114.826 173.02 155.714 202.249 192.735 191.559ZM105.897 337.539C141.554 322.981 155.543 274.7 137.174 229.717S75.017 159.997 39.361 174.556C3.705 189.114-10.285 237.395 8.084 282.377 26.452 327.416 70.241 352.097 105.897 337.539Z"/></svg>