<svg viewBox="0 0 512 512" xmlns="http://www.w3.org/2000/svg"><path d="m432.264 421.363c13.705 62.897-54.594 76.544-84.677 68.355s-91.445-9.553-91.445-9.553-61.531 1.365-91.614 9.553c-30.084 8.246-98.439-5.459-84.791-68.355s73.816-60.167 90.307-144.957c16.436-84.791 86.156-79.332 86.156-79.332s69.549-5.459 85.985 79.332c16.378 84.79 76.43 82.06 90.079 144.957zm-112.997-229.804c37.021 10.69 77.909-18.539 91.388-65.285 13.477-46.689-5.574-93.208-42.595-103.898-37.022-10.692-77.909 18.538-91.388 65.285-13.477 46.688 5.574 93.207 42.595 103.898zm153.43-17.003c-35.656-14.559-79.445 10.123-97.814 55.161-18.368 45.04-4.378 93.322 31.278 107.822 35.656 14.501 79.445-10.123 97.813-55.162 18.369-45.039 4.38-93.263-31.277-107.821zm-279.962 17.003c37.021-10.692 56.072-57.21 42.595-103.898s-54.423-75.919-91.388-65.228-56.072 57.209-42.595 103.898c13.479 46.689 54.367 75.918 91.388 65.228zm-86.838 145.98c35.657-14.558 49.646-62.839 31.277-107.822s-62.157-69.72-97.813-55.161c-35.656 14.558-49.646 62.839-31.277 107.821 18.368 45.039 62.157 69.72 97.813 55.162z"/></svg>